<?xml version="1.0" encoding="UTF-8" standalone="no"?>

<svg
   xmlns:xlink="http://www.w3.org/1999/xlink"
   xmlns:svg="http://www.w3.org/2000/svg"
   xmlns="http://www.w3.org/2000/svg"
   xmlns:mingh="http://www.minghworld.com"
   width="300px"
   height="300px" >
   
	<defs>
		<path id="txtpath" style="fill:none;stroke:#f0f;stroke-width:0.25px;"
		 d="M 105.11,150 194.89,150" />
	 
		<path id="birth" style="fill:#00f;stroke:none;"
         d="M 193.89,150.01 C 193.89,148.94 193.51,148.03 192.76,147.27 C 192,146.52 191.07,146.14 190,146.14 C 188.93,146.14 188.01,146.52 187.26,147.27 C 186.5,148.03 186.12,148.94 186.12,150.01 C 186.12,151.07 186.5,151.98 187.26,152.73 C 188.01,153.49 188.93,153.86 190,153.86 C 191.07,153.86 192,153.49 192.76,152.73 C 193.51,151.98 193.89,151.07 193.89,150.01 z" />
		 
		<path id="diamond" style="fill:none;stroke:#000;stroke-width:0.25px;"
         d="M 192.83,150.01 C 192.83,150.78 192.55,151.44 192,151.99 C 191.44,152.53 190.78,152.81 189.99,152.81 C 189.21,152.81 188.55,152.53 187.99,151.99 C 187.45,151.44 187.17,150.78 187.17,150.01 C 187.17,149.23 187.45,148.57 187.99,148.01 C 188.55,147.47 189.21,147.19 189.99,147.19 C 190.78,147.19 191.44,147.47 192,148.01 C 192.55,148.57 192.83,149.23 192.83,150.01 z" />
	</defs>	
	
	 <g>	
		<path id="shape" style="fill:none;stroke:#fb0;stroke-width:0.25px;"
			d="M 99.93,156.45 C 99.76,156.45 99.58,156.43 99.41,156.4 C 99.24,156.37 99.07,156.32 98.92,156.25 C 98.75,156.19 98.6,156.11 98.46,156.01 C 98.32,155.91 98.19,155.8 98.07,155.68 C 97.94,155.56 97.82,155.42 97.72,155.29 C 97.62,155.14 97.54,155.0 97.47,154.84 C 97.41,154.68 97.36,154.52 97.32,154.35 C 97.29,154.18 97.28,154.01 97.28,153.83 L 97.28,146.17 C 97.28,145.81 97.34,145.47 97.47,145.16 C 97.6,144.85 97.79,144.57 98.05,144.31 C 98.31,144.06 98.6,143.87 98.92,143.74 C 99.23,143.61 99.57,143.55 99.93,143.55 L 200.07,143.55 C 200.43,143.55 200.77,143.61 201.09,143.74 C 201.41,143.87 201.69,144.06 201.95,144.31 C 202.21,144.57 202.4,144.85 202.53,145.16 C 202.66,145.47 202.72,145.81 202.72,146.17 L 202.72,153.83 C 202.72,154.56 202.46,155.18 201.93,155.68 C 201.81,155.8 201.68,155.91 201.54,156.01 C 201.4,156.11 201.25,156.19 201.08,156.25 C 200.93,156.32 200.76,156.37 200.59,156.4 C 200.42,156.43 200.24,156.45 200.07,156.45 z M 197.4,150.01 C 197.41,150.24 197.46,150.46 197.55,150.68 C 197.65,150.9 197.77,151.09 197.93,151.25 C 198.1,151.41 198.29,151.54 198.52,151.63 C 198.72,151.7 198.95,151.74 199.2,151.73 C 199.44,151.73 199.66,151.69 199.87,151.62 C 200.09,151.53 200.29,151.41 200.45,151.25 C 200.61,151.08 200.73,150.89 200.83,150.67 C 200.92,150.45 200.97,150.23 200.97,150.0 C 200.97,149.78 200.93,149.56 200.83,149.34 C 200.74,149.12 200.61,148.93 200.44,148.77 C 200.28,148.62 200.08,148.49 199.86,148.4 C 199.63,148.31 199.4,148.26 199.18,148.27 C 198.96,148.27 198.74,148.31 198.51,148.4 C 198.28,148.5 198.09,148.63 197.93,148.78 C 197.77,148.94 197.64,149.13 197.54,149.35 C 197.45,149.57 197.4,149.79 197.4,150.01 z M 102.6,150.01 C 102.6,149.79 102.55,149.57 102.46,149.35 C 102.36,149.13 102.23,148.94 102.07,148.78 C 101.91,148.63 101.72,148.5 101.49,148.4 C 101.26,148.31 101.04,148.27 100.82,148.27 C 100.6,148.26 100.37,148.31 100.14,148.4 C 99.92,148.49 99.72,148.62 99.56,148.77 C 99.39,148.93 99.26,149.12 99.17,149.34 C 99.07,149.56 99.03,149.78 99.03,150.0 C 99.03,150.23 99.08,150.45 99.17,150.67 C 99.27,150.89 99.39,151.08 99.55,151.25 C 99.71,151.41 99.91,151.53 100.13,151.62 C 100.34,151.69 100.56,151.73 100.81,151.73 C 101.05,151.74 101.28,151.7 101.48,151.62 C 101.71,151.54 101.91,151.41 102.07,151.25 C 102.23,151.1 102.35,150.91 102.45,150.68 C 102.54,150.45 102.59,150.23 102.6,150.01 z" />
		<!-- Name One -->
		<text dy="2.5" style="stroke:none;fill:#f00;font-family:z_swan;font-size:20px;text-anchor:start;">
			<textPath id="txtStart2" startOffset="2%" xlink:href="#txtpath"  class="txt" ></textPath>
		</text>
		
		<text dy="2.5" style="stroke:none;fill:#f00;font-family:z_swan;font-size:20px;text-anchor:middle;">
			<textPath id="txtMid2" startOffset="50%" xlink:href="#txtpath"  class="txt" ></textPath>
		</text>
		
		<text dy="2.5" style="stroke:none;fill:#f00;font-family:z_swan;font-size:20px;text-anchor:end;">
			<textPath id="txtEnd2" startOffset="98%" xlink:href="#txtpath"  class="txt" ></textPath>
		</text>
			
		<!-- Prism Reference -->
		<cam mingh:cam="--actions=EditSelectAll;ObjectToPath;ZoomPage;ZoomCenterPage;FileVacuum;FileSave; -g" mingh:style="source:microprism">M2</cam> 
	 </g>

</svg>
