<?xml version="1.0" encoding="UTF-8" standalone="no"?>

<svg
   xmlns:xlink="http://www.w3.org/1999/xlink"
   xmlns:svg="http://www.w3.org/2000/svg"
   xmlns="http://www.w3.org/2000/svg"
   xmlns:mingh="http://www.minghworld.com"
   width="300px"
   height="300px" >
   
	<defs>
		<path id="txtpath" style="fill:none;stroke:#f0f;stroke-width:0.25px;"
		 d="M 105.11,150 194.89,150" />
	 
		<path id="birth" style="fill:#00f;stroke:none;"
         d="M 193.89,150.01 C 193.89,148.94 193.51,148.03 192.76,147.27 C 192,146.52 191.07,146.14 190,146.14 C 188.93,146.14 188.01,146.52 187.26,147.27 C 186.5,148.03 186.12,148.94 186.12,150.01 C 186.12,151.07 186.5,151.98 187.26,152.73 C 188.01,153.49 188.93,153.86 190,153.86 C 191.07,153.86 192,153.49 192.76,152.73 C 193.51,151.98 193.89,151.07 193.89,150.01 z" />
		 
		<path id="diamond" style="fill:none;stroke:#000;stroke-width:0.25px;"
         d="M 192.83,150.01 C 192.83,150.78 192.55,151.44 192,151.99 C 191.44,152.53 190.78,152.81 189.99,152.81 C 189.21,152.81 188.55,152.53 187.99,151.99 C 187.45,151.44 187.17,150.78 187.17,150.01 C 187.17,149.23 187.45,148.57 187.99,148.01 C 188.55,147.47 189.21,147.19 189.99,147.19 C 190.78,147.19 191.44,147.47 192,148.01 C 192.55,148.57 192.83,149.23 192.83,150.01 z" />
	</defs>	
	
	<g>	
		<path id="shape" style="fill:none;stroke:#fb0;stroke-width:0.25px;"
		d="M 101.69,143.03 C 101.06,143.03 100.43,143.17 99.84,143.41 C 99.26,143.64 98.76,143.97 98.31,144.41 C 97.86,144.86 97.52,145.36 97.28,145.94 C 97.03,146.52 96.91,147.11 96.91,147.72 L 96.91,152.28 C 96.91,152.89 97.03,153.48 97.28,154.06 C 97.52,154.64 97.86,155.14 98.31,155.59 C 98.76,156.03 99.26,156.36 99.84,156.59 C 100.43,156.83 101.06,156.97 101.69,156.97 L 198.31,156.97 C 198.94,156.97 199.57,156.83 200.16,156.59 C 200.74,156.36 201.24,156.03 201.69,155.59 C 202.14,155.14 202.48,154.64 202.72,154.06 C 202.97,153.48 203.09,152.89 203.09,152.28 L 203.09,147.72 C 203.09,147.11 202.97,146.52 202.72,145.94 C 202.48,145.36 202.14,144.86 201.69,144.41 C 201.24,143.97 200.74,143.64 200.16,143.41 C 199.57,143.17 198.94,143.03 198.31,143.03 L 101.69,143.03 z M 101.69,145.13 C 102.16,145.13 102.59,145.23 103.0,145.47 C 103.41,145.7 103.73,146.03 103.97,146.44 C 104.21,146.84 104.34,147.26 104.34,147.72 L 104.34,152.28 C 104.34,152.74 104.21,153.16 103.97,153.56 C 103.73,153.97 103.41,154.3 103.0,154.53 C 102.59,154.77 102.16,154.88 101.69,154.88 C 101.21,154.88 100.75,154.77 100.34,154.53 C 99.93,154.3 99.62,153.97 99.38,153.56 C 99.14,153.16 99.03,152.74 99.03,152.28 L 99.03,147.72 C 99.03,147.26 99.14,146.84 99.38,146.44 C 99.62,146.03 99.93,145.7 100.34,145.47 C 100.75,145.23 101.21,145.13 101.69,145.13 z M 198.31,145.13 C 198.79,145.13 199.25,145.23 199.66,145.47 C 200.07,145.7 200.39,146.03 200.63,146.44 C 200.87,146.84 200.97,147.26 200.97,147.72 L 200.97,152.28 C 200.97,152.74 200.87,153.16 200.63,153.56 C 200.39,153.97 200.07,154.3 199.66,154.53 C 199.25,154.77 198.79,154.88 198.31,154.88 C 197.84,154.88 197.41,154.77 197.0,154.53 C 196.59,154.3 196.27,153.97 196.03,153.56 C 195.79,153.16 195.66,152.74 195.66,152.28 L 195.66,147.72 C 195.66,147.26 195.79,146.84 196.03,146.44 C 196.27,146.03 196.59,145.7 197.0,145.47 C 197.41,145.23 197.84,145.13 198.31,145.13 z" />

		<!-- Name One -->
		<text dy="3.2" style="stroke:none;fill:#f00;font-family:z_swan;font-size:20px;text-anchor:start;">
			<textPath id="txtStart3" startOffset="2%" xlink:href="#txtpath" class="txt" ></textPath>
		</text>

		<text dy="3.2" style="stroke:none;fill:#f00;font-family:z_swan;font-size:20px;text-anchor:middle;">
			<textPath id="txtMid3" startOffset="50%" xlink:href="#txtpath" class="txt" ></textPath>
		</text>

		<text dy="3.2" style="stroke:none;fill:#f00;font-family:z_swan;font-size:20px;text-anchor:end;">
			<textPath id="txtEnd3" startOffset="98%" xlink:href="#txtpath" class="txt" ></textPath>
		</text>

		<!-- Prism Reference -->
		<cam mingh:cam="--actions=EditSelectAll;ObjectToPath;ZoomPage;ZoomCenterPage;FileVacuum;FileSave; -g" mingh:style="source:microprism">M2</cam> 
	</g>

</svg>
