<?xml version="1.0" encoding="UTF-8" standalone="no"?>

<svg
   xmlns:xlink="http://www.w3.org/1999/xlink"
   xmlns:svg="http://www.w3.org/2000/svg"
   xmlns="http://www.w3.org/2000/svg"
   xmlns:mingh="http://www.minghworld.com"
   width="300px"
   height="300px" >
   
	<defs>
		<!-- Birth -->
		<path id="birth" style="fill:#00f;stroke:none;"
         d="M 194.78,150.0 C 194.78,152.11 193.04,153.82 190.89,153.82 C 188.74,153.82 187.0,152.11 187.0,150.0 C 187.0,147.89 188.74,146.18 190.89,146.18 C 193.04,146.18 194.78,147.89 194.78,150.0 z" />
		 
		<!-- Diamond -->
		<path id="diamond" style="fill:none;stroke:#000;stroke-width:0.25px;"
         d="M 193.72,150.0 C 193.72,148.46 192.45,147.22 190.89,147.22 C 189.33,147.22 188.06,148.46 188.06,150.0 C 188.06,151.54 189.33,152.78 190.89,152.78 C 192.45,152.78 193.72,151.54 193.72,150.0 z" />
		 
		<!-- Text Path -->
		<path id="txtpath" style="fill:none;stroke:#f0f;stroke-width:0.25px;"
		 d="M 105.11,150 194.89,150"/>
	</defs>	
	
	 <g>
		<!-- Shape -->
		<path id="shape" style="fill:none;stroke:#fb0;stroke-width:0.25px;"
			d="M 102.8,147.04 C 102.8,146.81 102.75,146.58 102.67,146.37 C 102.58,146.16 102.45,145.97 102.28,145.81 C 102.12,145.65 101.92,145.52 101.71,145.43 C 101.49,145.34 101.26,145.3 101.03,145.3 C 100.8,145.3 100.57,145.34 100.36,145.43 C 100.14,145.52 99.95,145.65 99.78,145.81 C 99.62,145.97 99.49,146.16 99.4,146.37 C 99.31,146.58 99.26,146.81 99.26,147.04 C 99.26,147.26 99.31,147.49 99.4,147.7 C 99.49,147.91 99.62,148.1 99.78,148.27 C 99.95,148.43 100.14,148.56 100.36,148.64 C 100.57,148.73 100.8,148.77 101.03,148.77 C 101.26,148.77 101.49,148.73 101.71,148.64 C 101.92,148.56 102.12,148.43 102.28,148.27 C 102.45,148.1 102.58,147.91 102.67,147.7 C 102.75,147.49 102.8,147.26 102.8,147.04 z M 197.2,147.04 C 197.2,147.26 197.25,147.49 197.33,147.7 C 197.42,147.91 197.55,148.1 197.72,148.27 C 197.88,148.43 198.08,148.56 198.29,148.64 C 198.51,148.73 198.74,148.77 198.97,148.77 C 199.2,148.77 199.43,148.73 199.64,148.64 C 199.86,148.56 200.05,148.43 200.22,148.27 C 200.38,148.1 200.51,147.91 200.6,147.7 C 200.69,147.49 200.74,147.26 200.74,147.04 C 200.74,146.81 200.69,146.58 200.6,146.37 C 200.51,146.16 200.38,145.97 200.22,145.81 C 200.05,145.65 199.86,145.52 199.64,145.43 C 199.43,145.34 199.2,145.3 198.97,145.3 C 198.74,145.3 198.51,145.34 198.29,145.43 C 198.08,145.52 197.88,145.65 197.72,145.81 C 197.55,145.97 197.42,146.16 197.33,146.37 C 197.25,146.58 197.2,146.81 197.2,147.04 z M 199.84,143.57 C 201.11,143.57 202.2,144.45 202.44,145.68 C 202.5,145.96 202.49,146.24 202.49,146.53 C 202.49,146.82 202.49,147.12 202.49,147.42 C 202.49,148.01 202.49,148.6 202.49,149.2 C 202.49,150.38 202.49,151.57 202.49,152.76 C 202.49,153.05 202.49,153.35 202.49,153.65 C 202.49,153.93 202.48,154.21 202.41,154.49 C 202.25,155.09 201.87,155.61 201.35,155.97 C 201.09,156.14 200.83,156.27 200.52,156.35 C 200.24,156.42 199.95,156.43 199.66,156.43 C 199.06,156.43 198.46,156.43 197.86,156.43 C 196.65,156.43 195.44,156.43 194.24,156.43 C 191.82,156.43 189.41,156.43 187.0,156.43 C 177.35,156.43 167.7,156.43 158.05,156.43 C 138.75,156.43 119.46,156.43 100.16,156.43 C 98.89,156.43 97.8,155.55 97.56,154.32 C 97.5,154.04 97.51,153.76 97.51,153.47 C 97.51,153.18 97.51,152.88 97.51,152.58 C 97.51,151.99 97.51,151.4 97.51,150.8 C 97.51,149.62 97.51,148.43 97.51,147.24 C 97.51,146.95 97.51,146.65 97.51,146.35 C 97.51,146.07 97.52,145.79 97.59,145.51 C 97.75,144.91 98.13,144.39 98.65,144.03 C 98.91,143.86 99.17,143.73 99.48,143.65 C 99.76,143.58 100.05,143.57 100.34,143.57 C 100.94,143.57 101.54,143.57 102.14,143.57 C 103.35,143.57 104.56,143.57 105.76,143.57 C 108.18,143.57 110.59,143.57 113.0,143.57 C 122.65,143.57 132.3,143.57 141.95,143.57 C 161.25,143.57 180.54,143.57 199.84,143.57 z" />	 
		<!-- Name One -->
		<text dy="3" style="stroke:none;fill:#f00;font-family:z_swan;font-size:21px;text-anchor:start;">
			<textPath id="txtStart2" startOffset="2%" xlink:href="#txtpath" class="txt" ></textPath>
		</text>
		
		<text dy="3" style="stroke:none;fill:#f00;font-family:z_swan;font-size:21px;text-anchor:middle;">
			<textPath id="txtMid2" startOffset="50%" xlink:href="#txtpath" class="txt" ></textPath>
		</text>
		
		<text dy="3" style="stroke:none;fill:#f00;font-family:z_swan;font-size:21px;text-anchor:end;">
			<textPath id="txtEnd2" startOffset="98%" xlink:href="#txtpath" class="txt" ></textPath>
		</text>
		
		<!-- Prism Reference -->
		<cam mingh:cam="--actions=EditSelectAll;ObjectToPath;ZoomPage;ZoomCenterPage;FileVacuum;FileSave; -g" mingh:style="source:microprism">M2</cam> 
	 </g>

</svg>
