<?xml version="1.0" encoding="UTF-8" standalone="no"?>

<svg
   xmlns:xlink="http://www.w3.org/1999/xlink"
   xmlns:svg="http://www.w3.org/2000/svg"
   xmlns="http://www.w3.org/2000/svg"
   xmlns:mingh="http://www.minghworld.com"
   width="300px"
   height="300px" >
   
	<defs>
		<path id="txtPath1" style="fill:none;stroke:#0f0;stroke-width:0.25px;"
			d="M 121.29,143.42 C 128.09,113.83 170.98,113.58 178.71,143.42" />	
			 
		<path id="txtPath2" style="fill:none;stroke:#ff0;stroke-width:0.25px;"
			d="M 121.56,157.51 C 130.92,186.47 169.65,185.5 178.44,157.51" />
			
		<path id="birth" style="fill:#00f;stroke:none;"
			d="M 153.89,179.11 C 153.91,178.05 153.45,177.01 152.67,176.3 C 151.85,175.48 150.65,175.1 149.51,175.25 C 148.2,175.39 147.05,176.29 146.47,177.45 C 145.83,178.8 146.03,180.53 147.05,181.64 C 147.73,182.44 148.74,182.97 149.8,183.0 C 150.9,183.07 152.02,182.64 152.78,181.82 C 153.5,181.12 153.91,180.12 153.89,179.11 z" />
		 
		<path id="diamond" style="fill:none;stroke:#000;stroke-width:0.25px;"
         d="M 152.82,179.11 C 152.87,180.51 151.69,181.82 150.29,181.92 C 149.31,182.03 148.3,181.59 147.72,180.79 C 146.89,179.7 147.02,177.99 148.05,177.07 C 149.07,176.03 150.92,176.03 151.94,177.07 C 152.51,177.59 152.84,178.34 152.82,179.11 z" />
	</defs>	
	 
	 <g>	
		<path id="shape" style="fill:none;stroke:#fb0;stroke-width:0.25px;"
		d="M 150.0,114.63 C 145.11,114.63 140.6,115.49 136.44,117.22 C 132.28,118.94 128.46,121.54 125.0,125.0 C 121.54,128.46 118.94,132.28 117.22,136.44 C 115.49,140.6 114.63,145.11 114.63,150.0 C 114.63,154.89 115.49,159.4 117.22,163.56 C 118.94,167.72 121.54,171.54 125.0,175.0 C 128.46,178.46 132.28,181.06 136.44,182.78 C 140.6,184.51 145.11,185.38 150.0,185.38 C 154.89,185.38 159.4,184.51 163.56,182.78 C 167.72,181.06 171.54,178.46 175.0,175.0 C 178.46,171.54 181.06,167.72 182.78,163.56 C 184.51,159.4 185.38,154.89 185.38,150.0 C 185.38,145.11 184.51,140.6 182.78,136.44 C 181.06,132.28 178.46,128.46 175.0,125.0 C 171.54,121.54 167.72,118.94 163.56,117.22 C 159.4,115.49 154.89,114.63 150.0,114.63 z M 150.0,127.13 C 153.06,127.13 155.97,127.73 158.75,128.88 C 161.54,130.03 164.01,131.68 166.16,133.84 C 168.32,135.99 169.98,138.46 171.13,141.25 C 172.28,144.03 172.88,146.94 172.88,150.0 C 172.88,153.06 172.28,155.97 171.13,158.75 C 169.98,161.54 168.32,164.03 166.16,166.19 C 164.01,168.35 161.54,169.98 158.75,171.13 C 155.97,172.28 153.06,172.88 150.0,172.88 C 146.94,172.88 144.03,172.28 141.25,171.13 C 138.46,169.98 135.97,168.32 133.81,166.16 C 131.65,164.01 130.03,161.54 128.88,158.75 C 127.73,155.97 127.13,153.06 127.13,150.0 C 127.13,146.94 127.73,144.03 128.88,141.25 C 130.03,138.46 131.65,135.99 133.81,133.84 C 135.97,131.68 138.46,130.03 141.25,128.88 C 144.03,127.73 146.94,127.13 150.0,127.13 z M 118.19,148.22 C 118.41,148.22 118.65,148.28 118.88,148.38 C 119.11,148.48 119.29,148.59 119.44,148.75 C 119.61,148.91 119.72,149.11 119.81,149.34 C 119.91,149.56 119.97,149.8 119.97,150.03 C 119.96,150.25 119.91,150.47 119.81,150.69 C 119.72,150.92 119.6,151.12 119.44,151.28 C 119.28,151.45 119.1,151.58 118.88,151.66 C 118.66,151.74 118.4,151.78 118.16,151.78 C 117.92,151.78 117.71,151.72 117.5,151.63 C 117.28,151.54 117.08,151.42 116.91,151.25 C 116.76,151.09 116.62,150.92 116.53,150.69 C 116.44,150.47 116.41,150.23 116.41,150.0 C 116.41,149.77 116.44,149.56 116.53,149.34 C 116.63,149.11 116.75,148.91 116.91,148.75 C 117.08,148.59 117.27,148.48 117.5,148.38 C 117.73,148.28 117.97,148.22 118.19,148.22 z M 181.84,148.22 C 182.05,148.22 182.27,148.28 182.5,148.38 C 182.72,148.48 182.92,148.59 183.09,148.75 C 183.25,148.91 183.38,149.11 183.47,149.34 C 183.56,149.56 183.6,149.8 183.59,150.03 C 183.59,150.25 183.53,150.47 183.44,150.69 C 183.35,150.92 183.24,151.12 183.09,151.28 C 182.92,151.45 182.72,151.58 182.5,151.66 C 182.29,151.74 182.05,151.78 181.81,151.78 C 181.57,151.78 181.34,151.72 181.13,151.63 C 180.91,151.54 180.72,151.42 180.56,151.25 C 180.4,151.09 180.28,150.92 180.19,150.69 C 180.09,150.47 180.03,150.23 180.03,150.0 C 180.02,149.77 180.09,149.56 180.19,149.34 C 180.28,149.11 180.39,148.91 180.56,148.75 C 180.72,148.59 180.91,148.48 181.13,148.38 C 181.37,148.28 181.61,148.22 181.84,148.22 z" />

		<!-- Name One -->
		<g transform="matrix(1 0 0 1 0 0)">
		
			<text dy="2.5" style="stroke:none;font-family:z_swan;font-size:20px;text-anchor:middle;" fill="#f00" >
				<textPath class="txt" startOffset="50%" xlink:href="#txtPath1"></textPath>
			</text>
			
			<text dy="2.5" style="stroke:none;font-family:z_swan;font-size:20px;text-anchor:middle;" fill="#f00">
				<textPath class="txt" startOffset="50%" xlink:href="#txtPath2"></textPath>
			</text>
		</g>
		
		<!-- Prism Reference -->
		<cam mingh:cam="--actions=EditSelectAll;ObjectToPath;ZoomPage;ZoomCenterPage;FileVacuum;FileSave; -g" mingh:style="source:microprism">M2</cam> 
	 </g>

</svg>
