<?xml version="1.0" encoding="UTF-8" standalone="no"?>

<svg
   xmlns:xlink="http://www.w3.org/1999/xlink"
   xmlns:svg="http://www.w3.org/2000/svg"
   xmlns="http://www.w3.org/2000/svg"
   xmlns:mingh="http://www.minghworld.com"
   width="300px"
   height="300px" >
   
	<defs>
		<path id="txtPath1" style="fill:none;stroke:#0f0;stroke-width:0.25px;"
			d="M 121.29,143.42 C 128.09,113.83 170.98,113.58 178.71,143.42" />	
			 
		<path id="txtPath2" style="fill:none;stroke:#ff0;stroke-width:0.25px;"
			d="M 121.56,157.51 C 130.92,186.47 169.65,185.5 178.44,157.51" />

		<path id="birth" style="fill:#00f;stroke:none;"
			d="M 153.89,179.11 C 153.91,178.05 153.45,177.01 152.67,176.3 C 151.85,175.48 150.65,175.1 149.51,175.25 C 148.2,175.39 147.05,176.29 146.47,177.45 C 145.83,178.8 146.03,180.53 147.05,181.64 C 147.73,182.44 148.74,182.97 149.8,183.0 C 150.9,183.07 152.02,182.64 152.78,181.82 C 153.5,181.12 153.91,180.12 153.89,179.11 z" />
		 
		<path id="diamond" style="fill:none;stroke:#000;stroke-width:0.25px;"
         d="M 152.82,179.11 C 152.87,180.51 151.69,181.82 150.29,181.92 C 149.31,182.03 148.3,181.59 147.72,180.79 C 146.89,179.7 147.02,177.99 148.05,177.07 C 149.07,176.03 150.92,176.03 151.94,177.07 C 152.51,177.59 152.84,178.34 152.82,179.11 z" />
	</defs>	
		 
	<g>	
		<path id="shape" style="fill:none;stroke:#fb0;stroke-width:0.25px;"
			d="M 150.0,114.63 C 145.11,114.63 140.6,115.49 136.44,117.22 C 132.28,118.94 128.46,121.54 125.0,125.0 C 121.54,128.46 118.94,132.28 117.22,136.44 C 115.49,140.6 114.63,145.11 114.63,150.0 C 114.63,154.89 115.49,159.4 117.22,163.56 C 118.94,167.72 121.54,171.54 125.0,175.0 C 128.46,178.46 132.28,181.06 136.44,182.78 C 140.6,184.51 145.11,185.38 150.0,185.38 C 154.89,185.38 159.4,184.51 163.56,182.78 C 167.72,181.06 171.54,178.46 175.0,175.0 C 178.46,171.54 181.06,167.72 182.78,163.56 C 184.51,159.4 185.38,154.89 185.38,150.0 C 185.38,145.11 184.51,140.6 182.78,136.44 C 181.06,132.28 178.46,128.46 175.0,125.0 C 171.54,121.54 167.72,118.94 163.56,117.22 C 159.4,115.49 154.89,114.63 150.0,114.63 z M 150.0,127.13 C 153.06,127.13 155.97,127.73 158.75,128.88 C 161.54,130.03 164.01,131.68 166.16,133.84 C 168.32,135.99 169.98,138.46 171.13,141.25 C 172.28,144.03 172.88,146.94 172.88,150.0 C 172.88,153.06 172.28,155.97 171.13,158.75 C 169.98,161.54 168.32,164.03 166.16,166.19 C 164.01,168.35 161.54,169.98 158.75,171.13 C 155.97,172.28 153.06,172.88 150.0,172.88 C 146.94,172.88 144.03,172.28 141.25,171.13 C 138.46,169.98 135.97,168.32 133.81,166.16 C 131.65,164.01 130.03,161.54 128.88,158.75 C 127.73,155.97 127.13,153.06 127.13,150.0 C 127.13,146.94 127.73,144.03 128.88,141.25 C 130.03,138.46 131.65,135.99 133.81,133.84 C 135.97,131.68 138.46,130.03 141.25,128.88 C 144.03,127.73 146.94,127.13 150.0,127.13 z M 119.13,145.06 C 119.61,145.06 120.06,145.18 120.47,145.41 C 120.87,145.64 121.19,145.97 121.44,146.38 C 121.67,146.79 121.78,147.24 121.78,147.72 L 121.78,152.28 C 121.78,152.76 121.67,153.22 121.44,153.63 C 121.19,154.04 120.87,154.36 120.47,154.59 C 120.06,154.82 119.61,154.94 119.13,154.94 C 118.66,154.94 118.22,154.82 117.81,154.59 C 117.4,154.36 117.07,154.04 116.84,153.63 C 116.6,153.22 116.47,152.76 116.47,152.28 L 116.47,147.72 C 116.47,147.24 116.6,146.79 116.84,146.38 C 117.07,145.97 117.4,145.64 117.81,145.41 C 118.22,145.18 118.66,145.06 119.13,145.06 z M 180.88,145.06 C 181.35,145.06 181.78,145.18 182.19,145.41 C 182.6,145.64 182.92,145.97 183.16,146.38 C 183.4,146.79 183.53,147.24 183.53,147.72 L 183.53,152.28 C 183.53,152.76 183.4,153.22 183.16,153.63 C 182.92,154.04 182.6,154.36 182.19,154.59 C 181.78,154.82 181.35,154.94 180.88,154.94 C 180.4,154.94 179.94,154.82 179.53,154.59 C 179.12,154.36 178.8,154.04 178.56,153.63 C 178.32,153.22 178.22,152.76 178.22,152.28 L 178.22,147.72 C 178.22,147.24 178.32,146.79 178.56,146.38 C 178.8,145.97 179.12,145.64 179.53,145.41 C 179.94,145.18 180.4,145.06 180.88,145.06 z" />
		<!-- Name One -->
		<text dy="2.5" style="stroke:none;fill:#f00;font-family:z_swan;font-size:20px;text-anchor:middle;">
			<textPath id="txtTop2" startOffset="50%" xlink:href="#txtPath1" class="txt" ></textPath>
		</text>
		
		<text dy="2.5" style="stroke:none;fill:#f00;font-family:z_swan;font-size:20px;text-anchor:middle;">
			<textPath id="txtBottom2" startOffset="50%" xlink:href="#txtPath2" class="txt" ></textPath>
		</text>
		
		<!-- Prism Reference -->
		<cam mingh:cam="--actions=EditSelectAll;ObjectToPath;ZoomPage;ZoomCenterPage;FileVacuum;FileSave; -g" mingh:style="source:microprism">M2</cam>  
	</g>

</svg>
