<?xml version="1.0" encoding="UTF-8" standalone="no"?>

<svg
   xmlns:xlink="http://www.w3.org/1999/xlink"
   xmlns:svg="http://www.w3.org/2000/svg"
   xmlns="http://www.w3.org/2000/svg"
   xmlns:mingh="http://www.minghworld.com"
   width="300px"
   height="300px" >
   
	<defs>
		<!-- Birth -->
		<path id="birth" style="fill:#00f;stroke:none;"
         d="M 153.88,179.22 C 153.88,181.36 152.15,183.1 150.0,183.1 C 147.85,183.1 146.12,181.36 146.12,179.22 C 146.12,177.07 147.85,175.33 150.0,175.33 C 152.15,175.33 153.88,177.07 153.88,179.22 z" />
		 
		<!-- Diamond -->
		<path id="diamond" style="fill:none;stroke:#000;stroke-width:0.25px;"
         d="M 152.82,179.22 C 152.82,177.66 151.56,176.39 150.0,176.39 C 148.44,176.39 147.18,177.66 147.18,179.22 C 147.18,180.78 148.44,182.04 150.0,182.04 C 151.56,182.04 152.82,180.78 152.82,179.22 z" />
		
		<!-- Text Path -->
		<path id="txtpathTop" style="fill:none;stroke:#f0f;stroke-width:0.25px;"
		 d="M 124.09,138.0 C 128.62,128.23 138.52,121.45 150.0,121.45 C 161.48,121.45 171.38,128.23 175.91,138.0" />
		 
		<path id="txtpathBottom" style="fill:none;stroke:#f0f;stroke-width:0.25px;"
		 d="M 120.22,146.13 C 119.99,147.56 119.88,149.03 119.88,150.52 C 119.88,166.59 133.36,179.62 150.0,179.62 C 166.64,179.62 180.12,166.59 180.12,150.52 L 180.12,150.52 C 180.12,149.03 180.01,147.56 179.78,146.13"/> 
	</defs>	

	<g>	
		<!-- Shape -->
		<path id="shape" style="fill:none;stroke:#fb0;stroke-width:0.25px;"
			d="M 179.05,141.69 C 179.05,142.67 179.84,143.46 180.82,143.46 C 181.79,143.46 182.58,142.67 182.58,141.69 C 182.58,140.72 181.79,139.93 180.82,139.93 C 179.84,139.93 179.05,140.72 179.05,141.69 z M 120.95,141.69 C 120.95,140.72 120.16,139.93 119.18,139.93 C 118.21,139.93 117.42,140.72 117.42,141.69 C 117.42,142.67 118.21,143.46 119.18,143.46 C 120.16,143.46 120.95,142.67 120.95,141.69 z M 150.0,172.95 C 153.0,172.95 156.01,172.35 158.78,171.2 C 161.56,170.05 164.1,168.35 166.23,166.23 C 168.35,164.1 170.05,161.56 171.2,158.78 C 172.35,156.01 172.95,153.0 172.95,150.0 C 172.95,147.0 172.35,143.99 171.2,141.22 C 170.05,138.44 168.35,135.9 166.23,133.77 C 164.1,131.65 161.56,129.95 158.78,128.8 C 156.01,127.65 153.0,127.05 150.0,127.05 C 147.0,127.05 143.99,127.65 141.22,128.8 C 138.44,129.95 135.9,131.65 133.77,133.77 C 131.65,135.9 129.95,138.44 128.8,141.22 C 127.65,143.99 127.05,147.0 127.05,150.0 C 127.05,153.0 127.65,156.01 128.8,158.78 C 129.95,161.56 131.65,164.1 133.77,166.23 C 135.9,168.35 138.44,170.05 141.22,171.2 C 143.99,172.35 147.0,172.95 150.0,172.95 z M 185.49,150.0 C 185.49,159.43 181.76,168.43 175.09,175.09 C 168.43,181.76 159.43,185.49 150.0,185.49 C 140.57,185.49 131.57,181.76 124.91,175.09 C 118.24,168.43 114.51,159.43 114.51,150.0 C 114.51,140.57 118.24,131.57 124.91,124.91 C 131.57,118.24 140.57,114.51 150.0,114.51 C 159.43,114.51 168.43,118.24 175.09,124.91 C 181.76,131.57 185.49,140.57 185.49,150.0 z" />
		
		<!-- Name One -->
		<text dy="2" style="stroke:none;fill:#f00;font-family:z_swan;font-size:20px;text-anchor:start;">
			<textPath id="txtStart2" startOffset="2%" xlink:href="#txtpathBottom" class="txt" ></textPath>
		</text>
		
		<text dy="2.4" style="stroke:none;fill:#f00;font-family:z_swan;font-size:20px;text-anchor:middle;">
			<textPath id="txtMid2" startOffset="50%" xlink:href="#txtpathTop" class="txt" ></textPath>
		</text>
		
		<text dy="2" style="stroke:none;fill:#f00;font-family:z_swan;font-size:20px;text-anchor:end;">
			<textPath id="txtEnd2" startOffset="98%" xlink:href="#txtpathBottom" class="txt" ></textPath>
		</text>
		
		<!-- Prism Reference -->
		<cam mingh:cam="--actions=EditSelectAll;ObjectToPath;ZoomPage;ZoomCenterPage;FileVacuum;FileSave; -g" mingh:style="source:microprism">M2</cam> 
	</g>

</svg>
