<?xml version="1.0" encoding="UTF-8" standalone="no"?>

<svg
   xmlns:xlink="http://www.w3.org/1999/xlink"
   xmlns:svg="http://www.w3.org/2000/svg"
   xmlns="http://www.w3.org/2000/svg"
   xmlns:mingh="http://www.minghworld.com"
   width="300px"
   height="300px" >
   
	<defs>	
		<!-- Text Path -->
		<path id="txtpath1" style="fill:none;stroke:#f0f;stroke-width:0.25px;"
			d="M 103.12,143.99 C 134.13,150.08 166.32,150.08 197.31,143.9" />
		<path id="txtpath2" style="fill:none;stroke:#f0f;stroke-width:0.25px;"
			d="M 103.12,156.28 C 134.13,162.37 166.32,162.37 197.31,156.19"/>
	</defs>	
	
	 <g>	
		<!-- Name One -->
		<g >
			<!-- Shape -->
			<path id="shape1" style="fill:none;stroke:#fb0;stroke-width:0.25px;"
				d="M 103.97,136.38 C 103.81,136.39 103.64,136.44 103.47,136.53 C 103.16,136.71 102.95,137.02 102.88,137.38 C 102.43,139.67 101.9,142.31 101.41,144.81 C 101.34,145.14 101.28,145.44 101.41,145.78 C 101.51,146.06 101.66,146.25 101.91,146.41 C 102.12,146.54 102.36,146.58 102.6,146.63 C 103.03,146.71 103.47,146.82 103.91,146.91 C 105.66,147.25 107.43,147.55 109.19,147.85 C 112.73,148.45 116.26,148.96 119.82,149.41 C 128.96,150.55 138.1,151.18 147.32,151.28 C 153.38,151.35 159.42,151.2 165.47,150.81 C 166.98,150.72 168.49,150.59 170.0,150.47 C 170.1,150.46 170.19,150.45 170.28,150.44 C 170.33,150.43 170.39,150.44 170.44,150.44 L 170.5,150.44 L 170.53,150.44 C 170.54,150.44 170.57,150.42 170.57,150.41 C 170.54,150.35 170.52,150.31 170.5,150.25 C 170.46,150.13 170.41,150.0 170.38,149.88 C 170.31,149.64 170.27,149.4 170.25,149.16 C 170.18,148.15 170.52,147.16 171.16,146.38 C 172.39,144.89 174.5,144.52 176.16,145.5 C 176.57,145.75 176.92,146.06 177.22,146.44 C 177.36,146.62 177.49,146.8 177.6,147.0 C 177.63,146.9 177.65,146.8 177.69,146.69 C 177.73,146.58 177.8,146.45 177.85,146.35 C 178.25,145.49 178.92,144.82 179.78,144.44 C 181.56,143.66 183.63,144.3 184.66,145.94 C 185.16,146.73 185.39,147.67 185.25,148.6 C 185.25,148.62 185.23,148.66 185.22,148.69 C 185.22,148.7 185.22,148.71 185.22,148.72 C 185.22,148.74 185.24,148.72 185.25,148.72 C 185.27,148.72 185.29,148.72 185.32,148.72 C 185.49,148.69 185.67,148.68 185.85,148.66 C 186.19,148.61 186.53,148.55 186.88,148.5 C 187.57,148.4 188.28,148.27 188.97,148.16 C 190.36,147.93 191.72,147.69 193.1,147.44 C 194.0,147.28 194.92,147.11 195.82,146.94 C 196.26,146.85 196.71,146.78 197.16,146.69 C 197.67,146.59 198.13,146.57 198.47,146.06 C 198.64,145.82 198.68,145.58 198.66,145.28 C 198.64,144.98 198.56,144.7 198.5,144.41 C 198.05,142.12 197.62,139.71 197.1,137.22 C 197.05,137.09 196.99,136.95 196.91,136.85 C 196.72,136.6 196.52,136.48 196.22,136.41 C 195.97,136.35 195.71,136.39 195.47,136.44 C 195.26,136.48 195.06,136.52 194.85,136.56 C 191.48,137.2 188.12,137.76 184.72,138.25 C 175.6,139.57 166.46,140.35 157.25,140.63 C 148.04,140.9 138.88,140.65 129.69,139.88 C 125.17,139.5 120.66,139.01 116.16,138.38 C 113.92,138.06 111.7,137.69 109.47,137.31 C 108.36,137.13 107.24,136.92 106.13,136.72 C 105.57,136.62 105.03,136.51 104.47,136.41 C 104.29,136.37 104.13,136.36 103.97,136.38 z M 105.28,139.22 C 105.81,139.2 106.36,139.52 106.53,140.16 C 106.59,140.37 106.58,140.57 106.53,140.78 C 106.37,141.64 106.22,142.48 106.03,143.41 C 105.78,144.7 103.94,144.77 103.6,143.5 C 103.54,143.28 103.55,143.09 103.6,142.88 C 103.77,142.02 103.95,141.15 104.13,140.22 C 104.25,139.58 104.75,139.24 105.28,139.22 z M 194.72,139.22 C 195.25,139.24 195.75,139.58 195.88,140.22 C 196.04,141.04 196.23,141.99 196.41,142.88 C 196.45,143.09 196.47,143.28 196.41,143.5 C 196.07,144.77 194.22,144.7 193.97,143.41 C 193.81,142.58 193.65,141.68 193.47,140.78 C 193.43,140.57 193.41,140.37 193.47,140.16 C 193.64,139.52 194.19,139.2 194.72,139.22 z" />
			
			<path id="shape2" style="fill:none;stroke:#fb0;stroke-width:0.25px;"
				d="M 103.94,148.72 C 103.78,148.74 103.6,148.78 103.44,148.88 C 103.14,149.06 102.94,149.37 102.88,149.72 C 102.44,151.94 101.94,154.48 101.47,156.91 C 101.4,157.27 101.27,157.63 101.38,158.03 C 101.53,158.59 101.94,158.83 102.47,158.94 C 102.89,159.02 103.33,159.11 103.75,159.19 C 105.45,159.52 107.14,159.83 108.84,160.13 C 112.27,160.71 115.71,161.22 119.16,161.66 C 128.08,162.79 136.98,163.45 145.97,163.59 C 154.96,163.74 163.89,163.41 172.84,162.56 C 177.27,162.15 181.69,161.6 186.09,160.94 C 188.29,160.61 190.47,160.26 192.66,159.88 C 193.75,159.68 194.82,159.46 195.91,159.25 C 196.45,159.15 197.02,159.05 197.56,158.94 C 197.89,158.87 198.15,158.76 198.38,158.5 C 198.6,158.25 198.68,157.93 198.66,157.59 C 198.64,157.39 198.6,157.2 198.56,157.0 C 198.1,154.65 197.65,152.29 197.13,149.66 C 197.1,149.56 197.04,149.46 197.0,149.38 C 196.9,149.18 196.8,149.06 196.63,148.94 C 196.26,148.69 195.9,148.67 195.5,148.75 C 194.26,148.99 193.03,149.22 191.78,149.44 C 190.53,149.66 189.28,149.86 188.03,150.06 C 187.4,150.16 186.78,150.25 186.16,150.34 C 185.84,150.39 185.53,150.45 185.22,150.5 C 185.06,150.52 184.88,150.54 184.72,150.56 C 184.64,150.57 184.58,150.58 184.5,150.59 C 184.46,150.6 184.41,150.62 184.38,150.63 C 184.34,150.63 184.31,150.59 184.28,150.63 C 182.6,152.4 180.94,154.18 179.19,156.03 C 179.07,156.16 178.93,156.28 178.81,156.41 C 178.78,156.44 178.75,156.47 178.72,156.5 C 178.71,156.51 178.72,156.55 178.69,156.53 C 178.67,156.52 178.64,156.51 178.63,156.5 C 178.55,156.45 178.48,156.39 178.41,156.34 C 176.34,154.99 174.24,153.59 171.97,152.09 C 171.94,152.08 171.91,152.06 171.88,152.06 L 171.69,152.09 C 171.57,152.1 171.47,152.11 171.34,152.13 C 171.1,152.15 170.84,152.17 170.59,152.19 C 169.62,152.27 168.63,152.33 167.66,152.41 C 163.74,152.69 159.83,152.9 155.91,153.0 C 146.91,153.22 137.99,152.93 129.03,152.16 C 124.62,151.77 120.23,151.28 115.84,150.66 C 113.66,150.35 111.46,150.0 109.28,149.63 C 108.2,149.44 107.11,149.26 106.03,149.06 C 105.49,148.96 104.95,148.85 104.41,148.75 C 104.23,148.72 104.1,148.7 103.94,148.72 z M 105.28,151.56 C 105.81,151.54 106.36,151.83 106.53,152.47 C 106.59,152.68 106.57,152.88 106.53,153.09 C 106.36,153.95 106.21,154.82 106.03,155.75 C 105.78,157.04 103.93,157.11 103.59,155.84 C 103.54,155.63 103.55,155.4 103.59,155.19 C 103.76,154.33 103.94,153.49 104.13,152.56 C 104.25,151.92 104.75,151.58 105.28,151.56 z M 194.72,151.56 C 195.25,151.58 195.75,151.92 195.88,152.56 C 196.04,153.38 196.23,154.3 196.41,155.19 C 196.45,155.4 196.46,155.63 196.41,155.84 C 196.07,157.11 194.22,157.04 193.97,155.75 C 193.81,154.93 193.64,153.99 193.47,153.09 C 193.43,152.88 193.41,152.68 193.47,152.47 C 193.64,151.83 194.19,151.54 194.72,151.56 z"/>
				
			<text dy="0" style="stroke:none;fill:#f00;font-family:z_ariola;font-size:7px;text-anchor:start;">
				<textPath id="txt1" startOffset="7%" xlink:href="#txtpath1" class="txt" ></textPath>
			</text>
			
			<text dy="0" style="stroke:none;fill:#f00;font-family:z_ariola;font-size:7px;text-anchor:start;">
				<textPath id="txt2" startOffset="7%" xlink:href="#txtpath2" class="txt" ></textPath>
			</text>
		</g>
		
		<!-- Prism Reference -->
		<cam mingh:cam="--actions=EditSelectAll;ObjectToPath;ZoomPage;ZoomCenterPage;FileVacuum;FileSave; -g" mingh:style="source:microprism">M2</cam> 
	 </g>

</svg>
