<?xml version="1.0" encoding="UTF-8" standalone="no"?>

<svg
   xmlns:xlink="http://www.w3.org/1999/xlink"
   xmlns:svg="http://www.w3.org/2000/svg"
   xmlns="http://www.w3.org/2000/svg"
   xmlns:mingh="http://www.minghworld.com"
   width="300px"
   height="300px" >
   
	<defs>
		<!-- Birth -->
		<path id="birth" style="fill:#00f;stroke:none;"
         d="M 192.82,149.49 C 192.82,151.61 191.08,153.33 188.93,153.33 C 186.78,153.33 185.04,151.61 185.04,149.49 C 185.04,147.37 186.78,145.65 188.93,145.65 C 191.08,145.65 192.82,147.37 192.82,149.49 z" />
		 
		<!-- Diamond -->
		<path id="diamond" style="fill:none;stroke:#000;stroke-width:0.25px;"
         d="M 191.76,149.49 C 191.76,147.94 190.49,146.69 188.93,146.69 C 187.37,146.69 186.1,147.94 186.1,149.49 C 186.1,151.03 187.37,152.28 188.93,152.28 C 190.49,152.28 191.76,151.03 191.76,149.49 z" />
		 
		<!-- Text Path -->
		<path id="txtpath" style="fill:none;stroke:#f0f;stroke-width:0.25px;"
		 d="M 105.19,149.48 C 134.73,154.17 168.94,153.9 194.81,149.48"/>
	</defs>	
	
	 <g>	
		<!-- Shape -->
		<path id="shape" style="fill:none;stroke:#fb0;stroke-width:0.25px;"
		d="M 104.43,145.36 C 104.43,144.4 103.64,143.62 102.66,143.62 C 101.68,143.62 100.89,144.4 100.89,145.36 C 100.89,146.33 101.68,147.11 102.66,147.11 C 103.64,147.11 104.43,146.33 104.43,145.36 z M 195.57,145.36 C 195.57,145.67 195.65,145.97 195.81,146.24 C 195.96,146.5 196.19,146.72 196.46,146.87 C 196.72,147.03 197.03,147.11 197.34,147.11 C 197.65,147.11 197.96,147.03 198.22,146.87 C 198.49,146.72 198.72,146.5 198.87,146.24 C 199.02,145.97 199.11,145.67 199.11,145.36 C 199.11,145.06 199.02,144.75 198.87,144.49 C 198.72,144.23 198.49,144.0 198.22,143.85 C 197.96,143.7 197.65,143.62 197.34,143.62 C 197.03,143.62 196.72,143.7 196.46,143.85 C 196.19,144.0 195.96,144.23 195.81,144.49 C 195.65,144.75 195.57,145.06 195.57,145.36 z M 198.45,141.5 C 199.2,141.37 199.94,141.72 200.31,142.37 C 200.5,142.7 200.53,143.06 200.6,143.41 C 200.69,143.89 200.78,144.36 200.86,144.83 C 201.04,145.78 201.22,146.72 201.4,147.67 C 201.57,148.61 201.75,149.56 201.93,150.51 C 201.97,150.74 202.01,150.98 202.06,151.21 C 202.08,151.33 202.1,151.45 202.12,151.57 C 202.16,151.75 202.2,151.93 202.2,152.12 C 202.21,152.86 201.75,153.52 201.05,153.78 C 200.96,153.81 200.88,153.83 200.79,153.85 C 200.56,153.9 200.33,153.93 200.1,153.97 C 199.76,154.03 199.43,154.09 199.09,154.15 C 197.75,154.37 196.41,154.59 195.06,154.8 C 192.37,155.22 189.68,155.6 186.98,155.95 C 177.48,157.16 167.98,157.9 158.41,158.18 C 139.29,158.73 120.16,157.42 101.3,154.25 C 100.62,154.14 99.94,154.02 99.26,153.9 C 99.11,153.87 98.95,153.85 98.8,153.8 C 98.62,153.75 98.46,153.67 98.31,153.56 C 97.99,153.33 97.79,153.07 97.67,152.71 C 97.56,152.39 97.55,152.09 97.61,151.76 C 97.63,151.64 97.66,151.52 97.68,151.4 C 97.77,150.93 97.86,150.45 97.95,149.97 C 98.13,149.02 98.31,148.06 98.48,147.1 C 98.66,146.15 98.84,145.19 99.02,144.24 C 99.07,144.0 99.11,143.76 99.15,143.52 C 99.18,143.4 99.2,143.28 99.22,143.16 C 99.25,142.99 99.28,142.81 99.34,142.64 C 99.6,141.92 100.29,141.45 101.06,141.47 C 101.14,141.48 101.23,141.49 101.31,141.5 C 101.85,141.59 102.38,141.69 102.91,141.78 C 104.01,141.96 105.11,142.14 106.2,142.32 C 108.4,142.66 110.6,142.98 112.8,143.28 C 122.3,144.54 131.79,145.32 141.36,145.61 C 160.48,146.19 179.62,144.81 198.45,141.5 z" />
		
		<!-- Name One -->
		<text dy="2" style="stroke:none;fill:#f00;font-family:z_swan;font-size:20px;text-anchor:start;">
			<textPath id="txtStart1" startOffset="2%" xlink:href="#txtpath" class="txt" ></textPath>
		</text>
		
		<text dy="2" style="stroke:none;fill:#f00;font-family:z_swan;font-size:20px;text-anchor:middle;">
			<textPath id="txtMid1" startOffset="50%" xlink:href="#txtpath" class="txt" ></textPath>
		</text>
		
		<text dy="2" style="stroke:none;fill:#f00;font-family:z_swan;font-size:20px;text-anchor:end;">
			<textPath id="txtEnd1" startOffset="98%" xlink:href="#txtpath" class="txt" ></textPath>
		</text>
		
		<!-- Prism Reference -->
		<cam mingh:cam="--actions=EditSelectAll;ObjectToPath;ZoomPage;ZoomCenterPage;FileVacuum;FileSave; -g" mingh:style="source:microprism">M2</cam> 
	 </g>

</svg>
