<?xml version="1.0" encoding="UTF-8" standalone="no"?>

<svg
   xmlns:xlink="http://www.w3.org/1999/xlink"
   xmlns:svg="http://www.w3.org/2000/svg"
   xmlns="http://www.w3.org/2000/svg"
   xmlns:mingh="http://www.minghworld.com"
   width="300px"
   height="300px" >
   
	<defs>	
		<!-- Text Path -->
		<path id="txtpath1" style="fill:none;stroke:#f0f;stroke-width:0.25px;"
			d="M 103.12,137.83 C 134.13,143.92 166.32,143.92 197.31,137.74" />
		<path id="txtpath2" style="fill:none;stroke:#f0f;stroke-width:0.25px;"
			d="M 103.12,150.12 C 134.13,156.21 166.32,156.21 197.31,150.03"/>
		<path id="txtpath3" style="fill:none;stroke:#f0f;stroke-width:0.25px;"
			d="M 102.9,162.43 C 133.91,168.52 166.1,168.52 197.1,162.34"/>
	</defs>	
	
	<g>	
		<!-- Shape -->
		<path id="shape1" style="fill:none;stroke:#fb0;stroke-width:0.25px;"
			d="M 103.97,130.22 C 103.81,130.23 103.63,130.28 103.47,130.38 C 103.16,130.55 102.94,130.86 102.88,131.22 C 102.43,133.51 101.9,136.16 101.41,138.66 C 101.34,138.99 101.28,139.28 101.41,139.63 C 101.51,139.9 101.66,140.09 101.91,140.25 C 102.12,140.38 102.36,140.42 102.59,140.47 C 103.03,140.56 103.47,140.67 103.91,140.75 C 105.66,141.09 107.43,141.39 109.19,141.69 C 112.72,142.29 116.25,142.81 119.81,143.25 C 128.96,144.39 138.1,145.02 147.31,145.13 C 153.38,145.19 159.41,145.04 165.47,144.66 C 166.98,144.56 168.49,144.44 170.0,144.31 C 170.09,144.3 170.19,144.29 170.28,144.28 C 170.33,144.28 170.39,144.29 170.44,144.28 L 170.5,144.28 L 170.53,144.28 C 170.54,144.28 170.57,144.27 170.56,144.25 C 170.54,144.19 170.52,144.15 170.5,144.09 C 170.46,143.98 170.41,143.84 170.38,143.72 C 170.31,143.48 170.27,143.25 170.25,143.0 C 170.17,141.99 170.51,141.0 171.16,140.22 C 172.38,138.73 174.5,138.36 176.16,139.34 C 176.57,139.59 176.92,139.91 177.22,140.28 C 177.36,140.46 177.48,140.64 177.59,140.84 C 177.63,140.74 177.65,140.64 177.69,140.53 C 177.73,140.42 177.79,140.29 177.84,140.19 C 178.25,139.34 178.92,138.66 179.78,138.28 C 181.55,137.5 183.62,138.15 184.66,139.78 C 185.15,140.57 185.38,141.51 185.25,142.44 C 185.25,142.47 185.22,142.5 185.22,142.53 C 185.22,142.55 185.22,142.55 185.22,142.56 C 185.21,142.59 185.24,142.56 185.25,142.56 C 185.27,142.56 185.29,142.57 185.31,142.56 C 185.49,142.54 185.67,142.53 185.84,142.5 C 186.19,142.45 186.53,142.4 186.88,142.34 C 187.57,142.24 188.28,142.11 188.97,142.0 C 190.35,141.78 191.71,141.53 193.09,141.28 C 193.99,141.12 194.91,140.95 195.81,140.78 C 196.26,140.7 196.71,140.62 197.16,140.53 C 197.66,140.43 198.13,140.42 198.47,139.91 C 198.63,139.66 198.68,139.42 198.66,139.13 C 198.64,138.82 198.56,138.54 198.5,138.25 C 198.05,135.96 197.62,133.55 197.09,131.06 C 197.05,130.93 196.99,130.79 196.91,130.69 C 196.72,130.45 196.51,130.32 196.22,130.25 C 195.97,130.19 195.71,130.23 195.47,130.28 C 195.26,130.32 195.05,130.37 194.84,130.41 C 191.47,131.04 188.11,131.6 184.72,132.09 C 175.6,133.41 166.46,134.19 157.25,134.47 C 148.04,134.74 138.87,134.49 129.69,133.72 C 125.16,133.34 120.65,132.85 116.16,132.22 C 113.92,131.9 111.7,131.53 109.47,131.16 C 108.36,130.97 107.24,130.77 106.13,130.56 C 105.57,130.46 105.02,130.36 104.47,130.25 C 104.29,130.22 104.13,130.21 103.97,130.22 z M 105.28,133.06 C 105.81,133.04 106.36,133.37 106.53,134.0 C 106.59,134.21 106.57,134.41 106.53,134.63 C 106.36,135.49 106.21,136.32 106.03,137.25 C 105.78,138.54 103.93,138.61 103.59,137.34 C 103.54,137.13 103.55,136.94 103.59,136.72 C 103.76,135.86 103.94,134.99 104.13,134.06 C 104.25,133.42 104.75,133.08 105.28,133.06 z M 194.72,133.06 C 195.25,133.08 195.75,133.42 195.88,134.06 C 196.04,134.88 196.23,135.83 196.41,136.72 C 196.45,136.94 196.46,137.13 196.41,137.34 C 196.07,138.61 194.22,138.54 193.97,137.25 C 193.81,136.43 193.64,135.52 193.47,134.63 C 193.43,134.41 193.41,134.21 193.47,134.0 C 193.64,133.37 194.19,133.04 194.72,133.06 z" />
		
		<path id="shape2" style="fill:none;stroke:#fb0;stroke-width:0.25px;"
			d="M 103.94,142.56 C 103.78,142.58 103.6,142.62 103.44,142.72 C 103.14,142.9 102.94,143.22 102.88,143.56 C 102.44,145.78 101.94,148.33 101.47,150.75 C 101.4,151.12 101.27,151.48 101.38,151.88 C 101.53,152.44 101.94,152.68 102.47,152.78 C 102.89,152.87 103.33,152.95 103.75,153.03 C 105.45,153.36 107.14,153.68 108.84,153.97 C 112.27,154.56 115.71,155.06 119.16,155.5 C 128.08,156.64 136.98,157.29 145.97,157.44 C 154.96,157.59 163.89,157.25 172.84,156.41 C 177.27,155.99 181.69,155.44 186.09,154.78 C 188.29,154.45 190.47,154.11 192.66,153.72 C 193.75,153.53 194.82,153.3 195.91,153.09 C 196.45,152.99 197.02,152.89 197.56,152.78 C 197.89,152.72 198.15,152.61 198.38,152.34 C 198.6,152.09 198.68,151.77 198.66,151.44 C 198.64,151.23 198.6,151.04 198.56,150.84 C 198.1,148.5 197.65,146.13 197.13,143.5 C 197.1,143.41 197.04,143.3 197.0,143.22 C 196.9,143.03 196.8,142.9 196.63,142.78 C 196.26,142.53 195.9,142.52 195.5,142.59 C 194.26,142.83 193.03,143.06 191.78,143.28 C 190.53,143.5 189.28,143.71 188.03,143.91 C 187.4,144.01 186.78,144.09 186.16,144.19 C 185.84,144.23 185.53,144.3 185.22,144.34 C 185.06,144.37 184.88,144.38 184.72,144.41 C 184.64,144.42 184.58,144.43 184.5,144.44 C 184.46,144.44 184.41,144.46 184.38,144.47 C 184.34,144.47 184.31,144.44 184.28,144.47 C 182.6,146.25 180.94,148.02 179.19,149.88 C 179.07,150.0 178.93,150.13 178.81,150.25 C 178.78,150.28 178.75,150.31 178.72,150.34 C 178.71,150.36 178.72,150.39 178.69,150.38 C 178.67,150.36 178.64,150.36 178.63,150.34 C 178.55,150.3 178.48,150.23 178.41,150.19 C 176.34,148.83 174.24,147.43 171.97,145.94 C 171.94,145.92 171.91,145.9 171.88,145.91 L 171.69,145.94 C 171.57,145.95 171.47,145.96 171.34,145.97 C 171.1,145.99 170.84,146.01 170.59,146.03 C 169.62,146.11 168.63,146.18 167.66,146.25 C 163.74,146.54 159.83,146.75 155.91,146.84 C 146.91,147.06 137.99,146.78 129.03,146.0 C 124.62,145.62 120.23,145.12 115.84,144.5 C 113.66,144.19 111.46,143.84 109.28,143.47 C 108.2,143.28 107.11,143.11 106.03,142.91 C 105.49,142.81 104.95,142.7 104.41,142.59 C 104.23,142.56 104.1,142.54 103.94,142.56 z M 105.28,145.41 C 105.81,145.39 106.36,145.68 106.53,146.31 C 106.59,146.53 106.57,146.72 106.53,146.94 C 106.36,147.8 106.21,148.66 106.03,149.59 C 105.78,150.88 103.93,150.96 103.59,149.69 C 103.54,149.47 103.55,149.25 103.59,149.03 C 103.76,148.17 103.94,147.33 104.13,146.41 C 104.25,145.76 104.75,145.42 105.28,145.41 z M 194.72,145.41 C 195.25,145.42 195.75,145.76 195.88,146.41 C 196.04,147.23 196.23,148.14 196.41,149.03 C 196.45,149.25 196.46,149.47 196.41,149.69 C 196.07,150.96 194.22,150.88 193.97,149.59 C 193.81,148.77 193.64,147.83 193.47,146.94 C 193.43,146.72 193.41,146.53 193.47,146.31 C 193.64,145.68 194.19,145.39 194.72,145.41 z"/>
			
		<path id="shape3" style="fill:none;stroke:#fb0;stroke-width:0.25px;"
			d="M 195.94,154.88 C 195.75,154.87 194.86,155.03 194.69,155.06 C 194.28,155.14 193.9,155.24 193.5,155.31 C 192.69,155.46 191.87,155.58 191.06,155.72 C 187.82,156.28 184.57,156.76 181.31,157.19 C 172.55,158.33 163.8,159.01 154.97,159.19 C 146.14,159.37 137.36,159.06 128.56,158.28 C 124.23,157.9 119.9,157.4 115.59,156.78 C 113.45,156.47 111.32,156.15 109.19,155.78 C 108.12,155.6 107.06,155.38 106.0,155.19 C 105.47,155.09 104.94,155.01 104.41,154.91 C 103.7,154.77 103.02,155.15 102.88,155.88 C 102.39,158.32 101.84,161.12 101.34,163.75 C 101.33,163.87 101.32,164.0 101.34,164.13 C 101.46,164.65 101.86,164.99 102.38,165.09 C 102.79,165.18 103.21,165.26 103.63,165.34 C 105.29,165.67 106.96,165.96 108.63,166.25 C 111.97,166.83 115.32,167.34 118.69,167.78 C 127.45,168.92 136.2,169.57 145.03,169.75 C 162.67,170.11 180.3,168.54 197.59,165.09 C 198.13,164.99 198.54,164.69 198.66,164.13 C 198.68,164.0 198.67,163.88 198.66,163.75 C 198.18,161.22 197.65,158.55 197.09,155.78 C 196.95,155.26 196.48,154.89 195.94,154.88 z M 105.28,157.72 C 105.81,157.7 106.36,158.02 106.53,158.66 C 106.59,158.87 106.57,159.07 106.53,159.28 C 106.36,160.14 106.21,160.98 106.03,161.91 C 105.78,163.2 103.93,163.27 103.59,162.0 C 103.54,161.78 103.55,161.59 103.59,161.38 C 103.76,160.52 103.94,159.65 104.13,158.72 C 104.25,158.07 104.75,157.74 105.28,157.72 z M 194.72,157.72 C 195.25,157.74 195.75,158.07 195.88,158.72 C 196.04,159.54 196.23,160.49 196.41,161.38 C 196.45,161.59 196.46,161.78 196.41,162.0 C 196.07,163.27 194.22,163.2 193.97,161.91 C 193.81,161.08 193.64,160.17 193.47,159.28 C 193.43,159.07 193.41,158.87 193.47,158.66 C 193.64,158.02 194.19,157.7 194.72,157.72 z"/>
			
		<text dy="0" style="stroke:none;fill:#f00;font-family:z_ariola;font-size:7px;text-anchor:start;">
			<textPath id="txt1" startOffset="7%" xlink:href="#txtpath1" class="txt" ></textPath>
		</text>
		
		<text dy="0" style="stroke:none;fill:#f00;font-family:z_ariola;font-size:7px;text-anchor:start;">
			<textPath id="txt2" startOffset="7%" xlink:href="#txtpath2" class="txt" ></textPath>
		</text>
		
		<text dy="0" style="stroke:none;fill:#f00;font-family:z_ariola;font-size:7px;text-anchor:start;">
			<textPath id="txt3" startOffset="7%" xlink:href="#txtpath3" class="txt" ></textPath>
		</text>
		
		<!-- Prism Reference -->
		<cam mingh:cam="--actions=EditSelectAll;ObjectToPath;ZoomPage;ZoomCenterPage;FileVacuum;FileSave; -g" mingh:style="source:microprism">M2</cam> 
	</g>

</svg>
