<?xml version="1.0" encoding="UTF-8" standalone="no"?>

<svg
   xmlns:xlink="http://www.w3.org/1999/xlink"
   xmlns:svg="http://www.w3.org/2000/svg"
   xmlns="http://www.w3.org/2000/svg"
   xmlns:mingh="http://www.minghworld.com"
   width="300px"
   height="300px" >

	 <g>	
	 <defs>
		<!-- Text Path -->
		<path id="txtpath1" style="fill:none;stroke:#f0f;stroke-width:0.25px;"
			d="M 104.09,148.5 C 104.86,138.63 113.16,130.81 123.22,130.81 L 123.22,130.81 C 133.79,130.81 142.38,139.43 142.38,150.0 142.38,160.57 133.79,169.16 123.22,169.16 113.14,169.16 104.84,161.36 104.09,151.47" />
		
		<path id="txtpath2" style="fill:none;stroke:#f0f;stroke-width:0.25px;"
			d="M 198.88,148.94 C 198.83,148.15 198.78,147.37 198.66,146.59 197.74,140.73 194.61,135.6 189.81,132.09 185.99,129.29 181.49,127.84 176.75,127.84 169.7,127.84 162.99,131.25 158.84,136.94 151.62,146.82 153.77,160.68 163.66,167.91 167.49,170.71 171.99,172.16 176.72,172.16 183.77,172.16 190.5,168.75 194.66,163.06 197.29,159.46 198.74,155.27 198.91,150.91" />
	 </defs>
			
		<!-- Shape -->
		<path class="shape" style="stroke:#fb0;stroke-width:0.25px;" fill="none"
			d="M 123.19,126.09 C 118.09,126.09 113.22,127.67 109.09,130.69 103.93,134.45 100.58,140 99.59,146.31 99.46,147.16 99.36,148.03 99.31,148.88 L 98.78,148.84 98.78,147.78 97.91,147.78 97.91,152.03 98.78,152.03 98.78,150.97 99.31,150.97 C 99.5,155.67 101.06,160.24 103.91,164.13 108.39,170.26 115.61,173.91 123.22,173.91 128.31,173.91 133.22,172.33 137.34,169.31 147.99,161.53 150.32,146.52 142.53,135.88 138.04,129.73 130.8,126.09 123.19,126.09 z M 123.22,132.44 C 132.91,132.44 140.75,140.31 140.75,150 140.75,159.69 132.91,167.53 123.22,167.53 113.53,167.53 105.66,159.69 105.66,150 105.66,140.31 113.53,132.44 123.22,132.44 z M 103.53,148.88 103.56,151 101.56,151.03 101.53,148.91 103.53,148.88 z" />
			
		<path class="shape" style="stroke:#fb0;stroke-width:0.25px;" fill="none"
			d="M 176.75,126.09 C 169.14,126.09 161.92,129.73 157.44,135.88 149.66,146.52 151.98,161.53 162.63,169.31 166.76,172.33 171.62,173.91 176.72,173.91 184.33,173.91 191.58,170.26 196.06,164.13 198.9,160.24 200.48,155.68 200.66,150.97 L 201.16,150.97 201.16,152.03 202.06,152.03 202.06,147.78 201.16,147.78 201.16,148.84 200.63,148.84 C 200.58,148 200.51,147.16 200.38,146.31 199.39,140 196.01,134.46 190.84,130.69 186.73,127.67 181.85,126.09 176.75,126.09 z M 176.75,132.47 C 186.44,132.47 194.28,140.31 194.28,150 194.28,159.69 186.44,167.56 176.75,167.56 167.06,167.56 159.22,159.69 159.22,150 159.22,140.31 167.06,132.47 176.75,132.47 z M 196.56,148.91 198.5,148.91 198.53,151 196.56,151.03 196.56,148.91 z M 198.51,149.93 202.09,149.93 M 196.56,149.99 194.29,149.99" />
	
		<text dy="0.2" style="stroke:none;fill:#00f;font-family:z_ariola;font-size:5.4px;text-anchor:middle;">
			<textPath startOffset="24%" xlink:href="#txtpath1" class="txt" ></textPath>
		</text>
		
		<text dy="0.2" style="stroke:none;fill:#00f;font-family:z_ariola;font-size:5.4px;text-anchor:middle;">
			<textPath startOffset="75%" xlink:href="#txtpath2" class="txt" ></textPath>
		</text>
		
		<!-- Prism Reference -->
		<cam mingh:cam="--actions=EditSelectAll;ObjectToPath;ZoomPage;ZoomCenterPage;FileVacuum;FileSave; -g" mingh:style="source:microprism">M2</cam> 
	 </g>

</svg>
