<?xml version="1.0" encoding="UTF-8" standalone="no"?>

<svg
   xmlns:xlink="http://www.w3.org/1999/xlink"
   xmlns:svg="http://www.w3.org/2000/svg"
   xmlns="http://www.w3.org/2000/svg"
   xmlns:mingh="http://www.minghworld.com"
   width="300px"
   height="300px" >

	<g>	
		<defs>
			<path id="txtpath1" style="fill:none;stroke:#f0f;stroke-width:0.25px;"
				d="M 94.84,150.91 C 95.07,157.4 97.69,163.47 102.31,168.13 107.17,173.01 113.62,175.67 120.5,175.69 126.34,175.7 131.79,173.86 136.38,170.28 142.66,165.37 146.23,158.02 146.25,150.06 146.27,143.19 143.64,136.76 138.78,131.88 133.93,127 127.47,124.32 120.59,124.31 114.76,124.3 109.3,126.14 104.72,129.72 98.7,134.42 95.18,141.37 94.88,148.94" />
				
			<path id="txtpath2" style="fill:none;stroke:#f0f;stroke-width:0.25px;"
				d="M 205.13,148.81 C 204.79,141.24 201.23,134.33 195.19,129.66 190.59,126.1 185.11,124.27 179.28,124.31 172.4,124.36 165.98,127.04 161.16,131.94 156.32,136.84 153.71,143.28 153.75,150.16 153.81,158.12 157.42,165.46 163.72,170.34 168.31,173.9 173.79,175.73 179.63,175.69 186.5,175.64 192.91,172.96 197.75,168.06 202.35,163.39 204.96,157.31 205.16,150.81" />
		</defs>
	    
		<!-- Shape -->
		<path class="shape" style="stroke:#fb0;stroke-width:0.25px;" fill="none"
			d="M 120.59,122.53 C 114.38,122.51 108.54,124.53 103.66,128.34 97.24,133.36 93.45,140.8 93.13,148.88 L 92.41,148.88 92.41,148.16 91.69,148.16 C 91.69,149.34 91.69,150.51 91.69,151.69 L 92.38,151.69 92.38,151 93.09,151 C 93.34,157.93 96.17,164.42 101.09,169.38 106.27,174.58 113.17,177.45 120.5,177.47 126.71,177.48 132.56,175.47 137.44,171.66 144.13,166.42 148.01,158.55 148.03,150.06 148.05,142.73 145.17,135.83 140,130.63 134.83,125.43 127.93,122.54 120.59,122.53 z M 121.09,128.91 C 127.16,129.07 133.12,131.87 137.16,137.03 144.33,146.21 142.74,159.45 133.56,166.63 124.39,173.8 111.11,172.14 103.94,162.97 96.77,153.79 98.39,140.55 107.56,133.38 111.58,130.24 116.37,128.78 121.09,128.91 z M 95.25,148.88 97.28,148.88 97.25,150.97 95.25,151 95.25,148.88 z" />
			
		<path class="shape" style="stroke:#fb0;stroke-width:0.25px;" fill="none"
			d="M 202.77,149.99 200.54,150.01 M 204.72,150.01 208.31,149.99 M 179.28,122.56 C 171.95,122.61 165.06,125.5 159.91,130.72 154.75,135.94 151.92,142.86 151.97,150.19 152.03,158.67 155.94,166.52 162.66,171.72 167.55,175.51 173.41,177.48 179.63,177.44 186.95,177.39 193.84,174.51 199,169.28 203.91,164.3 206.69,157.81 206.91,150.88 L 207.63,150.88 207.63,151.59 C 207.86,151.59 208.11,151.56 208.34,151.56 208.34,150.33 208.32,149.19 208.31,148.03 L 207.59,148.03 207.59,148.75 206.88,148.75 C 206.52,140.68 202.69,133.27 196.25,128.28 191.35,124.49 185.49,122.52 179.28,122.56 z M 178.81,128.91 C 183.54,128.76 188.31,130.19 192.34,133.31 201.55,140.45 203.26,153.7 196.13,162.91 188.99,172.12 175.74,173.82 166.53,166.69 157.32,159.55 155.62,146.3 162.75,137.09 166.76,131.91 172.74,129.09 178.81,128.91 z M 202.75,148.94 204.69,148.94 204.75,151.06 202.78,151.06 202.75,148.94 z" />

		<text dy="0" style="stroke:none;fill:#00f;font-family:z_ariola;font-size:5.4px;text-anchor:middle;">
			<textPath startOffset="25%" xlink:href="#txtpath1" class="txt" ></textPath>
		</text>
		
		<text dy="0" style="stroke:none;fill:#00f;font-family:z_ariola;font-size:5.4px;text-anchor:middle;">
			<textPath startOffset="75%" xlink:href="#txtpath2" class="txt" ></textPath>
		</text>
		
		<!-- Prism Reference -->
		<cam mingh:cam="--actions=EditSelectAll;ObjectToPath;ZoomPage;ZoomCenterPage;FileVacuum;FileSave; -g" mingh:style="source:microprism">M2</cam> 
	</g>

</svg>
