<?xml version="1.0" encoding="UTF-8" standalone="no"?>

<svg xmlns="http://www.w3.org/2000/svg" xmlns:mingh="http://www.minghworld.com" xmlns:svg="http://www.w3.org/2000/svg" xmlns:xlink="http://www.w3.org/1999/xlink" height="300px" width="300px">
  
  <g>
    <path style="fill:none;stroke:#fb0;stroke-width:0.25px"
		d="M 144.79,170.14 C 144.79,170.33 144.85,170.52 144.94,170.69 C 144.99,170.79 145.06,170.89 145.14,170.98 C 145.21,171.07 145.29,171.14 145.37,171.22 C 145.49,171.33 145.62,171.42 145.75,171.51 C 145.91,171.61 146.07,171.71 146.23,171.79 C 146.41,171.89 146.6,171.97 146.79,172.04 C 147.23,172.21 147.67,172.34 148.13,172.45 C 148.6,172.56 149.1,172.63 149.6,172.69 C 150.07,172.74 150.57,172.76 151.06,172.76 C 151.54,172.76 152.03,172.73 152.51,172.69 C 153.01,172.63 153.5,172.56 153.99,172.45 C 154.22,172.39 154.45,172.33 154.68,172.27 C 154.89,172.2 155.1,172.13 155.32,172.04 C 155.51,171.97 155.7,171.89 155.88,171.79 C 156.04,171.71 156.21,171.61 156.35,171.51 C 156.49,171.42 156.62,171.33 156.74,171.22 C 156.82,171.14 156.9,171.07 156.97,170.98 C 157.04,170.89 157.12,170.79 157.17,170.69 C 157.22,170.6 157.26,170.51 157.28,170.41 C 157.31,170.32 157.32,170.23 157.32,170.14 C 157.32,168.82 157.32,167.49 157.32,166.16 C 155.25,166.72 153.18,167.29 151.1,167.85 C 151.1,167.86 151.07,167.86 151.06,167.87 C 151.04,167.86 151.01,167.86 151.0,167.85 C 148.93,167.29 146.85,166.72 144.79,166.16 C 144.79,167.49 144.79,168.82 144.79,170.14 z M 142.22,169.04 C 142.7,168.88 143.0,168.38 142.91,167.88 C 142.87,167.63 142.74,167.4 142.54,167.24 C 142.49,167.2 142.44,167.17 142.39,167.14 C 142.38,167.13 142.35,167.13 142.35,167.12 C 142.34,167.12 142.35,167.09 142.35,167.08 C 142.35,167.05 142.35,167.02 142.35,166.99 C 142.35,166.88 142.35,166.76 142.35,166.65 C 142.35,166.16 142.35,165.67 142.35,165.18 C 142.35,165.06 142.35,164.94 142.35,164.81 C 142.35,164.78 142.35,164.75 142.35,164.72 C 142.35,164.72 142.35,164.7 142.35,164.7 C 142.34,164.7 142.32,164.7 142.32,164.69 C 142.31,164.69 142.29,164.69 142.28,164.68 C 142.22,164.67 142.16,164.65 142.1,164.64 C 141.98,164.61 141.85,164.58 141.75,164.55 C 141.69,164.53 141.63,164.52 141.57,164.5 C 141.54,164.5 141.51,164.49 141.48,164.48 C 141.47,164.48 141.45,164.47 141.44,164.47 C 141.43,164.47 141.43,164.47 141.43,164.48 C 141.43,164.48 141.43,164.48 141.43,164.49 C 141.43,164.5 141.43,164.5 141.43,164.51 C 141.43,165.0 141.43,165.48 141.43,165.97 C 141.43,166.21 141.43,166.46 141.43,166.7 C 141.43,166.82 141.43,166.94 141.43,167.06 C 141.43,167.08 141.43,167.09 141.43,167.11 C 141.43,167.13 141.41,167.13 141.4,167.14 C 141.37,167.15 141.35,167.17 141.32,167.18 C 141.26,167.22 141.22,167.26 141.17,167.3 C 140.78,167.67 140.74,168.27 141.07,168.69 C 141.15,168.8 141.25,168.88 141.35,168.95 C 141.41,168.98 141.47,169.01 141.53,169.03 C 141.53,169.03 141.54,169.03 141.54,169.04 C 141.54,169.04 141.57,169.03 141.56,169.04 C 141.56,169.06 141.54,169.07 141.54,169.08 C 141.53,169.11 141.51,169.13 141.51,169.16 C 141.41,169.35 141.31,169.55 141.21,169.75 C 140.78,170.63 140.35,171.5 139.91,172.38 C 139.87,172.47 139.82,172.56 139.78,172.65 C 139.76,172.66 139.78,172.66 139.79,172.66 C 139.79,172.67 139.79,172.67 139.81,172.67 C 139.82,172.68 139.82,172.69 139.84,172.7 C 139.87,172.71 139.89,172.72 139.92,172.74 C 139.97,172.77 140.01,172.79 140.07,172.82 C 140.29,172.93 140.51,173.01 140.75,173.08 C 141.26,173.22 141.76,173.27 142.29,173.22 C 142.82,173.17 143.32,173.03 143.81,172.77 C 143.85,172.74 143.92,172.71 143.97,172.68 C 143.98,172.67 143.99,172.66 144.01,172.66 C 144.01,172.65 144.0,172.63 143.99,172.62 C 143.98,172.6 143.97,172.57 143.96,172.55 C 143.91,172.45 143.85,172.35 143.81,172.25 C 143.71,172.06 143.62,171.86 143.51,171.67 C 143.09,170.79 142.65,169.91 142.22,169.04 z M 164.78,162.29 C 164.78,162.16 164.78,162.03 164.78,161.9 C 164.78,161.8 164.78,161.71 164.78,161.61 C 164.78,161.6 164.78,161.6 164.78,161.59 C 164.78,161.58 164.78,161.58 164.77,161.58 C 164.76,161.58 164.74,161.57 164.73,161.57 C 164.7,161.56 164.68,161.56 164.65,161.55 C 164.6,161.54 164.55,161.52 164.5,161.51 C 164.08,161.41 163.67,161.3 163.26,161.2 C 162.43,160.99 161.6,160.78 160.78,160.57 C 159.13,160.15 157.48,159.73 155.82,159.31 C 155.01,159.11 154.22,158.91 153.42,158.7 C 153.01,158.6 152.6,158.5 152.21,158.4 C 152.01,158.35 151.81,158.3 151.6,158.25 C 151.51,158.22 151.41,158.2 151.31,158.17 C 151.26,158.16 151.21,158.14 151.16,158.13 C 151.13,158.13 151.1,158.12 151.07,158.11 C 151.04,158.11 151.03,158.11 151.01,158.12 C 149.4,158.53 147.79,158.93 146.18,159.34 C 144.51,159.76 142.85,160.18 141.2,160.6 C 140.37,160.81 139.54,161.02 138.71,161.23 C 138.29,161.34 137.88,161.44 137.46,161.55 C 137.43,161.56 137.41,161.56 137.38,161.57 C 137.37,161.57 137.35,161.58 137.34,161.58 C 137.32,161.58 137.32,161.6 137.32,161.61 C 137.32,161.66 137.32,161.72 137.32,161.77 C 137.32,161.85 137.32,161.93 137.32,162.02 C 137.32,162.08 137.32,162.14 137.32,162.21 C 137.32,162.22 137.32,162.24 137.32,162.25 C 137.32,162.26 137.32,162.29 137.34,162.29 C 137.37,162.3 137.4,162.31 137.43,162.32 C 137.76,162.4 138.12,162.49 138.46,162.58 C 138.71,162.64 138.95,162.73 139.23,162.66 C 139.48,162.6 139.68,162.45 139.89,162.32 C 139.99,162.27 140.07,162.22 140.19,162.2 C 140.23,162.18 140.28,162.17 140.32,162.17 C 140.43,162.15 140.54,162.14 140.65,162.13 C 142.82,161.88 145.0,161.62 147.17,161.37 C 147.41,161.34 147.64,161.32 147.87,161.29 C 147.91,161.29 147.95,161.31 147.97,161.27 C 147.98,161.26 147.99,161.25 147.99,161.24 C 148.01,161.22 148.01,161.2 148.04,161.18 C 148.07,161.14 148.1,161.11 148.14,161.08 C 148.21,161.01 148.29,160.96 148.37,160.91 C 148.54,160.82 148.72,160.75 148.9,160.69 C 149.26,160.57 149.64,160.5 150.01,160.45 C 150.79,160.36 151.54,160.36 152.29,160.48 C 152.69,160.53 153.04,160.61 153.41,160.76 C 153.71,160.88 154.16,161.11 154.23,161.5 C 154.29,161.92 153.89,162.2 153.57,162.34 C 153.23,162.51 152.87,162.6 152.49,162.67 C 151.67,162.81 150.73,162.82 149.9,162.71 C 149.69,162.68 149.48,162.64 149.26,162.59 C 149.24,162.58 149.21,162.58 149.19,162.57 C 149.16,162.56 149.14,162.55 149.1,162.56 C 149.06,162.57 149.01,162.57 148.96,162.58 C 148.85,162.6 148.75,162.61 148.65,162.63 C 148.24,162.69 147.84,162.75 147.43,162.81 C 146.6,162.93 145.79,163.05 144.98,163.17 C 144.76,163.2 144.57,163.2 144.42,163.42 C 144.29,163.61 144.32,163.86 144.48,164.02 C 144.54,164.1 144.64,164.14 144.75,164.17 C 144.82,164.19 144.91,164.21 145.0,164.23 C 145.16,164.27 145.32,164.32 145.5,164.36 C 146.76,164.68 148.01,165.0 149.28,165.32 C 149.6,165.4 149.91,165.48 150.23,165.56 C 150.39,165.6 150.54,165.64 150.7,165.68 C 150.78,165.7 150.85,165.72 150.94,165.74 C 150.98,165.75 151.01,165.76 151.06,165.77 C 151.07,165.77 151.07,165.76 151.09,165.76 C 151.1,165.76 151.1,165.75 151.12,165.75 C 151.14,165.75 151.16,165.74 151.18,165.74 C 151.22,165.73 151.26,165.72 151.29,165.71 C 152.57,165.38 153.85,165.06 155.14,164.73 C 158.35,163.92 161.57,163.11 164.78,162.29 z M 178.35,150.0 C 178.35,157.53 175.37,164.72 170.05,170.04 C 164.73,175.37 157.53,178.35 150.01,178.35 C 142.48,178.35 135.29,175.37 129.96,170.04 C 124.64,164.72 121.66,157.53 121.66,150.0 C 121.66,142.47 124.64,135.28 129.96,129.96 C 135.28,124.63 142.48,121.65 150.01,121.65 C 157.53,121.65 164.72,124.63 170.05,129.96 C 175.37,135.28 178.35,142.47 178.35,150.0 z M 126.54,145.06 C 125.83,145.06 125.23,145.32 124.68,145.84 C 124.16,146.37 123.9,147.0 123.9,147.72 C 123.9,149.24 123.9,150.76 123.9,152.28 C 123.9,153.0 124.16,153.63 124.68,154.16 C 125.23,154.68 125.83,154.94 126.54,154.94 C 127.23,154.94 127.87,154.68 128.41,154.16 C 128.94,153.63 129.19,153.0 129.19,152.28 C 129.19,150.76 129.19,149.24 129.19,147.72 C 129.19,147.0 128.94,146.37 128.41,145.84 C 127.87,145.32 127.23,145.06 126.54,145.06 z M 173.47,145.06 C 172.78,145.06 172.14,145.32 171.6,145.84 C 171.07,146.37 170.82,147.0 170.82,147.72 C 170.82,149.24 170.82,150.76 170.82,152.28 C 170.82,153.0 171.07,153.63 171.6,154.16 C 172.14,154.68 172.78,154.94 173.47,154.94 C 174.18,154.94 174.78,154.68 175.33,154.16 C 175.85,153.63 176.11,153.0 176.11,152.28 C 176.11,150.76 176.11,149.24 176.11,147.72 C 176.11,147.0 175.85,146.37 175.33,145.84 C 174.78,145.32 174.18,145.06 173.47,145.06 z" />
		
		<text style="font-size:10px;font-family:z_boli;stroke:none;fill:#00f;text-anchor:middle" transform="matrix(1 0 0 1 150 150)" class="txt"></text>	
			
		<cam mingh:cam="--actions=EditSelectAll;ObjectToPath;ZoomPage;ZoomCenterPage;FileVacuum;FileSave; -g" mingh:style="source:microprism">M2</cam> 
  </g>
</svg>
