<?xml version="1.0" encoding="UTF-8" standalone="no"?>
<svg xmlns="http://www.w3.org/2000/svg" xmlns:mingh="http://www.minghworld.com" xmlns:svg="http://www.w3.org/2000/svg" xmlns:xlink="http://www.w3.org/1999/xlink" height="300px" width="300px">
  
  <g>
    <path style="fill:none;stroke:#fb0;stroke-width:0.25px"
		d="M 144.48,164.95 L 148.2,164.95 C 148.34,164.95 148.41,164.99 148.41,165.17 L 148.41,174.34 L 151.56,174.34 L 151.56,165.17 C 151.56,164.99 151.63,164.95 151.78,164.95 L 155.5,164.95 L 155.5,161.8 L 151.78,161.8 C 151.63,161.8 151.56,161.73 151.56,161.59 L 151.56,157.37 L 148.41,157.37 L 148.41,161.59 C 148.41,161.73 148.34,161.8 148.2,161.8 L 144.48,161.8 L 144.48,164.95 z M 178.35,150.0 C 178.35,157.53 175.37,164.72 170.05,170.04 C 164.73,175.37 157.53,178.35 150.01,178.35 C 142.48,178.35 135.29,175.37 129.96,170.04 C 124.64,164.72 121.66,157.53 121.66,150.0 C 121.66,142.47 124.64,135.28 129.96,129.96 C 135.28,124.63 142.48,121.65 150.01,121.65 C 157.53,121.65 164.72,124.63 170.05,129.96 C 175.37,135.28 178.35,142.47 178.35,150.0 z M 125.22,148.22 C 125.0,148.22 124.76,148.28 124.53,148.38 C 124.3,148.48 124.11,148.59 123.94,148.75 C 123.78,148.91 123.66,149.11 123.56,149.34 C 123.47,149.56 123.44,149.77 123.44,150.0 C 123.44,150.23 123.47,150.47 123.56,150.69 C 123.65,150.92 123.8,151.09 123.94,151.25 C 124.11,151.42 124.31,151.54 124.53,151.63 C 124.74,151.72 124.95,151.78 125.19,151.78 C 125.43,151.78 125.7,151.74 125.92,151.66 C 126.14,151.58 126.32,151.46 126.47,151.28 C 126.63,151.12 126.76,150.92 126.84,150.69 C 126.95,150.47 126.99,150.25 127.0,150.03 C 127.0,149.8 126.95,149.56 126.84,149.34 C 126.76,149.11 126.64,148.91 126.47,148.75 C 126.33,148.59 126.14,148.48 125.92,148.38 C 125.69,148.28 125.44,148.22 125.22,148.22 z M 174.79,148.22 C 174.57,148.22 174.32,148.28 174.09,148.38 C 173.87,148.48 173.68,148.59 173.54,148.75 C 173.37,148.91 173.25,149.11 173.17,149.34 C 173.06,149.56 173.01,149.8 173.01,150.03 C 173.02,150.25 173.06,150.47 173.17,150.69 C 173.25,150.92 173.38,151.12 173.54,151.28 C 173.69,151.46 173.87,151.58 174.09,151.66 C 174.31,151.74 174.58,151.78 174.82,151.78 C 175.06,151.78 175.27,151.72 175.48,151.63 C 175.7,151.54 175.9,151.42 176.07,151.25 C 176.21,151.09 176.36,150.92 176.45,150.69 C 176.54,150.47 176.57,150.23 176.57,150.0 C 176.57,149.77 176.54,149.56 176.45,149.34 C 176.35,149.11 176.23,148.91 176.07,148.75 C 175.9,148.59 175.71,148.48 175.48,148.38 C 175.25,148.28 175.01,148.22 174.79,148.22 z" />
	
	<text style="font-size:10px;font-family:z_boli;stroke:none;fill:#00f;text-anchor:middle" transform="matrix(1 0 0 1 150 150)" class="txt"></text>
	
	<cam mingh:cam="--actions=EditSelectAll;ObjectToPath;ZoomPage;ZoomCenterPage;FileVacuum;FileSave; -g" mingh:style="source:microprism">M2</cam> 
  </g>
</svg>
