<?xml version="1.0" encoding="UTF-8" standalone="no"?>

<svg xmlns="http://www.w3.org/2000/svg" xmlns:mingh="http://www.minghworld.com" xmlns:svg="http://www.w3.org/2000/svg" xmlns:xlink="http://www.w3.org/1999/xlink" height="300px" width="300px">
  
  <g>
    <path style="fill:none;stroke:#fb0;stroke-width:0.25px"
		d="M 150.45,161.97 C 150.46,161.97 150.47,161.97 150.48,161.97 C 150.49,161.96 150.49,161.96 150.5,161.95 C 150.51,161.95 150.51,161.94 150.51,161.93 C 150.51,161.91 150.51,161.88 150.51,161.86 C 150.53,161.82 150.53,161.78 150.53,161.74 C 150.53,161.66 150.53,161.57 150.53,161.48 C 150.53,161.38 150.53,161.28 150.51,161.18 C 150.51,161.08 150.51,160.99 150.5,160.89 C 150.5,160.79 150.49,160.68 150.48,160.58 C 150.45,160.35 150.42,160.12 150.37,159.9 C 150.32,159.68 150.26,159.47 150.18,159.26 C 150.14,159.16 150.1,159.06 150.06,158.96 C 150.01,158.89 149.99,158.81 149.95,158.74 C 149.88,158.62 149.81,158.51 149.74,158.4 C 149.67,158.3 149.59,158.2 149.51,158.11 C 149.45,158.05 149.39,157.98 149.32,157.92 C 149.28,157.87 149.22,157.82 149.16,157.77 C 149.07,157.71 149.0,157.65 148.91,157.59 C 148.85,157.56 148.81,157.54 148.76,157.51 C 148.72,157.48 148.68,157.46 148.64,157.44 C 148.6,157.42 148.56,157.4 148.51,157.39 C 148.49,157.37 148.46,157.36 148.42,157.35 C 148.39,157.34 148.35,157.34 148.32,157.33 C 148.29,157.33 148.26,157.32 148.23,157.33 C 148.16,157.33 148.1,157.34 148.04,157.37 C 148.0,157.38 147.97,157.4 147.94,157.42 C 147.91,157.44 147.89,157.46 147.85,157.48 C 147.85,157.5 147.82,157.51 147.82,157.53 C 147.81,157.54 147.79,157.55 147.79,157.57 C 147.76,157.59 147.76,157.62 147.75,157.65 C 147.74,157.67 147.73,157.69 147.72,157.71 C 147.71,157.74 147.71,157.76 147.71,157.79 C 147.7,157.82 147.7,157.84 147.7,157.87 C 147.7,157.88 147.7,157.9 147.71,157.91 C 147.71,157.94 147.72,157.97 147.73,157.99 C 147.75,158.05 147.78,158.1 147.82,158.14 C 147.85,158.18 147.91,158.22 147.97,158.25 C 148.03,158.28 148.1,158.3 148.18,158.3 C 148.21,158.3 148.24,158.3 148.26,158.29 C 148.26,158.29 148.28,158.29 148.29,158.28 C 148.29,158.28 148.31,158.28 148.32,158.27 C 148.32,158.27 148.35,158.26 148.35,158.25 C 148.37,158.25 148.38,158.24 148.39,158.23 C 148.4,158.22 148.41,158.21 148.42,158.2 C 148.51,158.11 148.57,158.09 148.7,158.16 C 148.76,158.19 148.82,158.23 148.88,158.28 C 148.97,158.34 149.04,158.41 149.13,158.49 C 149.24,158.59 149.34,158.69 149.43,158.8 C 149.5,158.88 149.56,158.96 149.62,159.05 C 149.68,159.14 149.73,159.23 149.78,159.32 C 149.82,159.42 149.88,159.52 149.93,159.62 C 149.97,159.73 150.01,159.84 150.04,159.96 C 150.09,160.08 150.12,160.2 150.15,160.33 C 150.18,160.46 150.2,160.59 150.22,160.72 C 150.24,160.84 150.26,160.96 150.28,161.08 C 150.29,161.2 150.31,161.32 150.32,161.43 C 150.35,161.59 150.38,161.75 150.4,161.91 C 150.4,161.92 150.41,161.93 150.41,161.94 C 150.41,161.94 150.42,161.95 150.42,161.96 C 150.43,161.96 150.43,161.97 150.44,161.97 C 150.44,161.97 150.45,161.97 150.45,161.97 z M 151.29,162.26 C 151.29,162.26 151.29,162.27 151.31,162.27 C 151.31,162.27 151.32,162.27 151.32,162.27 C 151.32,162.27 151.34,162.26 151.35,162.26 C 151.35,162.25 151.37,162.25 151.37,162.24 C 151.49,162.13 151.6,162.02 151.72,161.91 C 151.81,161.83 151.89,161.75 151.98,161.66 C 152.07,161.58 152.15,161.5 152.24,161.41 C 152.34,161.32 152.44,161.24 152.54,161.15 C 152.64,161.07 152.75,160.99 152.85,160.92 C 152.95,160.85 153.04,160.79 153.15,160.73 C 153.25,160.68 153.35,160.63 153.45,160.58 C 153.54,160.54 153.65,160.5 153.75,160.47 C 153.85,160.44 153.94,160.41 154.04,160.39 C 154.19,160.36 154.32,160.34 154.48,160.33 C 154.59,160.32 154.7,160.31 154.81,160.32 C 154.88,160.32 154.95,160.32 155.01,160.33 C 155.15,160.35 155.2,160.41 155.21,160.54 C 155.21,160.55 155.21,160.57 155.22,160.58 C 155.22,160.59 155.22,160.6 155.23,160.62 C 155.24,160.63 155.24,160.64 155.25,160.66 C 155.26,160.67 155.26,160.68 155.26,160.69 C 155.26,160.69 155.28,160.7 155.28,160.71 C 155.29,160.73 155.32,160.74 155.34,160.76 C 155.4,160.81 155.47,160.84 155.54,160.85 C 155.6,160.87 155.67,160.87 155.73,160.86 C 155.79,160.85 155.84,160.83 155.89,160.8 C 155.91,160.78 155.94,160.77 155.96,160.75 C 155.97,160.74 155.97,160.73 155.98,160.72 C 156.0,160.7 156.01,160.68 156.03,160.65 C 156.04,160.63 156.06,160.61 156.06,160.59 C 156.07,160.56 156.07,160.54 156.09,160.52 C 156.09,160.49 156.1,160.46 156.1,160.43 C 156.1,160.41 156.1,160.39 156.1,160.37 C 156.1,160.35 156.1,160.34 156.1,160.32 C 156.09,160.28 156.07,160.25 156.07,160.22 C 156.06,160.18 156.04,160.15 156.03,160.12 C 156.0,160.06 155.95,160.01 155.9,159.96 C 155.88,159.94 155.85,159.93 155.82,159.91 C 155.79,159.89 155.76,159.88 155.74,159.87 C 155.7,159.85 155.67,159.84 155.64,159.83 C 155.59,159.82 155.54,159.81 155.51,159.8 C 155.46,159.79 155.42,159.79 155.37,159.78 C 155.31,159.77 155.26,159.76 155.2,159.76 C 155.1,159.75 155.0,159.74 154.89,159.75 C 154.82,159.75 154.74,159.75 154.67,159.76 C 154.57,159.77 154.49,159.78 154.41,159.8 C 154.29,159.82 154.17,159.85 154.04,159.88 C 153.93,159.92 153.79,159.97 153.68,160.02 C 153.6,160.06 153.53,160.09 153.46,160.13 C 153.35,160.18 153.26,160.23 153.17,160.29 C 152.98,160.41 152.79,160.53 152.63,160.68 C 152.46,160.82 152.29,160.98 152.13,161.15 C 152.06,161.22 151.99,161.3 151.91,161.38 C 151.85,161.45 151.79,161.52 151.72,161.59 C 151.66,161.67 151.6,161.75 151.53,161.82 C 151.48,161.89 151.42,161.96 151.37,162.03 C 151.35,162.07 151.32,162.1 151.29,162.13 C 151.29,162.15 151.28,162.17 151.26,162.19 C 151.26,162.2 151.26,162.21 151.26,162.22 C 151.26,162.22 151.26,162.23 151.26,162.24 C 151.28,162.25 151.28,162.26 151.29,162.26 z M 149.73,165.44 C 149.79,165.47 149.85,165.47 149.93,165.46 C 150.03,165.45 150.12,165.41 150.2,165.36 C 150.28,165.32 150.34,165.26 150.41,165.2 C 150.46,165.15 150.51,165.09 150.56,165.03 C 150.6,164.97 150.65,164.9 150.69,164.83 C 150.76,164.71 150.82,164.57 150.89,164.43 C 150.92,164.35 150.94,164.27 150.96,164.19 C 150.98,164.11 151.0,164.04 151.01,163.97 C 151.01,163.89 151.03,163.82 151.04,163.74 C 151.04,163.67 151.04,163.59 151.04,163.52 C 151.03,163.45 151.03,163.37 151.01,163.3 C 151.0,163.24 150.98,163.17 150.95,163.11 C 150.93,163.07 150.91,163.03 150.88,162.99 C 150.85,162.96 150.84,162.93 150.81,162.9 C 150.79,162.88 150.76,162.86 150.73,162.84 C 150.7,162.82 150.67,162.8 150.64,162.79 C 150.57,162.77 150.5,162.77 150.44,162.77 C 150.34,162.79 150.25,162.82 150.17,162.87 C 150.09,162.92 150.01,162.97 149.96,163.03 C 149.91,163.09 149.85,163.14 149.81,163.2 C 149.76,163.27 149.72,163.33 149.67,163.4 C 149.6,163.53 149.53,163.66 149.48,163.8 C 149.45,163.88 149.43,163.97 149.4,164.05 C 149.38,164.12 149.37,164.19 149.35,164.27 C 149.34,164.34 149.34,164.42 149.32,164.49 C 149.32,164.57 149.32,164.64 149.32,164.72 C 149.32,164.79 149.34,164.86 149.35,164.93 C 149.37,165.0 149.39,165.06 149.42,165.13 C 149.44,165.17 149.46,165.21 149.49,165.24 C 149.51,165.28 149.53,165.3 149.56,165.33 C 149.57,165.36 149.6,165.38 149.64,165.4 C 149.66,165.42 149.7,165.43 149.73,165.44 z M 148.21,166.03 C 148.17,165.82 148.13,165.61 148.07,165.4 C 148.04,165.24 147.99,165.08 147.94,164.91 C 147.82,164.55 147.7,164.2 147.54,163.85 C 147.46,163.65 147.37,163.46 147.26,163.27 C 147.16,163.07 147.04,162.88 146.93,162.69 C 146.75,162.4 146.54,162.12 146.29,161.87 C 146.14,161.7 145.97,161.54 145.79,161.39 C 145.62,161.26 145.46,161.14 145.28,161.02 C 145.12,160.91 144.95,160.81 144.78,160.72 C 144.63,160.65 144.47,160.58 144.32,160.53 C 144.18,160.48 144.04,160.45 143.91,160.42 C 143.81,160.4 143.71,160.39 143.62,160.38 C 143.53,160.38 143.45,160.38 143.35,160.38 C 143.22,160.39 143.07,160.41 142.94,160.46 C 142.88,160.48 142.82,160.51 142.76,160.55 C 142.69,160.59 142.64,160.64 142.57,160.69 C 142.47,160.8 142.39,160.93 142.34,161.08 C 142.31,161.15 142.29,161.22 142.29,161.3 C 142.28,161.37 142.26,161.44 142.28,161.52 C 142.29,161.66 142.32,161.8 142.35,161.94 C 142.4,162.09 142.46,162.24 142.51,162.38 C 142.54,162.45 142.56,162.52 142.57,162.59 C 142.6,162.65 142.62,162.72 142.64,162.79 C 142.65,162.86 142.67,162.94 142.67,163.01 C 142.68,163.08 142.68,163.15 142.68,163.22 C 142.68,163.36 142.67,163.51 142.64,163.65 C 142.63,163.72 142.6,163.78 142.59,163.85 C 142.57,163.91 142.54,163.98 142.51,164.04 C 142.5,164.09 142.47,164.14 142.45,164.19 C 142.42,164.23 142.4,164.27 142.38,164.32 C 142.32,164.4 142.28,164.48 142.24,164.56 C 142.22,164.6 142.2,164.65 142.19,164.69 C 142.17,164.74 142.16,164.8 142.15,164.85 C 142.13,164.92 142.13,164.99 142.13,165.06 C 142.13,165.13 142.14,165.19 142.16,165.25 C 142.17,165.31 142.19,165.36 142.21,165.41 C 142.23,165.46 142.26,165.5 142.29,165.54 C 142.31,165.58 142.34,165.62 142.37,165.66 C 142.4,165.69 142.43,165.72 142.47,165.75 C 142.5,165.79 142.54,165.82 142.57,165.85 C 142.63,165.88 142.67,165.9 142.72,165.92 C 142.76,165.95 142.82,165.97 142.88,165.99 C 142.94,166.01 143.01,166.02 143.07,166.03 C 143.24,166.07 143.41,166.09 143.57,166.13 C 143.68,166.15 143.79,166.17 143.89,166.2 C 144.07,166.25 144.25,166.31 144.42,166.38 C 144.64,166.46 144.85,166.55 145.06,166.65 C 145.21,166.73 145.35,166.81 145.51,166.9 C 145.57,166.93 145.63,166.97 145.68,167.0 C 145.74,167.04 145.79,167.08 145.85,167.12 C 145.94,167.18 146.03,167.24 146.12,167.3 C 146.15,167.31 146.18,167.33 146.21,167.34 C 146.23,167.35 146.26,167.36 146.28,167.37 C 146.29,167.37 146.32,167.37 146.34,167.37 C 146.35,167.37 146.38,167.37 146.39,167.36 C 146.41,167.35 146.42,167.34 146.43,167.33 C 146.44,167.32 146.45,167.32 146.45,167.31 C 146.45,167.3 146.46,167.29 146.46,167.28 C 146.46,167.27 146.46,167.25 146.46,167.23 C 146.46,167.21 146.45,167.19 146.44,167.17 C 146.43,167.15 146.43,167.14 146.42,167.13 C 146.4,167.1 146.39,167.08 146.37,167.05 C 146.35,167.02 146.32,166.99 146.31,166.96 C 146.25,166.88 146.19,166.8 146.13,166.72 C 145.98,166.54 145.82,166.37 145.65,166.22 C 145.46,166.06 145.26,165.91 145.04,165.79 C 144.93,165.73 144.82,165.68 144.71,165.63 C 144.59,165.57 144.48,165.53 144.35,165.48 C 144.21,165.42 144.06,165.37 143.91,165.3 C 143.87,165.28 143.82,165.26 143.79,165.24 C 143.75,165.22 143.72,165.2 143.69,165.17 C 143.65,165.15 143.62,165.13 143.6,165.1 C 143.57,165.08 143.56,165.07 143.54,165.05 C 143.54,165.03 143.53,165.01 143.51,165.0 C 143.51,164.98 143.5,164.97 143.5,164.95 C 143.49,164.93 143.48,164.91 143.48,164.9 C 143.47,164.86 143.47,164.83 143.47,164.8 C 143.47,164.76 143.47,164.73 143.47,164.7 C 143.48,164.67 143.48,164.63 143.49,164.6 C 143.51,164.51 143.54,164.42 143.57,164.33 C 143.64,164.18 143.71,164.03 143.76,163.88 C 143.79,163.8 143.82,163.72 143.85,163.64 C 143.87,163.57 143.89,163.49 143.9,163.41 C 143.91,163.34 143.91,163.27 143.91,163.19 C 143.91,163.11 143.9,163.04 143.9,162.96 C 143.88,162.8 143.84,162.64 143.81,162.49 C 143.78,162.34 143.75,162.2 143.73,162.06 C 143.72,161.99 143.71,161.91 143.71,161.84 C 143.71,161.79 143.71,161.74 143.72,161.68 C 143.72,161.67 143.72,161.65 143.73,161.63 C 143.73,161.62 143.74,161.6 143.74,161.59 C 143.75,161.58 143.75,161.57 143.76,161.56 C 143.76,161.54 143.79,161.52 143.79,161.51 C 143.82,161.49 143.84,161.48 143.85,161.47 C 143.87,161.46 143.89,161.46 143.91,161.45 C 143.92,161.45 143.93,161.45 143.94,161.44 C 143.97,161.44 144.0,161.44 144.03,161.44 C 144.07,161.44 144.1,161.44 144.14,161.45 C 144.21,161.46 144.26,161.48 144.32,161.5 C 144.42,161.53 144.51,161.56 144.6,161.6 C 144.7,161.65 144.79,161.7 144.88,161.76 C 145.0,161.82 145.1,161.9 145.22,161.98 C 145.32,162.06 145.43,162.15 145.54,162.24 C 145.64,162.34 145.73,162.43 145.82,162.53 C 145.9,162.61 145.98,162.7 146.04,162.78 C 146.14,162.89 146.23,163.01 146.32,163.12 C 146.47,163.32 146.6,163.51 146.74,163.72 C 146.94,164.02 147.12,164.33 147.28,164.66 C 147.38,164.87 147.48,165.08 147.54,165.3 C 147.57,165.38 147.6,165.46 147.63,165.54 C 147.7,165.75 147.76,165.96 147.82,166.17 C 147.84,166.21 147.85,166.25 147.87,166.29 C 147.89,166.31 147.9,166.34 147.92,166.37 C 147.93,166.39 147.94,166.4 147.95,166.41 C 147.96,166.42 147.97,166.43 147.98,166.44 C 147.99,166.44 148.0,166.45 148.01,166.45 C 148.01,166.46 148.03,166.46 148.04,166.46 C 148.06,166.46 148.07,166.46 148.07,166.46 C 148.09,166.46 148.1,166.45 148.1,166.45 C 148.12,166.45 148.12,166.45 148.13,166.44 C 148.15,166.44 148.16,166.43 148.17,166.42 C 148.18,166.41 148.19,166.4 148.2,166.39 C 148.21,166.38 148.21,166.37 148.22,166.36 C 148.22,166.34 148.23,166.33 148.23,166.31 C 148.23,166.29 148.23,166.27 148.24,166.25 C 148.24,166.22 148.23,166.18 148.23,166.15 C 148.23,166.11 148.22,166.07 148.21,166.03 z M 150.57,166.83 C 150.54,166.86 150.51,166.89 150.48,166.92 C 150.45,166.94 150.43,166.97 150.41,167.0 C 150.4,167.02 150.39,167.03 150.38,167.05 C 150.37,167.06 150.37,167.08 150.35,167.09 C 150.35,167.1 150.35,167.12 150.35,167.13 C 150.35,167.14 150.35,167.16 150.35,167.17 C 150.35,167.18 150.37,167.2 150.38,167.21 C 150.38,167.22 150.38,167.23 150.39,167.23 C 150.39,167.24 150.4,167.25 150.4,167.25 C 150.41,167.26 150.42,167.27 150.43,167.28 C 150.44,167.28 150.45,167.29 150.46,167.29 C 150.47,167.3 150.48,167.3 150.49,167.3 C 150.51,167.3 150.51,167.3 150.53,167.3 C 150.54,167.3 150.57,167.29 150.59,167.29 C 150.62,167.28 150.65,167.26 150.67,167.25 C 150.71,167.23 150.74,167.2 150.78,167.18 C 150.96,167.06 151.14,166.93 151.32,166.81 C 151.39,166.76 151.46,166.71 151.53,166.67 C 151.73,166.54 151.93,166.43 152.14,166.32 C 152.47,166.16 152.79,166.03 153.15,165.91 C 153.38,165.84 153.6,165.77 153.85,165.71 C 153.99,165.67 154.13,165.63 154.26,165.6 C 154.38,165.58 154.48,165.56 154.59,165.54 C 154.73,165.52 154.87,165.5 155.0,165.49 C 155.14,165.48 155.28,165.48 155.41,165.48 C 155.54,165.48 155.68,165.49 155.82,165.51 C 155.92,165.52 156.03,165.54 156.13,165.56 C 156.23,165.58 156.32,165.61 156.41,165.64 C 156.47,165.66 156.53,165.69 156.59,165.72 C 156.62,165.74 156.66,165.76 156.69,165.78 C 156.71,165.8 156.73,165.82 156.75,165.84 C 156.76,165.85 156.76,165.86 156.76,165.87 C 156.78,165.88 156.79,165.9 156.79,165.91 C 156.81,165.93 156.82,165.95 156.82,165.98 C 156.82,166.0 156.82,166.02 156.82,166.04 C 156.82,166.05 156.82,166.07 156.82,166.08 C 156.81,166.09 156.81,166.11 156.81,166.12 C 156.79,166.14 156.79,166.15 156.78,166.17 C 156.76,166.21 156.73,166.26 156.69,166.3 C 156.64,166.36 156.59,166.41 156.53,166.46 C 156.43,166.56 156.31,166.66 156.2,166.76 C 156.07,166.86 155.95,166.97 155.84,167.08 C 155.73,167.19 155.64,167.31 155.56,167.45 C 155.51,167.53 155.48,167.61 155.45,167.7 C 155.41,167.79 155.39,167.87 155.35,167.96 C 155.34,168.05 155.32,168.13 155.29,168.22 C 155.28,168.28 155.26,168.34 155.25,168.4 C 155.23,168.45 155.21,168.5 155.19,168.55 C 155.18,168.58 155.16,168.62 155.15,168.65 C 155.12,168.71 155.07,168.77 155.03,168.81 C 155.01,168.83 154.99,168.85 154.97,168.87 C 154.95,168.88 154.94,168.89 154.92,168.89 C 154.89,168.91 154.85,168.92 154.82,168.93 C 154.79,168.94 154.75,168.94 154.71,168.94 C 154.67,168.94 154.64,168.94 154.6,168.93 C 154.49,168.92 154.39,168.9 154.29,168.87 C 154.09,168.82 153.9,168.76 153.71,168.7 C 153.46,168.64 153.21,168.59 152.96,168.57 C 152.79,168.55 152.6,168.55 152.44,168.57 C 152.32,168.57 152.19,168.59 152.07,168.61 C 151.88,168.64 151.69,168.69 151.5,168.74 C 151.43,168.76 151.37,168.78 151.31,168.81 C 151.29,168.81 151.28,168.82 151.26,168.83 C 151.25,168.83 151.24,168.84 151.23,168.84 C 151.22,168.86 151.2,168.87 151.19,168.89 C 151.18,168.89 151.18,168.91 151.18,168.92 C 151.17,168.92 151.17,168.93 151.17,168.94 C 151.17,168.95 151.17,168.97 151.17,168.99 C 151.18,169.0 151.19,169.02 151.2,169.03 C 151.21,169.05 151.23,169.06 151.25,169.07 C 151.26,169.08 151.29,169.09 151.31,169.09 C 151.34,169.1 151.37,169.11 151.4,169.11 C 151.42,169.12 151.45,169.12 151.47,169.12 C 151.53,169.13 151.57,169.13 151.64,169.14 C 151.78,169.15 151.91,169.15 152.04,169.17 C 152.19,169.18 152.32,169.2 152.45,169.22 C 152.69,169.27 152.92,169.32 153.15,169.38 C 153.35,169.44 153.54,169.5 153.73,169.57 C 153.85,169.62 153.98,169.67 154.1,169.73 C 154.24,169.79 154.37,169.87 154.51,169.94 C 154.57,169.98 154.64,170.01 154.71,170.04 C 154.76,170.07 154.82,170.09 154.89,170.11 C 154.94,170.12 154.99,170.13 155.04,170.14 C 155.1,170.15 155.17,170.15 155.24,170.15 C 155.41,170.14 155.57,170.09 155.73,170.01 C 155.78,169.98 155.82,169.94 155.87,169.9 C 155.92,169.86 155.97,169.81 156.0,169.75 C 156.04,169.69 156.07,169.63 156.1,169.56 C 156.13,169.52 156.14,169.47 156.16,169.43 C 156.18,169.34 156.2,169.25 156.21,169.16 C 156.22,169.06 156.24,168.96 156.26,168.86 C 156.28,168.73 156.32,168.6 156.38,168.48 C 156.44,168.35 156.51,168.22 156.59,168.1 C 156.63,168.04 156.68,167.98 156.72,167.93 C 156.76,167.87 156.82,167.82 156.87,167.77 C 156.98,167.67 157.1,167.59 157.22,167.51 C 157.35,167.42 157.49,167.34 157.62,167.26 C 157.74,167.18 157.85,167.09 157.96,166.98 C 158.07,166.88 158.15,166.75 158.21,166.62 C 158.24,166.54 158.26,166.47 158.28,166.39 C 158.29,166.32 158.29,166.25 158.29,166.19 C 158.29,166.15 158.29,166.11 158.29,166.07 C 158.28,166.03 158.26,166.0 158.26,165.96 C 158.26,165.92 158.25,165.89 158.23,165.86 C 158.21,165.8 158.18,165.74 158.15,165.68 C 158.1,165.62 158.06,165.56 158.01,165.51 C 157.97,165.45 157.92,165.4 157.85,165.36 C 157.79,165.3 157.73,165.25 157.66,165.2 C 157.57,165.15 157.49,165.1 157.4,165.05 C 157.26,164.98 157.14,164.93 157.01,164.88 C 156.84,164.83 156.68,164.79 156.51,164.75 C 156.32,164.72 156.13,164.7 155.93,164.68 C 155.72,164.67 155.51,164.66 155.29,164.67 C 155.04,164.67 154.81,164.7 154.57,164.74 C 154.22,164.8 153.87,164.9 153.53,165.02 C 153.1,165.18 152.71,165.37 152.32,165.58 C 151.92,165.81 151.53,166.06 151.17,166.34 C 150.96,166.49 150.76,166.66 150.57,166.83 z M 149.29,167.4 C 149.32,167.22 149.37,167.04 149.4,166.86 C 149.42,166.74 149.43,166.62 149.45,166.49 C 149.45,166.48 149.45,166.47 149.45,166.45 C 149.45,166.45 149.45,166.44 149.45,166.44 C 149.45,166.43 149.44,166.42 149.44,166.41 C 149.44,166.41 149.43,166.4 149.43,166.4 C 149.41,166.39 149.4,166.38 149.39,166.38 C 149.38,166.38 149.37,166.38 149.37,166.38 C 149.35,166.38 149.35,166.39 149.34,166.39 C 149.34,166.39 149.34,166.39 149.34,166.4 C 149.32,166.4 149.32,166.41 149.32,166.41 C 149.25,166.52 149.19,166.63 149.12,166.74 C 149.09,166.79 149.06,166.84 149.03,166.9 C 149.01,166.92 149.01,166.95 148.99,166.97 C 148.9,167.17 148.81,167.37 148.72,167.57 C 148.56,167.92 148.41,168.28 148.26,168.63 C 148.15,168.93 148.03,169.22 147.92,169.52 C 147.79,169.83 147.69,170.14 147.57,170.45 C 147.51,170.57 147.47,170.69 147.42,170.8 C 147.37,170.91 147.31,171.02 147.26,171.12 C 147.16,171.31 147.06,171.5 146.97,171.69 C 146.93,171.78 146.89,171.87 146.85,171.96 C 146.82,172.05 146.79,172.13 146.78,172.22 C 146.76,172.28 146.75,172.33 146.74,172.39 C 146.73,172.47 146.72,172.55 146.71,172.63 C 146.71,172.71 146.71,172.79 146.72,172.87 C 146.72,172.94 146.73,173.02 146.74,173.09 C 146.76,173.16 146.76,173.23 146.79,173.29 C 146.79,173.34 146.81,173.39 146.82,173.43 C 146.82,173.47 146.84,173.51 146.85,173.55 C 146.85,173.57 146.87,173.59 146.88,173.61 C 146.88,173.62 146.89,173.62 146.89,173.63 C 146.89,173.63 146.9,173.64 146.91,173.64 C 146.91,173.65 146.92,173.65 146.92,173.65 C 146.93,173.65 146.93,173.65 146.93,173.65 C 146.94,173.64 146.95,173.64 146.96,173.64 C 146.98,173.63 146.99,173.62 147.01,173.61 C 147.07,173.56 147.13,173.51 147.2,173.46 C 147.26,173.41 147.31,173.37 147.37,173.32 C 147.43,173.26 147.49,173.21 147.54,173.15 C 147.57,173.1 147.62,173.05 147.66,173.01 C 147.71,172.94 147.75,172.87 147.79,172.8 C 147.88,172.65 147.96,172.49 148.01,172.33 C 148.04,172.18 148.07,172.03 148.1,171.88 C 148.13,171.78 148.14,171.68 148.16,171.58 C 148.19,171.38 148.23,171.18 148.28,170.99 C 148.35,170.67 148.45,170.36 148.54,170.06 C 148.63,169.83 148.71,169.6 148.78,169.36 C 148.82,169.21 148.87,169.06 148.91,168.91 C 148.99,168.65 149.04,168.39 149.12,168.13 C 149.18,167.89 149.24,167.65 149.29,167.4 z M 149.54,170.62 C 149.54,170.62 149.54,170.63 149.53,170.63 C 149.51,170.64 149.51,170.64 149.51,170.65 C 149.51,170.65 149.5,170.66 149.49,170.66 C 149.49,170.67 149.48,170.68 149.48,170.69 C 149.47,170.7 149.47,170.71 149.46,170.72 C 149.45,170.73 149.45,170.75 149.44,170.76 C 149.43,170.81 149.42,170.85 149.41,170.9 C 149.4,170.97 149.39,171.04 149.39,171.11 C 149.38,171.19 149.38,171.27 149.38,171.34 C 149.37,171.48 149.37,171.61 149.38,171.75 C 149.38,171.93 149.39,172.12 149.4,172.3 C 149.41,172.4 149.42,172.5 149.43,172.61 C 149.44,172.75 149.45,172.89 149.47,173.03 C 149.48,173.16 149.5,173.29 149.51,173.43 C 149.54,173.55 149.57,173.67 149.6,173.79 C 149.66,174.02 149.74,174.24 149.84,174.45 C 149.93,174.6 150.01,174.75 150.13,174.89 C 150.21,174.98 150.29,175.07 150.37,175.15 C 150.46,175.22 150.54,175.29 150.65,175.34 C 150.7,175.37 150.75,175.4 150.79,175.42 C 150.85,175.44 150.91,175.45 150.96,175.47 C 151.01,175.48 151.07,175.49 151.13,175.49 C 151.19,175.5 151.25,175.5 151.31,175.5 C 151.37,175.5 151.43,175.49 151.49,175.48 C 151.59,175.47 151.68,175.44 151.76,175.41 C 151.88,175.37 152.0,175.32 152.1,175.25 C 152.18,175.21 152.25,175.15 152.32,175.1 C 152.45,174.99 152.56,174.86 152.65,174.72 C 152.71,174.64 152.76,174.55 152.81,174.46 C 152.88,174.33 152.93,174.2 152.97,174.07 C 153.01,173.93 153.04,173.79 153.07,173.65 C 153.09,173.59 153.1,173.52 153.1,173.45 C 153.13,173.32 153.15,173.18 153.15,173.05 C 153.16,172.96 153.16,172.88 153.16,172.79 C 153.16,172.68 153.15,172.56 153.14,172.44 C 153.12,172.31 153.1,172.19 153.07,172.06 C 153.04,171.98 153.01,171.9 152.99,171.82 C 152.94,171.67 152.87,171.53 152.79,171.38 C 152.72,171.22 152.64,171.07 152.53,170.92 C 152.48,170.84 152.42,170.76 152.35,170.69 C 152.31,170.64 152.26,170.59 152.22,170.55 C 152.19,170.51 152.15,170.48 152.12,170.45 C 152.07,170.42 152.04,170.4 152.01,170.39 C 151.99,170.38 151.96,170.37 151.93,170.37 C 151.9,170.37 151.88,170.37 151.85,170.38 C 151.84,170.39 151.82,170.4 151.81,170.42 C 151.79,170.43 151.79,170.44 151.79,170.46 C 151.78,170.47 151.78,170.49 151.78,170.5 C 151.78,170.51 151.78,170.53 151.78,170.54 C 151.78,170.56 151.78,170.57 151.79,170.59 C 151.79,170.64 151.82,170.69 151.85,170.74 C 151.88,170.81 151.93,170.88 151.97,170.95 C 152.01,171.02 152.04,171.09 152.07,171.16 C 152.13,171.25 152.18,171.34 152.22,171.44 C 152.25,171.52 152.28,171.6 152.31,171.68 C 152.32,171.77 152.35,171.85 152.37,171.94 C 152.4,172.12 152.41,172.3 152.4,172.48 C 152.4,172.67 152.37,172.85 152.32,173.03 C 152.31,173.12 152.29,173.2 152.26,173.29 C 152.24,173.36 152.21,173.44 152.17,173.51 C 152.14,173.58 152.1,173.65 152.06,173.72 C 152.03,173.75 152.01,173.78 151.99,173.81 C 151.95,173.86 151.9,173.91 151.85,173.95 C 151.81,173.99 151.76,174.03 151.71,174.06 C 151.68,174.07 151.66,174.08 151.63,174.09 C 151.6,174.1 151.57,174.11 151.54,174.12 C 151.51,174.13 151.47,174.14 151.43,174.14 C 151.38,174.15 151.32,174.15 151.28,174.14 C 151.25,174.14 151.21,174.13 151.18,174.12 C 151.16,174.12 151.13,174.11 151.1,174.1 C 151.06,174.08 151.01,174.06 150.97,174.03 C 150.85,173.98 150.76,173.9 150.68,173.82 C 150.6,173.74 150.53,173.65 150.47,173.56 C 150.4,173.45 150.34,173.35 150.29,173.23 C 150.24,173.11 150.19,172.99 150.15,172.86 C 150.1,172.69 150.06,172.51 150.01,172.34 C 149.97,172.09 149.92,171.84 149.89,171.58 C 149.85,171.43 149.84,171.27 149.82,171.12 C 149.81,171.04 149.79,170.97 149.78,170.89 C 149.76,170.86 149.76,170.82 149.74,170.78 C 149.74,170.76 149.73,170.73 149.72,170.71 C 149.71,170.7 149.7,170.68 149.69,170.67 C 149.68,170.65 149.66,170.63 149.64,170.62 C 149.63,170.62 149.62,170.61 149.6,170.61 C 149.6,170.61 149.59,170.61 149.57,170.61 C 149.57,170.61 149.56,170.62 149.54,170.62 z M 146.69,169.64 C 146.69,169.63 146.68,169.62 146.68,169.62 C 146.67,169.61 146.66,169.6 146.65,169.59 C 146.64,169.59 146.63,169.58 146.6,169.58 C 146.59,169.58 146.57,169.58 146.54,169.59 C 146.53,169.59 146.51,169.6 146.5,169.61 C 146.48,169.62 146.47,169.63 146.45,169.64 C 146.42,169.66 146.39,169.68 146.35,169.7 C 146.31,169.75 146.25,169.79 146.2,169.84 C 146.1,169.93 146.01,170.03 145.91,170.12 C 145.74,170.28 145.57,170.44 145.4,170.59 C 145.24,170.73 145.07,170.86 144.91,170.98 C 144.81,171.06 144.7,171.13 144.59,171.19 C 144.48,171.26 144.37,171.31 144.26,171.36 C 144.16,171.4 144.04,171.43 143.94,171.45 C 143.88,171.46 143.82,171.47 143.76,171.48 C 143.72,171.48 143.66,171.48 143.6,171.48 C 143.51,171.47 143.45,171.46 143.38,171.44 C 143.32,171.43 143.28,171.42 143.24,171.4 C 143.21,171.38 143.17,171.36 143.14,171.34 C 143.1,171.32 143.06,171.29 143.03,171.25 C 143.0,171.22 142.98,171.2 142.95,171.17 C 142.94,171.14 142.92,171.12 142.91,171.1 C 142.88,171.05 142.85,171.0 142.85,170.94 C 142.84,170.92 142.84,170.9 142.82,170.87 C 142.82,170.84 142.82,170.81 142.81,170.77 C 142.81,170.71 142.81,170.65 142.81,170.58 C 142.81,170.43 142.84,170.28 142.89,170.14 C 142.94,169.97 143.01,169.82 143.1,169.67 C 143.19,169.51 143.29,169.36 143.4,169.22 C 143.51,169.08 143.64,168.96 143.76,168.85 C 143.9,168.75 144.03,168.67 144.17,168.6 C 144.25,168.56 144.32,168.52 144.41,168.49 C 144.49,168.45 144.56,168.42 144.64,168.39 C 144.7,168.37 144.76,168.34 144.82,168.31 C 144.88,168.29 144.92,168.26 144.96,168.23 C 144.97,168.22 144.98,168.21 144.99,168.2 C 145.0,168.19 145.0,168.18 145.01,168.17 C 145.01,168.16 145.01,168.15 145.03,168.14 C 145.03,168.12 145.03,168.11 145.03,168.09 C 145.03,168.07 145.01,168.05 145.01,168.03 C 145.0,168.01 144.99,168.0 144.97,167.98 C 144.94,167.96 144.92,167.95 144.89,167.94 C 144.85,167.93 144.82,167.93 144.78,167.93 C 144.73,167.93 144.69,167.93 144.64,167.94 C 144.57,167.94 144.51,167.95 144.46,167.97 C 144.37,167.98 144.28,168.0 144.19,168.03 C 144.04,168.08 143.89,168.14 143.74,168.2 C 143.59,168.27 143.44,168.35 143.29,168.43 C 143.15,168.52 143.01,168.62 142.89,168.73 C 142.72,168.88 142.57,169.05 142.43,169.24 C 142.35,169.34 142.29,169.44 142.22,169.55 C 142.14,169.68 142.07,169.81 142.01,169.94 C 141.89,170.19 141.79,170.45 141.75,170.72 C 141.73,170.81 141.72,170.91 141.72,171.01 C 141.71,171.1 141.72,171.19 141.73,171.28 C 141.74,171.44 141.78,171.6 141.84,171.75 C 141.88,171.86 141.94,171.97 142.0,172.07 C 142.04,172.14 142.1,172.21 142.17,172.28 C 142.21,172.33 142.26,172.37 142.29,172.41 C 142.35,172.44 142.39,172.48 142.44,172.51 C 142.49,172.54 142.54,172.57 142.57,172.59 C 142.63,172.61 142.69,172.63 142.74,172.65 C 142.79,172.67 142.84,172.68 142.9,172.69 C 142.95,172.7 143.0,172.71 143.06,172.71 C 143.17,172.72 143.28,172.71 143.38,172.7 C 143.51,172.68 143.65,172.65 143.78,172.61 C 143.85,172.58 143.93,172.56 144.0,172.52 C 144.1,172.48 144.21,172.43 144.29,172.38 C 144.5,172.26 144.69,172.13 144.87,171.97 C 144.96,171.89 145.06,171.81 145.14,171.72 C 145.24,171.63 145.34,171.53 145.43,171.43 C 145.57,171.28 145.72,171.12 145.85,170.97 C 145.98,170.83 146.1,170.69 146.21,170.54 C 146.28,170.46 146.34,170.37 146.4,170.28 C 146.45,170.22 146.49,170.16 146.53,170.1 C 146.57,170.04 146.6,169.99 146.64,169.93 C 146.66,169.89 146.68,169.85 146.69,169.81 C 146.7,169.79 146.7,169.78 146.7,169.76 C 146.7,169.75 146.71,169.74 146.71,169.73 C 146.71,169.72 146.71,169.71 146.71,169.71 C 146.71,169.7 146.71,169.69 146.7,169.68 C 146.7,169.67 146.7,169.67 146.7,169.66 C 146.7,169.65 146.69,169.65 146.69,169.64 z M 178.35,150.0 C 178.35,157.53 175.37,164.72 170.05,170.04 C 164.73,175.37 157.53,178.35 150.01,178.35 C 142.48,178.35 135.29,175.37 129.96,170.04 C 124.64,164.72 121.66,157.53 121.66,150.0 C 121.66,142.47 124.64,135.28 129.96,129.96 C 135.28,124.63 142.48,121.65 150.01,121.65 C 157.53,121.65 164.72,124.63 170.05,129.96 C 175.37,135.28 178.35,142.47 178.35,150.0 z M 126.54,145.06 C 125.83,145.06 125.23,145.32 124.68,145.84 C 124.16,146.37 123.9,147.0 123.9,147.72 C 123.9,149.24 123.9,150.76 123.9,152.28 C 123.9,153.0 124.16,153.63 124.68,154.16 C 125.23,154.68 125.83,154.94 126.54,154.94 C 127.23,154.94 127.87,154.68 128.41,154.16 C 128.94,153.63 129.19,153.0 129.19,152.28 C 129.19,150.76 129.19,149.24 129.19,147.72 C 129.19,147.0 128.94,146.37 128.41,145.84 C 127.87,145.32 127.23,145.06 126.54,145.06 z M 173.47,145.06 C 172.78,145.06 172.14,145.32 171.6,145.84 C 171.07,146.37 170.82,147.0 170.82,147.72 C 170.82,149.24 170.82,150.76 170.82,152.28 C 170.82,153.0 171.07,153.63 171.6,154.16 C 172.14,154.68 172.78,154.94 173.47,154.94 C 174.18,154.94 174.78,154.68 175.33,154.16 C 175.85,153.63 176.11,153.0 176.11,152.28 C 176.11,150.76 176.11,149.24 176.11,147.72 C 176.11,147.0 175.85,146.37 175.33,145.84 C 174.78,145.32 174.18,145.06 173.47,145.06 z" />
		
		<text style="font-size:10px;font-family:z_boli;stroke:none;fill:#00f;text-anchor:middle" transform="matrix(1 0 0 1 150 150)" class="txt"></text>	
			
		<cam mingh:cam="--actions=EditSelectAll;ObjectToPath;ZoomPage;ZoomCenterPage;FileVacuum;FileSave; -g" mingh:style="source:microprism">M2</cam> 		
  </g>
</svg>
