<?xml version="1.0" encoding="UTF-8" standalone="no"?>

<svg
   xmlns:xlink="http://www.w3.org/1999/xlink"
   xmlns:svg="http://www.w3.org/2000/svg"
   xmlns="http://www.w3.org/2000/svg"
   xmlns:mingh="http://www.minghworld.com"
   width="300px"
   height="300px" >
	  
	<g>
		<path  style="fill:none;stroke:#fb0;stroke-width:0.25px"
			d="M 153.16,128.87 C 153.16,127.12 151.75,125.7 150.0,125.7 C 148.24,125.7 146.83,127.12 146.83,128.87 C 146.83,130.62 148.24,132.04 150.0,132.04 C 151.75,132.04 153.16,130.62 153.16,128.87 z M 178.35,151.99 C 178.35,159.52 175.37,166.71 170.04,172.04 C 164.72,177.36 157.53,180.34 150.0,180.34 C 142.47,180.34 135.28,177.36 129.96,172.04 C 124.63,166.71 121.65,159.52 121.65,151.99 C 121.65,144.46 124.63,137.27 129.96,131.95 C 135.28,126.63 142.47,123.65 150.0,123.65 C 157.53,123.65 164.72,126.63 170.04,131.95 C 175.37,137.27 178.35,144.46 178.35,151.99 z M 143.87,168.91 C 143.89,168.94 143.89,168.93 143.92,168.92 C 143.94,168.91 143.97,168.89 144.0,168.88 C 144.05,168.85 144.1,168.82 144.15,168.79 C 144.25,168.73 144.34,168.67 144.44,168.6 C 144.63,168.46 144.8,168.31 144.96,168.14 C 145.29,167.79 145.52,167.41 145.69,166.96 C 145.86,166.52 145.94,166.07 145.97,165.61 C 145.98,165.38 145.99,164.44 145.98,164.22 C 145.94,163.26 145.61,162.36 144.53,162.14 C 144.3,162.09 144.07,162.09 143.84,162.07 C 143.72,162.06 143.61,162.06 143.49,162.05 C 143.38,162.04 143.26,162.05 143.15,162.01 C 142.91,161.92 142.81,161.69 142.76,161.47 C 142.74,161.42 142.73,161.36 142.73,161.3 C 142.72,161.29 142.73,161.27 142.71,161.27 C 142.7,161.27 142.68,161.27 142.67,161.27 C 142.64,161.27 142.61,161.27 142.58,161.27 C 142.46,161.27 142.35,161.27 142.23,161.27 C 142.12,161.27 142.0,161.27 141.89,161.27 C 141.86,161.27 141.83,161.27 141.8,161.27 C 141.78,161.27 141.78,161.28 141.77,161.3 C 141.77,161.31 141.76,161.32 141.75,161.33 C 141.73,161.38 141.7,161.44 141.67,161.49 C 141.57,161.69 141.47,161.9 141.39,162.12 C 141.22,162.56 141.11,162.99 141.14,163.47 C 141.2,164.59 141.93,165.07 142.97,165.17 C 143.29,165.2 144.01,165.17 144.25,165.54 C 144.32,165.64 144.33,165.75 144.33,165.87 C 144.33,165.99 144.32,166.1 144.3,166.21 C 144.26,166.45 144.18,166.66 144.07,166.86 C 143.94,167.13 143.76,167.35 143.55,167.56 C 143.45,167.66 143.34,167.76 143.23,167.85 C 143.17,167.89 143.11,167.93 143.05,167.98 C 143.04,168.0 143.08,168.03 143.09,168.04 C 143.1,168.05 143.12,168.07 143.13,168.09 C 143.38,168.36 143.62,168.64 143.87,168.91 z M 154.21,173.94 C 154.24,173.97 154.26,173.95 154.29,173.95 C 154.33,173.94 154.36,173.94 154.4,173.93 C 154.48,173.91 154.55,173.9 154.62,173.88 C 154.77,173.84 154.91,173.79 155.05,173.73 C 155.33,173.59 155.56,173.43 155.76,173.18 C 156.16,172.7 156.27,172.07 156.28,171.48 C 156.28,170.94 156.19,170.22 156.11,169.69 C 156.02,169.09 155.91,168.49 155.85,167.89 C 155.78,167.29 155.75,166.71 155.9,166.1 C 155.94,165.95 155.98,165.81 156.04,165.67 C 156.09,165.53 156.17,165.4 156.24,165.27 C 156.38,165.0 156.47,164.72 156.52,164.42 C 156.58,164.12 156.59,163.82 156.58,163.52 C 156.56,163.21 156.51,162.93 156.34,162.66 C 155.98,162.11 155.26,162.07 154.72,162.07 C 153.52,162.07 152.32,162.07 151.11,162.07 C 150.81,162.07 150.51,162.07 150.21,162.07 C 149.88,162.07 149.63,162.12 149.43,161.77 C 149.39,161.7 149.36,161.64 149.34,161.56 C 149.32,161.53 149.31,161.49 149.3,161.46 C 149.3,161.44 149.3,161.42 149.29,161.4 C 149.29,161.39 149.29,161.38 149.28,161.37 C 149.28,161.36 149.27,161.36 149.26,161.36 C 149.11,161.36 148.96,161.36 148.81,161.36 C 148.74,161.36 148.66,161.36 148.59,161.36 C 148.55,161.36 148.51,161.36 148.47,161.36 C 148.46,161.36 148.4,161.43 148.39,161.44 C 148.29,161.55 148.2,161.67 148.12,161.79 C 147.76,162.31 147.58,162.87 147.59,163.5 C 147.59,163.79 147.63,164.11 147.78,164.38 C 147.93,164.67 148.16,164.83 148.42,165.0 C 148.55,165.08 148.68,165.14 148.58,165.31 C 148.55,165.38 148.5,165.43 148.46,165.5 C 148.42,165.56 148.38,165.63 148.34,165.7 C 148.2,165.97 148.11,166.25 148.05,166.55 C 147.91,167.15 147.87,167.74 147.88,168.35 C 147.88,168.96 147.92,169.55 147.95,170.15 C 147.97,170.45 147.98,170.75 148.0,171.05 C 148.01,171.35 148.03,171.65 148.02,171.96 C 148.01,172.26 147.96,172.55 147.85,172.84 C 147.8,172.98 147.74,173.11 147.66,173.24 C 147.65,173.25 147.65,173.26 147.64,173.27 C 147.64,173.28 147.65,173.28 147.65,173.29 C 147.66,173.31 147.67,173.32 147.68,173.34 C 147.7,173.37 147.72,173.4 147.74,173.43 C 147.78,173.5 147.82,173.56 147.86,173.62 C 147.9,173.69 147.94,173.75 147.98,173.82 C 148.0,173.85 148.02,173.88 148.04,173.91 C 148.05,173.92 148.05,173.93 148.06,173.93 C 148.06,173.94 148.06,173.94 148.06,173.95 C 148.07,173.95 148.06,173.96 148.07,173.96 C 148.09,173.96 148.11,173.95 148.13,173.95 C 148.28,173.93 148.42,173.9 148.57,173.86 C 148.87,173.78 149.13,173.66 149.38,173.47 C 150.43,172.66 150.29,171.18 150.17,170.13 C 150.1,169.53 150.0,168.94 149.93,168.34 C 149.86,167.74 149.8,167.15 149.88,166.54 C 149.93,166.19 150.01,165.88 150.19,165.57 C 150.25,165.48 150.42,165.24 150.53,165.2 C 150.58,165.18 150.7,165.18 150.75,165.18 C 150.82,165.18 150.89,165.18 150.96,165.18 C 151.5,165.18 152.05,165.18 152.6,165.18 C 152.87,165.18 153.14,165.18 153.41,165.18 C 153.55,165.18 153.69,165.18 153.82,165.18 C 153.88,165.18 154.19,165.18 154.25,165.19 C 154.43,165.22 154.45,165.35 154.38,165.5 C 154.31,165.66 154.25,165.81 154.2,165.98 C 154.1,166.31 154.04,166.64 153.99,166.98 C 153.92,167.6 153.9,168.22 153.91,168.84 C 153.92,169.46 153.97,170.08 154.01,170.69 C 154.03,171.0 154.04,171.31 154.05,171.62 C 154.06,171.89 154.09,172.28 154.03,172.55 C 154.0,172.7 153.95,172.85 153.89,172.99 C 153.85,173.06 153.82,173.13 153.78,173.19 C 153.76,173.22 153.73,173.26 153.71,173.29 C 153.71,173.3 153.75,173.35 153.76,173.36 C 153.91,173.55 154.06,173.75 154.21,173.94 z" />
			
		<text style="font-size:10px;font-family:z_boli;stroke:none;fill:#00f;text-anchor:middle" transform="matrix(1 0 0 1 150 150)" class="txt"></text>	
			
		<cam mingh:cam="--actions=EditSelectAll;ObjectToPath;ZoomPage;ZoomCenterPage;FileVacuum;FileSave; -g" mingh:style="source:microprism">M2</cam>
  </g>
</svg>
