<?xml version="1.0" encoding="UTF-8" standalone="no"?>

<svg xmlns="http://www.w3.org/2000/svg" xmlns:mingh="http://www.minghworld.com" xmlns:svg="http://www.w3.org/2000/svg" xmlns:xlink="http://www.w3.org/1999/xlink" height="300px" width="300px">
  
  <g>
    <path style="fill:none;stroke:#fb0;stroke-width:0.25px"
		d="M 150.92,175.48 C 150.94,175.5 150.97,175.52 151.0,175.54 C 151.01,175.55 151.01,175.56 151.04,175.56 C 151.04,175.56 151.04,175.56 151.04,175.57 C 151.06,175.57 151.07,175.57 151.09,175.57 C 151.12,175.58 151.15,175.58 151.19,175.58 C 151.24,175.58 151.29,175.58 151.35,175.58 C 151.43,175.58 151.51,175.58 151.57,175.58 C 151.6,175.55 151.6,175.52 151.63,175.49 C 151.64,175.46 151.65,175.43 151.66,175.4 C 151.67,175.37 151.68,175.34 151.69,175.31 C 151.73,175.18 151.76,175.04 151.79,174.91 C 151.91,174.53 152.01,174.15 152.1,173.77 C 152.21,173.37 152.29,172.97 152.41,172.58 C 152.44,172.44 152.48,172.31 152.51,172.17 C 152.54,172.07 152.59,171.96 152.62,171.86 C 152.66,171.76 152.71,171.66 152.76,171.56 C 152.81,171.5 152.85,171.44 152.91,171.39 C 152.93,171.37 152.96,171.34 152.99,171.32 C 153.04,171.29 153.09,171.26 153.14,171.23 C 153.2,171.21 153.26,171.19 153.32,171.17 C 153.44,171.13 153.56,171.1 153.68,171.07 C 153.79,171.03 153.91,170.99 154.03,170.95 C 154.12,170.92 154.21,170.88 154.29,170.84 C 154.38,170.8 154.46,170.76 154.54,170.71 C 154.64,170.66 154.74,170.6 154.84,170.53 C 156.87,169.25 158.51,168.44 160.82,167.59 C 162.35,167.02 163.31,166.76 164.99,166.43 C 165.14,166.4 165.28,166.37 165.43,166.34 C 165.54,166.31 165.66,166.28 165.78,166.26 C 165.9,166.23 166.01,166.2 166.12,166.16 C 166.18,166.15 166.23,166.13 166.28,166.11 C 166.3,166.1 166.32,166.09 166.34,166.08 C 166.35,166.07 166.36,166.06 166.36,166.05 C 166.38,166.03 166.39,166.0 166.4,165.98 C 166.41,165.95 166.42,165.91 166.43,165.88 C 166.46,165.79 166.48,165.7 166.49,165.62 C 166.5,165.52 166.51,165.43 166.52,165.33 C 166.52,165.25 166.52,165.17 166.51,165.09 C 166.51,165.05 166.5,165.02 166.5,164.98 C 166.49,164.96 166.49,164.94 166.48,164.91 C 166.47,164.9 166.46,164.89 166.45,164.87 C 166.44,164.85 166.42,164.83 166.4,164.81 C 166.38,164.79 166.37,164.78 166.35,164.78 C 166.34,164.77 166.33,164.77 166.31,164.77 C 166.29,164.76 166.26,164.76 166.24,164.76 C 166.18,164.76 166.12,164.77 166.06,164.78 C 165.97,164.79 165.89,164.81 165.8,164.83 C 165.7,164.86 165.6,164.88 165.51,164.91 C 165.43,164.93 165.35,164.95 165.28,164.97 C 165.08,165.02 164.88,165.08 164.69,165.14 C 164.2,165.29 163.72,165.44 163.24,165.59 C 162.81,165.72 162.38,165.85 161.95,165.98 C 161.64,166.07 161.32,166.15 161.01,166.23 C 160.76,166.28 160.51,166.34 160.26,166.37 C 160.0,166.41 159.75,166.44 159.49,166.46 C 159.38,166.47 159.26,166.48 159.15,166.5 C 159.07,166.5 158.99,166.51 158.92,166.52 C 158.87,166.53 158.82,166.54 158.76,166.56 C 158.73,166.57 158.69,166.58 158.65,166.59 C 158.62,166.61 158.57,166.62 158.54,166.64 C 158.51,166.66 158.49,166.67 158.46,166.69 C 158.41,166.72 158.35,166.76 158.31,166.79 C 158.29,166.81 158.26,166.82 158.26,166.83 C 158.25,166.84 158.24,166.86 158.23,166.87 C 158.21,166.88 158.2,166.9 158.19,166.91 C 158.18,166.93 158.17,166.94 158.17,166.95 C 158.16,166.98 158.15,167.01 158.15,167.04 C 158.14,167.09 158.13,167.14 158.12,167.19 C 158.1,167.23 158.1,167.27 158.09,167.31 C 158.07,167.35 158.04,167.39 158.03,167.43 C 158.0,167.47 157.97,167.5 157.94,167.53 C 157.88,167.58 157.82,167.63 157.76,167.67 C 157.65,167.74 157.51,167.8 157.4,167.87 C 157.19,167.97 156.98,168.08 156.76,168.18 C 156.54,168.29 156.31,168.4 156.07,168.51 C 155.97,168.56 155.85,168.6 155.75,168.65 C 155.65,168.7 155.54,168.74 155.44,168.79 C 155.41,168.8 155.38,168.81 155.35,168.82 C 155.32,168.82 155.32,168.83 155.29,168.83 C 155.29,168.83 155.28,168.83 155.26,168.83 C 155.25,168.83 155.24,168.83 155.23,168.83 C 155.22,168.83 155.2,168.83 155.18,168.82 C 155.15,168.81 155.1,168.78 155.07,168.75 C 155.06,168.73 155.04,168.69 155.04,168.66 C 155.03,168.64 155.03,168.62 155.03,168.6 C 155.03,168.58 155.03,168.57 155.04,168.56 C 155.04,168.54 155.04,168.52 155.04,168.51 C 155.04,168.5 155.06,168.49 155.06,168.48 C 155.07,168.45 155.1,168.41 155.13,168.38 C 155.19,168.29 155.26,168.21 155.32,168.12 C 155.57,167.83 155.79,167.52 155.97,167.18 C 156.15,166.86 156.29,166.51 156.41,166.16 C 156.46,165.97 156.51,165.77 156.54,165.58 C 156.57,165.5 156.59,165.41 156.6,165.33 C 156.6,165.26 156.62,165.2 156.62,165.14 C 156.64,164.97 156.65,164.8 156.66,164.63 C 156.66,164.43 156.67,164.24 156.67,164.04 C 156.67,163.84 156.66,163.65 156.66,163.45 C 156.65,163.28 156.64,163.11 156.62,162.94 C 156.62,162.88 156.6,162.81 156.6,162.75 C 156.59,162.69 156.57,162.63 156.57,162.57 C 156.54,162.45 156.51,162.33 156.48,162.21 C 156.42,161.99 156.35,161.77 156.26,161.56 C 156.17,161.36 156.07,161.16 155.95,160.97 C 155.79,160.71 155.51,160.24 155.35,159.94 C 155.28,159.8 155.2,159.65 155.12,159.51 C 155.06,159.41 155.0,159.31 154.94,159.22 C 154.88,159.14 154.82,159.07 154.76,159.0 C 154.69,158.92 154.62,158.84 154.54,158.77 C 154.41,158.64 154.26,158.52 154.1,158.42 C 153.95,158.33 153.79,158.26 153.62,158.21 C 153.46,158.16 153.29,158.13 153.12,158.13 C 152.95,158.13 152.78,158.15 152.6,158.19 C 152.51,158.22 152.41,158.25 152.32,158.29 C 152.22,158.33 152.13,158.38 152.03,158.43 C 151.91,158.51 151.79,158.59 151.67,158.68 C 151.5,158.8 151.32,158.93 151.17,159.05 C 151.06,159.14 150.95,159.23 150.84,159.31 C 150.76,159.38 150.68,159.45 150.6,159.52 C 150.57,159.53 150.56,159.55 150.54,159.57 C 150.63,159.59 150.72,159.63 150.79,159.67 C 150.93,159.74 151.06,159.83 151.18,159.92 C 151.29,160.01 151.42,160.12 151.51,160.23 C 151.6,160.34 151.7,160.46 151.76,160.59 C 151.87,160.79 151.94,161.02 151.96,161.25 C 151.98,161.36 151.99,161.48 151.98,161.59 C 151.98,161.7 151.96,161.81 151.93,161.91 C 151.92,161.96 151.9,162.01 151.88,162.05 C 151.85,162.11 151.82,162.17 151.79,162.23 C 151.73,162.37 151.65,162.52 151.57,162.66 C 151.44,162.91 151.31,163.17 151.19,163.44 C 151.09,163.66 151.0,163.89 150.93,164.12 C 150.85,164.34 150.79,164.57 150.76,164.8 C 150.75,164.86 150.74,164.92 150.73,164.98 C 150.73,165.0 150.72,165.02 150.72,165.04 C 150.71,165.17 150.7,165.29 150.7,165.42 C 150.69,165.59 150.68,165.76 150.68,165.93 C 150.67,166.32 150.67,166.7 150.68,167.08 C 150.68,167.25 150.68,167.42 150.69,167.59 C 150.7,167.71 150.7,167.82 150.72,167.94 C 150.73,168.07 150.74,168.2 150.75,168.33 C 150.76,168.38 150.76,168.43 150.76,168.49 C 150.76,168.51 150.76,168.54 150.76,168.57 C 150.76,168.59 150.75,168.61 150.75,168.63 C 150.74,168.67 150.72,168.72 150.68,168.75 C 150.67,168.77 150.64,168.79 150.62,168.8 C 150.6,168.81 150.57,168.82 150.56,168.83 C 150.54,168.83 150.51,168.84 150.49,168.84 C 150.47,168.84 150.44,168.84 150.42,168.84 C 150.4,168.84 150.39,168.84 150.37,168.84 C 150.31,168.84 150.25,168.82 150.19,168.81 C 150.04,168.78 149.88,168.75 149.73,168.72 C 149.57,168.69 149.43,168.66 149.26,168.62 C 148.9,168.54 148.51,168.45 148.14,168.37 C 148.03,168.34 147.91,168.31 147.79,168.29 C 147.73,168.27 147.66,168.25 147.59,168.23 C 147.53,168.22 147.48,168.2 147.42,168.18 C 147.39,168.17 147.35,168.16 147.32,168.14 C 147.29,168.13 147.28,168.12 147.26,168.1 C 147.24,168.08 147.22,168.06 147.21,168.03 C 147.19,168.01 147.18,167.98 147.17,167.95 C 147.17,167.93 147.16,167.91 147.16,167.89 C 147.17,167.88 147.17,167.87 147.17,167.86 C 147.17,167.84 147.17,167.83 147.18,167.81 C 147.18,167.79 147.19,167.77 147.2,167.75 C 147.22,167.69 147.24,167.63 147.26,167.58 C 147.34,167.42 147.41,167.26 147.49,167.1 C 147.68,166.72 147.85,166.32 148.0,165.91 C 148.13,165.52 148.25,165.11 148.32,164.7 C 148.41,164.29 148.46,163.87 148.48,163.45 C 148.49,163.33 148.49,163.2 148.5,163.08 C 148.5,163.02 148.5,162.96 148.5,162.9 C 148.5,162.7 148.5,162.51 148.48,162.32 C 148.47,162.19 148.46,162.06 148.42,161.93 C 148.41,161.88 148.4,161.83 148.38,161.78 C 148.35,161.72 148.32,161.67 148.29,161.61 C 148.26,161.54 148.22,161.47 148.18,161.41 C 148.13,161.34 148.07,161.27 148.01,161.2 C 147.91,161.07 147.78,160.94 147.64,160.83 C 147.5,160.71 147.35,160.61 147.2,160.53 C 147.15,160.5 147.1,160.47 147.04,160.44 C 147.01,160.42 147.0,160.4 146.97,160.38 C 146.95,160.37 146.94,160.36 146.92,160.34 C 146.91,160.33 146.9,160.32 146.89,160.31 C 146.89,160.31 146.88,160.3 146.87,160.29 C 146.85,160.28 146.85,160.26 146.85,160.24 C 146.84,160.23 146.82,160.21 146.82,160.19 C 146.82,160.17 146.82,160.16 146.82,160.14 C 146.82,160.13 146.82,160.11 146.84,160.09 C 146.84,160.07 146.85,160.05 146.85,160.04 C 146.87,160.01 146.88,159.99 146.89,159.97 C 146.92,159.94 146.94,159.9 146.97,159.86 C 147.0,159.83 147.03,159.8 147.04,159.77 C 147.1,159.7 147.18,159.64 147.24,159.58 C 147.39,159.44 147.56,159.33 147.74,159.25 C 147.92,159.16 148.12,159.1 148.32,159.07 C 148.37,159.06 148.41,159.05 148.46,159.04 C 148.44,159.03 148.42,159.01 148.4,158.99 C 148.32,158.93 148.23,158.87 148.15,158.81 C 148.04,158.74 147.94,158.66 147.85,158.56 C 147.75,158.46 147.66,158.35 147.57,158.23 C 147.51,158.14 147.44,158.05 147.35,157.97 C 147.29,157.89 147.22,157.82 147.14,157.76 C 147.07,157.7 146.99,157.65 146.91,157.6 C 146.82,157.56 146.75,157.52 146.66,157.49 C 146.56,157.45 146.47,157.43 146.37,157.41 C 146.25,157.38 146.14,157.37 146.03,157.36 C 145.9,157.35 145.78,157.34 145.65,157.34 C 145.54,157.34 145.45,157.34 145.35,157.35 C 145.26,157.35 145.18,157.36 145.09,157.38 C 145.01,157.4 144.95,157.42 144.88,157.45 C 144.81,157.48 144.74,157.51 144.68,157.55 C 144.6,157.6 144.53,157.65 144.46,157.7 C 144.38,157.77 144.29,157.84 144.21,157.92 C 144.1,158.02 144.01,158.12 143.92,158.23 C 143.82,158.35 143.74,158.47 143.67,158.6 C 143.57,158.76 143.49,158.92 143.41,159.08 C 143.32,159.24 143.24,159.41 143.14,159.57 C 143.04,159.7 142.96,159.82 142.85,159.94 C 142.69,160.12 142.54,160.3 142.4,160.49 C 142.29,160.64 142.18,160.81 142.07,160.98 C 142.0,161.12 141.92,161.27 141.87,161.42 C 141.85,161.48 141.82,161.55 141.81,161.61 C 141.79,161.67 141.79,161.72 141.78,161.78 C 141.76,161.85 141.76,161.92 141.75,161.98 C 141.73,162.14 141.72,162.3 141.71,162.45 C 141.69,162.66 141.69,162.87 141.69,163.08 C 141.69,163.25 141.7,163.42 141.71,163.6 C 141.71,163.76 141.73,163.92 141.75,164.08 C 141.76,164.15 141.76,164.22 141.78,164.29 C 141.79,164.38 141.81,164.48 141.82,164.57 C 141.9,164.87 141.97,165.16 142.04,165.46 C 142.12,165.75 142.2,166.04 142.28,166.33 C 142.35,166.59 142.44,166.84 142.53,167.09 C 142.57,167.23 142.63,167.38 142.68,167.52 C 142.7,167.59 142.72,167.67 142.74,167.74 C 142.75,167.77 142.76,167.81 142.76,167.85 C 142.76,167.87 142.76,167.9 142.76,167.92 C 142.75,167.94 142.75,167.97 142.74,167.99 C 142.73,168.02 142.72,168.04 142.7,168.06 C 142.68,168.09 142.66,168.11 142.63,168.12 C 142.62,168.13 142.6,168.14 142.57,168.15 C 142.54,168.17 142.49,168.19 142.45,168.2 C 142.4,168.21 142.35,168.23 142.31,168.24 C 142.21,168.26 142.1,168.28 142.01,168.3 C 141.84,168.33 141.68,168.35 141.51,168.38 C 141.21,168.42 140.9,168.45 140.59,168.47 C 140.4,168.49 140.22,168.5 140.03,168.5 C 139.72,168.51 139.41,168.5 139.1,168.47 C 138.82,168.44 138.54,168.39 138.26,168.31 C 137.97,168.24 137.69,168.14 137.41,168.03 C 136.56,167.69 135.66,167.45 134.75,167.33 C 134.51,167.3 134.29,167.28 134.07,167.27 C 133.98,167.26 133.88,167.26 133.78,167.26 C 133.72,167.25 133.65,167.25 133.59,167.25 C 133.54,167.25 133.48,167.25 133.43,167.25 C 133.4,167.25 133.37,167.25 133.34,167.25 C 133.31,167.25 133.28,167.26 133.25,167.26 C 133.25,167.27 133.25,167.28 133.25,167.29 C 133.24,167.33 133.24,167.37 133.24,167.4 C 133.24,167.48 133.24,167.55 133.25,167.63 C 133.25,167.65 133.25,167.67 133.26,167.7 C 133.26,167.71 133.26,167.72 133.26,167.74 C 133.29,167.78 133.32,167.81 133.35,167.85 C 133.37,167.88 133.39,167.9 133.42,167.92 C 133.46,167.95 133.51,167.97 133.54,167.99 C 133.6,168.01 133.68,168.02 133.74,168.03 C 133.82,168.05 133.93,168.06 134.01,168.07 C 134.35,168.1 134.68,168.14 135.01,168.19 C 135.29,168.24 135.57,168.3 135.84,168.37 C 136.1,168.44 136.35,168.53 136.59,168.65 C 136.68,168.69 136.76,168.74 136.85,168.79 C 136.93,168.84 137.0,168.89 137.07,168.95 C 137.13,169.01 137.18,169.07 137.23,169.13 C 137.26,169.18 137.29,169.23 137.32,169.28 C 137.35,169.33 137.38,169.38 137.4,169.43 C 137.43,169.48 137.44,169.54 137.45,169.59 C 137.47,169.64 137.47,169.69 137.47,169.75 C 137.48,169.8 137.47,169.86 137.46,169.91 C 137.44,170.02 137.39,170.12 137.32,170.21 C 137.26,170.32 137.19,170.41 137.1,170.5 C 137.04,170.57 136.98,170.65 136.92,170.73 C 136.88,170.78 136.85,170.82 136.82,170.87 C 136.79,170.9 136.79,170.93 136.76,170.97 C 136.78,170.98 136.79,170.99 136.79,171.0 C 136.82,171.04 136.85,171.08 136.89,171.12 C 136.93,171.16 136.97,171.2 137.01,171.23 C 137.06,171.27 137.1,171.3 137.15,171.33 C 137.18,171.35 137.21,171.36 137.24,171.38 C 137.26,171.37 137.29,171.36 137.32,171.35 C 137.35,171.33 137.39,171.32 137.42,171.3 C 137.49,171.27 137.56,171.23 137.62,171.2 C 137.79,171.11 137.97,171.02 138.15,170.93 C 138.5,170.73 138.85,170.54 139.21,170.36 C 139.49,170.22 139.76,170.08 140.06,169.95 C 140.29,169.85 140.51,169.75 140.76,169.66 C 140.96,169.58 141.17,169.51 141.39,169.45 C 141.66,169.37 141.94,169.3 142.22,169.25 C 142.35,169.22 142.47,169.2 142.6,169.19 C 142.7,169.17 142.79,169.16 142.89,169.16 C 142.94,169.16 142.99,169.16 143.04,169.17 C 143.07,169.17 143.13,169.18 143.18,169.2 C 143.2,169.21 143.22,169.21 143.24,169.23 C 143.26,169.24 143.29,169.25 143.31,169.26 C 143.32,169.28 143.34,169.29 143.35,169.3 C 143.38,169.32 143.4,169.33 143.41,169.35 C 143.46,169.39 143.49,169.43 143.53,169.47 C 143.54,169.5 143.57,169.53 143.59,169.55 C 143.6,169.58 143.63,169.61 143.65,169.64 C 143.7,169.71 143.74,169.78 143.79,169.86 C 143.82,169.93 143.88,170.0 143.92,170.08 C 144.01,170.25 144.1,170.42 144.2,170.6 C 144.25,170.69 144.29,170.77 144.32,170.86 C 144.37,170.94 144.41,171.03 144.45,171.12 C 144.5,171.25 144.54,171.39 144.57,171.53 C 144.62,171.72 144.65,171.92 144.67,172.12 C 144.71,172.43 144.74,172.74 144.76,173.05 C 144.79,173.53 144.82,174.01 144.85,174.49 C 144.85,174.58 144.87,174.67 144.87,174.75 C 144.88,174.81 144.88,174.87 144.89,174.93 C 144.9,174.97 144.9,175.01 144.91,175.05 C 144.93,175.04 144.96,175.03 145.01,175.0 C 145.07,174.96 145.18,174.89 145.32,174.79 C 145.44,174.7 145.56,174.6 145.68,174.51 C 145.78,174.44 145.85,174.44 145.95,174.52 C 146.03,174.58 146.1,174.63 146.18,174.69 C 146.22,174.73 146.26,174.76 146.31,174.8 C 146.35,174.82 146.39,174.84 146.42,174.86 C 146.45,174.88 146.48,174.89 146.51,174.9 C 146.54,174.91 146.57,174.92 146.6,174.93 C 146.66,174.94 146.72,174.94 146.78,174.94 C 146.79,174.94 146.81,174.94 146.82,174.94 C 146.82,174.91 146.82,174.88 146.82,174.85 C 146.81,174.8 146.81,174.76 146.79,174.71 C 146.76,174.6 146.75,174.48 146.72,174.37 C 146.65,174.06 146.59,173.75 146.51,173.44 C 146.46,173.14 146.4,172.85 146.35,172.55 C 146.32,172.3 146.29,172.05 146.28,171.8 C 146.26,171.53 146.26,171.27 146.25,171.0 C 146.25,170.82 146.25,170.65 146.26,170.48 C 146.26,170.36 146.26,170.24 146.26,170.13 C 146.28,170.04 146.29,169.96 146.29,169.88 C 146.32,169.81 146.32,169.75 146.35,169.69 C 146.35,169.65 146.37,169.61 146.39,169.57 C 146.4,169.53 146.42,169.49 146.43,169.45 C 146.44,169.43 146.45,169.41 146.46,169.4 C 146.47,169.38 146.47,169.37 146.49,169.36 C 146.49,169.35 146.5,169.34 146.51,169.33 C 146.51,169.32 146.53,169.31 146.54,169.3 C 146.56,169.29 146.57,169.28 146.6,169.28 C 146.62,169.27 146.63,169.27 146.65,169.27 C 146.67,169.27 146.69,169.27 146.71,169.27 C 146.74,169.27 146.76,169.28 146.79,169.29 C 146.82,169.3 146.85,169.31 146.89,169.33 C 146.95,169.35 147.0,169.38 147.06,169.42 C 147.13,169.46 147.2,169.5 147.28,169.54 C 147.34,169.57 147.41,169.6 147.48,169.62 C 147.51,169.63 147.56,169.64 147.6,169.64 C 147.71,169.66 147.81,169.67 147.91,169.68 C 148.1,169.7 148.29,169.72 148.49,169.73 C 148.78,169.74 149.07,169.76 149.37,169.77 C 149.57,169.78 149.76,169.8 149.97,169.81 C 150.1,169.82 150.22,169.83 150.35,169.84 C 150.44,169.85 150.51,169.85 150.6,169.87 C 150.63,169.87 150.66,169.87 150.68,169.88 C 150.7,169.88 150.71,169.89 150.73,169.89 C 150.73,169.9 150.74,169.9 150.75,169.9 C 150.76,169.91 150.78,169.92 150.79,169.93 C 150.79,169.94 150.82,169.96 150.82,169.97 C 150.84,169.98 150.84,169.99 150.85,170.01 C 150.85,170.02 150.87,170.04 150.88,170.06 C 150.89,170.09 150.9,170.12 150.9,170.16 C 150.92,170.24 150.93,170.32 150.94,170.41 C 150.96,170.51 150.97,170.62 150.98,170.73 C 150.99,170.86 151.0,170.98 151.01,171.11 C 151.01,171.36 151.03,171.62 151.04,171.88 C 151.04,171.99 151.04,172.1 151.04,172.21 C 151.03,172.3 151.03,172.39 151.01,172.47 C 151.0,172.62 150.96,172.77 150.92,172.91 C 150.87,173.09 150.81,173.27 150.75,173.44 C 150.66,173.68 150.57,173.9 150.47,174.13 C 150.34,174.44 150.2,174.74 150.06,175.04 C 149.99,175.2 149.92,175.36 149.85,175.52 C 149.94,175.5 150.04,175.47 150.12,175.43 C 150.2,175.4 150.28,175.37 150.35,175.34 C 150.38,175.33 150.41,175.32 150.44,175.31 C 150.46,175.3 150.48,175.29 150.5,175.29 C 150.51,175.29 150.51,175.29 150.53,175.29 C 150.54,175.28 150.57,175.29 150.57,175.29 C 150.6,175.29 150.62,175.3 150.64,175.3 C 150.67,175.31 150.69,175.33 150.72,175.34 C 150.74,175.36 150.76,175.37 150.79,175.39 C 150.82,175.42 150.88,175.45 150.92,175.48 z M 162.46,161.15 C 162.46,161.18 162.46,161.21 162.47,161.24 C 162.59,161.17 162.71,161.1 162.82,161.03 C 162.9,160.99 162.97,160.95 163.04,160.91 C 163.1,160.87 163.17,160.83 163.24,160.78 C 163.37,160.7 163.49,160.62 163.6,160.54 C 163.82,160.38 164.05,160.22 164.24,160.04 C 164.41,159.89 164.57,159.72 164.72,159.55 C 164.83,159.4 164.94,159.25 165.02,159.08 C 165.09,158.95 165.14,158.8 165.17,158.65 C 165.18,158.59 165.18,158.52 165.18,158.45 C 165.18,158.4 165.18,158.35 165.17,158.3 C 165.16,158.27 165.15,158.23 165.14,158.2 C 165.14,158.16 165.12,158.14 165.11,158.11 C 165.08,158.05 165.04,157.99 164.99,157.94 C 164.96,157.9 164.93,157.87 164.89,157.84 C 164.86,157.81 164.82,157.77 164.77,157.75 C 164.7,157.7 164.62,157.66 164.54,157.63 C 164.44,157.61 164.33,157.6 164.23,157.6 C 164.19,157.6 164.15,157.6 164.1,157.6 C 164.08,157.6 164.05,157.6 164.02,157.61 C 163.98,157.61 163.94,157.63 163.9,157.64 C 163.88,157.65 163.85,157.67 163.82,157.68 C 163.81,157.69 163.79,157.7 163.76,157.71 C 163.75,157.73 163.73,157.74 163.71,157.76 C 163.66,157.79 163.63,157.82 163.59,157.86 C 163.56,157.89 163.53,157.92 163.5,157.96 C 163.46,158.02 163.41,158.08 163.37,158.15 C 163.26,158.31 163.13,158.31 163.01,158.15 C 162.96,158.09 162.91,158.02 162.87,157.96 C 162.84,157.93 162.82,157.9 162.79,157.87 C 162.76,157.84 162.72,157.81 162.69,157.78 C 162.65,157.76 162.62,157.73 162.57,157.71 C 162.56,157.7 162.54,157.69 162.53,157.68 C 162.49,157.66 162.45,157.64 162.41,157.63 C 162.39,157.62 162.37,157.62 162.35,157.61 C 162.29,157.6 162.25,157.6 162.2,157.6 C 162.12,157.6 162.04,157.6 161.97,157.6 C 161.92,157.6 161.87,157.61 161.82,157.62 C 161.79,157.62 161.76,157.64 161.73,157.65 C 161.71,157.66 161.69,157.67 161.67,157.68 C 161.64,157.69 161.62,157.71 161.6,157.72 C 161.57,157.74 161.54,157.75 161.51,157.77 C 161.41,157.84 161.32,157.93 161.26,158.04 C 161.21,158.14 161.17,158.26 161.15,158.38 C 161.14,158.44 161.14,158.51 161.15,158.58 C 161.15,158.64 161.16,158.7 161.17,158.76 C 161.18,158.81 161.19,158.85 161.2,158.89 C 161.21,158.93 161.23,158.97 161.25,159.0 C 161.26,159.05 161.29,159.09 161.32,159.13 C 161.35,159.18 161.38,159.22 161.42,159.27 C 161.46,159.33 161.51,159.39 161.54,159.44 C 161.6,159.51 161.67,159.58 161.74,159.65 C 161.82,159.75 161.92,159.86 162.01,159.96 C 162.07,160.05 162.14,160.14 162.2,160.23 C 162.25,160.3 162.29,160.37 162.32,160.45 C 162.34,160.49 162.35,160.53 162.37,160.58 C 162.4,160.67 162.42,160.76 162.44,160.85 C 162.45,160.95 162.46,161.05 162.46,161.15 z M 178.35,150.0 C 178.35,157.53 175.37,164.72 170.05,170.04 C 164.73,175.37 157.53,178.35 150.01,178.35 C 142.48,178.35 135.29,175.37 129.96,170.04 C 124.64,164.72 121.66,157.53 121.66,150.0 C 121.66,142.47 124.64,135.28 129.96,129.96 C 135.28,124.63 142.48,121.65 150.01,121.65 C 157.53,121.65 164.72,124.63 170.05,129.96 C 175.37,135.28 178.35,142.47 178.35,150.0 z M 126.54,145.06 C 125.83,145.06 125.23,145.32 124.68,145.84 C 124.16,146.37 123.9,147.0 123.9,147.72 C 123.9,149.24 123.9,150.76 123.9,152.28 C 123.9,153.0 124.16,153.63 124.68,154.16 C 125.23,154.68 125.83,154.94 126.54,154.94 C 127.23,154.94 127.87,154.68 128.41,154.16 C 128.94,153.63 129.19,153.0 129.19,152.28 C 129.19,150.76 129.19,149.24 129.19,147.72 C 129.19,147.0 128.94,146.37 128.41,145.84 C 127.87,145.32 127.23,145.06 126.54,145.06 z M 173.47,145.06 C 172.78,145.06 172.14,145.32 171.6,145.84 C 171.07,146.37 170.82,147.0 170.82,147.72 C 170.82,149.24 170.82,150.76 170.82,152.28 C 170.82,153.0 171.07,153.63 171.6,154.16 C 172.14,154.68 172.78,154.94 173.47,154.94 C 174.18,154.94 174.78,154.68 175.33,154.16 C 175.85,153.63 176.11,153.0 176.11,152.28 C 176.11,150.76 176.11,149.24 176.11,147.72 C 176.11,147.0 175.85,146.37 175.33,145.84 C 174.78,145.32 174.18,145.06 173.47,145.06 z" />
		
		<text style="font-size:10px;font-family:z_boli;stroke:none;fill:#00f;text-anchor:middle" transform="matrix(1 0 0 1 150 150)" class="txt"></text>	
			
		<cam mingh:cam="--actions=EditSelectAll;ObjectToPath;ZoomPage;ZoomCenterPage;FileVacuum;FileSave; -g" mingh:style="source:microprism">M2</cam> 	
  </g>
</svg>
