<?xml version="1.0" encoding="UTF-8" standalone="no"?>

<svg xmlns="http://www.w3.org/2000/svg" xmlns:mingh="http://www.minghworld.com" xmlns:svg="http://www.w3.org/2000/svg" xmlns:xlink="http://www.w3.org/1999/xlink" height="300px" width="300px">
  
  <g>
    <path style="fill:none;stroke:#fb0;stroke-width:0.25px"
		d="M 143.14,163.82 C 143.16,163.82 143.17,163.82 143.18,163.82 C 143.25,163.7 143.34,163.58 143.45,163.48 C 143.51,163.43 143.57,163.38 143.64,163.34 C 143.72,163.29 143.81,163.25 143.9,163.23 C 143.98,163.2 144.07,163.19 144.16,163.18 C 144.22,163.17 144.28,163.17 144.34,163.18 C 144.44,163.19 144.54,163.21 144.64,163.24 C 144.74,163.28 144.84,163.33 144.93,163.4 C 145.01,163.46 145.1,163.54 145.18,163.63 C 145.26,163.75 145.35,163.89 145.39,164.04 C 145.41,164.04 145.42,164.04 145.44,164.04 C 145.44,163.97 145.44,163.9 145.45,163.82 C 145.45,163.75 145.46,163.68 145.47,163.61 C 145.49,163.44 145.51,163.26 145.54,163.09 C 145.57,162.92 145.6,162.76 145.63,162.59 C 145.65,162.47 145.68,162.35 145.71,162.23 C 145.76,162.01 145.82,161.79 145.89,161.57 C 146.01,161.14 146.18,160.71 146.37,160.29 C 146.54,159.91 146.74,159.53 146.97,159.18 C 145.6,158.61 144.23,158.05 142.85,157.48 C 142.68,157.92 142.5,158.35 142.31,158.79 C 142.94,159.3 143.57,159.82 144.21,160.33 C 144.31,160.41 144.32,160.48 144.26,160.6 C 144.04,161.1 143.82,161.61 143.64,162.13 C 143.44,162.68 143.26,163.25 143.14,163.82 z M 145.37,166.88 C 145.48,166.85 145.57,166.83 145.68,166.8 C 145.57,166.43 145.51,166.02 145.45,165.59 C 145.44,165.5 145.44,165.38 145.43,165.23 C 145.43,165.14 145.43,165.04 145.43,164.93 C 145.39,164.93 145.35,164.92 145.29,164.92 C 145.24,165.05 145.15,165.17 145.04,165.26 C 144.98,165.32 144.91,165.37 144.84,165.41 C 144.76,165.45 144.68,165.49 144.59,165.52 C 144.5,165.54 144.41,165.56 144.32,165.56 C 144.26,165.57 144.2,165.57 144.14,165.56 C 144.04,165.55 143.94,165.53 143.84,165.5 C 143.74,165.46 143.64,165.41 143.54,165.35 C 143.46,165.28 143.38,165.21 143.31,165.12 C 143.21,165.0 143.14,164.86 143.09,164.71 C 143.06,164.7 143.01,164.7 142.98,164.7 C 142.9,165.22 142.85,165.75 142.85,166.28 C 142.85,166.68 142.88,167.07 142.92,167.47 C 143.01,167.44 143.12,167.42 143.21,167.4 C 143.22,167.33 143.24,167.26 143.26,167.2 C 143.29,167.1 143.34,167.0 143.4,166.91 C 143.46,166.81 143.54,166.72 143.64,166.64 C 143.74,166.56 143.84,166.5 143.96,166.46 C 144.06,166.41 144.17,166.39 144.29,166.38 C 144.35,166.37 144.41,166.37 144.47,166.38 C 144.54,166.38 144.63,166.39 144.7,166.41 C 144.78,166.43 144.85,166.46 144.93,166.5 C 144.99,166.53 145.04,166.57 145.1,166.61 C 145.21,166.68 145.29,166.78 145.37,166.88 z M 146.48,169.55 C 146.62,169.42 146.76,169.29 146.89,169.15 C 146.74,168.97 146.59,168.78 146.46,168.59 C 146.26,168.3 146.1,167.98 145.96,167.65 C 145.84,167.68 145.71,167.71 145.57,167.74 C 145.57,167.81 145.54,167.88 145.53,167.94 C 145.5,168.04 145.45,168.14 145.4,168.22 C 145.32,168.33 145.25,168.42 145.15,168.5 C 145.06,168.57 144.95,168.64 144.84,168.68 C 144.73,168.72 144.62,168.75 144.5,168.76 C 144.44,168.77 144.38,168.77 144.32,168.76 C 144.24,168.76 144.17,168.74 144.09,168.72 C 144.01,168.7 143.94,168.67 143.85,168.64 C 143.79,168.61 143.74,168.57 143.68,168.53 C 143.57,168.45 143.49,168.36 143.42,168.26 C 143.29,168.29 143.18,168.32 143.07,168.35 C 143.09,168.46 143.12,168.58 143.14,168.69 C 143.22,168.99 143.31,169.29 143.42,169.58 C 143.53,169.87 143.66,170.15 143.79,170.42 C 143.94,170.69 144.1,170.96 144.28,171.21 C 144.35,171.3 144.42,171.39 144.49,171.48 C 144.62,171.36 144.76,171.23 144.89,171.1 C 144.84,170.99 144.81,170.88 144.79,170.76 C 144.79,170.65 144.79,170.54 144.82,170.43 C 144.84,170.31 144.88,170.2 144.93,170.1 C 144.99,169.99 145.06,169.89 145.15,169.8 C 145.23,169.71 145.32,169.64 145.44,169.58 C 145.54,169.53 145.66,169.49 145.76,169.47 C 145.82,169.46 145.88,169.45 145.94,169.45 C 146.0,169.45 146.04,169.45 146.1,169.46 C 146.24,169.47 146.35,169.5 146.48,169.55 M 154.91,172.13 C 154.78,172.0 154.64,171.87 154.51,171.74 C 154.39,171.79 154.26,171.82 154.14,171.84 C 154.03,171.85 153.91,171.84 153.79,171.82 C 153.68,171.8 153.57,171.76 153.47,171.71 C 153.35,171.65 153.26,171.58 153.17,171.49 C 153.09,171.4 153.01,171.3 152.96,171.2 C 152.9,171.09 152.85,170.98 152.84,170.86 C 152.82,170.81 152.82,170.75 152.82,170.7 C 152.82,170.64 152.82,170.59 152.82,170.53 C 152.84,170.42 152.87,170.3 152.91,170.19 C 152.76,170.05 152.62,169.91 152.48,169.77 C 151.76,170.33 150.9,170.63 150.0,170.63 C 149.1,170.63 148.24,170.33 147.53,169.77 C 147.39,169.91 147.24,170.05 147.1,170.19 C 147.14,170.3 147.17,170.42 147.18,170.53 C 147.19,170.64 147.19,170.76 147.17,170.86 C 147.15,170.98 147.1,171.09 147.04,171.2 C 147.0,171.3 146.92,171.4 146.84,171.49 C 146.75,171.58 146.65,171.65 146.54,171.71 C 146.44,171.76 146.32,171.8 146.21,171.82 C 146.16,171.83 146.1,171.84 146.04,171.84 C 145.99,171.84 145.93,171.84 145.87,171.84 C 145.75,171.82 145.62,171.79 145.5,171.74 C 145.37,171.87 145.23,172.0 145.1,172.13 C 145.38,172.4 145.69,172.64 146.01,172.85 C 146.39,173.1 146.79,173.31 147.21,173.48 C 147.43,173.57 147.65,173.65 147.88,173.72 C 148.1,173.79 148.34,173.85 148.57,173.9 C 149.04,173.99 149.53,174.04 150.0,174.04 C 150.48,174.04 150.96,173.99 151.43,173.9 C 151.9,173.8 152.35,173.66 152.79,173.48 C 153.01,173.39 153.24,173.29 153.45,173.17 C 153.63,173.08 153.82,172.97 153.99,172.85 C 154.32,172.64 154.63,172.4 154.91,172.13 z M 156.94,168.35 C 156.82,168.32 156.71,168.29 156.59,168.26 C 156.51,168.36 156.43,168.45 156.32,168.53 C 156.26,168.57 156.21,168.61 156.15,168.64 C 156.07,168.67 156.0,168.7 155.92,168.72 C 155.84,168.74 155.76,168.76 155.69,168.76 C 155.63,168.77 155.57,168.77 155.51,168.76 C 155.39,168.75 155.28,168.72 155.17,168.68 C 155.06,168.64 154.95,168.57 154.85,168.5 C 154.76,168.42 154.68,168.33 154.6,168.22 C 154.51,168.08 154.45,167.91 154.43,167.74 C 154.29,167.71 154.17,167.68 154.04,167.65 C 153.9,167.98 153.74,168.3 153.54,168.59 C 153.42,168.78 153.26,168.97 153.12,169.15 C 153.25,169.29 153.39,169.42 153.53,169.55 C 153.65,169.5 153.76,169.47 153.9,169.46 C 154.01,169.44 154.12,169.45 154.24,169.47 C 154.35,169.49 154.46,169.53 154.57,169.58 C 154.68,169.64 154.78,169.71 154.85,169.8 C 154.95,169.89 155.01,169.99 155.07,170.1 C 155.13,170.2 155.17,170.31 155.19,170.43 C 155.2,170.48 155.21,170.54 155.21,170.59 C 155.22,170.65 155.21,170.7 155.21,170.76 C 155.2,170.88 155.17,170.99 155.12,171.1 C 155.25,171.23 155.39,171.36 155.51,171.48 C 155.59,171.39 155.66,171.3 155.73,171.21 C 155.91,170.96 156.07,170.69 156.21,170.42 C 156.35,170.15 156.48,169.87 156.59,169.58 C 156.7,169.29 156.79,168.99 156.87,168.69 C 156.89,168.58 156.92,168.46 156.94,168.35 z M 156.79,167.4 C 156.89,167.42 156.99,167.44 157.09,167.47 C 157.13,167.07 157.15,166.68 157.15,166.28 C 157.15,165.75 157.1,165.22 157.03,164.7 C 156.99,164.7 156.95,164.7 156.92,164.71 C 156.87,164.86 156.79,165.0 156.7,165.12 C 156.63,165.21 156.54,165.28 156.46,165.35 C 156.37,165.41 156.26,165.46 156.17,165.5 C 156.07,165.53 155.97,165.55 155.87,165.56 C 155.81,165.57 155.74,165.57 155.68,165.56 C 155.6,165.56 155.51,165.54 155.42,165.52 C 155.32,165.49 155.25,165.45 155.17,165.41 C 155.1,165.37 155.03,165.32 154.97,165.26 C 154.85,165.17 154.76,165.05 154.71,164.92 C 154.66,164.92 154.62,164.93 154.57,164.93 C 154.57,165.04 154.57,165.14 154.57,165.23 C 154.57,165.38 154.57,165.5 154.56,165.59 C 154.5,166.02 154.43,166.43 154.32,166.8 C 154.43,166.83 154.53,166.85 154.64,166.88 C 154.71,166.78 154.79,166.68 154.9,166.61 C 154.96,166.57 155.01,166.53 155.07,166.5 C 155.15,166.46 155.23,166.43 155.31,166.41 C 155.38,166.39 155.46,166.38 155.54,166.38 C 155.6,166.37 155.66,166.37 155.72,166.38 C 155.82,166.39 155.95,166.41 156.04,166.46 C 156.17,166.5 156.26,166.56 156.37,166.64 C 156.46,166.72 156.54,166.81 156.6,166.91 C 156.71,167.06 156.76,167.23 156.79,167.4 z M 154.57,164.04 C 154.59,164.04 154.6,164.04 154.62,164.04 C 154.66,163.89 154.74,163.75 154.82,163.63 C 154.9,163.54 154.99,163.46 155.07,163.4 C 155.17,163.33 155.26,163.28 155.37,163.24 C 155.47,163.21 155.57,163.19 155.67,163.18 C 155.73,163.17 155.79,163.17 155.85,163.18 C 155.94,163.19 156.03,163.2 156.1,163.23 C 156.2,163.25 156.29,163.29 156.37,163.34 C 156.44,163.38 156.5,163.43 156.56,163.48 C 156.67,163.58 156.76,163.69 156.82,163.82 C 156.84,163.82 156.85,163.82 156.87,163.82 C 156.74,163.25 156.57,162.68 156.37,162.13 C 156.18,161.61 155.97,161.1 155.74,160.6 C 155.69,160.48 155.7,160.41 155.79,160.33 C 156.43,159.82 157.07,159.3 157.7,158.79 C 157.51,158.35 157.32,157.92 157.15,157.48 C 155.78,158.05 154.41,158.61 153.04,159.18 C 153.26,159.53 153.47,159.91 153.64,160.29 C 153.82,160.71 153.99,161.14 154.12,161.57 C 154.19,161.79 154.25,162.01 154.29,162.23 C 154.32,162.35 154.35,162.47 154.38,162.59 C 154.41,162.76 154.44,162.92 154.47,163.09 C 154.49,163.26 154.51,163.44 154.54,163.61 C 154.54,163.68 154.56,163.75 154.56,163.82 C 154.57,163.9 154.57,163.97 154.57,164.04 z M 178.35,150.0 C 178.35,157.53 175.37,164.72 170.05,170.04 C 164.73,175.37 157.53,178.35 150.01,178.35 C 142.48,178.35 135.29,175.37 129.96,170.04 C 124.64,164.72 121.66,157.53 121.66,150.0 C 121.66,142.47 124.64,135.28 129.96,129.96 C 135.28,124.63 142.48,121.65 150.01,121.65 C 157.53,121.65 164.72,124.63 170.05,129.96 C 175.37,135.28 178.35,142.47 178.35,150.0 z M 126.54,145.06 C 125.83,145.06 125.23,145.32 124.68,145.84 C 124.16,146.37 123.9,147.0 123.9,147.72 C 123.9,149.24 123.9,150.76 123.9,152.28 C 123.9,153.0 124.16,153.63 124.68,154.16 C 125.23,154.68 125.83,154.94 126.54,154.94 C 127.23,154.94 127.87,154.68 128.41,154.16 C 128.94,153.63 129.19,153.0 129.19,152.28 C 129.19,150.76 129.19,149.24 129.19,147.72 C 129.19,147.0 128.94,146.37 128.41,145.84 C 127.87,145.32 127.23,145.06 126.54,145.06 z M 171.47,145.06 C 170.78,145.06 170.14,145.32 169.6,145.84 C 169.07,146.37 168.82,147.0 168.82,147.72 C 168.82,149.24 168.82,150.76 168.82,152.28 C 168.82,153.0 169.07,153.63 169.6,154.16 C 170.14,154.68 170.78,154.94 171.47,154.94 C 172.18,154.94 172.78,154.68 173.33,154.16 C 173.85,153.63 174.11,153.0 174.11,152.28 C 174.11,150.76 174.11,149.24 174.11,147.72 C 174.11,147.0 173.85,146.37 173.33,145.84 C 172.78,145.32 172.18,145.06 171.47,145.06 z" />
		
		<text style="font-size:10px;font-family:z_boli;stroke:none;fill:#00f;text-anchor:middle" transform="matrix(1 0 0 1 150 150)" class="txt"></text>	
			
		<cam mingh:cam="--actions=EditSelectAll;ObjectToPath;ZoomPage;ZoomCenterPage;FileVacuum;FileSave; -g" mingh:style="source:microprism">M2</cam> 
  </g>
</svg>
