<?xml version="1.0" encoding="UTF-8" standalone="no"?>
<svg xmlns="http://www.w3.org/2000/svg" xmlns:mingh="http://www.minghworld.com" xmlns:svg="http://www.w3.org/2000/svg" xmlns:xlink="http://www.w3.org/1999/xlink" height="300px" width="300px">
  
  <g>
    <path style="fill:none;stroke:#fb0;stroke-width:0.25px"
		d="M 152.62,167.41 C 153.57,167.3 154.51,167.23 155.48,167.22 C 156.44,167.2 157.4,167.23 158.35,167.21 C 159.48,167.18 160.1,167.07 161.19,166.78 C 161.42,166.72 161.65,166.65 161.88,166.57 C 162.13,166.48 162.26,166.41 162.47,166.24 C 162.54,166.18 162.64,166.11 162.71,166.03 C 162.73,166.01 162.75,165.99 162.76,165.97 C 162.78,165.96 162.79,165.95 162.79,165.94 C 162.79,165.93 162.81,165.93 162.81,165.92 C 162.82,165.92 162.79,165.92 162.79,165.92 C 162.79,165.92 162.79,165.92 162.79,165.92 C 162.72,165.9 162.66,165.89 162.6,165.88 C 162.38,165.84 162.16,165.81 161.94,165.8 C 161.32,165.75 161.04,165.81 160.44,165.8 C 159.91,165.8 159.59,165.71 159.1,165.49 C 158.69,165.29 158.29,165.05 157.9,164.8 C 157.51,164.54 157.15,164.26 156.76,164.0 C 156.31,163.69 156.03,163.53 155.46,163.63 C 155.22,163.67 154.97,163.74 154.73,163.8 C 154.65,163.83 154.51,163.89 154.41,163.82 C 154.32,163.75 154.34,163.61 154.35,163.52 C 154.37,163.26 154.4,163.0 154.41,162.73 C 154.42,162.47 154.38,162.29 154.15,162.13 C 153.95,161.99 153.74,161.89 153.53,161.77 C 153.32,161.65 153.1,161.53 152.91,161.4 C 152.06,160.87 151.39,160.3 150.97,159.34 C 150.78,158.89 150.66,158.44 150.57,157.96 C 150.54,157.84 150.54,157.72 150.51,157.6 C 150.51,157.54 150.5,157.48 150.5,157.42 C 150.49,157.38 150.49,157.35 150.49,157.32 C 150.49,157.32 150.49,157.31 150.49,157.31 C 150.48,157.31 150.48,157.31 150.48,157.31 C 150.48,157.32 150.47,157.32 150.47,157.32 C 150.46,157.33 150.45,157.34 150.44,157.35 C 150.29,157.52 150.22,157.71 150.15,157.91 C 150.0,158.32 149.89,158.85 149.85,159.28 C 149.79,159.76 149.81,160.23 149.85,160.7 C 149.97,161.67 150.26,162.57 150.59,163.48 C 150.89,164.32 151.26,165.29 151.24,166.23 C 151.23,166.73 151.09,167.16 150.88,167.59 C 150.66,168.03 150.4,168.43 150.13,168.83 C 149.85,169.23 149.57,169.61 149.29,170.01 C 149.15,170.2 149.01,170.39 148.91,170.59 C 148.85,170.69 148.79,170.79 148.75,170.89 C 148.72,170.95 148.7,171.0 148.67,171.05 C 148.65,171.1 148.64,171.15 148.6,171.2 C 148.54,171.24 148.5,171.25 148.44,171.26 C 148.38,171.27 148.32,171.28 148.26,171.29 C 148.15,171.3 148.03,171.32 147.91,171.34 C 147.68,171.38 147.44,171.41 147.21,171.44 C 146.74,171.51 146.26,171.57 145.79,171.61 C 143.85,171.8 142.06,171.8 140.12,171.49 C 139.18,171.35 138.26,171.15 137.34,170.89 C 137.29,170.87 137.23,170.86 137.17,170.84 C 137.14,170.83 137.12,170.82 137.09,170.81 C 137.07,170.81 137.07,170.81 137.07,170.81 C 137.07,170.81 137.06,170.8 137.07,170.81 C 137.07,170.81 137.07,170.82 137.07,170.82 C 137.1,170.83 137.1,170.84 137.12,170.85 C 137.22,170.92 137.31,170.98 137.41,171.05 C 137.6,171.18 137.81,171.3 138.01,171.42 C 138.43,171.65 138.85,171.85 139.29,172.03 C 141.09,172.76 142.94,173.1 144.85,173.07 C 145.81,173.06 146.75,172.96 147.69,172.82 C 148.63,172.67 149.56,172.5 150.5,172.37 C 152.39,172.11 154.26,171.98 156.17,172.14 C 157.12,172.22 158.04,172.36 158.98,172.57 C 159.45,172.67 159.91,172.78 160.37,172.91 C 160.42,172.92 160.48,172.94 160.54,172.96 C 160.56,172.96 160.59,172.97 160.62,172.98 C 160.64,172.99 160.65,172.99 160.66,172.99 C 160.67,173.0 160.68,173.0 160.69,173.0 C 160.69,173.0 160.68,172.99 160.67,172.99 C 160.57,172.92 160.48,172.85 160.38,172.79 C 160.19,172.65 159.99,172.53 159.78,172.41 C 158.18,171.51 156.17,170.94 154.35,170.79 C 153.87,170.75 153.4,170.73 152.92,170.73 C 152.79,170.74 152.68,170.74 152.57,170.74 C 152.5,170.74 152.28,170.76 152.22,170.73 C 152.12,170.68 152.1,170.52 152.09,170.44 C 152.06,170.32 152.04,170.2 152.03,170.08 C 151.97,169.6 151.99,169.14 152.07,168.66 C 152.12,168.43 152.18,168.2 152.26,167.97 C 152.29,167.86 152.34,167.75 152.39,167.64 C 152.44,167.53 152.47,167.43 152.62,167.41 z M 178.35,150.0 C 178.35,157.53 175.37,164.72 170.05,170.04 C 164.73,175.37 157.53,178.35 150.01,178.35 C 142.48,178.35 135.29,175.37 129.96,170.04 C 124.64,164.72 121.66,157.53 121.66,150.0 C 121.66,142.47 124.64,135.28 129.96,129.96 C 135.28,124.63 142.48,121.65 150.01,121.65 C 157.53,121.65 164.72,124.63 170.05,129.96 C 175.37,135.28 178.35,142.47 178.35,150.0 z M 125.22,148.22 C 125.0,148.22 124.76,148.28 124.53,148.38 C 124.3,148.48 124.11,148.59 123.94,148.75 C 123.78,148.91 123.66,149.11 123.56,149.34 C 123.47,149.56 123.44,149.77 123.44,150.0 C 123.44,150.23 123.47,150.47 123.56,150.69 C 123.65,150.92 123.8,151.09 123.94,151.25 C 124.11,151.42 124.31,151.54 124.53,151.63 C 124.74,151.72 124.95,151.78 125.19,151.78 C 125.43,151.78 125.7,151.74 125.92,151.66 C 126.14,151.58 126.32,151.46 126.47,151.28 C 126.63,151.12 126.76,150.92 126.84,150.69 C 126.95,150.47 126.99,150.25 127.0,150.03 C 127.0,149.8 126.95,149.56 126.84,149.34 C 126.76,149.11 126.64,148.91 126.47,148.75 C 126.33,148.59 126.14,148.48 125.92,148.38 C 125.69,148.28 125.44,148.22 125.22,148.22 z M 174.79,148.22 C 174.57,148.22 174.32,148.28 174.09,148.38 C 173.87,148.48 173.68,148.59 173.54,148.75 C 173.37,148.91 173.25,149.11 173.17,149.34 C 173.06,149.56 173.01,149.8 173.01,150.03 C 173.02,150.25 173.06,150.47 173.17,150.69 C 173.25,150.92 173.38,151.12 173.54,151.28 C 173.69,151.46 173.87,151.58 174.09,151.66 C 174.31,151.74 174.58,151.78 174.82,151.78 C 175.06,151.78 175.27,151.72 175.48,151.63 C 175.7,151.54 175.9,151.42 176.07,151.25 C 176.21,151.09 176.36,150.92 176.45,150.69 C 176.54,150.47 176.57,150.23 176.57,150.0 C 176.57,149.77 176.54,149.56 176.45,149.34 C 176.35,149.11 176.23,148.91 176.07,148.75 C 175.9,148.59 175.71,148.48 175.48,148.38 C 175.25,148.28 175.01,148.22 174.79,148.22 z" />
	
	<text style="font-size:10px;font-family:z_boli;stroke:none;fill:#00f;text-anchor:middle" transform="matrix(1 0 0 1 150 150)" class="txt"></text>	
			
	<cam mingh:cam="--actions=EditSelectAll;ObjectToPath;ZoomPage;ZoomCenterPage;FileVacuum;FileSave; -g" mingh:style="source:microprism">M2</cam> 
  </g>
</svg>
