<?xml version="1.0" encoding="UTF-8" standalone="no"?>

<svg
   xmlns:xlink="http://www.w3.org/1999/xlink"
   xmlns:svg="http://www.w3.org/2000/svg"
   xmlns="http://www.w3.org/2000/svg"
   xmlns:mingh="http://www.minghworld.com"
   width="300px"
   height="300px" >
	<g>
		<path style="fill:none;stroke:#fb0;stroke-width:0.25px"
			d="M 153.16,126.88 C 153.16,125.13 151.75,123.71 150.0,123.71 C 148.24,123.71 146.83,125.13 146.83,126.88 C 146.83,128.63 148.24,130.05 150.0,130.05 C 151.75,130.05 153.16,128.63 153.16,126.88 z M 178.35,150.0 C 178.35,157.53 175.37,164.72 170.04,170.04 C 164.72,175.37 157.53,178.35 150.0,178.35 C 142.47,178.35 135.28,175.37 129.96,170.04 C 124.63,164.72 121.65,157.53 121.65,150.0 C 121.65,142.47 124.63,135.28 129.96,129.96 C 135.28,124.63 142.47,121.65 150.0,121.65 C 157.53,121.65 164.72,124.63 170.04,129.96 C 175.37,135.28 178.35,142.47 178.35,150.0 z M 148.69,167.83 C 148.39,167.76 148.08,167.7 147.78,167.64 C 147.43,169.7 147.09,171.76 146.74,173.82 C 147.4,173.87 148.07,173.92 148.73,173.97 C 148.72,171.92 148.7,169.87 148.69,167.83 z M 148.01,160.2 C 145.25,159.51 142.56,158.64 139.91,157.6 C 139.83,157.57 139.76,157.54 139.68,157.51 C 139.6,157.48 139.52,157.44 139.44,157.41 C 139.26,157.34 139.1,157.32 138.91,157.32 C 138.55,157.34 138.21,157.47 137.92,157.68 C 137.37,158.09 136.93,158.78 136.66,159.39 C 136.14,160.59 135.94,162.26 136.48,163.53 C 136.63,163.89 136.81,164.17 137.13,164.4 C 137.29,164.5 137.44,164.58 137.63,164.63 C 137.8,164.68 137.98,164.67 138.16,164.68 C 138.85,164.71 139.54,164.75 140.23,164.81 C 141.65,164.91 143.06,165.07 144.46,165.27 C 145.05,165.35 145.64,165.44 146.23,165.54 C 146.38,165.57 146.53,165.6 146.67,165.62 C 146.71,165.63 146.75,165.63 146.78,165.64 C 146.8,165.64 146.82,165.65 146.84,165.65 C 146.84,165.65 146.84,165.65 146.83,165.64 C 146.83,165.64 146.83,165.63 146.82,165.63 C 146.82,165.62 146.81,165.61 146.8,165.6 C 146.79,165.58 146.77,165.56 146.76,165.53 C 146.65,165.36 146.57,165.19 146.51,165.0 C 146.39,164.64 146.34,164.28 146.32,163.91 C 146.3,163.28 146.4,162.69 146.6,162.1 C 146.71,161.81 146.83,161.53 146.99,161.27 C 147.07,161.13 147.15,161.01 147.25,160.89 C 147.46,160.6 147.7,160.37 148.01,160.2 z M 145.96,167.32 C 143.75,168.28 141.55,169.24 139.35,170.2 C 139.67,170.78 139.98,171.37 140.3,171.95 C 142.54,170.47 144.78,168.98 147.02,167.5 C 146.83,167.47 146.65,167.43 146.47,167.4 C 146.3,167.37 146.13,167.34 145.96,167.32 M 150.16,166.34 C 152.84,166.97 155.46,167.76 158.05,168.72 C 158.61,168.93 159.18,169.15 159.74,169.38 C 159.88,169.43 160.02,169.49 160.16,169.55 C 160.18,169.55 160.19,169.56 160.21,169.57 C 160.22,169.57 160.23,169.55 160.23,169.55 C 160.24,169.54 160.25,169.54 160.25,169.53 C 160.28,169.5 160.31,169.47 160.34,169.44 C 160.36,169.43 160.37,169.41 160.39,169.4 C 160.39,169.39 160.37,169.38 160.37,169.37 C 160.36,169.37 160.36,169.36 160.35,169.35 C 160.32,169.31 160.29,169.27 160.26,169.24 C 160.02,168.93 159.88,168.6 159.78,168.22 C 159.43,166.91 159.67,165.2 160.35,164.02 C 160.7,163.43 161.22,162.94 161.91,162.76 C 162.63,162.58 163.28,162.82 163.75,163.38 C 164.18,163.9 164.4,164.63 164.46,165.28 C 164.53,165.96 164.45,166.68 164.25,167.33 C 164.14,167.67 164.02,167.97 163.72,168.2 C 163.45,168.41 163.08,168.52 162.74,168.44 C 162.4,168.37 162.12,168.11 161.94,167.82 C 161.75,167.51 161.7,167.19 161.69,166.83 C 161.67,166.18 161.74,165.52 162.12,164.94 C 162.17,164.87 162.23,164.8 162.29,164.74 C 162.33,164.7 162.38,164.67 162.43,164.65 C 162.45,164.63 162.48,164.62 162.5,164.61 C 162.51,164.6 162.52,164.6 162.53,164.6 C 162.54,164.59 162.53,164.58 162.53,164.57 C 162.53,164.48 162.51,164.4 162.47,164.32 C 162.45,164.28 162.43,164.24 162.4,164.21 C 162.39,164.19 162.38,164.17 162.36,164.16 C 162.34,164.14 162.32,164.15 162.3,164.16 C 161.96,164.25 161.72,164.59 161.57,164.86 C 161.25,165.47 161.11,166.17 161.11,166.85 C 161.11,167.54 161.23,168.22 161.82,168.7 C 162.09,168.92 162.41,169.07 162.75,169.12 C 163.07,169.16 163.47,169.09 163.76,168.95 C 164.1,168.79 164.29,168.54 164.47,168.23 C 164.65,167.93 164.76,167.61 164.85,167.28 C 165.04,166.58 165.07,165.9 165.0,165.19 C 164.93,164.53 164.74,163.77 164.36,163.2 C 164.02,162.7 163.38,162.23 162.76,162.15 C 162.56,162.12 161.95,162.12 161.75,162.11 C 161.4,162.1 161.04,162.08 160.69,162.07 C 157.94,161.93 155.22,161.63 152.51,161.15 C 152.2,161.1 151.89,161.04 151.59,160.98 C 151.39,160.95 151.2,160.89 151.0,160.91 C 150.7,160.94 150.45,161.08 150.23,161.27 C 149.93,161.53 149.7,161.86 149.52,162.2 C 149.38,162.49 149.27,162.77 149.19,163.08 C 149.04,163.67 148.99,164.32 149.1,164.93 C 149.16,165.24 149.24,165.53 149.42,165.8 C 149.51,165.93 149.61,166.05 149.74,166.14 C 149.87,166.24 150.0,166.3 150.16,166.34 z" />
			
			<text style="font-size:10px;font-family:z_boli;stroke:none;fill:#00f;text-anchor:middle" transform="matrix(1 0 0 1 150 150)" class="txt"></text>	
			
		<cam mingh:cam="--actions=EditSelectAll;ObjectToPath;ZoomPage;ZoomCenterPage;FileVacuum;FileSave; -g" mingh:style="source:microprism">M2</cam> 
	</g>		
</svg>
