<?xml version="1.0" encoding="UTF-8" standalone="no"?>

<svg
   xmlns:xlink="http://www.w3.org/1999/xlink"
   xmlns:svg="http://www.w3.org/2000/svg"
   xmlns="http://www.w3.org/2000/svg"
   xmlns:mingh="http://www.minghworld.com"
   width="300px"
   height="300px" >
	<g>
		<path style="fill:none;stroke:#fb0;stroke-width:0.25px"
			d="M 153.16,126.88 C 153.16,125.13 151.75,123.71 150.0,123.71 C 148.24,123.71 146.83,125.13 146.83,126.88 C 146.83,128.63 148.24,130.05 150.0,130.05 C 151.75,130.05 153.16,128.63 153.16,126.88 z M 178.35,150.0 C 178.35,157.53 175.37,164.72 170.04,170.04 C 164.72,175.37 157.53,178.35 150.0,178.35 C 142.47,178.35 135.28,175.37 129.96,170.04 C 124.63,164.72 121.65,157.53 121.65,150.0 C 121.65,142.47 124.63,135.28 129.96,129.96 C 135.28,124.63 142.47,121.65 150.0,121.65 C 157.53,121.65 164.72,124.63 170.04,129.96 C 175.37,135.28 178.35,142.47 178.35,150.0 z M 146.47,167.24 C 146.56,167.15 146.54,167.01 146.43,166.95 C 146.37,166.93 146.31,166.92 146.26,166.91 C 146.2,166.89 146.14,166.88 146.08,166.86 C 145.86,166.8 145.67,166.7 145.49,166.55 C 145.4,166.48 145.33,166.4 145.26,166.31 C 145.22,166.26 145.19,166.22 145.16,166.17 C 145.12,166.12 145.09,166.09 145.02,166.08 C 144.96,166.08 144.92,166.1 144.87,166.14 C 144.84,166.17 144.8,166.2 144.76,166.23 C 144.68,166.3 144.6,166.35 144.51,166.4 C 143.68,166.88 142.63,166.87 141.79,166.48 C 140.0,165.66 139.45,163.4 140.66,161.85 C 141.24,161.11 142.13,160.68 143.08,160.69 C 143.96,160.7 144.88,161.09 145.43,161.82 C 145.5,161.91 145.55,162.0 145.61,162.09 C 145.64,162.15 145.66,162.19 145.73,162.21 C 145.8,162.23 145.85,162.21 145.9,162.17 C 146.11,162.02 146.32,161.93 146.57,161.88 C 146.7,161.86 146.82,161.85 146.94,161.86 C 147.01,161.86 147.08,161.87 147.14,161.88 C 147.18,161.88 147.21,161.89 147.25,161.89 C 147.28,161.89 147.31,161.9 147.35,161.9 C 147.41,161.89 147.47,161.86 147.49,161.8 C 147.53,161.74 147.51,161.69 147.49,161.63 C 147.45,161.54 147.42,161.45 147.38,161.36 C 147.0,160.57 146.35,159.93 145.6,159.49 C 143.98,158.56 141.97,158.58 140.39,159.59 C 138.81,160.61 137.95,162.43 138.17,164.29 C 138.39,166.16 139.64,167.73 141.41,168.35 C 142.32,168.67 143.31,168.73 144.25,168.52 C 145.09,168.32 145.89,167.9 146.47,167.24 z M 160.47,167.8 C 160.48,167.79 160.49,167.78 160.5,167.77 C 160.53,167.74 160.55,167.7 160.57,167.67 C 160.61,167.59 160.65,167.51 160.68,167.42 C 160.73,167.28 160.77,167.13 160.8,166.98 C 160.83,166.82 160.84,166.67 160.85,166.52 C 160.85,166.43 160.84,166.34 160.83,166.25 C 160.82,166.19 160.81,166.14 160.79,166.09 C 156.15,165.24 151.52,164.39 147.23,163.6 C 147.22,163.6 147.21,163.6 147.2,163.6 C 147.18,163.61 147.16,163.61 147.14,163.62 C 147.11,163.63 147.09,163.65 147.06,163.67 C 147.03,163.7 147.0,163.73 146.97,163.76 C 146.94,163.8 146.91,163.84 146.88,163.89 C 146.85,163.94 146.82,163.99 146.8,164.04 C 146.75,164.15 146.72,164.27 146.7,164.39 C 146.68,164.51 146.67,164.63 146.67,164.75 C 146.67,164.81 146.68,164.87 146.69,164.93 C 146.7,164.98 146.71,165.03 146.73,165.08 C 146.74,165.12 146.76,165.16 146.78,165.19 C 146.8,165.22 146.82,165.25 146.84,165.27 C 146.85,165.28 146.87,165.29 146.88,165.3 C 146.9,165.31 146.91,165.31 146.92,165.32 C 151.21,166.1 155.84,166.95 160.47,167.8 z M 154.85,168.21 L 154.39,170.7 L 155.85,170.97 L 156.1,169.61 L 157.69,169.91 L 157.44,171.26 L 158.9,171.52 L 159.35,169.04 L 154.85,168.21 z" />
			
		<text style="font-size:10px;font-family:z_boli;stroke:none;fill:#00f;text-anchor:middle" transform="matrix(1 0 0 1 150 150)" class="txt"></text>	
			
		<cam mingh:cam="--actions=EditSelectAll;ObjectToPath;ZoomPage;ZoomCenterPage;FileVacuum;FileSave; -g" mingh:style="source:microprism">M2</cam> 
	</g>		
</svg>
