<?xml version="1.0" encoding="UTF-8" standalone="no"?>
<svg xmlns="http://www.w3.org/2000/svg" xmlns:mingh="http://www.minghworld.com" xmlns:svg="http://www.w3.org/2000/svg" xmlns:xlink="http://www.w3.org/1999/xlink" height="300px" width="300px">
   
	  <g>
		<path style="fill:none;stroke:#fb0;stroke-width:0.25px"
			d="M 145.14,163.82 C 145.16,163.82 145.17,163.82 145.18,163.82 C 145.25,163.7 145.34,163.58 145.45,163.48 C 145.51,163.43 145.57,163.38 145.64,163.34 C 145.72,163.29 145.81,163.25 145.9,163.23 C 145.98,163.2 146.07,163.19 146.16,163.18 C 146.22,163.17 146.28,163.17 146.34,163.18 C 146.44,163.19 146.54,163.21 146.64,163.24 C 146.74,163.28 146.84,163.33 146.93,163.4 C 147.01,163.46 147.1,163.54 147.18,163.63 C 147.26,163.75 147.35,163.89 147.39,164.04 C 147.41,164.04 147.42,164.04 147.44,164.04 C 147.44,163.97 147.44,163.9 147.45,163.82 C 147.45,163.75 147.46,163.68 147.47,163.61 C 147.49,163.44 147.51,163.26 147.54,163.09 C 147.57,162.92 147.6,162.76 147.63,162.59 C 147.65,162.47 147.68,162.35 147.71,162.23 C 147.76,162.01 147.82,161.79 147.89,161.57 C 148.01,161.14 148.18,160.71 148.37,160.29 C 148.54,159.91 148.74,159.53 148.97,159.18 C 147.6,158.61 146.23,158.05 144.85,157.48 C 144.68,157.92 144.5,158.35 144.31,158.79 C 144.94,159.3 145.57,159.82 146.21,160.33 C 146.31,160.41 146.32,160.48 146.26,160.6 C 146.04,161.1 145.82,161.61 145.64,162.13 C 145.44,162.68 145.26,163.25 145.14,163.82 z M 147.37,166.88 C 147.48,166.85 147.57,166.83 147.68,166.8 C 147.57,166.43 147.51,166.02 147.45,165.59 C 147.44,165.5 147.44,165.38 147.43,165.23 C 147.43,165.14 147.43,165.04 147.43,164.93 C 147.39,164.93 147.35,164.92 147.29,164.92 C 147.24,165.05 147.15,165.17 147.04,165.26 C 146.98,165.32 146.91,165.37 146.84,165.41 C 146.76,165.45 146.68,165.49 146.59,165.52 C 146.5,165.54 146.41,165.56 146.32,165.56 C 146.26,165.57 146.2,165.57 146.14,165.56 C 146.04,165.55 145.94,165.53 145.84,165.5 C 145.74,165.46 145.64,165.41 145.54,165.35 C 145.46,165.28 145.38,165.21 145.31,165.12 C 145.21,165.0 145.14,164.86 145.09,164.71 C 145.06,164.7 145.01,164.7 144.98,164.7 C 144.9,165.22 144.85,165.75 144.85,166.28 C 144.85,166.68 144.88,167.07 144.92,167.47 C 145.01,167.44 145.12,167.42 145.21,167.4 C 145.22,167.33 145.24,167.26 145.26,167.2 C 145.29,167.1 145.34,167.0 145.4,166.91 C 145.46,166.81 145.54,166.72 145.64,166.64 C 145.74,166.56 145.84,166.5 145.96,166.46 C 146.06,166.41 146.17,166.39 146.29,166.38 C 146.35,166.37 146.41,166.37 146.47,166.38 C 146.54,166.38 146.63,166.39 146.7,166.41 C 146.78,166.43 146.85,166.46 146.93,166.5 C 146.99,166.53 147.04,166.57 147.1,166.61 C 147.21,166.68 147.29,166.78 147.37,166.88 z M 148.48,169.55 C 148.62,169.42 148.76,169.29 148.89,169.15 C 148.74,168.97 148.59,168.78 148.46,168.59 C 148.26,168.3 148.1,167.98 147.96,167.65 C 147.84,167.68 147.71,167.71 147.57,167.74 C 147.57,167.81 147.54,167.88 147.53,167.94 C 147.5,168.04 147.45,168.14 147.4,168.22 C 147.32,168.33 147.25,168.42 147.15,168.5 C 147.06,168.57 146.95,168.64 146.84,168.68 C 146.73,168.72 146.62,168.75 146.5,168.76 C 146.44,168.77 146.38,168.77 146.32,168.76 C 146.24,168.76 146.17,168.74 146.09,168.72 C 146.01,168.7 145.94,168.67 145.85,168.64 C 145.79,168.61 145.74,168.57 145.68,168.53 C 145.57,168.45 145.49,168.36 145.42,168.26 C 145.29,168.29 145.18,168.32 145.07,168.35 C 145.09,168.46 145.12,168.58 145.14,168.69 C 145.22,168.99 145.31,169.29 145.42,169.58 C 145.53,169.87 145.66,170.15 145.79,170.42 C 145.94,170.69 146.1,170.96 146.28,171.21 C 146.35,171.3 146.42,171.39 146.49,171.48 C 146.62,171.36 146.76,171.23 146.89,171.1 C 146.84,170.99 146.81,170.88 146.79,170.76 C 146.79,170.65 146.79,170.54 146.82,170.43 C 146.84,170.31 146.88,170.2 146.93,170.1 C 146.99,169.99 147.06,169.89 147.15,169.8 C 147.23,169.71 147.32,169.64 147.44,169.58 C 147.54,169.53 147.66,169.49 147.76,169.47 C 147.82,169.46 147.88,169.45 147.94,169.45 C 148.0,169.45 148.04,169.45 148.1,169.46 C 148.24,169.47 148.35,169.5 148.48,169.55 M 156.91,172.13 C 156.78,172.0 156.64,171.87 156.51,171.74 C 156.39,171.79 156.26,171.82 156.14,171.84 C 156.03,171.85 155.91,171.84 155.79,171.82 C 155.68,171.8 155.57,171.76 155.47,171.71 C 155.35,171.65 155.26,171.58 155.17,171.49 C 155.09,171.4 155.01,171.3 154.96,171.2 C 154.9,171.09 154.85,170.98 154.84,170.86 C 154.82,170.81 154.82,170.75 154.82,170.7 C 154.82,170.64 154.82,170.59 154.82,170.53 C 154.84,170.42 154.87,170.3 154.91,170.19 C 154.76,170.05 154.62,169.91 154.48,169.77 C 153.76,170.33 152.9,170.63 152.0,170.63 C 151.1,170.63 150.24,170.33 149.53,169.77 C 149.39,169.91 149.24,170.05 149.1,170.19 C 149.14,170.3 149.17,170.42 149.18,170.53 C 149.19,170.64 149.19,170.76 149.17,170.86 C 149.15,170.98 149.1,171.09 149.04,171.2 C 149.0,171.3 148.92,171.4 148.84,171.49 C 148.75,171.58 148.65,171.65 148.54,171.71 C 148.44,171.76 148.32,171.8 148.21,171.82 C 148.16,171.83 148.1,171.84 148.04,171.84 C 147.99,171.84 147.93,171.84 147.87,171.84 C 147.75,171.82 147.62,171.79 147.5,171.74 C 147.37,171.87 147.23,172.0 147.1,172.13 C 147.38,172.4 147.69,172.64 148.01,172.85 C 148.39,173.1 148.79,173.31 149.21,173.48 C 149.43,173.57 149.65,173.65 149.88,173.72 C 150.1,173.79 150.34,173.85 150.57,173.9 C 151.04,173.99 151.53,174.04 152.0,174.04 C 152.48,174.04 152.96,173.99 153.43,173.9 C 153.9,173.8 154.35,173.66 154.79,173.48 C 155.01,173.39 155.24,173.29 155.45,173.17 C 155.63,173.08 155.82,172.97 155.99,172.85 C 156.32,172.64 156.63,172.4 156.91,172.13 z M 158.94,168.35 C 158.82,168.32 158.71,168.29 158.59,168.26 C 158.51,168.36 158.43,168.45 158.32,168.53 C 158.26,168.57 158.21,168.61 158.15,168.64 C 158.07,168.67 158.0,168.7 157.92,168.72 C 157.84,168.74 157.76,168.76 157.69,168.76 C 157.63,168.77 157.57,168.77 157.51,168.76 C 157.39,168.75 157.28,168.72 157.17,168.68 C 157.06,168.64 156.95,168.57 156.85,168.5 C 156.76,168.42 156.68,168.33 156.6,168.22 C 156.51,168.08 156.45,167.91 156.43,167.74 C 156.29,167.71 156.17,167.68 156.04,167.65 C 155.9,167.98 155.74,168.3 155.54,168.59 C 155.42,168.78 155.26,168.97 155.12,169.15 C 155.25,169.29 155.39,169.42 155.53,169.55 C 155.65,169.5 155.76,169.47 155.9,169.46 C 156.01,169.44 156.12,169.45 156.24,169.47 C 156.35,169.49 156.46,169.53 156.57,169.58 C 156.68,169.64 156.78,169.71 156.85,169.8 C 156.95,169.89 157.01,169.99 157.07,170.1 C 157.13,170.2 157.17,170.31 157.19,170.43 C 157.2,170.48 157.21,170.54 157.21,170.59 C 157.22,170.65 157.21,170.7 157.21,170.76 C 157.2,170.88 157.17,170.99 157.12,171.1 C 157.25,171.23 157.39,171.36 157.51,171.48 C 157.59,171.39 157.66,171.3 157.73,171.21 C 157.91,170.96 158.07,170.69 158.21,170.42 C 158.35,170.15 158.48,169.87 158.59,169.58 C 158.7,169.29 158.79,168.99 158.87,168.69 C 158.89,168.58 158.92,168.46 158.94,168.35 z M 158.79,167.4 C 158.89,167.42 158.99,167.44 159.09,167.47 C 159.13,167.07 159.15,166.68 159.15,166.28 C 159.15,165.75 159.1,165.22 159.03,164.7 C 158.99,164.7 158.95,164.7 158.92,164.71 C 158.87,164.86 158.79,165.0 158.7,165.12 C 158.63,165.21 158.54,165.28 158.46,165.35 C 158.37,165.41 158.26,165.46 158.17,165.5 C 158.07,165.53 157.97,165.55 157.87,165.56 C 157.81,165.57 157.74,165.57 157.68,165.56 C 157.6,165.56 157.51,165.54 157.42,165.52 C 157.32,165.49 157.25,165.45 157.17,165.41 C 157.1,165.37 157.03,165.32 156.97,165.26 C 156.85,165.17 156.76,165.05 156.71,164.92 C 156.66,164.92 156.62,164.93 156.57,164.93 C 156.57,165.04 156.57,165.14 156.57,165.23 C 156.57,165.38 156.57,165.5 156.56,165.59 C 156.5,166.02 156.43,166.43 156.32,166.8 C 156.43,166.83 156.53,166.85 156.64,166.88 C 156.71,166.78 156.79,166.68 156.9,166.61 C 156.96,166.57 157.01,166.53 157.07,166.5 C 157.15,166.46 157.23,166.43 157.31,166.41 C 157.38,166.39 157.46,166.38 157.54,166.38 C 157.6,166.37 157.66,166.37 157.72,166.38 C 157.82,166.39 157.95,166.41 158.04,166.46 C 158.17,166.5 158.26,166.56 158.37,166.64 C 158.46,166.72 158.54,166.81 158.6,166.91 C 158.71,167.06 158.76,167.23 158.79,167.4 z M 156.57,164.04 C 156.59,164.04 156.6,164.04 156.62,164.04 C 156.66,163.89 156.74,163.75 156.82,163.63 C 156.9,163.54 156.99,163.46 157.07,163.4 C 157.17,163.33 157.26,163.28 157.37,163.24 C 157.47,163.21 157.57,163.19 157.67,163.18 C 157.73,163.17 157.79,163.17 157.85,163.18 C 157.94,163.19 158.03,163.2 158.1,163.23 C 158.2,163.25 158.29,163.29 158.37,163.34 C 158.44,163.38 158.5,163.43 158.56,163.48 C 158.67,163.58 158.76,163.69 158.82,163.82 C 158.84,163.82 158.85,163.82 158.87,163.82 C 158.74,163.25 158.57,162.68 158.37,162.13 C 158.18,161.61 157.97,161.1 157.74,160.6 C 157.69,160.48 157.7,160.41 157.79,160.33 C 158.43,159.82 159.07,159.3 159.7,158.79 C 159.51,158.35 159.32,157.92 159.15,157.48 C 157.78,158.05 156.41,158.61 155.04,159.18 C 155.26,159.53 155.47,159.91 155.64,160.29 C 155.82,160.71 155.99,161.14 156.12,161.57 C 156.19,161.79 156.25,162.01 156.29,162.23 C 156.32,162.35 156.35,162.47 156.38,162.59 C 156.41,162.76 156.44,162.92 156.47,163.09 C 156.49,163.26 156.51,163.44 156.54,163.61 C 156.54,163.68 156.56,163.75 156.56,163.82 C 156.57,163.9 156.57,163.97 156.57,164.04 z M 180.35,150.0 C 180.35,157.53 177.37,164.72 172.05,170.04 C 166.73,175.37 159.53,178.35 152.01,178.35 C 144.48,178.35 137.29,175.37 131.96,170.04 C 126.64,164.72 123.66,157.53 123.66,150.0 C 123.66,142.47 126.64,135.28 131.96,129.96 C 137.28,124.63 144.48,121.65 152.01,121.65 C 159.53,121.65 166.72,124.63 172.05,129.96 C 177.37,135.28 180.35,142.47 180.35,150.0 z M 127.22,148.22 C 127.0,148.22 126.76,148.28 126.53,148.38 C 126.3,148.48 126.11,148.59 125.94,148.75 C 125.78,148.91 125.66,149.11 125.56,149.34 C 125.47,149.56 125.44,149.77 125.44,150.0 C 125.44,150.23 125.47,150.47 125.56,150.69 C 125.65,150.92 125.8,151.09 125.94,151.25 C 126.11,151.42 126.31,151.54 126.53,151.63 C 126.74,151.72 126.95,151.78 127.19,151.78 C 127.43,151.78 127.7,151.74 127.92,151.66 C 128.14,151.58 128.32,151.46 128.47,151.28 C 128.63,151.12 128.76,150.92 128.84,150.69 C 128.95,150.47 128.99,150.25 129.0,150.03 C 129.0,149.8 128.95,149.56 128.84,149.34 C 128.76,149.11 128.64,148.91 128.47,148.75 C 128.32,148.59 128.14,148.48 127.92,148.38 C 127.69,148.28 127.44,148.22 127.22,148.22 z M 176.79,148.22 C 176.57,148.22 176.32,148.28 176.09,148.38 C 175.87,148.48 175.68,148.59 175.54,148.75 C 175.37,148.91 175.25,149.11 175.17,149.34 C 175.06,149.56 175.01,149.8 175.01,150.03 C 175.02,150.25 175.06,150.47 175.17,150.69 C 175.25,150.92 175.38,151.12 175.54,151.28 C 175.69,151.46 175.87,151.58 176.09,151.66 C 176.31,151.74 176.58,151.78 176.82,151.78 C 177.06,151.78 177.27,151.72 177.48,151.63 C 177.7,151.54 177.9,151.42 178.07,151.25 C 178.21,151.09 178.36,150.92 178.45,150.69 C 178.54,150.47 178.57,150.23 178.57,150.0 C 178.57,149.77 178.54,149.56 178.45,149.34 C 178.35,149.11 178.23,148.91 178.07,148.75 C 177.9,148.59 177.71,148.48 177.48,148.38 C 177.25,148.28 177.01,148.22 176.79,148.22 z" />
		
		<text style="font-size:10px;font-family:z_boli;stroke:none;fill:#00f;text-anchor:middle" transform="matrix(1 0 0 1 150 150)" class="txt"></text>	
			
		<cam mingh:cam="--actions=EditSelectAll;ObjectToPath;ZoomPage;ZoomCenterPage;FileVacuum;FileSave; -g" mingh:style="source:microprism">M2</cam> 
	  </g>
</svg>
