<?xml version="1.0" encoding="UTF-8" standalone="no"?>

<svg xmlns="http://www.w3.org/2000/svg" xmlns:mingh="http://www.minghworld.com" xmlns:svg="http://www.w3.org/2000/svg" xmlns:xlink="http://www.w3.org/1999/xlink" height="300px" width="300px">

  <g>
    <path style="fill:none;stroke:#fb0;stroke-width:0.25px"
		d="M 153.82,158.93 C 153.91,158.97 154.01,158.89 154.01,158.79 C 154.0,158.69 153.87,158.64 153.79,158.61 C 153.63,158.52 153.46,158.43 153.28,158.35 C 152.92,158.19 152.54,158.06 152.17,157.95 C 151.4,157.74 150.65,157.65 149.85,157.66 C 148.4,157.69 146.99,158.1 145.76,158.86 C 143.13,160.48 141.66,163.45 141.95,166.52 C 142.25,169.58 144.25,172.21 147.13,173.31 C 150.01,174.4 153.25,173.77 155.51,171.68 C 156.64,170.62 157.45,169.27 157.82,167.78 C 157.93,167.4 158.0,167.02 158.04,166.63 C 158.06,166.53 158.06,166.43 158.07,166.34 C 158.07,166.29 158.07,166.25 158.04,166.2 C 158.0,166.16 157.97,166.15 157.91,166.16 C 157.79,166.18 157.79,166.29 157.76,166.38 C 157.74,166.47 157.72,166.55 157.69,166.64 C 157.47,167.32 157.16,167.92 156.73,168.49 C 154.82,170.98 151.34,171.64 148.65,170.02 C 145.96,168.39 144.93,165.0 146.26,162.15 C 147.6,159.31 150.84,157.92 153.82,158.93 z M 152.23,164.28 C 152.28,164.3 152.32,164.33 152.35,164.38 C 152.39,164.43 152.4,164.48 152.4,164.54 C 152.39,164.73 152.38,164.91 152.38,165.1 C 152.37,165.29 152.37,165.48 152.35,165.67 C 152.35,165.86 152.35,166.05 152.34,166.27 C 152.32,166.49 152.32,166.74 152.35,166.82 C 152.43,166.78 152.6,166.59 152.74,166.43 C 152.89,166.26 153.01,166.12 153.14,165.98 C 153.26,165.84 153.39,165.7 153.51,165.56 C 153.64,165.41 153.76,165.27 153.89,165.13 C 153.92,165.09 153.97,165.05 154.01,165.04 C 154.07,165.03 154.13,165.03 154.18,165.06 C 154.35,165.12 154.54,165.18 154.72,165.25 C 154.9,165.31 155.07,165.38 155.25,165.44 C 155.43,165.5 155.6,165.57 155.81,165.64 C 156.01,165.72 156.26,165.81 156.34,165.8 C 156.32,165.72 156.2,165.5 156.09,165.31 C 155.98,165.12 155.88,164.96 155.79,164.8 C 155.69,164.63 155.59,164.47 155.5,164.31 C 155.4,164.15 155.31,163.98 155.21,163.82 C 155.18,163.77 155.16,163.72 155.17,163.66 C 155.17,163.61 155.19,163.56 155.23,163.51 C 155.35,163.37 155.46,163.22 155.57,163.07 C 155.69,162.92 155.81,162.77 155.93,162.62 C 156.04,162.47 156.16,162.32 156.29,162.15 C 156.43,161.97 156.59,161.78 156.6,161.69 C 156.51,161.68 156.28,161.73 156.06,161.78 C 155.85,161.83 155.66,161.87 155.48,161.91 C 155.29,161.95 155.1,161.99 154.93,162.03 C 154.74,162.08 154.56,162.12 154.37,162.16 C 154.32,162.17 154.26,162.17 154.21,162.15 C 154.16,162.13 154.12,162.09 154.09,162.04 C 153.98,161.89 153.88,161.73 153.76,161.57 C 153.66,161.42 153.56,161.26 153.45,161.11 C 153.34,160.95 153.24,160.79 153.12,160.61 C 152.99,160.43 152.85,160.22 152.78,160.17 C 152.74,160.25 152.72,160.5 152.7,160.72 C 152.68,160.94 152.66,161.12 152.64,161.31 C 152.62,161.5 152.6,161.69 152.59,161.88 C 152.57,162.07 152.54,162.25 152.53,162.44 C 152.53,162.5 152.51,162.55 152.47,162.59 C 152.44,162.63 152.39,162.66 152.34,162.68 C 152.15,162.73 151.97,162.78 151.79,162.83 C 151.6,162.89 151.43,162.94 151.25,162.99 C 151.06,163.04 150.88,163.1 150.67,163.16 C 150.46,163.22 150.22,163.28 150.15,163.34 C 150.21,163.4 150.44,163.5 150.64,163.59 C 150.85,163.67 151.01,163.75 151.19,163.83 C 151.37,163.9 151.54,163.98 151.71,164.05 C 151.89,164.13 152.06,164.2 152.23,164.28 z M 178.35,150.0 C 178.35,157.53 175.37,164.72 170.05,170.04 C 164.73,175.37 157.53,178.35 150.01,178.35 C 142.48,178.35 135.29,175.37 129.96,170.04 C 124.64,164.72 121.66,157.53 121.66,150.0 C 121.66,142.47 124.64,135.28 129.96,129.96 C 135.28,124.63 142.48,121.65 150.01,121.65 C 157.53,121.65 164.72,124.63 170.05,129.96 C 175.37,135.28 178.35,142.47 178.35,150.0 z M 126.54,145.06 C 125.83,145.06 125.23,145.32 124.68,145.84 C 124.16,146.37 123.9,147.0 123.9,147.72 C 123.9,149.24 123.9,150.76 123.9,152.28 C 123.9,153.0 124.16,153.63 124.68,154.16 C 125.23,154.68 125.83,154.94 126.54,154.94 C 127.23,154.94 127.87,154.68 128.41,154.16 C 128.94,153.63 129.19,153.0 129.19,152.28 C 129.19,150.76 129.19,149.24 129.19,147.72 C 129.19,147.0 128.94,146.37 128.41,145.84 C 127.87,145.32 127.23,145.06 126.54,145.06 z M 173.47,145.06 C 172.78,145.06 172.14,145.32 171.6,145.84 C 171.07,146.37 170.82,147.0 170.82,147.72 C 170.82,149.24 170.82,150.76 170.82,152.28 C 170.82,153.0 171.07,153.63 171.6,154.16 C 172.14,154.68 172.78,154.94 173.47,154.94 C 174.18,154.94 174.78,154.68 175.33,154.16 C 175.85,153.63 176.11,153.0 176.11,152.28 C 176.11,150.76 176.11,149.24 176.11,147.72 C 176.11,147.0 175.85,146.37 175.33,145.84 C 174.78,145.32 174.18,145.06 173.47,145.06 z" />
		
		<text style="font-size:10px;font-family:z_boli;stroke:none;fill:#00f;text-anchor:middle" transform="matrix(1 0 0 1 150 150)" class="txt"></text>	
			
		<cam mingh:cam="--actions=EditSelectAll;ObjectToPath;ZoomPage;ZoomCenterPage;FileVacuum;FileSave; -g" mingh:style="source:microprism">M2</cam> 
  </g>
</svg>
