<?xml version="1.0" encoding="UTF-8" standalone="no"?>

<svg xmlns="http://www.w3.org/2000/svg" xmlns:mingh="http://www.minghworld.com" xmlns:svg="http://www.w3.org/2000/svg" xmlns:xlink="http://www.w3.org/1999/xlink" height="300px" width="300px">

	  <g>
		<path  style="fill:none;stroke:#fb0;stroke-width:0.25px"
			d="M 148.75,121.66 C 142.41,121.86 135.1,124.83 129.97,129.97 124.49,135.45 121.48,143.39 121.66,150.0 121.48,156.61 124.49,164.55 129.97,170.03 135.45,175.51 143.39,178.52 150.0,178.34 156.61,178.52 164.55,175.51 170.03,170.03 175.51,164.55 178.52,156.61 178.34,150.0 178.52,143.39 175.51,135.45 170.03,129.97 164.55,124.49 156.61,121.48 150.0,121.66 149.59,121.65 149.17,121.64 148.75,121.66 z M 126.53,145.06 C 127.22,145.06 127.87,145.32 128.41,145.84 128.94,146.37 129.19,147.0 129.19,147.72 L 129.19,152.28 C 129.19,153.0 128.94,153.63 128.41,154.16 127.87,154.68 127.22,154.94 126.53,154.94 125.82,154.94 125.24,154.68 124.69,154.16 124.17,153.63 123.91,153.0 123.91,152.28 L 123.91,147.72 C 123.91,147.0 124.17,146.37 124.69,145.84 125.24,145.32 125.82,145.06 126.53,145.06 z M 173.47,145.06 C 174.18,145.06 174.79,145.32 175.34,145.84 175.86,146.37 176.13,147.0 176.13,147.72 L 176.13,152.28 C 176.13,153.0 175.86,153.63 175.34,154.16 174.79,154.68 174.18,154.94 173.47,154.94 172.78,154.94 172.13,154.68 171.59,154.16 171.06,153.63 170.81,153.0 170.81,152.28 L 170.81,147.72 C 170.81,147.0 171.06,146.37 171.59,145.84 172.13,145.32 172.78,145.06 173.47,145.06 z M 150.13,157.25 C 150.76,157.27 151.64,158.55 151.72,158.94 151.78,159.22 151.5,159.53 151.28,159.72 150.91,160.04 150.68,160.29 150.19,160.31 149.87,160.32 149.65,160.04 149.41,159.88 149.09,159.6 148.77,159.29 148.59,158.91 148.49,158.52 148.75,158.14 149.03,157.91 149.36,157.63 149.7,157.3 150.13,157.25 z M 153.63,159.81 C 154.01,159.86 154.27,160.2 154.53,160.47 154.8,160.84 155.29,161.3 155.0,161.78 154.77,162.05 154.41,162.22 154.09,162.38 153.01,162.94 151.98,163.15 150.88,163.25 149.68,163.35 148.44,162.99 147.53,162.22 146.96,161.74 146.57,161.06 146.28,160.38 146.15,160.06 146.38,159.71 146.66,160.03 147.1,160.54 147.61,161.02 148.25,161.28 149.5,161.79 150.92,161.57 152.06,160.91 152.54,160.63 152.9,160.18 153.38,159.91 153.45,159.86 153.54,159.8 153.63,159.81 z M 145.59,163.22 C 146.23,163.23 146.82,163.38 147.38,163.75 148.32,164.4 148.98,165.54 148.69,166.69 148.5,167.45 147.94,168.01 147.41,168.53 148.1,169.07 149.26,169.44 149.94,168.69 150.81,167.73 150.88,166.28 151.88,165.41 153.13,164.18 155.34,164.21 156.56,165.47 157.95,166.84 158.17,168.96 157.97,170.81 157.75,172.52 156.9,174.35 155.22,175.03 153.82,175.6 152.07,175.01 151.38,173.59 151.06,172.96 151.56,172.16 152.22,172.53 152.83,172.82 153.54,172.87 154.19,172.66 155.42,172.4 156.25,171.27 156.53,170.09 156.77,169.15 156.94,168.11 156.47,167.22 156.01,166.36 154.66,166.2 154.0,166.84 153.65,167.19 153.37,167.62 153.13,168.06 152.67,168.91 152.21,169.92 151.16,170.13 150.45,170.27 149.76,169.98 149.13,169.72 149.09,169.7 149.03,169.72 149.0,169.75 148.98,169.78 148.98,169.84 149.0,169.88 149.77,170.89 149.68,172.4 148.97,173.41 148.63,173.88 148.17,174.27 147.69,174.59 146.39,175.47 144.65,175.28 143.28,174.66 141.89,174.07 140.96,172.77 140.41,171.41 140.18,170.87 140.07,170.33 139.94,169.84 139.87,169.59 140.01,169.51 140.19,169.66 141.2,170.66 141.88,172.05 143.28,172.59 144.47,173.05 145.93,173.3 147.09,172.66 147.86,172.27 148.18,171.25 147.69,170.53 147.19,169.63 146.1,169.69 145.22,169.75 145.01,169.11 144.66,168.52 144.59,167.84 144.77,167.46 145.26,167.61 145.59,167.59 146.08,167.57 146.61,167.74 147.06,167.53 147.34,167.41 147.52,167.16 147.53,166.88 147.54,166.6 147.37,166.38 147.13,166.19 146.51,165.71 145.74,165.9 145.09,166.13 144.41,166.3 143.85,166.76 143.22,167.06 142.79,166.9 142.47,166.45 142.25,166.09 142.03,165.74 141.9,165.38 141.88,165.0 142.04,164.67 142.37,164.45 142.66,164.22 143.44,163.58 144.53,163.19 145.59,163.22 z"/>
			
			<text style="font-size:10px;font-family:z_boli;stroke:none;fill:#00f;text-anchor:middle" transform="matrix(1 0 0 1 150 150)" class="txt"></text>	
			
			<cam mingh:cam="--actions=EditSelectAll;ObjectToPath;ZoomPage;ZoomCenterPage;FileVacuum;FileSave; -g" mingh:style="source:microprism">M2</cam>
	  </g>
</svg>
