<?xml version="1.0" encoding="UTF-8" standalone="no"?>

<svg
   xmlns:xlink="http://www.w3.org/1999/xlink"
   xmlns:svg="http://www.w3.org/2000/svg"
   xmlns="http://www.w3.org/2000/svg"
   xmlns:mingh="http://www.minghworld.com"
   width="300px"
   height="300px" >
	<g>
		<path style="fill:none;stroke:#fb0;stroke-width:0.25"
			d="M 153.16,126.88 C 153.16,125.13 151.75,123.71 150.0,123.71 C 148.24,123.71 146.83,125.13 146.83,126.88 C 146.83,128.63 148.24,130.05 150.0,130.05 C 151.75,130.05 153.16,128.63 153.16,126.88 z M 178.35,150.0 C 178.35,157.53 175.37,164.72 170.04,170.04 C 164.72,175.37 157.53,178.35 150.0,178.35 C 142.47,178.35 135.28,175.37 129.96,170.04 C 124.63,164.72 121.65,157.53 121.65,150.0 C 121.65,142.47 124.63,135.28 129.96,129.96 C 135.28,124.63 142.47,121.65 150.0,121.65 C 157.53,121.65 164.72,124.63 170.04,129.96 C 175.37,135.28 178.35,142.47 178.35,150.0 z M 152.77,172.02 C 152.77,172.01 152.78,172.0 152.79,171.99 C 152.79,171.98 152.8,171.98 152.8,171.97 C 152.79,171.95 152.79,171.93 152.78,171.92 C 152.78,171.88 152.78,171.85 152.78,171.81 C 152.8,171.73 152.83,171.68 152.88,171.62 C 153.0,171.51 153.12,171.47 153.27,171.45 C 153.29,171.44 153.36,171.44 153.37,171.42 C 153.4,171.39 153.41,171.36 153.42,171.33 C 153.44,171.25 153.44,171.18 153.44,171.11 C 153.44,171.04 153.44,170.97 153.4,170.9 C 153.37,170.83 153.33,170.77 153.31,170.7 C 153.28,170.55 153.33,170.41 153.43,170.3 C 153.55,170.16 153.64,170.16 153.79,170.07 C 153.83,170.05 153.84,170.02 153.86,169.99 C 153.87,169.96 153.89,169.92 153.9,169.89 C 153.93,169.82 153.97,169.77 154.03,169.72 C 154.09,169.67 154.16,169.65 154.23,169.64 C 154.25,169.63 154.42,169.61 154.44,169.6 C 154.53,169.57 154.68,169.35 154.73,169.28 C 154.79,169.2 154.8,169.2 154.78,169.09 C 154.76,169.02 154.75,168.95 154.75,168.87 C 154.74,168.8 154.75,168.73 154.76,168.66 C 154.77,168.58 154.79,168.51 154.78,168.44 C 154.78,168.33 154.63,168.14 154.59,168.06 C 154.52,167.92 154.5,167.79 154.53,167.64 C 154.54,167.6 154.55,167.57 154.56,167.53 C 154.57,167.52 154.58,167.5 154.56,167.49 C 154.55,167.47 154.54,167.46 154.53,167.45 C 154.48,167.38 154.46,167.32 154.46,167.24 C 154.44,167.11 154.47,166.94 154.54,166.82 C 154.57,166.76 154.61,166.7 154.66,166.65 C 154.73,166.56 154.74,166.57 154.75,166.46 C 154.77,166.28 154.86,166.21 155.01,166.14 C 155.03,166.13 155.04,166.12 155.06,166.11 C 155.07,166.11 155.09,166.1 155.11,166.09 C 155.12,166.08 155.13,166.06 155.13,166.04 C 155.14,166.03 155.15,166.01 155.15,165.99 C 155.18,165.92 155.2,165.86 155.24,165.8 C 155.32,165.67 155.43,165.58 155.55,165.49 C 155.67,165.41 155.79,165.33 155.89,165.23 C 156.0,165.12 156.37,164.7 156.47,164.58 C 156.58,164.45 156.63,164.38 156.67,164.21 C 156.7,164.06 156.74,163.93 156.81,163.8 C 156.87,163.67 156.96,163.55 157.02,163.42 C 157.08,163.28 157.06,163.13 157.08,162.99 C 157.08,162.99 157.09,162.98 157.08,162.98 C 157.07,162.98 157.07,162.98 157.07,162.99 C 157.06,162.99 157.05,162.99 157.04,163.0 C 157.02,163.0 157.01,163.01 156.99,163.02 C 156.96,163.03 156.92,163.04 156.89,163.05 C 156.82,163.07 156.75,163.08 156.67,163.08 C 156.6,163.09 156.53,163.11 156.47,163.15 C 156.41,163.19 156.35,163.22 156.28,163.25 C 156.04,163.36 155.67,163.39 155.46,163.18 C 155.41,163.13 155.38,163.07 155.35,163.0 C 155.34,162.96 155.34,162.93 155.34,162.89 C 155.34,162.87 155.34,162.85 155.34,162.84 C 155.34,162.83 155.34,162.82 155.34,162.81 C 155.35,162.81 155.36,162.79 155.35,162.78 C 155.17,162.68 155.17,162.64 155.02,162.5 C 154.97,162.45 154.9,162.43 154.84,162.39 C 154.77,162.36 154.71,162.32 154.65,162.28 C 154.53,162.19 154.45,162.08 154.39,161.94 C 154.34,161.84 154.3,161.65 154.2,161.55 C 154.15,161.5 154.08,161.48 154.02,161.44 C 153.96,161.4 153.9,161.36 153.86,161.3 C 153.78,161.16 153.79,161.02 153.79,160.88 C 153.78,160.82 153.79,160.72 153.74,160.67 C 153.68,160.62 153.62,160.58 153.57,160.53 C 153.46,160.42 153.42,160.29 153.37,160.15 C 153.35,160.08 153.32,160.02 153.29,159.95 C 153.26,159.89 153.22,159.83 153.18,159.77 C 153.09,159.65 152.96,159.58 152.89,159.45 C 152.81,159.3 152.84,159.16 152.94,159.05 C 152.98,159.0 153.05,158.93 153.05,158.86 C 153.05,158.82 153.04,158.79 153.03,158.76 C 153.02,158.74 153.01,158.72 153.01,158.71 C 153.0,158.7 153.0,158.69 153.0,158.68 C 152.99,158.68 152.99,158.67 152.99,158.67 C 152.99,158.66 152.98,158.67 152.98,158.67 C 152.82,158.72 152.7,158.69 152.56,158.6 C 152.53,158.58 152.5,158.56 152.47,158.54 C 152.45,158.53 152.44,158.55 152.43,158.56 C 152.41,158.57 152.4,158.58 152.38,158.59 C 152.32,158.63 152.26,158.67 152.19,158.69 C 152.04,158.74 151.91,158.72 151.76,158.69 C 151.62,158.65 151.49,158.6 151.34,158.58 C 151.2,158.56 151.06,158.59 150.91,158.57 C 150.71,158.54 150.69,158.48 150.52,158.4 C 150.49,158.38 150.45,158.37 150.42,158.36 C 150.41,158.36 150.4,158.36 150.39,158.36 C 150.38,158.36 150.38,158.37 150.38,158.38 C 150.39,158.39 150.39,158.41 150.39,158.43 C 150.4,158.5 150.4,158.57 150.37,158.64 C 150.31,158.78 150.18,158.88 150.04,158.89 C 149.87,158.91 149.76,158.83 149.64,158.75 C 149.57,158.7 149.5,158.72 149.43,158.72 C 149.36,158.72 149.29,158.72 149.22,158.7 C 149.05,158.64 149.01,158.52 148.96,158.37 C 148.95,158.33 148.96,158.31 148.89,158.31 C 148.86,158.31 148.82,158.32 148.79,158.33 C 148.72,158.35 148.65,158.36 148.57,158.35 C 148.41,158.33 148.33,158.22 148.22,158.12 C 148.11,158.02 147.97,157.97 147.97,157.79 C 147.97,157.71 147.99,157.65 148.04,157.59 C 148.07,157.56 148.09,157.54 148.12,157.51 C 148.14,157.5 148.12,157.48 148.12,157.46 C 148.12,157.45 148.11,157.43 148.11,157.41 C 148.11,157.39 148.11,157.37 148.11,157.36 C 148.11,157.35 148.11,157.34 148.11,157.33 C 148.11,157.32 148.11,157.32 148.11,157.31 C 148.12,157.31 148.11,157.31 148.1,157.31 C 148.07,157.31 148.03,157.3 147.99,157.3 C 147.92,157.3 147.85,157.3 147.78,157.32 C 147.64,157.35 147.5,157.39 147.35,157.4 C 147.21,157.4 147.07,157.38 146.92,157.38 C 146.77,157.38 146.64,157.4 146.5,157.45 C 146.18,157.55 146.01,157.67 145.66,157.64 C 145.51,157.63 145.38,157.59 145.24,157.55 C 145.2,157.54 145.17,157.53 145.13,157.52 C 145.11,157.51 145.08,157.59 145.07,157.6 C 145.03,157.66 145.0,157.73 144.95,157.78 C 144.85,157.91 144.72,157.95 144.58,157.98 C 144.48,158.0 144.46,158.01 144.41,158.1 C 144.38,158.17 144.36,158.24 144.34,158.31 C 144.31,158.45 144.29,158.59 144.19,158.71 C 144.09,158.83 143.96,158.88 143.82,158.92 C 143.75,158.95 143.68,158.96 143.61,158.98 C 143.58,158.99 143.54,159.0 143.51,159.02 C 143.47,159.04 143.47,159.08 143.45,159.11 C 143.4,159.25 143.35,159.37 143.2,159.45 C 143.17,159.47 143.14,159.48 143.1,159.49 C 143.1,159.5 143.06,159.51 143.06,159.52 C 143.05,159.54 143.05,159.55 143.04,159.57 C 143.02,159.64 143.01,159.71 142.98,159.78 C 142.91,159.92 142.81,160.01 142.69,160.1 C 142.63,160.14 142.57,160.18 142.52,160.23 C 142.45,160.31 142.45,160.33 142.46,160.43 C 142.47,160.62 142.5,160.67 142.45,160.86 C 142.43,160.96 142.43,160.97 142.45,161.07 C 142.47,161.14 142.48,161.21 142.47,161.29 C 142.47,161.36 142.45,161.43 142.41,161.49 C 142.38,161.56 142.33,161.61 142.32,161.69 C 142.3,161.85 142.29,161.95 142.15,162.07 C 142.15,162.08 142.14,162.08 142.13,162.09 C 142.13,162.09 142.11,162.09 142.12,162.11 C 142.12,162.12 142.13,162.14 142.14,162.15 C 142.16,162.19 142.17,162.22 142.19,162.25 C 142.21,162.33 142.21,162.39 142.2,162.47 C 142.19,162.5 142.18,162.54 142.17,162.57 C 142.17,162.58 142.2,162.6 142.21,162.61 C 142.22,162.62 142.24,162.63 142.25,162.64 C 142.31,162.69 142.36,162.73 142.4,162.8 C 142.44,162.86 142.47,162.92 142.5,162.99 C 142.53,163.06 142.59,163.1 142.65,163.14 C 142.77,163.24 142.85,163.33 142.88,163.49 C 142.89,163.57 142.88,163.64 142.89,163.71 C 142.89,163.77 142.9,163.76 142.95,163.79 C 142.98,163.81 143.01,163.82 143.04,163.84 C 143.18,163.89 143.3,163.96 143.42,164.05 C 143.54,164.14 143.62,164.25 143.71,164.36 C 143.74,164.39 143.76,164.42 143.79,164.44 C 143.8,164.45 143.82,164.47 143.83,164.48 C 143.84,164.48 143.87,164.5 143.88,164.5 C 143.94,164.46 143.99,164.41 144.05,164.37 C 144.18,164.29 144.31,164.25 144.46,164.24 C 144.61,164.23 144.74,164.26 144.88,164.31 C 145.05,164.37 145.12,164.41 145.3,164.34 C 145.44,164.29 145.56,164.21 145.69,164.15 C 145.82,164.09 145.96,164.05 146.11,164.03 C 146.34,164.01 146.74,164.03 146.91,164.25 C 146.96,164.3 146.99,164.37 147.01,164.44 C 147.01,164.46 147.02,164.47 147.02,164.49 C 147.02,164.5 147.02,164.51 147.02,164.52 C 147.03,164.53 147.04,164.53 147.04,164.53 C 147.08,164.52 147.12,164.52 147.15,164.51 C 147.29,164.48 147.43,164.44 147.58,164.47 C 147.74,164.5 147.83,164.59 147.93,164.7 C 148.03,164.82 148.11,164.92 148.13,165.08 C 148.15,165.27 148.07,165.34 148.03,165.5 C 148.01,165.57 148.01,165.64 148.0,165.71 C 147.98,165.79 147.96,165.85 147.93,165.92 C 147.91,165.95 147.89,165.98 147.87,166.01 C 147.86,166.02 147.87,166.02 147.87,166.03 C 147.88,166.04 147.88,166.04 147.89,166.05 C 147.9,166.06 147.91,166.08 147.93,166.09 C 147.97,166.14 148.02,166.2 148.07,166.25 C 148.16,166.37 148.24,166.49 148.34,166.59 C 148.44,166.7 148.56,166.78 148.63,166.91 C 148.66,166.98 148.68,167.04 148.68,167.12 C 148.68,167.14 148.68,167.16 148.68,167.17 C 148.68,167.19 148.68,167.19 148.69,167.19 C 148.7,167.2 148.71,167.2 148.71,167.21 C 148.74,167.23 148.77,167.25 148.79,167.28 C 148.9,167.4 148.93,167.53 148.95,167.68 C 148.97,167.75 148.97,167.82 148.95,167.89 C 148.94,167.93 148.93,167.96 148.91,167.99 C 148.91,168.0 148.89,168.01 148.9,168.02 C 148.9,168.02 148.91,168.03 148.91,168.04 C 148.93,168.05 148.94,168.07 148.95,168.08 C 149.12,168.33 149.02,168.68 148.87,168.89 C 148.83,168.95 148.78,169.01 148.73,169.06 C 148.67,169.14 148.66,169.16 148.65,169.26 C 148.63,169.33 148.62,169.4 148.6,169.47 C 148.58,169.54 148.55,169.6 148.53,169.67 C 148.51,169.75 148.53,169.81 148.56,169.88 C 148.59,169.95 148.62,170.01 148.66,170.07 C 148.73,170.2 148.81,170.32 148.88,170.45 C 148.91,170.51 148.95,170.57 148.99,170.63 C 149.03,170.69 149.07,170.75 149.11,170.81 C 149.2,170.96 149.2,171.06 149.18,171.22 C 149.18,171.25 149.17,171.29 149.18,171.32 C 149.2,171.36 149.22,171.39 149.23,171.42 C 149.26,171.49 149.29,171.55 149.3,171.62 C 149.32,171.76 149.3,171.9 149.38,172.04 C 149.45,172.17 149.56,172.26 149.63,172.38 C 149.66,172.43 149.68,172.48 149.7,172.53 C 149.72,172.6 149.73,172.67 149.78,172.73 C 149.88,172.83 149.98,172.92 150.02,173.07 C 150.04,173.15 150.04,173.21 150.02,173.28 C 150.01,173.32 149.99,173.35 149.97,173.38 C 149.96,173.4 149.98,173.41 149.99,173.43 C 150.0,173.44 150.01,173.46 150.02,173.47 C 150.03,173.51 150.04,173.54 150.06,173.57 C 150.08,173.61 150.11,173.62 150.15,173.62 C 150.23,173.63 150.29,173.6 150.35,173.57 C 150.48,173.52 150.61,173.46 150.76,173.45 C 150.83,173.45 150.9,173.46 150.97,173.46 C 151.05,173.47 151.11,173.44 151.18,173.42 C 151.25,173.4 151.32,173.39 151.39,173.39 C 151.5,173.4 151.5,173.4 151.59,173.34 C 151.71,173.26 151.82,173.18 151.94,173.1 C 152.06,173.02 152.17,172.93 152.25,172.8 C 152.33,172.68 152.39,172.56 152.5,172.46 C 152.55,172.41 152.61,172.37 152.68,172.34 C 152.69,172.34 152.69,172.34 152.7,172.33 C 152.71,172.33 152.71,172.31 152.71,172.31 C 152.71,172.28 152.71,172.26 152.71,172.23 C 152.71,172.15 152.73,172.09 152.77,172.02 z" />
			
			<text style="font-size:10px;font-family:z_boli;stroke:none;fill:#00f;text-anchor:middle" transform="matrix(1 0 0 1 150 150)" class="txt"></text>	
			
		<cam mingh:cam="--actions=EditSelectAll;ObjectToPath;ZoomPage;ZoomCenterPage;FileVacuum;FileSave; -g" mingh:style="source:microprism">M2</cam> 
	</g>		
</svg>
