<?xml version="1.0" encoding="UTF-8" standalone="no"?>

<svg xmlns="http://www.w3.org/2000/svg" xmlns:mingh="http://www.minghworld.com" xmlns:svg="http://www.w3.org/2000/svg" xmlns:xlink="http://www.w3.org/1999/xlink" height="300px" width="300px">
  
  <g>
    <path style="fill:none;stroke:#fb0;stroke-width:0.25px"
		d="M 154.85,168.21 L 154.4,170.7 L 155.85,170.97 L 156.1,169.61 L 157.7,169.91 L 157.45,171.26 L 158.9,171.52 L 159.35,169.04 L 154.85,168.21 z M 160.48,167.8 C 160.49,167.79 160.5,167.78 160.51,167.77 C 160.53,167.74 160.54,167.7 160.57,167.67 C 160.62,167.59 160.65,167.51 160.68,167.42 C 160.74,167.28 160.78,167.13 160.79,166.98 C 160.82,166.82 160.85,166.67 160.85,166.52 C 160.85,166.43 160.85,166.34 160.84,166.25 C 160.82,166.19 160.82,166.14 160.79,166.09 C 156.16,165.24 151.51,164.39 147.24,163.6 C 147.23,163.6 147.21,163.6 147.2,163.6 C 147.18,163.61 147.16,163.61 147.15,163.62 C 147.12,163.63 147.09,163.65 147.07,163.67 C 147.03,163.7 147.0,163.73 146.98,163.76 C 146.94,163.8 146.91,163.84 146.89,163.89 C 146.85,163.94 146.82,163.99 146.81,164.04 C 146.76,164.15 146.72,164.27 146.7,164.39 C 146.68,164.51 146.67,164.63 146.68,164.75 C 146.68,164.81 146.68,164.87 146.69,164.93 C 146.7,164.98 146.72,165.03 146.73,165.08 C 146.75,165.12 146.76,165.16 146.79,165.19 C 146.79,165.22 146.82,165.25 146.84,165.27 C 146.85,165.28 146.87,165.29 146.89,165.3 C 146.9,165.31 146.91,165.31 146.92,165.32 C 151.21,166.1 155.84,166.95 160.48,167.8 z M 146.48,167.24 C 146.56,167.15 146.54,167.01 146.43,166.95 C 146.38,166.93 146.32,166.92 146.26,166.91 C 146.2,166.89 146.14,166.88 146.09,166.86 C 145.85,166.8 145.67,166.7 145.49,166.55 C 145.41,166.48 145.32,166.4 145.26,166.31 C 145.23,166.26 145.19,166.22 145.16,166.17 C 145.13,166.12 145.09,166.09 145.03,166.08 C 144.96,166.08 144.92,166.1 144.88,166.14 C 144.84,166.17 144.81,166.2 144.76,166.23 C 144.68,166.3 144.6,166.35 144.51,166.4 C 143.69,166.88 142.64,166.87 141.79,166.48 C 140.01,165.66 139.45,163.4 140.66,161.85 C 141.25,161.11 142.14,160.68 143.07,160.69 C 143.97,160.7 144.89,161.09 145.43,161.82 C 145.5,161.91 145.56,162.0 145.6,162.09 C 145.64,162.15 145.67,162.19 145.73,162.21 C 145.81,162.23 145.85,162.21 145.91,162.17 C 146.1,162.02 146.32,161.93 146.57,161.88 C 146.7,161.86 146.82,161.85 146.95,161.86 C 147.01,161.86 147.07,161.87 147.15,161.88 C 147.18,161.88 147.22,161.89 147.25,161.89 C 147.29,161.89 147.32,161.9 147.35,161.9 C 147.42,161.89 147.47,161.86 147.5,161.8 C 147.53,161.74 147.51,161.69 147.49,161.63 C 147.46,161.54 147.42,161.45 147.38,161.36 C 147.0,160.57 146.35,159.93 145.6,159.49 C 143.99,158.56 141.97,158.58 140.39,159.59 C 138.81,160.61 137.95,162.43 138.17,164.29 C 138.39,166.16 139.65,167.73 141.42,168.35 C 142.32,168.67 143.32,168.73 144.26,168.52 C 145.1,168.32 145.89,167.9 146.48,167.24 z M 178.35,150.0 C 178.35,157.53 175.37,164.72 170.05,170.04 C 164.73,175.37 157.53,178.35 150.01,178.35 C 142.48,178.35 135.29,175.37 129.96,170.04 C 124.64,164.72 121.66,157.53 121.66,150.0 C 121.66,142.47 124.64,135.28 129.96,129.96 C 135.28,124.63 142.48,121.65 150.01,121.65 C 157.53,121.65 164.72,124.63 170.05,129.96 C 175.37,135.28 178.35,142.47 178.35,150.0 z M 126.54,145.06 C 125.83,145.06 125.23,145.32 124.68,145.84 C 124.16,146.37 123.9,147.0 123.9,147.72 C 123.9,149.24 123.9,150.76 123.9,152.28 C 123.9,153.0 124.16,153.63 124.68,154.16 C 125.23,154.68 125.83,154.94 126.54,154.94 C 127.23,154.94 127.87,154.68 128.41,154.16 C 128.94,153.63 129.19,153.0 129.19,152.28 C 129.19,150.76 129.19,149.24 129.19,147.72 C 129.19,147.0 128.94,146.37 128.41,145.84 C 127.87,145.32 127.23,145.06 126.54,145.06 z M 173.47,145.06 C 172.78,145.06 172.14,145.32 171.6,145.84 C 171.07,146.37 170.82,147.0 170.82,147.72 C 170.82,149.24 170.82,150.76 170.82,152.28 C 170.82,153.0 171.07,153.63 171.6,154.16 C 172.14,154.68 172.78,154.94 173.47,154.94 C 174.18,154.94 174.78,154.68 175.33,154.16 C 175.85,153.63 176.11,153.0 176.11,152.28 C 176.11,150.76 176.11,149.24 176.11,147.72 C 176.11,147.0 175.85,146.37 175.33,145.84 C 174.78,145.32 174.18,145.06 173.47,145.06 z" />
		
		<text style="font-size:10px;font-family:z_boli;stroke:none;fill:#00f;text-anchor:middle" transform="matrix(1 0 0 1 150 150)" class="txt"></text>	
			
		<cam mingh:cam="--actions=EditSelectAll;ObjectToPath;ZoomPage;ZoomCenterPage;FileVacuum;FileSave; -g" mingh:style="source:microprism">M2</cam> 
  </g>
</svg>
