<?xml version="1.0" encoding="UTF-8" standalone="no"?>

<svg
   xmlns:xlink="http://www.w3.org/1999/xlink"
   xmlns:svg="http://www.w3.org/2000/svg"
   xmlns="http://www.w3.org/2000/svg"
   xmlns:mingh="http://www.minghworld.com"
   width="300px"
   height="300px" >
  <g>
	<path style="fill:none;stroke:#fb0;stroke-width:0.25px"
		d="M 153.16,126.88 C 153.16,125.13 151.75,123.71 150.0,123.71 C 148.24,123.71 146.83,125.13 146.83,126.88 C 146.83,128.63 148.24,130.05 150.0,130.05 C 151.75,130.05 153.16,128.63 153.16,126.88 z M 178.35,150.0 C 178.35,157.53 175.37,164.72 170.04,170.04 C 164.72,175.37 157.53,178.35 150.0,178.35 C 142.47,178.35 135.28,175.37 129.96,170.04 C 124.63,164.72 121.65,157.53 121.65,150.0 C 121.65,142.47 124.63,135.28 129.96,129.96 C 135.28,124.63 142.47,121.65 150.0,121.65 C 157.53,121.65 164.72,124.63 170.04,129.96 C 175.37,135.28 178.35,142.47 178.35,150.0 z M 164.78,162.29 C 164.78,162.16 164.78,162.03 164.78,161.9 C 164.78,161.8 164.78,161.71 164.78,161.61 C 164.78,161.6 164.78,161.6 164.78,161.59 C 164.78,161.58 164.77,161.58 164.76,161.58 C 164.75,161.58 164.74,161.57 164.73,161.57 C 164.7,161.56 164.67,161.56 164.65,161.55 C 164.6,161.54 164.54,161.52 164.49,161.51 C 164.08,161.41 163.67,161.3 163.25,161.2 C 162.43,160.99 161.6,160.78 160.78,160.57 C 159.13,160.15 157.47,159.73 155.82,159.31 C 155.02,159.11 154.21,158.91 153.41,158.7 C 153.01,158.6 152.61,158.5 152.21,158.4 C 152.0,158.35 151.8,158.3 151.6,158.25 C 151.5,158.22 151.4,158.2 151.3,158.17 C 151.25,158.16 151.2,158.14 151.15,158.13 C 151.13,158.13 151.1,158.12 151.08,158.11 C 151.05,158.11 151.03,158.11 151.0,158.12 C 149.39,158.53 147.79,158.93 146.18,159.34 C 144.52,159.76 142.86,160.18 141.19,160.6 C 140.36,160.81 139.53,161.02 138.7,161.23 C 138.29,161.34 137.87,161.44 137.45,161.55 C 137.43,161.56 137.4,161.56 137.38,161.57 C 137.36,161.57 137.35,161.58 137.34,161.58 C 137.32,161.58 137.33,161.6 137.33,161.61 C 137.33,161.66 137.33,161.72 137.33,161.77 C 137.33,161.85 137.33,161.93 137.33,162.02 C 137.33,162.08 137.33,162.14 137.33,162.21 C 137.33,162.22 137.33,162.24 137.33,162.25 C 137.33,162.26 137.32,162.29 137.33,162.29 C 137.36,162.3 137.39,162.31 137.43,162.32 C 137.77,162.4 138.11,162.49 138.45,162.58 C 138.71,162.64 138.94,162.73 139.22,162.66 C 139.48,162.6 139.67,162.45 139.89,162.32 C 139.98,162.27 140.07,162.22 140.18,162.2 C 140.23,162.18 140.27,162.17 140.32,162.17 C 140.43,162.15 140.54,162.14 140.65,162.13 C 142.82,161.88 145.0,161.62 147.17,161.37 C 147.4,161.34 147.64,161.32 147.87,161.29 C 147.9,161.29 147.94,161.31 147.97,161.27 C 147.98,161.26 147.98,161.25 147.99,161.24 C 148.0,161.22 148.02,161.2 148.03,161.18 C 148.06,161.14 148.1,161.11 148.13,161.08 C 148.21,161.01 148.29,160.96 148.37,160.91 C 148.54,160.82 148.71,160.75 148.89,160.69 C 149.26,160.57 149.63,160.5 150.01,160.45 C 150.78,160.36 151.53,160.36 152.3,160.48 C 152.68,160.53 153.05,160.61 153.41,160.76 C 153.71,160.88 154.16,161.11 154.22,161.5 C 154.3,161.92 153.88,162.2 153.58,162.34 C 153.23,162.51 152.86,162.6 152.48,162.67 C 151.66,162.81 150.72,162.82 149.9,162.71 C 149.68,162.68 149.47,162.64 149.26,162.59 C 149.23,162.58 149.21,162.58 149.18,162.57 C 149.16,162.56 149.13,162.55 149.1,162.56 C 149.05,162.57 149.0,162.57 148.95,162.58 C 148.85,162.6 148.75,162.61 148.65,162.63 C 148.24,162.69 147.83,162.75 147.42,162.81 C 146.61,162.93 145.79,163.05 144.98,163.17 C 144.76,163.2 144.56,163.2 144.42,163.42 C 144.3,163.61 144.32,163.86 144.47,164.02 C 144.55,164.1 144.64,164.14 144.74,164.17 C 144.83,164.19 144.91,164.21 144.99,164.23 C 145.16,164.27 145.32,164.32 145.49,164.36 C 146.75,164.68 148.01,165.0 149.28,165.32 C 149.59,165.4 149.91,165.48 150.22,165.56 C 150.38,165.6 150.54,165.64 150.7,165.68 C 150.78,165.7 150.85,165.72 150.93,165.74 C 150.97,165.75 151.01,165.76 151.05,165.77 C 151.06,165.77 151.07,165.76 151.08,165.76 C 151.09,165.76 151.1,165.75 151.11,165.75 C 151.13,165.75 151.15,165.74 151.17,165.74 C 151.21,165.73 151.25,165.72 151.29,165.71 C 152.57,165.38 153.85,165.06 155.13,164.73 C 158.35,163.92 161.56,163.11 164.78,162.29 z M 142.21,169.04 C 142.7,168.88 142.99,168.38 142.91,167.88 C 142.87,167.63 142.73,167.4 142.53,167.24 C 142.49,167.2 142.44,167.17 142.38,167.14 C 142.37,167.13 142.36,167.13 142.34,167.12 C 142.34,167.12 142.34,167.09 142.34,167.08 C 142.34,167.05 142.34,167.02 142.34,166.99 C 142.34,166.88 142.34,166.76 142.34,166.65 C 142.34,166.16 142.34,165.67 142.34,165.18 C 142.34,165.06 142.34,164.94 142.34,164.81 C 142.34,164.78 142.34,164.75 142.34,164.72 C 142.34,164.72 142.35,164.7 142.34,164.7 C 142.33,164.7 142.33,164.7 142.32,164.69 C 142.3,164.69 142.29,164.69 142.27,164.68 C 142.22,164.67 142.16,164.65 142.1,164.64 C 141.98,164.61 141.86,164.58 141.74,164.55 C 141.68,164.53 141.62,164.52 141.56,164.5 C 141.53,164.5 141.5,164.49 141.48,164.48 C 141.46,164.48 141.45,164.47 141.43,164.47 C 141.43,164.47 141.43,164.47 141.43,164.48 C 141.43,164.48 141.43,164.48 141.43,164.49 C 141.43,164.5 141.43,164.5 141.43,164.51 C 141.43,165.0 141.43,165.48 141.43,165.97 C 141.43,166.21 141.43,166.46 141.43,166.7 C 141.43,166.82 141.43,166.94 141.43,167.06 C 141.43,167.08 141.43,167.09 141.43,167.11 C 141.43,167.13 141.41,167.13 141.4,167.14 C 141.37,167.15 141.34,167.17 141.32,167.18 C 141.26,167.22 141.21,167.26 141.16,167.3 C 140.78,167.67 140.74,168.27 141.07,168.69 C 141.15,168.8 141.24,168.88 141.36,168.95 C 141.41,168.98 141.46,169.01 141.52,169.03 C 141.53,169.03 141.54,169.03 141.54,169.04 C 141.55,169.04 141.56,169.03 141.56,169.04 C 141.55,169.06 141.55,169.07 141.54,169.08 C 141.53,169.11 141.52,169.13 141.5,169.16 C 141.41,169.35 141.31,169.55 141.21,169.75 C 140.77,170.63 140.34,171.5 139.91,172.38 C 139.86,172.47 139.82,172.56 139.77,172.65 C 139.77,172.66 139.78,172.66 139.78,172.66 C 139.79,172.67 139.8,172.67 139.8,172.67 C 139.81,172.68 139.83,172.69 139.84,172.7 C 139.86,172.71 139.89,172.72 139.91,172.74 C 139.96,172.77 140.01,172.79 140.06,172.82 C 140.28,172.93 140.51,173.01 140.74,173.08 C 141.26,173.22 141.75,173.27 142.28,173.22 C 142.83,173.17 143.32,173.03 143.8,172.77 C 143.86,172.74 143.91,172.71 143.96,172.68 C 143.98,172.67 143.99,172.66 144.0,172.66 C 144.01,172.65 143.99,172.63 143.99,172.62 C 143.98,172.6 143.97,172.57 143.95,172.55 C 143.9,172.45 143.86,172.35 143.81,172.25 C 143.71,172.06 143.61,171.86 143.52,171.67 C 143.08,170.79 142.65,169.91 142.21,169.04 z M 144.79,170.14 C 144.79,170.33 144.84,170.52 144.93,170.69 C 144.99,170.79 145.06,170.89 145.14,170.98 C 145.21,171.07 145.28,171.14 145.37,171.22 C 145.49,171.33 145.62,171.42 145.75,171.51 C 145.9,171.61 146.06,171.71 146.23,171.79 C 146.41,171.89 146.6,171.97 146.79,172.04 C 147.22,172.21 147.67,172.34 148.12,172.45 C 148.61,172.56 149.1,172.63 149.59,172.69 C 150.08,172.74 150.56,172.76 151.05,172.76 C 151.54,172.76 152.03,172.73 152.51,172.69 C 153.0,172.63 153.5,172.56 153.98,172.45 C 154.21,172.39 154.44,172.33 154.67,172.27 C 154.89,172.2 155.1,172.13 155.31,172.04 C 155.5,171.97 155.69,171.89 155.88,171.79 C 156.04,171.71 156.2,171.61 156.35,171.51 C 156.49,171.42 156.62,171.33 156.74,171.22 C 156.82,171.14 156.9,171.07 156.97,170.98 C 157.04,170.89 157.11,170.79 157.17,170.69 C 157.22,170.6 157.25,170.51 157.28,170.41 C 157.3,170.32 157.31,170.23 157.31,170.14 C 157.31,168.82 157.31,167.49 157.31,166.16 C 155.25,166.72 153.18,167.29 151.11,167.85 C 151.09,167.86 151.07,167.86 151.05,167.87 C 151.03,167.86 151.01,167.86 150.99,167.85 C 148.93,167.29 146.86,166.72 144.79,166.16 C 144.79,167.49 144.79,168.82 144.79,170.14 z" />
		
		<text style="font-size:10px;font-family:z_boli;stroke:none;fill:#00f;text-anchor:middle" transform="matrix(1 0 0 1 150 150)" class="txt"></text>	
			
		<cam mingh:cam="--actions=EditSelectAll;ObjectToPath;ZoomPage;ZoomCenterPage;FileVacuum;FileSave; -g" mingh:style="source:microprism">M2</cam> 
	</g>	
</svg>
