<?xml version="1.0" encoding="UTF-8" standalone="no"?>

<svg
   xmlns:xlink="http://www.w3.org/1999/xlink"
   xmlns:svg="http://www.w3.org/2000/svg"
   xmlns="http://www.w3.org/2000/svg"
   xmlns:mingh="http://www.minghworld.com"
   width="300px"
   height="300px" >
  
	<g>
		<path style="fill:none;stroke:#fb0;stroke-width:0.25px"
			d="M 153.16,126.88 C 153.16,125.13 151.75,123.71 150.0,123.71 C 148.24,123.71 146.83,125.13 146.83,126.88 C 146.83,128.63 148.24,130.05 150.0,130.05 C 151.75,130.05 153.16,128.63 153.16,126.88 z M 178.35,150.0 C 178.35,157.53 175.37,164.72 170.04,170.04 C 164.72,175.37 157.53,178.35 150.0,178.35 C 142.47,178.35 135.28,175.37 129.96,170.04 C 124.63,164.72 121.65,157.53 121.65,150.0 C 121.65,142.47 124.63,135.28 129.96,129.96 C 135.28,124.63 142.47,121.65 150.0,121.65 C 157.53,121.65 164.72,124.63 170.04,129.96 C 175.37,135.28 178.35,142.47 178.35,150.0 z M 154.57,164.04 C 154.58,164.04 154.6,164.04 154.62,164.04 C 154.66,163.89 154.73,163.75 154.83,163.63 C 154.9,163.54 154.98,163.46 155.07,163.4 C 155.16,163.33 155.26,163.28 155.36,163.24 C 155.46,163.21 155.56,163.19 155.67,163.18 C 155.73,163.17 155.79,163.17 155.85,163.18 C 155.94,163.19 156.02,163.2 156.11,163.23 C 156.2,163.25 156.28,163.29 156.36,163.34 C 156.43,163.38 156.5,163.43 156.56,163.48 C 156.67,163.58 156.76,163.69 156.83,163.82 C 156.84,163.82 156.85,163.82 156.86,163.82 C 156.73,163.25 156.57,162.68 156.37,162.13 C 156.18,161.61 155.97,161.1 155.73,160.6 C 155.68,160.48 155.7,160.41 155.8,160.33 C 156.43,159.82 157.06,159.3 157.69,158.79 C 157.51,158.35 157.33,157.92 157.14,157.48 C 155.77,158.05 154.4,158.61 153.03,159.18 C 153.26,159.53 153.46,159.91 153.64,160.29 C 153.82,160.71 153.98,161.14 154.12,161.57 C 154.18,161.79 154.25,162.01 154.3,162.23 C 154.33,162.35 154.35,162.47 154.38,162.59 C 154.41,162.76 154.44,162.92 154.46,163.09 C 154.49,163.26 154.51,163.44 154.53,163.61 C 154.54,163.68 154.55,163.75 154.56,163.82 C 154.56,163.9 154.56,163.97 154.57,164.04 z M 156.79,167.4 C 156.89,167.42 156.98,167.44 157.08,167.47 C 157.13,167.07 157.15,166.68 157.15,166.28 C 157.14,165.75 157.1,165.22 157.02,164.7 C 156.99,164.7 156.95,164.7 156.91,164.71 C 156.87,164.86 156.79,165.0 156.7,165.12 C 156.63,165.21 156.55,165.28 156.45,165.35 C 156.36,165.41 156.27,165.46 156.16,165.5 C 156.07,165.53 155.96,165.55 155.86,165.56 C 155.8,165.57 155.74,165.57 155.68,165.56 C 155.59,165.56 155.5,165.54 155.42,165.52 C 155.33,165.49 155.24,165.45 155.16,165.41 C 155.09,165.37 155.03,165.32 154.97,165.26 C 154.86,165.17 154.77,165.05 154.7,164.92 C 154.66,164.92 154.62,164.93 154.58,164.93 C 154.57,165.04 154.57,165.14 154.57,165.23 C 154.57,165.38 154.56,165.5 154.55,165.59 C 154.5,166.02 154.42,166.43 154.32,166.8 C 154.43,166.83 154.53,166.85 154.63,166.88 C 154.71,166.78 154.8,166.68 154.9,166.61 C 154.95,166.57 155.01,166.53 155.07,166.5 C 155.15,166.46 155.22,166.43 155.3,166.41 C 155.38,166.39 155.46,166.38 155.53,166.38 C 155.59,166.37 155.66,166.37 155.72,166.38 C 155.83,166.39 155.94,166.41 156.05,166.46 C 156.16,166.5 156.27,166.56 156.36,166.64 C 156.46,166.72 156.54,166.81 156.61,166.91 C 156.7,167.06 156.77,167.23 156.79,167.4 z M 156.94,168.35 C 156.82,168.32 156.7,168.29 156.58,168.26 C 156.51,168.36 156.42,168.45 156.32,168.53 C 156.26,168.57 156.21,168.61 156.14,168.64 C 156.07,168.67 155.99,168.7 155.91,168.72 C 155.84,168.74 155.76,168.76 155.68,168.76 C 155.62,168.77 155.56,168.77 155.5,168.76 C 155.39,168.75 155.27,168.72 155.17,168.68 C 155.06,168.64 154.95,168.57 154.85,168.5 C 154.76,168.42 154.68,168.33 154.61,168.22 C 154.51,168.08 154.45,167.91 154.43,167.74 C 154.3,167.71 154.17,167.68 154.04,167.65 C 153.9,167.98 153.73,168.3 153.54,168.59 C 153.41,168.78 153.26,168.97 153.11,169.15 C 153.25,169.29 153.39,169.42 153.52,169.55 C 153.64,169.5 153.77,169.47 153.89,169.46 C 154.01,169.44 154.12,169.45 154.23,169.47 C 154.35,169.49 154.46,169.53 154.56,169.58 C 154.67,169.64 154.77,169.71 154.86,169.8 C 154.95,169.89 155.02,169.99 155.08,170.1 C 155.13,170.2 155.17,170.31 155.19,170.43 C 155.2,170.48 155.21,170.54 155.21,170.59 C 155.21,170.65 155.21,170.7 155.2,170.76 C 155.19,170.88 155.16,170.99 155.12,171.1 C 155.25,171.23 155.38,171.36 155.51,171.48 C 155.58,171.39 155.66,171.3 155.72,171.21 C 155.9,170.96 156.06,170.69 156.21,170.42 C 156.35,170.15 156.48,169.87 156.58,169.58 C 156.69,169.29 156.78,168.99 156.86,168.69 C 156.89,168.58 156.92,168.46 156.94,168.35 z M 154.91,172.13 C 154.77,172.0 154.64,171.87 154.5,171.74 C 154.38,171.79 154.26,171.82 154.13,171.84 C 154.02,171.85 153.91,171.84 153.8,171.82 C 153.68,171.8 153.57,171.76 153.46,171.71 C 153.35,171.65 153.25,171.58 153.17,171.49 C 153.08,171.4 153.01,171.3 152.95,171.2 C 152.9,171.09 152.86,170.98 152.84,170.86 C 152.83,170.81 152.82,170.75 152.82,170.7 C 152.82,170.64 152.82,170.59 152.82,170.53 C 152.83,170.42 152.86,170.3 152.91,170.19 C 152.76,170.05 152.62,169.91 152.47,169.77 C 151.77,170.33 150.89,170.63 150.0,170.63 C 149.11,170.63 148.23,170.33 147.53,169.77 C 147.38,169.91 147.24,170.05 147.09,170.19 C 147.14,170.3 147.17,170.42 147.18,170.53 C 147.19,170.64 147.18,170.76 147.16,170.86 C 147.14,170.98 147.1,171.09 147.05,171.2 C 146.99,171.3 146.92,171.4 146.83,171.49 C 146.75,171.58 146.65,171.65 146.54,171.71 C 146.43,171.76 146.32,171.8 146.2,171.82 C 146.15,171.83 146.1,171.84 146.04,171.84 C 145.98,171.84 145.92,171.84 145.87,171.84 C 145.74,171.82 145.62,171.79 145.5,171.74 C 145.36,171.87 145.23,172.0 145.09,172.13 C 145.38,172.4 145.69,172.64 146.01,172.85 C 146.39,173.1 146.79,173.31 147.2,173.48 C 147.42,173.57 147.65,173.65 147.87,173.72 C 148.1,173.79 148.34,173.85 148.57,173.9 C 149.04,173.99 149.52,174.04 150.0,174.04 C 150.48,174.04 150.96,173.99 151.43,173.9 C 151.9,173.8 152.36,173.66 152.8,173.48 C 153.02,173.39 153.23,173.29 153.44,173.17 C 153.63,173.08 153.81,172.97 153.99,172.85 C 154.31,172.64 154.62,172.4 154.91,172.13 z M 146.47,169.55 C 146.61,169.42 146.75,169.29 146.89,169.15 C 146.74,168.97 146.59,168.78 146.46,168.59 C 146.27,168.3 146.1,167.98 145.96,167.65 C 145.83,167.68 145.7,167.71 145.57,167.74 C 145.56,167.81 145.55,167.88 145.53,167.94 C 145.5,168.04 145.45,168.14 145.39,168.22 C 145.32,168.33 145.24,168.42 145.15,168.5 C 145.05,168.57 144.94,168.64 144.83,168.68 C 144.73,168.72 144.61,168.75 144.5,168.76 C 144.44,168.77 144.38,168.77 144.32,168.76 C 144.24,168.76 144.16,168.74 144.09,168.72 C 144.01,168.7 143.93,168.67 143.86,168.64 C 143.79,168.61 143.74,168.57 143.68,168.53 C 143.58,168.45 143.49,168.36 143.42,168.26 C 143.3,168.29 143.18,168.32 143.06,168.35 C 143.08,168.46 143.11,168.58 143.14,168.69 C 143.22,168.99 143.31,169.29 143.42,169.58 C 143.52,169.87 143.65,170.15 143.79,170.42 C 143.94,170.69 144.1,170.96 144.28,171.21 C 144.34,171.3 144.42,171.39 144.49,171.48 C 144.62,171.36 144.75,171.23 144.88,171.1 C 144.84,170.99 144.81,170.88 144.8,170.76 C 144.79,170.65 144.79,170.54 144.81,170.43 C 144.83,170.31 144.87,170.2 144.93,170.1 C 144.98,169.99 145.05,169.89 145.14,169.8 C 145.23,169.71 145.33,169.64 145.44,169.58 C 145.54,169.53 145.65,169.49 145.77,169.47 C 145.82,169.46 145.88,169.45 145.93,169.45 C 145.99,169.45 146.05,169.45 146.11,169.46 C 146.23,169.47 146.36,169.5 146.47,169.55 M 145.37,166.88 C 145.47,166.85 145.57,166.83 145.68,166.8 C 145.58,166.43 145.5,166.02 145.45,165.59 C 145.44,165.5 145.43,165.38 145.43,165.23 C 145.43,165.14 145.43,165.04 145.42,164.93 C 145.38,164.93 145.34,164.92 145.3,164.92 C 145.23,165.05 145.14,165.17 145.03,165.26 C 144.97,165.32 144.91,165.37 144.84,165.41 C 144.76,165.45 144.67,165.49 144.58,165.52 C 144.5,165.54 144.41,165.56 144.32,165.56 C 144.26,165.57 144.2,165.57 144.14,165.56 C 144.04,165.55 143.93,165.53 143.84,165.5 C 143.73,165.46 143.64,165.41 143.55,165.35 C 143.45,165.28 143.37,165.21 143.3,165.12 C 143.21,165.0 143.13,164.86 143.09,164.71 C 143.05,164.7 143.01,164.7 142.98,164.7 C 142.9,165.22 142.86,165.75 142.85,166.28 C 142.85,166.68 142.87,167.07 142.92,167.47 C 143.01,167.44 143.11,167.42 143.21,167.4 C 143.22,167.33 143.23,167.26 143.26,167.2 C 143.29,167.1 143.33,167.0 143.39,166.91 C 143.46,166.81 143.54,166.72 143.64,166.64 C 143.73,166.56 143.84,166.5 143.95,166.46 C 144.06,166.41 144.17,166.39 144.28,166.38 C 144.34,166.37 144.41,166.37 144.47,166.38 C 144.54,166.38 144.62,166.39 144.7,166.41 C 144.78,166.43 144.85,166.46 144.93,166.5 C 144.99,166.53 145.05,166.57 145.1,166.61 C 145.2,166.68 145.29,166.78 145.37,166.88 z M 143.14,163.82 C 143.15,163.82 143.16,163.82 143.17,163.82 C 143.24,163.7 143.33,163.58 143.44,163.48 C 143.5,163.43 143.57,163.38 143.64,163.34 C 143.72,163.29 143.8,163.25 143.89,163.23 C 143.98,163.2 144.06,163.19 144.15,163.18 C 144.21,163.17 144.27,163.17 144.33,163.18 C 144.44,163.19 144.54,163.21 144.64,163.24 C 144.74,163.28 144.84,163.33 144.93,163.4 C 145.02,163.46 145.1,163.54 145.17,163.63 C 145.27,163.75 145.34,163.89 145.38,164.04 C 145.4,164.04 145.42,164.04 145.43,164.04 C 145.43,163.97 145.44,163.9 145.44,163.82 C 145.45,163.75 145.46,163.68 145.47,163.61 C 145.49,163.44 145.51,163.26 145.54,163.09 C 145.56,162.92 145.59,162.76 145.62,162.59 C 145.65,162.47 145.67,162.35 145.7,162.23 C 145.75,162.01 145.82,161.79 145.88,161.57 C 146.02,161.14 146.18,160.71 146.36,160.29 C 146.54,159.91 146.74,159.53 146.97,159.18 C 145.6,158.61 144.23,158.05 142.86,157.48 C 142.67,157.92 142.49,158.35 142.31,158.79 C 142.94,159.3 143.57,159.82 144.2,160.33 C 144.3,160.41 144.32,160.48 144.27,160.6 C 144.03,161.1 143.82,161.61 143.63,162.13 C 143.43,162.68 143.27,163.25 143.14,163.82 z" />
			
			<text style="font-size:10px;font-family:z_boli;stroke:none;fill:#00f;text-anchor:middle" transform="matrix(1 0 0 1 150 150)" class="txt"></text>	
			
		<cam mingh:cam="--actions=EditSelectAll;ObjectToPath;ZoomPage;ZoomCenterPage;FileVacuum;FileSave; -g" mingh:style="source:microprism">M2</cam> 
	</g>	
</svg>
