<?xml version="1.0" encoding="UTF-8" standalone="no"?>
<svg xmlns="http://www.w3.org/2000/svg" xmlns:mingh="http://www.minghworld.com" xmlns:svg="http://www.w3.org/2000/svg" xmlns:xlink="http://www.w3.org/1999/xlink" height="300px" width="300px">
   
	<g>
		<path style="fill:none;stroke:#fb0;stroke-width:0.25px"
			d="M 161.51,166.48 C 161.54,166.46 161.59,166.43 161.63,166.41 C 161.65,166.39 161.67,166.38 161.69,166.36 C 161.69,166.35 161.7,166.34 161.71,166.33 C 161.71,166.32 161.71,166.31 161.72,166.3 C 161.72,166.29 161.72,166.28 161.72,166.27 C 161.72,166.27 161.72,166.26 161.72,166.25 C 161.71,166.24 161.71,166.23 161.7,166.22 C 161.7,166.2 161.69,166.19 161.68,166.18 C 161.67,166.17 161.66,166.16 161.65,166.15 C 161.62,166.13 161.6,166.12 161.57,166.1 C 161.54,166.09 161.51,166.07 161.47,166.06 C 161.43,166.04 161.39,166.02 161.35,166.01 C 161.32,166.0 161.29,166.0 161.28,165.99 C 161.26,165.98 161.24,165.97 161.23,165.96 C 161.21,165.95 161.19,165.94 161.18,165.93 C 161.17,165.92 161.16,165.91 161.15,165.9 C 161.12,165.87 161.09,165.83 161.07,165.8 C 161.03,165.74 161.0,165.68 160.96,165.62 C 160.94,165.57 160.91,165.52 160.88,165.48 C 160.87,165.45 160.85,165.42 160.82,165.39 C 160.79,165.37 160.78,165.34 160.75,165.32 C 160.71,165.29 160.67,165.27 160.64,165.25 C 160.6,165.23 160.59,165.22 160.56,165.21 C 160.51,165.19 160.47,165.17 160.42,165.15 C 160.35,165.13 160.29,165.12 160.24,165.1 C 160.17,165.09 160.1,165.08 160.03,165.08 C 159.94,165.07 159.84,165.07 159.75,165.07 C 159.7,165.07 159.66,165.07 159.6,165.07 C 159.53,165.07 159.44,165.08 159.35,165.09 C 159.26,165.11 159.17,165.13 159.07,165.15 C 158.98,165.18 158.88,165.21 158.78,165.24 C 158.69,165.27 158.6,165.3 158.51,165.33 C 158.48,165.34 158.44,165.35 158.41,165.36 C 158.29,165.39 158.23,165.37 158.16,165.27 C 158.12,165.19 158.07,165.12 158.04,165.04 C 158.01,164.98 157.98,164.92 157.95,164.86 C 157.94,164.83 157.93,164.8 157.92,164.77 C 157.91,164.75 157.9,164.73 157.9,164.7 C 157.89,164.67 157.89,164.63 157.88,164.6 C 157.88,164.5 157.87,164.41 157.85,164.32 C 157.82,164.15 157.79,163.99 157.75,163.84 C 157.73,163.77 157.7,163.7 157.67,163.63 C 157.65,163.57 157.6,163.51 157.57,163.44 C 157.54,163.38 157.51,163.32 157.47,163.27 C 157.42,163.21 157.37,163.15 157.32,163.09 C 157.28,163.04 157.23,162.99 157.19,162.94 C 157.09,162.83 156.98,162.73 156.85,162.63 C 156.74,162.52 156.6,162.42 156.47,162.32 C 156.23,162.13 156.0,161.94 155.76,161.75 C 155.68,161.69 155.6,161.63 155.51,161.57 C 155.37,161.46 155.21,161.34 155.04,161.23 C 154.82,161.08 154.59,160.93 154.35,160.79 C 154.07,160.61 153.78,160.43 153.48,160.26 C 153.1,160.04 152.73,159.83 152.35,159.63 C 152.16,159.52 151.97,159.41 151.76,159.31 C 151.35,159.09 150.94,158.87 150.53,158.66 C 150.2,158.48 149.85,158.3 149.53,158.11 C 149.35,158.02 149.17,157.92 148.99,157.82 C 148.82,157.74 148.67,157.65 148.51,157.57 C 148.4,157.52 148.29,157.47 148.19,157.43 C 148.13,157.4 148.06,157.38 148.0,157.36 C 147.96,157.34 147.92,157.33 147.88,157.32 C 147.85,157.31 147.82,157.3 147.79,157.29 C 147.76,157.29 147.74,157.28 147.72,157.28 C 147.7,157.27 147.68,157.27 147.67,157.27 C 147.64,157.27 147.6,157.26 147.57,157.27 C 147.56,157.27 147.54,157.27 147.54,157.28 C 147.53,157.28 147.51,157.28 147.51,157.29 C 147.5,157.29 147.49,157.3 147.48,157.31 C 147.48,157.32 147.48,157.33 147.47,157.34 C 147.47,157.35 147.47,157.35 147.47,157.36 C 147.47,157.37 147.47,157.38 147.47,157.39 C 147.48,157.4 147.48,157.41 147.48,157.42 C 147.5,157.44 147.51,157.47 147.51,157.49 C 147.54,157.51 147.54,157.52 147.56,157.54 C 147.57,157.56 147.6,157.58 147.62,157.6 C 147.66,157.65 147.71,157.69 147.76,157.73 C 147.79,157.76 147.82,157.79 147.88,157.81 C 147.9,157.82 147.92,157.84 147.95,157.84 C 147.96,157.85 147.98,157.85 147.99,157.86 C 148.04,157.86 148.07,157.88 148.1,157.91 C 148.2,157.98 148.29,158.06 148.38,158.14 C 148.46,158.21 148.54,158.27 148.62,158.34 C 148.69,158.41 148.75,158.48 148.82,158.55 C 148.88,158.62 148.94,158.69 148.99,158.76 C 149.07,158.87 149.17,158.96 149.26,159.06 C 149.34,159.13 149.42,159.21 149.5,159.28 C 149.63,159.4 149.76,159.51 149.91,159.62 C 150.01,159.7 150.12,159.79 150.22,159.87 C 150.29,159.93 150.35,159.99 150.43,160.05 C 150.48,160.1 150.51,160.15 150.57,160.21 C 150.6,160.26 150.65,160.32 150.69,160.37 C 150.73,160.44 150.76,160.5 150.81,160.56 C 150.85,160.61 150.89,160.66 150.92,160.71 C 150.97,160.76 151.0,160.82 151.04,160.88 C 151.09,160.95 151.14,161.02 151.19,161.1 C 151.25,161.18 151.29,161.26 151.35,161.34 C 151.4,161.39 151.44,161.45 151.48,161.5 C 151.51,161.54 151.57,161.58 151.6,161.62 C 151.67,161.67 151.73,161.71 151.79,161.76 C 151.85,161.81 151.93,161.86 152.0,161.91 C 152.04,161.95 152.09,161.98 152.13,162.02 C 152.16,162.04 152.19,162.07 152.22,162.1 C 152.23,162.11 152.24,162.13 152.26,162.14 C 152.29,162.19 152.31,162.24 152.29,162.3 C 152.29,162.31 152.29,162.33 152.29,162.35 C 152.29,162.39 152.29,162.42 152.29,162.46 C 152.29,162.48 152.29,162.49 152.29,162.51 C 152.31,162.53 152.32,162.55 152.32,162.57 C 152.32,162.6 152.35,162.63 152.35,162.66 C 152.39,162.7 152.42,162.75 152.45,162.79 C 152.51,162.87 152.57,162.95 152.62,163.03 C 152.64,163.05 152.65,163.08 152.66,163.1 C 152.67,163.13 152.68,163.16 152.68,163.18 C 152.68,163.2 152.68,163.21 152.69,163.22 C 152.7,163.33 152.73,163.44 152.79,163.54 C 152.82,163.61 152.85,163.67 152.91,163.72 C 153.04,163.9 152.98,164.06 152.75,164.08 C 152.69,164.09 152.63,164.09 152.57,164.11 C 152.51,164.11 152.46,164.13 152.41,164.14 C 152.37,164.15 152.32,164.17 152.29,164.19 C 152.26,164.2 152.24,164.22 152.21,164.23 C 152.2,164.25 152.18,164.26 152.16,164.28 C 152.15,164.29 152.14,164.31 152.13,164.32 C 152.12,164.33 152.1,164.35 152.1,164.36 C 152.1,164.38 152.09,164.41 152.09,164.43 C 152.07,164.53 152.03,164.58 151.93,164.61 C 151.91,164.62 151.88,164.63 151.85,164.65 C 151.82,164.66 151.79,164.67 151.78,164.69 C 151.76,164.7 151.74,164.71 151.73,164.72 C 151.72,164.73 151.71,164.74 151.7,164.75 C 151.69,164.76 151.68,164.78 151.68,164.79 C 151.67,164.81 151.66,164.83 151.66,164.84 C 151.66,164.87 151.66,164.9 151.66,164.92 C 151.66,164.93 151.66,164.94 151.66,164.95 C 151.65,165.01 151.63,165.06 151.59,165.1 C 151.54,165.14 151.49,165.18 151.43,165.21 C 151.4,165.23 151.35,165.24 151.32,165.25 C 151.24,165.28 151.16,165.29 151.09,165.31 C 150.99,165.32 150.89,165.33 150.79,165.33 C 150.64,165.34 150.49,165.34 150.35,165.33 C 150.26,165.33 150.17,165.32 150.09,165.31 C 150.01,165.31 149.93,165.29 149.85,165.28 C 149.69,165.24 149.54,165.2 149.39,165.15 C 149.25,165.1 149.12,165.04 148.98,164.97 C 148.84,164.9 148.7,164.82 148.57,164.73 C 148.42,164.63 148.28,164.53 148.14,164.42 C 147.98,164.29 147.82,164.16 147.67,164.03 C 147.4,163.79 147.1,163.55 146.82,163.32 C 146.62,163.17 146.41,163.02 146.21,162.87 C 145.92,162.65 145.63,162.44 145.34,162.23 C 145.18,162.11 145.03,162.0 144.88,161.88 C 144.82,161.83 144.76,161.78 144.7,161.73 C 144.6,161.64 144.51,161.56 144.4,161.48 C 144.37,161.46 144.32,161.43 144.28,161.41 C 144.26,161.39 144.24,161.38 144.22,161.37 C 144.19,161.36 144.16,161.35 144.13,161.34 C 144.1,161.34 144.1,161.34 144.07,161.34 C 144.07,161.34 144.06,161.34 144.04,161.34 C 144.04,161.34 144.03,161.35 144.03,161.35 C 144.01,161.36 144.01,161.36 144.01,161.37 C 144.0,161.38 144.0,161.38 143.99,161.39 C 143.99,161.4 143.98,161.41 143.98,161.41 C 143.98,161.42 143.98,161.43 143.98,161.44 C 143.99,161.46 144.0,161.48 144.01,161.5 C 144.01,161.52 144.04,161.55 144.06,161.57 C 144.09,161.6 144.12,161.64 144.16,161.67 C 144.2,161.71 144.25,161.75 144.29,161.8 C 144.38,161.87 144.46,161.94 144.54,162.02 C 144.6,162.07 144.66,162.13 144.71,162.18 C 144.75,162.22 144.79,162.27 144.82,162.31 C 144.84,162.34 144.87,162.38 144.89,162.42 C 144.96,162.57 145.04,162.72 145.14,162.85 C 145.18,162.91 145.22,162.96 145.26,163.01 C 145.31,163.06 145.35,163.1 145.41,163.14 C 145.42,163.14 145.42,163.14 145.42,163.14 C 145.49,163.19 145.51,163.24 145.51,163.33 C 145.51,163.35 145.51,163.37 145.51,163.38 C 145.51,163.39 145.51,163.4 145.51,163.41 C 145.51,163.42 145.53,163.43 145.53,163.44 C 145.54,163.47 145.57,163.5 145.59,163.53 C 145.6,163.56 145.64,163.59 145.67,163.61 C 145.7,163.65 145.74,163.68 145.76,163.71 C 145.85,163.78 145.92,163.84 145.99,163.92 C 146.01,163.93 146.01,163.95 146.03,163.97 C 146.04,163.99 146.06,164.01 146.07,164.04 C 146.09,164.07 146.1,164.1 146.1,164.14 C 146.1,164.16 146.12,164.19 146.12,164.22 C 146.14,164.29 146.16,164.35 146.19,164.41 C 146.22,164.47 146.25,164.53 146.29,164.58 C 146.32,164.64 146.38,164.69 146.43,164.74 C 146.53,164.85 146.53,164.94 146.42,165.05 C 146.41,165.06 146.4,165.07 146.4,165.08 C 146.39,165.09 146.38,165.1 146.38,165.1 C 146.37,165.12 146.35,165.13 146.35,165.15 C 146.32,165.22 146.32,165.3 146.32,165.37 C 146.32,165.37 146.32,165.37 146.32,165.37 C 146.35,165.51 146.29,165.58 146.16,165.61 C 146.14,165.62 146.12,165.62 146.1,165.63 C 146.07,165.64 146.06,165.65 146.03,165.66 C 146.01,165.67 145.99,165.68 145.97,165.7 C 145.95,165.71 145.93,165.73 145.92,165.75 C 145.88,165.81 145.82,165.83 145.76,165.84 C 145.72,165.84 145.69,165.84 145.65,165.84 C 145.59,165.85 145.53,165.85 145.47,165.86 C 145.4,165.87 145.32,165.88 145.26,165.89 C 145.16,165.91 145.06,165.93 144.95,165.95 C 144.79,165.99 144.64,166.03 144.49,166.08 C 144.32,166.13 144.17,166.18 144.01,166.22 C 143.85,166.27 143.7,166.31 143.54,166.34 C 143.48,166.35 143.4,166.36 143.32,166.38 C 143.32,166.38 143.29,166.38 143.29,166.39 C 143.26,166.39 143.26,166.4 143.25,166.4 C 143.22,166.42 143.19,166.44 143.16,166.46 C 143.15,166.47 143.14,166.49 143.13,166.5 C 143.1,166.51 143.09,166.53 143.06,166.54 C 143.06,166.55 143.04,166.55 143.04,166.56 C 143.01,166.57 142.99,166.58 142.96,166.58 C 142.95,166.58 142.93,166.58 142.92,166.59 C 142.82,166.6 142.73,166.61 142.64,166.62 C 142.46,166.64 142.28,166.66 142.1,166.66 C 142.01,166.66 141.94,166.66 141.87,166.67 C 141.79,166.67 141.72,166.68 141.65,166.7 C 141.46,166.73 141.26,166.76 141.07,166.8 C 140.95,166.82 140.82,166.84 140.7,166.87 C 140.6,166.89 140.51,166.91 140.44,166.94 C 140.41,166.94 140.39,166.95 140.35,166.97 C 140.35,166.97 140.34,166.98 140.32,166.99 C 140.32,167.0 140.31,167.01 140.31,167.02 C 140.29,167.03 140.29,167.04 140.29,167.05 C 140.29,167.07 140.31,167.08 140.32,167.09 C 140.32,167.1 140.32,167.11 140.32,167.12 C 140.34,167.13 140.35,167.15 140.37,167.16 C 140.41,167.19 140.46,167.21 140.51,167.23 C 140.56,167.25 140.6,167.26 140.66,167.27 C 140.73,167.29 140.81,167.3 140.88,167.31 C 140.99,167.32 141.09,167.33 141.19,167.33 C 141.35,167.34 141.51,167.34 141.67,167.35 C 141.9,167.36 142.13,167.36 142.35,167.37 C 142.57,167.38 142.78,167.4 143.0,167.41 C 143.26,167.43 143.54,167.45 143.82,167.46 C 144.03,167.47 144.23,167.48 144.43,167.48 C 144.59,167.49 144.76,167.49 144.93,167.48 C 145.1,167.48 145.28,167.47 145.45,167.46 C 145.66,167.45 145.85,167.44 146.07,167.44 C 146.31,167.43 146.54,167.42 146.79,167.42 C 147.06,167.42 147.32,167.42 147.57,167.42 C 147.72,167.42 147.85,167.43 147.99,167.43 C 148.06,167.43 148.12,167.44 148.18,167.44 C 148.24,167.45 148.29,167.45 148.35,167.46 C 148.49,167.47 148.6,167.49 148.74,167.51 C 148.82,167.52 148.92,167.54 149.01,167.55 C 149.07,167.56 149.14,167.58 149.2,167.59 C 149.26,167.61 149.34,167.63 149.41,167.65 C 149.43,167.66 149.45,167.66 149.46,167.67 C 149.49,167.68 149.51,167.69 149.53,167.71 C 149.57,167.74 149.63,167.77 149.68,167.8 C 149.75,167.84 149.82,167.87 149.89,167.9 C 150.0,167.94 150.12,167.98 150.23,168.03 C 150.45,168.12 150.46,168.31 150.25,168.42 C 150.21,168.45 150.17,168.47 150.13,168.5 C 150.1,168.51 150.1,168.52 150.07,168.54 C 150.07,168.55 150.04,168.56 150.04,168.57 C 150.0,168.62 149.96,168.67 149.92,168.71 C 149.91,168.73 149.89,168.74 149.88,168.76 C 149.87,168.78 149.85,168.8 149.85,168.81 C 149.85,168.84 149.84,168.86 149.84,168.89 C 149.84,168.93 149.84,168.97 149.82,169.01 C 149.82,169.02 149.82,169.04 149.82,169.06 C 149.82,169.08 149.82,169.11 149.82,169.13 C 149.81,169.17 149.79,169.2 149.76,169.22 C 149.75,169.24 149.74,169.25 149.73,169.26 C 149.72,169.26 149.71,169.27 149.7,169.27 C 149.67,169.3 149.63,169.32 149.59,169.34 C 149.54,169.36 149.51,169.38 149.48,169.41 C 149.44,169.42 149.41,169.45 149.39,169.47 C 149.37,169.48 149.35,169.5 149.32,169.52 C 149.32,169.53 149.32,169.54 149.31,169.55 C 149.31,169.56 149.29,169.56 149.29,169.57 C 149.29,169.6 149.29,169.62 149.29,169.64 C 149.29,169.69 149.29,169.73 149.29,169.78 C 149.29,169.84 149.29,169.9 149.29,169.96 C 149.29,169.98 149.29,170.0 149.29,170.01 C 149.29,170.03 149.29,170.05 149.29,170.08 C 149.29,170.08 149.29,170.09 149.28,170.1 C 149.28,170.12 149.26,170.13 149.26,170.15 C 149.25,170.18 149.24,170.2 149.22,170.22 C 149.2,170.25 149.18,170.28 149.16,170.32 C 149.15,170.34 149.14,170.37 149.13,170.4 C 149.1,170.44 149.1,170.47 149.1,170.51 C 149.1,170.61 149.07,170.67 148.98,170.71 C 148.94,170.73 148.9,170.74 148.85,170.76 C 148.81,170.77 148.76,170.79 148.73,170.8 C 148.7,170.81 148.67,170.82 148.64,170.83 C 148.62,170.84 148.59,170.84 148.57,170.86 C 148.54,170.87 148.51,170.89 148.5,170.91 C 148.48,170.93 148.46,170.95 148.44,170.98 C 148.41,171.0 148.39,171.03 148.37,171.06 C 148.32,171.11 148.29,171.16 148.25,171.2 C 148.2,171.24 148.15,171.28 148.1,171.31 C 148.01,171.37 147.93,171.42 147.85,171.48 C 147.82,171.5 147.79,171.52 147.76,171.53 C 147.68,171.57 147.6,171.6 147.54,171.63 C 147.34,171.69 147.15,171.77 146.97,171.84 C 146.82,171.9 146.68,171.97 146.53,172.03 C 146.4,172.09 146.26,172.16 146.13,172.23 C 146.03,172.29 145.93,172.35 145.84,172.43 C 145.76,172.5 145.69,172.58 145.62,172.66 C 145.59,172.69 145.56,172.73 145.53,172.76 C 145.51,172.78 145.48,172.8 145.46,172.82 C 145.43,172.84 145.4,172.86 145.38,172.88 C 145.32,172.92 145.26,172.96 145.21,172.99 C 145.15,173.04 145.09,173.08 145.03,173.12 C 144.94,173.17 144.85,173.22 144.76,173.27 C 144.68,173.33 144.59,173.39 144.5,173.44 C 144.38,173.51 144.25,173.57 144.13,173.64 C 143.99,173.72 143.85,173.8 143.71,173.88 C 143.63,173.93 143.54,173.98 143.47,174.04 C 143.43,174.07 143.39,174.11 143.35,174.14 C 143.28,174.2 143.21,174.27 143.16,174.35 C 143.14,174.37 143.12,174.4 143.1,174.43 C 143.1,174.44 143.09,174.45 143.09,174.46 C 143.07,174.48 143.07,174.49 143.07,174.5 C 143.07,174.51 143.07,174.51 143.07,174.52 C 143.07,174.53 143.07,174.54 143.07,174.54 C 143.09,174.55 143.09,174.56 143.1,174.56 C 143.1,174.56 143.1,174.57 143.12,174.57 C 143.13,174.57 143.15,174.57 143.16,174.58 C 143.18,174.58 143.19,174.58 143.21,174.57 C 143.24,174.57 143.26,174.56 143.29,174.55 C 143.34,174.54 143.39,174.52 143.44,174.5 C 143.51,174.47 143.6,174.43 143.67,174.39 C 143.72,174.37 143.76,174.35 143.79,174.33 C 143.84,174.31 143.89,174.3 143.94,174.28 C 144.06,174.23 144.18,174.2 144.29,174.16 C 144.64,174.06 144.98,173.97 145.32,173.88 C 145.82,173.74 146.32,173.6 146.82,173.47 C 147.09,173.4 147.35,173.33 147.63,173.26 C 148.0,173.16 148.37,173.07 148.74,172.98 C 149.16,172.88 149.59,172.78 150.01,172.68 C 150.18,172.65 150.34,172.61 150.51,172.58 C 150.67,172.55 150.82,172.53 150.99,172.5 C 151.37,172.44 151.75,172.4 152.14,172.35 C 152.49,172.31 152.85,172.27 153.2,172.21 C 153.45,172.18 153.7,172.14 153.95,172.09 C 154.12,172.05 154.29,172.01 154.46,171.96 C 154.57,171.92 154.68,171.88 154.78,171.81 C 154.82,171.78 154.87,171.76 154.92,171.73 C 154.97,171.71 155.01,171.68 155.06,171.66 C 155.12,171.64 155.18,171.61 155.24,171.59 C 155.32,171.56 155.41,171.53 155.5,171.5 C 155.6,171.47 155.71,171.43 155.82,171.38 C 155.91,171.35 156.0,171.3 156.07,171.26 C 156.17,171.21 156.25,171.15 156.32,171.1 C 156.44,171.02 156.54,170.95 156.63,170.87 C 156.7,170.82 156.76,170.76 156.84,170.7 C 156.88,170.68 156.91,170.65 156.94,170.62 C 156.97,170.59 157.0,170.56 157.03,170.53 C 157.04,170.51 157.07,170.48 157.09,170.46 C 157.13,170.4 157.16,170.33 157.19,170.27 C 157.22,170.21 157.26,170.15 157.29,170.09 C 157.32,170.07 157.32,170.05 157.35,170.04 C 157.37,170.02 157.39,170.01 157.41,170.0 C 157.45,169.98 157.49,169.96 157.51,169.94 C 157.59,169.91 157.65,169.88 157.72,169.85 C 157.82,169.81 157.91,169.77 158.01,169.73 C 158.15,169.67 158.29,169.61 158.44,169.55 C 158.54,169.5 158.65,169.44 158.76,169.38 C 158.85,169.33 158.94,169.27 159.03,169.21 C 159.1,169.15 159.2,169.08 159.28,169.01 C 159.41,168.9 159.53,168.79 159.64,168.67 C 159.76,168.55 159.88,168.42 159.99,168.29 C 160.13,168.12 160.26,167.95 160.4,167.77 C 160.57,167.53 160.75,167.29 160.92,167.04 C 160.97,166.98 161.01,166.91 161.06,166.85 C 161.1,166.8 161.14,166.75 161.19,166.7 C 161.21,166.68 161.24,166.66 161.26,166.64 C 161.29,166.62 161.31,166.6 161.34,166.59 C 161.39,166.55 161.45,166.52 161.51,166.48 z M 178.35,150.0 C 178.35,157.53 175.37,164.72 170.05,170.04 C 164.73,175.37 157.53,178.35 150.01,178.35 C 142.48,178.35 135.29,175.37 129.96,170.04 C 124.64,164.72 121.66,157.53 121.66,150.0 C 121.66,142.47 124.64,135.28 129.96,129.96 C 135.28,124.63 142.48,121.65 150.01,121.65 C 157.53,121.65 164.72,124.63 170.05,129.96 C 175.37,135.28 178.35,142.47 178.35,150.0 z M 125.22,148.22 C 125.0,148.22 124.76,148.28 124.53,148.38 C 124.3,148.48 124.11,148.59 123.94,148.75 C 123.78,148.91 123.66,149.11 123.56,149.34 C 123.47,149.56 123.44,149.77 123.44,150.0 C 123.44,150.23 123.47,150.47 123.56,150.69 C 123.65,150.92 123.8,151.09 123.94,151.25 C 124.11,151.42 124.31,151.54 124.53,151.63 C 124.74,151.72 124.95,151.78 125.19,151.78 C 125.43,151.78 125.7,151.74 125.92,151.66 C 126.14,151.58 126.32,151.46 126.47,151.28 C 126.63,151.12 126.76,150.92 126.84,150.69 C 126.95,150.47 126.99,150.25 127.0,150.03 C 127.0,149.8 126.95,149.56 126.84,149.34 C 126.76,149.11 126.64,148.91 126.47,148.75 C 126.33,148.59 126.14,148.48 125.92,148.38 C 125.69,148.28 125.44,148.22 125.22,148.22 z M 174.79,148.22 C 174.57,148.22 174.32,148.28 174.09,148.38 C 173.87,148.48 173.68,148.59 173.54,148.75 C 173.37,148.91 173.25,149.11 173.17,149.34 C 173.06,149.56 173.01,149.8 173.01,150.03 C 173.02,150.25 173.06,150.47 173.17,150.69 C 173.25,150.92 173.38,151.12 173.54,151.28 C 173.69,151.46 173.87,151.58 174.09,151.66 C 174.31,151.74 174.58,151.78 174.82,151.78 C 175.06,151.78 175.27,151.72 175.48,151.63 C 175.7,151.54 175.9,151.42 176.07,151.25 C 176.21,151.09 176.36,150.92 176.45,150.69 C 176.54,150.47 176.57,150.23 176.57,150.0 C 176.57,149.77 176.54,149.56 176.45,149.34 C 176.35,149.11 176.23,148.91 176.07,148.75 C 175.9,148.59 175.71,148.48 175.48,148.38 C 175.25,148.28 175.01,148.22 174.79,148.22 z" />
		
		<text style="font-size:10px;font-family:z_boli;stroke:none;fill:#00f;text-anchor:middle" transform="matrix(1 0 0 1 150 150)" class="txt"></text>	
			
		<cam mingh:cam="--actions=EditSelectAll;ObjectToPath;ZoomPage;ZoomCenterPage;FileVacuum;FileSave; -g" mingh:style="source:microprism">M2</cam> 	
	</g>
</svg>
