<?xml version="1.0" encoding="UTF-8" standalone="no"?>

<svg xmlns="http://www.w3.org/2000/svg" xmlns:mingh="http://www.minghworld.com" xmlns:svg="http://www.w3.org/2000/svg" xmlns:xlink="http://www.w3.org/1999/xlink" height="300px" width="300px">
  
  <g>
    <path style="fill:none;stroke:#fb0;stroke-width:0.25px"
		d="M 152.62,167.41 C 153.57,167.3 154.51,167.23 155.48,167.22 C 156.44,167.2 157.4,167.23 158.35,167.21 C 159.48,167.18 160.1,167.07 161.19,166.78 C 161.42,166.72 161.65,166.65 161.88,166.57 C 162.13,166.48 162.26,166.41 162.47,166.24 C 162.54,166.18 162.64,166.11 162.71,166.03 C 162.73,166.01 162.75,165.99 162.76,165.97 C 162.78,165.96 162.79,165.95 162.79,165.94 C 162.79,165.93 162.81,165.93 162.81,165.92 C 162.82,165.92 162.79,165.92 162.79,165.92 C 162.79,165.92 162.79,165.92 162.79,165.92 C 162.72,165.9 162.66,165.89 162.6,165.88 C 162.38,165.84 162.16,165.81 161.94,165.8 C 161.32,165.75 161.04,165.81 160.44,165.8 C 159.91,165.8 159.59,165.71 159.1,165.49 C 158.69,165.29 158.29,165.05 157.9,164.8 C 157.51,164.54 157.15,164.26 156.76,164.0 C 156.31,163.69 156.03,163.53 155.46,163.63 C 155.22,163.67 154.97,163.74 154.73,163.8 C 154.65,163.83 154.51,163.89 154.41,163.82 C 154.32,163.75 154.34,163.61 154.35,163.52 C 154.37,163.26 154.4,163.0 154.41,162.73 C 154.42,162.47 154.38,162.29 154.15,162.13 C 153.95,161.99 153.74,161.89 153.53,161.77 C 153.32,161.65 153.1,161.53 152.91,161.4 C 152.06,160.87 151.39,160.3 150.97,159.34 C 150.78,158.89 150.66,158.44 150.57,157.96 C 150.54,157.84 150.54,157.72 150.51,157.6 C 150.51,157.54 150.5,157.48 150.5,157.42 C 150.49,157.38 150.49,157.35 150.49,157.32 C 150.49,157.32 150.49,157.31 150.49,157.31 C 150.48,157.31 150.48,157.31 150.48,157.31 C 150.48,157.32 150.47,157.32 150.47,157.32 C 150.46,157.33 150.45,157.34 150.44,157.35 C 150.29,157.52 150.22,157.71 150.15,157.91 C 150.0,158.32 149.89,158.85 149.85,159.28 C 149.79,159.76 149.81,160.23 149.85,160.7 C 149.97,161.67 150.26,162.57 150.59,163.48 C 150.89,164.32 151.26,165.29 151.24,166.23 C 151.23,166.73 151.09,167.16 150.88,167.59 C 150.66,168.03 150.4,168.43 150.13,168.83 C 149.85,169.23 149.57,169.61 149.29,170.01 C 149.15,170.2 149.01,170.39 148.91,170.59 C 148.85,170.69 148.79,170.79 148.75,170.89 C 148.72,170.95 148.7,171.0 148.67,171.05 C 148.65,171.1 148.64,171.15 148.6,171.2 C 148.54,171.24 148.5,171.25 148.44,171.26 C 148.38,171.27 148.32,171.28 148.26,171.29 C 148.15,171.3 148.03,171.32 147.91,171.34 C 147.68,171.38 147.44,171.41 147.21,171.44 C 146.74,171.51 146.26,171.57 145.79,171.61 C 143.85,171.8 142.06,171.8 140.12,171.49 C 139.18,171.35 138.26,171.15 137.34,170.89 C 137.29,170.87 137.23,170.86 137.17,170.84 C 137.14,170.83 137.12,170.82 137.09,170.81 C 137.07,170.81 137.07,170.81 137.07,170.81 C 137.07,170.81 137.06,170.8 137.07,170.81 C 137.07,170.81 137.07,170.82 137.07,170.82 C 137.1,170.83 137.1,170.84 137.12,170.85 C 137.22,170.92 137.31,170.98 137.41,171.05 C 137.6,171.18 137.81,171.3 138.01,171.42 C 138.43,171.65 138.85,171.85 139.29,172.03 C 141.09,172.76 142.94,173.1 144.85,173.07 C 145.81,173.06 146.75,172.96 147.69,172.82 C 148.63,172.67 149.56,172.5 150.5,172.37 C 152.39,172.11 154.26,171.98 156.17,172.14 C 157.12,172.22 158.04,172.36 158.98,172.57 C 159.45,172.67 159.91,172.78 160.37,172.91 C 160.42,172.92 160.48,172.94 160.54,172.96 C 160.56,172.96 160.59,172.97 160.62,172.98 C 160.64,172.99 160.65,172.99 160.66,172.99 C 160.67,173.0 160.68,173.0 160.69,173.0 C 160.69,173.0 160.68,172.99 160.67,172.99 C 160.57,172.92 160.48,172.85 160.38,172.79 C 160.19,172.65 159.99,172.53 159.78,172.41 C 158.18,171.51 156.17,170.94 154.35,170.79 C 153.87,170.75 153.4,170.73 152.92,170.73 C 152.79,170.74 152.68,170.74 152.57,170.74 C 152.5,170.74 152.28,170.76 152.22,170.73 C 152.12,170.68 152.1,170.52 152.09,170.44 C 152.06,170.32 152.04,170.2 152.03,170.08 C 151.97,169.6 151.99,169.14 152.07,168.66 C 152.12,168.43 152.18,168.2 152.26,167.97 C 152.29,167.86 152.34,167.75 152.39,167.64 C 152.44,167.53 152.47,167.43 152.62,167.41 z M 178.35,150.0 C 178.35,157.53 175.37,164.72 170.05,170.04 C 164.73,175.37 157.53,178.35 150.01,178.35 C 142.48,178.35 135.29,175.37 129.96,170.04 C 124.64,164.72 121.66,157.53 121.66,150.0 C 121.66,142.47 124.64,135.28 129.96,129.96 C 135.28,124.63 142.48,121.65 150.01,121.65 C 157.53,121.65 164.72,124.63 170.05,129.96 C 175.37,135.28 178.35,142.47 178.35,150.0 z M 126.54,145.06 C 125.83,145.06 125.23,145.32 124.68,145.84 C 124.16,146.37 123.9,147.0 123.9,147.72 C 123.9,149.24 123.9,150.76 123.9,152.28 C 123.9,153.0 124.16,153.63 124.68,154.16 C 125.23,154.68 125.83,154.94 126.54,154.94 C 127.23,154.94 127.87,154.68 128.41,154.16 C 128.94,153.63 129.19,153.0 129.19,152.28 C 129.19,150.76 129.19,149.24 129.19,147.72 C 129.19,147.0 128.94,146.37 128.41,145.84 C 127.87,145.32 127.23,145.06 126.54,145.06 z M 173.47,145.06 C 172.78,145.06 172.14,145.32 171.6,145.84 C 171.07,146.37 170.82,147.0 170.82,147.72 C 170.82,149.24 170.82,150.76 170.82,152.28 C 170.82,153.0 171.07,153.63 171.6,154.16 C 172.14,154.68 172.78,154.94 173.47,154.94 C 174.18,154.94 174.78,154.68 175.33,154.16 C 175.85,153.63 176.11,153.0 176.11,152.28 C 176.11,150.76 176.11,149.24 176.11,147.72 C 176.11,147.0 175.85,146.37 175.33,145.84 C 174.78,145.32 174.18,145.06 173.47,145.06 z" />
		
		<text style="font-size:10px;font-family:z_boli;stroke:none;fill:#00f;text-anchor:middle" transform="matrix(1 0 0 1 150 150)" class="txt"></text>	
			
		<cam mingh:cam="--actions=EditSelectAll;ObjectToPath;ZoomPage;ZoomCenterPage;FileVacuum;FileSave; -g" mingh:style="source:microprism">M2</cam> 
  </g>
</svg>
