<?xml version="1.0" encoding="UTF-8" standalone="no"?>
<svg xmlns="http://www.w3.org/2000/svg" xmlns:mingh="http://www.minghworld.com" xmlns:svg="http://www.w3.org/2000/svg" xmlns:xlink="http://www.w3.org/1999/xlink" height="300px" width="300px">
   
	<g>
		<path style="fill:none;stroke:#fb0;stroke-width:0.25px"
			d="M 145.4,168.96 C 145.66,168.84 145.82,168.69 145.93,168.43 C 146.04,168.17 146.03,167.93 146.01,167.66 C 145.99,167.13 145.85,166.65 145.64,166.17 C 145.53,165.92 145.38,165.73 145.17,165.56 C 144.97,165.4 144.76,165.26 144.51,165.17 C 144.26,165.08 144.01,165.04 143.75,165.02 C 143.54,165.01 143.19,165.0 142.98,165.05 C 142.69,165.12 142.51,165.24 142.44,165.54 C 142.37,165.79 142.35,166.05 142.35,166.31 C 142.35,166.57 142.38,166.82 142.43,167.08 C 142.48,167.36 142.54,167.55 142.73,167.78 C 143.01,168.17 143.48,168.55 143.91,168.76 C 144.19,168.89 144.47,168.97 144.76,169.03 C 145.0,169.08 145.17,169.06 145.4,168.96 z M 147.43,164.24 C 147.51,164.2 147.6,164.16 147.68,164.12 C 147.76,164.07 147.82,164.02 147.89,163.97 C 147.99,163.88 148.07,163.78 148.12,163.66 C 148.15,163.59 148.16,163.51 148.17,163.43 C 148.18,163.34 148.19,163.25 148.19,163.16 C 148.19,163.05 148.18,162.93 148.16,162.82 C 148.14,162.71 148.12,162.6 148.07,162.49 C 148.04,162.36 147.99,162.23 147.93,162.1 C 147.87,161.96 147.81,161.83 147.74,161.69 C 147.67,161.57 147.6,161.45 147.53,161.33 C 147.46,161.23 147.38,161.12 147.29,161.03 C 147.21,160.95 147.12,160.87 147.01,160.8 C 146.91,160.73 146.79,160.67 146.68,160.61 C 146.54,160.54 146.4,160.48 146.26,160.43 C 146.1,160.37 145.96,160.32 145.82,160.27 C 145.7,160.23 145.57,160.2 145.46,160.18 C 145.4,160.16 145.35,160.16 145.29,160.15 C 145.24,160.15 145.19,160.15 145.14,160.15 C 145.01,160.16 144.88,160.21 144.76,160.28 C 144.72,160.31 144.67,160.35 144.63,160.39 C 144.59,160.42 144.54,160.46 144.51,160.5 C 144.47,160.56 144.44,160.63 144.42,160.7 C 144.4,160.79 144.38,160.87 144.37,160.96 C 144.35,161.16 144.34,161.36 144.35,161.56 C 144.35,161.67 144.35,161.78 144.37,161.89 C 144.38,162.01 144.4,162.13 144.42,162.24 C 144.45,162.38 144.49,162.52 144.53,162.65 C 144.57,162.79 144.62,162.92 144.68,163.06 C 144.72,163.17 144.76,163.27 144.82,163.38 C 144.88,163.47 144.94,163.56 145.01,163.65 C 145.07,163.74 145.16,163.84 145.25,163.92 C 145.34,164.01 145.43,164.1 145.53,164.18 C 145.6,164.24 145.7,164.29 145.79,164.34 C 145.87,164.38 145.96,164.41 146.04,164.44 C 146.16,164.46 146.26,164.47 146.38,164.47 C 146.5,164.46 146.6,164.45 146.73,164.43 C 146.85,164.41 146.97,164.39 147.09,164.35 C 147.21,164.32 147.32,164.28 147.43,164.24 z M 152.19,162.15 C 152.25,162.13 152.29,162.1 152.35,162.06 C 152.4,162.03 152.44,162.0 152.48,161.96 C 152.53,161.92 152.57,161.86 152.6,161.81 C 152.63,161.74 152.66,161.67 152.68,161.59 C 152.71,161.48 152.74,161.36 152.76,161.24 C 152.78,161.06 152.79,160.87 152.78,160.69 C 152.76,160.5 152.74,160.31 152.69,160.12 C 152.66,160.02 152.63,159.93 152.6,159.83 C 152.56,159.73 152.51,159.64 152.46,159.54 C 152.41,159.45 152.35,159.36 152.29,159.27 C 152.23,159.18 152.15,159.1 152.07,159.02 C 151.9,158.84 151.71,158.69 151.51,158.54 C 151.4,158.44 151.26,158.34 151.14,158.24 C 151.01,158.16 150.9,158.08 150.76,158.01 C 150.67,157.96 150.57,157.92 150.47,157.89 C 150.37,157.85 150.26,157.83 150.16,157.81 C 150.07,157.8 150.0,157.79 149.91,157.79 C 149.82,157.79 149.75,157.79 149.67,157.8 C 149.57,157.81 149.5,157.83 149.42,157.85 C 149.38,157.86 149.34,157.88 149.29,157.89 C 149.26,157.92 149.22,157.94 149.18,157.97 C 149.09,158.04 149.01,158.12 148.94,158.21 C 148.85,158.32 148.79,158.43 148.75,158.55 C 148.66,158.77 148.6,159.0 148.6,159.24 C 148.59,159.39 148.6,159.54 148.63,159.68 C 148.65,159.84 148.67,159.99 148.7,160.15 C 148.75,160.37 148.79,160.6 148.87,160.82 C 148.9,160.93 148.94,161.03 148.99,161.14 C 149.03,161.24 149.09,161.34 149.15,161.44 C 149.21,161.54 149.28,161.64 149.35,161.73 C 149.42,161.81 149.5,161.9 149.57,161.97 C 149.74,162.12 149.92,162.25 150.12,162.35 C 150.32,162.44 150.53,162.51 150.75,162.54 C 150.85,162.55 150.95,162.55 151.04,162.54 C 151.14,162.53 151.23,162.52 151.32,162.5 C 151.41,162.47 151.5,162.45 151.59,162.42 C 151.67,162.39 151.74,162.36 151.81,162.33 C 151.94,162.28 152.07,162.22 152.19,162.15 z M 157.18,165.15 C 157.26,165.11 157.35,165.05 157.43,164.99 C 157.49,164.94 157.54,164.89 157.6,164.84 C 157.65,164.79 157.69,164.74 157.72,164.69 C 157.74,164.65 157.75,164.6 157.76,164.56 C 157.76,164.51 157.78,164.46 157.79,164.4 C 157.79,164.34 157.79,164.28 157.79,164.22 C 157.79,164.15 157.79,164.08 157.78,164.0 C 157.78,163.84 157.78,163.69 157.76,163.53 C 157.76,163.38 157.75,163.24 157.73,163.1 C 157.71,162.96 157.67,162.82 157.63,162.68 C 157.59,162.54 157.53,162.41 157.47,162.28 C 157.42,162.16 157.35,162.05 157.29,161.94 C 157.22,161.84 157.14,161.73 157.06,161.63 C 156.98,161.52 156.88,161.42 156.78,161.33 C 156.68,161.24 156.57,161.15 156.46,161.08 C 156.34,161.01 156.22,160.96 156.1,160.91 C 155.96,160.85 155.82,160.81 155.68,160.77 C 155.54,160.74 155.42,160.7 155.28,160.69 C 155.16,160.67 155.04,160.67 154.93,160.69 C 154.88,160.71 154.82,160.73 154.78,160.75 C 154.72,160.77 154.67,160.8 154.63,160.84 C 154.57,160.88 154.51,160.93 154.46,160.99 C 154.41,161.05 154.35,161.11 154.32,161.17 C 154.19,161.35 154.09,161.55 154.03,161.76 C 153.99,161.89 153.97,162.03 153.97,162.16 C 153.96,162.3 153.97,162.44 153.99,162.58 C 154.01,162.79 154.07,163.0 154.15,163.2 C 154.17,163.25 154.19,163.3 154.21,163.35 C 154.23,163.41 154.26,163.46 154.28,163.52 C 154.32,163.63 154.38,163.75 154.44,163.85 C 154.5,163.96 154.56,164.07 154.62,164.17 C 154.69,164.28 154.76,164.39 154.85,164.49 C 155.01,164.7 155.21,164.9 155.42,165.06 C 155.5,165.12 155.57,165.18 155.67,165.23 C 155.75,165.27 155.82,165.31 155.91,165.34 C 155.99,165.37 156.07,165.38 156.15,165.39 C 156.22,165.39 156.29,165.38 156.38,165.37 C 156.46,165.36 156.54,165.34 156.63,165.32 C 156.71,165.3 156.78,165.29 156.85,165.27 C 156.96,165.24 157.07,165.2 157.18,165.15 z M 152.88,171.67 C 152.92,171.68 152.96,171.67 153.01,171.67 C 153.04,171.66 153.09,171.65 153.13,171.64 C 153.22,171.61 153.31,171.58 153.39,171.54 C 153.47,171.52 153.54,171.49 153.62,171.46 C 153.69,171.43 153.75,171.4 153.82,171.36 C 153.85,171.33 153.89,171.3 153.93,171.28 C 153.97,171.24 154.01,171.21 154.06,171.17 C 154.1,171.13 154.17,171.1 154.22,171.06 C 154.28,171.02 154.34,170.99 154.4,170.96 C 154.54,170.89 154.7,170.84 154.85,170.81 C 155.0,170.78 155.14,170.77 155.28,170.77 C 155.38,170.77 155.47,170.78 155.57,170.8 C 155.63,170.82 155.7,170.84 155.76,170.84 C 155.79,170.85 155.82,170.85 155.85,170.85 C 155.9,170.86 155.94,170.86 155.98,170.86 C 156.07,170.86 156.15,170.85 156.24,170.84 C 156.32,170.83 156.39,170.82 156.47,170.8 C 156.54,170.78 156.6,170.75 156.67,170.72 C 156.76,170.68 156.82,170.63 156.91,170.57 C 156.98,170.51 157.04,170.44 157.1,170.37 C 157.18,170.29 157.24,170.21 157.29,170.12 C 157.34,170.04 157.39,169.95 157.43,169.85 C 157.48,169.73 157.51,169.6 157.54,169.47 C 157.56,169.34 157.57,169.22 157.56,169.09 C 157.54,168.94 157.5,168.79 157.44,168.66 C 157.38,168.51 157.31,168.37 157.22,168.23 C 157.13,168.09 157.03,167.95 156.92,167.83 C 156.81,167.7 156.69,167.59 156.56,167.48 C 156.4,167.34 156.23,167.22 156.06,167.11 C 155.87,166.98 155.68,166.87 155.49,166.75 C 155.29,166.61 155.09,166.48 154.89,166.34 C 154.78,166.26 154.68,166.18 154.57,166.1 C 154.45,166.01 154.32,165.91 154.22,165.82 C 154.1,165.72 153.98,165.62 153.87,165.52 C 153.76,165.43 153.67,165.34 153.57,165.24 C 153.41,165.09 153.25,164.94 153.07,164.8 C 152.87,164.64 152.65,164.5 152.41,164.39 C 152.34,164.36 152.26,164.33 152.19,164.31 C 152.13,164.29 152.07,164.28 152.0,164.28 C 151.95,164.29 151.9,164.29 151.85,164.31 C 151.79,164.32 151.75,164.34 151.71,164.37 C 151.65,164.41 151.6,164.45 151.56,164.5 C 151.5,164.55 151.45,164.62 151.39,164.68 C 151.26,164.82 151.13,164.95 150.98,165.05 C 150.88,165.12 150.78,165.18 150.66,165.21 C 150.51,165.25 150.38,165.26 150.24,165.26 C 150.17,165.26 150.1,165.25 150.03,165.25 C 149.96,165.24 149.88,165.23 149.79,165.21 C 149.65,165.19 149.51,165.15 149.35,165.13 C 149.24,165.11 149.12,165.1 149.01,165.1 C 148.9,165.1 148.79,165.11 148.69,165.14 C 148.6,165.17 148.51,165.21 148.42,165.26 C 148.38,165.28 148.32,165.31 148.29,165.35 C 148.23,165.39 148.18,165.45 148.13,165.5 C 148.04,165.62 147.96,165.74 147.91,165.88 C 147.85,166.01 147.82,166.15 147.81,166.29 C 147.79,166.45 147.78,166.61 147.76,166.77 C 147.75,167.13 147.71,167.49 147.69,167.85 C 147.68,168.0 147.67,168.16 147.66,168.31 C 147.65,168.46 147.64,168.61 147.62,168.76 C 147.57,169.08 147.51,169.4 147.42,169.71 C 147.32,170.02 147.22,170.33 147.13,170.64 C 147.07,170.77 147.04,170.91 147.01,171.05 C 146.98,171.19 146.96,171.32 146.95,171.46 C 146.95,171.68 146.99,171.9 147.06,172.1 C 147.1,172.23 147.17,172.35 147.25,172.46 C 147.32,172.57 147.42,172.67 147.51,172.75 C 147.63,172.84 147.76,172.92 147.89,172.98 C 148.01,173.05 148.16,173.1 148.31,173.15 C 148.43,173.19 148.54,173.22 148.67,173.25 C 148.78,173.27 148.89,173.28 149.01,173.28 C 149.16,173.28 149.32,173.25 149.47,173.21 C 149.64,173.17 149.79,173.11 149.95,173.05 C 150.13,172.98 150.29,172.89 150.46,172.78 C 150.51,172.74 150.57,172.69 150.63,172.64 C 150.66,172.61 150.69,172.58 150.72,172.55 C 150.76,172.49 150.82,172.42 150.88,172.36 C 150.93,172.29 150.99,172.22 151.04,172.15 C 151.1,172.08 151.17,172.01 151.24,171.95 C 151.31,171.89 151.39,171.84 151.46,171.79 C 151.54,171.74 151.63,171.7 151.72,171.66 C 151.82,171.62 151.94,171.59 152.06,171.59 C 152.21,171.58 152.35,171.6 152.51,171.62 C 152.57,171.64 152.65,171.65 152.72,171.66 C 152.76,171.67 152.82,171.67 152.88,171.67 z M 178.35,150.0 C 178.35,157.53 175.37,164.72 170.05,170.04 C 164.73,175.37 157.53,178.35 150.01,178.35 C 142.48,178.35 135.29,175.37 129.96,170.04 C 124.64,164.72 121.66,157.53 121.66,150.0 C 121.66,142.47 124.64,135.28 129.96,129.96 C 135.28,124.63 142.48,121.65 150.01,121.65 C 157.53,121.65 164.72,124.63 170.05,129.96 C 175.37,135.28 178.35,142.47 178.35,150.0 z M 125.22,148.22 C 125.0,148.22 124.76,148.28 124.53,148.38 C 124.3,148.48 124.11,148.59 123.94,148.75 C 123.78,148.91 123.66,149.11 123.56,149.34 C 123.47,149.56 123.44,149.77 123.44,150.0 C 123.44,150.23 123.47,150.47 123.56,150.69 C 123.65,150.92 123.8,151.09 123.94,151.25 C 124.11,151.42 124.31,151.54 124.53,151.63 C 124.74,151.72 124.95,151.78 125.19,151.78 C 125.43,151.78 125.7,151.74 125.92,151.66 C 126.14,151.58 126.32,151.46 126.47,151.28 C 126.63,151.12 126.76,150.92 126.84,150.69 C 126.95,150.47 126.99,150.25 127.0,150.03 C 127.0,149.8 126.95,149.56 126.84,149.34 C 126.76,149.11 126.64,148.91 126.47,148.75 C 126.33,148.59 126.14,148.48 125.92,148.38 C 125.69,148.28 125.44,148.22 125.22,148.22 z M 174.79,148.22 C 174.57,148.22 174.32,148.28 174.09,148.38 C 173.87,148.48 173.68,148.59 173.54,148.75 C 173.37,148.91 173.25,149.11 173.17,149.34 C 173.06,149.56 173.01,149.8 173.01,150.03 C 173.02,150.25 173.06,150.47 173.17,150.69 C 173.25,150.92 173.38,151.12 173.54,151.28 C 173.69,151.46 173.87,151.58 174.09,151.66 C 174.31,151.74 174.58,151.78 174.82,151.78 C 175.06,151.78 175.27,151.72 175.48,151.63 C 175.7,151.54 175.9,151.42 176.07,151.25 C 176.21,151.09 176.36,150.92 176.45,150.69 C 176.54,150.47 176.57,150.23 176.57,150.0 C 176.57,149.77 176.54,149.56 176.45,149.34 C 176.35,149.11 176.23,148.91 176.07,148.75 C 175.9,148.59 175.71,148.48 175.48,148.38 C 175.25,148.28 175.01,148.22 174.79,148.22 z" />
		
		<text style="font-size:10px;font-family:z_boli;stroke:none;fill:#00f;text-anchor:middle" transform="matrix(1 0 0 1 150 150)" class="txt"></text>	
			
		<cam mingh:cam="--actions=EditSelectAll;ObjectToPath;ZoomPage;ZoomCenterPage;FileVacuum;FileSave; -g" mingh:style="source:microprism">M2</cam> 
	</g>
</svg>
