<?xml version="1.0" encoding="UTF-8" standalone="no"?>

<svg xmlns="http://www.w3.org/2000/svg" xmlns:mingh="http://www.minghworld.com" xmlns:svg="http://www.w3.org/2000/svg" xmlns:xlink="http://www.w3.org/1999/xlink" height="300px" width="300px">
  
  <g>
    <path style="fill:none;stroke:#fb0;stroke-width:0.25px"
		d="M 150.0,171.96 C 150.38,171.78 150.75,171.59 151.1,171.39 C 151.31,171.28 151.5,171.17 151.69,171.05 C 152.0,170.86 152.31,170.65 152.6,170.44 C 152.91,170.22 153.2,169.99 153.49,169.76 C 153.78,169.52 154.07,169.28 154.34,169.02 C 154.63,168.76 154.91,168.49 155.17,168.21 C 155.44,167.93 155.68,167.63 155.91,167.32 C 156.13,167.01 156.32,166.68 156.49,166.34 C 156.65,166.01 156.78,165.67 156.88,165.32 C 156.98,164.97 157.04,164.61 157.07,164.25 C 157.1,163.92 157.1,163.6 157.07,163.27 C 157.04,163.0 157.0,162.74 156.92,162.48 C 156.84,162.23 156.73,161.98 156.6,161.75 C 156.47,161.53 156.32,161.33 156.14,161.14 C 155.97,160.96 155.78,160.81 155.57,160.67 C 155.37,160.53 155.14,160.42 154.9,160.33 C 154.72,160.26 154.53,160.21 154.34,160.18 C 154.07,160.13 153.79,160.12 153.51,160.12 C 153.25,160.13 152.98,160.16 152.71,160.22 C 152.48,160.28 152.24,160.36 152.03,160.47 C 151.93,160.52 151.82,160.58 151.73,160.65 C 151.64,160.71 151.54,160.78 151.47,160.86 C 151.39,160.93 151.31,161.0 151.23,161.08 C 151.15,161.16 151.07,161.24 151.01,161.33 C 150.85,161.52 150.72,161.73 150.59,161.94 C 150.45,162.19 150.32,162.46 150.21,162.72 C 150.14,162.89 150.07,163.05 150.01,163.22 C 149.94,163.05 149.87,162.89 149.79,162.72 C 149.69,162.46 149.56,162.19 149.42,161.94 C 149.29,161.73 149.15,161.52 149.0,161.33 C 148.85,161.16 148.71,161.0 148.54,160.86 C 148.46,160.78 148.37,160.71 148.28,160.65 C 148.18,160.58 148.07,160.52 147.98,160.47 C 147.76,160.36 147.53,160.28 147.29,160.22 C 147.03,160.16 146.76,160.13 146.5,160.12 C 146.22,160.12 145.94,160.13 145.67,160.18 C 145.48,160.21 145.29,160.26 145.1,160.33 C 144.87,160.42 144.64,160.53 144.43,160.67 C 144.23,160.81 144.04,160.96 143.87,161.14 C 143.69,161.33 143.54,161.53 143.41,161.75 C 143.28,161.98 143.17,162.23 143.09,162.48 C 143.01,162.74 142.96,163.0 142.93,163.27 C 142.9,163.6 142.9,163.92 142.93,164.25 C 142.96,164.61 143.03,164.97 143.13,165.32 C 143.23,165.67 143.35,166.01 143.51,166.34 C 143.6,166.51 143.69,166.67 143.79,166.83 C 143.89,167.0 143.99,167.16 144.1,167.32 C 144.32,167.63 144.57,167.93 144.84,168.21 C 145.1,168.49 145.38,168.76 145.67,169.02 C 145.81,169.15 145.95,169.28 146.09,169.4 C 146.23,169.52 146.38,169.64 146.51,169.76 C 146.81,169.99 147.1,170.22 147.4,170.44 C 147.88,170.78 148.38,171.1 148.9,171.39 C 149.26,171.59 149.63,171.78 150.0,171.96 z M 178.35,150.0 C 178.35,157.53 175.37,164.72 170.05,170.04 C 164.73,175.37 157.53,178.35 150.01,178.35 C 142.48,178.35 135.29,175.37 129.96,170.04 C 124.64,164.72 121.66,157.53 121.66,150.0 C 121.66,142.47 124.64,135.28 129.96,129.96 C 135.28,124.63 142.48,121.65 150.01,121.65 C 157.53,121.65 164.72,124.63 170.05,129.96 C 175.37,135.28 178.35,142.47 178.35,150.0 z M 126.54,145.06 C 125.83,145.06 125.23,145.32 124.68,145.84 C 124.16,146.37 123.9,147.0 123.9,147.72 C 123.9,149.24 123.9,150.76 123.9,152.28 C 123.9,153.0 124.16,153.63 124.68,154.16 C 125.23,154.68 125.83,154.94 126.54,154.94 C 127.23,154.94 127.87,154.68 128.41,154.16 C 128.94,153.63 129.19,153.0 129.19,152.28 C 129.19,150.76 129.19,149.24 129.19,147.72 C 129.19,147.0 128.94,146.37 128.41,145.84 C 127.87,145.32 127.23,145.06 126.54,145.06 z M 173.47,145.06 C 172.78,145.06 172.14,145.32 171.6,145.84 C 171.07,146.37 170.82,147.0 170.82,147.72 C 170.82,149.24 170.82,150.76 170.82,152.28 C 170.82,153.0 171.07,153.63 171.6,154.16 C 172.14,154.68 172.78,154.94 173.47,154.94 C 174.18,154.94 174.78,154.68 175.33,154.16 C 175.85,153.63 176.11,153.0 176.11,152.28 C 176.11,150.76 176.11,149.24 176.11,147.72 C 176.11,147.0 175.85,146.37 175.33,145.84 C 174.78,145.32 174.18,145.06 173.47,145.06 z" />
		
		<text style="font-size:10px;font-family:z_boli;stroke:none;fill:#00f;text-anchor:middle" transform="matrix(1 0 0 1 150 150)" class="txt"></text>	
			
		<cam mingh:cam="--actions=EditSelectAll;ObjectToPath;ZoomPage;ZoomCenterPage;FileVacuum;FileSave; -g" mingh:style="source:microprism">M2</cam> 
  </g>
</svg>
