<?xml version="1.0" encoding="UTF-8" standalone="no"?>

<svg
   xmlns:xlink="http://www.w3.org/1999/xlink"
   xmlns:svg="http://www.w3.org/2000/svg"
   xmlns="http://www.w3.org/2000/svg"
   xmlns:mingh="http://www.minghworld.com"
   width="300px"
   height="300px" >
	
	<g>
		<path style="fill:none;stroke:#fb0;stroke-width:0.25px"
			d="M 153.16,126.88 C 153.16,125.13 151.75,123.71 150.0,123.71 C 148.24,123.71 146.83,125.13 146.83,126.88 C 146.83,128.63 148.24,130.05 150.0,130.05 C 151.75,130.05 153.16,128.63 153.16,126.88 z M 178.35,150.0 C 178.35,157.53 175.37,164.72 170.04,170.04 C 164.72,175.37 157.53,178.35 150.0,178.35 C 142.47,178.35 135.28,175.37 129.96,170.04 C 124.63,164.72 121.65,157.53 121.65,150.0 C 121.65,142.47 124.63,135.28 129.96,129.96 C 135.28,124.63 142.47,121.65 150.0,121.65 C 157.53,121.65 164.72,124.63 170.04,129.96 C 175.37,135.28 178.35,142.47 178.35,150.0 z M 152.61,167.41 C 153.57,167.3 154.52,167.23 155.48,167.22 C 156.44,167.2 157.39,167.23 158.35,167.21 C 159.48,167.18 160.1,167.07 161.18,166.78 C 161.42,166.72 161.65,166.65 161.87,166.57 C 162.13,166.48 162.25,166.41 162.47,166.24 C 162.55,166.18 162.63,166.11 162.71,166.03 C 162.73,166.01 162.74,165.99 162.76,165.97 C 162.77,165.96 162.78,165.95 162.79,165.94 C 162.8,165.93 162.8,165.93 162.81,165.92 C 162.81,165.92 162.8,165.92 162.79,165.92 C 162.79,165.92 162.79,165.92 162.78,165.92 C 162.72,165.9 162.66,165.89 162.6,165.88 C 162.38,165.84 162.15,165.81 161.93,165.8 C 161.32,165.75 161.05,165.81 160.44,165.8 C 159.91,165.8 159.58,165.71 159.11,165.49 C 158.68,165.29 158.29,165.05 157.9,164.8 C 157.51,164.54 157.14,164.26 156.76,164.0 C 156.31,163.69 156.03,163.53 155.46,163.63 C 155.21,163.67 154.97,163.74 154.73,163.8 C 154.64,163.83 154.51,163.89 154.41,163.82 C 154.31,163.75 154.34,163.61 154.35,163.52 C 154.37,163.26 154.39,163.0 154.41,162.73 C 154.42,162.47 154.37,162.29 154.14,162.13 C 153.95,161.99 153.73,161.89 153.52,161.77 C 153.31,161.65 153.11,161.53 152.9,161.4 C 152.05,160.87 151.38,160.3 150.97,159.34 C 150.77,158.89 150.65,158.44 150.57,157.96 C 150.55,157.84 150.53,157.72 150.52,157.6 C 150.51,157.54 150.5,157.48 150.49,157.42 C 150.49,157.38 150.49,157.35 150.48,157.32 C 150.48,157.32 150.48,157.31 150.48,157.31 C 150.48,157.31 150.48,157.31 150.47,157.31 C 150.47,157.32 150.47,157.32 150.46,157.32 C 150.45,157.33 150.44,157.34 150.43,157.35 C 150.29,157.52 150.21,157.71 150.14,157.91 C 150.0,158.32 149.89,158.85 149.85,159.28 C 149.8,159.76 149.8,160.23 149.86,160.7 C 149.97,161.67 150.26,162.57 150.59,163.48 C 150.89,164.32 151.26,165.29 151.24,166.23 C 151.22,166.73 151.09,167.16 150.87,167.59 C 150.65,168.03 150.4,168.43 150.12,168.83 C 149.85,169.23 149.56,169.61 149.28,170.01 C 149.15,170.2 149.02,170.39 148.9,170.59 C 148.84,170.69 148.79,170.79 148.74,170.89 C 148.72,170.95 148.69,171.0 148.67,171.05 C 148.65,171.1 148.63,171.15 148.59,171.2 C 148.54,171.24 148.49,171.25 148.44,171.26 C 148.38,171.27 148.32,171.28 148.26,171.29 C 148.14,171.3 148.03,171.32 147.91,171.34 C 147.67,171.38 147.44,171.41 147.2,171.44 C 146.73,171.51 146.26,171.57 145.79,171.61 C 143.84,171.8 142.06,171.8 140.12,171.49 C 139.18,171.35 138.25,171.15 137.34,170.89 C 137.28,170.87 137.22,170.86 137.17,170.84 C 137.14,170.83 137.11,170.82 137.08,170.81 C 137.08,170.81 137.08,170.81 137.07,170.81 C 137.07,170.81 137.06,170.8 137.06,170.81 C 137.07,170.81 137.07,170.82 137.08,170.82 C 137.09,170.83 137.1,170.84 137.12,170.85 C 137.21,170.92 137.31,170.98 137.41,171.05 C 137.61,171.18 137.81,171.3 138.01,171.42 C 138.43,171.65 138.86,171.85 139.3,172.03 C 141.08,172.76 142.93,173.1 144.85,173.07 C 145.81,173.06 146.74,172.96 147.68,172.82 C 148.62,172.67 149.55,172.5 150.49,172.37 C 152.39,172.11 154.25,171.98 156.17,172.14 C 157.12,172.22 158.05,172.36 158.98,172.57 C 159.44,172.67 159.9,172.78 160.36,172.91 C 160.42,172.92 160.47,172.94 160.53,172.96 C 160.56,172.96 160.59,172.97 160.62,172.98 C 160.63,172.99 160.64,172.99 160.66,172.99 C 160.67,173.0 160.67,173.0 160.68,173.0 C 160.69,173.0 160.67,172.99 160.67,172.99 C 160.57,172.92 160.48,172.85 160.38,172.79 C 160.18,172.65 159.98,172.53 159.77,172.41 C 158.17,171.51 156.16,170.94 154.34,170.79 C 153.87,170.75 153.39,170.73 152.92,170.73 C 152.8,170.74 152.68,170.74 152.56,170.74 C 152.5,170.74 152.28,170.76 152.21,170.73 C 152.11,170.68 152.1,170.52 152.08,170.44 C 152.06,170.32 152.04,170.2 152.02,170.08 C 151.97,169.6 151.98,169.14 152.07,168.66 C 152.12,168.43 152.18,168.2 152.26,167.97 C 152.3,167.86 152.34,167.75 152.39,167.64 C 152.44,167.53 152.46,167.43 152.61,167.41 z" />
			
		<text style="font-size:10px;font-family:z_boli;stroke:none;fill:#00f;text-anchor:middle" transform="matrix(1 0 0 1 150 150)" class="txt"></text>	
			
		<cam mingh:cam="--actions=EditSelectAll;ObjectToPath;ZoomPage;ZoomCenterPage;FileVacuum;FileSave; -g" mingh:style="source:microprism">M2</cam> 
	</g>		
</svg>
