<?xml version="1.0" encoding="UTF-8" standalone="no"?>

<svg
   xmlns:xlink="http://www.w3.org/1999/xlink"
   xmlns:svg="http://www.w3.org/2000/svg"
   xmlns="http://www.w3.org/2000/svg"
   xmlns:mingh="http://www.minghworld.com"
   width="300px"
   height="300px" >
   
	<g>
		<path style="fill:none;stroke:#fb0;stroke-width:0.25px"
			d="M 153.16,126.88 C 153.16,125.13 151.75,123.71 150.0,123.71 C 148.24,123.71 146.83,125.13 146.83,126.88 C 146.83,128.63 148.24,130.05 150.0,130.05 C 151.75,130.05 153.16,128.63 153.16,126.88 z M 178.35,150.0 C 178.35,157.53 175.37,164.72 170.04,170.04 C 164.72,175.37 157.53,178.35 150.0,178.35 C 142.47,178.35 135.28,175.37 129.96,170.04 C 124.63,164.72 121.65,157.53 121.65,150.0 C 121.65,142.47 124.63,135.28 129.96,129.96 C 135.28,124.63 142.47,121.65 150.0,121.65 C 157.53,121.65 164.72,124.63 170.04,129.96 C 175.37,135.28 178.35,142.47 178.35,150.0 z M 151.73,165.74 C 151.65,165.68 151.57,165.61 151.46,165.51 C 151.36,165.41 151.23,165.29 151.12,165.19 C 150.88,164.96 150.55,164.62 150.29,164.22 C 150.14,164.01 150.28,163.82 150.53,163.89 C 151.23,164.1 151.92,164.42 152.55,164.81 C 152.97,165.08 153.37,165.37 153.75,165.7 C 154.13,166.02 154.48,166.37 154.8,166.74 C 155.15,167.15 155.47,167.58 155.74,168.04 C 155.76,168.06 155.77,168.08 155.78,168.1 C 155.85,168.22 155.84,168.3 155.72,168.39 C 155.53,168.53 155.35,168.71 155.21,168.9 C 154.91,169.3 154.73,169.78 154.63,170.28 C 154.54,170.72 154.51,171.16 154.51,171.6 C 154.52,171.7 154.52,171.8 154.53,171.9 C 154.53,172.0 154.55,172.1 154.57,172.19 C 154.58,172.24 154.6,172.28 154.62,172.33 C 154.62,172.35 154.63,172.37 154.64,172.39 C 154.65,172.4 154.65,172.42 154.66,172.43 C 154.67,172.44 154.68,172.46 154.69,172.47 C 154.7,172.49 154.71,172.5 154.73,172.51 C 154.76,172.53 154.8,172.55 154.84,172.57 C 154.87,172.58 154.9,172.58 154.94,172.59 C 154.98,172.59 155.01,172.59 155.05,172.59 C 155.11,172.59 155.16,172.58 155.2,172.56 C 155.23,172.55 155.25,172.54 155.28,172.53 C 155.3,172.52 155.32,172.5 155.34,172.49 C 155.41,172.44 155.48,172.39 155.55,172.34 C 155.71,172.22 155.86,172.11 156.01,171.99 C 156.22,171.84 156.44,171.7 156.64,171.52 C 156.8,171.39 156.94,171.24 157.04,171.06 C 157.13,170.91 157.24,170.89 157.38,171.0 C 157.41,171.02 157.44,171.05 157.47,171.07 C 157.53,171.12 157.6,171.17 157.67,171.21 C 157.77,171.28 157.88,171.34 157.99,171.39 C 158.1,171.45 158.22,171.5 158.34,171.54 C 158.47,171.6 158.61,171.64 158.75,171.69 C 159.0,171.76 159.25,171.83 159.51,171.86 C 159.55,171.87 159.59,171.88 159.64,171.88 C 159.69,171.88 159.73,171.88 159.78,171.87 C 159.82,171.86 159.85,171.85 159.88,171.84 C 159.93,171.83 159.97,171.81 160.01,171.78 C 160.04,171.75 160.07,171.71 160.09,171.67 C 160.1,171.65 160.11,171.62 160.12,171.6 C 160.13,171.57 160.13,171.54 160.14,171.52 C 160.14,171.5 160.14,171.47 160.14,171.45 C 160.15,171.4 160.14,171.35 160.14,171.3 C 160.13,171.2 160.11,171.1 160.09,171.0 C 160.02,170.67 159.93,170.34 159.81,170.02 C 159.65,169.62 159.43,169.25 159.14,168.93 C 158.73,168.47 158.19,168.11 157.59,167.97 C 157.57,167.97 157.55,167.97 157.53,167.96 C 157.39,167.94 157.34,167.87 157.35,167.73 C 157.36,167.49 157.36,167.25 157.34,167.01 C 157.3,166.64 157.22,166.27 157.12,165.91 C 157.04,165.63 156.95,165.36 156.84,165.09 C 156.74,164.83 156.63,164.58 156.51,164.33 C 156.29,163.85 156.03,163.39 155.74,162.94 C 155.58,162.7 155.41,162.47 155.23,162.24 C 154.96,161.89 154.66,161.55 154.34,161.24 C 154.15,161.04 153.94,160.86 153.73,160.68 C 153.53,160.5 153.32,160.33 153.1,160.18 C 153.01,160.11 152.98,160.04 153.02,159.93 C 153.06,159.77 153.13,159.61 153.23,159.47 C 153.37,159.27 153.55,159.11 153.75,158.99 C 153.84,158.93 153.93,158.88 154.03,158.84 C 154.12,158.8 154.22,158.76 154.32,158.73 C 154.41,158.7 154.51,158.68 154.6,158.66 C 154.7,158.65 154.79,158.64 154.89,158.63 C 154.91,158.63 154.93,158.63 154.95,158.63 C 154.97,158.63 154.99,158.62 155.0,158.62 C 155.02,158.62 155.03,158.62 155.05,158.61 C 155.07,158.6 155.1,158.6 155.12,158.58 C 155.14,158.57 155.15,158.56 155.17,158.54 C 155.2,158.5 155.22,158.46 155.22,158.42 C 155.23,158.39 155.23,158.37 155.22,158.35 C 155.22,158.32 155.21,158.3 155.19,158.28 C 155.18,158.25 155.16,158.23 155.14,158.21 C 155.11,158.19 155.08,158.16 155.05,158.14 C 154.84,158.0 154.63,157.88 154.41,157.77 C 154.21,157.67 154.0,157.59 153.79,157.52 C 153.59,157.46 153.39,157.41 153.18,157.37 C 152.97,157.33 152.76,157.31 152.55,157.3 C 152.33,157.29 152.1,157.3 151.88,157.33 C 151.65,157.36 151.42,157.41 151.2,157.47 C 151.08,157.51 150.96,157.54 150.85,157.59 C 150.72,157.64 150.58,157.7 150.45,157.77 C 150.17,157.91 149.91,158.07 149.66,158.27 C 149.6,158.32 149.54,158.33 149.46,158.3 C 149.21,158.22 148.96,158.15 148.71,158.09 C 148.53,158.05 148.35,158.02 148.17,157.98 C 148.02,157.96 147.86,157.93 147.71,157.91 C 147.52,157.89 147.34,157.87 147.16,157.86 C 146.91,157.85 146.66,157.84 146.41,157.85 C 146.19,157.86 145.97,157.87 145.75,157.9 C 145.53,157.93 145.32,157.97 145.11,158.03 C 144.91,158.08 144.71,158.14 144.51,158.21 C 144.33,158.28 144.15,158.36 143.98,158.46 C 143.81,158.55 143.65,158.64 143.49,158.75 C 143.37,158.84 143.25,158.93 143.14,159.03 C 142.98,159.16 142.84,159.3 142.71,159.46 C 142.61,159.58 142.51,159.71 142.43,159.85 C 142.35,159.97 142.28,160.1 142.22,160.23 C 142.15,160.37 142.09,160.52 142.04,160.67 C 141.91,161.02 141.82,161.38 141.76,161.75 C 141.75,161.82 141.72,161.87 141.66,161.9 C 141.46,162.03 141.26,162.17 141.08,162.33 C 140.87,162.49 140.67,162.68 140.49,162.87 C 140.38,162.98 140.28,163.09 140.18,163.21 C 140.06,163.37 139.95,163.53 139.84,163.69 C 139.79,163.77 139.76,163.86 139.77,163.96 C 139.77,164.05 139.81,164.14 139.86,164.21 C 139.92,164.29 140.01,164.34 140.1,164.37 C 140.14,164.38 140.19,164.38 140.24,164.38 C 140.28,164.38 140.33,164.37 140.37,164.35 C 141.22,164.03 142.1,163.77 143.0,163.58 C 143.26,163.53 143.53,163.48 143.79,163.44 C 144.02,163.4 144.26,163.37 144.49,163.34 C 144.94,163.29 145.4,163.25 145.85,163.2 C 145.98,163.19 146.12,163.17 146.23,163.17 C 146.33,163.17 146.39,163.2 146.43,163.29 C 146.48,163.38 146.53,163.47 146.59,163.56 C 146.75,163.84 146.95,164.1 147.16,164.35 C 147.33,164.54 147.51,164.73 147.71,164.91 C 147.87,165.04 148.03,165.17 148.2,165.29 C 148.36,165.4 148.53,165.5 148.7,165.6 C 148.87,165.69 149.05,165.77 149.23,165.84 C 149.42,165.92 149.63,165.98 149.83,166.03 C 149.91,166.05 149.99,166.07 150.07,166.08 C 150.19,166.11 150.3,166.12 150.41,166.14 C 150.6,166.16 150.79,166.18 150.98,166.18 C 151.12,166.18 151.27,166.18 151.42,166.17 C 151.48,166.17 151.55,166.17 151.62,166.16 C 151.66,166.15 151.69,166.15 151.73,166.14 C 151.77,166.14 151.8,166.13 151.83,166.12 C 151.85,166.12 151.86,166.11 151.88,166.11 C 151.9,166.1 151.93,166.09 151.95,166.07 C 151.95,166.06 151.96,166.06 151.97,166.05 C 151.97,166.04 151.98,166.03 151.98,166.02 C 151.98,166.01 151.98,166.0 151.98,165.99 C 151.98,165.97 151.98,165.97 151.98,165.96 C 151.97,165.94 151.96,165.92 151.94,165.9 C 151.93,165.89 151.92,165.88 151.9,165.87 C 151.89,165.85 151.87,165.84 151.85,165.83 C 151.81,165.8 151.77,165.77 151.73,165.74 z M 147.11,171.79 C 146.96,171.67 146.81,171.54 146.69,171.33 C 146.68,171.31 146.66,171.28 146.65,171.26 C 146.56,171.08 146.63,170.96 146.83,170.94 C 147.21,170.91 147.59,170.9 147.97,170.94 C 148.27,170.97 148.57,171.03 148.87,171.1 C 149.09,171.16 149.3,171.22 149.51,171.3 C 149.66,171.35 149.8,171.4 149.94,171.46 C 150.06,171.51 150.1,171.58 150.07,171.71 C 150.06,171.75 150.06,171.78 150.05,171.82 C 150.05,171.85 150.05,171.89 150.04,171.92 C 150.04,172.0 150.04,172.07 150.05,172.15 C 150.07,172.23 150.08,172.31 150.11,172.38 C 150.14,172.49 150.19,172.6 150.24,172.7 C 150.33,172.87 150.43,173.03 150.55,173.17 C 150.58,173.21 150.61,173.24 150.64,173.28 C 150.66,173.31 150.69,173.33 150.71,173.36 C 150.76,173.4 150.8,173.45 150.85,173.48 C 150.87,173.5 150.9,173.51 150.92,173.52 C 150.94,173.53 150.95,173.54 150.97,173.55 C 150.98,173.56 150.99,173.56 151.01,173.56 C 151.02,173.57 151.03,173.57 151.04,173.57 C 151.06,173.57 151.08,173.57 151.1,173.57 C 151.12,173.56 151.14,173.56 151.16,173.55 C 151.18,173.54 151.2,173.53 151.22,173.51 C 151.24,173.5 151.25,173.49 151.26,173.48 C 151.28,173.46 151.3,173.44 151.31,173.42 C 151.32,173.4 151.33,173.38 151.34,173.36 C 151.36,173.3 151.38,173.24 151.39,173.18 C 151.43,173.06 151.46,172.94 151.5,172.82 C 151.52,172.75 151.54,172.69 151.55,172.62 C 151.57,172.55 151.57,172.48 151.57,172.4 C 151.57,172.25 151.63,172.18 151.78,172.17 C 151.93,172.16 152.08,172.13 152.23,172.08 C 152.4,172.02 152.57,171.95 152.73,171.85 C 152.77,171.82 152.8,171.8 152.84,171.77 C 152.86,171.76 152.88,171.74 152.89,171.73 C 152.91,171.71 152.92,171.69 152.93,171.66 C 152.94,171.64 152.95,171.61 152.96,171.59 C 152.96,171.57 152.96,171.56 152.96,171.54 C 152.95,171.53 152.95,171.52 152.95,171.51 C 152.94,171.49 152.93,171.47 152.92,171.46 C 152.91,171.44 152.89,171.41 152.87,171.39 C 152.84,171.36 152.81,171.34 152.78,171.32 C 152.71,171.27 152.64,171.22 152.57,171.18 C 152.43,171.08 152.27,171.0 152.11,170.94 C 152.01,170.9 151.91,170.87 151.81,170.84 C 151.73,170.82 151.64,170.81 151.55,170.8 C 151.44,170.78 151.32,170.78 151.2,170.79 C 151.09,170.8 150.98,170.82 150.87,170.85 C 150.84,170.86 150.8,170.88 150.76,170.89 C 150.66,170.93 150.59,170.92 150.51,170.83 C 150.47,170.78 150.42,170.72 150.37,170.66 C 150.28,170.56 150.17,170.46 150.07,170.36 C 149.95,170.26 149.82,170.16 149.7,170.07 C 149.54,169.95 149.38,169.84 149.22,169.73 C 149.04,169.61 148.86,169.5 148.67,169.39 C 148.5,169.29 148.32,169.19 148.14,169.11 C 147.97,169.03 147.8,168.96 147.63,168.9 C 147.49,168.84 147.34,168.8 147.2,168.75 C 147.05,168.7 147.01,168.62 147.06,168.47 C 147.09,168.39 147.12,168.31 147.15,168.23 C 147.17,168.17 147.19,168.1 147.22,168.04 C 147.25,167.99 147.28,167.94 147.31,167.89 C 147.34,167.84 147.38,167.79 147.41,167.74 C 147.45,167.7 147.48,167.67 147.52,167.63 C 147.55,167.6 147.58,167.57 147.61,167.54 C 147.64,167.52 147.67,167.5 147.69,167.47 C 147.72,167.45 147.75,167.42 147.76,167.38 C 147.76,167.37 147.77,167.35 147.77,167.34 C 147.77,167.33 147.77,167.32 147.77,167.32 C 147.76,167.31 147.76,167.3 147.76,167.29 C 147.76,167.28 147.75,167.28 147.75,167.27 C 147.75,167.26 147.74,167.26 147.73,167.25 C 147.73,167.24 147.72,167.24 147.72,167.23 C 147.7,167.23 147.69,167.22 147.68,167.21 C 147.66,167.21 147.64,167.2 147.61,167.2 C 147.59,167.2 147.57,167.2 147.54,167.19 C 147.5,167.19 147.47,167.19 147.43,167.19 C 147.33,167.2 147.24,167.21 147.15,167.22 C 147.04,167.24 146.94,167.27 146.84,167.31 C 146.75,167.34 146.67,167.38 146.59,167.42 C 146.51,167.46 146.43,167.51 146.35,167.56 C 146.25,167.62 146.16,167.69 146.07,167.76 C 145.98,167.84 145.89,167.92 145.8,168.0 C 145.75,168.06 145.69,168.12 145.64,168.18 C 145.56,168.29 145.48,168.4 145.41,168.51 C 145.37,168.58 145.32,168.61 145.25,168.62 C 145.08,168.64 144.92,168.66 144.76,168.69 C 144.6,168.73 144.44,168.77 144.29,168.81 C 144.08,168.88 143.87,168.95 143.67,169.05 C 143.58,169.09 143.49,169.14 143.4,169.19 C 143.31,169.24 143.23,169.29 143.15,169.35 C 143.07,169.41 143.0,169.47 142.93,169.53 C 142.86,169.59 142.8,169.66 142.74,169.72 C 142.68,169.79 142.62,169.86 142.57,169.93 C 142.54,169.97 142.51,170.02 142.48,170.06 C 142.43,170.15 142.38,170.24 142.34,170.34 C 142.31,170.41 142.28,170.48 142.27,170.55 C 142.25,170.62 142.23,170.69 142.22,170.75 C 142.21,170.83 142.2,170.91 142.19,170.99 C 142.18,171.16 142.18,171.32 142.2,171.48 C 142.21,171.55 142.19,171.6 142.15,171.65 C 142.08,171.73 142.02,171.81 141.96,171.89 C 141.9,171.97 141.85,172.05 141.8,172.13 C 141.75,172.2 141.71,172.27 141.68,172.35 C 141.65,172.4 141.63,172.46 141.61,172.51 C 141.58,172.57 141.55,172.62 141.53,172.69 C 141.52,172.73 141.51,172.78 141.52,172.82 C 141.52,172.86 141.53,172.91 141.56,172.94 C 141.57,172.96 141.58,172.97 141.6,172.99 C 141.61,173.0 141.63,173.01 141.65,173.02 C 141.69,173.03 141.74,173.04 141.78,173.03 C 141.8,173.03 141.83,173.03 141.85,173.02 C 141.87,173.01 141.89,173.0 141.91,172.98 C 142.13,172.81 142.36,172.66 142.6,172.51 C 142.92,172.32 143.24,172.14 143.58,171.98 C 143.82,171.86 144.07,171.74 144.33,171.64 C 144.35,171.63 144.38,171.62 144.41,171.61 C 144.49,171.58 144.55,171.58 144.61,171.63 C 144.68,171.68 144.74,171.73 144.81,171.78 C 144.84,171.8 144.87,171.83 144.91,171.86 C 144.96,171.9 145.01,171.94 145.06,171.97 C 145.14,172.04 145.24,172.1 145.33,172.15 C 145.48,172.23 145.63,172.29 145.79,172.35 C 145.88,172.37 145.97,172.4 146.05,172.41 C 146.11,172.43 146.18,172.44 146.24,172.45 C 146.34,172.46 146.44,172.46 146.53,172.46 C 146.6,172.46 146.66,172.46 146.72,172.46 C 146.79,172.46 146.86,172.45 146.93,172.45 C 147.06,172.43 147.19,172.42 147.32,172.38 C 147.38,172.37 147.43,172.35 147.49,172.33 C 147.51,172.32 147.53,172.32 147.54,172.31 C 147.55,172.3 147.56,172.3 147.57,172.29 C 147.58,172.29 147.59,172.28 147.6,172.27 C 147.61,172.26 147.61,172.26 147.62,172.25 C 147.62,172.24 147.63,172.23 147.63,172.23 C 147.63,172.22 147.63,172.21 147.63,172.2 C 147.63,172.19 147.63,172.18 147.62,172.17 C 147.62,172.16 147.61,172.16 147.61,172.15 C 147.6,172.15 147.6,172.14 147.59,172.14 C 147.57,172.12 147.55,172.11 147.54,172.1 C 147.48,172.07 147.42,172.03 147.37,171.99 C 147.28,171.92 147.2,171.86 147.11,171.79 z" />
			
			<text style="font-size:10px;font-family:z_boli;stroke:none;fill:#00f;text-anchor:middle" transform="matrix(1 0 0 1 150 150)" class="txt"></text>	
			
		<cam mingh:cam="--actions=EditSelectAll;ObjectToPath;ZoomPage;ZoomCenterPage;FileVacuum;FileSave; -g" mingh:style="source:microprism">M2</cam> 
	</g>		
</svg>
