<?xml version="1.0" encoding="UTF-8" standalone="no"?>
<svg xmlns="http://www.w3.org/2000/svg" xmlns:mingh="http://www.minghworld.com" xmlns:svg="http://www.w3.org/2000/svg" xmlns:xlink="http://www.w3.org/1999/xlink" height="300px" width="300px">
   
	<g>
		<path style="fill:none;stroke:#fb0;stroke-width:0.25px"
			d="M 150.16,166.34 C 152.85,166.97 155.47,167.76 158.04,168.72 C 158.62,168.93 159.18,169.15 159.74,169.38 C 159.88,169.43 160.01,169.49 160.16,169.55 C 160.18,169.55 160.2,169.56 160.22,169.57 C 160.22,169.57 160.24,169.55 160.24,169.55 C 160.24,169.54 160.25,169.54 160.26,169.53 C 160.29,169.5 160.32,169.47 160.35,169.44 C 160.35,169.43 160.38,169.41 160.39,169.4 C 160.4,169.39 160.38,169.38 160.38,169.37 C 160.37,169.37 160.35,169.36 160.35,169.35 C 160.32,169.31 160.29,169.27 160.26,169.24 C 160.03,168.93 159.88,168.6 159.78,168.22 C 159.44,166.91 159.67,165.2 160.35,164.02 C 160.7,163.43 161.22,162.94 161.91,162.76 C 162.64,162.58 163.28,162.82 163.75,163.38 C 164.19,163.9 164.4,164.63 164.47,165.28 C 164.53,165.96 164.45,166.68 164.25,167.33 C 164.14,167.67 164.03,167.97 163.72,168.2 C 163.46,168.41 163.07,168.52 162.75,168.44 C 162.4,168.37 162.12,168.11 161.95,167.82 C 161.76,167.51 161.71,167.19 161.7,166.83 C 161.67,166.18 161.75,165.52 162.13,164.94 C 162.18,164.87 162.23,164.8 162.29,164.74 C 162.34,164.7 162.38,164.67 162.43,164.65 C 162.46,164.63 162.48,164.62 162.51,164.61 C 162.51,164.6 162.51,164.6 162.53,164.6 C 162.54,164.59 162.54,164.58 162.54,164.57 C 162.54,164.48 162.51,164.4 162.47,164.32 C 162.46,164.28 162.44,164.24 162.41,164.21 C 162.4,164.19 162.38,164.17 162.37,164.16 C 162.34,164.14 162.32,164.15 162.29,164.16 C 161.96,164.25 161.73,164.59 161.57,164.86 C 161.26,165.47 161.12,166.17 161.1,166.85 C 161.1,167.54 161.23,168.22 161.82,168.7 C 162.09,168.92 162.41,169.07 162.76,169.12 C 163.07,169.16 163.47,169.09 163.76,168.95 C 164.1,168.79 164.3,168.54 164.48,168.23 C 164.65,167.93 164.77,167.61 164.86,167.28 C 165.04,166.58 165.07,165.9 165.0,165.19 C 164.94,164.53 164.75,163.77 164.36,163.2 C 164.02,162.7 163.38,162.23 162.76,162.15 C 162.56,162.12 161.95,162.12 161.75,162.11 C 161.4,162.1 161.04,162.08 160.7,162.07 C 157.94,161.93 155.23,161.63 152.51,161.15 C 152.2,161.1 151.9,161.04 151.59,160.98 C 151.4,160.95 151.21,160.89 151.0,160.91 C 150.71,160.94 150.45,161.08 150.23,161.27 C 149.93,161.53 149.71,161.86 149.53,162.2 C 149.39,162.49 149.28,162.77 149.2,163.08 C 149.04,163.67 148.99,164.32 149.1,164.93 C 149.16,165.24 149.25,165.53 149.43,165.8 C 149.51,165.93 149.62,166.05 149.74,166.14 C 149.87,166.24 150.01,166.3 150.16,166.34 z M 145.96,167.32 C 143.76,168.28 141.56,169.24 139.35,170.2 C 139.67,170.78 139.99,171.37 140.29,171.95 C 142.54,170.47 144.78,168.98 147.01,167.5 C 146.84,167.47 146.66,167.43 146.47,167.4 C 146.29,167.37 146.13,167.34 145.96,167.32 M 148.01,160.2 C 145.25,159.51 142.57,158.64 139.92,157.6 C 139.84,157.57 139.76,157.54 139.68,157.51 C 139.6,157.48 139.51,157.44 139.44,157.41 C 139.26,157.34 139.1,157.32 138.92,157.32 C 138.54,157.34 138.22,157.47 137.93,157.68 C 137.37,158.09 136.93,158.78 136.67,159.39 C 136.14,160.59 135.94,162.26 136.48,163.53 C 136.63,163.89 136.82,164.17 137.14,164.4 C 137.29,164.5 137.45,164.58 137.63,164.63 C 137.81,164.68 137.99,164.67 138.17,164.68 C 138.85,164.71 139.54,164.75 140.24,164.81 C 141.65,164.91 143.06,165.07 144.47,165.27 C 145.06,165.35 145.65,165.44 146.24,165.54 C 146.38,165.57 146.53,165.6 146.68,165.62 C 146.71,165.63 146.75,165.63 146.79,165.64 C 146.81,165.64 146.82,165.65 146.84,165.65 C 146.85,165.65 146.84,165.65 146.84,165.64 C 146.84,165.64 146.82,165.63 146.82,165.63 C 146.82,165.62 146.81,165.61 146.81,165.6 C 146.79,165.58 146.78,165.56 146.76,165.53 C 146.66,165.36 146.57,165.19 146.51,165.0 C 146.4,164.64 146.34,164.28 146.32,163.91 C 146.31,163.28 146.4,162.69 146.6,162.1 C 146.71,161.81 146.84,161.53 147.0,161.27 C 147.07,161.13 147.16,161.01 147.25,160.89 C 147.47,160.6 147.7,160.37 148.01,160.2 z M 148.69,167.83 C 148.39,167.76 148.09,167.7 147.79,167.64 C 147.44,169.7 147.09,171.76 146.74,173.82 C 147.41,173.87 148.07,173.92 148.73,173.97 C 148.72,171.92 148.71,169.87 148.69,167.83 z M 178.35,150.0 C 178.35,157.53 175.37,164.72 170.05,170.04 C 164.73,175.37 157.53,178.35 150.01,178.35 C 142.48,178.35 135.29,175.37 129.96,170.04 C 124.64,164.72 121.66,157.53 121.66,150.0 C 121.66,142.47 124.64,135.28 129.96,129.96 C 135.28,124.63 142.48,121.65 150.01,121.65 C 157.53,121.65 164.72,124.63 170.05,129.96 C 175.37,135.28 178.35,142.47 178.35,150.0 z M 125.22,148.22 C 125.0,148.22 124.76,148.28 124.53,148.38 C 124.3,148.48 124.11,148.59 123.94,148.75 C 123.78,148.91 123.66,149.11 123.56,149.34 C 123.47,149.56 123.44,149.77 123.44,150.0 C 123.44,150.23 123.47,150.47 123.56,150.69 C 123.65,150.92 123.8,151.09 123.94,151.25 C 124.11,151.42 124.31,151.54 124.53,151.63 C 124.74,151.72 124.95,151.78 125.19,151.78 C 125.43,151.78 125.7,151.74 125.92,151.66 C 126.14,151.58 126.32,151.46 126.47,151.28 C 126.63,151.12 126.76,150.92 126.84,150.69 C 126.95,150.47 126.99,150.25 127.0,150.03 C 127.0,149.8 126.95,149.56 126.84,149.34 C 126.76,149.11 126.64,148.91 126.47,148.75 C 126.33,148.59 126.14,148.48 125.92,148.38 C 125.69,148.28 125.44,148.22 125.22,148.22 z M 174.79,148.22 C 174.57,148.22 174.32,148.28 174.09,148.38 C 173.87,148.48 173.68,148.59 173.54,148.75 C 173.37,148.91 173.25,149.11 173.17,149.34 C 173.06,149.56 173.01,149.8 173.01,150.03 C 173.02,150.25 173.06,150.47 173.17,150.69 C 173.25,150.92 173.38,151.12 173.54,151.28 C 173.69,151.46 173.87,151.58 174.09,151.66 C 174.31,151.74 174.58,151.78 174.82,151.78 C 175.06,151.78 175.27,151.72 175.48,151.63 C 175.7,151.54 175.9,151.42 176.07,151.25 C 176.21,151.09 176.36,150.92 176.45,150.69 C 176.54,150.47 176.57,150.23 176.57,150.0 C 176.57,149.77 176.54,149.56 176.45,149.34 C 176.35,149.11 176.23,148.91 176.07,148.75 C 175.9,148.59 175.71,148.48 175.48,148.38 C 175.25,148.28 175.01,148.22 174.79,148.22 z" />
		
		<text style="font-size:10px;font-family:z_boli;stroke:none;fill:#00f;text-anchor:middle" transform="matrix(1 0 0 1 150 150)" class="txt"></text>	
			
		<cam mingh:cam="--actions=EditSelectAll;ObjectToPath;ZoomPage;ZoomCenterPage;FileVacuum;FileSave; -g" mingh:style="source:microprism">M2</cam> 
	</g>
</svg>
