<?xml version="1.0" encoding="UTF-8" standalone="no"?>

<svg
   xmlns:xlink="http://www.w3.org/1999/xlink"
   xmlns:svg="http://www.w3.org/2000/svg"
   xmlns="http://www.w3.org/2000/svg"
   xmlns:mingh="http://www.minghworld.com"
   width="300px"
   height="300px" >
   
	<g>
		<path style="fill:none;stroke:#fb0;stroke-width:0.25px"
			d="M 153.16,126.88 C 153.16,125.13 151.75,123.71 150.0,123.71 C 148.24,123.71 146.83,125.13 146.83,126.88 C 146.83,128.63 148.24,130.05 150.0,130.05 C 151.75,130.05 153.16,128.63 153.16,126.88 z M 178.35,150.0 C 178.35,157.53 175.37,164.72 170.04,170.04 C 164.72,175.37 157.53,178.35 150.0,178.35 C 142.47,178.35 135.28,175.37 129.96,170.04 C 124.63,164.72 121.65,157.53 121.65,150.0 C 121.65,142.47 124.63,135.28 129.96,129.96 C 135.28,124.63 142.47,121.65 150.0,121.65 C 157.53,121.65 164.72,124.63 170.04,129.96 C 175.37,135.28 178.35,142.47 178.35,150.0 z M 152.23,164.28 C 152.28,164.3 152.33,164.33 152.35,164.38 C 152.38,164.43 152.4,164.48 152.39,164.54 C 152.39,164.73 152.38,164.91 152.37,165.1 C 152.37,165.29 152.36,165.48 152.35,165.67 C 152.35,165.86 152.34,166.05 152.33,166.27 C 152.33,166.49 152.32,166.74 152.35,166.82 C 152.43,166.78 152.59,166.59 152.74,166.43 C 152.88,166.26 153.01,166.12 153.13,165.98 C 153.26,165.84 153.38,165.7 153.51,165.56 C 153.63,165.41 153.76,165.27 153.88,165.13 C 153.92,165.09 153.97,165.05 154.02,165.04 C 154.07,165.03 154.13,165.03 154.18,165.06 C 154.36,165.12 154.54,165.18 154.71,165.25 C 154.89,165.31 155.07,165.38 155.25,165.44 C 155.43,165.5 155.6,165.57 155.81,165.64 C 156.02,165.72 156.25,165.81 156.34,165.8 C 156.33,165.72 156.2,165.5 156.09,165.31 C 155.97,165.12 155.88,164.96 155.78,164.8 C 155.69,164.63 155.59,164.47 155.49,164.31 C 155.4,164.15 155.3,163.98 155.21,163.82 C 155.18,163.77 155.16,163.72 155.16,163.66 C 155.17,163.61 155.19,163.56 155.23,163.51 C 155.34,163.37 155.46,163.22 155.57,163.07 C 155.69,162.92 155.81,162.77 155.92,162.62 C 156.04,162.47 156.15,162.32 156.29,162.15 C 156.43,161.97 156.58,161.78 156.6,161.69 C 156.52,161.68 156.27,161.73 156.06,161.78 C 155.84,161.83 155.66,161.87 155.47,161.91 C 155.29,161.95 155.11,161.99 154.92,162.03 C 154.74,162.08 154.55,162.12 154.37,162.16 C 154.31,162.17 154.26,162.17 154.2,162.15 C 154.15,162.13 154.11,162.09 154.08,162.04 C 153.98,161.89 153.87,161.73 153.76,161.57 C 153.66,161.42 153.55,161.26 153.45,161.11 C 153.34,160.95 153.23,160.79 153.11,160.61 C 152.99,160.43 152.85,160.22 152.78,160.17 C 152.73,160.25 152.71,160.5 152.69,160.72 C 152.67,160.94 152.65,161.12 152.64,161.31 C 152.62,161.5 152.6,161.69 152.58,161.88 C 152.56,162.07 152.54,162.25 152.53,162.44 C 152.52,162.5 152.5,162.55 152.47,162.59 C 152.44,162.63 152.38,162.66 152.33,162.68 C 152.15,162.73 151.97,162.78 151.79,162.83 C 151.6,162.89 151.42,162.94 151.24,162.99 C 151.06,163.04 150.88,163.1 150.67,163.16 C 150.45,163.22 150.21,163.28 150.15,163.34 C 150.21,163.4 150.44,163.5 150.64,163.59 C 150.84,163.67 151.01,163.75 151.19,163.83 C 151.36,163.9 151.53,163.98 151.71,164.05 C 151.88,164.13 152.05,164.2 152.23,164.28 z M 153.81,158.93 C 153.91,158.97 154.01,158.89 154.0,158.79 C 153.99,158.69 153.87,158.64 153.8,158.61 C 153.63,158.52 153.45,158.43 153.27,158.35 C 152.91,158.19 152.54,158.06 152.16,157.95 C 151.4,157.74 150.64,157.65 149.85,157.66 C 148.4,157.69 146.99,158.1 145.75,158.86 C 143.13,160.48 141.66,163.45 141.95,166.52 C 142.24,169.58 144.24,172.21 147.12,173.31 C 150.0,174.4 153.24,173.77 155.5,171.68 C 156.63,170.62 157.44,169.27 157.83,167.78 C 157.93,167.4 158.0,167.02 158.04,166.63 C 158.05,166.53 158.06,166.43 158.07,166.34 C 158.07,166.29 158.07,166.25 158.03,166.2 C 158.0,166.16 157.96,166.15 157.91,166.16 C 157.79,166.18 157.79,166.29 157.76,166.38 C 157.74,166.47 157.71,166.55 157.69,166.64 C 157.47,167.32 157.15,167.92 156.72,168.49 C 154.81,170.98 151.33,171.64 148.65,170.02 C 145.96,168.39 144.93,165.0 146.26,162.15 C 147.59,159.31 150.84,157.92 153.81,158.93 z" />
		
		<text style="font-size:10px;font-family:z_boli;stroke:none;fill:#00f;text-anchor:middle" transform="matrix(1 0 0 1 150 150)" class="txt"></text>	
			
		<cam mingh:cam="--actions=EditSelectAll;ObjectToPath;ZoomPage;ZoomCenterPage;FileVacuum;FileSave; -g" mingh:style="source:microprism">M2</cam> 
	</g>
</svg>
