<?xml version="1.0" encoding="UTF-8" standalone="no"?>

<svg
   xmlns:xlink="http://www.w3.org/1999/xlink"
   xmlns:svg="http://www.w3.org/2000/svg"
   xmlns="http://www.w3.org/2000/svg"
   xmlns:mingh="http://www.minghworld.com"
   width="300px"
   height="300px" >
    
	<g>
		<path style="fill:none;stroke:#fb0;stroke-width:0.25px"
			d="M 153.16,126.88 C 153.16,125.13 151.75,123.71 150.0,123.71 C 148.24,123.71 146.83,125.13 146.83,126.88 C 146.83,128.63 148.24,130.05 150.0,130.05 C 151.75,130.05 153.16,128.63 153.16,126.88 z M 178.35,150.0 C 178.35,157.53 175.37,164.72 170.04,170.04 C 164.72,175.37 157.53,178.35 150.0,178.35 C 142.47,178.35 135.28,175.37 129.96,170.04 C 124.63,164.72 121.65,157.53 121.65,150.0 C 121.65,142.47 124.63,135.28 129.96,129.96 C 135.28,124.63 142.47,121.65 150.0,121.65 C 157.53,121.65 164.72,124.63 170.04,129.96 C 175.37,135.28 178.35,142.47 178.35,150.0 z M 149.29,168.0 C 149.32,167.92 149.35,167.83 149.37,167.75 C 149.45,167.79 149.53,167.83 149.61,167.88 C 149.76,167.96 149.91,168.07 150.04,168.18 C 150.15,168.27 150.25,168.37 150.36,168.47 C 150.41,168.51 150.45,168.55 150.51,168.59 C 150.59,168.66 150.68,168.71 150.78,168.75 C 150.87,168.79 150.97,168.81 151.06,168.83 C 151.12,168.84 151.19,168.84 151.25,168.85 C 151.33,168.85 151.41,168.84 151.49,168.82 C 151.6,168.81 151.71,168.77 151.82,168.74 C 151.94,168.7 152.06,168.64 152.19,168.6 C 152.27,168.56 152.35,168.53 152.44,168.5 C 152.5,168.48 152.56,168.46 152.62,168.45 C 152.68,168.44 152.74,168.43 152.81,168.43 C 152.86,168.43 152.92,168.44 152.98,168.46 C 153.02,168.47 153.07,168.5 153.11,168.52 C 153.15,168.55 153.18,168.59 153.22,168.62 C 153.25,168.66 153.28,168.7 153.31,168.74 C 153.32,168.76 153.33,168.78 153.34,168.8 C 153.37,168.86 153.39,168.92 153.42,168.97 C 153.48,169.11 153.53,169.25 153.58,169.39 C 153.65,169.6 153.72,169.82 153.78,170.04 C 153.78,170.05 153.78,170.05 153.78,170.05 C 153.78,170.05 153.78,170.05 153.78,170.05 C 153.79,170.08 153.79,170.11 153.8,170.13 C 153.82,170.22 153.83,170.31 153.85,170.4 C 153.87,170.51 153.89,170.62 153.9,170.73 C 153.92,170.82 153.94,170.92 153.95,171.02 C 153.96,171.13 153.97,171.24 153.98,171.36 C 153.99,171.48 153.99,171.6 153.99,171.72 C 153.99,171.97 153.98,172.22 153.97,172.47 C 153.96,172.58 153.96,172.69 153.95,172.8 C 153.94,172.85 153.94,172.9 153.93,172.94 C 153.92,172.98 153.91,173.03 153.89,173.08 C 153.86,173.15 153.83,173.19 153.8,173.22 C 153.76,173.28 153.73,173.32 153.69,173.37 C 153.65,173.43 153.61,173.5 153.58,173.55 C 153.56,173.59 153.55,173.63 153.54,173.66 C 153.53,173.69 153.53,173.7 153.53,173.72 C 153.53,173.74 153.53,173.76 153.54,173.77 C 153.54,173.78 153.54,173.78 153.54,173.79 C 153.55,173.8 153.55,173.8 153.55,173.81 C 153.56,173.82 153.58,173.84 153.62,173.86 C 153.63,173.87 153.66,173.88 153.68,173.89 C 153.69,173.89 153.7,173.89 153.71,173.9 C 153.73,173.9 153.75,173.91 153.78,173.91 C 153.8,173.91 153.83,173.92 153.86,173.92 C 153.89,173.92 153.92,173.92 153.95,173.92 C 154.03,173.92 154.1,173.91 154.18,173.91 C 154.24,173.9 154.3,173.9 154.35,173.9 C 154.46,173.9 154.58,173.9 154.68,173.9 C 154.75,173.89 154.81,173.89 154.87,173.88 C 154.88,173.88 154.9,173.88 154.92,173.88 C 154.95,173.87 154.98,173.87 155.0,173.86 C 155.04,173.85 155.06,173.84 155.08,173.83 C 155.09,173.82 155.09,173.82 155.1,173.8 C 155.11,173.79 155.11,173.78 155.11,173.78 C 155.11,173.77 155.12,173.76 155.12,173.74 C 155.11,173.72 155.11,173.72 155.11,173.71 C 155.11,173.71 155.1,173.68 155.08,173.64 C 155.03,173.49 155.04,173.36 155.04,173.25 C 155.05,173.14 155.06,173.03 155.07,172.91 C 155.08,172.8 155.08,172.69 155.09,172.58 C 155.1,172.37 155.11,172.16 155.12,171.96 C 155.13,171.75 155.13,171.55 155.13,171.34 C 155.13,171.16 155.13,170.98 155.12,170.8 C 155.12,170.72 155.11,170.63 155.11,170.54 C 155.11,170.45 155.11,170.36 155.12,170.27 C 155.12,170.16 155.14,170.06 155.15,169.95 C 155.16,169.87 155.17,169.8 155.19,169.72 C 155.21,169.62 155.23,169.53 155.25,169.43 C 155.34,169.48 155.42,169.52 155.51,169.57 C 155.53,169.58 155.54,169.59 155.56,169.6 C 155.57,169.6 155.58,169.6 155.59,169.61 C 155.62,169.62 155.64,169.63 155.67,169.65 C 155.68,169.66 155.69,169.68 155.71,169.69 C 155.74,169.72 155.76,169.75 155.79,169.79 C 155.83,169.84 155.87,169.89 155.9,169.94 C 155.97,170.04 156.03,170.14 156.1,170.23 C 156.18,170.37 156.26,170.51 156.32,170.65 C 156.4,170.82 156.45,170.97 156.52,171.11 C 156.56,171.21 156.61,171.31 156.65,171.41 C 156.7,171.5 156.74,171.6 156.77,171.7 C 156.81,171.81 156.84,171.91 156.87,172.01 C 156.91,172.11 156.94,172.21 156.98,172.31 C 157.03,172.43 157.1,172.56 157.17,172.71 C 157.24,172.85 157.3,173.0 157.34,173.16 C 157.37,173.26 157.4,173.42 157.35,173.58 C 157.33,173.65 157.31,173.7 157.31,173.71 C 157.3,173.72 157.3,173.73 157.3,173.74 C 157.3,173.77 157.3,173.79 157.3,173.81 C 157.3,173.82 157.3,173.84 157.3,173.85 C 157.3,173.85 157.31,173.86 157.32,173.87 C 157.33,173.88 157.35,173.88 157.36,173.89 C 157.4,173.9 157.44,173.9 157.48,173.9 C 157.5,173.89 157.52,173.89 157.54,173.89 C 157.57,173.89 157.6,173.88 157.62,173.87 C 157.65,173.86 157.68,173.85 157.71,173.84 C 157.74,173.83 157.77,173.82 157.79,173.8 C 157.84,173.78 157.89,173.75 157.93,173.73 C 157.96,173.71 157.98,173.7 158.01,173.68 C 158.04,173.67 158.06,173.66 158.09,173.65 C 158.18,173.61 158.26,173.58 158.34,173.54 C 158.38,173.52 158.41,173.5 158.44,173.47 C 158.48,173.44 158.51,173.42 158.54,173.39 C 158.56,173.36 158.58,173.33 158.59,173.31 C 158.6,173.28 158.61,173.25 158.6,173.22 C 158.6,173.21 158.6,173.2 158.6,173.19 C 158.59,173.18 158.59,173.17 158.58,173.16 C 158.58,173.15 158.57,173.13 158.56,173.12 C 158.55,173.1 158.53,173.09 158.52,173.07 C 158.5,173.04 158.47,173.0 158.44,172.96 C 158.4,172.92 158.37,172.88 158.34,172.83 C 158.31,172.77 158.29,172.72 158.28,172.66 C 158.26,172.62 158.25,172.57 158.24,172.53 C 158.21,172.43 158.18,172.33 158.14,172.22 C 158.1,172.11 158.06,171.99 158.02,171.88 C 157.99,171.76 157.95,171.65 157.92,171.54 C 157.88,171.39 157.84,171.24 157.82,171.1 C 157.78,170.89 157.75,170.68 157.72,170.47 C 157.7,170.36 157.68,170.25 157.66,170.01 C 157.63,169.77 157.6,169.4 157.54,168.77 C 157.52,168.51 157.5,168.25 157.47,167.98 C 157.63,168.2 157.78,168.41 157.94,168.62 C 158.14,168.9 158.31,169.09 158.45,169.24 C 158.6,169.39 158.72,169.49 158.84,169.58 C 158.95,169.66 159.07,169.74 159.22,169.87 C 159.24,169.89 159.26,169.91 159.28,169.92 C 159.28,169.95 159.29,169.97 159.29,170.0 C 159.32,170.14 159.37,170.28 159.44,170.38 C 159.56,170.56 159.78,170.7 160.03,170.82 C 160.1,170.86 160.17,170.89 160.24,170.92 C 160.25,170.82 160.25,170.72 160.25,170.62 C 160.25,170.52 160.24,170.42 160.23,170.32 C 160.22,170.15 160.19,169.98 160.12,169.82 C 160.08,169.75 160.04,169.68 159.98,169.62 C 159.94,169.58 159.9,169.55 159.85,169.51 C 159.81,169.48 159.76,169.45 159.7,169.43 C 159.63,169.4 159.55,169.38 159.47,169.37 C 159.41,169.37 159.34,169.37 159.28,169.37 C 159.26,169.38 159.23,169.38 159.2,169.38 C 159.18,169.37 159.16,169.35 159.14,169.34 C 159.03,169.27 158.91,169.18 158.81,169.09 C 158.57,168.89 158.37,168.65 158.21,168.38 C 158.01,168.06 157.86,167.71 157.76,167.35 C 157.72,167.23 157.69,167.1 157.66,166.97 C 157.65,166.9 157.64,166.83 157.63,166.76 C 157.62,166.67 157.61,166.57 157.6,166.47 C 157.57,166.26 157.55,166.04 157.54,165.83 C 157.53,165.72 157.53,165.61 157.52,165.51 C 157.52,165.4 157.52,165.3 157.51,165.2 C 157.5,165.04 157.48,164.89 157.43,164.77 C 157.4,164.7 157.37,164.63 157.33,164.57 C 157.28,164.5 157.24,164.44 157.19,164.37 C 157.14,164.3 157.09,164.24 157.04,164.17 C 156.99,164.09 156.94,164.01 156.89,163.93 C 156.76,163.7 156.65,163.48 156.53,163.27 C 156.39,163.02 156.23,162.79 156.06,162.56 C 155.9,162.33 155.73,162.11 155.56,161.89 C 155.34,161.59 155.11,161.3 154.86,161.02 C 154.75,160.9 154.64,160.79 154.53,160.67 C 154.45,160.6 154.37,160.52 154.28,160.45 C 154.14,160.33 153.98,160.21 153.81,160.12 C 153.74,160.09 153.67,160.05 153.6,160.03 C 153.56,160.01 153.52,160.0 153.48,159.99 C 153.41,159.97 153.33,159.95 153.26,159.94 C 153.2,159.94 153.14,159.93 153.08,159.93 C 153.02,159.93 152.95,159.93 152.88,159.94 C 152.75,159.95 152.62,159.97 152.51,160.01 C 152.46,160.03 152.41,160.04 152.36,160.07 C 152.32,160.09 152.27,160.11 152.23,160.14 C 152.14,160.19 152.05,160.25 151.96,160.31 C 151.88,160.35 151.81,160.39 151.73,160.43 C 151.64,160.47 151.55,160.51 151.45,160.55 C 151.37,160.58 151.28,160.61 151.19,160.63 C 151.14,160.64 151.09,160.65 151.03,160.64 C 150.97,160.64 150.91,160.63 150.87,160.61 C 150.82,160.6 150.76,160.58 150.71,160.56 C 150.66,160.53 150.61,160.5 150.56,160.47 C 150.44,160.4 150.34,160.33 150.24,160.28 C 150.19,160.25 150.14,160.22 150.09,160.2 C 150.03,160.18 149.98,160.16 149.92,160.14 C 149.82,160.1 149.73,160.07 149.63,160.03 C 149.54,160.0 149.45,159.97 149.36,159.95 C 149.26,159.93 149.13,159.91 149.0,159.89 C 148.93,159.88 148.86,159.87 148.79,159.85 C 148.76,159.84 148.72,159.83 148.69,159.83 C 148.63,159.81 148.57,159.79 148.51,159.77 C 148.41,159.73 148.32,159.69 148.22,159.66 C 148.15,159.64 148.08,159.61 148.0,159.6 C 147.88,159.57 147.77,159.54 147.65,159.51 C 147.73,159.42 147.81,159.33 147.89,159.23 C 147.91,159.21 147.93,159.19 147.95,159.16 C 147.96,159.15 147.97,159.14 147.97,159.12 C 147.98,159.1 147.99,159.09 148.0,159.07 C 148.02,159.02 148.04,158.97 148.04,158.91 C 148.05,158.87 148.05,158.84 148.05,158.8 C 148.05,158.76 148.04,158.71 148.03,158.67 C 148.02,158.62 148.01,158.58 147.99,158.53 C 147.97,158.49 147.95,158.44 147.92,158.4 C 147.89,158.36 147.86,158.32 147.83,158.29 C 147.8,158.25 147.77,158.22 147.73,158.19 C 147.66,158.13 147.59,158.08 147.51,158.04 C 147.38,157.98 147.25,157.93 147.1,157.88 C 146.99,157.85 146.87,157.82 146.76,157.79 C 146.61,157.75 146.46,157.72 146.31,157.71 C 146.24,157.7 146.17,157.7 146.09,157.69 C 146.04,157.69 145.99,157.69 145.94,157.69 C 145.85,157.7 145.76,157.71 145.68,157.74 C 145.63,157.75 145.58,157.77 145.54,157.79 C 145.49,157.81 145.45,157.83 145.41,157.85 C 145.35,157.89 145.29,157.94 145.23,157.99 C 145.1,158.09 144.98,158.2 144.86,158.32 C 144.81,158.38 144.75,158.43 144.7,158.49 C 144.64,158.56 144.59,158.63 144.53,158.7 C 144.47,158.77 144.41,158.83 144.34,158.89 C 144.29,158.93 144.25,158.97 144.2,159.0 C 144.13,159.06 144.05,159.11 143.97,159.15 C 143.94,159.17 143.9,159.19 143.86,159.21 C 143.82,159.22 143.79,159.23 143.74,159.24 C 143.7,159.25 143.65,159.25 143.62,159.25 C 143.58,159.25 143.54,159.24 143.51,159.24 C 143.41,159.22 143.33,159.19 143.26,159.18 C 143.14,159.16 143.02,159.15 142.89,159.15 C 142.76,159.15 142.64,159.16 142.5,159.16 C 142.39,159.17 142.3,159.17 142.2,159.19 C 142.1,159.2 142.01,159.23 141.93,159.26 C 141.88,159.29 141.84,159.31 141.8,159.35 C 141.75,159.38 141.71,159.42 141.67,159.47 C 141.59,159.56 141.51,159.66 141.43,159.77 C 141.37,159.85 141.32,159.92 141.26,159.99 C 141.17,160.09 141.08,160.19 140.99,160.29 C 140.93,160.35 140.87,160.42 140.82,160.48 C 140.79,160.53 140.75,160.57 140.72,160.61 C 140.69,160.65 140.66,160.69 140.64,160.74 C 140.61,160.78 140.58,160.83 140.56,160.88 C 140.55,160.93 140.53,160.97 140.53,161.02 C 140.52,161.04 140.52,161.06 140.52,161.08 C 140.51,161.13 140.51,161.18 140.5,161.22 C 140.49,161.24 140.49,161.25 140.48,161.27 C 140.48,161.29 140.47,161.31 140.46,161.32 C 140.44,161.36 140.42,161.38 140.39,161.41 C 140.34,161.46 140.28,161.51 140.23,161.56 C 140.2,161.59 140.17,161.62 140.15,161.65 C 140.1,161.7 140.07,161.75 140.03,161.81 C 139.99,161.88 139.95,161.95 139.92,162.02 C 139.88,162.09 139.85,162.16 139.82,162.24 C 139.77,162.37 139.72,162.5 139.67,162.64 C 139.63,162.73 139.59,162.83 139.54,162.92 C 139.43,163.15 139.3,163.37 139.19,163.6 C 139.13,163.74 139.06,163.88 139.01,164.02 C 138.94,164.21 138.88,164.41 138.83,164.62 C 138.82,164.65 138.81,164.69 138.81,164.73 C 138.77,164.75 138.73,164.76 138.69,164.77 C 138.5,164.85 138.3,164.91 138.1,164.97 C 138.0,165.0 137.9,165.03 137.8,165.05 C 137.67,165.08 137.55,165.11 137.42,165.14 C 137.3,165.16 137.16,165.19 136.89,165.21 C 136.76,165.22 136.62,165.23 136.48,165.23 C 136.46,165.23 136.43,165.23 136.4,165.24 C 136.38,165.24 136.36,165.24 136.34,165.24 C 136.31,165.25 136.29,165.26 136.26,165.27 C 136.24,165.28 136.22,165.29 136.2,165.31 C 136.18,165.33 136.16,165.35 136.14,165.38 C 136.13,165.41 136.11,165.44 136.11,165.48 C 136.11,165.5 136.1,165.52 136.11,165.54 C 136.11,165.55 136.11,165.56 136.11,165.57 C 136.11,165.59 136.11,165.6 136.12,165.62 C 136.13,165.66 136.16,165.71 136.19,165.74 C 136.21,165.76 136.24,165.77 136.26,165.78 C 136.29,165.79 136.31,165.8 136.34,165.8 C 136.37,165.81 136.41,165.81 136.45,165.82 C 136.54,165.82 136.63,165.83 136.72,165.83 C 136.86,165.84 137.0,165.84 137.14,165.84 C 137.31,165.84 137.49,165.84 137.66,165.83 C 137.8,165.83 137.94,165.81 138.08,165.8 C 138.18,165.79 138.29,165.77 138.39,165.76 C 138.49,165.74 138.58,165.73 138.67,165.71 C 138.66,165.8 138.66,165.9 138.65,165.99 C 138.64,166.06 138.64,166.12 138.64,166.18 C 138.63,166.43 138.67,166.69 138.72,166.95 C 138.77,167.19 138.84,167.43 138.91,167.66 C 138.96,167.8 139.01,167.93 139.06,168.06 C 139.11,168.18 139.16,168.3 139.22,168.42 C 139.28,168.54 139.34,168.66 139.41,168.78 C 139.48,168.89 139.56,169.0 139.65,169.1 C 139.73,169.19 139.82,169.28 139.92,169.36 C 140.01,169.44 140.11,169.51 140.22,169.57 C 140.32,169.62 140.43,169.67 140.54,169.7 C 140.67,169.74 140.79,169.76 140.92,169.76 C 141.04,169.76 141.15,169.74 141.26,169.71 C 141.42,169.66 141.57,169.57 141.69,169.46 C 141.75,169.4 141.81,169.34 141.86,169.26 C 141.91,169.19 141.95,169.1 141.98,169.02 C 142.01,168.93 142.04,168.84 142.05,168.75 C 142.07,168.66 142.08,168.56 142.08,168.47 C 142.08,168.32 142.06,168.18 142.01,168.04 C 141.99,168.0 141.98,167.95 141.95,167.91 C 141.94,167.89 141.93,167.87 141.92,167.84 C 141.87,167.77 141.81,167.69 141.77,167.61 C 141.72,167.55 141.69,167.47 141.64,167.41 C 141.64,167.4 141.63,167.38 141.61,167.37 C 141.6,167.36 141.59,167.35 141.58,167.34 C 141.57,167.33 141.55,167.32 141.53,167.32 C 141.52,167.31 141.51,167.31 141.5,167.31 C 141.48,167.31 141.46,167.32 141.45,167.33 C 141.44,167.34 141.44,167.34 141.43,167.35 C 141.43,167.36 141.42,167.37 141.41,167.38 C 141.4,167.41 141.39,167.45 141.39,167.48 C 141.38,167.52 141.37,167.56 141.37,167.6 C 141.36,167.63 141.36,167.67 141.35,167.7 C 141.35,167.73 141.34,167.75 141.33,167.77 C 141.32,167.8 141.31,167.82 141.29,167.85 C 141.28,167.87 141.26,167.89 141.25,167.91 C 141.25,167.92 141.24,167.93 141.24,167.93 C 141.25,167.94 141.25,167.94 141.25,167.95 C 141.26,167.95 141.26,167.95 141.26,167.95 C 141.27,167.96 141.28,167.96 141.29,167.96 C 141.3,167.97 141.33,167.98 141.37,167.99 C 141.4,168.0 141.43,168.01 141.47,168.04 C 141.49,168.06 141.52,168.08 141.55,168.1 C 141.55,168.14 141.55,168.18 141.56,168.21 C 141.56,168.24 141.55,168.28 141.55,168.31 C 141.54,168.33 141.54,168.36 141.53,168.38 C 141.53,168.41 141.52,168.44 141.51,168.46 C 141.5,168.49 141.49,168.52 141.47,168.55 C 141.46,168.57 141.45,168.59 141.43,168.62 C 141.41,168.64 141.39,168.66 141.37,168.68 C 141.33,168.71 141.29,168.73 141.24,168.75 C 141.18,168.78 141.12,168.79 141.05,168.79 C 140.98,168.79 140.91,168.78 140.84,168.75 C 140.78,168.72 140.72,168.69 140.67,168.64 C 140.63,168.6 140.59,168.55 140.55,168.49 C 140.51,168.44 140.48,168.38 140.45,168.32 C 140.43,168.29 140.41,168.25 140.4,168.21 C 140.37,168.14 140.34,168.06 140.32,167.98 C 140.29,167.91 140.28,167.83 140.26,167.75 C 140.25,167.68 140.24,167.6 140.23,167.52 C 140.21,167.38 140.19,167.24 140.18,167.1 C 140.17,166.96 140.16,166.83 140.16,166.7 C 140.16,166.57 140.15,166.45 140.16,166.32 C 140.17,166.19 140.18,166.06 140.21,165.94 C 140.23,165.85 140.25,165.76 140.29,165.67 C 140.31,165.6 140.35,165.53 140.39,165.47 C 140.42,165.42 140.45,165.38 140.49,165.33 C 140.53,165.29 140.57,165.24 140.62,165.2 C 140.65,165.17 140.68,165.15 140.71,165.13 C 140.75,165.1 140.79,165.07 140.83,165.04 C 140.89,165.01 140.94,164.97 141.0,164.94 C 141.02,164.94 141.03,164.93 141.05,164.92 C 141.12,164.89 141.19,164.85 141.26,164.82 C 141.29,164.9 141.32,164.97 141.35,165.04 C 141.36,165.06 141.36,165.08 141.37,165.1 C 141.38,165.11 141.39,165.13 141.4,165.14 C 141.4,165.14 141.41,165.15 141.42,165.16 C 141.43,165.16 141.44,165.16 141.44,165.17 C 141.45,165.17 141.46,165.17 141.47,165.17 C 141.48,165.17 141.49,165.17 141.51,165.16 C 141.53,165.16 141.55,165.15 141.57,165.14 C 141.59,165.13 141.61,165.11 141.63,165.1 C 141.67,165.07 141.71,165.04 141.74,165.01 C 141.79,164.97 141.84,164.92 141.89,164.87 C 141.93,164.82 141.97,164.77 142.01,164.72 C 142.03,164.7 142.05,164.67 142.08,164.65 C 142.09,164.63 142.11,164.61 142.13,164.6 C 142.14,164.59 142.16,164.57 142.2,164.55 C 142.26,164.53 142.29,164.53 142.31,164.53 C 142.33,164.53 142.36,164.53 142.39,164.53 C 142.42,164.53 142.45,164.54 142.48,164.54 C 142.55,164.55 142.61,164.57 142.68,164.58 C 142.71,164.58 142.74,164.58 142.77,164.58 C 142.8,164.58 142.83,164.58 142.85,164.58 C 142.88,164.57 142.91,164.57 142.94,164.56 C 142.96,164.55 142.98,164.53 143.0,164.52 C 143.02,164.51 143.03,164.5 143.04,164.49 C 143.19,164.38 143.33,164.27 143.47,164.16 C 143.45,164.34 143.42,164.52 143.4,164.69 C 143.4,164.72 143.39,164.75 143.39,164.78 C 143.39,164.8 143.39,164.82 143.39,164.84 C 143.39,164.88 143.4,164.91 143.41,164.95 C 143.42,165.01 143.44,165.07 143.47,165.13 C 143.49,165.16 143.51,165.2 143.53,165.23 C 143.54,165.24 143.55,165.25 143.56,165.26 C 143.57,165.27 143.58,165.28 143.59,165.28 C 143.6,165.29 143.61,165.29 143.62,165.3 C 143.63,165.3 143.64,165.3 143.65,165.3 C 143.67,165.3 143.7,165.3 143.72,165.3 C 143.76,165.29 143.8,165.29 143.84,165.28 C 143.87,165.27 143.9,165.26 143.93,165.25 C 143.95,165.24 143.98,165.23 144.0,165.22 C 144.06,165.19 144.12,165.15 144.2,165.12 C 144.29,165.08 144.37,165.05 144.44,165.02 C 144.47,165.01 144.52,164.99 144.56,164.98 C 144.59,164.97 144.63,164.95 144.68,164.95 C 144.74,164.94 144.79,164.93 144.85,164.92 C 144.87,164.98 144.89,165.03 144.92,165.08 C 144.92,165.1 144.93,165.12 144.94,165.14 C 144.96,165.2 144.97,165.28 144.98,165.34 C 144.99,165.45 144.98,165.56 144.97,165.66 C 144.96,165.77 144.95,165.89 144.93,166.0 C 144.91,166.14 144.89,166.28 144.86,166.41 C 144.84,166.54 144.81,166.66 144.77,166.79 C 144.73,166.91 144.69,167.03 144.64,167.14 C 144.57,167.31 144.51,167.49 144.44,167.66 C 144.38,167.83 144.32,168.0 144.27,168.17 C 144.22,168.32 144.17,168.47 144.13,168.63 C 144.09,168.77 144.05,168.92 144.02,169.07 C 143.97,169.28 143.93,169.5 143.89,169.71 C 143.85,169.92 143.8,170.13 143.74,170.34 C 143.68,170.53 143.6,170.72 143.53,170.9 C 143.46,171.08 143.4,171.25 143.36,171.43 C 143.32,171.57 143.3,171.71 143.28,171.85 C 143.26,171.99 143.25,172.12 143.25,172.26 C 143.24,172.33 143.24,172.41 143.23,172.48 C 143.23,172.54 143.22,172.6 143.22,172.65 C 143.21,172.69 143.2,172.72 143.19,172.75 C 143.18,172.79 143.16,172.83 143.13,172.87 C 143.09,172.92 143.05,172.97 143.0,173.01 C 142.96,173.05 142.92,173.09 142.88,173.12 C 142.84,173.16 142.83,173.18 142.8,173.21 C 142.77,173.25 142.75,173.29 142.72,173.33 C 142.68,173.41 142.65,173.49 142.63,173.58 C 142.63,173.62 142.63,173.66 142.64,173.69 C 142.65,173.71 142.65,173.72 142.66,173.73 C 142.67,173.74 142.68,173.75 142.69,173.76 C 142.71,173.78 142.74,173.79 142.77,173.8 C 142.78,173.8 142.8,173.81 142.81,173.81 C 142.83,173.81 142.84,173.81 142.86,173.82 C 142.9,173.82 142.95,173.82 142.99,173.82 C 143.05,173.82 143.11,173.81 143.16,173.81 C 143.22,173.8 143.27,173.79 143.33,173.79 C 143.37,173.79 143.41,173.78 143.45,173.78 C 143.52,173.78 143.59,173.78 143.66,173.78 C 143.77,173.78 143.88,173.79 143.99,173.8 C 144.05,173.8 144.11,173.81 144.17,173.8 C 144.21,173.8 144.24,173.8 144.28,173.79 C 144.32,173.79 144.37,173.77 144.39,173.75 C 144.41,173.74 144.43,173.73 144.44,173.72 C 144.45,173.71 144.45,173.71 144.46,173.69 C 144.46,173.68 144.46,173.68 144.47,173.66 C 144.47,173.65 144.48,173.63 144.48,173.59 C 144.48,173.57 144.48,173.54 144.48,173.51 C 144.48,173.43 144.48,173.37 144.46,173.3 C 144.45,173.26 144.43,173.2 144.42,173.12 C 144.4,172.96 144.45,172.83 144.48,172.72 C 144.53,172.59 144.59,172.45 144.64,172.31 C 144.73,172.12 144.81,171.93 144.9,171.75 C 145.06,171.41 145.23,171.08 145.42,170.75 C 145.5,170.6 145.59,170.45 145.69,170.31 C 145.79,170.16 145.89,170.02 145.99,169.89 C 146.05,169.83 146.1,169.77 146.16,169.71 C 146.2,169.67 146.24,169.63 146.27,169.59 C 146.35,169.52 146.41,169.44 146.45,169.37 C 146.48,169.32 146.5,169.28 146.53,169.23 C 146.54,169.19 146.55,169.15 146.57,169.1 C 146.59,169.03 146.62,168.95 146.66,168.87 C 146.74,168.7 146.82,168.53 146.9,168.36 C 146.96,168.54 147.01,168.72 147.07,168.9 C 147.08,168.94 147.09,168.97 147.1,169.01 C 147.11,169.09 147.13,169.16 147.14,169.24 C 147.15,169.31 147.16,169.37 147.17,169.43 C 147.19,169.53 147.21,169.62 147.24,169.72 C 147.27,169.83 147.31,169.95 147.36,170.06 C 147.4,170.17 147.45,170.28 147.5,170.4 C 147.56,170.54 147.62,170.68 147.67,170.82 C 147.78,171.09 147.88,171.36 147.98,171.64 C 148.07,171.91 148.18,172.19 148.25,172.48 C 148.27,172.56 148.29,172.65 148.3,172.73 C 148.31,172.79 148.32,172.88 148.3,172.98 C 148.28,173.06 148.25,173.12 148.22,173.18 C 148.2,173.24 148.17,173.3 148.16,173.34 C 148.13,173.41 148.13,173.44 148.13,173.52 C 148.13,173.56 148.14,173.6 148.15,173.64 C 148.16,173.68 148.17,173.71 148.19,173.74 C 148.21,173.77 148.24,173.8 148.28,173.82 C 148.29,173.83 148.3,173.83 148.33,173.84 C 148.35,173.84 148.36,173.84 148.38,173.85 C 148.44,173.85 148.5,173.85 148.57,173.84 C 148.65,173.83 148.72,173.82 148.8,173.82 C 148.85,173.81 148.9,173.81 148.94,173.81 C 149.02,173.8 149.09,173.8 149.16,173.8 C 149.25,173.8 149.34,173.8 149.41,173.78 C 149.44,173.78 149.46,173.77 149.49,173.76 C 149.51,173.76 149.52,173.75 149.54,173.75 C 149.57,173.73 149.6,173.71 149.62,173.68 C 149.64,173.66 149.64,173.65 149.65,173.63 C 149.66,173.61 149.66,173.6 149.66,173.58 C 149.67,173.56 149.67,173.52 149.67,173.49 C 149.67,173.45 149.66,173.42 149.66,173.38 C 149.65,173.31 149.64,173.25 149.62,173.19 C 149.61,173.15 149.59,173.11 149.57,173.05 C 149.54,172.96 149.53,172.86 149.52,172.78 C 149.5,172.66 149.49,172.54 149.49,172.42 C 149.47,172.21 149.46,172.0 149.44,171.79 C 149.43,171.69 149.43,171.59 149.42,171.49 C 149.4,171.36 149.39,171.23 149.37,171.1 C 149.35,170.9 149.32,170.69 149.29,170.49 C 149.26,170.26 149.23,170.02 149.21,169.79 C 149.18,169.5 149.17,169.21 149.17,168.92 C 149.17,168.84 149.18,168.77 149.18,168.69 C 149.19,168.61 149.19,168.53 149.2,168.45 C 149.21,168.36 149.23,168.28 149.24,168.2 C 149.25,168.18 149.25,168.16 149.26,168.13 C 149.27,168.09 149.28,168.05 149.29,168.0 z" />
			
		<text style="font-size:10px;font-family:z_boli;stroke:none;fill:#00f;text-anchor:middle" transform="matrix(1 0 0 1 150 150)" class="txt"></text>	
			
		<cam mingh:cam="--actions=EditSelectAll;ObjectToPath;ZoomPage;ZoomCenterPage;FileVacuum;FileSave; -g" mingh:style="source:microprism">M2</cam> 
	</g>	
</svg>
