<?xml version="1.0" encoding="UTF-8" standalone="no"?>
<svg xmlns="http://www.w3.org/2000/svg" xmlns:mingh="http://www.minghworld.com" xmlns:svg="http://www.w3.org/2000/svg" xmlns:xlink="http://www.w3.org/1999/xlink" height="300px" width="300px">
  
	<g>
		<path style="fill:none;stroke:#fb0;stroke-width:0.25px"
			d="M 149.29,168.0 C 149.32,167.92 149.35,167.83 149.38,167.75 C 149.46,167.79 149.53,167.83 149.6,167.88 C 149.76,167.96 149.91,168.07 150.04,168.18 C 150.15,168.27 150.26,168.37 150.35,168.47 C 150.41,168.51 150.46,168.55 150.51,168.59 C 150.59,168.66 150.69,168.71 150.78,168.75 C 150.87,168.79 150.97,168.81 151.07,168.83 C 151.13,168.84 151.19,168.84 151.25,168.85 C 151.32,168.85 151.42,168.84 151.5,168.82 C 151.6,168.81 151.72,168.77 151.82,168.74 C 151.95,168.7 152.07,168.64 152.19,168.6 C 152.26,168.56 152.35,168.53 152.44,168.5 C 152.5,168.48 152.56,168.46 152.63,168.45 C 152.69,168.44 152.75,168.43 152.81,168.43 C 152.87,168.43 152.93,168.44 152.98,168.46 C 153.03,168.47 153.07,168.5 153.1,168.52 C 153.15,168.55 153.19,168.59 153.22,168.62 C 153.26,168.66 153.29,168.7 153.31,168.74 C 153.32,168.76 153.32,168.78 153.34,168.8 C 153.37,168.86 153.4,168.92 153.42,168.97 C 153.48,169.11 153.54,169.25 153.57,169.39 C 153.66,169.6 153.72,169.82 153.78,170.04 C 153.78,170.05 153.78,170.05 153.78,170.05 C 153.78,170.05 153.78,170.05 153.78,170.05 C 153.79,170.08 153.79,170.11 153.79,170.13 C 153.82,170.22 153.84,170.31 153.85,170.4 C 153.87,170.51 153.89,170.62 153.91,170.73 C 153.93,170.82 153.94,170.92 153.95,171.02 C 153.97,171.13 153.98,171.24 153.99,171.36 C 153.99,171.48 154.0,171.6 154.0,171.72 C 154.0,171.97 153.98,172.22 153.97,172.47 C 153.97,172.58 153.96,172.69 153.95,172.8 C 153.95,172.85 153.94,172.9 153.93,172.94 C 153.93,172.98 153.92,173.03 153.9,173.08 C 153.87,173.15 153.82,173.19 153.81,173.22 C 153.76,173.28 153.73,173.32 153.7,173.37 C 153.65,173.43 153.6,173.5 153.57,173.55 C 153.56,173.59 153.54,173.63 153.54,173.66 C 153.54,173.69 153.54,173.7 153.54,173.72 C 153.54,173.74 153.54,173.76 153.54,173.77 C 153.54,173.78 153.54,173.78 153.54,173.79 C 153.54,173.8 153.54,173.8 153.56,173.81 C 153.57,173.82 153.59,173.84 153.62,173.86 C 153.64,173.87 153.66,173.88 153.68,173.89 C 153.69,173.89 153.7,173.89 153.72,173.9 C 153.74,173.9 153.76,173.91 153.78,173.91 C 153.81,173.91 153.84,173.92 153.85,173.92 C 153.89,173.92 153.93,173.92 153.96,173.92 C 154.03,173.92 154.1,173.91 154.18,173.91 C 154.24,173.9 154.29,173.9 154.35,173.9 C 154.47,173.9 154.57,173.9 154.69,173.9 C 154.75,173.89 154.81,173.89 154.87,173.88 C 154.89,173.88 154.91,173.88 154.92,173.88 C 154.95,173.87 154.98,173.87 155.01,173.86 C 155.04,173.85 155.07,173.84 155.07,173.83 C 155.09,173.82 155.09,173.82 155.1,173.8 C 155.1,173.79 155.12,173.78 155.12,173.78 C 155.12,173.77 155.12,173.76 155.12,173.74 C 155.12,173.72 155.12,173.72 155.12,173.71 C 155.12,173.71 155.1,173.68 155.09,173.64 C 155.04,173.49 155.04,173.36 155.04,173.25 C 155.04,173.14 155.06,173.03 155.07,172.91 C 155.07,172.8 155.09,172.69 155.1,172.58 C 155.1,172.37 155.12,172.16 155.13,171.96 C 155.13,171.75 155.14,171.55 155.14,171.34 C 155.14,171.16 155.13,170.98 155.12,170.8 C 155.12,170.72 155.12,170.63 155.1,170.54 C 155.1,170.45 155.12,170.36 155.12,170.27 C 155.13,170.16 155.14,170.06 155.16,169.95 C 155.17,169.87 155.18,169.8 155.19,169.72 C 155.21,169.62 155.23,169.53 155.25,169.43 C 155.34,169.48 155.43,169.52 155.51,169.57 C 155.53,169.58 155.54,169.59 155.56,169.6 C 155.57,169.6 155.57,169.6 155.6,169.61 C 155.62,169.62 155.65,169.63 155.67,169.65 C 155.68,169.66 155.7,169.68 155.71,169.69 C 155.74,169.72 155.76,169.75 155.79,169.79 C 155.82,169.84 155.87,169.89 155.91,169.94 C 155.98,170.04 156.04,170.14 156.1,170.23 C 156.18,170.37 156.26,170.51 156.32,170.65 C 156.4,170.82 156.46,170.97 156.51,171.11 C 156.57,171.21 156.6,171.31 156.66,171.41 C 156.7,171.5 156.74,171.6 156.78,171.7 C 156.82,171.81 156.85,171.91 156.88,172.01 C 156.91,172.11 156.95,172.21 156.99,172.31 C 157.04,172.43 157.1,172.56 157.18,172.71 C 157.24,172.85 157.31,173.0 157.35,173.16 C 157.38,173.26 157.4,173.42 157.35,173.58 C 157.34,173.65 157.32,173.7 157.31,173.71 C 157.31,173.72 157.31,173.73 157.31,173.74 C 157.29,173.77 157.29,173.79 157.29,173.81 C 157.29,173.82 157.29,173.84 157.31,173.85 C 157.31,173.85 157.32,173.86 157.32,173.87 C 157.34,173.88 157.35,173.88 157.37,173.89 C 157.41,173.9 157.45,173.9 157.49,173.9 C 157.51,173.89 157.53,173.89 157.54,173.89 C 157.57,173.89 157.6,173.88 157.63,173.87 C 157.66,173.86 157.69,173.85 157.72,173.84 C 157.75,173.83 157.76,173.82 157.79,173.8 C 157.85,173.78 157.89,173.75 157.94,173.73 C 157.96,173.71 157.99,173.7 158.01,173.68 C 158.04,173.67 158.07,173.66 158.09,173.65 C 158.19,173.61 158.26,173.58 158.34,173.54 C 158.38,173.52 158.41,173.5 158.45,173.47 C 158.49,173.44 158.51,173.42 158.54,173.39 C 158.57,173.36 158.59,173.33 158.6,173.31 C 158.6,173.28 158.6,173.25 158.6,173.22 C 158.6,173.21 158.6,173.2 158.6,173.19 C 158.6,173.18 158.59,173.17 158.59,173.16 C 158.57,173.15 158.57,173.13 158.57,173.12 C 158.54,173.1 158.54,173.09 158.51,173.07 C 158.5,173.04 158.47,173.0 158.44,172.96 C 158.41,172.92 158.38,172.88 158.35,172.83 C 158.32,172.77 158.29,172.72 158.28,172.66 C 158.26,172.62 158.26,172.57 158.25,172.53 C 158.22,172.43 158.18,172.33 158.15,172.22 C 158.1,172.11 158.07,171.99 158.03,171.88 C 157.99,171.76 157.95,171.65 157.92,171.54 C 157.88,171.39 157.85,171.24 157.82,171.1 C 157.78,170.89 157.75,170.68 157.72,170.47 C 157.71,170.36 157.69,170.25 157.66,170.01 C 157.64,169.77 157.6,169.4 157.54,168.77 C 157.51,168.51 157.5,168.25 157.48,167.98 C 157.63,168.2 157.79,168.41 157.95,168.62 C 158.15,168.9 158.31,169.09 158.46,169.24 C 158.6,169.39 158.73,169.49 158.85,169.58 C 158.96,169.66 159.07,169.74 159.23,169.87 C 159.25,169.89 159.26,169.91 159.28,169.92 C 159.29,169.95 159.29,169.97 159.29,170.0 C 159.32,170.14 159.38,170.28 159.45,170.38 C 159.57,170.56 159.79,170.7 160.03,170.82 C 160.1,170.86 160.17,170.89 160.24,170.92 C 160.25,170.82 160.25,170.72 160.25,170.62 C 160.25,170.52 160.25,170.42 160.24,170.32 C 160.22,170.15 160.19,169.98 160.12,169.82 C 160.09,169.75 160.04,169.68 159.99,169.62 C 159.95,169.58 159.91,169.55 159.85,169.51 C 159.81,169.48 159.76,169.45 159.71,169.43 C 159.63,169.4 159.54,169.38 159.47,169.37 C 159.41,169.37 159.35,169.37 159.29,169.37 C 159.26,169.38 159.23,169.38 159.21,169.38 C 159.19,169.37 159.17,169.35 159.14,169.34 C 159.03,169.27 158.92,169.18 158.81,169.09 C 158.57,168.89 158.38,168.65 158.21,168.38 C 158.01,168.06 157.85,167.71 157.76,167.35 C 157.72,167.23 157.69,167.1 157.67,166.97 C 157.66,166.9 157.65,166.83 157.64,166.76 C 157.62,166.67 157.6,166.57 157.6,166.47 C 157.57,166.26 157.56,166.04 157.54,165.83 C 157.54,165.72 157.53,165.61 157.53,165.51 C 157.53,165.4 157.51,165.3 157.51,165.2 C 157.5,165.04 157.48,164.89 157.43,164.77 C 157.41,164.7 157.37,164.63 157.32,164.57 C 157.29,164.5 157.24,164.44 157.19,164.37 C 157.14,164.3 157.09,164.24 157.04,164.17 C 156.99,164.09 156.94,164.01 156.9,163.93 C 156.76,163.7 156.66,163.48 156.54,163.27 C 156.4,163.02 156.23,162.79 156.07,162.56 C 155.9,162.33 155.73,162.11 155.57,161.89 C 155.34,161.59 155.1,161.3 154.87,161.02 C 154.76,160.9 154.65,160.79 154.53,160.67 C 154.45,160.6 154.37,160.52 154.29,160.45 C 154.14,160.33 153.98,160.21 153.81,160.12 C 153.75,160.09 153.68,160.05 153.6,160.03 C 153.57,160.01 153.51,160.0 153.48,159.99 C 153.41,159.97 153.34,159.95 153.26,159.94 C 153.21,159.94 153.15,159.93 153.09,159.93 C 153.01,159.93 152.95,159.93 152.89,159.94 C 152.75,159.95 152.63,159.97 152.51,160.01 C 152.46,160.03 152.41,160.04 152.37,160.07 C 152.32,160.09 152.28,160.11 152.24,160.14 C 152.14,160.19 152.06,160.25 151.96,160.31 C 151.89,160.35 151.81,160.39 151.73,160.43 C 151.64,160.47 151.54,160.51 151.46,160.55 C 151.37,160.58 151.28,160.61 151.19,160.63 C 151.15,160.64 151.09,160.65 151.04,160.64 C 150.97,160.64 150.92,160.63 150.87,160.61 C 150.82,160.6 150.76,160.58 150.72,160.56 C 150.66,160.53 150.6,160.5 150.56,160.47 C 150.44,160.4 150.34,160.33 150.24,160.28 C 150.19,160.25 150.14,160.22 150.09,160.2 C 150.04,160.18 149.98,160.16 149.92,160.14 C 149.82,160.1 149.73,160.07 149.64,160.03 C 149.54,160.0 149.46,159.97 149.37,159.95 C 149.26,159.93 149.14,159.91 149.01,159.89 C 148.93,159.88 148.85,159.87 148.79,159.85 C 148.76,159.84 148.73,159.83 148.69,159.83 C 148.63,159.81 148.57,159.79 148.51,159.77 C 148.42,159.73 148.32,159.69 148.23,159.66 C 148.16,159.64 148.07,159.61 148.01,159.6 C 147.89,159.57 147.76,159.54 147.65,159.51 C 147.73,159.42 147.81,159.33 147.89,159.23 C 147.91,159.21 147.93,159.19 147.95,159.16 C 147.96,159.15 147.97,159.14 147.98,159.12 C 147.99,159.1 148.0,159.09 148.01,159.07 C 148.03,159.02 148.04,158.97 148.04,158.91 C 148.04,158.87 148.04,158.84 148.04,158.8 C 148.04,158.76 148.04,158.71 148.04,158.67 C 148.03,158.62 148.01,158.58 147.99,158.53 C 147.98,158.49 147.95,158.44 147.93,158.4 C 147.9,158.36 147.87,158.32 147.84,158.29 C 147.81,158.25 147.76,158.22 147.74,158.19 C 147.67,158.13 147.59,158.08 147.51,158.04 C 147.39,157.98 147.25,157.93 147.1,157.88 C 146.99,157.85 146.88,157.82 146.76,157.79 C 146.6,157.75 146.46,157.72 146.31,157.71 C 146.24,157.7 146.17,157.7 146.1,157.69 C 146.04,157.69 146.0,157.69 145.95,157.69 C 145.85,157.7 145.76,157.71 145.68,157.74 C 145.63,157.75 145.59,157.77 145.54,157.79 C 145.5,157.81 145.46,157.83 145.42,157.85 C 145.35,157.89 145.29,157.94 145.23,157.99 C 145.1,158.09 144.98,158.2 144.87,158.32 C 144.81,158.38 144.76,158.43 144.71,158.49 C 144.65,158.56 144.59,158.63 144.53,158.7 C 144.47,158.77 144.41,158.83 144.34,158.89 C 144.29,158.93 144.25,158.97 144.21,159.0 C 144.13,159.06 144.06,159.11 143.98,159.15 C 143.94,159.17 143.9,159.19 143.85,159.21 C 143.82,159.22 143.79,159.23 143.74,159.24 C 143.71,159.25 143.66,159.25 143.62,159.25 C 143.57,159.25 143.54,159.24 143.51,159.24 C 143.42,159.22 143.32,159.19 143.26,159.18 C 143.15,159.16 143.03,159.15 142.9,159.15 C 142.76,159.15 142.64,159.16 142.51,159.16 C 142.4,159.17 142.29,159.17 142.2,159.19 C 142.1,159.2 142.01,159.23 141.94,159.26 C 141.89,159.29 141.85,159.31 141.79,159.35 C 141.75,159.38 141.72,159.42 141.67,159.47 C 141.6,159.56 141.51,159.66 141.43,159.77 C 141.38,159.85 141.32,159.92 141.26,159.99 C 141.18,160.09 141.07,160.19 140.99,160.29 C 140.94,160.35 140.88,160.42 140.82,160.48 C 140.79,160.53 140.76,160.57 140.73,160.61 C 140.7,160.65 140.67,160.69 140.64,160.74 C 140.6,160.78 140.59,160.83 140.57,160.88 C 140.54,160.93 140.54,160.97 140.53,161.02 C 140.53,161.04 140.53,161.06 140.51,161.08 C 140.51,161.13 140.51,161.18 140.5,161.22 C 140.5,161.24 140.5,161.25 140.49,161.27 C 140.48,161.29 140.47,161.31 140.46,161.32 C 140.45,161.36 140.42,161.38 140.4,161.41 C 140.35,161.46 140.29,161.51 140.23,161.56 C 140.2,161.59 140.18,161.62 140.15,161.65 C 140.1,161.7 140.07,161.75 140.04,161.81 C 139.99,161.88 139.96,161.95 139.92,162.02 C 139.89,162.09 139.85,162.16 139.82,162.24 C 139.76,162.37 139.73,162.5 139.67,162.64 C 139.63,162.73 139.59,162.83 139.54,162.92 C 139.44,163.15 139.31,163.37 139.2,163.6 C 139.13,163.74 139.07,163.88 139.01,164.02 C 138.94,164.21 138.88,164.41 138.84,164.62 C 138.82,164.65 138.82,164.69 138.81,164.73 C 138.76,164.75 138.74,164.76 138.7,164.77 C 138.5,164.85 138.29,164.91 138.1,164.97 C 138.0,165.0 137.9,165.03 137.79,165.05 C 137.68,165.08 137.54,165.11 137.42,165.14 C 137.29,165.16 137.16,165.19 136.9,165.21 C 136.76,165.22 136.63,165.23 136.49,165.23 C 136.46,165.23 136.44,165.23 136.41,165.24 C 136.39,165.24 136.37,165.24 136.34,165.24 C 136.32,165.25 136.29,165.26 136.26,165.27 C 136.24,165.28 136.22,165.29 136.2,165.31 C 136.18,165.33 136.16,165.35 136.15,165.38 C 136.13,165.41 136.12,165.44 136.1,165.48 C 136.1,165.5 136.1,165.52 136.1,165.54 C 136.1,165.55 136.1,165.56 136.1,165.57 C 136.12,165.59 136.12,165.6 136.12,165.62 C 136.14,165.66 136.17,165.71 136.2,165.74 C 136.22,165.76 136.24,165.77 136.26,165.78 C 136.29,165.79 136.32,165.8 136.34,165.8 C 136.38,165.81 136.42,165.81 136.45,165.82 C 136.54,165.82 136.63,165.83 136.72,165.83 C 136.85,165.84 137.0,165.84 137.15,165.84 C 137.32,165.84 137.49,165.84 137.66,165.83 C 137.79,165.83 137.94,165.81 138.07,165.8 C 138.19,165.79 138.29,165.77 138.4,165.76 C 138.49,165.74 138.57,165.73 138.68,165.71 C 138.67,165.8 138.66,165.9 138.65,165.99 C 138.65,166.06 138.65,166.12 138.64,166.18 C 138.64,166.43 138.67,166.69 138.73,166.95 C 138.76,167.19 138.84,167.43 138.92,167.66 C 138.96,167.8 139.01,167.93 139.07,168.06 C 139.12,168.18 139.17,168.3 139.23,168.42 C 139.28,168.54 139.35,168.66 139.42,168.78 C 139.49,168.89 139.57,169.0 139.65,169.1 C 139.74,169.19 139.82,169.28 139.92,169.36 C 140.01,169.44 140.12,169.51 140.23,169.57 C 140.32,169.62 140.44,169.67 140.54,169.7 C 140.67,169.74 140.79,169.76 140.93,169.76 C 141.04,169.76 141.15,169.74 141.26,169.71 C 141.42,169.66 141.57,169.57 141.69,169.46 C 141.76,169.4 141.81,169.34 141.85,169.26 C 141.91,169.19 141.95,169.1 141.98,169.02 C 142.01,168.93 142.04,168.84 142.06,168.75 C 142.07,168.66 142.09,168.56 142.09,168.47 C 142.09,168.32 142.06,168.18 142.01,168.04 C 142.0,168.0 141.98,167.95 141.96,167.91 C 141.95,167.89 141.93,167.87 141.92,167.84 C 141.87,167.77 141.82,167.69 141.76,167.61 C 141.73,167.55 141.69,167.47 141.65,167.41 C 141.64,167.4 141.63,167.38 141.62,167.37 C 141.6,167.36 141.6,167.35 141.59,167.34 C 141.57,167.33 141.56,167.32 141.54,167.32 C 141.53,167.31 141.51,167.31 141.5,167.31 C 141.49,167.31 141.47,167.32 141.46,167.33 C 141.45,167.34 141.44,167.34 141.44,167.35 C 141.43,167.36 141.42,167.37 141.42,167.38 C 141.4,167.41 141.4,167.45 141.39,167.48 C 141.38,167.52 141.38,167.56 141.37,167.6 C 141.37,167.63 141.35,167.67 141.35,167.7 C 141.35,167.73 141.35,167.75 141.34,167.77 C 141.32,167.8 141.31,167.82 141.29,167.85 C 141.29,167.87 141.26,167.89 141.25,167.91 C 141.25,167.92 141.25,167.93 141.25,167.93 C 141.25,167.94 141.25,167.94 141.26,167.95 C 141.26,167.95 141.26,167.95 141.26,167.95 C 141.28,167.96 141.28,167.96 141.29,167.96 C 141.31,167.97 141.34,167.98 141.38,167.99 C 141.4,168.0 141.44,168.01 141.47,168.04 C 141.5,168.06 141.53,168.08 141.56,168.1 C 141.56,168.14 141.56,168.18 141.56,168.21 C 141.56,168.24 141.56,168.28 141.54,168.31 C 141.54,168.33 141.54,168.36 141.54,168.38 C 141.53,168.41 141.51,168.44 141.51,168.46 C 141.5,168.49 141.49,168.52 141.48,168.55 C 141.47,168.57 141.45,168.59 141.43,168.62 C 141.42,168.64 141.39,168.66 141.38,168.68 C 141.34,168.71 141.29,168.73 141.25,168.75 C 141.19,168.78 141.12,168.79 141.04,168.79 C 140.98,168.79 140.91,168.78 140.84,168.75 C 140.78,168.72 140.73,168.69 140.68,168.64 C 140.63,168.6 140.59,168.55 140.54,168.49 C 140.51,168.44 140.48,168.38 140.45,168.32 C 140.43,168.29 140.42,168.25 140.4,168.21 C 140.37,168.14 140.34,168.06 140.32,167.98 C 140.29,167.91 140.28,167.83 140.26,167.75 C 140.25,167.68 140.24,167.6 140.23,167.52 C 140.21,167.38 140.2,167.24 140.19,167.1 C 140.18,166.96 140.17,166.83 140.16,166.7 C 140.16,166.57 140.16,166.45 140.17,166.32 C 140.17,166.19 140.19,166.06 140.21,165.94 C 140.23,165.85 140.25,165.76 140.29,165.67 C 140.32,165.6 140.35,165.53 140.39,165.47 C 140.43,165.42 140.46,165.38 140.5,165.33 C 140.54,165.29 140.57,165.24 140.62,165.2 C 140.65,165.17 140.68,165.15 140.72,165.13 C 140.76,165.1 140.79,165.07 140.84,165.04 C 140.89,165.01 140.95,164.97 141.01,164.94 C 141.01,164.94 141.04,164.93 141.04,164.92 C 141.13,164.89 141.2,164.85 141.26,164.82 C 141.29,164.9 141.32,164.97 141.35,165.04 C 141.35,165.06 141.37,165.08 141.38,165.1 C 141.39,165.11 141.39,165.13 141.4,165.14 C 141.41,165.14 141.42,165.15 141.43,165.16 C 141.43,165.16 141.44,165.16 141.45,165.17 C 141.46,165.17 141.47,165.17 141.47,165.17 C 141.49,165.17 141.5,165.17 141.51,165.16 C 141.53,165.16 141.54,165.15 141.57,165.14 C 141.59,165.13 141.6,165.11 141.63,165.1 C 141.67,165.07 141.71,165.04 141.75,165.01 C 141.79,164.97 141.85,164.92 141.89,164.87 C 141.93,164.82 141.98,164.77 142.01,164.72 C 142.04,164.7 142.06,164.67 142.07,164.65 C 142.1,164.63 142.12,164.61 142.14,164.6 C 142.15,164.59 142.17,164.57 142.21,164.55 C 142.26,164.53 142.29,164.53 142.31,164.53 C 142.34,164.53 142.37,164.53 142.4,164.53 C 142.43,164.53 142.46,164.54 142.49,164.54 C 142.54,164.55 142.62,164.57 142.68,164.58 C 142.71,164.58 142.74,164.58 142.76,164.58 C 142.79,164.58 142.82,164.58 142.85,164.58 C 142.89,164.57 142.92,164.57 142.94,164.56 C 142.97,164.55 142.99,164.53 143.01,164.52 C 143.01,164.51 143.04,164.5 143.04,164.49 C 143.19,164.38 143.32,164.27 143.47,164.16 C 143.45,164.34 143.43,164.52 143.41,164.69 C 143.4,164.72 143.4,164.75 143.4,164.78 C 143.4,164.8 143.4,164.82 143.4,164.84 C 143.4,164.88 143.41,164.91 143.41,164.95 C 143.43,165.01 143.45,165.07 143.48,165.13 C 143.49,165.16 143.51,165.2 143.53,165.23 C 143.54,165.24 143.54,165.25 143.56,165.26 C 143.57,165.27 143.57,165.28 143.6,165.28 C 143.6,165.29 143.6,165.29 143.62,165.3 C 143.63,165.3 143.65,165.3 143.66,165.3 C 143.68,165.3 143.7,165.3 143.72,165.3 C 143.76,165.29 143.81,165.29 143.85,165.28 C 143.88,165.27 143.91,165.26 143.93,165.25 C 143.96,165.24 143.98,165.23 144.01,165.22 C 144.06,165.19 144.13,165.15 144.21,165.12 C 144.29,165.08 144.37,165.05 144.44,165.02 C 144.48,165.01 144.51,164.99 144.56,164.98 C 144.6,164.97 144.64,164.95 144.69,164.95 C 144.74,164.94 144.79,164.93 144.85,164.92 C 144.88,164.98 144.9,165.03 144.92,165.08 C 144.93,165.1 144.94,165.12 144.94,165.14 C 144.96,165.2 144.97,165.28 144.98,165.34 C 144.99,165.45 144.99,165.56 144.98,165.66 C 144.97,165.77 144.95,165.89 144.93,166.0 C 144.91,166.14 144.89,166.28 144.87,166.41 C 144.84,166.54 144.81,166.66 144.76,166.79 C 144.74,166.91 144.69,167.03 144.64,167.14 C 144.57,167.31 144.51,167.49 144.45,167.66 C 144.39,167.83 144.32,168.0 144.26,168.17 C 144.22,168.32 144.18,168.47 144.13,168.63 C 144.09,168.77 144.06,168.92 144.03,169.07 C 143.98,169.28 143.94,169.5 143.9,169.71 C 143.85,169.92 143.81,170.13 143.74,170.34 C 143.68,170.53 143.6,170.72 143.54,170.9 C 143.47,171.08 143.41,171.25 143.35,171.43 C 143.32,171.57 143.29,171.71 143.29,171.85 C 143.26,171.99 143.26,172.12 143.25,172.26 C 143.25,172.33 143.24,172.41 143.24,172.48 C 143.23,172.54 143.23,172.6 143.22,172.65 C 143.22,172.69 143.21,172.72 143.2,172.75 C 143.18,172.79 143.16,172.83 143.14,172.87 C 143.1,172.92 143.04,172.97 143.0,173.01 C 142.96,173.05 142.92,173.09 142.88,173.12 C 142.85,173.16 142.82,173.18 142.81,173.21 C 142.78,173.25 142.75,173.29 142.73,173.33 C 142.68,173.41 142.65,173.49 142.64,173.58 C 142.63,173.62 142.63,173.66 142.65,173.69 C 142.65,173.71 142.66,173.72 142.66,173.73 C 142.67,173.74 142.68,173.75 142.69,173.76 C 142.72,173.78 142.75,173.79 142.78,173.8 C 142.79,173.8 142.79,173.81 142.82,173.81 C 142.82,173.81 142.85,173.81 142.85,173.82 C 142.91,173.82 142.95,173.82 143.0,173.82 C 143.04,173.82 143.1,173.81 143.17,173.81 C 143.22,173.8 143.28,173.79 143.32,173.79 C 143.37,173.79 143.41,173.78 143.45,173.78 C 143.51,173.78 143.59,173.78 143.66,173.78 C 143.76,173.78 143.88,173.79 144.0,173.8 C 144.06,173.8 144.12,173.81 144.18,173.8 C 144.21,173.8 144.25,173.8 144.28,173.79 C 144.32,173.79 144.37,173.77 144.4,173.75 C 144.42,173.74 144.43,173.73 144.44,173.72 C 144.45,173.71 144.45,173.71 144.46,173.69 C 144.47,173.68 144.47,173.68 144.47,173.66 C 144.48,173.65 144.48,173.63 144.49,173.59 C 144.49,173.57 144.49,173.54 144.49,173.51 C 144.49,173.43 144.48,173.37 144.47,173.3 C 144.46,173.26 144.43,173.2 144.43,173.12 C 144.41,172.96 144.45,172.83 144.49,172.72 C 144.54,172.59 144.59,172.45 144.65,172.31 C 144.73,172.12 144.81,171.93 144.9,171.75 C 145.06,171.41 145.24,171.08 145.42,170.75 C 145.51,170.6 145.6,170.45 145.7,170.31 C 145.79,170.16 145.89,170.02 146.0,169.89 C 146.04,169.83 146.1,169.77 146.16,169.71 C 146.2,169.67 146.24,169.63 146.28,169.59 C 146.35,169.52 146.41,169.44 146.46,169.37 C 146.49,169.32 146.51,169.28 146.53,169.23 C 146.54,169.19 146.56,169.15 146.57,169.1 C 146.6,169.03 146.62,168.95 146.66,168.87 C 146.74,168.7 146.82,168.53 146.91,168.36 C 146.96,168.54 147.01,168.72 147.07,168.9 C 147.07,168.94 147.09,168.97 147.1,169.01 C 147.12,169.09 147.13,169.16 147.14,169.24 C 147.15,169.31 147.16,169.37 147.18,169.43 C 147.19,169.53 147.22,169.62 147.24,169.72 C 147.28,169.83 147.32,169.95 147.35,170.06 C 147.41,170.17 147.46,170.28 147.51,170.4 C 147.56,170.54 147.62,170.68 147.68,170.82 C 147.78,171.09 147.88,171.36 147.98,171.64 C 148.07,171.91 148.18,172.19 148.25,172.48 C 148.26,172.56 148.29,172.65 148.29,172.73 C 148.31,172.79 148.32,172.88 148.29,172.98 C 148.29,173.06 148.26,173.12 148.23,173.18 C 148.2,173.24 148.17,173.3 148.16,173.34 C 148.13,173.41 148.13,173.44 148.14,173.52 C 148.14,173.56 148.14,173.6 148.15,173.64 C 148.16,173.68 148.18,173.71 148.19,173.74 C 148.21,173.77 148.25,173.8 148.28,173.82 C 148.29,173.83 148.31,173.83 148.32,173.84 C 148.35,173.84 148.37,173.84 148.39,173.85 C 148.44,173.85 148.51,173.85 148.57,173.84 C 148.65,173.83 148.73,173.82 148.79,173.82 C 148.85,173.81 148.9,173.81 148.95,173.81 C 149.01,173.8 149.09,173.8 149.17,173.8 C 149.26,173.8 149.34,173.8 149.41,173.78 C 149.44,173.78 149.47,173.77 149.49,173.76 C 149.51,173.76 149.53,173.75 149.54,173.75 C 149.57,173.73 149.6,173.71 149.63,173.68 C 149.64,173.66 149.65,173.65 149.65,173.63 C 149.66,173.61 149.66,173.6 149.67,173.58 C 149.67,173.56 149.67,173.52 149.67,173.49 C 149.67,173.45 149.67,173.42 149.66,173.38 C 149.65,173.31 149.64,173.25 149.62,173.19 C 149.6,173.15 149.59,173.11 149.57,173.05 C 149.54,172.96 149.54,172.86 149.51,172.78 C 149.51,172.66 149.5,172.54 149.49,172.42 C 149.48,172.21 149.46,172.0 149.45,171.79 C 149.44,171.69 149.43,171.59 149.42,171.49 C 149.41,171.36 149.39,171.23 149.38,171.1 C 149.35,170.9 149.32,170.69 149.29,170.49 C 149.26,170.26 149.23,170.02 149.21,169.79 C 149.19,169.5 149.17,169.21 149.18,168.92 C 149.18,168.84 149.18,168.77 149.19,168.69 C 149.19,168.61 149.2,168.53 149.21,168.45 C 149.22,168.36 149.23,168.28 149.25,168.2 C 149.25,168.18 149.26,168.16 149.26,168.13 C 149.26,168.09 149.28,168.05 149.29,168.0 z M 178.35,150.0 C 178.35,157.53 175.37,164.72 170.05,170.04 C 164.73,175.37 157.53,178.35 150.01,178.35 C 142.48,178.35 135.29,175.37 129.96,170.04 C 124.64,164.72 121.66,157.53 121.66,150.0 C 121.66,142.47 124.64,135.28 129.96,129.96 C 135.28,124.63 142.48,121.65 150.01,121.65 C 157.53,121.65 164.72,124.63 170.05,129.96 C 175.37,135.28 178.35,142.47 178.35,150.0 z M 125.22,148.22 C 125.0,148.22 124.76,148.28 124.53,148.38 C 124.3,148.48 124.11,148.59 123.94,148.75 C 123.78,148.91 123.66,149.11 123.56,149.34 C 123.47,149.56 123.44,149.77 123.44,150.0 C 123.44,150.23 123.47,150.47 123.56,150.69 C 123.65,150.92 123.8,151.09 123.94,151.25 C 124.11,151.42 124.31,151.54 124.53,151.63 C 124.74,151.72 124.95,151.78 125.19,151.78 C 125.43,151.78 125.7,151.74 125.92,151.66 C 126.14,151.58 126.32,151.46 126.47,151.28 C 126.63,151.12 126.76,150.92 126.84,150.69 C 126.95,150.47 126.99,150.25 127.0,150.03 C 127.0,149.8 126.95,149.56 126.84,149.34 C 126.76,149.11 126.64,148.91 126.47,148.75 C 126.33,148.59 126.14,148.48 125.92,148.38 C 125.69,148.28 125.44,148.22 125.22,148.22 z M 174.79,148.22 C 174.57,148.22 174.32,148.28 174.09,148.38 C 173.87,148.48 173.68,148.59 173.54,148.75 C 173.37,148.91 173.25,149.11 173.17,149.34 C 173.06,149.56 173.01,149.8 173.01,150.03 C 173.02,150.25 173.06,150.47 173.17,150.69 C 173.25,150.92 173.38,151.12 173.54,151.28 C 173.69,151.46 173.87,151.58 174.09,151.66 C 174.31,151.74 174.58,151.78 174.82,151.78 C 175.06,151.78 175.27,151.72 175.48,151.63 C 175.7,151.54 175.9,151.42 176.07,151.25 C 176.21,151.09 176.36,150.92 176.45,150.69 C 176.54,150.47 176.57,150.23 176.57,150.0 C 176.57,149.77 176.54,149.56 176.45,149.34 C 176.35,149.11 176.23,148.91 176.07,148.75 C 175.9,148.59 175.71,148.48 175.48,148.38 C 175.25,148.28 175.01,148.22 174.79,148.22 z" />
		
		<text style="font-size:10px;font-family:z_boli;stroke:none;fill:#00f;text-anchor:middle" transform="matrix(1 0 0 1 150 150)" class="txt"></text>	
			
		<cam mingh:cam="--actions=EditSelectAll;ObjectToPath;ZoomPage;ZoomCenterPage;FileVacuum;FileSave; -g" mingh:style="source:microprism">M2</cam> 
    </g>
</svg>
