<?xml version="1.0" encoding="UTF-8" standalone="no"?>
<svg xmlns="http://www.w3.org/2000/svg" xmlns:mingh="http://www.minghworld.com" xmlns:svg="http://www.w3.org/2000/svg" xmlns:xlink="http://www.w3.org/1999/xlink" height="300px" width="300px">
	   
	<g>
		<path style="fill:none;stroke:#fb0;stroke-width:0.25px"
			d="M 142.66,169.83 C 142.35,169.88 142.06,169.93 141.76,169.99 C 142.0,169.8 142.25,169.62 142.49,169.43 C 142.96,169.08 143.44,168.75 143.93,168.43 C 144.48,168.07 145.04,167.74 145.62,167.41 C 146.01,167.19 146.42,166.97 146.82,166.76 C 147.31,166.49 147.81,166.22 148.29,165.94 C 148.79,165.67 149.28,165.38 149.76,165.08 C 150.1,164.86 150.45,164.63 150.78,164.39 C 151.07,164.16 151.37,163.91 151.63,163.64 C 151.76,163.51 151.89,163.37 151.99,163.21 C 152.04,163.14 152.09,163.06 152.13,162.98 C 152.17,162.91 152.2,162.84 152.23,162.76 C 152.28,162.62 152.31,162.48 152.32,162.33 C 152.35,162.17 152.35,162.0 152.35,161.84 C 152.37,161.66 152.35,161.48 152.35,161.3 C 152.34,161.11 152.32,160.93 152.31,160.74 C 152.29,160.56 152.26,160.37 152.23,160.19 C 152.2,160.03 152.16,159.87 152.1,159.71 C 152.06,159.57 151.99,159.44 151.91,159.31 C 151.84,159.21 151.75,159.12 151.65,159.03 C 151.54,158.95 151.44,158.89 151.32,158.84 C 151.18,158.77 151.01,158.74 150.85,158.71 C 150.66,158.69 150.45,158.68 150.25,158.68 C 149.96,158.67 149.66,158.69 149.37,158.71 C 149.07,158.74 148.76,158.78 148.46,158.82 C 148.14,158.87 147.82,158.93 147.5,159.0 C 147.19,159.07 146.88,159.15 146.57,159.24 C 146.26,159.33 145.97,159.43 145.67,159.55 C 145.48,159.63 145.28,159.72 145.09,159.81 C 144.94,159.89 144.78,159.98 144.63,160.08 C 144.5,160.16 144.38,160.26 144.26,160.36 C 144.14,160.45 144.04,160.56 143.94,160.67 C 143.85,160.78 143.76,160.9 143.69,161.02 C 143.59,161.18 143.49,161.34 143.4,161.51 C 143.26,161.77 143.15,162.04 143.06,162.31 C 143.01,162.45 142.97,162.59 142.94,162.73 C 142.92,162.8 142.9,162.87 142.89,162.94 C 142.87,163.07 142.85,163.2 142.85,163.34 C 142.85,163.41 142.85,163.48 142.87,163.55 C 142.88,163.59 142.89,163.63 142.9,163.66 C 142.91,163.72 142.94,163.78 142.97,163.83 C 143.01,163.87 143.04,163.9 143.1,163.92 C 143.13,163.93 143.15,163.94 143.18,163.95 C 143.2,163.96 143.23,163.96 143.25,163.97 C 143.31,163.97 143.35,163.96 143.41,163.96 C 143.51,163.94 143.6,163.92 143.7,163.9 C 144.18,163.8 144.65,163.71 145.12,163.62 C 145.31,163.58 145.49,163.55 145.67,163.51 C 145.79,163.49 145.9,163.46 146.01,163.44 C 146.1,163.42 146.18,163.4 146.25,163.38 C 146.29,163.36 146.35,163.34 146.4,163.32 C 146.42,163.31 146.45,163.29 146.48,163.27 C 146.48,163.26 146.49,163.26 146.49,163.25 C 146.5,163.24 146.5,163.24 146.5,163.23 C 146.51,163.2 146.51,163.18 146.5,163.15 C 146.5,163.14 146.5,163.12 146.49,163.11 C 146.48,163.09 146.47,163.06 146.45,163.04 C 146.43,163.02 146.4,163.0 146.38,162.99 C 146.34,162.97 146.29,162.96 146.26,162.94 C 146.19,162.93 146.12,162.92 146.06,162.91 C 145.97,162.89 145.88,162.88 145.79,162.87 C 145.48,162.84 145.17,162.8 144.85,162.76 C 144.6,162.74 144.35,162.71 144.1,162.68 C 144.32,162.57 144.56,162.46 144.79,162.35 C 145.01,162.23 145.25,162.12 145.48,162.01 C 145.84,161.84 146.2,161.67 146.56,161.51 C 147.01,161.31 147.48,161.12 147.96,160.96 C 148.23,160.86 148.49,160.78 148.76,160.71 C 148.95,160.66 149.14,160.61 149.32,160.58 C 149.6,160.52 149.89,160.49 150.17,160.49 C 150.28,160.49 150.39,160.5 150.49,160.52 C 150.6,160.54 150.73,160.58 150.82,160.64 C 150.88,160.68 150.93,160.72 150.97,160.77 C 151.0,160.82 151.03,160.87 151.06,160.93 C 151.1,161.03 151.13,161.15 151.12,161.27 C 151.12,161.38 151.09,161.48 151.04,161.58 C 151.01,161.68 150.97,161.76 150.92,161.85 C 150.85,161.94 150.79,162.02 150.73,162.1 C 150.66,162.2 150.57,162.29 150.49,162.38 C 150.38,162.5 150.26,162.61 150.13,162.71 C 149.91,162.9 149.68,163.07 149.44,163.22 C 149.2,163.38 148.95,163.52 148.7,163.67 C 148.4,163.84 148.09,164.01 147.78,164.18 C 147.04,164.59 146.29,164.99 145.56,165.41 C 144.66,165.93 143.76,166.48 142.93,167.1 C 142.5,167.42 142.07,167.76 141.69,168.13 C 141.59,168.22 141.5,168.32 141.41,168.41 C 141.35,168.46 141.32,168.51 141.26,168.57 C 141.19,168.67 141.1,168.77 141.03,168.88 C 140.97,168.98 140.91,169.09 140.85,169.21 C 140.84,169.26 140.82,169.32 140.81,169.38 C 140.78,169.53 140.76,169.68 140.76,169.83 C 140.76,169.94 140.79,170.05 140.81,170.16 C 140.82,170.27 140.85,170.39 140.89,170.5 C 140.97,170.77 141.07,171.04 141.2,171.29 C 141.25,171.38 141.29,171.46 141.35,171.55 C 141.4,171.6 141.45,171.65 141.49,171.7 C 141.54,171.75 141.59,171.79 141.64,171.82 C 141.71,171.87 141.79,171.9 141.88,171.92 C 141.97,171.95 142.06,171.97 142.16,171.98 C 142.22,171.99 142.29,172.0 142.35,172.01 C 142.44,172.02 142.53,172.03 142.63,172.03 C 143.0,172.05 143.38,172.04 143.75,172.01 C 144.24,171.98 144.73,171.93 145.22,171.88 C 145.57,171.84 145.91,171.81 146.25,171.76 C 146.54,171.72 146.84,171.68 147.14,171.62 C 147.39,171.57 147.65,171.51 147.9,171.44 C 148.09,171.38 148.26,171.31 148.45,171.22 C 148.62,171.14 148.79,171.04 148.93,170.93 C 149.1,170.78 149.26,170.61 149.38,170.42 C 149.51,170.21 149.64,169.99 149.74,169.77 C 149.79,169.65 149.85,169.54 149.9,169.42 C 149.93,169.35 149.96,169.29 149.98,169.23 C 150.07,168.99 150.17,168.75 150.25,168.5 C 147.72,168.94 145.19,169.38 142.66,169.83 z M 158.35,161.26 C 158.04,161.68 157.73,162.1 157.42,162.52 C 157.12,162.95 156.82,163.37 156.51,163.8 C 156.23,164.22 155.94,164.64 155.66,165.07 C 155.38,165.5 155.1,165.93 154.85,166.38 C 154.6,166.81 154.37,167.25 154.16,167.7 C 154.0,168.06 153.85,168.43 153.74,168.8 C 153.68,168.99 153.62,169.18 153.56,169.37 C 153.53,169.48 153.49,169.6 153.46,169.72 C 153.4,169.94 153.35,170.16 153.32,170.39 C 153.31,170.53 153.29,170.67 153.29,170.81 C 153.29,170.92 153.32,171.03 153.35,171.14 C 153.38,171.24 153.43,171.33 153.49,171.41 C 153.54,171.5 153.62,171.57 153.7,171.64 C 153.79,171.71 153.89,171.77 153.99,171.83 C 154.17,171.93 154.35,172.01 154.53,172.09 C 154.63,172.14 154.73,172.18 154.82,172.23 C 154.88,172.27 154.93,172.3 154.99,172.33 C 155.04,172.37 155.1,172.4 155.18,172.42 C 155.22,172.44 155.25,172.45 155.29,172.45 C 155.31,172.44 155.32,172.44 155.32,172.44 C 155.34,172.44 155.35,172.44 155.35,172.43 C 155.37,172.42 155.39,172.41 155.4,172.39 C 155.41,172.38 155.42,172.36 155.42,172.34 C 155.43,172.33 155.43,172.31 155.43,172.29 C 155.43,172.26 155.43,172.23 155.42,172.21 C 155.41,172.08 155.39,171.95 155.38,171.82 C 155.37,171.76 155.37,171.69 155.37,171.63 C 155.35,171.53 155.37,171.42 155.38,171.32 C 155.41,171.1 155.45,170.89 155.51,170.69 C 155.62,170.28 155.76,169.88 155.94,169.49 C 156.01,169.3 156.1,169.11 156.2,168.93 C 156.32,168.65 156.47,168.38 156.6,168.11 C 156.92,167.52 157.24,166.95 157.57,166.38 C 157.88,165.84 158.2,165.3 158.51,164.76 C 158.85,164.2 159.17,163.65 159.5,163.1 C 159.87,162.46 160.24,161.81 160.6,161.16 C 160.68,161.04 160.75,160.92 160.81,160.79 C 160.87,160.67 160.92,160.55 160.96,160.42 C 160.99,160.31 161.01,160.19 161.01,160.07 C 161.01,159.97 160.99,159.87 160.96,159.77 C 160.93,159.66 160.89,159.55 160.84,159.44 C 160.79,159.34 160.75,159.24 160.69,159.15 C 160.64,159.06 160.57,158.97 160.5,158.9 C 160.46,158.86 160.41,158.82 160.35,158.79 C 160.32,158.77 160.28,158.75 160.23,158.74 C 160.21,158.74 160.18,158.74 160.16,158.74 C 160.13,158.74 160.1,158.74 160.07,158.75 C 160.03,158.76 160.0,158.77 159.96,158.78 C 159.93,158.79 159.89,158.81 159.85,158.82 C 159.53,158.95 159.22,159.09 158.92,159.24 C 158.65,159.38 158.38,159.53 158.12,159.68 C 157.82,159.84 157.51,160.01 157.21,160.18 C 156.88,160.37 156.54,160.55 156.22,160.76 C 156.16,160.8 156.1,160.85 156.04,160.9 C 155.97,160.98 155.92,161.07 155.88,161.16 C 155.84,161.26 155.81,161.37 155.79,161.48 C 155.78,161.53 155.78,161.59 155.78,161.64 C 155.76,161.67 155.78,161.7 155.78,161.73 C 155.78,161.74 155.79,161.75 155.79,161.77 C 155.79,161.78 155.81,161.78 155.82,161.79 C 155.82,161.79 155.85,161.79 155.85,161.78 C 155.9,161.77 155.95,161.75 155.99,161.74 C 156.22,161.65 156.45,161.55 156.69,161.46 C 156.95,161.36 157.21,161.26 157.47,161.16 C 157.68,161.08 157.89,161.0 158.1,160.92 C 158.35,160.83 158.59,160.74 158.82,160.65 C 158.67,160.85 158.51,161.06 158.35,161.26 z M 178.35,150.0 C 178.35,157.53 175.37,164.72 170.05,170.04 C 164.73,175.37 157.53,178.35 150.01,178.35 C 142.48,178.35 135.29,175.37 129.96,170.04 C 124.64,164.72 121.66,157.53 121.66,150.0 C 121.66,142.47 124.64,135.28 129.96,129.96 C 135.28,124.63 142.48,121.65 150.01,121.65 C 157.53,121.65 164.72,124.63 170.05,129.96 C 175.37,135.28 178.35,142.47 178.35,150.0 z M 125.22,148.22 C 125.0,148.22 124.76,148.28 124.53,148.38 C 124.3,148.48 124.11,148.59 123.94,148.75 C 123.78,148.91 123.66,149.11 123.56,149.34 C 123.47,149.56 123.44,149.77 123.44,150.0 C 123.44,150.23 123.47,150.47 123.56,150.69 C 123.65,150.92 123.8,151.09 123.94,151.25 C 124.11,151.42 124.31,151.54 124.53,151.63 C 124.74,151.72 124.95,151.78 125.19,151.78 C 125.43,151.78 125.7,151.74 125.92,151.66 C 126.14,151.58 126.32,151.46 126.47,151.28 C 126.63,151.12 126.76,150.92 126.84,150.69 C 126.95,150.47 126.99,150.25 127.0,150.03 C 127.0,149.8 126.95,149.56 126.84,149.34 C 126.76,149.11 126.64,148.91 126.47,148.75 C 126.33,148.59 126.14,148.48 125.92,148.38 C 125.69,148.28 125.44,148.22 125.22,148.22 z M 174.79,148.22 C 174.57,148.22 174.32,148.28 174.09,148.38 C 173.87,148.48 173.68,148.59 173.54,148.75 C 173.37,148.91 173.25,149.11 173.17,149.34 C 173.06,149.56 173.01,149.8 173.01,150.03 C 173.02,150.25 173.06,150.47 173.17,150.69 C 173.25,150.92 173.38,151.12 173.54,151.28 C 173.69,151.46 173.87,151.58 174.09,151.66 C 174.31,151.74 174.58,151.78 174.82,151.78 C 175.06,151.78 175.27,151.72 175.48,151.63 C 175.7,151.54 175.9,151.42 176.07,151.25 C 176.21,151.09 176.36,150.92 176.45,150.69 C 176.54,150.47 176.57,150.23 176.57,150.0 C 176.57,149.77 176.54,149.56 176.45,149.34 C 176.35,149.11 176.23,148.91 176.07,148.75 C 175.9,148.59 175.71,148.48 175.48,148.38 C 175.25,148.28 175.01,148.22 174.79,148.22 z" />
		
		<text style="font-size:10px;font-family:z_boli;stroke:none;fill:#00f;text-anchor:middle" transform="matrix(1 0 0 1 150 150)" class="txt"></text>	
			
		<cam mingh:cam="--actions=EditSelectAll;ObjectToPath;ZoomPage;ZoomCenterPage;FileVacuum;FileSave; -g" mingh:style="source:microprism">M2</cam> 
	</g>
</svg>
