<?xml version="1.0" encoding="UTF-8" standalone="no"?>
<svg xmlns="http://www.w3.org/2000/svg" xmlns:mingh="http://www.minghworld.com" xmlns:svg="http://www.w3.org/2000/svg" xmlns:xlink="http://www.w3.org/1999/xlink" height="300px" width="300px">

	  <g>
		<path style="fill:none;stroke:#fb0;stroke-width:0.25px"
			d="M 154.22,173.94 C 154.24,173.97 154.26,173.95 154.29,173.95 C 154.32,173.94 154.37,173.93 154.41,173.93 C 154.48,173.91 154.54,173.89 154.63,173.87 C 154.76,173.84 154.91,173.79 155.04,173.72 C 155.34,173.59 155.57,173.42 155.76,173.18 C 156.16,172.7 156.28,172.07 156.28,171.48 C 156.29,170.94 156.19,170.21 156.1,169.68 C 156.01,169.09 155.92,168.49 155.85,167.89 C 155.79,167.29 155.76,166.7 155.9,166.1 C 155.94,165.95 155.98,165.81 156.04,165.67 C 156.1,165.53 156.18,165.4 156.25,165.27 C 156.39,165.0 156.47,164.72 156.53,164.42 C 156.57,164.12 156.6,163.82 156.57,163.52 C 156.57,163.21 156.51,162.93 156.34,162.66 C 155.98,162.1 155.26,162.07 154.72,162.07 C 153.51,162.07 152.32,162.07 151.12,162.07 C 150.82,162.07 150.51,162.07 150.22,162.07 C 149.89,162.07 149.63,162.12 149.43,161.77 C 149.39,161.7 149.37,161.63 149.34,161.56 C 149.32,161.53 149.32,161.49 149.31,161.45 C 149.29,161.43 149.29,161.42 149.29,161.4 C 149.29,161.39 149.29,161.38 149.29,161.37 C 149.29,161.36 149.28,161.36 149.26,161.36 C 149.12,161.36 148.97,161.36 148.82,161.36 C 148.74,161.36 148.67,161.36 148.59,161.36 C 148.54,161.36 148.51,161.36 148.48,161.36 C 148.46,161.36 148.41,161.43 148.4,161.44 C 148.29,161.55 148.21,161.67 148.12,161.79 C 147.76,162.3 147.59,162.87 147.59,163.5 C 147.6,163.79 147.64,164.11 147.78,164.38 C 147.93,164.67 148.17,164.83 148.43,164.99 C 148.54,165.07 148.68,165.13 148.59,165.3 C 148.54,165.37 148.5,165.43 148.46,165.49 C 148.42,165.56 148.38,165.62 148.35,165.69 C 148.21,165.97 148.12,166.25 148.04,166.55 C 147.91,167.15 147.88,167.74 147.88,168.35 C 147.88,168.95 147.93,169.55 147.96,170.15 C 147.97,170.45 147.99,170.75 148.0,171.05 C 148.01,171.35 148.04,171.65 148.03,171.95 C 148.01,172.26 147.96,172.55 147.85,172.83 C 147.81,172.98 147.74,173.11 147.66,173.24 C 147.66,173.25 147.65,173.25 147.65,173.26 C 147.64,173.27 147.65,173.28 147.66,173.29 C 147.67,173.3 147.68,173.32 147.69,173.34 C 147.71,173.37 147.73,173.4 147.75,173.43 C 147.79,173.49 147.82,173.56 147.87,173.62 C 147.91,173.68 147.95,173.75 147.99,173.81 C 148.01,173.84 148.03,173.88 148.04,173.91 C 148.04,173.92 148.06,173.92 148.06,173.93 C 148.06,173.93 148.07,173.94 148.07,173.94 C 148.07,173.95 148.07,173.95 148.07,173.95 C 148.1,173.95 148.1,173.95 148.13,173.95 C 148.28,173.93 148.43,173.9 148.57,173.86 C 148.87,173.77 149.13,173.66 149.38,173.47 C 150.44,172.66 150.29,171.17 150.18,170.12 C 150.1,169.53 150.01,168.93 149.94,168.34 C 149.87,167.74 149.81,167.15 149.89,166.54 C 149.93,166.19 150.01,165.87 150.2,165.57 C 150.25,165.48 150.43,165.24 150.54,165.19 C 150.59,165.17 150.71,165.18 150.76,165.18 C 150.82,165.18 150.89,165.18 150.96,165.18 C 151.51,165.18 152.04,165.18 152.6,165.18 C 152.87,165.18 153.15,165.18 153.42,165.18 C 153.56,165.18 153.69,165.18 153.82,165.18 C 153.89,165.18 154.2,165.18 154.25,165.18 C 154.44,165.21 154.46,165.35 154.39,165.5 C 154.31,165.65 154.25,165.81 154.2,165.98 C 154.1,166.31 154.04,166.64 154.0,166.98 C 153.92,167.6 153.9,168.21 153.91,168.83 C 153.93,169.45 153.98,170.07 154.01,170.69 C 154.03,171.0 154.04,171.31 154.06,171.62 C 154.07,171.88 154.09,172.28 154.04,172.54 C 154.01,172.7 153.96,172.84 153.89,172.98 C 153.85,173.05 153.82,173.12 153.78,173.19 C 153.76,173.22 153.74,173.25 153.72,173.29 C 153.71,173.3 153.76,173.35 153.76,173.35 C 153.91,173.55 154.06,173.74 154.22,173.94 z M 143.87,168.91 C 143.9,168.94 143.89,168.93 143.92,168.92 C 143.95,168.9 143.98,168.89 144.0,168.87 C 144.04,168.85 144.1,168.82 144.15,168.79 C 144.25,168.73 144.35,168.66 144.44,168.59 C 144.63,168.46 144.81,168.31 144.97,168.13 C 145.29,167.78 145.53,167.4 145.69,166.95 C 145.85,166.51 145.94,166.07 145.97,165.6 C 145.99,165.38 145.99,164.44 145.98,164.22 C 145.95,163.25 145.6,162.36 144.53,162.14 C 144.31,162.09 144.07,162.08 143.84,162.07 C 143.73,162.06 143.6,162.05 143.5,162.05 C 143.38,162.04 143.26,162.04 143.16,162.0 C 142.92,161.92 142.82,161.68 142.76,161.47 C 142.75,161.41 142.74,161.36 142.73,161.3 C 142.73,161.29 142.74,161.27 142.71,161.26 C 142.7,161.26 142.69,161.26 142.67,161.26 C 142.64,161.26 142.6,161.26 142.59,161.26 C 142.47,161.26 142.35,161.26 142.24,161.26 C 142.12,161.26 142.01,161.26 141.89,161.26 C 141.85,161.26 141.82,161.26 141.81,161.26 C 141.79,161.27 141.79,161.28 141.78,161.29 C 141.76,161.31 141.76,161.32 141.76,161.33 C 141.73,161.38 141.7,161.43 141.68,161.48 C 141.57,161.69 141.48,161.9 141.39,162.12 C 141.22,162.56 141.1,162.98 141.14,163.47 C 141.21,164.59 141.94,165.06 142.97,165.16 C 143.29,165.19 144.01,165.16 144.26,165.54 C 144.32,165.64 144.34,165.75 144.34,165.87 C 144.34,165.98 144.32,166.1 144.29,166.21 C 144.26,166.44 144.19,166.65 144.07,166.86 C 143.94,167.12 143.76,167.35 143.56,167.55 C 143.45,167.66 143.35,167.75 143.23,167.84 C 143.18,167.89 143.1,167.93 143.06,167.98 C 143.04,168.0 143.07,168.02 143.09,168.03 C 143.1,168.05 143.12,168.07 143.14,168.08 C 143.38,168.36 143.63,168.63 143.87,168.91 z M 178.35,151.99 C 178.35,159.52 175.37,166.71 170.05,172.03 C 164.73,177.36 157.53,180.34 150.01,180.34 C 142.48,180.34 135.29,177.36 129.96,172.03 C 124.64,166.71 121.66,159.52 121.66,151.99 C 121.66,144.46 124.64,137.27 129.96,131.95 C 135.28,126.62 142.48,123.64 150.01,123.64 C 157.53,123.64 164.72,126.62 170.05,131.95 C 175.37,137.27 178.35,144.46 178.35,151.99 z M 125.22,150.21 C 125.0,150.21 124.76,150.27 124.53,150.37 C 124.3,150.47 124.11,150.58 123.94,150.74 C 123.78,150.9 123.66,151.1 123.56,151.33 C 123.47,151.55 123.44,151.76 123.44,151.99 C 123.44,152.22 123.47,152.46 123.56,152.68 C 123.65,152.91 123.8,153.08 123.94,153.24 C 124.11,153.41 124.31,153.53 124.53,153.62 C 124.74,153.71 124.95,153.77 125.19,153.77 C 125.43,153.77 125.7,153.73 125.92,153.65 C 126.14,153.57 126.32,153.45 126.47,153.27 C 126.63,153.11 126.76,152.91 126.84,152.68 C 126.95,152.46 126.99,152.24 127.0,152.02 C 127.0,151.79 126.95,151.55 126.84,151.33 C 126.76,151.1 126.64,150.9 126.47,150.74 C 126.33,150.58 126.14,150.47 125.92,150.37 C 125.69,150.27 125.44,150.21 125.22,150.21 z M 174.79,150.21 C 174.57,150.21 174.32,150.27 174.09,150.37 C 173.87,150.47 173.68,150.58 173.54,150.74 C 173.37,150.9 173.25,151.1 173.17,151.33 C 173.06,151.55 173.01,151.79 173.01,152.02 C 173.02,152.24 173.06,152.46 173.17,152.68 C 173.25,152.91 173.38,153.11 173.54,153.27 C 173.69,153.45 173.87,153.57 174.09,153.65 C 174.31,153.73 174.58,153.77 174.82,153.77 C 175.06,153.77 175.27,153.71 175.48,153.62 C 175.7,153.53 175.9,153.41 176.07,153.24 C 176.21,153.08 176.36,152.91 176.45,152.68 C 176.54,152.46 176.57,152.22 176.57,151.99 C 176.57,151.76 176.54,151.55 176.45,151.33 C 176.35,151.1 176.23,150.9 176.07,150.74 C 175.9,150.58 175.71,150.47 175.48,150.37 C 175.25,150.27 175.01,150.21 174.79,150.21 z" />
		
		<text style="font-size:10px;font-family:z_boli;stroke:none;fill:#00f;text-anchor:middle" transform="matrix(1 0 0 1 150 150)" class="txt"></text>	
			
		<cam mingh:cam="--actions=EditSelectAll;ObjectToPath;ZoomPage;ZoomCenterPage;FileVacuum;FileSave; -g" mingh:style="source:microprism">M2</cam>
	  </g>
</svg>
