<?xml version="1.0" encoding="UTF-8" standalone="no"?>

<svg xmlns="http://www.w3.org/2000/svg" xmlns:mingh="http://www.minghworld.com" xmlns:svg="http://www.w3.org/2000/svg" xmlns:xlink="http://www.w3.org/1999/xlink" height="300px" width="300px">

  <g>
    <path style="fill:none;stroke:#fb0;stroke-width:0.25px"
		d="M 156.75,165.28 C 156.76,165.24 156.85,165.01 156.87,164.97 C 156.9,164.88 156.94,164.78 156.97,164.69 C 157.04,164.5 157.12,164.31 157.21,164.13 C 157.42,163.66 157.68,163.22 157.96,162.79 C 158.0,162.75 158.03,162.7 158.06,162.66 C 158.1,162.6 158.12,162.53 158.14,162.46 C 158.17,162.3 158.15,162.17 158.07,162.02 C 158.01,161.88 157.92,161.78 157.76,161.71 C 157.64,161.64 157.51,161.63 157.37,161.64 C 157.01,161.66 156.65,161.68 156.28,161.7 C 154.43,161.78 152.57,161.79 150.73,161.79 C 150.59,161.79 150.46,161.78 150.32,161.85 C 150.18,161.92 150.09,162.03 150.01,162.17 C 149.94,162.3 149.87,162.42 149.79,162.55 C 149.75,162.64 149.69,162.73 149.65,162.83 C 149.54,163.07 149.65,163.34 149.88,163.45 C 150.01,163.51 150.15,163.48 150.29,163.47 C 151.21,163.36 152.13,163.29 153.04,163.26 C 153.5,163.24 153.95,163.24 154.4,163.24 C 154.63,163.24 154.85,163.24 155.09,163.25 C 155.15,163.25 155.21,163.25 155.26,163.25 C 155.29,163.25 155.29,163.25 155.32,163.25 C 155.32,163.25 155.35,163.24 155.35,163.26 C 155.34,163.28 155.32,163.29 155.32,163.31 C 155.25,163.43 155.18,163.54 155.17,163.69 C 155.14,163.95 155.26,164.12 155.38,164.32 C 155.47,164.47 155.54,164.62 155.64,164.76 C 155.72,164.91 155.81,165.06 155.89,165.2 C 155.98,165.35 156.06,165.46 156.24,165.5 C 156.44,165.54 156.65,165.45 156.75,165.28 z M 152.37,160.02 C 152.35,159.98 152.19,159.79 152.17,159.76 C 152.1,159.68 152.04,159.61 151.97,159.53 C 151.84,159.37 151.72,159.21 151.6,159.05 C 151.29,158.63 151.04,158.18 150.82,157.72 C 150.79,157.67 150.78,157.62 150.76,157.57 C 150.72,157.51 150.68,157.46 150.63,157.41 C 150.5,157.3 150.38,157.25 150.22,157.24 C 150.06,157.22 149.93,157.26 149.79,157.35 C 149.67,157.43 149.6,157.53 149.54,157.66 C 149.37,157.99 149.21,158.31 149.04,158.63 C 148.18,160.27 147.26,161.88 146.34,163.48 C 146.26,163.6 146.2,163.72 146.19,163.87 C 146.18,164.03 146.22,164.16 146.31,164.3 C 146.38,164.43 146.46,164.55 146.53,164.67 C 146.59,164.76 146.64,164.86 146.7,164.95 C 146.85,165.15 147.15,165.2 147.35,165.05 C 147.48,164.96 147.51,164.84 147.57,164.71 C 147.94,163.86 148.34,163.03 148.78,162.21 C 148.99,161.82 149.2,161.42 149.43,161.04 C 149.54,160.83 149.66,160.63 149.78,160.44 C 149.81,160.39 149.84,160.33 149.88,160.28 C 149.88,160.27 149.89,160.26 149.9,160.25 C 149.9,160.24 149.91,160.21 149.92,160.22 C 149.93,160.24 149.94,160.26 149.95,160.28 C 150.01,160.4 150.09,160.51 150.2,160.59 C 150.42,160.75 150.63,160.72 150.85,160.72 C 151.03,160.72 151.2,160.72 151.37,160.72 C 151.54,160.72 151.71,160.72 151.88,160.72 C 152.04,160.72 152.19,160.71 152.31,160.57 C 152.45,160.42 152.47,160.19 152.37,160.02 z M 145.63,161.18 C 145.59,161.18 145.34,161.22 145.29,161.23 C 145.2,161.25 145.1,161.26 145.0,161.28 C 144.79,161.31 144.6,161.34 144.4,161.36 C 143.89,161.41 143.38,161.4 142.87,161.37 C 142.81,161.36 142.76,161.36 142.7,161.36 C 142.63,161.35 142.56,161.36 142.5,161.39 C 142.34,161.44 142.23,161.52 142.14,161.65 C 142.04,161.79 142.01,161.92 142.03,162.08 C 142.03,162.22 142.09,162.34 142.17,162.46 C 142.37,162.76 142.56,163.06 142.76,163.37 C 143.76,164.93 144.69,166.53 145.6,168.14 C 145.68,168.26 145.75,168.37 145.87,168.46 C 146.01,168.55 146.14,168.57 146.31,168.57 C 146.45,168.57 146.59,168.57 146.73,168.56 C 146.84,168.56 146.95,168.56 147.06,168.55 C 147.31,168.52 147.5,168.29 147.48,168.04 C 147.46,167.89 147.37,167.79 147.29,167.68 C 146.74,166.94 146.22,166.17 145.73,165.39 C 145.49,165.01 145.26,164.62 145.04,164.24 C 144.92,164.03 144.81,163.83 144.69,163.63 C 144.67,163.58 144.64,163.53 144.6,163.47 C 144.6,163.46 144.6,163.45 144.59,163.43 C 144.57,163.43 144.56,163.4 144.57,163.4 C 144.6,163.4 144.62,163.4 144.64,163.4 C 144.78,163.4 144.91,163.4 145.04,163.34 C 145.28,163.24 145.37,163.04 145.48,162.84 C 145.57,162.69 145.65,162.55 145.74,162.4 C 145.82,162.25 145.91,162.11 145.99,161.96 C 146.07,161.81 146.13,161.68 146.07,161.5 C 146.01,161.31 145.82,161.18 145.63,161.18 z M 143.26,167.6 C 143.24,167.64 143.16,167.87 143.14,167.91 C 143.1,168.0 143.07,168.1 143.04,168.19 C 142.96,168.38 142.89,168.57 142.79,168.75 C 142.59,169.22 142.32,169.66 142.04,170.08 C 142.01,170.13 141.98,170.18 141.95,170.22 C 141.91,170.28 141.89,170.35 141.87,170.42 C 141.84,170.58 141.85,170.71 141.93,170.86 C 142.0,171.0 142.09,171.1 142.24,171.17 C 142.37,171.23 142.5,171.24 142.64,171.24 C 143.0,171.21 143.35,171.2 143.73,171.18 C 145.57,171.1 147.43,171.09 149.28,171.09 C 149.42,171.09 149.54,171.09 149.68,171.03 C 149.82,170.96 149.92,170.85 150.0,170.71 C 150.07,170.58 150.14,170.46 150.21,170.33 C 150.26,170.24 150.32,170.15 150.35,170.05 C 150.46,169.81 150.35,169.53 150.13,169.43 C 149.99,169.36 149.85,169.39 149.72,169.41 C 148.79,169.52 147.88,169.59 146.96,169.62 C 146.51,169.63 146.06,169.64 145.6,169.64 C 145.38,169.64 145.15,169.64 144.92,169.63 C 144.85,169.63 144.79,169.63 144.74,169.63 C 144.72,169.63 144.71,169.63 144.69,169.63 C 144.69,169.63 144.66,169.64 144.66,169.62 C 144.67,169.6 144.68,169.59 144.69,169.57 C 144.76,169.45 144.82,169.33 144.84,169.19 C 144.87,168.93 144.74,168.76 144.63,168.56 C 144.54,168.41 144.46,168.26 144.37,168.12 C 144.29,167.97 144.2,167.82 144.12,167.68 C 144.03,167.53 143.95,167.42 143.76,167.38 C 143.57,167.33 143.35,167.42 143.26,167.6 z M 147.64,172.86 C 147.66,172.9 147.82,173.09 147.84,173.12 C 147.91,173.19 147.97,173.27 148.04,173.35 C 148.17,173.51 148.29,173.67 148.41,173.83 C 148.71,174.25 148.96,174.69 149.18,175.16 C 149.21,175.21 149.23,175.26 149.25,175.31 C 149.29,175.37 149.32,175.42 149.38,175.47 C 149.51,175.58 149.63,175.63 149.79,175.64 C 149.95,175.65 150.07,175.62 150.22,175.53 C 150.34,175.45 150.41,175.35 150.47,175.22 C 150.64,174.89 150.79,174.57 150.97,174.25 C 151.82,172.6 152.75,171.0 153.67,169.4 C 153.74,169.27 153.81,169.16 153.82,169.01 C 153.82,168.85 153.79,168.71 153.7,168.58 C 153.63,168.45 153.54,168.33 153.48,168.21 C 153.42,168.12 153.37,168.02 153.31,167.93 C 153.15,167.73 152.85,167.68 152.65,167.83 C 152.53,167.92 152.49,168.04 152.44,168.17 C 152.07,169.02 151.67,169.85 151.23,170.67 C 151.01,171.06 150.81,171.45 150.57,171.84 C 150.46,172.04 150.35,172.24 150.23,172.44 C 150.2,172.49 150.17,172.54 150.13,172.59 C 150.13,172.61 150.12,172.62 150.1,172.63 C 150.1,172.64 150.1,172.67 150.09,172.66 C 150.07,172.64 150.07,172.62 150.06,172.6 C 149.99,172.48 149.92,172.37 149.81,172.28 C 149.59,172.13 149.38,172.16 149.15,172.16 C 148.98,172.16 148.81,172.16 148.64,172.16 C 148.47,172.16 148.29,172.16 148.13,172.16 C 147.96,172.16 147.82,172.17 147.7,172.31 C 147.56,172.46 147.54,172.69 147.64,172.86 z M 154.38,171.7 C 154.42,171.7 154.67,171.66 154.71,171.65 C 154.81,171.63 154.91,171.62 155.01,171.6 C 155.21,171.57 155.41,171.54 155.6,171.52 C 156.12,171.47 156.63,171.47 157.14,171.51 C 157.2,171.51 157.25,171.52 157.31,171.52 C 157.38,171.53 157.45,171.51 157.51,171.49 C 157.67,171.44 157.78,171.36 157.87,171.22 C 157.96,171.09 157.99,170.96 157.98,170.8 C 157.98,170.66 157.92,170.54 157.84,170.42 C 157.64,170.12 157.45,169.81 157.25,169.51 C 156.25,167.94 155.32,166.35 154.4,164.74 C 154.32,164.62 154.26,164.51 154.14,164.42 C 154.0,164.33 153.87,164.3 153.7,164.31 C 153.56,164.31 153.42,164.31 153.28,164.32 C 153.17,164.32 153.06,164.31 152.95,164.33 C 152.7,164.36 152.51,164.59 152.53,164.84 C 152.54,164.99 152.64,165.09 152.72,165.2 C 153.26,165.94 153.79,166.7 154.28,167.49 C 154.51,167.87 154.75,168.25 154.97,168.64 C 155.09,168.84 155.2,169.05 155.31,169.25 C 155.34,169.3 155.37,169.35 155.4,169.4 C 155.41,169.42 155.41,169.43 155.42,169.44 C 155.43,169.45 155.45,169.47 155.43,169.47 C 155.41,169.47 155.39,169.47 155.37,169.47 C 155.23,169.47 155.1,169.47 154.97,169.53 C 154.73,169.64 154.64,169.84 154.53,170.04 C 154.44,170.19 154.35,170.33 154.26,170.48 C 154.19,170.63 154.1,170.77 154.01,170.92 C 153.93,171.07 153.88,171.19 153.94,171.37 C 154.0,171.57 154.18,171.7 154.38,171.7 z M 178.35,150.0 C 178.35,157.53 175.37,164.72 170.05,170.04 C 164.73,175.37 157.53,178.35 150.01,178.35 C 142.48,178.35 135.29,175.37 129.96,170.04 C 124.64,164.72 121.66,157.53 121.66,150.0 C 121.66,142.47 124.64,135.28 129.96,129.96 C 135.28,124.63 142.48,121.65 150.01,121.65 C 157.53,121.65 164.72,124.63 170.05,129.96 C 175.37,135.28 178.35,142.47 178.35,150.0 z M 126.54,145.06 C 125.83,145.06 125.23,145.32 124.68,145.84 C 124.16,146.37 123.9,147.0 123.9,147.72 C 123.9,149.24 123.9,150.76 123.9,152.28 C 123.9,153.0 124.16,153.63 124.68,154.16 C 125.23,154.68 125.83,154.94 126.54,154.94 C 127.23,154.94 127.87,154.68 128.41,154.16 C 128.94,153.63 129.19,153.0 129.19,152.28 C 129.19,150.76 129.19,149.24 129.19,147.72 C 129.19,147.0 128.94,146.37 128.41,145.84 C 127.87,145.32 127.23,145.06 126.54,145.06 z M 173.47,145.06 C 172.78,145.06 172.14,145.32 171.6,145.84 C 171.07,146.37 170.82,147.0 170.82,147.72 C 170.82,149.24 170.82,150.76 170.82,152.28 C 170.82,153.0 171.07,153.63 171.6,154.16 C 172.14,154.68 172.78,154.94 173.47,154.94 C 174.18,154.94 174.78,154.68 175.33,154.16 C 175.85,153.63 176.11,153.0 176.11,152.28 C 176.11,150.76 176.11,149.24 176.11,147.72 C 176.11,147.0 175.85,146.37 175.33,145.84 C 174.78,145.32 174.18,145.06 173.47,145.06 z" />
		
		<text style="font-size:10px;font-family:z_boli;stroke:none;fill:#00f;text-anchor:middle" transform="matrix(1 0 0 1 150 150)" class="txt"></text>	
			
		<cam mingh:cam="--actions=EditSelectAll;ObjectToPath;ZoomPage;ZoomCenterPage;FileVacuum;FileSave; -g" mingh:style="source:microprism">M2</cam>
  </g>
</svg>
