<?xml version="1.0" encoding="UTF-8" standalone="no"?>

<svg xmlns="http://www.w3.org/2000/svg" xmlns:mingh="http://www.minghworld.com" xmlns:svg="http://www.w3.org/2000/svg" xmlns:xlink="http://www.w3.org/1999/xlink" height="300px" width="300px">
  
  <g>
    <path style="fill:none;stroke:#fb0;stroke-width:0.25px"
		d="M 147.12,171.79 C 146.96,171.67 146.82,171.54 146.7,171.33 C 146.68,171.31 146.67,171.28 146.66,171.26 C 146.57,171.08 146.63,170.96 146.84,170.94 C 147.22,170.91 147.6,170.9 147.97,170.94 C 148.28,170.97 148.57,171.03 148.87,171.1 C 149.09,171.16 149.31,171.22 149.51,171.3 C 149.66,171.35 149.79,171.4 149.94,171.46 C 150.07,171.51 150.1,171.58 150.07,171.71 C 150.07,171.75 150.06,171.78 150.06,171.82 C 150.04,171.85 150.04,171.89 150.04,171.92 C 150.04,172.0 150.04,172.07 150.06,172.15 C 150.07,172.23 150.09,172.31 150.1,172.38 C 150.15,172.49 150.19,172.6 150.24,172.7 C 150.32,172.87 150.44,173.03 150.56,173.17 C 150.57,173.21 150.6,173.24 150.64,173.28 C 150.67,173.31 150.69,173.33 150.72,173.36 C 150.76,173.4 150.81,173.45 150.85,173.48 C 150.88,173.5 150.9,173.51 150.92,173.52 C 150.94,173.53 150.96,173.54 150.98,173.55 C 150.99,173.56 151.0,173.56 151.01,173.56 C 151.01,173.57 151.03,173.57 151.04,173.57 C 151.07,173.57 151.09,173.57 151.1,173.57 C 151.13,173.56 151.15,173.56 151.17,173.55 C 151.19,173.54 151.21,173.53 151.23,173.51 C 151.24,173.5 151.26,173.49 151.26,173.48 C 151.29,173.46 151.29,173.44 151.31,173.42 C 151.32,173.4 151.32,173.38 151.34,173.36 C 151.35,173.3 151.38,173.24 151.4,173.18 C 151.43,173.06 151.47,172.94 151.5,172.82 C 151.51,172.75 151.54,172.69 151.56,172.62 C 151.57,172.55 151.57,172.48 151.57,172.4 C 151.57,172.25 151.63,172.18 151.78,172.17 C 151.94,172.16 152.09,172.13 152.23,172.08 C 152.41,172.02 152.57,171.95 152.73,171.85 C 152.76,171.82 152.81,171.8 152.84,171.77 C 152.85,171.76 152.88,171.74 152.9,171.73 C 152.91,171.71 152.93,171.69 152.94,171.66 C 152.95,171.64 152.96,171.61 152.96,171.59 C 152.96,171.57 152.96,171.56 152.96,171.54 C 152.96,171.53 152.96,171.52 152.95,171.51 C 152.94,171.49 152.94,171.47 152.93,171.46 C 152.91,171.44 152.89,171.41 152.87,171.39 C 152.84,171.36 152.81,171.34 152.78,171.32 C 152.72,171.27 152.65,171.22 152.57,171.18 C 152.43,171.08 152.28,171.0 152.1,170.94 C 152.01,170.9 151.92,170.87 151.82,170.84 C 151.73,170.82 151.65,170.81 151.56,170.8 C 151.44,170.78 151.32,170.78 151.21,170.79 C 151.1,170.8 150.99,170.82 150.88,170.85 C 150.84,170.86 150.81,170.88 150.76,170.89 C 150.66,170.93 150.59,170.92 150.51,170.83 C 150.47,170.78 150.43,170.72 150.38,170.66 C 150.28,170.56 150.18,170.46 150.07,170.36 C 149.95,170.26 149.82,170.16 149.7,170.07 C 149.54,169.95 149.39,169.84 149.23,169.73 C 149.04,169.61 148.87,169.5 148.68,169.39 C 148.5,169.29 148.32,169.19 148.14,169.11 C 147.98,169.03 147.81,168.96 147.64,168.9 C 147.49,168.84 147.35,168.8 147.2,168.75 C 147.04,168.7 147.01,168.62 147.07,168.47 C 147.09,168.39 147.12,168.31 147.15,168.23 C 147.17,168.17 147.2,168.1 147.22,168.04 C 147.25,167.99 147.28,167.94 147.31,167.89 C 147.35,167.84 147.38,167.79 147.42,167.74 C 147.45,167.7 147.49,167.67 147.51,167.63 C 147.54,167.6 147.57,167.57 147.6,167.54 C 147.64,167.52 147.67,167.5 147.7,167.47 C 147.73,167.45 147.75,167.42 147.76,167.38 C 147.76,167.37 147.76,167.35 147.76,167.34 C 147.76,167.33 147.76,167.32 147.76,167.32 C 147.76,167.31 147.76,167.3 147.76,167.29 C 147.76,167.28 147.76,167.28 147.76,167.27 C 147.75,167.26 147.75,167.26 147.74,167.25 C 147.73,167.24 147.73,167.24 147.72,167.23 C 147.71,167.23 147.7,167.22 147.68,167.21 C 147.66,167.21 147.64,167.2 147.62,167.2 C 147.6,167.2 147.57,167.2 147.54,167.19 C 147.51,167.19 147.47,167.19 147.43,167.19 C 147.34,167.2 147.25,167.21 147.16,167.22 C 147.04,167.24 146.94,167.27 146.84,167.31 C 146.76,167.34 146.67,167.38 146.59,167.42 C 146.51,167.46 146.43,167.51 146.35,167.56 C 146.26,167.62 146.16,167.69 146.07,167.76 C 145.98,167.84 145.89,167.92 145.81,168.0 C 145.75,168.06 145.7,168.12 145.65,168.18 C 145.56,168.29 145.49,168.4 145.41,168.51 C 145.37,168.58 145.32,168.61 145.25,168.62 C 145.09,168.64 144.93,168.66 144.76,168.69 C 144.6,168.73 144.45,168.77 144.29,168.81 C 144.07,168.88 143.87,168.95 143.67,169.05 C 143.57,169.09 143.49,169.14 143.41,169.19 C 143.32,169.24 143.24,169.29 143.16,169.35 C 143.07,169.41 143.01,169.47 142.93,169.53 C 142.87,169.59 142.79,169.66 142.74,169.72 C 142.68,169.79 142.63,169.86 142.57,169.93 C 142.54,169.97 142.51,170.02 142.49,170.06 C 142.43,170.15 142.38,170.24 142.34,170.34 C 142.31,170.41 142.29,170.48 142.26,170.55 C 142.25,170.62 142.24,170.69 142.23,170.75 C 142.21,170.83 142.2,170.91 142.2,170.99 C 142.19,171.16 142.19,171.32 142.21,171.48 C 142.21,171.55 142.2,171.6 142.15,171.65 C 142.07,171.73 142.01,171.81 141.96,171.89 C 141.9,171.97 141.85,172.05 141.79,172.13 C 141.76,172.2 141.72,172.27 141.68,172.35 C 141.66,172.4 141.64,172.46 141.6,172.51 C 141.59,172.57 141.56,172.62 141.54,172.69 C 141.53,172.73 141.51,172.78 141.51,172.82 C 141.51,172.86 141.54,172.91 141.56,172.94 C 141.57,172.96 141.59,172.97 141.6,172.99 C 141.62,173.0 141.64,173.01 141.66,173.02 C 141.7,173.03 141.74,173.04 141.78,173.03 C 141.81,173.03 141.82,173.03 141.85,173.02 C 141.87,173.01 141.9,173.0 141.92,172.98 C 142.14,172.81 142.37,172.66 142.6,172.51 C 142.92,172.32 143.25,172.14 143.57,171.98 C 143.82,171.86 144.07,171.74 144.32,171.64 C 144.35,171.63 144.38,171.62 144.41,171.61 C 144.49,171.58 144.54,171.58 144.62,171.63 C 144.68,171.68 144.75,171.73 144.81,171.78 C 144.85,171.8 144.88,171.83 144.91,171.86 C 144.96,171.9 145.01,171.94 145.06,171.97 C 145.15,172.04 145.24,172.1 145.34,172.15 C 145.48,172.23 145.64,172.29 145.79,172.35 C 145.88,172.37 145.97,172.4 146.06,172.41 C 146.12,172.43 146.18,172.44 146.24,172.45 C 146.34,172.46 146.44,172.46 146.54,172.46 C 146.6,172.46 146.66,172.46 146.73,172.46 C 146.79,172.46 146.85,172.45 146.93,172.45 C 147.06,172.43 147.19,172.42 147.32,172.38 C 147.38,172.37 147.44,172.35 147.5,172.33 C 147.51,172.32 147.53,172.32 147.54,172.31 C 147.56,172.3 147.57,172.3 147.57,172.29 C 147.59,172.29 147.6,172.28 147.6,172.27 C 147.6,172.26 147.62,172.26 147.62,172.25 C 147.63,172.24 147.63,172.23 147.63,172.23 C 147.64,172.22 147.64,172.21 147.64,172.2 C 147.63,172.19 147.63,172.18 147.62,172.17 C 147.62,172.16 147.62,172.16 147.6,172.15 C 147.6,172.15 147.6,172.14 147.6,172.14 C 147.57,172.12 147.56,172.11 147.54,172.1 C 147.48,172.07 147.43,172.03 147.37,171.99 C 147.29,171.92 147.2,171.86 147.12,171.79 z M 151.74,165.74 C 151.66,165.68 151.57,165.61 151.47,165.51 C 151.35,165.41 151.23,165.29 151.13,165.19 C 150.89,164.96 150.54,164.62 150.29,164.22 C 150.15,164.01 150.29,163.82 150.54,163.89 C 151.24,164.1 151.92,164.42 152.56,164.81 C 152.98,165.08 153.38,165.37 153.76,165.7 C 154.13,166.02 154.48,166.37 154.79,166.74 C 155.15,167.15 155.47,167.58 155.75,168.04 C 155.76,168.06 155.76,168.08 155.79,168.1 C 155.85,168.22 155.84,168.3 155.73,168.39 C 155.54,168.53 155.35,168.71 155.22,168.9 C 154.91,169.3 154.74,169.78 154.64,170.28 C 154.54,170.72 154.51,171.16 154.51,171.6 C 154.51,171.7 154.51,171.8 154.53,171.9 C 154.54,172.0 154.54,172.1 154.57,172.19 C 154.59,172.24 154.6,172.28 154.62,172.33 C 154.63,172.35 154.64,172.37 154.64,172.39 C 154.65,172.4 154.66,172.42 154.67,172.43 C 154.68,172.44 154.69,172.46 154.7,172.47 C 154.71,172.49 154.72,172.5 154.73,172.51 C 154.76,172.53 154.79,172.55 154.84,172.57 C 154.88,172.58 154.9,172.58 154.94,172.59 C 154.99,172.59 155.01,172.59 155.06,172.59 C 155.1,172.59 155.16,172.58 155.21,172.56 C 155.23,172.55 155.26,172.54 155.28,172.53 C 155.29,172.52 155.32,172.5 155.35,172.49 C 155.42,172.44 155.49,172.39 155.56,172.34 C 155.71,172.22 155.85,172.11 156.01,171.99 C 156.22,171.84 156.44,171.7 156.65,171.52 C 156.79,171.39 156.95,171.24 157.04,171.06 C 157.14,170.91 157.24,170.89 157.38,171.0 C 157.41,171.02 157.44,171.05 157.48,171.07 C 157.54,171.12 157.6,171.17 157.67,171.21 C 157.78,171.28 157.89,171.34 158.0,171.39 C 158.1,171.45 158.23,171.5 158.34,171.54 C 158.48,171.6 158.62,171.64 158.76,171.69 C 159.0,171.76 159.25,171.83 159.51,171.86 C 159.54,171.87 159.6,171.88 159.64,171.88 C 159.69,171.88 159.74,171.88 159.79,171.87 C 159.82,171.86 159.85,171.85 159.89,171.84 C 159.93,171.83 159.98,171.81 160.01,171.78 C 160.04,171.75 160.07,171.71 160.1,171.67 C 160.1,171.65 160.12,171.62 160.12,171.6 C 160.13,171.57 160.14,171.54 160.14,171.52 C 160.14,171.5 160.15,171.47 160.15,171.45 C 160.15,171.4 160.15,171.35 160.15,171.3 C 160.14,171.2 160.12,171.1 160.1,171.0 C 160.03,170.67 159.94,170.34 159.81,170.02 C 159.65,169.62 159.43,169.25 159.14,168.93 C 158.73,168.47 158.19,168.11 157.6,167.97 C 157.57,167.97 157.56,167.97 157.54,167.96 C 157.4,167.94 157.35,167.87 157.35,167.73 C 157.37,167.49 157.37,167.25 157.34,167.01 C 157.31,166.64 157.23,166.27 157.12,165.91 C 157.04,165.63 156.95,165.36 156.85,165.09 C 156.75,164.83 156.64,164.58 156.51,164.33 C 156.29,163.85 156.03,163.39 155.74,162.94 C 155.59,162.7 155.42,162.47 155.24,162.24 C 154.96,161.89 154.66,161.55 154.34,161.24 C 154.15,161.04 153.95,160.86 153.74,160.68 C 153.53,160.5 153.32,160.33 153.1,160.18 C 153.01,160.11 152.99,160.04 153.01,159.93 C 153.07,159.77 153.14,159.61 153.24,159.47 C 153.37,159.27 153.56,159.11 153.75,158.99 C 153.84,158.93 153.93,158.88 154.03,158.84 C 154.13,158.8 154.23,158.76 154.32,158.73 C 154.42,158.7 154.51,158.68 154.6,158.66 C 154.7,158.65 154.79,158.64 154.89,158.63 C 154.91,158.63 154.94,158.63 154.96,158.63 C 154.97,158.63 154.99,158.62 155.01,158.62 C 155.01,158.62 155.04,158.62 155.06,158.61 C 155.07,158.6 155.1,158.6 155.12,158.58 C 155.14,158.57 155.16,158.56 155.17,158.54 C 155.2,158.5 155.22,158.46 155.23,158.42 C 155.23,158.39 155.23,158.37 155.23,158.35 C 155.22,158.32 155.21,158.3 155.2,158.28 C 155.18,158.25 155.16,158.23 155.14,158.21 C 155.12,158.19 155.07,158.16 155.04,158.14 C 154.85,158.0 154.63,157.88 154.41,157.77 C 154.21,157.67 154.01,157.59 153.79,157.52 C 153.59,157.46 153.39,157.41 153.18,157.37 C 152.98,157.33 152.76,157.31 152.56,157.3 C 152.32,157.29 152.1,157.3 151.89,157.33 C 151.66,157.36 151.43,157.41 151.2,157.47 C 151.07,157.51 150.97,157.54 150.85,157.59 C 150.72,157.64 150.59,157.7 150.46,157.77 C 150.18,157.91 149.91,158.07 149.67,158.27 C 149.6,158.32 149.54,158.33 149.46,158.3 C 149.22,158.22 148.97,158.15 148.72,158.09 C 148.54,158.05 148.35,158.02 148.18,157.98 C 148.01,157.96 147.87,157.93 147.71,157.91 C 147.53,157.89 147.35,157.87 147.17,157.86 C 146.92,157.85 146.66,157.84 146.41,157.85 C 146.19,157.86 145.97,157.87 145.75,157.9 C 145.54,157.93 145.32,157.97 145.1,158.03 C 144.91,158.08 144.71,158.14 144.51,158.21 C 144.34,158.28 144.16,158.36 143.98,158.46 C 143.82,158.55 143.65,158.64 143.5,158.75 C 143.37,158.84 143.25,158.93 143.14,159.03 C 142.99,159.16 142.85,159.3 142.72,159.46 C 142.62,159.58 142.51,159.71 142.43,159.85 C 142.35,159.97 142.29,160.1 142.23,160.23 C 142.16,160.37 142.1,160.52 142.04,160.67 C 141.91,161.02 141.82,161.38 141.76,161.75 C 141.76,161.82 141.73,161.87 141.67,161.9 C 141.46,162.03 141.26,162.17 141.07,162.33 C 140.87,162.49 140.68,162.68 140.49,162.87 C 140.39,162.98 140.28,163.09 140.19,163.21 C 140.07,163.37 139.95,163.53 139.84,163.69 C 139.79,163.77 139.76,163.86 139.76,163.96 C 139.78,164.05 139.81,164.14 139.87,164.21 C 139.93,164.29 140.01,164.34 140.1,164.37 C 140.15,164.38 140.19,164.38 140.24,164.38 C 140.29,164.38 140.32,164.37 140.38,164.35 C 141.23,164.03 142.1,163.77 143.0,163.58 C 143.26,163.53 143.53,163.48 143.79,163.44 C 144.03,163.4 144.26,163.37 144.5,163.34 C 144.95,163.29 145.4,163.25 145.85,163.2 C 145.99,163.19 146.12,163.17 146.24,163.17 C 146.34,163.17 146.39,163.2 146.44,163.29 C 146.48,163.38 146.54,163.47 146.59,163.56 C 146.76,163.84 146.95,164.1 147.16,164.35 C 147.32,164.54 147.51,164.73 147.72,164.91 C 147.87,165.04 148.04,165.17 148.21,165.29 C 148.37,165.4 148.53,165.5 148.7,165.6 C 148.88,165.69 149.04,165.77 149.23,165.84 C 149.43,165.92 149.63,165.98 149.84,166.03 C 149.92,166.05 150.0,166.07 150.07,166.08 C 150.19,166.11 150.29,166.12 150.42,166.14 C 150.6,166.16 150.79,166.18 150.98,166.18 C 151.13,166.18 151.28,166.18 151.42,166.17 C 151.49,166.17 151.56,166.17 151.62,166.16 C 151.66,166.15 151.7,166.15 151.74,166.14 C 151.76,166.14 151.81,166.13 151.84,166.12 C 151.85,166.12 151.87,166.11 151.88,166.11 C 151.91,166.1 151.93,166.09 151.95,166.07 C 151.96,166.06 151.97,166.06 151.97,166.05 C 151.98,166.04 151.98,166.03 151.98,166.02 C 151.99,166.01 151.99,166.0 151.99,165.99 C 151.99,165.97 151.99,165.97 151.98,165.96 C 151.98,165.94 151.96,165.92 151.94,165.9 C 151.93,165.89 151.92,165.88 151.91,165.87 C 151.89,165.85 151.87,165.84 151.85,165.83 C 151.82,165.8 151.78,165.77 151.74,165.74 z M 178.35,150.0 C 178.35,157.53 175.37,164.72 170.05,170.04 C 164.73,175.37 157.53,178.35 150.01,178.35 C 142.48,178.35 135.29,175.37 129.96,170.04 C 124.64,164.72 121.66,157.53 121.66,150.0 C 121.66,142.47 124.64,135.28 129.96,129.96 C 135.28,124.63 142.48,121.65 150.01,121.65 C 157.53,121.65 164.72,124.63 170.05,129.96 C 175.37,135.28 178.35,142.47 178.35,150.0 z M 126.54,145.06 C 125.83,145.06 125.23,145.32 124.68,145.84 C 124.16,146.37 123.9,147.0 123.9,147.72 C 123.9,149.24 123.9,150.76 123.9,152.28 C 123.9,153.0 124.16,153.63 124.68,154.16 C 125.23,154.68 125.83,154.94 126.54,154.94 C 127.23,154.94 127.87,154.68 128.41,154.16 C 128.94,153.63 129.19,153.0 129.19,152.28 C 129.19,150.76 129.19,149.24 129.19,147.72 C 129.19,147.0 128.94,146.37 128.41,145.84 C 127.87,145.32 127.23,145.06 126.54,145.06 z M 173.47,145.06 C 172.78,145.06 172.14,145.32 171.6,145.84 C 171.07,146.37 170.82,147.0 170.82,147.72 C 170.82,149.24 170.82,150.76 170.82,152.28 C 170.82,153.0 171.07,153.63 171.6,154.16 C 172.14,154.68 172.78,154.94 173.47,154.94 C 174.18,154.94 174.78,154.68 175.33,154.16 C 175.85,153.63 176.11,153.0 176.11,152.28 C 176.11,150.76 176.11,149.24 176.11,147.72 C 176.11,147.0 175.85,146.37 175.33,145.84 C 174.78,145.32 174.18,145.06 173.47,145.06 z" />
		
		<text style="font-size:10px;font-family:z_boli;stroke:none;fill:#00f;text-anchor:middle" transform="matrix(1 0 0 1 150 150)" class="txt"></text>	
			
		<cam mingh:cam="--actions=EditSelectAll;ObjectToPath;ZoomPage;ZoomCenterPage;FileVacuum;FileSave; -g" mingh:style="source:microprism">M2</cam> 
  </g>
</svg>
