<?xml version="1.0" encoding="UTF-8" standalone="no"?>

<svg
   xmlns:xlink="http://www.w3.org/1999/xlink"
   xmlns:svg="http://www.w3.org/2000/svg"
   xmlns="http://www.w3.org/2000/svg"
   xmlns:mingh="http://www.minghworld.com"
   width="300px"
   height="300px" >
	<g>
		<path style="fill:none;stroke:#fb0;stroke-width:0.25px"
			d="M 153.16,126.88 C 153.16,125.13 151.75,123.71 150.0,123.71 C 148.24,123.71 146.83,125.13 146.83,126.88 C 146.83,128.63 148.24,130.05 150.0,130.05 C 151.75,130.05 153.16,128.63 153.16,126.88 z M 178.35,150.0 C 178.35,157.53 175.37,164.72 170.04,170.04 C 164.72,175.37 157.53,178.35 150.0,178.35 C 142.47,178.35 135.28,175.37 129.96,170.04 C 124.63,164.72 121.65,157.53 121.65,150.0 C 121.65,142.47 124.63,135.28 129.96,129.96 C 135.28,124.63 142.47,121.65 150.0,121.65 C 157.53,121.65 164.72,124.63 170.04,129.96 C 175.37,135.28 178.35,142.47 178.35,150.0 z M 150.0,171.96 C 150.38,171.78 150.75,171.59 151.11,171.39 C 151.3,171.28 151.49,171.17 151.68,171.05 C 152.0,170.86 152.3,170.65 152.6,170.44 C 152.9,170.22 153.2,169.99 153.48,169.76 C 153.78,169.52 154.06,169.28 154.34,169.02 C 154.63,168.76 154.9,168.49 155.17,168.21 C 155.43,167.93 155.68,167.63 155.9,167.32 C 156.12,167.01 156.32,166.68 156.48,166.34 C 156.64,166.01 156.77,165.67 156.87,165.32 C 156.97,164.97 157.04,164.61 157.08,164.25 C 157.11,163.92 157.11,163.6 157.07,163.27 C 157.05,163.0 156.99,162.74 156.91,162.48 C 156.83,162.23 156.73,161.98 156.59,161.75 C 156.47,161.53 156.31,161.33 156.14,161.14 C 155.97,160.96 155.78,160.81 155.57,160.67 C 155.36,160.53 155.13,160.42 154.89,160.33 C 154.71,160.26 154.52,160.21 154.33,160.18 C 154.06,160.13 153.79,160.12 153.51,160.12 C 153.24,160.13 152.97,160.16 152.71,160.22 C 152.47,160.28 152.24,160.36 152.02,160.47 C 151.92,160.52 151.82,160.58 151.73,160.65 C 151.64,160.71 151.55,160.78 151.46,160.86 C 151.38,160.93 151.3,161.0 151.23,161.08 C 151.15,161.16 151.08,161.24 151.01,161.33 C 150.85,161.52 150.71,161.73 150.59,161.94 C 150.44,162.19 150.32,162.46 150.2,162.72 C 150.14,162.89 150.07,163.05 150.0,163.22 C 149.93,163.05 149.86,162.89 149.8,162.72 C 149.68,162.46 149.56,162.19 149.41,161.94 C 149.29,161.73 149.15,161.52 148.99,161.33 C 148.85,161.16 148.7,161.0 148.54,160.86 C 148.45,160.78 148.36,160.71 148.27,160.65 C 148.18,160.58 148.08,160.52 147.98,160.47 C 147.76,160.36 147.53,160.28 147.29,160.22 C 147.03,160.16 146.76,160.13 146.49,160.12 C 146.21,160.12 145.94,160.13 145.67,160.18 C 145.48,160.21 145.29,160.26 145.11,160.33 C 144.87,160.42 144.64,160.53 144.43,160.67 C 144.22,160.81 144.03,160.96 143.86,161.14 C 143.69,161.33 143.53,161.53 143.41,161.75 C 143.27,161.98 143.17,162.23 143.09,162.48 C 143.01,162.74 142.95,163.0 142.93,163.27 C 142.89,163.6 142.89,163.92 142.92,164.25 C 142.96,164.61 143.03,164.97 143.13,165.32 C 143.23,165.67 143.36,166.01 143.52,166.34 C 143.6,166.51 143.69,166.67 143.78,166.83 C 143.88,167.0 143.99,167.16 144.1,167.32 C 144.32,167.63 144.57,167.93 144.83,168.21 C 145.1,168.49 145.37,168.76 145.66,169.02 C 145.8,169.15 145.94,169.28 146.09,169.4 C 146.23,169.52 146.37,169.64 146.51,169.76 C 146.8,169.99 147.1,170.22 147.4,170.44 C 147.88,170.78 148.38,171.1 148.89,171.39 C 149.25,171.59 149.62,171.78 150.0,171.96 z" />
		<text style="font-size:10px;font-family:z_boli;stroke:none;fill:#00f;text-anchor:middle" transform="matrix(1 0 0 1 150 150)" class="txt"></text>	
			
		<cam mingh:cam="--actions=EditSelectAll;ObjectToPath;ZoomPage;ZoomCenterPage;FileVacuum;FileSave; -g" mingh:style="source:microprism">M2</cam> 
	</g>
</svg>
