<?xml version="1.0" encoding="UTF-8" standalone="no"?>

<svg
   xmlns:xlink="http://www.w3.org/1999/xlink"
   xmlns:svg="http://www.w3.org/2000/svg"
   xmlns="http://www.w3.org/2000/svg"
   xmlns:mingh="http://www.minghworld.com"
   width="300px"
   height="300px" >
   
	<g>
		<path style="fill:none;stroke:#fb0;stroke-width:0.25px"
			d="M 153.16,126.88 C 153.16,125.13 151.75,123.71 150.0,123.71 C 148.24,123.71 146.83,125.13 146.83,126.88 C 146.83,128.63 148.24,130.05 150.0,130.05 C 151.75,130.05 153.16,128.63 153.16,126.88 z M 178.35,150.0 C 178.35,157.53 175.37,164.72 170.04,170.04 C 164.72,175.37 157.53,178.35 150.0,178.35 C 142.47,178.35 135.28,175.37 129.96,170.04 C 124.63,164.72 121.65,157.53 121.65,150.0 C 121.65,142.47 124.63,135.28 129.96,129.96 C 135.28,124.63 142.47,121.65 150.0,121.65 C 157.53,121.65 164.72,124.63 170.04,129.96 C 175.37,135.28 178.35,142.47 178.35,150.0 z M 152.52,167.04 C 152.74,167.11 152.95,167.18 153.17,167.24 C 153.28,167.28 153.39,167.31 153.5,167.34 C 153.71,167.4 153.92,167.46 154.13,167.51 C 154.36,167.57 154.6,167.62 154.84,167.66 C 155.07,167.69 155.3,167.71 155.53,167.71 C 155.64,167.7 155.76,167.69 155.87,167.68 C 156.01,167.66 156.14,167.62 156.27,167.58 C 156.53,167.5 156.78,167.38 157.01,167.23 C 157.25,167.08 157.47,166.9 157.66,166.7 C 157.81,166.54 157.94,166.38 158.06,166.2 C 158.19,166.01 158.31,165.8 158.41,165.59 C 158.53,165.36 158.64,165.12 158.74,164.89 C 158.87,164.61 159.0,164.32 159.13,164.04 C 158.86,163.89 158.59,163.74 158.32,163.58 C 158.09,163.46 157.87,163.33 157.64,163.21 C 157.43,163.1 157.22,163.0 157.0,162.92 C 156.93,162.9 156.86,162.88 156.79,162.85 C 156.66,162.81 156.52,162.78 156.38,162.76 C 156.1,162.7 155.82,162.69 155.54,162.7 C 155.27,162.72 154.99,162.77 154.73,162.86 C 154.6,162.9 154.48,162.95 154.36,163.02 C 154.25,163.07 154.16,163.13 154.06,163.19 C 153.87,163.33 153.7,163.48 153.53,163.64 C 153.36,163.81 153.2,163.99 153.04,164.17 C 152.83,164.43 152.63,164.69 152.43,164.95 C 152.29,165.13 152.15,165.31 152.02,165.5 C 152.9,165.14 153.66,164.91 154.31,164.78 C 155.13,164.62 155.79,164.63 156.32,164.75 C 156.54,164.8 156.58,164.95 156.44,165.11 C 156.08,165.53 155.56,165.92 154.79,166.28 C 154.19,166.56 153.45,166.82 152.52,167.04 M 150.74,169.41 C 150.75,169.64 150.75,169.87 150.76,170.1 C 150.76,170.21 150.76,170.32 150.76,170.43 C 150.77,170.65 150.78,170.87 150.8,171.09 C 150.81,171.33 150.84,171.57 150.88,171.81 C 150.92,172.04 150.97,172.26 151.04,172.48 C 151.08,172.59 151.13,172.69 151.18,172.8 C 151.24,172.92 151.31,173.04 151.39,173.15 C 151.55,173.37 151.74,173.57 151.95,173.75 C 152.17,173.93 152.41,174.08 152.66,174.2 C 152.86,174.29 153.06,174.37 153.26,174.43 C 153.49,174.49 153.71,174.53 153.94,174.57 C 154.2,174.61 154.46,174.64 154.72,174.67 C 155.03,174.7 155.33,174.73 155.64,174.77 C 155.7,174.47 155.76,174.17 155.83,173.86 C 155.88,173.61 155.93,173.35 155.97,173.1 C 156.01,172.87 156.04,172.63 156.05,172.4 C 156.05,172.33 156.05,172.26 156.05,172.19 C 156.05,172.04 156.04,171.9 156.02,171.76 C 155.98,171.48 155.91,171.21 155.81,170.95 C 155.71,170.69 155.58,170.45 155.41,170.23 C 155.33,170.12 155.24,170.01 155.14,169.92 C 155.06,169.84 154.97,169.76 154.88,169.69 C 154.7,169.55 154.5,169.43 154.3,169.33 C 154.08,169.21 153.86,169.12 153.64,169.03 C 153.33,168.9 153.02,168.79 152.71,168.68 C 152.49,168.61 152.28,168.53 152.06,168.46 C 152.68,169.19 153.13,169.84 153.45,170.42 C 153.86,171.15 154.05,171.78 154.1,172.33 C 154.12,172.54 153.99,172.63 153.79,172.55 C 153.29,172.34 152.75,171.96 152.18,171.34 C 151.72,170.86 151.25,170.23 150.74,169.41 M 149.26,169.41 C 148.75,170.23 148.28,170.86 147.82,171.34 C 147.25,171.96 146.71,172.34 146.21,172.55 C 146.01,172.63 145.88,172.54 145.9,172.33 C 145.95,171.78 146.14,171.15 146.55,170.42 C 146.87,169.84 147.32,169.19 147.94,168.46 C 147.73,168.53 147.51,168.61 147.29,168.68 C 147.19,168.72 147.08,168.76 146.98,168.79 C 146.77,168.87 146.57,168.94 146.36,169.03 C 146.14,169.12 145.92,169.21 145.7,169.33 C 145.5,169.43 145.3,169.55 145.12,169.69 C 145.03,169.76 144.94,169.84 144.86,169.92 C 144.76,170.01 144.67,170.12 144.59,170.23 C 144.42,170.45 144.29,170.69 144.19,170.95 C 144.09,171.21 144.02,171.48 143.98,171.76 C 143.95,171.97 143.94,172.19 143.95,172.4 C 143.96,172.63 143.99,172.87 144.03,173.1 C 144.07,173.35 144.12,173.61 144.17,173.86 C 144.24,174.17 144.3,174.47 144.36,174.77 C 144.67,174.73 144.97,174.7 145.28,174.67 C 145.54,174.64 145.8,174.61 146.06,174.57 C 146.29,174.53 146.51,174.49 146.74,174.43 C 146.81,174.41 146.88,174.38 146.95,174.36 C 147.08,174.31 147.21,174.26 147.34,174.2 C 147.59,174.08 147.83,173.93 148.05,173.75 C 148.26,173.57 148.45,173.37 148.61,173.15 C 148.69,173.04 148.76,172.92 148.82,172.8 C 148.87,172.69 148.92,172.59 148.96,172.48 C 149.03,172.26 149.08,172.04 149.12,171.81 C 149.16,171.57 149.19,171.33 149.2,171.09 C 149.23,170.76 149.24,170.43 149.24,170.1 C 149.25,169.87 149.25,169.64 149.26,169.41 M 147.98,165.5 C 147.85,165.31 147.71,165.13 147.57,164.95 C 147.5,164.86 147.44,164.77 147.37,164.69 C 147.23,164.51 147.1,164.34 146.96,164.17 C 146.8,163.99 146.64,163.81 146.47,163.64 C 146.3,163.48 146.13,163.32 145.94,163.19 C 145.84,163.13 145.75,163.07 145.64,163.02 C 145.52,162.95 145.4,162.9 145.27,162.86 C 145.01,162.77 144.73,162.72 144.46,162.7 C 144.18,162.69 143.9,162.7 143.62,162.76 C 143.41,162.79 143.2,162.85 143.0,162.92 C 142.78,163.0 142.57,163.1 142.36,163.21 C 142.13,163.33 141.91,163.46 141.68,163.58 C 141.41,163.74 141.14,163.89 140.87,164.04 C 141.0,164.32 141.13,164.61 141.26,164.89 C 141.36,165.12 141.47,165.36 141.59,165.59 C 141.69,165.8 141.81,166.01 141.94,166.2 C 141.98,166.26 142.02,166.32 142.06,166.37 C 142.15,166.49 142.24,166.6 142.34,166.7 C 142.53,166.9 142.75,167.08 142.99,167.23 C 143.22,167.38 143.47,167.5 143.73,167.58 C 143.86,167.63 143.99,167.66 144.13,167.68 C 144.24,167.69 144.36,167.7 144.47,167.71 C 144.7,167.71 144.93,167.69 145.16,167.66 C 145.4,167.62 145.64,167.57 145.87,167.51 C 146.19,167.43 146.51,167.34 146.83,167.24 C 147.05,167.18 147.26,167.11 147.48,167.04 C 146.55,166.82 145.81,166.56 145.21,166.28 C 144.44,165.92 143.92,165.53 143.56,165.11 C 143.42,164.95 143.46,164.8 143.68,164.75 C 144.21,164.63 144.87,164.62 145.69,164.78 C 146.34,164.91 147.1,165.14 147.98,165.5 M 149.19,164.62 C 149.12,163.67 149.13,162.88 149.21,162.22 C 149.32,161.39 149.53,160.76 149.81,160.3 C 149.92,160.11 150.08,160.11 150.19,160.3 C 150.47,160.76 150.68,161.39 150.79,162.22 C 150.87,162.88 150.88,163.67 150.81,164.62 C 150.94,164.44 151.08,164.25 151.21,164.06 C 151.27,163.97 151.33,163.88 151.4,163.79 C 151.52,163.6 151.64,163.42 151.76,163.24 C 151.88,163.03 152.01,162.82 152.11,162.61 C 152.22,162.4 152.31,162.19 152.37,161.97 C 152.4,161.86 152.43,161.74 152.45,161.63 C 152.47,161.5 152.48,161.36 152.49,161.22 C 152.49,160.95 152.45,160.67 152.38,160.41 C 152.31,160.13 152.21,159.87 152.07,159.63 C 151.97,159.44 151.85,159.26 151.72,159.09 C 151.58,158.91 151.42,158.74 151.25,158.57 C 151.07,158.39 150.88,158.21 150.68,158.04 C 150.46,157.83 150.23,157.62 150.0,157.41 C 149.77,157.62 149.54,157.83 149.32,158.04 C 149.12,158.21 148.93,158.39 148.75,158.57 C 148.58,158.74 148.42,158.91 148.28,159.09 C 148.23,159.15 148.19,159.2 148.15,159.26 C 148.07,159.38 147.99,159.5 147.93,159.63 C 147.79,159.87 147.69,160.13 147.62,160.41 C 147.55,160.67 147.51,160.95 147.51,161.22 C 147.52,161.36 147.53,161.5 147.55,161.63 C 147.57,161.74 147.6,161.86 147.63,161.97 C 147.69,162.19 147.78,162.4 147.89,162.61 C 147.99,162.82 148.12,163.03 148.24,163.24 C 148.42,163.52 148.61,163.79 148.79,164.06 C 148.92,164.25 149.05,164.44 149.19,164.62" />
		
		<text style="font-size:10px;font-family:z_boli;stroke:none;fill:#00f;text-anchor:middle" transform="matrix(1 0 0 1 150 150)" class="txt"></text>	
			
		<cam mingh:cam="--actions=EditSelectAll;ObjectToPath;ZoomPage;ZoomCenterPage;FileVacuum;FileSave; -g" mingh:style="source:microprism">M2</cam> 
	</g>		
</svg>
