<?xml version="1.0" encoding="UTF-8" standalone="no"?>

<svg xmlns="http://www.w3.org/2000/svg" xmlns:mingh="http://www.minghworld.com" xmlns:svg="http://www.w3.org/2000/svg" xmlns:xlink="http://www.w3.org/1999/xlink" height="300px" width="300px">
  
  <g>
    <path style="fill:none;stroke:#fb0;stroke-width:0.25px"
		d="M 173.47,145.06 C 172.78,145.06 172.14,145.32 171.6,145.84 C 171.07,146.37 170.82,147.0 170.82,147.72 C 170.82,149.24 170.82,150.76 170.82,152.28 C 170.82,153.0 171.07,153.63 171.6,154.16 C 172.14,154.68 172.78,154.94 173.47,154.94 C 174.18,154.94 174.78,154.68 175.33,154.16 C 175.85,153.63 176.11,153.0 176.11,152.28 C 176.11,150.76 176.11,149.24 176.11,147.72 C 176.11,147.0 175.85,146.37 175.33,145.84 C 174.78,145.32 174.18,145.06 173.47,145.06 z M 126.54,145.06 C 125.83,145.06 125.23,145.32 124.68,145.84 C 124.16,146.37 123.9,147.0 123.9,147.72 C 123.9,149.24 123.9,150.76 123.9,152.28 C 123.9,153.0 124.16,153.63 124.68,154.16 C 125.23,154.68 125.83,154.94 126.54,154.94 C 127.23,154.94 127.87,154.68 128.41,154.16 C 128.94,153.63 129.19,153.0 129.19,152.28 C 129.19,150.76 129.19,149.24 129.19,147.72 C 129.19,147.0 128.94,146.37 128.41,145.84 C 127.87,145.32 127.23,145.06 126.54,145.06 z M 178.35,150.0 C 178.35,157.53 175.37,164.72 170.05,170.04 C 164.73,175.37 157.53,178.35 150.01,178.35 C 142.48,178.35 135.29,175.37 129.96,170.04 C 124.64,164.72 121.66,157.53 121.66,150.0 C 121.66,142.47 124.64,135.28 129.96,129.96 C 135.28,124.63 142.48,121.65 150.01,121.65 C 157.53,121.65 164.72,124.63 170.05,129.96 C 175.37,135.28 178.35,142.47 178.35,150.0 z M 144.07,165.46 C 144.07,165.16 144.13,164.88 144.2,164.59 C 144.28,164.31 144.38,163.91 144.68,164.21 C 144.79,164.33 144.92,164.44 145.06,164.54 C 145.09,164.56 145.12,164.58 145.16,164.58 C 145.17,164.59 145.18,164.52 145.18,164.52 C 145.18,164.44 145.17,164.36 145.16,164.28 C 145.16,164.2 145.16,164.11 145.15,164.03 C 145.15,163.85 145.16,163.68 145.17,163.51 C 145.18,163.35 145.19,163.19 145.21,163.03 C 145.21,162.96 145.22,162.88 145.23,162.8 C 145.24,162.77 145.24,162.74 145.24,162.71 C 145.24,162.71 145.24,162.7 145.24,162.7 C 145.23,162.68 145.22,162.67 145.21,162.66 C 145.18,162.63 145.15,162.6 145.13,162.57 C 145.07,162.52 145.01,162.46 144.96,162.4 C 144.85,162.29 144.73,162.18 144.6,162.07 C 144.2,161.69 143.76,161.33 143.29,161.0 C 143.03,160.81 142.76,160.64 142.49,160.47 C 142.46,160.45 142.44,160.44 142.41,160.43 C 142.41,160.42 142.38,160.41 142.37,160.42 C 142.35,160.46 142.35,160.5 142.35,160.55 C 142.34,160.71 142.32,160.86 142.32,161.02 C 142.32,161.59 142.38,162.15 142.5,162.71 C 142.6,163.27 142.78,163.8 143.04,164.31 C 143.22,164.65 143.42,164.96 143.67,165.24 C 143.73,165.31 143.79,165.37 143.85,165.43 C 143.9,165.47 143.94,165.51 144.0,165.54 C 144.06,165.56 144.07,165.51 144.07,165.46 z M 140.26,165.93 C 140.35,166.2 140.49,166.46 140.64,166.71 C 140.75,166.91 140.88,167.1 141.01,167.28 C 141.13,167.43 141.25,167.57 141.38,167.71 C 141.49,167.82 141.6,167.93 141.72,168.04 C 141.98,168.26 142.26,168.46 142.54,168.63 C 142.7,168.72 142.84,168.8 142.99,168.87 C 143.13,168.94 143.26,169.0 143.42,169.06 C 143.59,169.13 143.76,169.19 143.95,169.25 C 144.18,169.32 144.41,169.38 144.65,169.43 C 144.78,169.45 144.91,169.48 145.04,169.5 C 145.1,169.51 145.17,169.52 145.23,169.52 C 145.25,169.52 145.26,169.52 145.28,169.52 C 145.28,169.52 145.29,169.51 145.29,169.51 C 145.31,169.51 145.32,169.5 145.32,169.5 C 145.32,169.5 145.32,169.5 145.32,169.49 C 145.32,169.48 145.32,169.47 145.31,169.46 C 145.29,169.43 145.28,169.41 145.26,169.39 C 145.23,169.35 145.2,169.32 145.16,169.29 C 144.89,169.01 144.65,168.7 144.45,168.37 C 144.25,168.04 144.09,167.7 143.97,167.39 C 143.9,167.22 143.84,167.06 143.79,166.85 C 143.79,166.84 143.79,166.83 143.79,166.83 C 143.79,166.82 143.79,166.81 143.78,166.81 C 143.62,166.65 143.45,166.5 143.26,166.38 C 143.15,166.3 143.03,166.23 142.91,166.16 C 142.75,166.08 142.57,166.01 142.4,165.95 C 142.23,165.89 142.06,165.85 141.88,165.82 C 141.7,165.78 141.51,165.76 141.34,165.76 C 141.16,165.75 140.99,165.75 140.82,165.76 C 140.65,165.77 140.48,165.8 140.31,165.83 C 140.29,165.84 140.26,165.84 140.24,165.86 C 140.24,165.87 140.24,165.89 140.26,165.93 z M 146.85,165.22 C 146.92,164.86 147.03,164.51 147.16,164.16 C 147.32,163.74 147.53,163.33 147.76,162.93 C 147.76,162.92 147.76,162.9 147.78,162.88 C 147.76,162.88 147.76,162.87 147.76,162.86 C 147.72,162.81 147.68,162.77 147.64,162.72 C 147.54,162.61 147.43,162.49 147.31,162.39 C 147.2,162.28 147.07,162.18 146.96,162.08 C 146.91,162.04 146.85,162.0 146.79,161.96 C 146.79,161.95 146.76,161.94 146.75,161.94 C 146.73,161.96 146.72,161.99 146.72,162.01 C 146.7,162.1 146.68,162.18 146.67,162.26 C 146.65,162.37 146.63,162.48 146.6,162.59 C 146.57,162.81 146.54,163.04 146.53,163.26 C 146.5,163.62 146.48,163.99 146.51,164.35 C 146.53,164.53 146.54,164.7 146.59,164.87 C 146.6,164.96 146.64,165.04 146.66,165.13 C 146.68,165.17 146.69,165.21 146.7,165.24 C 146.71,165.26 146.72,165.28 146.73,165.29 C 146.74,165.3 146.75,165.31 146.76,165.32 C 146.76,165.32 146.76,165.33 146.76,165.33 C 146.78,165.33 146.78,165.33 146.79,165.33 C 146.79,165.33 146.79,165.33 146.79,165.33 C 146.79,165.32 146.81,165.32 146.81,165.31 C 146.82,165.29 146.84,165.25 146.85,165.22 z M 148.76,169.14 C 148.6,169.09 148.46,169.03 148.32,168.95 C 148.22,168.9 148.12,168.84 148.01,168.77 C 147.93,168.7 147.85,168.63 147.76,168.56 C 147.67,168.47 147.57,168.38 147.5,168.28 C 147.41,168.18 147.32,168.07 147.25,167.95 C 147.18,167.84 147.12,167.72 147.06,167.6 C 147.0,167.49 146.96,167.37 146.92,167.26 C 146.88,167.14 146.85,167.02 146.82,166.9 C 146.82,166.88 146.81,166.86 146.79,166.85 C 146.79,166.84 146.76,166.84 146.75,166.84 C 146.66,166.83 146.57,166.81 146.48,166.8 C 146.43,166.78 146.38,166.77 146.32,166.76 C 146.28,166.74 146.22,166.72 146.17,166.7 C 146.07,166.67 146.01,166.63 145.93,166.59 C 145.88,166.57 145.84,166.54 145.79,166.52 C 145.73,166.48 145.67,166.44 145.6,166.4 C 145.46,166.29 145.31,166.18 145.17,166.05 C 145.16,166.04 145.14,166.02 145.12,166.01 C 145.1,166.01 145.1,166.0 145.07,166.0 C 145.07,165.99 145.07,165.99 145.06,165.99 C 145.06,165.99 145.06,165.99 145.06,165.99 C 145.04,166.0 145.04,166.01 145.04,166.02 C 145.04,166.03 145.04,166.05 145.04,166.06 C 145.04,166.08 145.04,166.09 145.04,166.1 C 145.04,166.13 145.04,166.15 145.04,166.18 C 145.07,166.27 145.07,166.36 145.1,166.45 C 145.12,166.54 145.15,166.64 145.17,166.73 C 145.2,166.82 145.24,166.92 145.26,167.01 C 145.31,167.11 145.35,167.2 145.39,167.3 C 145.48,167.48 145.57,167.66 145.69,167.82 C 145.79,167.99 145.93,168.16 146.07,168.3 C 146.21,168.45 146.37,168.59 146.53,168.71 C 146.68,168.84 146.85,168.95 147.03,169.04 C 147.2,169.13 147.39,169.21 147.57,169.26 C 147.71,169.3 147.84,169.33 147.98,169.34 C 148.07,169.35 148.17,169.36 148.26,169.36 C 148.32,169.36 148.38,169.35 148.44,169.35 C 148.51,169.34 148.57,169.33 148.65,169.31 C 148.69,169.3 148.72,169.29 148.76,169.28 C 148.76,169.28 148.78,169.28 148.79,169.27 C 148.81,169.26 148.82,169.26 148.84,169.24 C 148.85,169.24 148.85,169.23 148.85,169.22 C 148.85,169.22 148.85,169.22 148.85,169.21 C 148.85,169.21 148.85,169.2 148.85,169.19 C 148.85,169.18 148.84,169.17 148.82,169.17 C 148.79,169.15 148.78,169.14 148.76,169.14 z M 146.85,170.45 C 146.68,170.51 146.51,170.58 146.35,170.66 C 146.25,170.71 146.15,170.77 146.04,170.83 C 145.9,170.91 145.75,171.0 145.6,171.09 C 145.38,171.24 145.17,171.41 144.96,171.59 C 144.82,171.71 144.7,171.84 144.57,171.97 C 144.48,172.08 144.38,172.2 144.28,172.32 C 144.1,172.53 143.94,172.74 143.78,172.94 C 143.68,173.06 143.57,173.18 143.48,173.29 C 143.39,173.39 143.29,173.49 143.2,173.58 C 143.1,173.67 143.0,173.76 142.89,173.85 C 142.82,173.9 142.75,173.96 142.68,174.01 C 142.6,174.05 142.54,174.09 142.47,174.13 C 142.41,174.17 142.35,174.2 142.28,174.23 C 142.26,174.25 142.24,174.26 142.22,174.28 C 142.21,174.29 142.2,174.3 142.2,174.31 C 142.2,174.32 142.2,174.32 142.2,174.33 C 142.2,174.33 142.2,174.34 142.2,174.34 C 142.21,174.35 142.22,174.36 142.23,174.36 C 142.25,174.37 142.28,174.38 142.31,174.38 C 142.39,174.39 142.48,174.39 142.57,174.39 C 142.67,174.39 142.76,174.39 142.88,174.39 C 143.04,174.38 143.22,174.38 143.4,174.36 C 143.65,174.34 143.9,174.31 144.15,174.27 C 144.29,174.25 144.44,174.22 144.57,174.19 C 144.74,174.15 144.89,174.11 145.04,174.07 C 145.2,174.02 145.35,173.97 145.5,173.91 C 145.63,173.86 145.75,173.8 145.88,173.74 C 146.01,173.68 146.14,173.6 146.26,173.52 C 146.32,173.48 146.39,173.44 146.45,173.39 C 146.54,173.33 146.62,173.26 146.7,173.19 C 146.76,173.13 146.82,173.07 146.89,173.01 C 146.95,172.95 147.0,172.89 147.04,172.82 C 147.09,172.76 147.13,172.69 147.17,172.63 C 147.21,172.56 147.24,172.5 147.26,172.44 C 147.29,172.38 147.31,172.32 147.32,172.26 C 147.34,172.21 147.35,172.16 147.35,172.11 C 147.37,172.01 147.38,171.91 147.39,171.81 C 147.4,171.64 147.4,171.48 147.4,171.32 C 147.4,171.23 147.4,171.13 147.4,171.04 C 147.4,170.95 147.39,170.86 147.39,170.77 C 147.38,170.72 147.38,170.67 147.37,170.62 C 147.37,170.61 147.37,170.61 147.35,170.6 C 147.35,170.59 147.32,170.59 147.32,170.58 C 147.18,170.55 147.04,170.5 146.91,170.45 C 146.9,170.45 146.89,170.44 146.88,170.44 C 146.87,170.44 146.85,170.45 146.85,170.45 z M 141.03,169.23 C 139.73,169.36 138.49,169.89 137.45,170.64 C 137.29,170.74 137.16,170.85 137.01,170.97 C 137.0,170.99 136.97,171.01 136.95,171.03 C 136.94,171.04 136.93,171.05 136.94,171.06 C 137.0,171.11 137.06,171.14 137.12,171.16 C 137.44,171.32 137.76,171.43 138.12,171.53 C 138.74,171.71 139.37,171.84 140.01,171.92 C 140.67,172.0 141.31,172.01 141.96,171.91 C 142.57,171.8 143.23,171.61 143.7,171.13 C 143.81,171.01 143.91,170.89 143.98,170.75 C 143.99,170.72 144.0,170.7 144.0,170.67 C 144.01,170.66 143.97,170.65 143.96,170.64 C 143.88,170.62 143.79,170.6 143.71,170.57 C 143.35,170.47 143.03,170.35 142.7,170.21 C 142.37,170.06 142.06,169.9 141.76,169.72 C 141.6,169.62 141.46,169.53 141.32,169.42 C 141.24,169.37 141.17,169.32 141.1,169.26 C 141.07,169.24 141.06,169.23 141.03,169.23 z M 155.94,165.46 C 155.94,165.51 155.95,165.56 156.01,165.54 C 156.07,165.51 156.1,165.47 156.16,165.43 C 156.22,165.37 156.28,165.31 156.34,165.24 C 156.59,164.96 156.79,164.65 156.96,164.31 C 157.23,163.8 157.4,163.27 157.51,162.71 C 157.62,162.15 157.68,161.59 157.68,161.02 C 157.68,160.86 157.67,160.71 157.66,160.55 C 157.66,160.5 157.66,160.46 157.64,160.42 C 157.63,160.41 157.6,160.42 157.6,160.43 C 157.57,160.44 157.54,160.45 157.51,160.47 C 157.25,160.64 156.98,160.81 156.71,161.0 C 156.25,161.33 155.81,161.69 155.4,162.07 C 155.28,162.18 155.16,162.29 155.04,162.4 C 155.0,162.46 154.94,162.52 154.88,162.57 C 154.85,162.6 154.82,162.63 154.79,162.66 C 154.79,162.67 154.78,162.68 154.76,162.7 C 154.76,162.7 154.76,162.71 154.76,162.71 C 154.76,162.74 154.76,162.77 154.78,162.8 C 154.79,162.88 154.79,162.96 154.79,163.03 C 154.82,163.19 154.82,163.35 154.84,163.51 C 154.85,163.68 154.85,163.85 154.85,164.03 C 154.85,164.11 154.85,164.2 154.85,164.28 C 154.84,164.36 154.82,164.44 154.82,164.52 C 154.82,164.52 154.84,164.59 154.85,164.58 C 154.89,164.58 154.92,164.56 154.95,164.54 C 155.09,164.44 155.22,164.33 155.32,164.21 C 155.44,164.11 155.56,164.05 155.66,164.19 C 155.71,164.26 155.78,164.5 155.81,164.59 C 155.88,164.88 155.93,165.16 155.94,165.46 z M 159.75,165.93 C 159.76,165.89 159.76,165.87 159.76,165.85 C 159.75,165.84 159.72,165.84 159.7,165.83 C 159.53,165.8 159.35,165.77 159.19,165.76 C 159.01,165.75 158.85,165.75 158.67,165.76 C 158.49,165.76 158.31,165.78 158.13,165.82 C 157.95,165.85 157.78,165.89 157.6,165.95 C 157.43,166.01 157.26,166.08 157.1,166.16 C 156.98,166.23 156.85,166.3 156.75,166.38 C 156.56,166.5 156.39,166.65 156.23,166.81 C 156.22,166.81 156.22,166.82 156.21,166.83 C 156.21,166.83 156.21,166.84 156.21,166.85 C 156.17,167.06 156.1,167.22 156.04,167.39 C 155.92,167.7 155.76,168.04 155.56,168.37 C 155.35,168.7 155.12,169.01 154.85,169.29 C 154.81,169.32 154.78,169.35 154.75,169.39 C 154.73,169.41 154.71,169.43 154.7,169.46 C 154.69,169.47 154.69,169.48 154.69,169.49 C 154.69,169.5 154.69,169.5 154.69,169.5 C 154.69,169.5 154.7,169.51 154.71,169.51 C 154.72,169.51 154.73,169.52 154.73,169.52 C 154.75,169.52 154.76,169.52 154.78,169.52 C 154.84,169.52 154.9,169.51 154.97,169.5 C 155.1,169.48 155.23,169.45 155.35,169.43 C 155.6,169.38 155.82,169.32 156.06,169.25 C 156.24,169.19 156.42,169.13 156.59,169.06 C 156.74,169.0 156.88,168.94 157.01,168.87 C 157.17,168.8 157.31,168.72 157.46,168.63 C 157.75,168.46 158.03,168.26 158.29,168.04 C 158.41,167.93 158.51,167.82 158.63,167.71 C 158.76,167.57 158.88,167.43 158.99,167.28 C 159.13,167.1 159.26,166.91 159.37,166.71 C 159.51,166.46 159.65,166.2 159.75,165.93 z M 153.16,165.22 C 153.17,165.25 153.18,165.29 153.2,165.31 C 153.2,165.32 153.21,165.32 153.22,165.33 C 153.22,165.33 153.22,165.33 153.22,165.33 C 153.23,165.33 153.23,165.33 153.24,165.33 C 153.24,165.33 153.25,165.32 153.25,165.32 C 153.26,165.31 153.26,165.3 153.28,165.29 C 153.29,165.28 153.29,165.26 153.31,165.24 C 153.32,165.21 153.32,165.17 153.35,165.13 C 153.37,165.04 153.4,164.96 153.42,164.87 C 153.46,164.7 153.48,164.53 153.5,164.35 C 153.53,163.99 153.51,163.62 153.48,163.26 C 153.46,163.04 153.43,162.81 153.4,162.59 C 153.38,162.48 153.35,162.37 153.34,162.26 C 153.32,162.18 153.31,162.1 153.29,162.01 C 153.29,161.99 153.28,161.96 153.26,161.94 C 153.24,161.94 153.22,161.95 153.21,161.96 C 153.15,162.0 153.1,162.04 153.04,162.08 C 152.93,162.18 152.81,162.28 152.7,162.39 C 152.57,162.49 152.47,162.61 152.37,162.72 C 152.32,162.77 152.29,162.81 152.25,162.86 C 152.24,162.87 152.24,162.87 152.23,162.88 C 152.24,162.9 152.25,162.92 152.25,162.93 C 152.48,163.33 152.68,163.74 152.85,164.16 C 152.98,164.51 153.09,164.86 153.16,165.22 z M 147.68,160.88 C 147.67,160.91 147.67,160.92 147.67,160.93 C 147.68,160.94 147.7,160.96 147.71,160.97 C 147.98,161.18 148.24,161.41 148.48,161.66 C 148.49,161.67 148.51,161.68 148.51,161.69 C 148.53,161.7 148.54,161.71 148.54,161.71 C 148.54,161.7 148.56,161.7 148.57,161.69 C 148.57,161.68 148.59,161.67 148.6,161.65 C 148.74,161.46 148.89,161.27 149.04,161.09 C 149.29,160.8 149.57,160.52 149.85,160.27 C 149.96,160.18 150.04,160.18 150.15,160.27 C 150.44,160.52 150.71,160.8 150.96,161.09 C 151.12,161.27 151.26,161.46 151.41,161.65 C 151.42,161.67 151.43,161.68 151.44,161.69 C 151.45,161.7 151.46,161.7 151.46,161.71 C 151.47,161.71 151.48,161.7 151.49,161.69 C 151.5,161.68 151.51,161.67 151.53,161.66 C 151.76,161.41 152.03,161.18 152.29,160.97 C 152.31,160.96 152.32,160.94 152.34,160.93 C 152.34,160.91 152.32,160.9 152.32,160.88 C 152.15,160.39 151.93,159.91 151.67,159.46 C 151.46,159.07 151.21,158.71 150.94,158.36 C 150.67,158.01 150.37,157.68 150.06,157.38 C 150.04,157.37 150.04,157.36 150.03,157.35 C 150.01,157.34 150.01,157.34 150.0,157.33 C 149.99,157.34 149.98,157.35 149.97,157.36 C 149.92,157.4 149.88,157.44 149.84,157.48 C 149.79,157.53 149.76,157.57 149.72,157.61 C 149.49,157.85 149.26,158.1 149.07,158.36 C 148.87,158.62 148.68,158.89 148.5,159.17 C 148.38,159.38 148.26,159.59 148.15,159.8 C 147.97,160.15 147.82,160.51 147.68,160.88 z M 150.06,162.11 C 150.04,162.07 150.01,162.06 150.0,162.05 C 150.0,162.05 149.99,162.06 149.98,162.07 C 149.97,162.08 149.97,162.08 149.96,162.09 C 149.93,162.13 149.89,162.17 149.85,162.21 C 149.71,162.41 149.56,162.61 149.41,162.82 C 149.28,163.01 149.15,163.21 149.01,163.42 C 148.91,163.6 148.81,163.79 148.71,163.98 C 148.64,164.11 148.57,164.25 148.51,164.39 C 148.45,164.55 148.39,164.7 148.32,164.86 C 148.29,165.0 148.25,165.14 148.21,165.27 C 148.17,165.43 148.14,165.59 148.12,165.75 C 148.1,165.9 148.07,166.05 148.09,166.2 C 148.09,166.3 148.09,166.4 148.1,166.49 C 148.12,166.56 148.13,166.63 148.15,166.7 C 148.18,166.81 148.22,166.93 148.26,167.04 C 148.32,167.13 148.38,167.22 148.44,167.31 C 148.49,167.39 148.56,167.46 148.63,167.53 C 148.66,167.56 148.7,167.59 148.74,167.63 C 148.79,167.67 148.84,167.7 148.89,167.73 C 148.97,167.78 149.06,167.82 149.14,167.85 C 149.22,167.88 149.31,167.9 149.39,167.92 C 149.44,167.93 149.49,167.93 149.54,167.94 C 149.62,167.95 149.71,167.96 149.79,167.96 C 149.89,167.96 149.98,167.96 150.07,167.96 C 150.16,167.96 150.25,167.96 150.34,167.95 C 150.48,167.94 150.6,167.92 150.74,167.89 C 150.79,167.87 150.85,167.86 150.91,167.84 C 150.95,167.82 150.99,167.8 151.03,167.78 C 151.07,167.76 151.1,167.74 151.15,167.71 C 151.19,167.68 151.23,167.66 151.26,167.62 C 151.35,167.56 151.42,167.49 151.49,167.41 C 151.56,167.33 151.62,167.25 151.67,167.16 C 151.7,167.11 151.73,167.06 151.75,167.01 C 151.78,166.95 151.79,166.9 151.82,166.84 C 151.85,166.71 151.89,166.57 151.91,166.44 C 151.93,166.29 151.93,166.14 151.92,165.99 C 151.91,165.83 151.89,165.68 151.85,165.53 C 151.84,165.45 151.82,165.37 151.79,165.29 C 151.78,165.2 151.76,165.12 151.73,165.04 C 151.69,164.91 151.65,164.78 151.6,164.65 C 151.53,164.47 151.45,164.29 151.37,164.11 C 151.22,163.82 151.06,163.53 150.88,163.25 C 150.63,162.85 150.35,162.47 150.06,162.11 z M 151.25,169.14 C 151.23,169.14 151.21,169.15 151.19,169.17 C 151.17,169.17 151.16,169.18 151.16,169.19 C 151.15,169.2 151.15,169.21 151.15,169.21 C 151.15,169.22 151.15,169.22 151.15,169.22 C 151.16,169.23 151.16,169.24 151.17,169.24 C 151.18,169.26 151.2,169.26 151.22,169.27 C 151.23,169.28 151.24,169.28 151.25,169.28 C 151.29,169.29 151.32,169.3 151.35,169.31 C 151.43,169.33 151.5,169.34 151.57,169.35 C 151.63,169.35 151.69,169.36 151.75,169.36 C 151.84,169.36 151.94,169.35 152.03,169.34 C 152.17,169.33 152.29,169.3 152.43,169.26 C 152.62,169.21 152.81,169.13 152.98,169.04 C 153.16,168.95 153.32,168.84 153.48,168.71 C 153.64,168.59 153.79,168.45 153.93,168.3 C 154.07,168.16 154.21,167.99 154.32,167.82 C 154.43,167.66 154.53,167.48 154.62,167.3 C 154.66,167.2 154.7,167.11 154.74,167.01 C 154.76,166.92 154.81,166.82 154.82,166.73 C 154.85,166.64 154.89,166.54 154.91,166.45 C 154.93,166.36 154.94,166.27 154.96,166.18 C 154.96,166.15 154.96,166.13 154.97,166.1 C 154.97,166.09 154.97,166.07 154.97,166.06 C 154.97,166.05 154.96,166.03 154.96,166.02 C 154.96,166.01 154.96,166.0 154.95,165.99 C 154.95,165.99 154.95,165.99 154.95,165.99 C 154.94,165.99 154.93,165.99 154.93,166.0 C 154.91,166.0 154.9,166.01 154.89,166.01 C 154.87,166.02 154.85,166.04 154.84,166.05 C 154.7,166.18 154.54,166.29 154.4,166.4 C 154.34,166.44 154.28,166.48 154.22,166.52 C 154.17,166.54 154.13,166.57 154.07,166.59 C 154.0,166.63 153.93,166.67 153.84,166.7 C 153.79,166.72 153.73,166.74 153.68,166.76 C 153.63,166.77 153.57,166.78 153.53,166.79 C 153.44,166.81 153.35,166.83 153.26,166.84 C 153.24,166.84 153.22,166.84 153.21,166.85 C 153.2,166.86 153.19,166.88 153.19,166.9 C 153.16,167.02 153.13,167.14 153.09,167.26 C 153.04,167.37 153.01,167.49 152.95,167.6 C 152.89,167.72 152.82,167.84 152.76,167.95 C 152.68,168.07 152.6,168.18 152.51,168.28 C 152.43,168.38 152.34,168.47 152.24,168.56 C 152.16,168.63 152.07,168.7 151.99,168.77 C 151.89,168.84 151.79,168.9 151.68,168.95 C 151.54,169.03 151.4,169.09 151.25,169.14 z M 149.94,174.96 C 149.95,174.98 149.96,175.0 149.98,175.02 C 149.98,175.02 150.0,175.05 150.01,175.04 C 150.04,175.02 150.06,174.99 150.07,174.95 C 150.15,174.82 150.22,174.69 150.29,174.56 C 150.43,174.3 150.57,174.04 150.69,173.76 C 150.91,173.29 151.09,172.81 151.19,172.29 C 151.29,171.8 151.32,171.25 151.17,170.75 C 151.01,170.25 150.69,169.8 150.1,169.75 C 149.87,169.73 149.6,169.79 149.4,169.92 C 149.17,170.07 149.01,170.31 148.91,170.55 C 148.7,171.04 148.7,171.58 148.78,172.09 C 148.93,173.06 149.46,174.13 149.94,174.96 z M 153.15,170.45 C 153.15,170.45 153.14,170.44 153.13,170.44 C 153.12,170.45 153.1,170.45 153.1,170.45 C 152.97,170.5 152.82,170.55 152.69,170.58 C 152.68,170.59 152.66,170.59 152.65,170.6 C 152.64,170.61 152.64,170.61 152.64,170.62 C 152.63,170.67 152.63,170.72 152.62,170.77 C 152.62,170.86 152.6,170.95 152.6,171.04 C 152.6,171.13 152.6,171.23 152.6,171.32 C 152.6,171.48 152.6,171.64 152.62,171.81 C 152.63,171.91 152.64,172.01 152.66,172.11 C 152.66,172.16 152.67,172.21 152.69,172.26 C 152.7,172.32 152.72,172.38 152.75,172.44 C 152.76,172.5 152.79,172.56 152.84,172.63 C 152.88,172.69 152.92,172.76 152.97,172.82 C 153.01,172.89 153.06,172.95 153.12,173.01 C 153.18,173.07 153.24,173.13 153.31,173.19 C 153.39,173.26 153.47,173.33 153.56,173.39 C 153.62,173.44 153.68,173.48 153.74,173.52 C 153.87,173.6 154.0,173.68 154.13,173.74 C 154.25,173.8 154.38,173.86 154.51,173.91 C 154.66,173.97 154.81,174.02 154.97,174.07 C 155.12,174.11 155.26,174.15 155.43,174.19 C 155.57,174.22 155.71,174.25 155.85,174.27 C 156.1,174.31 156.35,174.34 156.6,174.36 C 156.79,174.38 156.96,174.38 157.13,174.39 C 157.24,174.39 157.34,174.39 157.44,174.39 C 157.53,174.39 157.62,174.39 157.7,174.38 C 157.73,174.38 157.76,174.37 157.78,174.36 C 157.79,174.36 157.79,174.35 157.81,174.34 C 157.81,174.34 157.81,174.33 157.81,174.33 C 157.81,174.32 157.81,174.32 157.81,174.31 C 157.81,174.3 157.79,174.29 157.79,174.28 C 157.76,174.26 157.75,174.25 157.73,174.23 C 157.66,174.2 157.6,174.17 157.54,174.13 C 157.47,174.09 157.4,174.05 157.32,174.01 C 157.26,173.96 157.19,173.9 157.12,173.85 C 157.01,173.76 156.91,173.67 156.81,173.58 C 156.72,173.49 156.62,173.39 156.53,173.29 C 156.43,173.18 156.32,173.06 156.23,172.94 C 156.07,172.74 155.9,172.53 155.73,172.32 C 155.63,172.2 155.53,172.08 155.43,171.97 C 155.29,171.84 155.18,171.71 155.04,171.59 C 154.84,171.41 154.63,171.24 154.4,171.09 C 154.26,171.0 154.1,170.91 153.96,170.83 C 153.85,170.77 153.75,170.71 153.65,170.66 C 153.49,170.58 153.32,170.51 153.15,170.45 z M 158.98,169.23 C 158.95,169.23 158.93,169.24 158.91,169.26 C 158.84,169.32 158.76,169.37 158.69,169.42 C 158.54,169.53 158.4,169.62 158.25,169.72 C 157.95,169.9 157.64,170.06 157.31,170.21 C 156.98,170.35 156.65,170.47 156.29,170.57 C 156.22,170.6 156.13,170.61 156.04,170.64 C 156.04,170.65 156.0,170.66 156.01,170.67 C 156.01,170.7 156.01,170.72 156.03,170.75 C 156.1,170.89 156.2,171.01 156.31,171.13 C 156.78,171.61 157.43,171.8 158.04,171.91 C 158.7,172.01 159.34,172.0 159.99,171.92 C 160.64,171.84 161.26,171.71 161.89,171.53 C 162.23,171.43 162.57,171.32 162.89,171.16 C 162.95,171.14 163.01,171.11 163.07,171.06 C 163.07,171.05 163.07,171.04 163.06,171.03 C 163.04,171.01 163.01,170.99 162.99,170.97 C 162.85,170.85 162.71,170.74 162.56,170.64 C 161.51,169.89 160.28,169.36 158.98,169.23 z" />
		
		<text style="font-size:10px;font-family:z_boli;stroke:none;fill:#00f;text-anchor:middle" transform="matrix(1 0 0 1 150 150)" class="txt"></text>	
			
		<cam mingh:cam="--actions=EditSelectAll;ObjectToPath;ZoomPage;ZoomCenterPage;FileVacuum;FileSave; -g" mingh:style="source:microprism">M2</cam> 	
  </g>
</svg>
