<?xml version="1.0" encoding="UTF-8" standalone="no"?>
<svg xmlns="http://www.w3.org/2000/svg" xmlns:mingh="http://www.minghworld.com" xmlns:svg="http://www.w3.org/2000/svg" xmlns:xlink="http://www.w3.org/1999/xlink" height="300px" width="300px">

	<g>
		<path style="fill:none;stroke:#fb0;stroke-width:0.25px"
			d="M 153.82,158.93 C 153.91,158.97 154.01,158.89 154.01,158.79 C 154.0,158.69 153.87,158.64 153.79,158.61 C 153.63,158.52 153.46,158.43 153.28,158.35 C 152.92,158.19 152.54,158.06 152.17,157.95 C 151.4,157.74 150.65,157.65 149.85,157.66 C 148.4,157.69 146.99,158.1 145.76,158.86 C 143.13,160.48 141.66,163.45 141.95,166.52 C 142.25,169.58 144.25,172.21 147.13,173.31 C 150.01,174.4 153.25,173.77 155.51,171.68 C 156.64,170.62 157.45,169.27 157.82,167.78 C 157.93,167.4 158.0,167.02 158.04,166.63 C 158.06,166.53 158.06,166.43 158.07,166.34 C 158.07,166.29 158.07,166.25 158.04,166.2 C 158.0,166.16 157.97,166.15 157.91,166.16 C 157.79,166.18 157.79,166.29 157.76,166.38 C 157.74,166.47 157.72,166.55 157.69,166.64 C 157.47,167.32 157.16,167.92 156.73,168.49 C 154.82,170.98 151.34,171.64 148.65,170.02 C 145.96,168.39 144.93,165.0 146.26,162.15 C 147.6,159.31 150.84,157.92 153.82,158.93 z M 152.23,164.28 C 152.28,164.3 152.32,164.33 152.35,164.38 C 152.39,164.43 152.4,164.48 152.4,164.54 C 152.39,164.73 152.38,164.91 152.38,165.1 C 152.37,165.29 152.37,165.48 152.35,165.67 C 152.35,165.86 152.35,166.05 152.34,166.27 C 152.32,166.49 152.32,166.74 152.35,166.82 C 152.43,166.78 152.6,166.59 152.74,166.43 C 152.89,166.26 153.01,166.12 153.14,165.98 C 153.26,165.84 153.39,165.7 153.51,165.56 C 153.64,165.41 153.76,165.27 153.89,165.13 C 153.92,165.09 153.97,165.05 154.01,165.04 C 154.07,165.03 154.13,165.03 154.18,165.06 C 154.35,165.12 154.54,165.18 154.72,165.25 C 154.9,165.31 155.07,165.38 155.25,165.44 C 155.43,165.5 155.6,165.57 155.81,165.64 C 156.01,165.72 156.26,165.81 156.34,165.8 C 156.32,165.72 156.2,165.5 156.09,165.31 C 155.98,165.12 155.88,164.96 155.79,164.8 C 155.69,164.63 155.59,164.47 155.5,164.31 C 155.4,164.15 155.31,163.98 155.21,163.82 C 155.18,163.77 155.16,163.72 155.17,163.66 C 155.17,163.61 155.19,163.56 155.23,163.51 C 155.35,163.37 155.46,163.22 155.57,163.07 C 155.69,162.92 155.81,162.77 155.93,162.62 C 156.04,162.47 156.16,162.32 156.29,162.15 C 156.43,161.97 156.59,161.78 156.6,161.69 C 156.51,161.68 156.28,161.73 156.06,161.78 C 155.85,161.83 155.66,161.87 155.48,161.91 C 155.29,161.95 155.1,161.99 154.93,162.03 C 154.74,162.08 154.56,162.12 154.37,162.16 C 154.32,162.17 154.26,162.17 154.21,162.15 C 154.16,162.13 154.12,162.09 154.09,162.04 C 153.98,161.89 153.88,161.73 153.76,161.57 C 153.66,161.42 153.56,161.26 153.45,161.11 C 153.34,160.95 153.24,160.79 153.12,160.61 C 152.99,160.43 152.85,160.22 152.78,160.17 C 152.74,160.25 152.72,160.5 152.7,160.72 C 152.68,160.94 152.66,161.12 152.64,161.31 C 152.62,161.5 152.6,161.69 152.59,161.88 C 152.57,162.07 152.54,162.25 152.53,162.44 C 152.53,162.5 152.51,162.55 152.47,162.59 C 152.44,162.63 152.39,162.66 152.34,162.68 C 152.15,162.73 151.97,162.78 151.79,162.83 C 151.6,162.89 151.43,162.94 151.25,162.99 C 151.06,163.04 150.88,163.1 150.67,163.16 C 150.46,163.22 150.22,163.28 150.15,163.34 C 150.21,163.4 150.44,163.5 150.64,163.59 C 150.85,163.67 151.01,163.75 151.19,163.83 C 151.37,163.9 151.54,163.98 151.71,164.05 C 151.89,164.13 152.06,164.2 152.23,164.28 z M 178.35,150.0 C 178.35,157.53 175.37,164.72 170.05,170.04 C 164.73,175.37 157.53,178.35 150.01,178.35 C 142.48,178.35 135.29,175.37 129.96,170.04 C 124.64,164.72 121.66,157.53 121.66,150.0 C 121.66,142.47 124.64,135.28 129.96,129.96 C 135.28,124.63 142.48,121.65 150.01,121.65 C 157.53,121.65 164.72,124.63 170.05,129.96 C 175.37,135.28 178.35,142.47 178.35,150.0 z M 125.22,148.22 C 125.0,148.22 124.76,148.28 124.53,148.38 C 124.3,148.48 124.11,148.59 123.94,148.75 C 123.78,148.91 123.66,149.11 123.56,149.34 C 123.47,149.56 123.44,149.77 123.44,150.0 C 123.44,150.23 123.47,150.47 123.56,150.69 C 123.65,150.92 123.8,151.09 123.94,151.25 C 124.11,151.42 124.31,151.54 124.53,151.63 C 124.74,151.72 124.95,151.78 125.19,151.78 C 125.43,151.78 125.7,151.74 125.92,151.66 C 126.14,151.58 126.32,151.46 126.47,151.28 C 126.63,151.12 126.76,150.92 126.84,150.69 C 126.95,150.47 126.99,150.25 127.0,150.03 C 127.0,149.8 126.95,149.56 126.84,149.34 C 126.76,149.11 126.64,148.91 126.47,148.75 C 126.33,148.59 126.14,148.48 125.92,148.38 C 125.69,148.28 125.44,148.22 125.22,148.22 z M 174.79,148.22 C 174.57,148.22 174.32,148.28 174.09,148.38 C 173.87,148.48 173.68,148.59 173.54,148.75 C 173.37,148.91 173.25,149.11 173.17,149.34 C 173.06,149.56 173.01,149.8 173.01,150.03 C 173.02,150.25 173.06,150.47 173.17,150.69 C 173.25,150.92 173.38,151.12 173.54,151.28 C 173.69,151.46 173.87,151.58 174.09,151.66 C 174.31,151.74 174.58,151.78 174.82,151.78 C 175.06,151.78 175.27,151.72 175.48,151.63 C 175.7,151.54 175.9,151.42 176.07,151.25 C 176.21,151.09 176.36,150.92 176.45,150.69 C 176.54,150.47 176.57,150.23 176.57,150.0 C 176.57,149.77 176.54,149.56 176.45,149.34 C 176.35,149.11 176.23,148.91 176.07,148.75 C 175.9,148.59 175.71,148.48 175.48,148.38 C 175.25,148.28 175.01,148.22 174.79,148.22 z" />
		
		<text style="font-size:10px;font-family:z_boli;stroke:none;fill:#00f;text-anchor:middle" transform="matrix(1 0 0 1 150 150)" class="txt"></text>	
			
		<cam mingh:cam="--actions=EditSelectAll;ObjectToPath;ZoomPage;ZoomCenterPage;FileVacuum;FileSave; -g" mingh:style="source:microprism">M2</cam> 
	</g>
</svg>
