<?xml version="1.0" encoding="UTF-8" standalone="no"?>
<svg xmlns="http://www.w3.org/2000/svg" xmlns:mingh="http://www.minghworld.com" xmlns:svg="http://www.w3.org/2000/svg" xmlns:xlink="http://www.w3.org/1999/xlink" height="300px" width="300px">
   
	<g>
		<path style="fill:none;stroke:#fb0;stroke-width:0.25px"
			d="M 149.19,164.62 C 149.12,163.67 149.14,162.88 149.22,162.22 C 149.32,161.39 149.53,160.76 149.82,160.3 C 149.93,160.11 150.07,160.11 150.19,160.3 C 150.48,160.76 150.69,161.39 150.79,162.22 C 150.87,162.88 150.89,163.67 150.82,164.62 C 150.95,164.44 151.07,164.25 151.21,164.06 C 151.26,163.97 151.34,163.88 151.4,163.79 C 151.51,163.6 151.65,163.42 151.76,163.24 C 151.89,163.03 152.01,162.82 152.12,162.61 C 152.22,162.4 152.31,162.19 152.38,161.97 C 152.41,161.86 152.44,161.74 152.45,161.63 C 152.48,161.5 152.49,161.36 152.49,161.22 C 152.49,160.95 152.46,160.67 152.39,160.41 C 152.32,160.13 152.21,159.87 152.07,159.63 C 151.98,159.44 151.85,159.26 151.73,159.09 C 151.57,158.91 151.42,158.74 151.26,158.57 C 151.07,158.39 150.88,158.21 150.69,158.04 C 150.46,157.83 150.23,157.62 150.0,157.41 C 149.78,157.62 149.54,157.83 149.32,158.04 C 149.13,158.21 148.94,158.39 148.75,158.57 C 148.59,158.74 148.43,158.91 148.28,159.09 C 148.24,159.15 148.2,159.2 148.15,159.26 C 148.07,159.38 148.0,159.5 147.93,159.63 C 147.79,159.87 147.69,160.13 147.62,160.41 C 147.54,160.67 147.51,160.95 147.51,161.22 C 147.51,161.36 147.53,161.5 147.54,161.63 C 147.57,161.74 147.6,161.86 147.63,161.97 C 147.7,162.19 147.79,162.4 147.89,162.61 C 148.0,162.82 148.12,163.03 148.25,163.24 C 148.42,163.52 148.6,163.79 148.79,164.06 C 148.93,164.25 149.06,164.44 149.19,164.62 M 147.99,165.5 C 147.85,165.31 147.72,165.13 147.57,164.95 C 147.51,164.86 147.44,164.77 147.37,164.69 C 147.24,164.51 147.1,164.34 146.96,164.17 C 146.81,163.99 146.64,163.81 146.47,163.64 C 146.31,163.48 146.13,163.32 145.94,163.19 C 145.85,163.13 145.75,163.07 145.65,163.02 C 145.53,162.95 145.4,162.9 145.26,162.86 C 145.01,162.77 144.74,162.72 144.46,162.7 C 144.18,162.69 143.9,162.7 143.62,162.76 C 143.41,162.79 143.21,162.85 143.01,162.92 C 142.79,163.0 142.57,163.1 142.37,163.21 C 142.14,163.33 141.91,163.46 141.69,163.58 C 141.42,163.74 141.15,163.89 140.88,164.04 C 141.01,164.32 141.13,164.61 141.26,164.89 C 141.37,165.12 141.48,165.36 141.59,165.59 C 141.7,165.8 141.81,166.01 141.94,166.2 C 141.98,166.26 142.01,166.32 142.07,166.37 C 142.15,166.49 142.25,166.6 142.34,166.7 C 142.54,166.9 142.75,167.08 142.99,167.23 C 143.22,167.38 143.47,167.5 143.74,167.58 C 143.87,167.63 144.0,167.66 144.13,167.68 C 144.25,167.69 144.35,167.7 144.48,167.71 C 144.71,167.71 144.94,167.69 145.17,167.66 C 145.4,167.62 145.64,167.57 145.88,167.51 C 146.2,167.43 146.51,167.34 146.82,167.24 C 147.04,167.18 147.26,167.11 147.49,167.04 C 146.56,166.82 145.81,166.56 145.21,166.28 C 144.45,165.92 143.92,165.53 143.56,165.11 C 143.42,164.95 143.47,164.8 143.68,164.75 C 144.21,164.63 144.87,164.62 145.7,164.78 C 146.35,164.91 147.1,165.14 147.99,165.5 M 149.26,169.41 C 148.76,170.23 148.28,170.86 147.82,171.34 C 147.25,171.96 146.72,172.34 146.21,172.55 C 146.01,172.63 145.89,172.54 145.91,172.33 C 145.95,171.78 146.15,171.15 146.56,170.42 C 146.88,169.84 147.32,169.19 147.95,168.46 C 147.73,168.53 147.51,168.61 147.29,168.68 C 147.19,168.72 147.09,168.76 146.98,168.79 C 146.78,168.87 146.57,168.94 146.37,169.03 C 146.14,169.12 145.92,169.21 145.71,169.33 C 145.5,169.43 145.31,169.55 145.12,169.69 C 145.03,169.76 144.94,169.84 144.85,169.92 C 144.76,170.01 144.68,170.12 144.59,170.23 C 144.43,170.45 144.29,170.69 144.2,170.95 C 144.1,171.21 144.03,171.48 143.99,171.76 C 143.96,171.97 143.95,172.19 143.96,172.4 C 143.97,172.63 143.99,172.87 144.03,173.1 C 144.07,173.35 144.13,173.61 144.18,173.86 C 144.24,174.17 144.29,174.47 144.35,174.77 C 144.67,174.73 144.98,174.7 145.29,174.67 C 145.54,174.64 145.79,174.61 146.06,174.57 C 146.29,174.53 146.51,174.49 146.74,174.43 C 146.81,174.41 146.88,174.38 146.95,174.36 C 147.07,174.31 147.21,174.26 147.34,174.2 C 147.6,174.08 147.82,173.93 148.04,173.75 C 148.26,173.57 148.46,173.37 148.62,173.15 C 148.69,173.04 148.76,172.92 148.82,172.8 C 148.88,172.69 148.92,172.59 148.96,172.48 C 149.04,172.26 149.09,172.04 149.13,171.81 C 149.17,171.57 149.19,171.33 149.21,171.09 C 149.23,170.76 149.24,170.43 149.25,170.1 C 149.25,169.87 149.26,169.64 149.26,169.41 M 150.75,169.41 C 150.75,169.64 150.75,169.87 150.76,170.1 C 150.76,170.21 150.76,170.32 150.76,170.43 C 150.78,170.65 150.79,170.87 150.79,171.09 C 150.82,171.33 150.84,171.57 150.88,171.81 C 150.92,172.04 150.97,172.26 151.04,172.48 C 151.09,172.59 151.13,172.69 151.18,172.8 C 151.24,172.92 151.31,173.04 151.39,173.15 C 151.54,173.37 151.74,173.57 151.96,173.75 C 152.18,173.93 152.41,174.08 152.67,174.2 C 152.85,174.29 153.06,174.37 153.26,174.43 C 153.49,174.49 153.72,174.53 153.95,174.57 C 154.21,174.61 154.47,174.64 154.72,174.67 C 155.03,174.7 155.34,174.73 155.65,174.77 C 155.71,174.47 155.76,174.17 155.82,173.86 C 155.88,173.61 155.94,173.35 155.98,173.1 C 156.01,172.87 156.04,172.63 156.04,172.4 C 156.06,172.33 156.06,172.26 156.04,172.19 C 156.04,172.04 156.04,171.9 156.01,171.76 C 155.98,171.48 155.91,171.21 155.81,170.95 C 155.71,170.69 155.57,170.45 155.42,170.23 C 155.32,170.12 155.24,170.01 155.15,169.92 C 155.07,169.84 154.98,169.76 154.89,169.69 C 154.7,169.55 154.51,169.43 154.29,169.33 C 154.09,169.21 153.87,169.12 153.64,169.03 C 153.34,168.9 153.01,168.79 152.71,168.68 C 152.5,168.61 152.28,168.53 152.06,168.46 C 152.68,169.19 153.13,169.84 153.45,170.42 C 153.85,171.15 154.06,171.78 154.1,172.33 C 154.12,172.54 154.0,172.63 153.79,172.55 C 153.29,172.34 152.76,171.96 152.18,171.34 C 151.73,170.86 151.25,170.23 150.75,169.41 M 152.51,167.04 C 152.74,167.11 152.96,167.18 153.18,167.24 C 153.29,167.28 153.39,167.31 153.5,167.34 C 153.71,167.4 153.92,167.46 154.13,167.51 C 154.37,167.57 154.6,167.62 154.84,167.66 C 155.07,167.69 155.29,167.71 155.53,167.71 C 155.65,167.7 155.76,167.69 155.88,167.68 C 156.01,167.66 156.14,167.62 156.26,167.58 C 156.54,167.5 156.79,167.38 157.01,167.23 C 157.26,167.08 157.47,166.9 157.67,166.7 C 157.81,166.54 157.95,166.38 158.07,166.2 C 158.2,166.01 158.31,165.8 158.42,165.59 C 158.53,165.36 158.64,165.12 158.75,164.89 C 158.88,164.61 159.0,164.32 159.13,164.04 C 158.85,163.89 158.59,163.74 158.32,163.58 C 158.1,163.46 157.87,163.33 157.64,163.21 C 157.43,163.1 157.22,163.0 157.0,162.92 C 156.94,162.9 156.87,162.88 156.79,162.85 C 156.66,162.81 156.51,162.78 156.39,162.76 C 156.1,162.7 155.82,162.69 155.54,162.7 C 155.26,162.72 155.0,162.77 154.74,162.86 C 154.6,162.9 154.48,162.95 154.35,163.02 C 154.26,163.07 154.16,163.13 154.07,163.19 C 153.88,163.33 153.7,163.48 153.54,163.64 C 153.37,163.81 153.2,163.99 153.04,164.17 C 152.84,164.43 152.63,164.69 152.43,164.95 C 152.29,165.13 152.16,165.31 152.01,165.5 C 152.91,165.14 153.66,164.91 154.31,164.78 C 155.14,164.62 155.79,164.63 156.32,164.75 C 156.54,164.8 156.59,164.95 156.45,165.11 C 156.09,165.53 155.56,165.92 154.79,166.28 C 154.2,166.56 153.45,166.82 152.51,167.04 M 178.35,150.0 C 178.35,157.53 175.37,164.72 170.05,170.04 C 164.73,175.37 157.53,178.35 150.01,178.35 C 142.48,178.35 135.29,175.37 129.96,170.04 C 124.64,164.72 121.66,157.53 121.66,150.0 C 121.66,142.47 124.64,135.28 129.96,129.96 C 135.28,124.63 142.48,121.65 150.01,121.65 C 157.53,121.65 164.72,124.63 170.05,129.96 C 175.37,135.28 178.35,142.47 178.35,150.0 z M 125.22,148.22 C 125.0,148.22 124.76,148.28 124.53,148.38 C 124.3,148.48 124.11,148.59 123.94,148.75 C 123.78,148.91 123.66,149.11 123.56,149.34 C 123.47,149.56 123.44,149.77 123.44,150.0 C 123.44,150.23 123.47,150.47 123.56,150.69 C 123.65,150.92 123.8,151.09 123.94,151.25 C 124.11,151.42 124.31,151.54 124.53,151.63 C 124.74,151.72 124.95,151.78 125.19,151.78 C 125.43,151.78 125.7,151.74 125.92,151.66 C 126.14,151.58 126.32,151.46 126.47,151.28 C 126.63,151.12 126.76,150.92 126.84,150.69 C 126.95,150.47 126.99,150.25 127.0,150.03 C 127.0,149.8 126.95,149.56 126.84,149.34 C 126.76,149.11 126.64,148.91 126.47,148.75 C 126.33,148.59 126.14,148.48 125.92,148.38 C 125.69,148.28 125.44,148.22 125.22,148.22 z M 174.79,148.22 C 174.57,148.22 174.32,148.28 174.09,148.38 C 173.87,148.48 173.68,148.59 173.54,148.75 C 173.37,148.91 173.25,149.11 173.17,149.34 C 173.06,149.56 173.01,149.8 173.01,150.03 C 173.02,150.25 173.06,150.47 173.17,150.69 C 173.25,150.92 173.38,151.12 173.54,151.28 C 173.69,151.46 173.87,151.58 174.09,151.66 C 174.31,151.74 174.58,151.78 174.82,151.78 C 175.06,151.78 175.27,151.72 175.48,151.63 C 175.7,151.54 175.9,151.42 176.07,151.25 C 176.21,151.09 176.36,150.92 176.45,150.69 C 176.54,150.47 176.57,150.23 176.57,150.0 C 176.57,149.77 176.54,149.56 176.45,149.34 C 176.35,149.11 176.23,148.91 176.07,148.75 C 175.9,148.59 175.71,148.48 175.48,148.38 C 175.25,148.28 175.01,148.22 174.79,148.22 z" />
		
		<text style="font-size:10px;font-family:z_boli;stroke:none;fill:#00f;text-anchor:middle" transform="matrix(1 0 0 1 150 150)" class="txt"></text>	
			
		<cam mingh:cam="--actions=EditSelectAll;ObjectToPath;ZoomPage;ZoomCenterPage;FileVacuum;FileSave; -g" mingh:style="source:microprism">M2</cam> 
	</g>
</svg>
