<?xml version="1.0" encoding="UTF-8" standalone="no"?>
<svg xmlns="http://www.w3.org/2000/svg" xmlns:mingh="http://www.minghworld.com" xmlns:svg="http://www.w3.org/2000/svg" xmlns:xlink="http://www.w3.org/1999/xlink" height="300px" width="300px">
   
	<g>
		<path style="fill:none;stroke:#fb0;stroke-width:0.25px"
			d="M 152.76,172.02 C 152.78,172.01 152.78,172.0 152.79,171.99 C 152.79,171.98 152.79,171.98 152.79,171.97 C 152.79,171.95 152.79,171.93 152.79,171.92 C 152.78,171.88 152.78,171.85 152.79,171.81 C 152.79,171.73 152.82,171.68 152.89,171.62 C 153.0,171.51 153.12,171.47 153.28,171.45 C 153.29,171.44 153.37,171.44 153.38,171.42 C 153.4,171.39 153.42,171.36 153.43,171.33 C 153.44,171.25 153.44,171.18 153.44,171.11 C 153.44,171.04 153.44,170.97 153.4,170.9 C 153.37,170.83 153.32,170.77 153.32,170.7 C 153.28,170.55 153.34,170.41 153.43,170.3 C 153.56,170.16 153.65,170.16 153.79,170.07 C 153.82,170.05 153.85,170.02 153.85,169.99 C 153.88,169.96 153.89,169.92 153.91,169.89 C 153.94,169.82 153.98,169.77 154.04,169.72 C 154.1,169.67 154.16,169.65 154.23,169.64 C 154.26,169.63 154.42,169.61 154.45,169.6 C 154.54,169.57 154.69,169.35 154.73,169.28 C 154.79,169.2 154.81,169.2 154.78,169.09 C 154.76,169.02 154.75,168.95 154.75,168.87 C 154.75,168.8 154.76,168.73 154.76,168.66 C 154.78,168.58 154.79,168.51 154.79,168.44 C 154.78,168.33 154.63,168.14 154.59,168.06 C 154.51,167.92 154.51,167.79 154.54,167.64 C 154.54,167.6 154.54,167.57 154.57,167.53 C 154.57,167.52 154.59,167.5 154.57,167.49 C 154.56,167.47 154.54,167.46 154.53,167.45 C 154.49,167.38 154.47,167.32 154.46,167.24 C 154.45,167.11 154.48,166.94 154.54,166.82 C 154.57,166.76 154.62,166.7 154.67,166.65 C 154.74,166.56 154.74,166.57 154.75,166.46 C 154.78,166.28 154.87,166.21 155.01,166.14 C 155.03,166.13 155.04,166.12 155.06,166.11 C 155.07,166.11 155.1,166.1 155.1,166.09 C 155.13,166.08 155.13,166.06 155.14,166.04 C 155.15,166.03 155.15,166.01 155.16,165.99 C 155.18,165.92 155.21,165.86 155.25,165.8 C 155.32,165.67 155.43,165.58 155.54,165.49 C 155.67,165.41 155.79,165.33 155.89,165.23 C 156.0,165.12 156.38,164.7 156.47,164.58 C 156.59,164.45 156.63,164.38 156.67,164.21 C 156.71,164.06 156.74,163.93 156.81,163.8 C 156.88,163.67 156.97,163.55 157.01,163.42 C 157.07,163.28 157.06,163.13 157.07,162.99 C 157.07,162.99 157.09,162.98 157.07,162.98 C 157.07,162.98 157.07,162.98 157.07,162.99 C 157.06,162.99 157.04,162.99 157.04,163.0 C 157.03,163.0 157.01,163.01 157.0,163.02 C 156.96,163.03 156.93,163.04 156.89,163.05 C 156.82,163.07 156.75,163.08 156.68,163.08 C 156.6,163.09 156.54,163.11 156.48,163.15 C 156.41,163.19 156.35,163.22 156.29,163.25 C 156.04,163.36 155.68,163.39 155.47,163.18 C 155.42,163.13 155.38,163.07 155.35,163.0 C 155.35,162.96 155.34,162.93 155.34,162.89 C 155.34,162.87 155.34,162.85 155.35,162.84 C 155.35,162.83 155.35,162.82 155.35,162.81 C 155.35,162.81 155.35,162.79 155.35,162.78 C 155.17,162.68 155.17,162.64 155.03,162.5 C 154.97,162.45 154.91,162.43 154.84,162.39 C 154.78,162.36 154.72,162.32 154.66,162.28 C 154.54,162.19 154.45,162.08 154.39,161.94 C 154.34,161.84 154.31,161.65 154.21,161.55 C 154.15,161.5 154.09,161.48 154.01,161.44 C 153.96,161.4 153.91,161.36 153.87,161.3 C 153.78,161.16 153.79,161.02 153.79,160.88 C 153.79,160.82 153.79,160.72 153.74,160.67 C 153.69,160.62 153.63,160.58 153.57,160.53 C 153.46,160.42 153.42,160.29 153.38,160.15 C 153.35,160.08 153.32,160.02 153.29,159.95 C 153.26,159.89 153.23,159.83 153.18,159.77 C 153.09,159.65 152.97,159.58 152.89,159.45 C 152.81,159.3 152.84,159.16 152.95,159.05 C 152.99,159.0 153.04,158.93 153.04,158.86 C 153.04,158.82 153.04,158.79 153.03,158.76 C 153.01,158.74 153.01,158.72 153.01,158.71 C 153.01,158.7 153.01,158.69 153.0,158.68 C 153.0,158.68 153.0,158.67 153.0,158.67 C 152.99,158.66 152.99,158.67 152.98,158.67 C 152.82,158.72 152.71,158.69 152.57,158.6 C 152.54,158.58 152.51,158.56 152.48,158.54 C 152.46,158.53 152.45,158.55 152.43,158.56 C 152.42,158.57 152.4,158.58 152.39,158.59 C 152.32,158.63 152.26,158.67 152.2,158.69 C 152.04,158.74 151.91,158.72 151.76,158.69 C 151.63,158.65 151.49,158.6 151.35,158.58 C 151.2,158.56 151.06,158.59 150.92,158.57 C 150.71,158.54 150.69,158.48 150.51,158.4 C 150.49,158.38 150.46,158.37 150.42,158.36 C 150.41,158.36 150.4,158.36 150.39,158.36 C 150.38,158.36 150.39,158.37 150.39,158.38 C 150.39,158.39 150.39,158.41 150.39,158.43 C 150.4,158.5 150.4,158.57 150.37,158.64 C 150.32,158.78 150.18,158.88 150.04,158.89 C 149.87,158.91 149.76,158.83 149.65,158.75 C 149.57,158.7 149.51,158.72 149.44,158.72 C 149.35,158.72 149.29,158.72 149.22,158.7 C 149.04,158.64 149.01,158.52 148.97,158.37 C 148.95,158.33 148.96,158.31 148.9,158.31 C 148.85,158.31 148.82,158.32 148.79,158.33 C 148.72,158.35 148.65,158.36 148.57,158.35 C 148.41,158.33 148.32,158.22 148.22,158.12 C 148.12,158.02 147.98,157.97 147.97,157.79 C 147.97,157.71 148.0,157.65 148.04,157.59 C 148.07,157.56 148.1,157.54 148.12,157.51 C 148.14,157.5 148.13,157.48 148.12,157.46 C 148.12,157.45 148.12,157.43 148.12,157.41 C 148.12,157.39 148.1,157.37 148.12,157.36 C 148.12,157.35 148.12,157.34 148.12,157.33 C 148.12,157.32 148.12,157.32 148.12,157.31 C 148.12,157.31 148.1,157.31 148.1,157.31 C 148.07,157.31 148.04,157.3 148.0,157.3 C 147.93,157.3 147.85,157.3 147.78,157.32 C 147.64,157.35 147.51,157.39 147.35,157.4 C 147.21,157.4 147.07,157.38 146.93,157.38 C 146.78,157.38 146.64,157.4 146.5,157.45 C 146.19,157.55 146.01,157.67 145.66,157.64 C 145.51,157.63 145.38,157.59 145.24,157.55 C 145.21,157.54 145.17,157.53 145.14,157.52 C 145.1,157.51 145.07,157.59 145.07,157.6 C 145.04,157.66 145.0,157.73 144.96,157.78 C 144.85,157.91 144.73,157.95 144.57,157.98 C 144.49,158.0 144.46,158.01 144.42,158.1 C 144.38,158.17 144.35,158.24 144.35,158.31 C 144.32,158.45 144.29,158.59 144.2,158.71 C 144.09,158.83 143.97,158.88 143.82,158.92 C 143.76,158.95 143.69,158.96 143.62,158.98 C 143.57,158.99 143.54,159.0 143.51,159.02 C 143.48,159.04 143.47,159.08 143.46,159.11 C 143.4,159.25 143.35,159.37 143.21,159.45 C 143.18,159.47 143.14,159.48 143.1,159.49 C 143.1,159.5 143.07,159.51 143.06,159.52 C 143.06,159.54 143.04,159.55 143.04,159.57 C 143.03,159.64 143.01,159.71 142.98,159.78 C 142.92,159.92 142.81,160.01 142.69,160.1 C 142.64,160.14 142.57,160.18 142.53,160.23 C 142.46,160.31 142.45,160.33 142.46,160.43 C 142.48,160.62 142.5,160.67 142.46,160.86 C 142.43,160.96 142.43,160.97 142.46,161.07 C 142.48,161.14 142.49,161.21 142.48,161.29 C 142.47,161.36 142.45,161.43 142.42,161.49 C 142.38,161.56 142.32,161.61 142.32,161.69 C 142.31,161.85 142.29,161.95 142.16,162.07 C 142.15,162.08 142.14,162.08 142.14,162.09 C 142.13,162.09 142.1,162.09 142.12,162.11 C 142.13,162.12 142.14,162.14 142.15,162.15 C 142.16,162.19 142.18,162.22 142.19,162.25 C 142.21,162.33 142.22,162.39 142.2,162.47 C 142.2,162.5 142.19,162.54 142.18,162.57 C 142.17,162.58 142.21,162.6 142.21,162.61 C 142.23,162.62 142.24,162.63 142.26,162.64 C 142.31,162.69 142.37,162.73 142.41,162.8 C 142.45,162.86 142.47,162.92 142.5,162.99 C 142.53,163.06 142.6,163.1 142.65,163.14 C 142.76,163.24 142.85,163.33 142.88,163.49 C 142.9,163.57 142.89,163.64 142.89,163.71 C 142.9,163.77 142.9,163.76 142.95,163.79 C 142.98,163.81 143.01,163.82 143.04,163.84 C 143.18,163.89 143.31,163.96 143.43,164.05 C 143.54,164.14 143.63,164.25 143.72,164.36 C 143.74,164.39 143.76,164.42 143.79,164.44 C 143.81,164.45 143.82,164.47 143.84,164.48 C 143.84,164.48 143.87,164.5 143.88,164.5 C 143.94,164.46 144.0,164.41 144.06,164.37 C 144.19,164.29 144.31,164.25 144.46,164.24 C 144.6,164.23 144.75,164.26 144.89,164.31 C 145.04,164.37 145.13,164.41 145.31,164.34 C 145.44,164.29 145.56,164.21 145.69,164.15 C 145.82,164.09 145.96,164.05 146.1,164.03 C 146.34,164.01 146.74,164.03 146.92,164.25 C 146.97,164.3 147.0,164.37 147.01,164.44 C 147.01,164.46 147.01,164.47 147.01,164.49 C 147.03,164.5 147.03,164.51 147.03,164.52 C 147.03,164.53 147.04,164.53 147.04,164.53 C 147.07,164.52 147.12,164.52 147.16,164.51 C 147.29,164.48 147.43,164.44 147.57,164.47 C 147.74,164.5 147.84,164.59 147.94,164.7 C 148.04,164.82 148.12,164.92 148.13,165.08 C 148.15,165.27 148.07,165.34 148.03,165.5 C 148.01,165.57 148.01,165.64 148.0,165.71 C 147.99,165.79 147.97,165.85 147.93,165.92 C 147.91,165.95 147.89,165.98 147.87,166.01 C 147.87,166.02 147.87,166.02 147.88,166.03 C 147.88,166.04 147.89,166.04 147.89,166.05 C 147.91,166.06 147.92,166.08 147.93,166.09 C 147.98,166.14 148.03,166.2 148.07,166.25 C 148.17,166.37 148.25,166.49 148.35,166.59 C 148.44,166.7 148.56,166.78 148.63,166.91 C 148.67,166.98 148.69,167.04 148.69,167.12 C 148.68,167.14 148.68,167.16 148.68,167.17 C 148.68,167.19 148.69,167.19 148.7,167.19 C 148.7,167.2 148.71,167.2 148.72,167.21 C 148.75,167.23 148.76,167.25 148.79,167.28 C 148.9,167.4 148.93,167.53 148.96,167.68 C 148.97,167.75 148.97,167.82 148.95,167.89 C 148.95,167.93 148.93,167.96 148.91,167.99 C 148.91,168.0 148.9,168.01 148.9,168.02 C 148.91,168.02 148.91,168.03 148.92,168.04 C 148.93,168.05 148.94,168.07 148.95,168.08 C 149.12,168.33 149.01,168.68 148.87,168.89 C 148.82,168.95 148.78,169.01 148.74,169.06 C 148.67,169.14 148.67,169.16 148.65,169.26 C 148.64,169.33 148.63,169.4 148.6,169.47 C 148.57,169.54 148.54,169.6 148.53,169.67 C 148.51,169.75 148.53,169.81 148.56,169.88 C 148.59,169.95 148.63,170.01 148.67,170.07 C 148.74,170.2 148.81,170.32 148.88,170.45 C 148.92,170.51 148.95,170.57 148.99,170.63 C 149.03,170.69 149.07,170.75 149.12,170.81 C 149.21,170.96 149.2,171.06 149.19,171.22 C 149.18,171.25 149.17,171.29 149.19,171.32 C 149.2,171.36 149.22,171.39 149.24,171.42 C 149.26,171.49 149.29,171.55 149.29,171.62 C 149.32,171.76 149.31,171.9 149.38,172.04 C 149.45,172.17 149.56,172.26 149.63,172.38 C 149.66,172.43 149.68,172.48 149.7,172.53 C 149.72,172.6 149.74,172.67 149.79,172.73 C 149.88,172.83 149.99,172.92 150.03,173.07 C 150.04,173.15 150.04,173.21 150.01,173.28 C 150.01,173.32 150.0,173.35 149.98,173.38 C 149.97,173.4 149.99,173.41 150.0,173.43 C 150.0,173.44 150.01,173.46 150.01,173.47 C 150.04,173.51 150.04,173.54 150.06,173.57 C 150.07,173.61 150.1,173.62 150.15,173.62 C 150.23,173.63 150.29,173.6 150.35,173.57 C 150.49,173.52 150.6,173.46 150.76,173.45 C 150.84,173.45 150.91,173.46 150.98,173.46 C 151.04,173.47 151.12,173.44 151.19,173.42 C 151.26,173.4 151.32,173.39 151.4,173.39 C 151.51,173.4 151.51,173.4 151.6,173.34 C 151.71,173.26 151.82,173.18 151.95,173.1 C 152.07,173.02 152.17,172.93 152.25,172.8 C 152.32,172.68 152.39,172.56 152.5,172.46 C 152.56,172.41 152.62,172.37 152.68,172.34 C 152.69,172.34 152.7,172.34 152.71,172.33 C 152.71,172.33 152.71,172.31 152.71,172.31 C 152.71,172.28 152.71,172.26 152.71,172.23 C 152.72,172.15 152.74,172.09 152.76,172.02 z M 178.35,150.0 C 178.35,157.53 175.37,164.72 170.05,170.04 C 164.73,175.37 157.53,178.35 150.01,178.35 C 142.48,178.35 135.29,175.37 129.96,170.04 C 124.64,164.72 121.66,157.53 121.66,150.0 C 121.66,142.47 124.64,135.28 129.96,129.96 C 135.28,124.63 142.48,121.65 150.01,121.65 C 157.53,121.65 164.72,124.63 170.05,129.96 C 175.37,135.28 178.35,142.47 178.35,150.0 z M 125.22,148.22 C 125.0,148.22 124.76,148.28 124.53,148.38 C 124.3,148.48 124.11,148.59 123.94,148.75 C 123.78,148.91 123.66,149.11 123.56,149.34 C 123.47,149.56 123.44,149.77 123.44,150.0 C 123.44,150.23 123.47,150.47 123.56,150.69 C 123.65,150.92 123.8,151.09 123.94,151.25 C 124.11,151.42 124.31,151.54 124.53,151.63 C 124.74,151.72 124.95,151.78 125.19,151.78 C 125.43,151.78 125.7,151.74 125.92,151.66 C 126.14,151.58 126.32,151.46 126.47,151.28 C 126.63,151.12 126.76,150.92 126.84,150.69 C 126.95,150.47 126.99,150.25 127.0,150.03 C 127.0,149.8 126.95,149.56 126.84,149.34 C 126.76,149.11 126.64,148.91 126.47,148.75 C 126.33,148.59 126.14,148.48 125.92,148.38 C 125.69,148.28 125.44,148.22 125.22,148.22 z M 174.79,148.22 C 174.57,148.22 174.32,148.28 174.09,148.38 C 173.87,148.48 173.68,148.59 173.54,148.75 C 173.37,148.91 173.25,149.11 173.17,149.34 C 173.06,149.56 173.01,149.8 173.01,150.03 C 173.02,150.25 173.06,150.47 173.17,150.69 C 173.25,150.92 173.38,151.12 173.54,151.28 C 173.69,151.46 173.87,151.58 174.09,151.66 C 174.31,151.74 174.58,151.78 174.82,151.78 C 175.06,151.78 175.27,151.72 175.48,151.63 C 175.7,151.54 175.9,151.42 176.07,151.25 C 176.21,151.09 176.36,150.92 176.45,150.69 C 176.54,150.47 176.57,150.23 176.57,150.0 C 176.57,149.77 176.54,149.56 176.45,149.34 C 176.35,149.11 176.23,148.91 176.07,148.75 C 175.9,148.59 175.71,148.48 175.48,148.38 C 175.25,148.28 175.01,148.22 174.79,148.22 z" />
		
		<text style="font-size:10px;font-family:z_boli;stroke:none;fill:#00f;text-anchor:middle" transform="matrix(1 0 0 1 150 150)" class="txt"></text>	
			
		<cam mingh:cam="--actions=EditSelectAll;ObjectToPath;ZoomPage;ZoomCenterPage;FileVacuum;FileSave; -g" mingh:style="source:microprism">M2</cam> 
	</g>
</svg>
