<?xml version="1.0" encoding="UTF-8" standalone="no"?>

<svg
   xmlns:xlink="http://www.w3.org/1999/xlink"
   xmlns:svg="http://www.w3.org/2000/svg"
   xmlns="http://www.w3.org/2000/svg"
   xmlns:mingh="http://www.minghworld.com"
   width="300px"
   height="300px" >
  
  <g>
	<path style="fill:none;stroke:#fb0;stroke-width:0.25px"
		d="M 153.16,126.88 C 153.16,125.13 151.75,123.71 150.0,123.71 C 148.24,123.71 146.83,125.13 146.83,126.88 C 146.83,128.63 148.24,130.05 150.0,130.05 C 151.75,130.05 153.16,128.63 153.16,126.88 z M 178.35,150.0 C 178.35,157.53 175.37,164.72 170.04,170.04 C 164.72,175.37 157.53,178.35 150.0,178.35 C 142.47,178.35 135.28,175.37 129.96,170.04 C 124.63,164.72 121.65,157.53 121.65,150.0 C 121.65,142.47 124.63,135.28 129.96,129.96 C 135.28,124.63 142.47,121.65 150.0,121.65 C 157.53,121.65 164.72,124.63 170.04,129.96 C 175.37,135.28 178.35,142.47 178.35,150.0 z M 158.35,161.26 C 158.04,161.68 157.72,162.1 157.42,162.52 C 157.11,162.95 156.81,163.37 156.52,163.8 C 156.22,164.22 155.94,164.64 155.66,165.07 C 155.38,165.5 155.1,165.93 154.84,166.38 C 154.59,166.81 154.36,167.25 154.16,167.7 C 154.0,168.06 153.86,168.43 153.73,168.8 C 153.67,168.99 153.61,169.18 153.56,169.37 C 153.52,169.48 153.49,169.6 153.46,169.72 C 153.4,169.94 153.35,170.16 153.32,170.39 C 153.3,170.53 153.29,170.67 153.29,170.81 C 153.3,170.92 153.31,171.03 153.35,171.14 C 153.38,171.24 153.42,171.33 153.48,171.41 C 153.54,171.5 153.61,171.57 153.69,171.64 C 153.78,171.71 153.88,171.77 153.99,171.83 C 154.16,171.93 154.35,172.01 154.53,172.09 C 154.63,172.14 154.72,172.18 154.81,172.23 C 154.87,172.27 154.93,172.3 154.98,172.33 C 155.05,172.37 155.11,172.4 155.17,172.42 C 155.21,172.44 155.25,172.45 155.29,172.45 C 155.3,172.44 155.31,172.44 155.33,172.44 C 155.34,172.44 155.34,172.44 155.35,172.43 C 155.37,172.42 155.38,172.41 155.39,172.39 C 155.4,172.38 155.41,172.36 155.42,172.34 C 155.42,172.33 155.42,172.31 155.42,172.29 C 155.42,172.26 155.42,172.23 155.42,172.21 C 155.41,172.08 155.38,171.95 155.37,171.82 C 155.37,171.76 155.36,171.69 155.36,171.63 C 155.36,171.53 155.37,171.42 155.38,171.32 C 155.4,171.1 155.45,170.89 155.5,170.69 C 155.61,170.28 155.76,169.88 155.93,169.49 C 156.01,169.3 156.1,169.11 156.19,168.93 C 156.33,168.65 156.47,168.38 156.61,168.11 C 156.92,167.52 157.24,166.95 157.57,166.38 C 157.88,165.84 158.2,165.3 158.52,164.76 C 158.84,164.2 159.17,163.65 159.49,163.1 C 159.86,162.46 160.24,161.81 160.61,161.16 C 160.68,161.04 160.75,160.92 160.81,160.79 C 160.87,160.67 160.92,160.55 160.96,160.42 C 160.99,160.31 161.01,160.19 161.01,160.07 C 161.0,159.97 160.98,159.87 160.95,159.77 C 160.92,159.66 160.88,159.55 160.83,159.44 C 160.79,159.34 160.74,159.24 160.68,159.15 C 160.63,159.06 160.57,158.97 160.5,158.9 C 160.45,158.86 160.41,158.82 160.35,158.79 C 160.31,158.77 160.27,158.75 160.22,158.74 C 160.2,158.74 160.18,158.74 160.15,158.74 C 160.12,158.74 160.09,158.74 160.06,158.75 C 160.03,158.76 159.99,158.77 159.96,158.78 C 159.92,158.79 159.88,158.81 159.84,158.82 C 159.53,158.95 159.22,159.09 158.92,159.24 C 158.65,159.38 158.38,159.53 158.11,159.68 C 157.81,159.84 157.51,160.01 157.21,160.18 C 156.87,160.37 156.54,160.55 156.22,160.76 C 156.16,160.8 156.09,160.85 156.04,160.9 C 155.97,160.98 155.92,161.07 155.87,161.16 C 155.83,161.26 155.8,161.37 155.79,161.48 C 155.78,161.53 155.77,161.59 155.77,161.64 C 155.77,161.67 155.77,161.7 155.78,161.73 C 155.78,161.74 155.78,161.75 155.79,161.77 C 155.79,161.78 155.81,161.78 155.82,161.79 C 155.83,161.79 155.84,161.79 155.85,161.78 C 155.9,161.77 155.94,161.75 155.99,161.74 C 156.22,161.65 156.45,161.55 156.68,161.46 C 156.94,161.36 157.2,161.26 157.47,161.16 C 157.68,161.08 157.89,161.0 158.1,160.92 C 158.34,160.83 158.58,160.74 158.82,160.65 C 158.67,160.85 158.51,161.06 158.35,161.26 z M 142.66,169.83 C 142.36,169.88 142.05,169.93 141.75,169.99 C 142.0,169.8 142.24,169.62 142.49,169.43 C 142.95,169.08 143.43,168.75 143.92,168.43 C 144.47,168.07 145.04,167.74 145.61,167.41 C 146.01,167.19 146.41,166.97 146.81,166.76 C 147.31,166.49 147.81,166.22 148.3,165.94 C 148.79,165.67 149.28,165.38 149.75,165.08 C 150.1,164.86 150.45,164.63 150.78,164.39 C 151.08,164.16 151.37,163.91 151.63,163.64 C 151.76,163.51 151.88,163.37 151.99,163.21 C 152.04,163.14 152.09,163.06 152.13,162.98 C 152.17,162.91 152.2,162.84 152.22,162.76 C 152.27,162.62 152.3,162.48 152.32,162.33 C 152.35,162.17 152.36,162.0 152.36,161.84 C 152.36,161.66 152.36,161.48 152.35,161.3 C 152.34,161.11 152.33,160.93 152.31,160.74 C 152.29,160.56 152.26,160.37 152.23,160.19 C 152.2,160.03 152.16,159.87 152.1,159.71 C 152.05,159.57 151.99,159.44 151.9,159.31 C 151.83,159.21 151.74,159.12 151.64,159.03 C 151.55,158.95 151.44,158.89 151.32,158.84 C 151.17,158.77 151.01,158.74 150.85,158.71 C 150.65,158.69 150.45,158.68 150.25,158.68 C 149.95,158.67 149.66,158.69 149.37,158.71 C 149.06,158.74 148.76,158.78 148.45,158.82 C 148.13,158.87 147.82,158.93 147.5,159.0 C 147.19,159.07 146.87,159.15 146.56,159.24 C 146.26,159.33 145.96,159.43 145.67,159.55 C 145.47,159.63 145.28,159.72 145.09,159.81 C 144.93,159.89 144.78,159.98 144.63,160.08 C 144.5,160.16 144.37,160.26 144.25,160.36 C 144.14,160.45 144.03,160.56 143.94,160.67 C 143.84,160.78 143.76,160.9 143.68,161.02 C 143.58,161.18 143.49,161.34 143.4,161.51 C 143.26,161.77 143.14,162.04 143.05,162.31 C 143.0,162.45 142.96,162.59 142.93,162.73 C 142.91,162.8 142.9,162.87 142.89,162.94 C 142.87,163.07 142.85,163.2 142.85,163.34 C 142.85,163.41 142.86,163.48 142.87,163.55 C 142.87,163.59 142.88,163.63 142.89,163.66 C 142.91,163.72 142.93,163.78 142.97,163.83 C 143.0,163.87 143.05,163.9 143.1,163.92 C 143.12,163.93 143.15,163.94 143.17,163.95 C 143.2,163.96 143.22,163.96 143.25,163.97 C 143.3,163.97 143.35,163.96 143.41,163.96 C 143.51,163.94 143.6,163.92 143.7,163.9 C 144.17,163.8 144.64,163.71 145.12,163.62 C 145.3,163.58 145.48,163.55 145.66,163.51 C 145.78,163.49 145.9,163.46 146.02,163.44 C 146.09,163.42 146.17,163.4 146.25,163.38 C 146.3,163.36 146.34,163.34 146.39,163.32 C 146.42,163.31 146.45,163.29 146.47,163.27 C 146.48,163.26 146.48,163.26 146.49,163.25 C 146.49,163.24 146.49,163.24 146.5,163.23 C 146.5,163.2 146.5,163.18 146.5,163.15 C 146.5,163.14 146.49,163.12 146.49,163.11 C 146.48,163.09 146.46,163.06 146.44,163.04 C 146.42,163.02 146.4,163.0 146.37,162.99 C 146.33,162.97 146.29,162.96 146.25,162.94 C 146.18,162.93 146.12,162.92 146.05,162.91 C 145.97,162.89 145.88,162.88 145.79,162.87 C 145.48,162.84 145.17,162.8 144.85,162.76 C 144.6,162.74 144.35,162.71 144.1,162.68 C 144.33,162.57 144.55,162.46 144.78,162.35 C 145.01,162.23 145.24,162.12 145.48,162.01 C 145.83,161.84 146.19,161.67 146.55,161.51 C 147.01,161.31 147.48,161.12 147.96,160.96 C 148.22,160.86 148.49,160.78 148.76,160.71 C 148.95,160.66 149.14,160.61 149.33,160.58 C 149.6,160.52 149.89,160.49 150.17,160.49 C 150.27,160.49 150.38,160.5 150.49,160.52 C 150.61,160.54 150.72,160.58 150.82,160.64 C 150.87,160.68 150.92,160.72 150.96,160.77 C 151.0,160.82 151.03,160.87 151.05,160.93 C 151.1,161.03 151.12,161.15 151.12,161.27 C 151.11,161.38 151.09,161.48 151.05,161.58 C 151.01,161.68 150.96,161.76 150.91,161.85 C 150.85,161.94 150.79,162.02 150.73,162.1 C 150.65,162.2 150.57,162.29 150.49,162.38 C 150.37,162.5 150.25,162.61 150.13,162.71 C 149.91,162.9 149.67,163.07 149.43,163.22 C 149.19,163.38 148.95,163.52 148.7,163.67 C 148.39,163.84 148.09,164.01 147.78,164.18 C 147.03,164.59 146.29,164.99 145.56,165.41 C 144.65,165.93 143.77,166.48 142.92,167.1 C 142.49,167.42 142.07,167.76 141.68,168.13 C 141.59,168.22 141.5,168.32 141.41,168.41 C 141.36,168.46 141.31,168.51 141.27,168.57 C 141.18,168.67 141.1,168.77 141.03,168.88 C 140.96,168.98 140.9,169.09 140.86,169.21 C 140.84,169.26 140.82,169.32 140.81,169.38 C 140.77,169.53 140.76,169.68 140.76,169.83 C 140.77,169.94 140.78,170.05 140.8,170.16 C 140.83,170.27 140.85,170.39 140.89,170.5 C 140.96,170.77 141.06,171.04 141.2,171.29 C 141.25,171.38 141.3,171.46 141.36,171.55 C 141.4,171.6 141.44,171.65 141.49,171.7 C 141.53,171.75 141.58,171.79 141.64,171.82 C 141.71,171.87 141.79,171.9 141.87,171.92 C 141.96,171.95 142.06,171.97 142.16,171.98 C 142.22,171.99 142.28,172.0 142.35,172.01 C 142.44,172.02 142.53,172.03 142.62,172.03 C 142.99,172.05 143.37,172.04 143.74,172.01 C 144.24,171.98 144.73,171.93 145.22,171.88 C 145.56,171.84 145.9,171.81 146.25,171.76 C 146.54,171.72 146.84,171.68 147.13,171.62 C 147.39,171.57 147.64,171.51 147.89,171.44 C 148.08,171.38 148.27,171.31 148.45,171.22 C 148.62,171.14 148.78,171.04 148.93,170.93 C 149.1,170.78 149.25,170.61 149.38,170.42 C 149.52,170.21 149.63,169.99 149.74,169.77 C 149.79,169.65 149.85,169.54 149.9,169.42 C 149.92,169.35 149.95,169.29 149.98,169.23 C 150.08,168.99 150.17,168.75 150.25,168.5 C 147.72,168.94 145.19,169.38 142.66,169.83 z" />
		
		<text style="font-size:10px;font-family:z_boli;stroke:none;fill:#00f;text-anchor:middle" transform="matrix(1 0 0 1 150 150)" class="txt"></text>	
			
		<cam mingh:cam="--actions=EditSelectAll;ObjectToPath;ZoomPage;ZoomCenterPage;FileVacuum;FileSave; -g" mingh:style="source:microprism">M2</cam> 
	</g>	
</svg>
