<?xml version="1.0" encoding="UTF-8" standalone="no"?>

<svg
   xmlns:xlink="http://www.w3.org/1999/xlink"
   xmlns:svg="http://www.w3.org/2000/svg"
   xmlns="http://www.w3.org/2000/svg"
   xmlns:mingh="http://www.minghworld.com"
   width="300px"
   height="300px" >
   
	<g>
		<path style="fill:none;stroke:#fb0;stroke-width:0.25px"
			d="M 153.16,126.88 C 153.16,125.13 151.75,123.71 150.0,123.71 C 148.24,123.71 146.83,125.13 146.83,126.88 C 146.83,128.63 148.24,130.05 150.0,130.05 C 151.75,130.05 153.16,128.63 153.16,126.88 z M 178.35,150.0 C 178.35,157.53 175.37,164.72 170.04,170.04 C 164.72,175.37 157.53,178.35 150.0,178.35 C 142.47,178.35 135.28,175.37 129.96,170.04 C 124.63,164.72 121.65,157.53 121.65,150.0 C 121.65,142.47 124.63,135.28 129.96,129.96 C 135.28,124.63 142.47,121.65 150.0,121.65 C 157.53,121.65 164.72,124.63 170.04,129.96 C 175.37,135.28 178.35,142.47 178.35,150.0 z M 152.88,171.67 C 152.92,171.68 152.96,171.67 153.0,171.67 C 153.04,171.66 153.08,171.65 153.12,171.64 C 153.21,171.61 153.3,171.58 153.39,171.54 C 153.47,171.52 153.54,171.49 153.62,171.46 C 153.68,171.43 153.75,171.4 153.81,171.36 C 153.85,171.33 153.89,171.3 153.92,171.28 C 153.97,171.24 154.01,171.21 154.06,171.17 C 154.11,171.13 154.16,171.1 154.21,171.06 C 154.27,171.02 154.33,170.99 154.4,170.96 C 154.54,170.89 154.7,170.84 154.85,170.81 C 154.99,170.78 155.13,170.77 155.28,170.77 C 155.37,170.77 155.47,170.78 155.56,170.8 C 155.63,170.82 155.69,170.84 155.76,170.84 C 155.79,170.85 155.82,170.85 155.86,170.85 C 155.9,170.86 155.94,170.86 155.98,170.86 C 156.06,170.86 156.15,170.85 156.23,170.84 C 156.31,170.83 156.39,170.82 156.47,170.8 C 156.54,170.78 156.6,170.75 156.67,170.72 C 156.75,170.68 156.83,170.63 156.9,170.57 C 156.98,170.51 157.05,170.44 157.11,170.37 C 157.17,170.29 157.23,170.21 157.28,170.12 C 157.34,170.04 157.38,169.95 157.42,169.85 C 157.47,169.73 157.51,169.6 157.53,169.47 C 157.55,169.34 157.56,169.22 157.55,169.09 C 157.54,168.94 157.5,168.79 157.44,168.66 C 157.38,168.51 157.3,168.37 157.21,168.23 C 157.12,168.09 157.02,167.95 156.91,167.83 C 156.8,167.7 156.68,167.59 156.56,167.48 C 156.4,167.34 156.23,167.22 156.05,167.11 C 155.87,166.98 155.68,166.87 155.49,166.75 C 155.28,166.61 155.08,166.48 154.89,166.34 C 154.78,166.26 154.67,166.18 154.57,166.1 C 154.45,166.01 154.33,165.91 154.21,165.82 C 154.09,165.72 153.98,165.62 153.86,165.52 C 153.76,165.43 153.67,165.34 153.57,165.24 C 153.41,165.09 153.24,164.94 153.07,164.8 C 152.86,164.64 152.64,164.5 152.4,164.39 C 152.33,164.36 152.26,164.33 152.19,164.31 C 152.13,164.29 152.06,164.28 152.0,164.28 C 151.94,164.29 151.89,164.29 151.84,164.31 C 151.79,164.32 151.75,164.34 151.7,164.37 C 151.65,164.41 151.6,164.45 151.55,164.5 C 151.5,164.55 151.44,164.62 151.39,164.68 C 151.26,164.82 151.13,164.95 150.97,165.05 C 150.88,165.12 150.77,165.18 150.65,165.21 C 150.52,165.25 150.37,165.26 150.23,165.26 C 150.16,165.26 150.1,165.25 150.03,165.25 C 149.95,165.24 149.87,165.23 149.8,165.21 C 149.65,165.19 149.5,165.15 149.35,165.13 C 149.24,165.11 149.12,165.1 149.0,165.1 C 148.9,165.1 148.79,165.11 148.69,165.14 C 148.59,165.17 148.5,165.21 148.42,165.26 C 148.37,165.28 148.33,165.31 148.28,165.35 C 148.23,165.39 148.17,165.45 148.13,165.5 C 148.03,165.62 147.95,165.74 147.9,165.88 C 147.85,166.01 147.82,166.15 147.81,166.29 C 147.78,166.45 147.77,166.61 147.76,166.77 C 147.74,167.13 147.71,167.49 147.69,167.85 C 147.68,168.0 147.67,168.16 147.66,168.31 C 147.65,168.46 147.64,168.61 147.62,168.76 C 147.57,169.08 147.5,169.4 147.41,169.71 C 147.32,170.02 147.22,170.33 147.12,170.64 C 147.08,170.77 147.03,170.91 147.0,171.05 C 146.97,171.19 146.95,171.32 146.95,171.46 C 146.94,171.68 146.98,171.9 147.06,172.1 C 147.11,172.23 147.17,172.35 147.24,172.46 C 147.32,172.57 147.41,172.67 147.52,172.75 C 147.63,172.84 147.75,172.92 147.88,172.98 C 148.02,173.05 148.16,173.1 148.3,173.15 C 148.42,173.19 148.54,173.22 148.66,173.25 C 148.77,173.27 148.89,173.28 149.0,173.28 C 149.16,173.28 149.31,173.25 149.47,173.21 C 149.63,173.17 149.79,173.11 149.95,173.05 C 150.13,172.98 150.3,172.89 150.45,172.78 C 150.51,172.74 150.57,172.69 150.63,172.64 C 150.66,172.61 150.68,172.58 150.71,172.55 C 150.77,172.49 150.82,172.42 150.87,172.36 C 150.93,172.29 150.98,172.22 151.04,172.15 C 151.1,172.08 151.16,172.01 151.23,171.95 C 151.3,171.89 151.38,171.84 151.46,171.79 C 151.54,171.74 151.62,171.7 151.71,171.66 C 151.82,171.62 151.93,171.59 152.05,171.59 C 152.2,171.58 152.35,171.6 152.5,171.62 C 152.57,171.64 152.64,171.65 152.71,171.66 C 152.77,171.67 152.82,171.67 152.88,171.67 z M 157.18,165.15 C 157.27,165.11 157.35,165.05 157.43,164.99 C 157.49,164.94 157.55,164.89 157.6,164.84 C 157.64,164.79 157.68,164.74 157.71,164.69 C 157.73,164.65 157.75,164.6 157.76,164.56 C 157.77,164.51 157.78,164.46 157.78,164.4 C 157.78,164.34 157.79,164.28 157.78,164.22 C 157.78,164.15 157.78,164.08 157.78,164.0 C 157.78,163.84 157.77,163.69 157.77,163.53 C 157.76,163.38 157.75,163.24 157.72,163.1 C 157.7,162.96 157.67,162.82 157.62,162.68 C 157.58,162.54 157.53,162.41 157.47,162.28 C 157.41,162.16 157.35,162.05 157.28,161.94 C 157.21,161.84 157.14,161.73 157.06,161.63 C 156.97,161.52 156.88,161.42 156.77,161.33 C 156.68,161.24 156.57,161.15 156.45,161.08 C 156.34,161.01 156.22,160.96 156.09,160.91 C 155.96,160.85 155.82,160.81 155.68,160.77 C 155.55,160.74 155.41,160.7 155.28,160.69 C 155.16,160.67 155.04,160.67 154.93,160.69 C 154.87,160.71 154.82,160.73 154.77,160.75 C 154.72,160.77 154.67,160.8 154.62,160.84 C 154.56,160.88 154.51,160.93 154.46,160.99 C 154.41,161.05 154.36,161.11 154.31,161.17 C 154.19,161.35 154.08,161.55 154.02,161.76 C 153.99,161.89 153.97,162.03 153.96,162.16 C 153.96,162.3 153.97,162.44 153.99,162.58 C 154.02,162.79 154.08,163.0 154.15,163.2 C 154.17,163.25 154.19,163.3 154.21,163.35 C 154.23,163.41 154.25,163.46 154.27,163.52 C 154.32,163.63 154.38,163.75 154.43,163.85 C 154.49,163.96 154.55,164.07 154.62,164.17 C 154.69,164.28 154.76,164.39 154.85,164.49 C 155.01,164.7 155.2,164.9 155.42,165.06 C 155.5,165.12 155.58,165.18 155.66,165.23 C 155.74,165.27 155.82,165.31 155.91,165.34 C 155.98,165.37 156.06,165.38 156.14,165.39 C 156.22,165.39 156.3,165.38 156.37,165.37 C 156.46,165.36 156.54,165.34 156.63,165.32 C 156.7,165.3 156.77,165.29 156.85,165.27 C 156.96,165.24 157.07,165.2 157.18,165.15 z M 152.19,162.15 C 152.24,162.13 152.3,162.1 152.35,162.06 C 152.4,162.03 152.44,162.0 152.48,161.96 C 152.52,161.92 152.56,161.86 152.59,161.81 C 152.63,161.74 152.65,161.67 152.67,161.59 C 152.71,161.48 152.73,161.36 152.75,161.24 C 152.78,161.06 152.78,160.87 152.77,160.69 C 152.76,160.5 152.73,160.31 152.68,160.12 C 152.66,160.02 152.63,159.93 152.59,159.83 C 152.55,159.73 152.51,159.64 152.46,159.54 C 152.41,159.45 152.35,159.36 152.29,159.27 C 152.22,159.18 152.15,159.1 152.07,159.02 C 151.9,158.84 151.71,158.69 151.52,158.54 C 151.39,158.44 151.27,158.34 151.14,158.24 C 151.02,158.16 150.89,158.08 150.76,158.01 C 150.67,157.96 150.57,157.92 150.46,157.89 C 150.36,157.85 150.26,157.83 150.16,157.81 C 150.07,157.8 149.99,157.79 149.91,157.79 C 149.83,157.79 149.74,157.79 149.66,157.8 C 149.58,157.81 149.49,157.83 149.41,157.85 C 149.37,157.86 149.34,157.88 149.3,157.89 C 149.26,157.92 149.21,157.94 149.18,157.97 C 149.08,158.04 149.01,158.12 148.94,158.21 C 148.86,158.32 148.79,158.43 148.74,158.55 C 148.65,158.77 148.6,159.0 148.59,159.24 C 148.59,159.39 148.6,159.54 148.62,159.68 C 148.64,159.84 148.67,159.99 148.7,160.15 C 148.75,160.37 148.79,160.6 148.86,160.82 C 148.9,160.93 148.94,161.03 148.98,161.14 C 149.03,161.24 149.08,161.34 149.14,161.44 C 149.21,161.54 149.27,161.64 149.35,161.73 C 149.42,161.81 149.49,161.9 149.57,161.97 C 149.73,162.12 149.92,162.25 150.11,162.35 C 150.31,162.44 150.52,162.51 150.74,162.54 C 150.84,162.55 150.94,162.55 151.04,162.54 C 151.13,162.53 151.22,162.52 151.31,162.5 C 151.41,162.47 151.5,162.45 151.59,162.42 C 151.66,162.39 151.74,162.36 151.81,162.33 C 151.94,162.28 152.06,162.22 152.19,162.15 z M 147.43,164.24 C 147.51,164.2 147.6,164.16 147.68,164.12 C 147.75,164.07 147.82,164.02 147.89,163.97 C 147.98,163.88 148.07,163.78 148.11,163.66 C 148.14,163.59 148.16,163.51 148.17,163.43 C 148.18,163.34 148.18,163.25 148.18,163.16 C 148.18,163.05 148.17,162.93 148.15,162.82 C 148.14,162.71 148.11,162.6 148.08,162.49 C 148.04,162.36 147.99,162.23 147.93,162.1 C 147.87,161.96 147.8,161.83 147.73,161.69 C 147.67,161.57 147.6,161.45 147.53,161.33 C 147.46,161.23 147.38,161.12 147.29,161.03 C 147.21,160.95 147.11,160.87 147.01,160.8 C 146.9,160.73 146.79,160.67 146.68,160.61 C 146.54,160.54 146.4,160.48 146.26,160.43 C 146.11,160.37 145.96,160.32 145.81,160.27 C 145.69,160.23 145.57,160.2 145.45,160.18 C 145.4,160.16 145.34,160.16 145.29,160.15 C 145.24,160.15 145.19,160.15 145.14,160.15 C 145.0,160.16 144.88,160.21 144.76,160.28 C 144.71,160.31 144.66,160.35 144.62,160.39 C 144.58,160.42 144.54,160.46 144.51,160.5 C 144.47,160.56 144.44,160.63 144.42,160.7 C 144.39,160.79 144.38,160.87 144.36,160.96 C 144.34,161.16 144.34,161.36 144.34,161.56 C 144.35,161.67 144.35,161.78 144.36,161.89 C 144.37,162.01 144.39,162.13 144.42,162.24 C 144.45,162.38 144.49,162.52 144.53,162.65 C 144.57,162.79 144.62,162.92 144.67,163.06 C 144.71,163.17 144.76,163.27 144.82,163.38 C 144.87,163.47 144.94,163.56 145.0,163.65 C 145.08,163.74 145.16,163.84 145.24,163.92 C 145.33,164.01 145.42,164.1 145.53,164.18 C 145.61,164.24 145.69,164.29 145.78,164.34 C 145.87,164.38 145.95,164.41 146.04,164.44 C 146.15,164.46 146.26,164.47 146.37,164.47 C 146.49,164.46 146.61,164.45 146.73,164.43 C 146.85,164.41 146.97,164.39 147.08,164.35 C 147.2,164.32 147.31,164.28 147.43,164.24 z M 145.4,168.96 C 145.66,168.84 145.81,168.69 145.93,168.43 C 146.04,168.17 146.03,167.93 146.01,167.66 C 145.98,167.13 145.85,166.65 145.63,166.17 C 145.52,165.92 145.37,165.73 145.16,165.56 C 144.96,165.4 144.75,165.26 144.5,165.17 C 144.25,165.08 144.0,165.04 143.74,165.02 C 143.53,165.01 143.19,165.0 142.97,165.05 C 142.68,165.12 142.52,165.24 142.43,165.54 C 142.36,165.79 142.35,166.05 142.35,166.31 C 142.35,166.57 142.37,166.82 142.42,167.08 C 142.48,167.36 142.54,167.55 142.72,167.78 C 143.01,168.17 143.48,168.55 143.91,168.76 C 144.18,168.89 144.46,168.97 144.76,169.03 C 145.0,169.08 145.17,169.06 145.4,168.96 z" />
			
		<text style="font-size:10px;font-family:z_boli;stroke:none;fill:#00f;text-anchor:middle" transform="matrix(1 0 0 1 150 150)" class="txt"></text>	
			
		<cam mingh:cam="--actions=EditSelectAll;ObjectToPath;ZoomPage;ZoomCenterPage;FileVacuum;FileSave; -g" mingh:style="source:microprism">M2</cam> 
	</g>		
</svg>
