<?xml version="1.0" encoding="UTF-8" standalone="no"?>

<svg
   id="svgDraw"
   xmlns:xlink="http://www.w3.org/1999/xlink"
   xmlns:svg="http://www.w3.org/2000/svg"
   xmlns="http://www.w3.org/2000/svg"
   xmlns:mingh="http://www.minghworld.com"
   width="300px"
   height="300px" >
	
	<defs>
		<!-- Text Path -->
		<path id="txtpath1" style="fill:none;stroke:#f0f;stroke-width:0.25px;"
			d="M 88.83,151.03 C 89.38,169.65 104.61,184.53 123.36,184.53 142.46,184.53 157.9,169.1 157.9,150 157.9,130.9 142.46,115.47 123.36,115.47 104.6,115.47 89.37,130.37 88.83,149" />
			
		<path id="txtpath2" style="fill:none;stroke:#f0f;stroke-width:0.25px;"
			d="M 211.24,148.94 C 210.95,141.7 207.23,135.17 201.08,131.22 197.53,128.95 193.4,127.73 189.18,127.72 183.24,127.7 177.68,129.98 173.49,134.16 169.28,138.35 166.94,143.89 166.93,149.82 166.91,157.45 170.71,164.41 177.15,168.54 180.7,170.82 184.81,172.02 189.05,172.04 194.99,172.05 200.53,169.76 204.74,165.57 208.71,161.62 210.98,156.5 211.24,150.94" />
	</defs>
	
	<g>	
		<!-- Shape -->
		<path class="shape" style="stroke:#fb0;stroke-width:0.25px;" fill="none"
			d="M 123.36,113.72 C 103.67,113.72 87.64,129.38 87.08,148.94 86.91,148.95 86.63,148.97 86.46,148.97 L 86.46,147.91 85.58,147.91 C 85.59,149.36 85.61,150.79 85.61,152.16 L 86.49,152.16 86.49,151.09 C 86.67,151.09 86.92,151.09 87.08,151.09 87.65,170.64 103.68,186.28 123.36,186.28 143.41,186.28 159.65,170.05 159.65,150 159.65,129.95 143.41,113.72 123.36,113.72 z M 122.27,120 C 131.4,119.67 140.57,123.52 146.74,131.19 157.13,144.09 155.08,162.98 142.18,173.38 129.27,183.77 110.37,181.72 99.99,168.81 89.59,155.91 91.65,137.02 104.55,126.63 109.79,122.4 116.02,120.22 122.27,120 z M 89.18,148.94 91.15,148.94 91.11,151.06 89.18,151.09 89.18,148.94 z" />	
			
		<path class="shape" style="stroke:#fb0;stroke-width:0.25px;" fill="none" 
			d="M 214.42,147.82 C 214.19,147.82 213.95,147.82 213.72,147.81 213.72,148.17 213.71,148.51 213.71,148.88 213.47,148.88 213.24,148.88 213,148.88 212.68,141.07 208.62,133.98 202,129.74 198.17,127.28 193.73,125.97 189.17,125.96 182.78,125.94 176.76,128.41 172.24,132.92 167.71,137.43 165.21,143.43 165.19,149.81 165.17,158.03 169.29,165.58 176.21,170.02 180.04,172.48 184.48,173.78 189.04,173.8 195.43,173.81 201.43,171.34 205.97,166.83 210.25,162.57 212.72,156.99 213,151.01 213.23,151.01 213.47,151.01 213.7,151.01 213.7,151.35 213.71,151.71 213.71,152.07 213.94,152.07 214.18,152.07 214.41,152.07 214.41,150.62 214.41,149.19 214.42,147.82 z M 208.88,148.85 210.83,148.87 210.83,151 208.88,150.99 z M 206.65,149.88 C 206.65,159.57 198.79,167.42 189.11,167.42 179.42,167.42 171.57,159.57 171.57,149.88 171.57,140.19 179.42,132.34 189.11,132.34 198.79,132.34 206.65,140.19 206.65,149.88 z M 208.88,149.93 206.69,149.93 M 210.83,149.93 214.41,149.93" />
		
		<text dy="0" style="stroke:none;fill:#00f;font-family:z_ariola;font-size:5.2px;text-anchor:middle;">
			<textPath dy="0" startOffset="25%" xlink:href="#txtpath1" class="txt" ></textPath>
		</text>
		
		<text dy="0" style="stroke:none;fill:#00f;font-family:z_ariola;font-size:5.2px;text-anchor:middle;">
			<textPath dy="0" startOffset="76%" xlink:href="#txtpath2" class="txt" ></textPath>
		</text>
		
		<!-- Prism Reference -->
		<cam mingh:cam="--actions=EditSelectAll;ObjectToPath;ZoomPage;ZoomCenterPage;FileVacuum;FileSave; -g" mingh:style="source:microprism">M2</cam> 
	</g>
</svg>
