<?xml version="1.0" encoding="UTF-8" standalone="no"?>

<svg
   xmlns:xlink="http://www.w3.org/1999/xlink"
   xmlns:svg="http://www.w3.org/2000/svg"
   xmlns="http://www.w3.org/2000/svg"
   xmlns:mingh="http://www.minghworld.com"
   width="300px"
   height="300px" >

	<defs>
		<!-- Paths -->
		<path id="birth" style="fill:#00f;stroke:none;" 
		 d="M 153.9,150.0 C 153.9,152.15 152.15,153.9 150.0,153.9 C 147.85,153.9 146.1,152.15 146.1,150.0 C 146.1,147.85 147.85,146.1 150.0,146.1 C 152.15,146.1 153.9,147.85 153.9,150.0 z" />
	  
		<path id="diamond" style="fill:none;stroke:#000;stroke-width:0.25px;"
		 d="M 152.75,150.0 C 152.75,151.52 151.52,152.75 150.0,152.75 C 148.48,152.75 147.25,151.52 147.25,150.0 C 147.25,148.48 148.48,147.25 150.0,147.25 C 151.52,147.25 152.75,148.48 152.75,150.0 z" />
	</defs>	
	
	<g>	
		<path id="shape" style="fill:none;stroke:#fb0;stroke-width:0.25px"
			d="M 150.0,120.0 C 148.03,120.0 146.09,120.21 144.16,120.59 C 142.23,120.98 140.35,121.52 138.53,122.28 C 136.71,123.04 134.99,123.97 133.34,125.06 C 131.71,126.16 130.18,127.39 128.78,128.78 C 127.39,130.18 126.16,131.71 125.06,133.34 C 123.97,134.99 123.04,136.71 122.28,138.53 C 121.52,140.35 120.98,142.23 120.59,144.16 C 120.21,146.09 120.0,148.03 120.0,150.0 C 120.0,151.97 120.21,153.91 120.59,155.84 C 120.98,157.77 121.52,159.65 122.28,161.47 C 123.04,163.29 123.97,165.01 125.06,166.66 C 126.16,168.29 127.39,169.82 128.78,171.22 C 130.18,172.61 131.71,173.84 133.34,174.94 C 134.99,176.03 136.71,176.96 138.53,177.72 C 140.35,178.48 142.23,179.02 144.16,179.41 C 146.09,179.79 148.03,180.0 150.0,180.0 C 151.97,180.0 153.91,179.79 155.84,179.41 C 157.77,179.02 159.65,178.48 161.47,177.72 C 163.29,176.96 165.01,176.03 166.66,174.94 C 168.29,173.84 169.82,172.61 171.22,171.22 C 172.61,169.82 173.84,168.29 174.94,166.66 C 176.03,165.01 176.96,163.29 177.72,161.47 C 178.48,159.65 179.02,157.77 179.41,155.84 C 179.79,153.91 180.0,151.97 180.0,150.0 C 180.0,148.03 179.79,146.09 179.41,144.16 C 179.02,142.23 178.48,140.35 177.72,138.53 C 176.96,136.71 176.03,134.99 174.94,133.34 C 173.84,131.71 172.61,130.18 171.22,128.78 C 169.82,127.39 168.29,126.16 166.66,125.06 C 165.01,123.97 163.29,123.04 161.47,122.28 C 159.65,121.52 157.77,120.98 155.84,120.59 C 153.91,120.21 151.97,120.0 150.0,120.0 z M 124.88,145.06 C 125.58,145.06 126.22,145.32 126.75,145.84 C 127.28,146.37 127.53,147.0 127.53,147.72 L 127.53,152.28 C 127.53,153.0 127.28,153.63 126.75,154.16 C 126.22,154.68 125.58,154.94 124.88,154.94 C 124.17,154.94 123.57,154.68 123.03,154.16 C 122.5,153.63 122.25,153.0 122.25,152.28 L 122.25,147.72 C 122.25,147.0 122.5,146.37 123.03,145.84 C 123.57,145.32 124.17,145.06 124.88,145.06 z M 175.13,145.06 C 175.84,145.06 176.43,145.32 176.97,145.84 C 177.5,146.37 177.75,147.0 177.75,147.72 L 177.75,152.28 C 177.75,153.0 177.5,153.63 176.97,154.16 C 176.43,154.68 175.84,154.94 175.13,154.94 C 174.43,154.94 173.78,154.68 173.25,154.16 C 172.72,153.63 172.47,153.0 172.47,152.28 L 172.47,147.72 C 172.47,147.0 172.72,146.37 173.25,145.84 C 173.78,145.32 174.43,145.06 175.13,145.06 z" />
		
		<!-- Name One -->
		<text id="txtA2" transform="matrix(1 0 0 1 150 153)" style="stroke:none;fill:#f00;font-family:z_magnolia;font-size:16px;text-anchor:middle;" onclick="changeDimensions()" class="txt" ></text>
		
		<!-- Prism Reference -->
		<cam mingh:cam="--actions=EditSelectAll;ObjectToPath;ZoomPage;ZoomCenterPage;FileVacuum;FileSave; -g" mingh:style="source:microprism">M2</cam> 
	 </g>
</svg>
