<?xml version="1.0" encoding="UTF-8" standalone="no"?>

<svg
   xmlns:xlink="http://www.w3.org/1999/xlink"
   xmlns:svg="http://www.w3.org/2000/svg"
   xmlns="http://www.w3.org/2000/svg"
   xmlns:mingh="http://www.minghworld.com"
   width="300px"
   height="300px" >
   
	<defs>
		<!-- Birth -->
		<path id="birth" style="fill:#00f;stroke:none;"
         d="M 153.89,150.0 C 153.89,152.13 152.15,153.86 150.0,153.86 C 147.85,153.86 146.11,152.13 146.11,150.0 C 146.11,147.87 147.85,146.14 150.0,146.14 C 152.15,146.14 153.89,147.87 153.89,150.0 z" />
		 
		<!-- Diamond -->
		<path id="diamond" style="fill:none;stroke:#000;stroke-width:0.25px;"
         d="M 152.83,150.0 C 152.83,148.45 151.56,147.19 150.0,147.19 C 148.44,147.19 147.17,148.45 147.17,150.0 C 147.17,151.55 148.44,152.81 150.0,152.81 C 151.56,152.81 152.83,151.55 152.83,150.0 z"/>
		
		<!-- Text Path -->
		<path id="txtpath" style="fill:none;stroke:#f0f;stroke-width:0.25px;"
		 d="M 104.8,146.32 C 113.25,140.88 124.05,141.95 133.19,144.9 147.47,149.53 159.7,159.82 174.94,161.6 183.51,162.66 192.93,161.19 199.63,155.39" />
	</defs>	
	
	 <g>	
		<!-- Shape -->
		<path id="shape" style="fill:none;stroke:#fb0;stroke-width:0.25px;"
		d="M 143.41,152.01 C 143.45,151.98 143.41,151.95 143.38,151.93 C 143.36,151.92 143.33,151.91 143.31,151.89 C 143.26,151.86 143.21,151.84 143.15,151.81 C 143.05,151.75 142.95,151.7 142.85,151.65 C 142.65,151.54 142.45,151.43 142.24,151.32 C 141.84,151.11 141.43,150.9 141.02,150.7 C 140.19,150.28 139.35,149.89 138.51,149.5 C 136.81,148.73 135.09,148.01 133.34,147.37 C 129.8,146.07 126.27,145.18 122.5,144.84 C 118.87,144.51 114.98,144.65 111.44,145.71 C 109.63,146.25 107.75,147.08 106.34,148.42 C 105.05,149.65 104.17,151.25 104.33,153.12 C 104.49,155.01 105.59,156.49 107.01,157.6 C 108.51,158.78 110.38,159.53 112.18,160.06 C 115.73,161.08 119.59,161.3 123.24,160.91 C 127.11,160.5 130.4,159.47 133.88,157.77 C 137.4,156.04 140.13,154.12 143.41,152.01 z M 102.84,145.04 C 102.84,144.07 102.05,143.28 101.07,143.28 C 100.09,143.28 99.3,144.07 99.3,145.04 C 99.3,146.01 100.09,146.8 101.07,146.8 C 102.05,146.8 102.84,146.01 102.84,145.04 z M 156.59,147.99 C 156.55,148.02 156.59,148.05 156.62,148.07 C 156.64,148.08 156.67,148.09 156.69,148.11 C 156.74,148.14 156.79,148.16 156.85,148.19 C 156.95,148.25 157.05,148.3 157.15,148.35 C 157.35,148.46 157.55,148.57 157.76,148.68 C 158.16,148.89 158.57,149.1 158.98,149.31 C 159.81,149.72 160.65,150.11 161.49,150.5 C 163.19,151.27 164.91,151.99 166.66,152.63 C 170.2,153.93 173.73,154.82 177.5,155.16 C 181.13,155.49 185.02,155.35 188.56,154.29 C 190.37,153.75 192.25,152.92 193.66,151.58 C 194.95,150.35 195.83,148.75 195.67,146.88 C 195.51,144.99 194.41,143.51 192.99,142.4 C 191.49,141.22 189.62,140.47 187.82,139.94 C 184.27,138.92 180.41,138.7 176.76,139.09 C 172.89,139.5 169.6,140.53 166.12,142.23 C 162.6,143.96 159.87,145.88 156.59,147.99 z M 197.16,145.04 C 197.16,146.01 197.95,146.8 198.93,146.8 C 199.91,146.8 200.7,146.01 200.7,145.04 C 200.7,144.07 199.91,143.28 198.93,143.28 C 197.95,143.28 197.16,144.07 197.16,145.04 z M 147.06,154.01 C 146.59,154.31 146.12,154.6 145.65,154.9 C 143.63,156.2 141.62,157.5 139.52,158.72 C 137.62,159.82 135.65,160.85 133.57,161.68 C 131.66,162.45 129.65,163.05 127.6,163.5 C 124.57,164.16 121.44,164.49 118.21,164.39 C 115.56,164.3 112.85,163.93 110.31,163.34 C 107.24,162.62 104.43,161.59 101.96,160.08 C 99.51,158.58 97.39,156.62 96.23,154.21 C 95.29,152.26 94.96,150.02 95.39,147.95 C 95.77,146.15 96.72,144.48 98.01,143.05 C 99.76,141.13 102.13,139.65 104.78,138.52 C 109.14,136.67 114.27,135.76 119.12,135.64 C 120.66,135.6 122.16,135.64 123.66,135.76 C 125.68,135.93 127.69,136.24 129.67,136.66 C 132.15,137.19 134.57,137.87 136.92,138.7 C 140.1,139.82 143.13,141.22 146.15,142.64 C 148.44,143.72 150.73,144.82 152.94,145.99 C 153.41,145.69 153.88,145.4 154.35,145.1 C 156.37,143.8 158.38,142.5 160.48,141.28 C 162.38,140.18 164.35,139.15 166.43,138.32 C 168.34,137.55 170.35,136.95 172.4,136.5 C 175.43,135.84 178.56,135.51 181.79,135.61 C 184.44,135.7 187.15,136.07 189.69,136.66 C 192.76,137.38 195.57,138.41 198.04,139.92 C 200.49,141.42 202.61,143.38 203.77,145.79 C 204.71,147.74 205.04,149.98 204.61,152.05 C 204.23,153.85 203.28,155.52 201.99,156.95 C 200.24,158.87 197.87,160.35 195.22,161.48 C 190.86,163.33 185.73,164.24 180.88,164.36 C 179.34,164.4 177.84,164.36 176.34,164.24 C 174.32,164.07 172.31,163.76 170.33,163.34 C 167.85,162.81 165.43,162.13 163.08,161.3 C 159.9,160.18 156.87,158.78 153.85,157.36 C 151.56,156.28 149.27,155.18 147.06,154.01 z" />
		
		<!-- Name One -->
		<text dy="0" style="stroke:none;fill:#f00;font-family:z_swan;font-size:15px;text-anchor:start;">
			<textPath id="txtEnd2" startOffset="2%" xlink:href="#txtpath" class="txt" ></textPath>
		</text>
		
		<text dy="0" style="stroke:none;fill:#f00;font-family:z_swan;font-size:15px;text-anchor:middle;">
			<textPath id="txtEnd2" startOffset="50%" xlink:href="#txtpath" class="txt" ></textPath>
		</text>
		
		<text dy="0" style="stroke:none;fill:#f00;font-family:z_swan;font-size:15px;text-anchor:end;">
			<textPath id="txtEnd2" startOffset="98%" xlink:href="#txtpath" class="txt" ></textPath>
		</text>
		
		<!-- Prism Reference -->
		<cam mingh:cam="--actions=EditSelectAll;ObjectToPath;ZoomPage;ZoomCenterPage;FileVacuum;FileSave; -g" mingh:style="source:microprism">M2</cam> 
	 </g>

</svg>
