<?xml version="1.0" encoding="UTF-8" standalone="no"?>

<svg
   xmlns:xlink="http://www.w3.org/1999/xlink"
   xmlns:svg="http://www.w3.org/2000/svg"
   xmlns="http://www.w3.org/2000/svg"
   xmlns:mingh="http://www.minghworld.com"
   width="300px"
   height="300px" >
    
	<g>
		<defs>
			<path style="fill:#00f;stroke:none" class="birth"
			d="M 129.591,144.71259 C 129.691,147.01259 127.32101,149.03259 125.051,148.58259 122.891,148.25259 121.26101,145.88259 121.88101,143.75259 122.371,141.76259 124.581,140.37259 126.591,140.91259 128.29101,141.32259 129.661,142.94259 129.591,144.71259 z" />
	 
			<path style="fill:#00f;stroke:none" class="birth"
				d="M 178.24725,144.71259 C 178.34725,147.01259 175.97726,149.03259 173.70725,148.58259 171.54725,148.25259 169.91726,145.88259 170.53726,143.75259 171.02725,141.76259 173.23725,140.37259 175.24725,140.91259 176.94726,141.32259 178.31725,142.94259 178.24725,144.71259 z" />
		 
			<path style="fill:none;stroke:#000;stroke-width:0.25px" class="diamond"
				d="M 128.46601,144.71489 C 128.53731,146.35483 126.84748,147.79513 125.22894,147.47427 123.68883,147.23897 122.52663,145.54912 122.9687,144.03039 123.31806,142.61149 124.89382,141.6204 126.32698,142.00542 127.5391,142.29776 128.51592,143.45285 128.46601,144.71489 z" />
		 
			<path style="fill:none;stroke:#000;stroke-width:0.25px" class="diamond"
				d="M 177.12226,144.71489 C 177.19356,146.35483 175.50373,147.79513 173.88519,147.47427 172.34508,147.23897 171.18288,145.54912 171.62495,144.03039 171.97431,142.61149 173.55007,141.6204 174.98323,142.00542 176.19535,142.29776 177.17217,143.45285 177.12226,144.71489 z" />
		</defs>
		
		<path style="stroke:#fb0;stroke-width:0.25px" fill="none" class="shape"
			d="M 125.34,128.59 C 126.09,128.58 126.84,128.66 127.62,128.78 129.08,129.01 130.48,129.44 131.84,130.09 133.22,130.74 134.55,131.62 135.81,132.69 137.03,133.71 138.18,134.9 139.28,136.31 140.47,137.82 141.52,139.47 142.44,141.22 143.24,142.74 144.03,144.59 144.81,146.72 145.73,149.2 146.37,151.38 146.78,153.28 147.09,154.68 147.32,156.24 147.44,158.0 147.54,159.53 147.56,160.81 147.5,161.84 147.46,162.46 147.38,163.11 147.25,163.78 147.2,164.09 147.06,164.34 146.81,164.53 146.3,164.96 145.76,165.34 145.22,165.69 144.37,166.24 143.26,166.86 141.87,167.53 140.28,168.29 138.77,168.86 137.4,169.28 135.57,169.84 133.36,170.35 130.72,170.78 128.49,171.14 126.52,171.33 124.78,171.38 122.79,171.44 120.85,171.33 118.97,171.03 117.19,170.76 115.56,170.34 114.09,169.78 112.54,169.2 111.12,168.47 109.87,167.59 108.62,166.7 107.55,165.69 106.65,164.56 105.68,163.32 104.98,161.98 104.5,160.59 104.05,159.26 103.82,157.89 103.81,156.44 103.81,154.92 104.03,153.46 104.5,152.09 105.0,150.65 105.77,149.35 106.78,148.16 107.75,147.03 108.81,146.15 109.97,145.56 110.58,145.25 111.3,145.0 112.15,144.75 112.57,144.64 112.87,144.46 113.0,144.22 113.14,143.99 113.13,143.64 113.03,143.22 112.83,142.37 112.72,141.62 112.69,140.94 112.64,139.64 112.85,138.3 113.37,136.91 113.9,135.44 114.68,134.12 115.69,132.97 116.65,131.88 117.81,130.99 119.15,130.25 120.44,129.54 121.76,129.05 123.12,128.81 123.84,128.67 124.59,128.59 125.34,128.59 z M 126.37,130.59 C 125.82,130.54 125.23,130.69 124.84,131.09 124.44,131.44 124.24,132.0 124.25,132.53 124.24,133.09 124.48,133.61 124.9,133.97 125.58,134.6 126.74,134.61 127.44,134.0 127.9,133.63 128.17,133.06 128.15,132.47 128.15,131.85 127.8,131.25 127.28,130.91 127.01,130.72 126.7,130.61 126.37,130.59 z" />
	
		<path style="stroke:#fb0;stroke-width:0.25px" fill="none" class="shape"
			d="M 174.65625,128.59375 C 173.90625,128.58375 173.155,128.66125 172.375,128.78125 170.915,129.01125 169.51625,129.44375 168.15625,130.09375 166.77625,130.74375 165.4475,131.6175 164.1875,132.6875 162.9675,133.7075 161.81875,134.9025 160.71875,136.3125 159.52875,137.8225 158.4825,139.46875 157.5625,141.21875 156.7625,142.73875 155.9675,144.58875 155.1875,146.71875 154.2675,149.19875 153.62875,151.38125 153.21875,153.28125 152.90875,154.68125 152.6825,156.24 152.5625,158 152.4625,159.53 152.44,160.81375 152.5,161.84375 152.54,162.46375 152.62,163.11125 152.75,163.78125 152.8,164.09125 152.9375,164.34125 153.1875,164.53125 153.6975,164.96125 154.24125,165.3375 154.78125,165.6875 155.63125,166.2375 156.735,166.86125 158.125,167.53125 159.715,168.29125 161.22375,168.86125 162.59375,169.28125 164.42375,169.84125 166.64125,170.35125 169.28125,170.78125 171.51125,171.14125 173.47875,171.325 175.21875,171.375 177.20875,171.435 179.15125,171.33125 181.03125,171.03125 182.81125,170.76125 184.43625,170.34125 185.90625,169.78125 187.45625,169.20125 188.875,168.47375 190.125,167.59375 191.375,166.70375 192.44375,165.6925 193.34375,164.5625 194.31375,163.3225 195.02,161.98375 195.5,160.59375 195.95,159.26375 196.1775,157.8875 196.1875,156.4375 196.1875,154.9175 195.97,153.46375 195.5,152.09375 195,150.65375 194.22875,149.34625 193.21875,148.15625 192.24875,147.02625 191.19125,146.1525 190.03125,145.5625 189.42125,145.2525 188.69375,145 187.84375,144.75 187.42375,144.64 187.13,144.45875 187,144.21875 186.86,143.98875 186.86875,143.63875 186.96875,143.21875 187.16875,142.36875 187.2825,141.6175 187.3125,140.9375 187.3625,139.6375 187.145,138.29625 186.625,136.90625 186.095,135.43625 185.3225,134.11875 184.3125,132.96875 183.3525,131.87875 182.18375,130.99 180.84375,130.25 179.55375,129.54 178.235,129.0525 176.875,128.8125 176.155,128.6725 175.40625,128.59375 174.65625,128.59375 z M 173.625,130.59375 C 174.175,130.54375 174.76625,130.69375 175.15625,131.09375 175.55625,131.44375 175.76,132.00125 175.75,132.53125 175.76,133.09125 175.51375,133.60875 175.09375,133.96875 174.41375,134.59875 173.2625,134.61 172.5625,134 172.1025,133.63 171.82375,133.05875 171.84375,132.46875 171.84375,131.84875 172.19875,131.24625 172.71875,130.90625 172.98875,130.71625 173.295,130.61375 173.625,130.59375 z" />

		<text id="txt1" transform="matrix(1 0 0 1 125 160)" style="stroke:none;fill:#f00;font-family:z_swan;font-size:20px;text-anchor:middle;" class="txt" />
		<text id="txt2" transform="matrix(1 0 0 1 174 160)" style="stroke:none;fill:#f00;font-family:z_swan;font-size:20px;text-anchor:middle;" class="txt" />

		<!-- Prism Reference -->
		<cam mingh:cam="--actions=EditSelectAll;ObjectToPath;ZoomPage;ZoomCenterPage;FileVacuum;FileSave; -g" mingh:style="source:microprism">M2</cam> 
	 </g>

</svg>
