<?xml version="1.0" encoding="UTF-8" standalone="no"?>

<svg
   xmlns:xlink="http://www.w3.org/1999/xlink"
   xmlns:svg="http://www.w3.org/2000/svg"
   xmlns="http://www.w3.org/2000/svg"
   xmlns:mingh="http://www.minghworld.com"
   width="300px"
   height="300px" >
   
	<g>
		<defs>
			<path style="fill:#00f;stroke:none" class="birth"
				d="M 129.89,162.08 C 129.89,163.15 129.51,164.07 128.75,164.83 127.99,165.6 127.07,165.98 126,165.98 124.93,165.98 124.01,165.6 123.25,164.83 122.48,164.07 122.1,163.15 122.1,162.08 122.1,161.01 122.48,160.09 123.25,159.33 124.01,158.57 124.93,158.19 126,158.19 127.07,158.19 127.99,158.57 128.75,159.33 129.51,160.09 129.89,161.01 129.89,162.08 z" />
			
			<path style="fill:#00f;stroke:none" class="birth"
				d="M 177.89,162.08 C 177.89,163.15 177.51,164.07 176.75,164.83 175.99,165.6 175.07,165.98 174,165.98 172.93,165.98 172.01,165.6 171.25,164.83 170.48,164.07 170.1,163.15 170.1,162.08 170.1,161.01 170.48,160.09 171.25,159.33 172.01,158.57 172.93,158.19 174,158.19 175.07,158.19 175.99,158.57 176.75,159.33 177.51,160.09 177.89,161.01 177.89,162.08 z" />
			
			<path style="fill:none;stroke:#000;stroke-width:0.25px" class="diamond"
				d="M 128.74,162.08 C 128.74,162.84 128.48,163.49 127.94,164.03 127.4,164.56 126.76,164.83 126,164.83 125.24,164.83 124.59,164.56 124.06,164.03 123.52,163.49 123.25,162.84 123.25,162.08 123.25,161.32 123.52,160.68 124.06,160.14 124.59,159.61 125.24,159.34 126,159.34 126.76,159.34 127.4,159.61 127.94,160.14 128.48,160.68 128.74,161.32 128.74,162.08 z" />

			<path style="fill:none;stroke:#000;stroke-width:0.25px" class="diamond"
				d="M 176.74,162.08 C 176.74,162.84 176.48,163.49 175.94,164.03 175.4,164.56 174.76,164.83 174,164.83 173.24,164.83 172.59,164.56 172.06,164.03 171.52,163.49 171.25,162.84 171.25,162.08 171.25,161.32 171.52,160.68 172.06,160.14 172.59,159.61 173.24,159.34 174,159.34 174.76,159.34 175.4,159.61 175.94,160.14 176.48,160.68 176.74,161.32 176.74,162.08 z" />
		</defs>
	
		<path style="stroke:#fb0;stroke-width:0.25px" fill="none" class="shape"
			d="M 126 129.21875 C 123.24 129.21875 120.58125 129.73125 118.03125 130.78125 C 115.49125 131.84125 113.23125 133.3625 111.28125 135.3125 C 109.33125 137.2725 107.84125 139.49125 106.78125 142.03125 C 105.73125 144.58125 105.21875 147.24 105.21875 150 C 105.21875 152.76 105.73125 155.41875 106.78125 157.96875 C 107.84125 160.50875 109.33125 162.7375 111.28125 164.6875 C 113.23125 166.6375 115.49125 168.15875 118.03125 169.21875 C 120.58125 170.26875 123.24 170.78125 126 170.78125 C 128.76 170.78125 131.41875 170.26875 133.96875 169.21875 C 136.50875 168.15875 138.7275 166.66875 140.6875 164.71875 C 142.6375 162.76875 144.15875 160.50875 145.21875 157.96875 C 146.26875 155.41875 146.78125 152.76 146.78125 150 C 146.78125 147.24 146.26875 144.58125 145.21875 142.03125 C 144.15875 139.49125 142.6375 137.2725 140.6875 135.3125 C 138.7275 133.3625 136.50875 131.84125 133.96875 130.78125 C 131.41875 129.73125 128.76 129.21875 126 129.21875 z M 126 131.15625 C 127.20845 131.09321 128.2453 132.39972 127.90625 133.5625 C 127.66026 134.6395 126.3914 135.37112 125.34375 134.9375 C 124.34783 134.58652 123.79014 133.39079 124.1875 132.40625 C 124.46274 131.67222 125.21002 131.12616 126 131.15625 z " />
		
		<path style="stroke:#fb0;stroke-width:0.25px" fill="none" class="shape"
			d="M 174 129.21875 C 171.24 129.21875 168.58125 129.73125 166.03125 130.78125 C 163.49125 131.84125 161.23125 133.3625 159.28125 135.3125 C 157.33125 137.2725 155.84125 139.49125 154.78125 142.03125 C 153.73125 144.58125 153.21875 147.24 153.21875 150 C 153.21875 152.76 153.73125 155.41875 154.78125 157.96875 C 155.84125 160.50875 157.33125 162.7375 159.28125 164.6875 C 161.23125 166.6375 163.49125 168.15875 166.03125 169.21875 C 168.58125 170.26875 171.24 170.78125 174 170.78125 C 176.76 170.78125 179.41875 170.26875 181.96875 169.21875 C 184.50875 168.15875 186.7275 166.66875 188.6875 164.71875 C 190.6375 162.76875 192.15875 160.50875 193.21875 157.96875 C 194.26875 155.41875 194.78125 152.76 194.78125 150 C 194.78125 147.24 194.26875 144.58125 193.21875 142.03125 C 192.15875 139.49125 190.6375 137.2725 188.6875 135.3125 C 186.7275 133.3625 184.50875 131.84125 181.96875 130.78125 C 179.41875 129.73125 176.76 129.21875 174 129.21875 z M 174 131.15625 C 175.19561 131.0941 176.21524 132.37595 175.90625 133.53125 C 175.68428 134.62221 174.43247 135.3517 173.375 134.9375 C 172.32155 134.58214 171.72489 133.28559 172.21875 132.28125 C 172.53016 131.61367 173.25572 131.12778 174 131.15625 z " />

		<text id="txt1" transform="matrix(1 0 0 1 126 154)" style="stroke:none;fill:#f00;font-family:z_swan;font-size:20px;text-anchor:middle;" class="txt" />
		<text id="txt2" transform="matrix(1 0 0 1 174 154)" style="stroke:none;fill:#f00;font-family:z_swan;font-size:20px;text-anchor:middle;" class="txt" />

		<!-- Prism Reference -->
		<cam mingh:cam="--actions=EditSelectAll;ObjectToPath;ZoomPage;ZoomCenterPage;FileVacuum;FileSave; -g" mingh:style="source:microprism">M2</cam> 
	 </g>

</svg>
