<?xml version="1.0" encoding="UTF-8" standalone="no"?>

<svg
   xmlns:xlink="http://www.w3.org/1999/xlink"
   xmlns:svg="http://www.w3.org/2000/svg"
   xmlns="http://www.w3.org/2000/svg"
   xmlns:mingh="http://www.minghworld.com"
   width="300px"
   height="300px" >
   
	<g>	
		<defs>
			<path style="fill:#00f;stroke:none" id="birth1" class="birth"
				d="M 137.89764,174.04173 C 137.89764,176.19432 136.15261,177.93935 134,177.93935 131.8474,177.93935 130.10237,176.19432 130.10237,174.04173 130.10237,171.88911 131.8474,170.14408 134,170.14408 136.15261,170.14408 137.89764,171.88911 137.89764,174.04173 z" />
		
			<path style="fill:#00f;stroke:none" id="birth2" class="birth"
				d="M 169.89764,174.04173 C 169.89764,176.19433 168.15261,177.93935 166,177.93935 163.8474,177.93935 162.10237,176.19433 162.10237,174.04173 162.10237,171.88911 163.8474,170.14408 166,170.14408 168.15261,170.14408 169.89764,171.88911 169.89764,174.04173 z" />
				
			<path id="diamond1" style="fill:none;stroke:#000;stroke-width:0.25px;" class="diamond"
				d="M 136.74192,174.05349 C 136.78192,175.45349 135.54192,176.75349 134.13192,176.78349 133.06192,176.85349 131.97192,176.22349 131.52192,175.23349 131.04192,174.23349 131.22192,172.95349 132.00192,172.16349 132.71192,171.39349 133.87192,171.09349 134.86192,171.43349 135.95192,171.80349 136.77192,172.88349 136.74192,174.05349 z" />
		 
			<path id="diamond2" style="fill:none;stroke:#000;stroke-width:0.25px;" class="diamond"
				d="M 168.74192,174.05349 C 168.78192,175.45349 167.54192,176.75349 166.13192,176.78349 165.06192,176.85349 163.97192,176.22349 163.52192,175.23349 163.04192,174.23349 163.22192,172.95349 164.00192,172.16349 164.71192,171.39349 165.87192,171.09349 166.86192,171.43349 167.95192,171.80349 168.77192,172.88349 168.74192,174.05349 z" />	
		</defs>
		
		<path style="stroke:#fb0;stroke-width:0.25px;" class="shape" fill="none"
			d="M 129.28125,118.15625 C 128.77125,118.15625 128.3975,118.22375 128.1875,118.34375 127.8075,118.55375 127.58,118.86125 127.5,119.28125 127.47,119.38125 127.4375,119.8125 127.4375,120.5625 L 127.4375,180.125 C 127.4375,180.405 127.45875,180.57625 127.46875,180.65625 127.52875,180.98625 127.69875,181.28 127.96875,181.5 128.22875,181.73 128.525,181.84375 128.875,181.84375 L 138.5625,181.84375 C 139.1225,181.84375 139.465,181.82 139.625,181.75 140.015,181.61 140.2875,181.3275 140.4375,180.9375 140.4975,180.7675 140.5625,180.59625 140.5625,180.40625 L 140.5625,120.5625 C 140.5625,119.8425 140.54125,119.44625 140.53125,119.40625 140.49125,119.03625 140.36375,118.74 140.09375,118.5 139.83375,118.26 139.485,118.15625 139.125,118.15625 L 129.28125,118.15625 z M 134,120.09375 C 135.04817,120.09375 135.90625,120.95181 135.90625,122 135.90625,123.04818 135.04817,123.875 134,123.875 132.9518,123.875 132.09375,123.04818 132.09375,122 132.09375,120.95181 132.9518,120.09375 134,120.09375 z" />

		<path style="stroke:#fb0;stroke-width:0.25px;" class="shape"  fill="none"
			d="M 161.28125,118.15625 C 160.77125,118.15625 160.3975,118.22375 160.1875,118.34375 159.8075,118.55375 159.58,118.86125 159.5,119.28125 159.47,119.38125 159.4375,119.8125 159.4375,120.5625 L 159.4375,180.125 C 159.4375,180.405 159.45875,180.57625 159.46875,180.65625 159.52875,180.98625 159.69875,181.28 159.96875,181.5 160.22875,181.73 160.525,181.84375 160.875,181.84375 L 170.5625,181.84375 C 171.1225,181.84375 171.465,181.82 171.625,181.75 172.015,181.61 172.2875,181.3275 172.4375,180.9375 172.4975,180.7675 172.5625,180.59625 172.5625,180.40625 L 172.5625,120.5625 C 172.5625,119.8425 172.54125,119.44625 172.53125,119.40625 172.49125,119.03625 172.36375,118.74 172.09375,118.5 171.83375,118.26 171.485,118.15625 171.125,118.15625 L 161.28125,118.15625 z M 166,120.09375 C 167.04817,120.09375 167.90625,120.95181 167.90625,122 167.90625,123.04818 167.04817,123.875 166,123.875 164.9518,123.875 164.09375,123.04818 164.09375,122 164.09375,120.95181 164.9518,120.09375 166,120.09375 z" />
		<text id="txt1" style="stroke:none;fill:#f00;font-family:z_swan;font-size:20px;text-anchor:start;" transform="matrix(0 -1 1 0 136 169)" class="txt" />
		
		<text id="txt2" style="stroke:none;fill:#f00;font-family:z_swan;font-size:20px;text-anchor:start;" transform="matrix(0 -1 1 0 168 169)" class="txt" />
		
		<!-- Prism Reference -->
		<cam mingh:cam="--actions=EditSelectAll;ObjectToPath;ZoomPage;ZoomCenterPage;FileVacuum;FileSave; -g" mingh:style="source:microprism">M2</cam> 
	</g>

</svg>
