<?xml version="1.0" encoding="UTF-8" standalone="no"?>

<svg
   xmlns:xlink="http://www.w3.org/1999/xlink"
   xmlns:svg="http://www.w3.org/2000/svg"
   xmlns="http://www.w3.org/2000/svg"
   xmlns:mingh="http://www.minghworld.com"
   width="300px"
   height="300px" >
   
   <defs>
		<!-- Paths -->
		<path id="txtpath" style="fill:none;stroke:#f0f;stroke-width:0.25px;"
		 d="M 130.71,160 C 139.68,163.62 160.45,163.49 169.29,158"/>
	 
		<path id="birth" transform="matrix(1 0 0 1 -14 -8)" style="fill:#00f;stroke:none;"
         d="M 153.89,150.01 C 153.89,148.94 153.51,148.03 152.76,147.27 C 152.0,146.52 151.07,146.14 150.0,146.14 C 148.93,146.14 148.01,146.52 147.26,147.27 C 146.5,148.03 146.12,148.94 146.12,150.01 C 146.12,151.07 146.5,151.98 147.26,152.73 C 148.01,153.49 148.93,153.86 150.0,153.86 C 151.07,153.86 152.0,153.49 152.76,152.73 C 153.51,151.98 153.89,151.07 153.89,150.01 z" />
		 
		<path id="diamond" transform="matrix(1 0 0 1 -14 -8)" style="fill:none;stroke:#000;stroke-width:0.25px;"
         d="M 152.83,150.01 C 152.83,150.78 152.55,151.44 152.0,151.99 C 151.44,152.53 150.78,152.81 149.99,152.81 C 149.21,152.81 148.55,152.53 147.99,151.99 C 147.45,151.44 147.17,150.78 147.17,150.01 C 147.17,149.23 147.45,148.57 147.99,148.01 C 148.55,147.47 149.21,147.19 149.99,147.19 C 150.78,147.19 151.44,147.47 152.0,148.01 C 152.55,148.57 152.83,149.23 152.83,150.01 z" />
	 </defs>	
	
	 <g>	
		<path id="shape" style="fill:none;stroke:#fb0;stroke-width:0.25px;"
			d="M 174.94,145.06 C 175.64,145.06 176.28,145.32 176.81,145.84 C 177.34,146.37 177.59,147.0 177.59,147.72 L 177.59,152.28 C 177.59,153.0 177.34,153.63 176.81,154.16 C 176.28,154.68 175.64,154.94 174.94,154.94 C 174.23,154.94 173.62,154.68 173.09,154.16 C 172.56,153.63 172.31,153.0 172.31,152.28 L 172.31,147.72 C 172.31,147.0 172.56,146.37 173.09,145.84 C 173.62,145.32 174.23,145.06 174.94,145.06 z M 125.06,145.06 C 125.77,145.06 126.38,145.32 126.91,145.84 C 127.44,146.37 127.69,147.0 127.69,147.72 L 127.69,152.28 C 127.69,153.0 127.44,153.63 126.91,154.16 C 126.38,154.68 125.77,154.94 125.06,154.94 C 124.36,154.94 123.72,154.68 123.19,154.16 C 122.66,153.63 122.41,153.0 122.41,152.28 L 122.41,147.72 C 122.41,147.0 122.66,146.37 123.19,145.84 C 123.72,145.32 124.36,145.06 125.06,145.06 z M 149.75,142.59 C 150.47,142.57 151.19,142.65 151.91,142.84 C 152.85,143.09 153.72,143.53 154.5,144.13 C 155.28,144.72 155.92,145.46 156.41,146.31 C 156.91,147.16 157.22,148.05 157.34,149.03 C 157.47,150.0 157.42,150.96 157.16,151.91 C 156.91,152.85 156.48,153.72 155.88,154.5 C 155.29,155.28 154.56,155.92 153.72,156.41 C 152.86,156.9 151.95,157.21 150.97,157.34 C 150.0,157.47 149.04,157.42 148.09,157.16 C 147.15,156.91 146.28,156.48 145.5,155.88 C 144.72,155.29 144.08,154.54 143.59,153.69 C 143.09,152.84 142.78,151.95 142.66,150.97 C 142.53,150.0 142.58,149.04 142.84,148.09 C 143.09,147.15 143.53,146.28 144.13,145.5 C 144.72,144.72 145.44,144.08 146.28,143.59 C 147.14,143.1 148.05,142.79 149.03,142.66 C 149.27,142.62 149.51,142.6 149.75,142.59 z M 150.0,124.41 C 149.23,124.41 148.46,124.49 147.72,124.66 C 146.96,124.84 146.24,125.11 145.56,125.44 C 144.86,125.79 144.24,126.21 143.66,126.69 C 143.06,127.2 142.56,127.76 142.13,128.38 C 141.69,129.01 141.34,129.69 141.09,130.41 C 140.84,131.14 140.71,131.9 140.69,132.66 C 140.68,132.92 140.54,133.11 140.31,133.25 C 140.08,133.38 139.85,133.37 139.63,133.25 C 138.81,132.8 137.92,132.53 136.97,132.41 C 136.04,132.28 135.1,132.31 134.16,132.5 C 133.24,132.7 132.39,133.03 131.56,133.5 C 130.74,133.96 130.01,134.53 129.34,135.22 C 128.69,135.9 128.14,136.66 127.69,137.5 C 127.24,138.33 126.9,139.21 126.69,140.13 C 126.49,141.06 126.43,141.98 126.5,142.91 C 126.51,142.97 126.49,143.02 126.44,143.06 C 126.39,143.1 126.34,143.14 126.28,143.13 C 124.79,142.71 123.43,142.97 122.16,143.94 C 120.91,144.9 120.27,146.16 120.28,147.72 L 120.28,152.28 C 120.27,153.84 120.91,155.1 122.16,156.06 C 123.43,157.03 124.79,157.29 126.28,156.88 C 126.34,156.87 126.39,156.9 126.44,156.94 C 126.49,156.98 126.5,157.03 126.5,157.09 C 126.43,158.02 126.49,158.95 126.69,159.88 C 126.9,160.79 127.24,161.67 127.69,162.5 C 128.14,163.34 128.69,164.1 129.34,164.78 C 130.01,165.47 130.74,166.04 131.56,166.5 C 132.39,166.97 133.24,167.3 134.16,167.5 C 135.1,167.69 136.04,167.72 136.97,167.59 C 137.92,167.47 138.81,167.2 139.63,166.75 C 139.85,166.63 140.08,166.62 140.31,166.75 C 140.54,166.89 140.68,167.08 140.69,167.34 C 140.71,168.1 140.84,168.85 141.09,169.59 C 141.34,170.3 141.69,170.99 142.13,171.63 C 142.56,172.25 143.06,172.8 143.66,173.31 C 144.24,173.79 144.86,174.21 145.56,174.56 C 146.24,174.89 146.96,175.16 147.72,175.34 C 148.46,175.51 149.23,175.59 150.0,175.59 C 150.77,175.59 151.54,175.51 152.28,175.34 C 153.04,175.16 153.76,174.89 154.44,174.56 C 155.14,174.21 155.76,173.79 156.34,173.31 C 156.94,172.8 157.45,172.25 157.88,171.63 C 158.32,170.99 158.66,170.3 158.91,169.59 C 159.16,168.85 159.29,168.1 159.31,167.34 C 159.32,167.08 159.46,166.89 159.69,166.75 C 159.92,166.62 160.15,166.63 160.38,166.75 C 161.2,167.2 162.08,167.47 163.03,167.59 C 163.96,167.72 164.9,167.69 165.84,167.5 C 166.76,167.3 167.61,166.97 168.44,166.5 C 169.26,166.04 169.99,165.47 170.66,164.78 C 171.31,164.1 171.86,163.34 172.31,162.5 C 172.76,161.67 173.1,160.79 173.31,159.88 C 173.51,158.95 173.57,158.02 173.5,157.09 C 173.49,157.03 173.51,156.98 173.56,156.94 C 173.61,156.9 173.66,156.87 173.72,156.88 C 175.21,157.29 176.57,157.03 177.84,156.06 C 179.09,155.1 179.73,153.84 179.72,152.28 L 179.72,147.72 C 179.73,146.16 179.09,144.9 177.84,143.94 C 176.57,142.97 175.21,142.71 173.72,143.13 C 173.66,143.14 173.61,143.1 173.56,143.06 C 173.51,143.02 173.49,142.97 173.5,142.91 C 173.57,141.98 173.51,141.06 173.31,140.13 C 173.1,139.21 172.76,138.33 172.31,137.5 C 171.86,136.66 171.31,135.9 170.66,135.22 C 169.99,134.53 169.26,133.96 168.44,133.5 C 167.61,133.03 166.76,132.7 165.84,132.5 C 164.9,132.31 163.96,132.28 163.03,132.41 C 162.08,132.53 161.2,132.8 160.38,133.25 C 160.15,133.37 159.92,133.38 159.69,133.25 C 159.46,133.11 159.32,132.92 159.31,132.66 C 159.29,131.9 159.16,131.14 158.91,130.41 C 158.66,129.69 158.32,129.01 157.88,128.38 C 157.45,127.76 156.94,127.2 156.34,126.69 C 155.76,126.21 155.14,125.79 154.44,125.44 C 153.76,125.11 153.04,124.84 152.28,124.66 C 151.54,124.49 150.77,124.41 150.0,124.41 z" />
		
		<path style="fill:#fb0;stroke:none" id="filler"
			d="M 172.44,146.49 C 172.22,146.89 171.97,147.26 171.69,147.61 C 171.41,147.96 171.11,148.29 170.77,148.59 C 170.43,148.89 170.07,149.17 169.69,149.4 C 169.55,149.48 169.45,149.61 169.4,149.77 C 169.34,149.92 169.34,150.07 169.4,150.23 C 169.45,150.39 169.55,150.52 169.69,150.6 C 170.07,150.83 170.43,151.11 170.77,151.41 C 171.11,151.71 171.41,152.04 171.69,152.39 C 171.97,152.74 172.22,153.11 172.44,153.51 C 172.38,153.39 172.33,153.26 172.29,153.12 C 172.24,152.98 172.21,152.85 172.19,152.71 C 172.17,152.57 172.16,152.43 172.16,152.29 L 172.16,147.71 C 172.16,147.57 172.17,147.43 172.19,147.29 C 172.21,147.15 172.24,147.02 172.29,146.88 C 172.33,146.74 172.38,146.61 172.44,146.49 z M 174.54,156.89 C 174.5,156.54 174.45,156.19 174.39,155.84 C 174.36,155.68 174.32,155.51 174.27,155.34 C 174.25,155.25 174.23,155.17 174.2,155.08 C 174.2,155.06 174.2,155.04 174.19,155.01 C 174.18,154.98 174.17,154.97 174.16,154.97 C 174.12,154.95 174.07,154.94 174.03,154.93 C 173.69,154.81 173.39,154.63 173.12,154.4 C 172.98,154.28 172.86,154.15 172.75,154.01 C 172.7,153.94 172.64,153.86 172.59,153.78 C 172.59,153.77 172.58,153.75 172.56,153.74 C 172.56,153.72 172.55,153.71 172.54,153.71 C 172.54,153.71 172.54,153.7 172.54,153.7 C 172.54,153.7 172.54,153.7 172.54,153.7 L 172.54,153.71 C 172.54,153.71 172.55,153.72 172.55,153.72 C 172.57,153.76 172.59,153.79 172.6,153.82 C 172.91,154.45 173.15,155.11 173.3,155.82 C 173.33,155.98 173.37,156.15 173.39,156.32 C 173.41,156.41 173.42,156.49 173.43,156.58 C 173.44,156.62 173.45,156.67 173.45,156.7 C 173.45,156.73 173.46,156.75 173.46,156.77 C 173.46,156.78 173.46,156.79 173.46,156.8 C 173.46,156.81 173.48,156.81 173.5,156.79 C 173.57,156.75 173.69,156.74 173.86,156.78 C 173.94,156.8 174.02,156.82 174.09,156.83 C 174.24,156.86 174.39,156.88 174.54,156.89 z M 174.54,143.11 C 174.39,143.12 174.24,143.14 174.09,143.17 C 174.01,143.18 173.93,143.2 173.86,143.22 C 173.69,143.26 173.57,143.25 173.5,143.21 C 173.47,143.19 173.46,143.19 173.46,143.2 C 173.46,143.21 173.46,143.22 173.46,143.23 C 173.45,143.25 173.45,143.27 173.45,143.3 C 173.44,143.33 173.44,143.38 173.43,143.42 C 173.42,143.51 173.41,143.59 173.39,143.68 C 173.37,143.85 173.33,144.01 173.3,144.18 C 173.15,144.89 172.91,145.55 172.6,146.18 C 172.58,146.22 172.57,146.25 172.55,146.28 L 172.54,146.29 C 172.54,146.3 172.54,146.3 172.54,146.3 C 172.54,146.3 172.54,146.3 172.54,146.29 C 172.55,146.29 172.56,146.28 172.56,146.26 C 172.58,146.24 172.59,146.23 172.59,146.22 C 172.64,146.14 172.7,146.06 172.75,145.99 C 172.86,145.85 172.98,145.72 173.12,145.6 C 173.39,145.37 173.69,145.19 174.03,145.07 C 174.07,145.06 174.12,145.05 174.16,145.03 C 174.17,145.03 174.18,145.02 174.19,144.99 C 174.19,144.97 174.2,144.94 174.2,144.92 C 174.23,144.83 174.25,144.75 174.27,144.66 C 174.32,144.49 174.36,144.32 174.39,144.16 C 174.45,143.81 174.5,143.46 174.54,143.11 z M 125.46,143.11 C 125.5,143.46 125.55,143.81 125.61,144.16 C 125.64,144.32 125.68,144.49 125.73,144.66 C 125.75,144.75 125.77,144.83 125.8,144.92 C 125.8,144.94 125.81,144.97 125.81,144.99 C 125.82,145.02 125.83,145.03 125.84,145.03 C 125.88,145.05 125.93,145.06 125.97,145.07 C 126.31,145.19 126.61,145.37 126.88,145.6 C 127.02,145.72 127.14,145.85 127.25,145.99 C 127.3,146.06 127.36,146.14 127.41,146.22 C 127.41,146.23 127.42,146.25 127.44,146.26 C 127.44,146.28 127.45,146.29 127.46,146.29 C 127.45,146.29 127.45,146.29 127.46,146.29 L 127.46,146.3 L 127.46,146.3 L 127.46,146.3 C 127.46,146.3 127.46,146.3 127.46,146.29 C 127.45,146.29 127.45,146.28 127.45,146.28 C 127.43,146.24 127.41,146.21 127.4,146.18 C 127.08,145.55 126.85,144.89 126.7,144.18 C 126.67,144.02 126.63,143.85 126.61,143.68 C 126.59,143.59 126.58,143.51 126.57,143.42 C 126.56,143.38 126.55,143.33 126.55,143.3 C 126.55,143.27 126.54,143.25 126.54,143.23 C 126.54,143.22 126.54,143.21 126.54,143.2 C 126.54,143.19 126.52,143.2 126.5,143.21 C 126.43,143.25 126.31,143.26 126.14,143.22 C 126.06,143.2 125.98,143.18 125.91,143.17 C 125.76,143.14 125.61,143.12 125.46,143.11 z M 125.46,156.89 C 125.61,156.88 125.76,156.86 125.91,156.83 C 125.99,156.82 126.07,156.8 126.14,156.78 C 126.31,156.74 126.43,156.75 126.5,156.79 C 126.53,156.81 126.54,156.81 126.54,156.8 C 126.54,156.79 126.54,156.78 126.54,156.77 C 126.55,156.75 126.55,156.72 126.55,156.7 C 126.55,156.67 126.56,156.62 126.57,156.58 C 126.58,156.49 126.59,156.41 126.61,156.32 C 126.63,156.15 126.67,155.99 126.7,155.82 C 126.85,155.11 127.09,154.45 127.4,153.82 C 127.42,153.78 127.43,153.75 127.45,153.72 L 127.46,153.71 C 127.46,153.7 127.46,153.7 127.46,153.7 C 127.46,153.7 127.46,153.7 127.46,153.7 L 127.46,153.71 C 127.45,153.71 127.44,153.72 127.44,153.74 C 127.42,153.76 127.41,153.77 127.41,153.78 C 127.36,153.86 127.3,153.94 127.25,154.01 C 127.14,154.15 127.02,154.28 126.88,154.4 C 126.61,154.63 126.31,154.81 125.97,154.93 C 125.93,154.94 125.88,154.95 125.84,154.97 C 125.83,154.97 125.82,154.98 125.81,155.01 C 125.8,155.04 125.8,155.06 125.8,155.08 C 125.77,155.17 125.75,155.25 125.73,155.34 C 125.68,155.51 125.64,155.68 125.61,155.84 C 125.55,156.19 125.5,156.54 125.46,156.89 z M 127.56,146.49 C 127.62,146.62 127.67,146.75 127.71,146.88 C 127.76,147.02 127.79,147.15 127.81,147.29 C 127.83,147.43 127.84,147.57 127.84,147.71 L 127.84,152.29 C 127.84,152.43 127.83,152.57 127.81,152.71 C 127.79,152.85 127.76,152.98 127.71,153.12 C 127.67,153.26 127.62,153.39 127.56,153.51 C 127.78,153.11 128.03,152.74 128.31,152.39 C 128.59,152.04 128.89,151.71 129.23,151.41 C 129.57,151.11 129.93,150.83 130.31,150.6 C 130.45,150.52 130.55,150.39 130.6,150.23 C 130.66,150.07 130.66,149.92 130.6,149.77 C 130.55,149.61 130.45,149.48 130.31,149.4 C 129.93,149.17 129.57,148.89 129.23,148.59 C 128.89,148.3 128.59,147.97 128.31,147.61 C 128.03,147.26 127.78,146.89 127.56,146.49 z" />
		
		<!-- Name One -->
		<text dy="3" style="stroke:none;fill:#f00;font-family:z_magnolia;font-size:18px;text-anchor:middle;">
			<textPath id="txt1" startOffset="50%" xlink:href="#txtpath" class="txt" ></textPath>
		</text>
		
		<!-- Prism Reference -->
		<cam mingh:cam="--actions=EditSelectAll;ObjectToPath;ZoomPage;ZoomCenterPage;FileVacuum;FileSave; -g" mingh:style="source:microprism">M2</cam> 
	 </g>

</svg>
