<?xml version="1.0" encoding="UTF-8" standalone="no"?>

<svg
   xmlns:xlink="http://www.w3.org/1999/xlink"
   xmlns:svg="http://www.w3.org/2000/svg"
   xmlns="http://www.w3.org/2000/svg"
   xmlns:mingh="http://www.minghworld.com"
   width="300px"
   height="300px" >
   
	<defs>
		<!-- Text Path -->
		<path id="txtpath1" style="fill:none;stroke:#f0f;stroke-width:0.25px;"
			d="M 121.59,171.13 C 130.54,167.96 138.18,161.2 142.5,152.75 144.55,148.71 145.51,143.99 144.31,139.56 143.27,135.03 139.84,131.1 135.41,129.66 L 135.38,129.66 C 131.16,128.21 126.3,128.67 122.5,131.03" />
		<path id="txtpath2" style="fill:none;stroke:#f0f;stroke-width:0.25px;"
			d="M 177.5,131.03 C 172.09,127.66 164.45,128.17 159.75,132.56 L 159.72,132.56 C 155.04,136.8 154.09,143.99 156.22,149.75 158.95,157.08 164.38,163.25 170.91,167.5 173.21,169.04 175.76,170.1 178.34,171.09" />
	</defs>
	
	<g>			
		<!-- Shape -->
		<path class="shape" style="stroke:#fb0;stroke-width:0.25px;" fill="none"
			d="M 112.28,127.19 C 111.81,127.21 111.34,127.25 110.88,127.31 107.39,127.67 104.07,129.25 101.59,131.72 98.64,134.47 97.15,138.5 96.91,142.47 L 96.38,142.47 96.38,141.56 95.5,141.56 95.44,145.47 96.31,145.47 96.34,144.59 96.88,144.59 C 96.93,146.28 97.24,147.96 97.75,149.56 100.02,156.34 104.65,162.16 110.19,166.59 113.57,169.4 117.56,171.3 121.66,172.81 125.23,171.53 128.66,169.92 131.72,167.66 137.89,163.12 143.11,156.93 145.56,149.59 147.59,143.39 146.31,135.82 141.31,131.34 136.1,126.44 127.65,125.89 121.66,129.66 118.83,127.97 115.57,127.05 112.28,127.19 z M 112.88,133.59 C 116.21,133.49 119.08,135.49 121.66,137.38 123.15,136.31 124.65,135.21 126.34,134.47 129.61,133.0 133.72,133.38 136.5,135.69 138.69,137.32 139.83,139.99 140.0,142.66 140.4,146.5 138.65,150.18 136.66,153.34 133.0,158.85 127.85,163.5 121.66,165.94 116.65,163.99 112.37,160.53 108.94,156.44 106.41,153.34 104.22,149.78 103.44,145.81 102.97,142.58 103.48,138.9 105.88,136.5 107.67,134.58 110.27,133.57 112.88,133.59 z M 99.06,142.5 101.0,142.53 100.97,144.66 99.03,144.63 99.06,142.5 z" />
			
		<path class="shape" style="stroke:#fb0;stroke-width:0.25px;" fill="none"
			d="M 200.95,143.56 204.54,143.51 M 199.01,143.58 196.73,143.61 M 168.84,127.19 C 165.53,127.31 162.3,128.4 159.69,130.5 155.88,133.31 153.76,137.96 153.56,142.63 153.13,148.64 156.03,154.31 159.5,159.03 164.04,165.02 170.16,169.9 177.28,172.41 L 178.34,172.81 C 181.65,171.56 184.92,170.16 187.81,168.09 192.94,164.49 197.32,159.72 200.28,154.19 201.84,151.22 203.02,147.98 203.13,144.59 L 203.66,144.59 203.69,145.47 204.56,145.47 204.5,141.56 203.63,141.56 203.63,142.47 203.09,142.47 C 202.85,138.5 201.37,134.46 198.41,131.72 195.96,129.29 192.71,127.69 189.28,127.31 185.48,126.77 181.62,127.7 178.34,129.66 175.53,127.91 172.15,127.06 168.84,127.19 z M 169.75,133.59 C 171.1,133.62 172.43,133.92 173.66,134.47 175.35,135.21 176.85,136.31 178.34,137.38 180.92,135.49 183.79,133.49 187.13,133.59 189.73,133.57 192.33,134.59 194.13,136.5 196.52,138.9 197.03,142.58 196.56,145.81 195.78,149.78 193.59,153.34 191.06,156.44 187.63,160.53 183.35,163.99 178.34,165.94 172.15,163.5 167.0,158.85 163.34,153.34 161.35,150.18 159.6,146.5 160.0,142.66 160.16,139.99 161.32,137.32 163.5,135.69 165.24,134.25 167.5,133.55 169.75,133.59 z M 200.94,142.5 200.97,144.63 199.03,144.66 199.0,142.53 200.94,142.5 z" />

		<text dy="0" style="stroke:none;fill:#0ff;font-family:z_ariola;font-size:5px;text-anchor:middle;">
			<textPath startOffset="35%" xlink:href="#txtpath1" class="txt" ></textPath>
		</text>
		
		<text dy="0" style="stroke:none;fill:#0ff;font-family:z_ariola;font-size:5px;text-anchor:middle;">
			<textPath startOffset="65%" xlink:href="#txtpath2" class="txt" ></textPath>
		</text>
		
		<!-- Prism Reference -->
		<cam mingh:cam="--actions=EditSelectAll;ObjectToPath;ZoomPage;ZoomCenterPage;FileVacuum;FileSave; -g" mingh:style="source:microprism">M2</cam> 
	</g>

</svg>
