<svg
   xmlns:xlink="http://www.w3.org/1999/xlink"
   xmlns:svg="http://www.w3.org/2000/svg"
   xmlns="http://www.w3.org/2000/svg"
   xmlns:mingh="http://www.minghworld.com"
   width="300px"
   height="300px" >

	<defs>
		<!-- Text Path -->
		<path id="txtpath1" style="fill:none;stroke:#fff;stroke-width:0.25px;"
			d="M 112.41,125.66 C 107.15,123.98 101.16,124.97 96.81,128.41 90.38,133.21 89.08,142.42 91.78,149.63 96.48,161.26 106.31,170.81 118.16,175.0" />
		<path id="txtpath2" style="fill:none;stroke:#fff;stroke-width:0.25px;"
			d="M 175.84,125.59 C 172.7,124.7 169.32,124.58 166.19,125.53 160.33,127.17 155.63,132.29 154.59,138.31 153.49,143.87 154.97,149.65 157.81,154.47 L 157.84,154.47 C 163.16,163.81 171.71,171.44 181.91,175.0" />
	</defs>
	
	<g>	
		<!-- Shape -->
		<path class="shape" style="stroke:#fb0;stroke-width:0.25px;" fill="none"
			d="M 106.88,123.25 C 106.31,123.26 105.75,123.31 105.19,123.38 100.25,123.79 95.63,126.43 92.59,130.31 L 92,129.94 92.59,129.06 92.03,128.66 89.63,132.16 90.22,132.56 90.81,131.69 91.41,132.09 C 88.82,136.67 88.24,142.28 89.41,147.38 91.69,156 97.48,163.33 104.22,169 108.31,172.44 113.09,174.93 118.09,176.75 121.27,175.55 124.41,174.21 127.28,172.38 134.48,167.77 140.53,161.28 144.44,153.66 146.9,148.85 148.08,143.27 146.97,137.94 145.89,131.32 140.65,125.72 134.22,123.97 128.78,122.41 122.78,123.47 118.09,126.59 114.78,124.43 110.84,123.17 106.88,123.25 z M 107.78,129.63 C 111.66,129.73 115.09,132.08 118.13,134.31 119.86,133.06 121.62,131.79 123.56,130.88 127.68,128.87 132.99,129.28 136.56,132.22 139.31,134.24 140.73,137.6 140.94,140.94 141.44,145.62 139.37,150.09 136.97,153.97 132.42,160.94 125.9,166.83 118.09,169.91 111.97,167.53 106.73,163.32 102.5,158.34 99.27,154.46 96.46,150.01 95.44,145 94.84,141 95.46,136.44 98.34,133.41 100.55,131 103.74,129.65 107,129.66 107.26,129.64 107.52,129.62 107.78,129.63 z M 94.38,131.53 96,132.63 94.81,134.38 93.19,133.28 94.38,131.53 z" />
			
		<path class="shape" style="stroke:#fb0;stroke-width:0.25px;" fill="none"
			d="M 204.61,133.5 202.75,134.75 M 209.18,130.41 209.18,130.41 M 209.18,130.41 206.22,132.41 M 170.97,123.25 C 169.22,123.24 167.48,123.48 165.78,123.97 159.35,125.72 154.11,131.32 153.03,137.94 151.92,143.27 153.05,148.87 155.56,153.66 159.41,161.31 165.52,167.77 172.72,172.38 175.59,174.21 178.73,175.55 181.91,176.75 186.91,174.93 191.69,172.44 195.78,169 202.52,163.33 208.31,156 210.59,147.38 211.76,142.28 211.18,136.67 208.59,132.09 L 209.19,131.69 209.78,132.56 210.38,132.16 207.97,128.66 207.41,129.06 208,129.94 207.41,130.31 C 204.66,126.85 200.71,124.3 196.31,123.59 192.82,122.95 189.14,123.21 185.84,124.56 184.46,125.09 183.16,125.79 181.91,126.59 178.68,124.45 174.82,123.27 170.97,123.25 z M 170.59,129.63 C 172.61,129.57 174.64,130 176.44,130.88 178.38,131.79 180.14,133.06 181.88,134.31 185.12,131.93 188.79,129.45 193,129.66 196.26,129.65 199.45,131 201.66,133.41 204.54,136.44 205.16,141 204.56,145 203.54,150.01 200.73,154.46 197.5,158.34 193.27,163.32 188.03,167.53 181.91,169.91 174.1,166.83 167.58,160.94 163.03,153.97 160.63,150.09 158.56,145.62 159.06,140.94 159.27,137.6 160.69,134.24 163.44,132.22 165.45,130.56 168.01,129.7 170.59,129.63 z M 205.63,131.53 206.81,133.28 205.19,134.38 204,132.63 205.63,131.53 z" />

		<text dy="0" style="stroke:none;fill:#0ff;font-family:z_ariola;font-size:5px;text-anchor:middle;">
			<textPath startOffset="60%" xlink:href="#txtpath1" class="txt" ></textPath>
		</text>
		
		<text dy="0" style="stroke:none;fill:#0ff;font-family:z_ariola;font-size:5px;text-anchor:middle;">
			<textPath startOffset="60%" xlink:href="#txtpath2" class="txt" ></textPath>
		</text>

		<!-- Prism Reference -->
		<cam mingh:cam="--actions=EditSelectAll;ObjectToPath;ZoomPage;ZoomCenterPage;FileVacuum;FileSave; -g" mingh:style="source:microprism">M2</cam> 
	</g>
</svg>
