<?xml version="1.0" encoding="UTF-8" standalone="no"?>

<svg
   xmlns:xlink="http://www.w3.org/1999/xlink"
   xmlns:svg="http://www.w3.org/2000/svg"
   xmlns="http://www.w3.org/2000/svg"
   xmlns:mingh="http://www.minghworld.com"
   width="300px"
   height="300px" >
	
	 <g>
		<!-- Paths -->
		<path style="fill:none;stroke:#fb0;stroke-width:0.25px;" 
		 d="M 150.0,105.75 C 146.99,105.75 143.97,106.03 140.94,106.59 138.32,107.13 135.77,107.93 133.25,108.88 131.44,109.62 129.96,110.32 127.97,111.41 126.09,112.49 124.52,113.7 123.28,115.03 122.82,115.56 122.41,116.09 122.09,116.69 121.73,117.33 121.56,117.95 121.53,118.66 L 121.53,119.16 121.53,180.72 C 121.53,181.43 121.56,181.94 121.81,182.69 122.05,183.33 122.38,183.9 122.81,184.47 L 124.19,185.97 C 125.08,186.76 126.21,187.67 127.41,188.31 132.09,191.01 137.2,192.81 142.5,193.66 147.22,194.42 152.29,194.5 157.38,193.66 162.68,192.81 167.79,191.01 172.47,188.31 173.67,187.67 174.8,186.76 175.69,185.97 L 177.06,184.47 C 177.49,183.9 177.82,183.33 178.06,182.69 178.31,181.94 178.34,181.43 178.34,180.72 L 178.34,119.16 178.34,118.66 C 178.31,117.95 178.14,117.33 177.78,116.69 177.46,116.09 177.05,115.56 176.59,115.03 175.66,114.0 174.43,112.97 173.22,112.22 171.08,110.9 169.09,109.82 166.63,108.88 164.11,107.93 161.56,107.13 158.94,106.59 155.99,106.03 153.01,105.75 150.0,105.75 z M 150.0,109.25 C 151.74,109.25 153.19,110.7 153.19,112.44 153.19,114.21 151.74,115.66 150.0,115.66 148.23,115.66 146.81,114.21 146.81,112.44 146.81,110.7 148.23,109.25 150.0,109.25 z M 158.78,117.06 C 159.01,117.04 159.24,117.17 159.47,117.56 163.22,117.28 163.35,122.99 160.41,124.28 L 160.06,123.91 159.69,123.5 C 160.97,122.56 161.38,120.17 158.88,120.63 157.1,120.46 157.81,117.17 158.78,117.06 z M 164.97,117.19 C 165.14,117.15 165.33,117.16 165.53,117.25 166.26,118.35 167.98,117.62 169.16,117.84 172.47,117.03 172.95,120.04 171.66,122.47 171.64,124.6 173.35,128.49 170.16,129.03 169.24,128.08 170.48,126.41 169.91,125.09 169.27,123.35 171.6,120.03 168.56,120.78 165.85,119.98 165.68,123.1 166.28,125.03 167.33,126.32 165.31,130.46 164.0,128.47 164.84,126.02 163.46,123.09 164.84,120.72 163.38,120.27 163.77,117.43 164.97,117.19 z" />

		<text id="txt1" style="fill:#f00;stroke:none;font-size:8px;text-anchor:middle;font-family:'z_htag'" transform="matrix(1 0 0 1 150 173)" class="txt" />
		<!-- Prism Reference -->
		<cam mingh:cam="--actions=EditSelectAll;ObjectToPath;ZoomPage;ZoomCenterPage;FileVacuum;FileSave; -g" mingh:style="source:microprism">M2</cam> 
	 </g>

</svg>
