<?xml version="1.0" encoding="UTF-8" standalone="no"?>

<svg
   xmlns:xlink="http://www.w3.org/1999/xlink"
   xmlns:svg="http://www.w3.org/2000/svg"
   xmlns="http://www.w3.org/2000/svg"
   xmlns:mingh="http://www.minghworld.com"
   width="300px"
   height="300px" >
   
   <defs>
		<path id="birth" transform="matrix(1 0 0 1 22 0)" style="fill:#00f;stroke:none;"
         d="M 153.89,150.01 C 153.89,148.94 153.51,148.03 152.76,147.27 C 152.0,146.52 151.07,146.14 150.0,146.14 C 148.93,146.14 148.01,146.52 147.26,147.27 C 146.5,148.03 146.12,148.94 146.12,150.01 C 146.12,151.07 146.5,151.98 147.26,152.73 C 148.01,153.49 148.93,153.86 150.0,153.86 C 151.07,153.86 152.0,153.49 152.76,152.73 C 153.51,151.98 153.89,151.07 153.89,150.01 z" />
		 
		<path id="diamond" transform="matrix(1 0 0 1 22 0)" style="fill:none;stroke:#000;stroke-width:0.25px;"
         d="M 152.83,150.01 C 152.83,150.78 152.55,151.44 152.0,151.99 C 151.44,152.53 150.78,152.81 149.99,152.81 C 149.21,152.81 148.55,152.53 147.99,151.99 C 147.45,151.44 147.17,150.78 147.17,150.01 C 147.17,149.23 147.45,148.57 147.99,148.01 C 148.55,147.47 149.21,147.19 149.99,147.19 C 150.78,147.19 151.44,147.47 152.0,148.01 C 152.55,148.57 152.83,149.23 152.83,150.01 z" />
	 </defs>	
	
	<g>	
		<path id="shape" style="fill:none;stroke:#fb0;stroke-width:0.25px;"
			d="M 150.0,137.53 C 148.42,137.53 147.17,137.53 146.25,137.56 C 144.42,137.62 142.39,137.77 140.19,137.97 C 137.24,138.24 134.31,138.6 131.38,139.13 C 123.88,140.46 118.88,142.28 116.41,144.59 C 115.83,145.14 115.37,145.74 115.03,146.38 C 114.44,147.5 114.13,148.7 114.13,150.0 C 114.13,151.3 114.44,152.51 115.03,153.63 C 115.37,154.26 115.83,154.86 116.41,155.41 C 118.88,157.72 123.88,159.54 131.38,160.88 C 134.31,161.4 137.24,161.76 140.19,162.03 C 142.39,162.23 144.42,162.38 146.25,162.44 C 147.17,162.47 148.42,162.47 150.0,162.47 C 151.58,162.47 152.83,162.47 153.75,162.44 C 155.58,162.38 157.61,162.23 159.81,162.03 C 162.76,161.76 165.7,161.4 168.63,160.88 C 176.13,159.54 181.12,157.72 183.59,155.41 C 184.17,154.86 184.63,154.26 184.97,153.63 C 185.56,152.51 185.88,151.3 185.88,150.0 C 185.88,148.7 185.56,147.5 184.97,146.38 C 184.63,145.74 184.17,145.14 183.59,144.59 C 181.12,142.28 176.13,140.46 168.63,139.13 C 165.7,138.6 162.76,138.24 159.81,137.97 C 157.61,137.77 155.58,137.62 153.75,137.56 C 152.83,137.53 151.58,137.53 150.0,137.53 z M 120.06,145.09 C 120.76,145.09 121.38,145.35 121.91,145.88 C 122.44,146.39 122.72,147.02 122.72,147.72 L 122.72,152.28 C 122.72,152.99 122.44,153.62 121.91,154.13 C 121.38,154.66 120.76,154.91 120.06,154.91 C 119.36,154.91 118.76,154.66 118.22,154.13 C 117.7,153.62 117.41,152.99 117.41,152.28 L 117.41,147.72 C 117.41,147.02 117.7,146.39 118.22,145.88 C 118.76,145.35 119.36,145.09 120.06,145.09 z M 179.94,145.09 C 180.64,145.09 181.24,145.35 181.78,145.88 C 182.3,146.39 182.59,147.02 182.59,147.72 L 182.59,152.28 C 182.59,152.99 182.3,153.62 181.78,154.13 C 181.24,154.66 180.64,154.91 179.94,154.91 C 179.24,154.91 178.62,154.66 178.09,154.13 C 177.56,153.62 177.28,152.99 177.28,152.28 L 177.28,147.72 C 177.28,147.02 177.56,146.39 178.09,145.88 C 178.62,145.35 179.24,145.09 179.94,145.09 z" />
	
		<!-- Name One -->
		<text style="stroke:none;fill:#f00;font-family:z_stencilmag;font-size:18px;text-anchor:middle;" transform="matrix(1 0 0 1 150 153)" class="txt" ></text>
		
		<!-- Prism Reference -->
		<cam mingh:cam="--actions=EditSelectAll;ObjectToPath;ZoomPage;ZoomCenterPage;FileVacuum;FileSave; -g" mingh:style="source:microprism">M2</cam> 
	</g>

</svg>
