<?xml version="1.0" encoding="UTF-8" standalone="no"?>

<svg
   xmlns:xlink="http://www.w3.org/1999/xlink"
   xmlns:svg="http://www.w3.org/2000/svg"
   xmlns="http://www.w3.org/2000/svg"
   xmlns:mingh="http://www.minghworld.com"
   width="300px"
   height="300px" >
   
   <defs>
		<path id="shapeBTF" style="fill:none;stroke:#000;stroke-width:0.25px;"
			d="M 167.47,144.83 C 167.38,144.9 167.32,144.97 167.3,145.05 C 167.28,145.13 167.29,145.22 167.34,145.3 C 167.39,145.38 167.45,145.44 167.53,145.47 C 167.59,145.49 167.67,145.49 167.75,145.47 C 167.8,145.46 167.87,145.44 167.97,145.39 C 168.06,145.35 168.14,145.32 168.21,145.29 C 168.32,145.25 168.39,145.22 168.42,145.21 C 168.5,145.17 168.56,145.12 168.59,145.07 C 168.64,145 168.66,144.92 168.65,144.82 C 168.65,144.73 168.61,144.65 168.55,144.59 C 168.49,144.54 168.4,144.51 168.3,144.52 C 168.24,144.52 168.15,144.54 168.04,144.58 C 167.95,144.61 167.85,144.64 167.76,144.68 C 167.64,144.73 167.54,144.78 167.47,144.83 z M 170.71,145.73 C 170.71,145.63 170.68,145.51 170.62,145.38 C 170.55,145.26 170.47,145.14 170.37,145.02 C 170.27,144.91 170.17,144.84 170.08,144.8 C 169.95,144.76 169.85,144.77 169.78,144.82 C 169.71,144.88 169.67,144.96 169.67,145.09 C 169.66,145.18 169.68,145.26 169.73,145.33 C 169.72,145.32 169.77,145.37 169.87,145.49 C 169.93,145.55 169.97,145.62 170.01,145.7 C 170.07,145.83 170.11,145.9 170.13,145.92 C 170.19,145.98 170.26,146.03 170.34,146.04 C 170.45,146.07 170.53,146.05 170.61,146 C 170.68,145.94 170.71,145.85 170.71,145.73 z M 165.56,149.56 C 165.58,149.69 165.62,149.79 165.68,149.85 C 165.76,149.93 165.84,149.95 165.94,149.94 C 166.03,149.93 166.1,149.88 166.15,149.79 C 166.2,149.72 166.23,149.63 166.23,149.52 C 166.24,149.5 166.23,149.4 166.21,149.23 C 166.21,149.17 166.21,149.07 166.21,148.93 C 166.21,148.78 166.21,148.68 166.21,148.62 C 166.22,148.44 166.23,148.34 166.23,148.32 C 166.22,148.2 166.2,148.11 166.15,148.05 C 166.1,147.96 166.03,147.91 165.94,147.9 C 165.84,147.88 165.76,147.91 165.68,147.98 C 165.62,148.04 165.57,148.13 165.55,148.25 C 165.53,148.31 165.53,148.42 165.53,148.57 C 165.53,148.61 165.53,148.67 165.53,148.74 C 165.53,148.81 165.53,148.87 165.53,148.91 C 165.53,148.87 165.53,148.97 165.53,149.23 C 165.53,149.39 165.54,149.5 165.56,149.56 z M 166.91,152.45 C 167.01,152.53 167.11,152.57 167.2,152.58 C 167.29,152.59 167.38,152.56 167.44,152.49 C 167.5,152.43 167.53,152.34 167.52,152.25 C 167.51,152.16 167.48,152.08 167.42,152 C 167.4,151.98 167.34,151.91 167.24,151.8 C 167.18,151.74 167.12,151.67 167.05,151.58 C 167.01,151.52 166.95,151.44 166.88,151.36 C 166.81,151.25 166.75,151.17 166.73,151.13 C 166.66,151.04 166.59,150.98 166.52,150.95 C 166.44,150.91 166.35,150.9 166.27,150.94 C 166.18,150.97 166.13,151.03 166.09,151.11 C 166.07,151.2 166.07,151.31 166.11,151.42 C 166.14,151.49 166.19,151.58 166.28,151.7 C 166.36,151.81 166.42,151.9 166.47,151.96 C 166.53,152.03 166.59,152.12 166.68,152.22 C 166.77,152.33 166.85,152.41 166.91,152.45 z M 170.28,153.4 C 170.41,153.36 170.51,153.3 170.57,153.22 C 170.62,153.14 170.63,153.04 170.6,152.93 C 170.56,152.83 170.49,152.76 170.39,152.72 C 170.33,152.71 170.22,152.7 170.09,152.71 C 169.96,152.73 169.86,152.73 169.79,152.73 C 169.69,152.74 169.59,152.74 169.47,152.74 C 169.35,152.74 169.25,152.73 169.18,152.72 C 168.97,152.69 168.87,152.68 168.88,152.68 C 168.76,152.68 168.67,152.7 168.59,152.74 C 168.5,152.8 168.45,152.88 168.44,152.99 C 168.43,153.11 168.47,153.2 168.55,153.27 C 168.62,153.32 168.73,153.36 168.89,153.39 C 168.98,153.41 169.1,153.42 169.24,153.43 C 169.37,153.43 169.49,153.44 169.59,153.44 C 169.6,153.44 169.72,153.43 169.93,153.43 C 170.09,153.42 170.21,153.41 170.28,153.4 z M 167.09,147.57 C 167.21,147.63 167.31,147.65 167.41,147.63 C 167.51,147.6 167.58,147.54 167.62,147.43 C 167.63,147.38 167.64,147.33 167.64,147.28 C 167.63,147.22 167.62,147.18 167.6,147.14 C 167.58,147.1 167.54,147.06 167.49,147.01 C 167.31,146.86 167.23,146.8 167.27,146.83 C 167.14,146.71 167.03,146.59 166.93,146.46 C 166.85,146.35 166.75,146.21 166.65,146.03 C 166.62,145.98 166.59,145.92 166.55,145.86 C 166.52,145.79 166.5,145.75 166.48,145.73 C 166.45,145.66 166.41,145.61 166.38,145.57 C 166.29,145.46 166.19,145.4 166.1,145.39 C 166,145.38 165.91,145.41 165.84,145.5 C 165.77,145.58 165.74,145.67 165.75,145.77 C 165.75,145.82 165.77,145.87 165.8,145.93 C 165.79,145.92 165.85,146.02 165.97,146.21 C 166.1,146.45 166.2,146.61 166.27,146.7 C 166.39,146.88 166.51,147.04 166.65,147.19 C 166.73,147.29 166.83,147.37 166.92,147.45 C 166.99,147.5 167.04,147.54 167.09,147.57 z M 170.22,147.67 C 170.32,147.53 170.34,147.41 170.28,147.29 C 170.22,147.18 170.12,147.11 169.97,147.09 C 169.9,147.08 169.81,147.12 169.72,147.19 C 169.62,147.26 169.54,147.31 169.48,147.33 C 169.38,147.39 169.29,147.43 169.2,147.44 C 168.96,147.49 168.87,147.5 168.93,147.48 C 168.82,147.51 168.74,147.58 168.69,147.69 C 168.63,147.84 168.64,147.96 168.72,148.07 C 168.78,148.14 168.9,148.18 169.07,148.17 C 169.2,148.17 169.33,148.14 169.47,148.09 C 169.6,148.05 169.74,147.99 169.89,147.9 C 170.06,147.82 170.17,147.74 170.22,147.67 z M 164.48,144.86 C 164.57,144.88 164.65,144.87 164.72,144.83 C 164.81,144.79 164.87,144.72 164.9,144.62 C 164.94,144.51 164.93,144.42 164.88,144.34 C 164.86,144.3 164.83,144.27 164.78,144.24 C 164.73,144.21 164.66,144.17 164.57,144.14 C 164.45,144.09 164.33,144.05 164.23,144.01 C 164.1,143.98 163.99,143.96 163.88,143.95 C 163.78,143.94 163.7,143.95 163.64,143.96 C 163.58,143.98 163.54,144 163.52,144.04 C 163.45,144.11 163.43,144.2 163.45,144.32 C 163.46,144.43 163.5,144.51 163.55,144.56 C 163.59,144.59 163.67,144.62 163.81,144.65 C 163.97,144.68 164.11,144.72 164.23,144.76 C 164.27,144.77 164.32,144.79 164.38,144.81 C 164.42,144.84 164.46,144.86 164.48,144.86 z M 157.42,145.01 C 157.46,145.01 157.5,145 157.53,144.98 C 157.56,144.96 157.59,144.93 157.63,144.88 C 157.66,144.84 157.69,144.79 157.71,144.75 C 157.72,144.69 157.74,144.64 157.74,144.59 C 157.76,144.54 157.76,144.49 157.75,144.45 C 157.75,144.42 157.73,144.39 157.71,144.37 C 157.68,144.35 157.65,144.33 157.63,144.32 C 157.6,144.3 157.57,144.3 157.54,144.3 C 157.51,144.3 157.47,144.31 157.44,144.33 C 157.4,144.35 157.37,144.38 157.33,144.41 C 157.3,144.45 157.27,144.5 157.25,144.55 C 157.23,144.6 157.21,144.65 157.2,144.7 C 157.19,144.75 157.19,144.79 157.2,144.83 C 157.2,144.87 157.22,144.9 157.25,144.92 C 157.27,144.94 157.29,144.96 157.33,144.98 C 157.37,145 157.4,145.01 157.42,145.01 z M 159.44,145.61 C 159.5,145.6 159.55,145.58 159.6,145.55 C 159.65,145.51 159.68,145.47 159.7,145.41 C 159.72,145.36 159.73,145.3 159.73,145.23 C 159.72,145.17 159.7,145.11 159.68,145.06 C 159.65,145.01 159.62,144.97 159.58,144.94 C 159.55,144.93 159.51,144.92 159.45,144.9 C 159.37,144.89 159.32,144.88 159.29,144.88 C 159.24,144.89 159.2,144.91 159.15,144.93 C 159.1,144.96 159.07,145 159.04,145.05 C 159.02,145.11 159,145.17 158.99,145.22 C 158.99,145.29 158.99,145.35 159.01,145.41 C 159.03,145.46 159.07,145.5 159.11,145.54 C 159.14,145.56 159.19,145.57 159.26,145.59 C 159.34,145.61 159.4,145.61 159.44,145.61 z M 161.88,145.11 C 161.95,145.06 162,145.01 162.02,144.94 C 162.04,144.86 162.04,144.78 162.01,144.7 C 161.98,144.61 161.93,144.54 161.86,144.49 C 161.8,144.45 161.73,144.44 161.65,144.46 C 161.62,144.46 161.55,144.49 161.46,144.53 C 161.34,144.58 161.29,144.61 161.28,144.62 C 161.21,144.66 161.17,144.71 161.14,144.78 C 161.12,144.85 161.12,144.93 161.14,145.02 C 161.17,145.11 161.21,145.18 161.28,145.22 C 161.34,145.26 161.41,145.28 161.49,145.27 C 161.53,145.27 161.6,145.24 161.69,145.2 C 161.79,145.15 161.86,145.12 161.88,145.11 z M 175.96,149.96 C 176.13,149.99 176.31,149.95 176.49,149.83 C 176.66,149.72 176.79,149.59 176.88,149.42 C 176.96,149.28 176.99,149.15 176.95,149.02 C 176.91,148.89 176.81,148.82 176.65,148.8 C 176.49,148.78 176.31,148.82 176.12,148.94 C 175.95,149.04 175.82,149.16 175.73,149.31 C 175.71,149.35 175.7,149.4 175.68,149.44 C 175.65,149.54 175.64,149.58 175.65,149.56 C 175.64,149.59 175.59,149.61 175.5,149.61 C 175.32,149.62 175.19,149.62 175.13,149.61 C 174.73,149.58 174.64,149.34 174.84,148.9 C 175.01,148.55 175.13,148.28 175.19,148.09 C 175.34,147.64 175.38,147.21 175.31,146.8 C 175.23,146.32 175.08,145.88 174.86,145.49 C 174.73,145.25 174.56,145.08 174.36,144.98 C 174.11,144.85 173.89,144.87 173.7,145.05 C 173.6,145.14 173.51,145.35 173.43,145.66 C 173.34,145.98 173.18,146.23 172.94,146.44 C 172.87,146.49 172.76,146.56 172.63,146.62 C 172.5,146.69 172.41,146.74 172.37,146.78 C 172.26,146.88 172.21,147.04 172.23,147.26 C 172.24,147.41 172.3,147.58 172.41,147.77 C 172.46,147.87 172.61,148.09 172.85,148.44 C 173,148.65 173.08,148.81 173.08,148.9 C 173.07,149.03 172.97,149.1 172.78,149.09 C 172.73,149.09 172.66,149.07 172.57,149.04 C 172.13,148.91 171.86,148.84 171.77,148.83 C 171.32,148.76 170.96,148.88 170.68,149.19 C 170.41,149.5 170.35,149.85 170.51,150.25 C 170.64,150.59 170.91,150.8 171.31,150.9 C 171.61,150.96 171.95,150.94 172.33,150.83 C 172.44,150.8 172.68,150.72 173.06,150.59 C 173.22,150.52 173.32,150.5 173.37,150.52 C 173.52,150.58 173.58,150.65 173.54,150.72 C 173.53,150.74 173.5,150.79 173.44,150.87 C 173.3,151.03 173.09,151.24 172.8,151.49 C 172.33,151.92 172.11,152.12 172.14,152.09 C 172.03,152.19 171.95,152.28 171.89,152.35 C 171.78,152.51 171.73,152.62 171.75,152.68 C 171.75,152.71 171.78,152.74 171.82,152.74 C 171.85,152.75 171.91,152.74 172.01,152.72 C 172.12,152.71 172.24,152.67 172.35,152.61 C 172.44,152.56 172.68,152.42 173.09,152.18 C 173.42,151.97 173.69,151.82 173.88,151.74 C 173.94,151.71 174,151.68 174.06,151.66 C 174.15,151.63 174.21,151.62 174.24,151.65 C 174.31,151.75 174.33,151.84 174.3,151.93 C 174.29,151.95 174.26,152 174.21,152.07 C 173.94,152.43 173.77,152.65 173.71,152.73 C 173.43,153.13 173.29,153.52 173.29,153.89 C 173.29,154.39 173.51,154.74 173.95,154.91 C 174.39,155.09 174.78,154.97 175.11,154.54 C 175.25,154.36 175.34,154.12 175.37,153.82 C 175.38,153.71 175.4,153.54 175.41,153.31 C 175.42,153.02 175.45,152.83 175.51,152.74 C 175.59,152.61 175.7,152.62 175.85,152.75 C 175.88,152.77 175.93,152.84 176.01,152.94 C 176.04,152.99 176.08,153.05 176.14,153.14 C 176.21,153.23 176.25,153.29 176.28,153.34 C 176.47,153.61 176.62,153.79 176.74,153.89 C 176.91,154.02 177.08,154.09 177.26,154.08 C 177.35,154.08 177.52,153.97 177.76,153.75 C 177.98,153.54 178.23,153.42 178.51,153.38 C 178.59,153.37 178.7,153.37 178.83,153.38 C 178.99,153.39 179.09,153.39 179.14,153.39 C 179.37,153.39 179.54,153.31 179.65,153.15 C 179.75,153 179.78,152.81 179.73,152.58 C 179.65,152.26 179.37,151.9 178.86,151.5 C 178.49,151.22 178.12,151.03 177.77,150.95 C 177.41,150.86 176.97,150.86 176.46,150.93 C 176.12,150.97 175.9,150.96 175.8,150.88 C 175.7,150.79 175.67,150.65 175.71,150.46 C 175.73,150.39 175.76,150.29 175.8,150.17 C 175.86,150.02 175.91,149.95 175.96,149.96 z M 186.9,147.65 C 186.9,146.94 186.65,146.32 186.14,145.81 C 185.63,145.28 185.03,145.02 184.35,145.02 C 183.67,145.02 183.07,145.28 182.55,145.81 C 182.04,146.32 181.79,146.94 181.79,147.65 L 181.79,152.19 C 181.79,152.89 182.04,153.5 182.55,154.02 C 183.07,154.54 183.67,154.8 184.35,154.8 C 185.03,154.8 185.63,154.54 186.14,154.02 C 186.65,153.5 186.9,152.89 186.9,152.19 z M 113.1,152.19 C 113.1,152.89 113.35,153.5 113.86,154.02 C 114.37,154.54 114.97,154.8 115.65,154.8 C 116.33,154.8 116.93,154.54 117.45,154.02 C 117.96,153.5 118.21,152.89 118.21,152.19 L 118.21,147.65 C 118.21,146.94 117.96,146.32 117.45,145.81 C 116.93,145.28 116.33,145.02 115.65,145.02 C 114.97,145.02 114.37,145.28 113.86,145.81 C 113.35,146.32 113.1,146.94 113.1,147.65 z M 180.63,141.98 C 182.5,142.22 183.99,142.46 185.09,142.71 C 185.91,142.91 186.53,143.17 186.93,143.5 C 187.43,143.91 187.87,144.44 188.24,145.1 C 188.61,145.74 188.9,146.49 189.09,147.33 C 189.27,148.15 189.37,149.01 189.37,149.91 C 189.37,150.81 189.27,151.67 189.09,152.49 C 188.9,153.34 188.61,154.08 188.24,154.73 C 187.85,155.41 187.38,155.96 186.83,156.38 C 186.25,156.8 185.1,157.16 183.38,157.46 C 181.38,157.81 178.1,158.16 173.54,158.52 C 169.7,158.82 165.86,159.04 162,159.18 C 158.08,159.33 154.08,159.4 150,159.4 C 145.92,159.4 141.92,159.33 138,159.18 C 134.14,159.04 130.3,158.82 126.46,158.52 C 121.9,158.16 118.62,157.81 116.62,157.46 C 114.9,157.16 113.75,156.8 113.17,156.38 C 112.62,155.96 112.15,155.41 111.76,154.73 C 111.39,154.08 111.1,153.34 110.91,152.49 C 110.73,151.67 110.63,150.81 110.63,149.91 C 110.63,149.01 110.73,148.15 110.91,147.33 C 111.1,146.49 111.39,145.74 111.76,145.1 C 112.15,144.42 112.62,143.87 113.17,143.46 C 113.75,143.03 114.9,142.66 116.62,142.36 C 118.76,141.99 122.04,141.64 126.46,141.34 C 129.8,141.1 133.65,140.92 138,140.79 C 142.24,140.66 146.24,140.6 150,140.6 C 153.76,140.6 157.76,140.66 162,140.79 C 166.22,140.91 169.86,141.07 172.91,141.27 C 175.81,141.46 178.39,141.7 180.63,141.98 z" />
		
		<path id="shapeCAR" style="fill:none;stroke:#000;stroke-width:0.25px;"
			d="M 157.59,152 C 157.59,152.15 157.59,152.23 157.6,152.25 C 157.61,152.29 157.67,152.31 157.78,152.31 C 157.93,152.31 158.07,152.32 158.22,152.32 C 158.29,152.32 158.37,152.33 158.45,152.33 C 158.51,152.33 158.54,152.33 158.56,152.31 C 158.6,152.29 158.61,152.27 158.61,152.23 L 158.61,151.66 C 158.61,151.6 158.61,151.56 158.61,151.54 C 158.61,151.5 158.58,151.48 158.54,151.46 C 158.53,151.46 158.49,151.46 158.43,151.46 C 158.26,151.46 158.12,151.45 157.98,151.45 C 157.89,151.45 157.82,151.45 157.75,151.45 C 157.7,151.45 157.66,151.45 157.65,151.46 C 157.61,151.47 157.59,151.51 157.59,151.55 z M 159.98,151.85 C 159.98,152.11 159.99,152.27 160.02,152.31 C 160.05,152.36 160.14,152.39 160.31,152.4 C 160.41,152.41 160.51,152.42 160.63,152.42 C 161.05,152.45 161.42,152.49 161.72,152.52 C 162,152.55 162.18,152.58 162.28,152.63 C 162.37,152.67 162.38,152.73 162.3,152.83 C 162.3,152.84 162.23,152.91 162.1,153.04 C 162.01,153.13 161.96,153.21 161.96,153.26 C 161.96,153.35 162.03,153.38 162.2,153.35 C 162.32,153.32 162.48,153.24 162.69,153.11 C 163.13,152.81 163.21,152.5 162.94,152.19 C 162.75,151.97 162.43,151.8 161.96,151.68 C 161.68,151.61 161.32,151.56 160.88,151.53 C 160.47,151.51 160.22,151.52 160.13,151.55 C 160.03,151.59 159.98,151.69 159.98,151.85 z M 163.85,155.57 C 164.07,155.56 164.2,155.56 164.24,155.56 C 164.27,155.56 164.31,155.55 164.37,155.55 C 164.4,155.54 164.43,155.53 164.45,155.53 C 164.57,155.48 164.63,155.35 164.62,155.12 C 164.61,154.89 164.55,154.75 164.42,154.71 C 164.4,154.69 164.35,154.69 164.29,154.69 L 164.2,154.69 C 164.02,154.69 163.71,154.7 163.28,154.71 C 162.76,154.71 162.37,154.72 162.12,154.72 C 162.18,154.72 162.02,154.72 161.65,154.72 C 160.72,154.71 160.19,154.7 160.05,154.69 C 160.02,154.68 160,154.68 159.99,154.68 C 159.97,154.67 159.96,154.66 159.95,154.65 C 159.93,154.62 159.97,154.57 160.07,154.5 C 160.09,154.49 160.12,154.47 160.18,154.43 C 160.23,154.4 160.27,154.38 160.3,154.36 C 160.53,154.21 160.71,154.08 160.83,153.97 C 160.87,153.95 160.9,153.92 160.91,153.9 C 161.06,153.71 160.83,153.69 160.2,153.85 C 160.1,153.87 160,153.9 159.89,153.94 C 159.79,153.96 159.69,153.99 159.58,154.03 C 159.44,154.09 159.31,154.14 159.18,154.21 C 159.1,154.25 159.03,154.29 158.96,154.33 C 158.74,154.45 158.58,154.58 158.48,154.71 C 158.3,154.95 158.31,155.14 158.52,155.28 C 158.67,155.4 158.98,155.48 159.43,155.52 C 159.64,155.54 159.97,155.55 160.41,155.57 C 161.33,155.59 162.07,155.59 162.61,155.59 C 163.02,155.59 163.44,155.58 163.85,155.57 z M 178.77,150.14 C 178.75,149.91 178.64,149.79 178.45,149.79 C 178.36,149.79 178.28,149.82 178.23,149.9 C 178.19,149.97 178.17,150.06 178.17,150.15 C 178.19,150.38 178.3,150.5 178.49,150.5 C 178.58,150.5 178.65,150.46 178.7,150.38 C 178.75,150.31 178.78,150.23 178.77,150.14 z M 175.06,147.44 C 175.17,147.43 175.22,147.38 175.22,147.27 C 175.22,147.24 175.2,147.13 175.14,146.94 C 175.07,146.72 174.99,146.5 174.91,146.3 C 174.74,145.88 174.57,145.53 174.38,145.27 C 174.22,145.03 173.97,144.86 173.65,144.75 C 173.29,144.62 172.8,144.54 172.19,144.49 C 171.33,144.43 170.54,144.45 169.79,144.54 C 169.17,144.62 168.71,144.75 168.43,144.94 C 168.24,145.07 168.04,145.32 167.84,145.7 C 167.67,146.04 167.51,146.44 167.36,146.9 C 167.32,147.01 167.29,147.13 167.26,147.25 C 167.22,147.36 167.25,147.43 167.34,147.47 C 167.37,147.48 167.46,147.49 167.61,147.49 C 167.72,147.48 167.81,147.48 167.87,147.48 C 168.4,147.48 169.2,147.48 170.26,147.47 C 170.8,147.46 171.59,147.46 172.66,147.45 C 173.72,147.44 174.52,147.44 175.06,147.44 z M 156.17,151.46 C 156.11,151.46 156.07,151.5 156.07,151.56 L 156.07,152.23 C 156.07,152.3 156.11,152.33 156.17,152.33 C 156.24,152.33 156.35,152.33 156.49,152.32 C 156.56,152.32 156.59,152.29 156.59,152.22 L 156.59,151.55 C 156.59,151.48 156.56,151.45 156.49,151.45 C 156.5,151.45 156.39,151.45 156.17,151.46 z M 174.26,152.35 C 173.92,152.36 173.64,152.49 173.41,152.73 C 173.17,152.98 173.06,153.27 173.06,153.61 C 173.06,153.95 173.19,154.24 173.43,154.48 C 173.67,154.72 173.96,154.84 174.29,154.83 C 174.62,154.83 174.9,154.71 175.14,154.46 C 175.37,154.22 175.48,153.92 175.48,153.58 C 175.48,153.24 175.36,152.95 175.12,152.71 C 174.88,152.47 174.59,152.35 174.26,152.35 z M 168.46,152.35 C 168.12,152.36 167.83,152.49 167.6,152.73 C 167.37,152.98 167.26,153.27 167.26,153.61 C 167.26,153.95 167.39,154.24 167.63,154.48 C 167.86,154.72 168.15,154.84 168.49,154.83 C 168.82,154.83 169.1,154.71 169.34,154.46 C 169.57,154.22 169.68,153.92 169.68,153.58 C 169.67,153.24 169.55,152.95 169.32,152.71 C 169.08,152.47 168.79,152.35 168.46,152.35 z M 176.74,153.26 C 176.74,153.31 176.79,153.34 176.88,153.34 L 177.71,153.34 C 177.8,153.34 177.86,153.33 177.89,153.3 C 177.91,153.28 177.96,153.19 178.03,153.04 C 178.07,152.94 178.12,152.85 178.15,152.76 C 178.35,152.34 178.47,152.02 178.52,151.82 C 178.55,151.69 178.53,151.6 178.46,151.57 C 178.47,151.58 178.38,151.56 178.19,151.5 C 178.01,151.46 177.84,151.38 177.69,151.26 C 177.38,151.01 177.2,150.69 177.16,150.28 C 177.13,149.98 177.17,149.71 177.3,149.45 C 177.38,149.32 177.46,149.21 177.56,149.11 C 177.57,149.1 177.6,149.08 177.64,149.04 C 177.68,149.02 177.71,148.99 177.72,148.97 C 177.78,148.91 177.79,148.84 177.75,148.77 C 177.69,148.65 177.48,148.59 177.13,148.61 C 176.99,148.63 176.82,148.67 176.64,148.74 C 176.47,148.81 176.31,148.86 176.14,148.92 C 175.68,149.05 175.14,149.12 174.53,149.13 C 174.11,149.13 173.28,149.13 172.02,149.13 C 170.98,149.13 170.14,149.13 169.51,149.14 C 168.41,149.15 167.83,149.16 167.75,149.16 C 167.19,149.16 166.76,149.14 166.48,149.11 C 166.32,149.1 166.18,149.08 166.08,149.04 C 165.95,149 165.81,149 165.64,149.03 C 165.46,149.07 165.3,149.15 165.18,149.27 C 165.05,149.37 164.93,149.53 164.79,149.74 C 164.36,150.39 164.24,151.14 164.45,151.98 C 164.52,152.26 164.64,152.61 164.8,153.03 C 164.86,153.18 164.91,153.27 164.93,153.29 C 164.96,153.32 165.01,153.34 165.06,153.34 L 165.86,153.34 C 165.94,153.34 165.98,153.32 166,153.27 C 166,153.26 166.01,153.22 166.02,153.15 C 166.03,153.08 166.04,153.03 166.04,153.03 C 166.25,152.12 166.78,151.5 167.64,151.19 C 168.5,150.88 169.29,151.01 170.01,151.59 C 170.41,151.92 170.69,152.34 170.85,152.84 C 170.88,152.96 170.91,153.08 170.93,153.19 C 170.94,153.29 170.98,153.34 171.04,153.34 L 171.62,153.34 C 171.72,153.34 171.78,153.32 171.8,153.29 C 171.78,153.32 171.8,153.21 171.86,152.98 C 171.88,152.86 171.92,152.74 171.96,152.63 C 172.16,152.14 172.48,151.75 172.92,151.46 C 173.69,150.95 174.49,150.89 175.31,151.28 C 176.14,151.67 176.61,152.33 176.74,153.26 z M 186.9,147.65 C 186.9,146.94 186.65,146.32 186.14,145.81 C 185.63,145.28 185.03,145.02 184.35,145.02 C 183.67,145.02 183.07,145.28 182.55,145.81 C 182.04,146.32 181.79,146.94 181.79,147.65 L 181.79,152.19 C 181.79,152.89 182.04,153.5 182.55,154.02 C 183.07,154.54 183.67,154.8 184.35,154.8 C 185.03,154.8 185.63,154.54 186.14,154.02 C 186.65,153.5 186.9,152.89 186.9,152.19 z M 113.1,152.19 C 113.1,152.89 113.35,153.5 113.86,154.02 C 114.37,154.54 114.97,154.8 115.65,154.8 C 116.33,154.8 116.93,154.54 117.45,154.02 C 117.96,153.5 118.21,152.89 118.21,152.19 L 118.21,147.65 C 118.21,146.94 117.96,146.32 117.45,145.81 C 116.93,145.28 116.33,145.02 115.65,145.02 C 114.97,145.02 114.37,145.28 113.86,145.81 C 113.35,146.32 113.1,146.94 113.1,147.65 z M 180.63,141.98 C 182.5,142.22 183.99,142.46 185.09,142.71 C 185.91,142.91 186.53,143.17 186.93,143.5 C 187.43,143.91 187.87,144.44 188.24,145.1 C 188.61,145.74 188.9,146.49 189.09,147.33 C 189.27,148.15 189.37,149.01 189.37,149.91 C 189.37,150.81 189.27,151.67 189.09,152.49 C 188.9,153.34 188.61,154.08 188.24,154.73 C 187.85,155.41 187.38,155.96 186.83,156.38 C 186.25,156.8 185.1,157.16 183.38,157.46 C 181.38,157.81 178.1,158.16 173.54,158.52 C 169.7,158.82 165.86,159.04 162,159.18 C 158.08,159.33 154.08,159.4 150,159.4 C 145.92,159.4 141.92,159.33 138,159.18 C 134.14,159.04 130.3,158.82 126.46,158.52 C 121.9,158.16 118.62,157.81 116.62,157.46 C 114.9,157.16 113.75,156.8 113.17,156.38 C 112.62,155.96 112.15,155.41 111.76,154.73 C 111.39,154.08 111.1,153.34 110.91,152.49 C 110.73,151.67 110.63,150.81 110.63,149.91 C 110.63,149.01 110.73,148.15 110.91,147.33 C 111.1,146.49 111.39,145.74 111.76,145.1 C 112.15,144.42 112.62,143.87 113.17,143.46 C 113.75,143.03 114.9,142.66 116.62,142.36 C 118.76,141.99 122.04,141.64 126.46,141.34 C 129.8,141.1 133.65,140.92 138,140.79 C 142.24,140.66 146.24,140.6 150,140.6 C 153.76,140.6 157.76,140.66 162,140.79 C 166.22,140.91 169.86,141.07 172.91,141.27 C 175.81,141.46 178.39,141.7 180.63,141.98 z" />
		
		<path id="shapeFLR" style="fill:none;stroke:#000;stroke-width:0.25px;"
			d="M 180.62,141.98 C 182.5,142.22 183.99,142.46 185.09,142.71 C 185.91,142.91 186.53,143.17 186.93,143.5 C 187.43,143.91 187.87,144.44 188.24,145.1 C 188.61,145.74 188.9,146.49 189.09,147.33 C 189.27,148.15 189.37,149.01 189.37,149.91 C 189.37,150.81 189.27,151.67 189.09,152.49 C 188.9,153.34 188.61,154.08 188.24,154.73 C 187.85,155.41 187.38,155.96 186.83,156.38 C 186.25,156.8 185.1,157.16 183.38,157.46 C 181.38,157.81 178.1,158.16 173.54,158.52 C 169.7,158.82 165.86,159.04 162,159.18 C 158.08,159.33 154.08,159.4 150,159.4 C 145.92,159.4 141.92,159.33 138,159.18 C 134.14,159.04 130.3,158.82 126.46,158.52 C 121.9,158.16 118.62,157.81 116.62,157.46 C 114.9,157.16 113.75,156.8 113.17,156.38 C 112.62,155.96 112.15,155.41 111.76,154.73 C 111.39,154.08 111.1,153.34 110.91,152.49 C 110.73,151.67 110.63,150.81 110.63,149.91 C 110.63,149.01 110.73,148.15 110.91,147.33 C 111.1,146.49 111.39,145.74 111.76,145.1 C 112.15,144.42 112.62,143.87 113.17,143.46 C 113.75,143.03 114.9,142.66 116.62,142.36 C 118.76,141.99 122.04,141.64 126.46,141.34 C 129.8,141.1 133.65,140.92 138,140.79 C 142.24,140.66 146.24,140.6 150,140.6 C 153.76,140.6 157.76,140.66 162,140.79 C 166.22,140.91 169.86,141.07 172.91,141.27 C 175.81,141.46 178.39,141.7 180.62,141.98 z M 113.1,152.19 C 113.1,152.89 113.35,153.5 113.86,154.02 C 114.37,154.54 114.97,154.8 115.65,154.8 C 116.33,154.8 116.93,154.54 117.45,154.02 C 117.96,153.5 118.21,152.89 118.21,152.19 L 118.21,147.65 C 118.21,146.94 117.96,146.32 117.45,145.81 C 116.93,145.28 116.33,145.02 115.65,145.02 C 114.97,145.02 114.37,145.28 113.86,145.81 C 113.35,146.32 113.1,146.94 113.1,147.65 z M 186.9,147.65 C 186.9,146.94 186.65,146.32 186.14,145.81 C 185.63,145.28 185.03,145.02 184.35,145.02 C 183.67,145.02 183.07,145.28 182.55,145.81 C 182.04,146.32 181.79,146.94 181.79,147.65 L 181.79,152.19 C 181.79,152.89 182.04,153.5 182.55,154.02 C 183.07,154.54 183.67,154.8 184.35,154.8 C 185.03,154.8 185.63,154.54 186.14,154.02 C 186.65,153.5 186.9,152.89 186.9,152.19 z M 164.53,144.04 C 164.55,144.1 164.58,144.15 164.63,144.22 C 164.67,144.28 164.72,144.33 164.76,144.37 C 164.81,144.42 164.86,144.46 164.92,144.48 C 164.98,144.51 165.04,144.53 165.11,144.54 C 165.17,144.55 165.24,144.55 165.3,144.52 C 165.36,144.5 165.42,144.47 165.47,144.42 C 165.51,144.37 165.55,144.31 165.57,144.25 C 165.59,144.18 165.59,144.12 165.58,144.05 C 165.57,143.99 165.55,143.92 165.51,143.86 C 165.48,143.8 165.43,143.75 165.38,143.71 C 165.34,143.67 165.28,143.63 165.21,143.61 C 165.16,143.59 165.09,143.57 165.02,143.57 C 164.95,143.57 164.89,143.58 164.82,143.6 C 164.76,143.62 164.7,143.65 164.66,143.69 C 164.59,143.74 164.55,143.79 164.53,143.85 C 164.51,143.91 164.51,143.97 164.53,144.04 z M 166.22,146.61 C 166.21,146.67 166.21,146.73 166.23,146.79 C 166.25,146.84 166.28,146.89 166.32,146.94 C 166.35,146.99 166.39,147.03 166.44,147.06 C 166.49,147.11 166.55,147.13 166.6,147.13 C 166.65,147.13 166.7,147.11 166.76,147.08 C 166.8,147.05 166.84,147.01 166.88,146.95 C 166.92,146.91 166.96,146.86 166.99,146.82 C 167.02,146.76 167.05,146.71 167.07,146.66 C 167.09,146.6 167.09,146.54 167.08,146.48 C 167.07,146.43 167.04,146.38 166.99,146.34 C 166.95,146.3 166.91,146.27 166.86,146.24 C 166.8,146.21 166.75,146.2 166.69,146.19 C 166.62,146.18 166.57,146.19 166.51,146.21 C 166.46,146.23 166.42,146.26 166.38,146.3 C 166.34,146.34 166.31,146.39 166.28,146.45 C 166.25,146.51 166.23,146.57 166.22,146.61 z M 165.67,149.4 C 165.62,149.43 165.56,149.48 165.5,149.55 C 165.45,149.61 165.41,149.67 165.37,149.74 C 165.33,149.81 165.3,149.88 165.28,149.95 C 165.26,150.04 165.25,150.11 165.26,150.18 C 165.28,150.24 165.33,150.3 165.39,150.35 C 165.44,150.39 165.51,150.42 165.6,150.45 C 165.67,150.48 165.75,150.49 165.81,150.5 C 165.89,150.5 165.96,150.5 166.04,150.48 C 166.11,150.46 166.18,150.43 166.24,150.38 C 166.29,150.34 166.34,150.28 166.38,150.21 C 166.42,150.13 166.44,150.06 166.46,149.99 C 166.46,149.91 166.45,149.84 166.42,149.77 C 166.39,149.71 166.34,149.65 166.28,149.58 C 166.22,149.52 166.16,149.48 166.1,149.44 C 166.03,149.4 165.96,149.38 165.89,149.37 C 165.81,149.36 165.74,149.37 165.67,149.4 z M 165.95,152.85 C 165.94,152.92 165.96,153 166.01,153.08 C 166.03,153.12 166.08,153.18 166.14,153.25 C 166.21,153.32 166.27,153.37 166.32,153.4 C 166.38,153.42 166.45,153.44 166.54,153.44 C 166.61,153.44 166.69,153.43 166.77,153.41 C 166.85,153.39 166.91,153.36 166.97,153.32 C 167.04,153.28 167.1,153.23 167.14,153.16 C 167.18,153.1 167.21,153.03 167.23,152.96 C 167.23,152.88 167.22,152.8 167.19,152.72 C 167.16,152.66 167.12,152.6 167.05,152.54 C 166.99,152.49 166.93,152.45 166.87,152.42 C 166.79,152.4 166.72,152.38 166.64,152.38 C 166.56,152.38 166.49,152.39 166.42,152.4 C 166.34,152.42 166.27,152.45 166.2,152.49 C 166.13,152.54 166.07,152.58 166.04,152.64 C 165.98,152.71 165.95,152.78 165.95,152.85 z M 159.46,144.99 C 159.45,145.02 159.44,145.05 159.44,145.08 C 159.44,145.11 159.45,145.14 159.45,145.17 C 159.47,145.19 159.49,145.22 159.51,145.24 C 159.53,145.26 159.55,145.28 159.58,145.28 C 159.61,145.3 159.64,145.31 159.67,145.31 C 159.7,145.31 159.73,145.31 159.76,145.3 C 159.79,145.3 159.82,145.28 159.83,145.26 C 159.85,145.24 159.87,145.22 159.87,145.19 C 159.87,145.17 159.87,145.14 159.87,145.1 C 159.87,145.03 159.87,145 159.87,145 C 159.87,144.96 159.87,144.93 159.85,144.91 C 159.84,144.9 159.81,144.89 159.78,144.87 C 159.74,144.87 159.71,144.86 159.69,144.86 C 159.65,144.86 159.63,144.87 159.6,144.87 C 159.57,144.89 159.54,144.9 159.52,144.92 C 159.5,144.94 159.48,144.96 159.46,144.99 z M 161.48,144.24 C 161.47,144.3 161.46,144.36 161.46,144.42 C 161.46,144.5 161.48,144.55 161.5,144.59 C 161.53,144.64 161.58,144.68 161.64,144.7 C 161.69,144.71 161.74,144.71 161.81,144.69 C 161.86,144.67 161.91,144.65 161.97,144.62 C 162.02,144.6 162.07,144.57 162.13,144.53 C 162.16,144.51 162.21,144.48 162.28,144.43 C 162.35,144.38 162.39,144.34 162.39,144.31 C 162.39,144.28 162.36,144.23 162.29,144.15 C 162.28,144.14 162.27,144.11 162.25,144.08 C 162.22,144.05 162.2,144.03 162.19,144.01 C 162.17,143.99 162.13,143.95 162.07,143.89 C 162.01,143.82 161.97,143.79 161.93,143.78 C 161.88,143.76 161.83,143.77 161.77,143.8 C 161.72,143.82 161.68,143.86 161.64,143.92 C 161.6,143.97 161.57,144.02 161.54,144.07 C 161.52,144.13 161.5,144.19 161.48,144.24 z M 168.99,153.62 C 168.99,153.71 169,153.8 169.02,153.89 C 169.05,153.97 169.09,154.05 169.14,154.12 C 169.2,154.2 169.26,154.25 169.34,154.29 C 169.41,154.33 169.5,154.34 169.59,154.34 C 169.67,154.32 169.75,154.29 169.82,154.23 C 169.9,154.18 169.96,154.12 170.02,154.05 C 170.07,153.98 170.11,153.91 170.15,153.83 C 170.19,153.74 170.21,153.65 170.21,153.56 C 170.22,153.48 170.21,153.39 170.19,153.3 C 170.15,153.2 170.11,153.13 170.06,153.08 C 170.01,153.03 169.93,152.99 169.82,152.95 C 169.73,152.92 169.65,152.9 169.58,152.89 C 169.48,152.88 169.4,152.9 169.33,152.94 C 169.25,152.98 169.18,153.04 169.13,153.12 C 169.09,153.18 169.05,153.26 169.02,153.36 C 169,153.44 168.99,153.53 168.99,153.62 z M 173.77,148.26 C 173.83,148.36 173.87,148.46 173.88,148.55 C 173.88,148.67 173.85,148.77 173.78,148.85 C 173.71,148.93 173.62,148.96 173.51,148.96 C 173.41,148.97 173.32,148.95 173.21,148.89 C 172.95,148.74 172.73,148.63 172.58,148.55 C 172.32,148.44 172.1,148.37 171.91,148.34 C 171.65,148.29 171.42,148.31 171.21,148.4 C 171,148.49 170.82,148.64 170.67,148.86 C 170.54,149.06 170.46,149.28 170.43,149.53 C 170.4,149.78 170.44,150.02 170.53,150.24 C 170.62,150.48 170.77,150.66 170.96,150.8 C 171.15,150.93 171.37,151.01 171.62,151.03 C 171.82,151.04 172.05,151.03 172.32,150.97 C 172.49,150.93 172.72,150.87 173.02,150.79 C 173.13,150.75 173.23,150.75 173.32,150.77 C 173.43,150.8 173.51,150.87 173.56,150.96 C 173.61,151.05 173.62,151.15 173.59,151.26 C 173.57,151.35 173.51,151.44 173.43,151.52 C 173.21,151.74 173.04,151.91 172.93,152.04 C 172.73,152.25 172.59,152.44 172.51,152.63 C 172.39,152.86 172.34,153.09 172.35,153.32 C 172.37,153.55 172.46,153.78 172.62,153.98 C 172.76,154.18 172.94,154.33 173.16,154.43 C 173.39,154.54 173.62,154.58 173.86,154.56 C 174.1,154.54 174.32,154.46 174.51,154.31 C 174.69,154.17 174.82,153.98 174.92,153.73 C 175,153.55 175.05,153.31 175.08,153.03 C 175.1,152.85 175.11,152.61 175.13,152.3 C 175.13,152.18 175.16,152.08 175.21,152 C 175.27,151.9 175.35,151.85 175.46,151.83 C 175.56,151.81 175.65,151.83 175.75,151.88 C 175.83,151.94 175.89,152.02 175.94,152.13 C 176.07,152.41 176.18,152.62 176.26,152.77 C 176.4,153.03 176.54,153.22 176.68,153.36 C 176.86,153.55 177.06,153.67 177.28,153.73 C 177.5,153.78 177.74,153.77 177.98,153.68 C 178.2,153.6 178.4,153.47 178.56,153.28 C 178.73,153.1 178.83,152.89 178.89,152.66 C 178.95,152.4 178.94,152.16 178.86,151.93 C 178.79,151.72 178.65,151.53 178.46,151.36 C 178.31,151.23 178.11,151.1 177.85,150.99 C 177.7,150.91 177.47,150.82 177.19,150.71 C 177.08,150.67 176.99,150.62 176.93,150.54 C 176.86,150.45 176.83,150.35 176.85,150.24 C 176.86,150.14 176.91,150.05 177,149.98 C 177.07,149.92 177.17,149.89 177.29,149.87 C 177.58,149.83 177.82,149.79 177.98,149.76 C 178.26,149.7 178.48,149.62 178.65,149.53 C 178.89,149.41 179.06,149.25 179.18,149.06 C 179.3,148.86 179.36,148.63 179.36,148.37 C 179.35,148.12 179.28,147.89 179.16,147.68 C 179.04,147.46 178.88,147.29 178.67,147.16 C 178.46,147.02 178.24,146.96 178.01,146.96 C 177.78,146.97 177.56,147.04 177.33,147.19 C 177.17,147.29 177,147.45 176.81,147.66 C 176.69,147.79 176.54,147.97 176.35,148.21 C 176.28,148.31 176.2,148.38 176.11,148.41 C 176.01,148.45 175.91,148.45 175.81,148.41 C 175.72,148.36 175.65,148.28 175.62,148.17 C 175.58,148.08 175.58,147.98 175.6,147.86 C 175.65,147.56 175.68,147.32 175.7,147.15 C 175.74,146.86 175.74,146.62 175.7,146.43 C 175.66,146.16 175.57,145.94 175.43,145.77 C 175.28,145.59 175.08,145.46 174.84,145.38 C 174.61,145.32 174.37,145.31 174.14,145.35 C 173.9,145.4 173.69,145.51 173.51,145.67 C 173.32,145.84 173.19,146.04 173.12,146.27 C 173.06,146.48 173.06,146.72 173.12,146.98 C 173.16,147.18 173.25,147.4 173.39,147.65 C 173.47,147.8 173.6,148 173.77,148.26 z" />
		
		<path id="txtpath" style="fill:none;stroke:#f0f;stroke-width:0.25px;"
		 d="M 120,150 L 165,150" />
	 
		<path id="birth" transform="matrix(1 0 0 1 25 0)" style="fill:#00f;stroke:none;"
         d="M 153.89,150.01 C 153.89,148.94 153.51,148.03 152.76,147.27 C 152.0,146.52 151.07,146.14 150.0,146.14 C 148.93,146.14 148.01,146.52 147.26,147.27 C 146.5,148.03 146.12,148.94 146.12,150.01 C 146.12,151.07 146.5,151.98 147.26,152.73 C 148.01,153.49 148.93,153.86 150.0,153.86 C 151.07,153.86 152.0,153.49 152.76,152.73 C 153.51,151.98 153.89,151.07 153.89,150.01 z" />
		 
		<path id="diamond" transform="matrix(1 0 0 1 25 0)" style="fill:none;stroke:#000;stroke-width:0.25px;"
         d="M 152.83,150.01 C 152.83,150.78 152.55,151.44 152.0,151.99 C 151.44,152.53 150.78,152.81 149.99,152.81 C 149.21,152.81 148.55,152.53 147.99,151.99 C 147.45,151.44 147.17,150.78 147.17,150.01 C 147.17,149.23 147.45,148.57 147.99,148.01 C 148.55,147.47 149.21,147.19 149.99,147.19 C 150.78,147.19 151.44,147.47 152.0,148.01 C 152.55,148.57 152.83,149.23 152.83,150.01 z" />
	 </defs>	
	
	 <g>
		<!-- Paths -->
		<path id="shape" style="fill:none;stroke:#fb0;stroke-width:0.25px;"
			d="M 150.0,140.59 C 146.24,140.59 142.24,140.65 138.0,140.78 C 133.65,140.91 129.81,141.1 126.47,141.34 C 122.05,141.64 118.77,142.01 116.63,142.38 C 114.91,142.68 113.74,143.04 113.16,143.47 C 112.61,143.88 112.14,144.41 111.75,145.09 C 111.38,145.73 111.1,146.5 110.91,147.34 C 110.73,148.16 110.63,149.01 110.63,149.91 C 110.63,150.81 110.73,151.68 110.91,152.5 C 111.1,153.35 111.38,154.07 111.75,154.72 C 112.14,155.4 112.61,155.96 113.16,156.38 C 113.74,156.79 114.91,157.17 116.63,157.47 C 118.63,157.82 121.91,158.17 126.47,158.53 C 130.31,158.83 134.14,159.05 138.0,159.19 C 141.92,159.34 145.92,159.41 150.0,159.41 C 154.08,159.41 158.08,159.34 162.0,159.19 C 165.86,159.05 169.69,158.83 173.53,158.53 C 178.09,158.17 181.38,157.82 183.38,157.47 C 185.1,157.17 186.26,156.79 186.84,156.38 C 187.39,155.96 187.86,155.4 188.25,154.72 C 188.62,154.07 188.9,153.35 189.09,152.5 C 189.27,151.68 189.38,150.81 189.38,149.91 C 189.38,149.01 189.27,148.16 189.09,147.34 C 188.9,146.5 188.62,145.73 188.25,145.09 C 187.88,144.43 187.44,143.91 186.94,143.5 C 186.54,143.17 185.91,142.92 185.09,142.72 C 183.99,142.47 182.51,142.21 180.63,141.97 C 178.4,141.69 175.81,141.47 172.91,141.28 C 169.86,141.08 166.22,140.9 162.0,140.78 C 157.76,140.65 153.76,140.59 150.0,140.59 z M 115.66,145.03 C 116.34,145.03 116.92,145.28 117.44,145.81 C 117.95,146.32 118.22,146.95 118.22,147.66 L 118.22,152.19 C 118.22,152.89 117.95,153.51 117.44,154.03 C 116.92,154.55 116.34,154.81 115.66,154.81 C 114.98,154.81 114.39,154.55 113.88,154.03 C 113.37,153.51 113.09,152.89 113.09,152.19 L 113.09,147.66 C 113.09,146.95 113.37,146.32 113.88,145.81 C 114.39,145.28 114.98,145.03 115.66,145.03 z M 184.34,145.03 C 185.02,145.03 185.62,145.28 186.13,145.81 C 186.64,146.32 186.91,146.95 186.91,147.66 L 186.91,152.19 C 186.91,152.89 186.64,153.51 186.13,154.03 C 185.62,154.55 185.02,154.81 184.34,154.81 C 183.66,154.81 183.08,154.55 182.56,154.03 C 182.05,153.51 181.78,152.89 181.78,152.19 L 181.78,147.66 C 181.78,146.95 182.05,146.32 182.56,145.81 C 183.08,145.28 183.66,145.03 184.34,145.03 z" />
		
		<!-- Name One -->
		<text style="stroke:none;fill:#f00;font-family:z_magnolia;font-size:20px;text-anchor:middle;" transform="matrix(1 0 0 1 150 153)" class="txt" ></text>
		
		<!-- Prism Reference -->
		<cam mingh:cam="--actions=EditSelectAll;ObjectToPath;ZoomPage;ZoomCenterPage;FileVacuum;FileSave; -g" mingh:style="source:microprism">M2</cam>  
	 </g>

</svg>
