<?xml version="1.0" encoding="UTF-8" standalone="no"?>

<svg
   xmlns:xlink="http://www.w3.org/1999/xlink"
   xmlns:svg="http://www.w3.org/2000/svg"
   xmlns="http://www.w3.org/2000/svg"
   xmlns:mingh="http://www.minghworld.com"
   width="300px"
   height="300px" >
   
	<defs>
		<path id="birth" style="fill:#00f;stroke:none;"
         d="M 153.89,150.01 C 153.89,148.94 153.51,148.03 152.76,147.27 C 152.0,146.52 151.07,146.14 150.0,146.14 C 148.93,146.14 148.01,146.52 147.26,147.27 C 146.5,148.03 146.12,148.94 146.12,150.01 C 146.12,151.07 146.5,151.98 147.26,152.73 C 148.01,153.49 148.93,153.86 150.0,153.86 C 151.07,153.86 152.0,153.49 152.76,152.73 C 153.51,151.98 153.89,151.07 153.89,150.01 z" />
		 
		<path id="diamond" style="fill:none;stroke:#000;stroke-width:0.25px;"
         d="M 152.83,150.01 C 152.83,150.78 152.55,151.44 152.0,151.99 C 151.44,152.53 150.78,152.81 149.99,152.81 C 149.21,152.81 148.55,152.53 147.99,151.99 C 147.45,151.44 147.17,150.78 147.17,150.01 C 147.17,149.23 147.45,148.57 147.99,148.01 C 148.55,147.47 149.21,147.19 149.99,147.19 C 150.78,147.19 151.44,147.47 152.0,148.01 C 152.55,148.57 152.83,149.23 152.83,150.01 z" />
		 
		<path id="txtpath" style="fill:none;stroke:#f0f;stroke-width:0.25px;"
		 d="M 104,144 C 134,127 161,173 196,156" />
	</defs>	
	
	<g>	
		<path id="shape" style="fill:none;stroke:#fb0;stroke-width:0.25px;"
			d="M 98.32,157.08 C 98.31,157.07 98.3,157.07 98.29,157.06 C 98.28,157.05 98.26,157.05 98.25,157.04 C 98.25,157.03 98.24,157.03 98.22,157.03 C 98.21,157.03 98.2,157.03 98.18,157.03 C 97.53,157.06 96.9,156.96 96.29,156.73 C 95.68,156.5 95.15,156.16 94.68,155.71 C 94.2,155.27 93.84,154.75 93.58,154.15 C 93.33,153.56 93.2,152.94 93.2,152.3 L 93.2,147.73 C 93.2,147.09 93.33,146.48 93.57,145.9 C 93.82,145.31 94.17,144.8 94.63,144.35 C 95.08,143.9 95.61,143.56 96.2,143.33 C 96.79,143.09 97.41,142.98 98.06,142.99 C 98.07,142.99 98.08,142.99 98.09,142.99 C 98.1,142.98 98.11,142.98 98.13,142.97 C 98.14,142.97 98.15,142.97 98.15,142.96 C 98.17,142.95 98.18,142.94 98.18,142.93 C 99.38,141.63 100.95,140.47 102.9,139.44 C 104.55,138.58 106.38,137.86 108.39,137.28 C 110.22,136.74 112.14,136.33 114.16,136.06 C 116.02,135.79 117.98,135.64 120.05,135.61 C 122.13,135.57 124.1,135.64 125.95,135.82 C 127.81,136.01 129.75,136.33 131.78,136.78 C 133.64,137.19 135.54,137.71 137.47,138.33 C 139.27,138.91 141.12,139.58 143.02,140.35 C 144.74,141.05 146.54,141.84 148.42,142.73 C 150.09,143.52 151.85,144.4 153.7,145.36 C 153.71,145.37 153.73,145.38 153.74,145.38 C 153.76,145.39 153.78,145.39 153.79,145.38 C 153.81,145.38 153.82,145.38 153.84,145.38 C 153.85,145.37 153.86,145.37 153.88,145.36 C 156.72,143.58 158.18,142.66 158.26,142.61 C 159.93,141.58 161.44,140.72 162.76,140.04 C 164.36,139.22 165.93,138.52 167.49,137.93 C 169.16,137.31 170.82,136.81 172.46,136.46 C 174.09,136.1 175.8,135.86 177.6,135.73 C 179.34,135.61 181.06,135.6 182.78,135.69 C 184.5,135.79 186.21,136.0 187.92,136.32 C 189.68,136.65 191.36,137.09 192.94,137.63 C 194.7,138.23 196.28,138.94 197.66,139.75 C 199.24,140.67 200.59,141.73 201.71,142.93 C 201.72,142.94 201.73,142.95 201.74,142.96 C 201.75,142.97 201.76,142.97 201.78,142.98 C 201.79,142.99 201.8,142.99 201.82,142.99 C 201.83,142.99 201.84,142.99 201.85,142.99 C 202.5,142.97 203.12,143.07 203.73,143.3 C 204.34,143.53 204.87,143.87 205.33,144.32 C 205.8,144.76 206.16,145.28 206.42,145.87 C 206.67,146.47 206.8,147.09 206.8,147.73 L 206.8,152.3 C 206.8,152.93 206.67,153.55 206.42,154.14 C 206.16,154.73 205.8,155.25 205.34,155.7 C 204.87,156.15 204.34,156.48 203.74,156.72 C 203.13,156.95 202.51,157.05 201.87,157.03 C 201.85,157.03 201.84,157.03 201.83,157.03 C 201.81,157.03 201.8,157.03 201.79,157.04 C 201.77,157.05 201.76,157.05 201.76,157.06 C 201.74,157.07 201.73,157.08 201.73,157.09 C 200.49,158.42 198.92,159.58 197.02,160.58 C 195.41,161.42 193.59,162.14 191.54,162.73 C 189.73,163.24 187.8,163.64 185.77,163.93 C 183.84,164.2 181.88,164.36 179.89,164.39 C 177.87,164.43 175.91,164.35 174.0,164.15 C 172.15,163.96 170.21,163.63 168.18,163.18 C 166.32,162.77 164.42,162.25 162.5,161.63 C 160.7,161.05 158.85,160.38 156.96,159.62 C 155.28,158.94 153.49,158.14 151.57,157.25 C 149.63,156.34 147.87,155.45 146.3,154.6 C 146.29,154.59 146.27,154.59 146.26,154.58 C 146.24,154.58 146.22,154.58 146.21,154.58 C 146.2,154.58 146.18,154.58 146.16,154.59 C 146.15,154.59 146.14,154.6 146.12,154.61 C 144.32,155.76 142.86,156.68 141.75,157.36 C 139.99,158.44 138.49,159.3 137.26,159.93 C 135.71,160.73 134.13,161.43 132.52,162.01 C 130.88,162.61 129.22,163.1 127.55,163.47 C 125.85,163.84 124.14,164.11 122.43,164.25 C 120.71,164.39 118.98,164.4 117.25,164.31 C 115.56,164.21 113.85,163.99 112.11,163.66 C 110.35,163.32 108.68,162.89 107.1,162.35 C 105.33,161.75 103.75,161.06 102.37,160.26 C 100.78,159.34 99.43,158.28 98.32,157.08 z M 157.64,147.27 C 157.61,147.29 157.59,147.31 157.58,147.33 C 157.57,147.36 157.56,147.39 157.56,147.42 C 157.56,147.45 157.57,147.47 157.58,147.5 C 157.6,147.53 157.62,147.55 157.65,147.57 C 159.03,148.38 160.44,149.13 161.89,149.83 C 163.35,150.54 164.81,151.19 166.3,151.77 C 167.72,152.33 169.24,152.86 170.85,153.37 C 172.57,153.92 174.12,154.34 175.5,154.64 C 177.2,155.0 178.79,155.22 180.27,155.28 C 181.84,155.35 183.44,155.26 185.09,155.01 C 186.78,154.76 188.34,154.37 189.76,153.84 C 191.53,153.17 192.88,152.33 193.82,151.32 C 195.06,149.98 195.65,148.55 195.58,147.0 C 195.5,145.51 194.79,144.12 193.45,142.84 C 192.44,141.9 191.06,141.1 189.3,140.45 C 187.84,139.92 186.29,139.52 184.63,139.26 C 183.05,139.01 181.45,138.89 179.82,138.91 C 178.24,138.92 176.64,139.06 175.03,139.34 C 173.41,139.6 171.86,139.99 170.35,140.49 C 168.89,140.97 167.41,141.59 165.9,142.34 C 164.72,142.93 163.32,143.71 161.7,144.69 C 160.23,145.58 158.88,146.44 157.64,147.27 z M 142.36,152.7 C 142.39,152.68 142.41,152.65 142.42,152.63 C 142.43,152.6 142.44,152.57 142.44,152.54 C 142.44,152.51 142.43,152.49 142.42,152.46 C 142.4,152.44 142.38,152.41 142.35,152.39 C 140.98,151.59 139.56,150.84 138.11,150.13 C 136.65,149.42 135.18,148.78 133.69,148.18 C 132.27,147.62 130.75,147.09 129.15,146.58 C 127.41,146.02 125.85,145.6 124.49,145.31 C 122.82,144.95 121.23,144.75 119.72,144.69 C 118.15,144.62 116.54,144.71 114.9,144.95 C 113.2,145.21 111.65,145.6 110.23,146.12 C 108.46,146.79 107.11,147.62 106.16,148.63 C 104.91,149.98 104.32,151.42 104.39,152.95 C 104.47,154.44 105.19,155.83 106.54,157.11 C 107.55,158.06 108.94,158.86 110.69,159.51 C 112.13,160.04 113.68,160.44 115.35,160.7 C 116.94,160.96 118.54,161.07 120.17,161.06 C 121.75,161.04 123.35,160.9 124.97,160.63 C 126.58,160.36 128.14,159.97 129.65,159.47 C 131.09,158.99 132.57,158.37 134.09,157.62 C 135.31,157.01 136.71,156.23 138.3,155.27 C 139.72,154.42 141.07,153.56 142.36,152.7 z M 204.68,147.73 C 204.68,147.26 204.56,146.82 204.32,146.41 C 204.08,146.0 203.76,145.68 203.35,145.45 C 202.94,145.22 202.5,145.1 202.02,145.1 C 201.55,145.1 201.11,145.22 200.7,145.45 C 200.29,145.68 199.97,146.0 199.73,146.41 C 199.49,146.82 199.37,147.26 199.38,147.73 L 199.38,152.3 C 199.37,152.76 199.49,153.2 199.73,153.61 C 199.97,154.02 200.29,154.34 200.7,154.57 C 201.11,154.81 201.55,154.92 202.02,154.92 C 202.5,154.92 202.94,154.81 203.35,154.57 C 203.76,154.34 204.08,154.02 204.32,153.61 C 204.56,153.2 204.68,152.76 204.68,152.3 z M 95.32,152.3 C 95.32,152.76 95.44,153.2 95.68,153.61 C 95.92,154.02 96.24,154.34 96.65,154.57 C 97.06,154.81 97.5,154.92 97.98,154.92 C 98.45,154.92 98.89,154.81 99.3,154.57 C 99.71,154.34 100.03,154.02 100.27,153.61 C 100.51,153.2 100.63,152.76 100.63,152.3 L 100.63,147.73 C 100.63,147.26 100.51,146.82 100.27,146.41 C 100.03,146.0 99.71,145.68 99.3,145.45 C 98.89,145.22 98.45,145.1 97.98,145.1 C 97.5,145.1 97.06,145.22 96.65,145.45 C 96.24,145.68 95.92,146.0 95.68,146.41 C 95.44,146.82 95.32,147.26 95.32,147.73 z" />
			
		<!-- Name One -->
		<text dy="2" style="stroke:none;fill:#f00;font-family:z_swan;font-size:16px;text-anchor:start;">
			<textPath id="txtStart1" startOffset="2%" xlink:href="#txtpath" class="txt" ></textPath>
		</text>
		
		<text dy="2" style="stroke:none;fill:#f00;font-family:z_swan;font-size:16px;text-anchor:middle;">
			<textPath id="txtMid1" startOffset="50%" xlink:href="#txtpath" class="txt" ></textPath>
		</text>
		
		<text dy="2" style="stroke:none;fill:#f00;font-family:z_swan;font-size:16px;text-anchor:end;">
			<textPath id="txtEnd1" startOffset="98%" xlink:href="#txtpath" class="txt" ></textPath>
		</text>
		
		<!-- Prism Reference -->
		<cam mingh:cam="--actions=EditSelectAll;ObjectToPath;ZoomPage;ZoomCenterPage;FileVacuum;FileSave; -g" mingh:style="source:microprism">M2</cam> 
	</g>

</svg>
