<?xml version="1.0" encoding="UTF-8" standalone="no"?>

<svg
   xmlns:xlink="http://www.w3.org/1999/xlink"
   xmlns:svg="http://www.w3.org/2000/svg"
   xmlns="http://www.w3.org/2000/svg"
   xmlns:mingh="http://www.minghworld.com"
   width="300px"
   height="300px" >
   
	<defs>
		<path id="birth" style="fill:#00f;stroke:none;"
			d="M 153.89,150.01 C 153.89,148.94 153.51,148.03 152.76,147.27 C 152.0,146.52 151.07,146.14 150.0,146.14 C 148.93,146.14 148.01,146.52 147.26,147.27 C 146.5,148.03 146.12,148.94 146.12,150.01 C 146.12,151.07 146.5,151.98 147.26,152.73 C 148.01,153.49 148.93,153.86 150.0,153.86 C 151.07,153.86 152.0,153.49 152.76,152.73 C 153.51,151.98 153.89,151.07 153.89,150.01 z" />
		 	
		<path id="diamond" style="fill:none;stroke:#000;stroke-width:0.25px;"
			d="M 152.83,150.01 C 152.83,150.78 152.55,151.44 152.0,151.99 C 151.44,152.53 150.78,152.81 149.99,152.81 C 149.21,152.81 148.55,152.53 147.99,151.99 C 147.45,151.44 147.17,150.78 147.17,150.01 C 147.17,149.23 147.45,148.57 147.99,148.01 C 148.55,147.47 149.21,147.19 149.99,147.19 C 150.78,147.19 151.44,147.47 152.0,148.01 C 152.55,148.57 152.83,149.23 152.83,150.01 z" />
		 
		<path id="txtpath" style="fill:none;stroke:#f0f;stroke-width:0.25px;"
			d="M 102.45,148.35 C 111.13,139.58 125.9,141.48 136.27,146.66 150.29,153.25 163.12,161.96 178.46,161.91 186.61,162.16 195.59,160.13 200.93,153.47" />
	</defs>	
	
	 <g>	
		 
	 <path id="shape" style="fill:none;stroke:#fb0;stroke-width:0.25px;"
		d="M 100.66,150.01 C 100.66,149.78 100.61,149.56 100.52,149.34 C 100.43,149.11 100.3,148.92 100.14,148.76 C 99.98,148.6 99.78,148.48 99.55,148.39 C 99.33,148.29 99.1,148.24 98.88,148.24 C 98.66,148.24 98.43,148.29 98.21,148.38 C 97.98,148.48 97.78,148.6 97.62,148.76 C 97.46,148.92 97.33,149.11 97.23,149.33 C 97.14,149.55 97.09,149.77 97.09,150.0 C 97.09,150.22 97.14,150.45 97.24,150.67 C 97.33,150.9 97.45,151.09 97.61,151.25 C 97.77,151.41 97.96,151.54 98.19,151.63 C 98.39,151.71 98.62,151.75 98.87,151.75 C 99.12,151.75 99.34,151.71 99.55,151.63 C 99.77,151.55 99.97,151.42 100.13,151.26 C 100.29,151.1 100.41,150.91 100.51,150.68 C 100.61,150.46 100.66,150.23 100.66,150.01 z M 202.89,150.01 C 202.9,149.78 202.86,149.56 202.77,149.34 C 202.67,149.11 202.54,148.92 202.38,148.76 C 202.21,148.6 202.02,148.48 201.8,148.39 C 201.56,148.29 201.34,148.24 201.13,148.24 C 200.9,148.24 200.68,148.29 200.44,148.38 C 200.21,148.48 200.02,148.6 199.87,148.76 C 199.7,148.92 199.57,149.11 199.48,149.33 C 199.38,149.55 199.33,149.77 199.34,150.0 C 199.34,150.22 199.38,150.45 199.48,150.67 C 199.57,150.9 199.7,151.09 199.86,151.25 C 200.02,151.41 200.21,151.54 200.43,151.63 C 200.64,151.71 200.87,151.75 201.11,151.75 C 201.35,151.75 201.58,151.71 201.79,151.63 C 202.01,151.55 202.21,151.42 202.38,151.26 C 202.53,151.1 202.66,150.91 202.75,150.68 C 202.84,150.46 202.89,150.23 202.89,150.01 z M 142.37,152.7 C 142.39,152.68 142.41,152.65 142.42,152.63 C 142.44,152.6 142.44,152.57 142.44,152.54 C 142.44,152.51 142.44,152.49 142.42,152.46 C 142.4,152.44 142.38,152.41 142.36,152.39 C 140.98,151.59 139.57,150.84 138.11,150.13 C 136.66,149.42 135.19,148.78 133.7,148.18 C 132.28,147.62 130.76,147.09 129.16,146.58 C 127.42,146.02 125.87,145.6 124.5,145.31 C 122.83,144.95 121.24,144.75 119.73,144.69 C 118.17,144.62 116.56,144.71 114.92,144.95 C 113.23,145.21 111.67,145.6 110.26,146.12 C 108.49,146.79 107.13,147.62 106.19,148.63 C 104.94,149.98 104.35,151.42 104.43,152.95 C 104.5,154.44 105.21,155.83 106.57,157.11 C 107.58,158.06 108.96,158.86 110.72,159.51 C 112.15,160.04 113.71,160.44 115.37,160.7 C 116.96,160.96 118.56,161.07 120.18,161.05 C 121.76,161.04 123.36,160.9 124.98,160.63 C 126.59,160.36 128.15,159.97 129.65,159.47 C 131.1,158.99 132.58,158.37 134.09,157.62 C 135.32,157.01 136.72,156.23 138.3,155.27 C 139.72,154.42 141.08,153.56 142.37,152.7 z M 157.62,147.27 C 157.59,147.29 157.57,147.31 157.56,147.33 C 157.55,147.36 157.54,147.39 157.54,147.42 C 157.55,147.45 157.56,147.47 157.57,147.5 C 157.58,147.53 157.6,147.55 157.63,147.57 C 159.01,148.38 160.43,149.13 161.88,149.83 C 163.33,150.54 164.8,151.19 166.29,151.77 C 167.71,152.33 169.22,152.86 170.83,153.37 C 172.56,153.92 174.11,154.34 175.48,154.64 C 177.18,155.0 178.77,155.22 180.25,155.28 C 181.81,155.35 183.41,155.26 185.06,155.01 C 186.75,154.76 188.31,154.37 189.72,153.84 C 191.5,153.17 192.85,152.33 193.78,151.32 C 195.03,149.98 195.61,148.55 195.54,147.0 C 195.47,145.51 194.76,144.12 193.41,142.84 C 192.41,141.9 191.03,141.1 189.26,140.45 C 187.81,139.92 186.26,139.52 184.6,139.26 C 183.03,139.01 181.42,138.89 179.8,138.91 C 178.21,138.92 176.61,139.06 175.0,139.34 C 173.39,139.6 171.84,139.99 170.32,140.49 C 168.87,140.97 167.39,141.59 165.89,142.34 C 164.71,142.93 163.3,143.71 161.68,144.69 C 160.22,145.57 158.86,146.43 157.62,147.27 z M 146.3,154.6 C 146.29,154.59 146.27,154.59 146.25,154.58 C 146.24,154.58 146.23,154.58 146.21,154.58 C 146.19,154.58 146.18,154.58 146.16,154.59 C 146.15,154.59 146.13,154.6 146.12,154.61 C 142.95,156.62 140.97,157.86 140.16,158.33 C 137.95,159.63 135.86,160.68 133.89,161.48 C 131.71,162.38 129.47,163.07 127.18,163.55 C 124.86,164.04 122.54,164.31 120.21,164.36 C 117.9,164.4 115.57,164.23 113.2,163.85 C 110.79,163.46 108.52,162.87 106.4,162.1 C 103.94,161.19 101.89,160.09 100.23,158.8 C 98.15,157.18 96.74,155.36 95.99,153.33 C 95.12,151.01 95.11,148.73 95.94,146.48 C 96.68,144.5 98.12,142.7 100.28,141.09 C 101.95,139.84 104.03,138.78 106.51,137.9 C 108.66,137.13 110.93,136.56 113.31,136.18 C 115.51,135.83 117.84,135.64 120.31,135.61 C 122.78,135.57 125.12,135.69 127.34,135.98 C 129.5,136.26 131.8,136.72 134.23,137.37 C 136.42,137.96 138.65,138.68 140.92,139.53 C 142.96,140.3 145.12,141.21 147.4,142.26 C 149.4,143.18 151.5,144.22 153.69,145.36 C 153.71,145.37 153.72,145.37 153.73,145.38 C 153.75,145.39 153.77,145.39 153.78,145.38 C 153.8,145.38 153.82,145.38 153.83,145.38 C 153.84,145.37 153.86,145.37 153.87,145.36 C 156.83,143.49 158.81,142.25 159.84,141.66 C 162.09,140.34 164.18,139.28 166.1,138.48 C 168.32,137.55 170.56,136.85 172.8,136.39 C 175.02,135.92 177.35,135.67 179.78,135.63 C 182.14,135.6 184.48,135.76 186.79,136.12 C 189.2,136.51 191.47,137.09 193.59,137.87 C 196.01,138.77 198.07,139.87 199.75,141.18 C 201.83,142.81 203.25,144.63 204.01,146.64 C 204.88,148.96 204.89,151.24 204.06,153.48 C 203.31,155.44 201.86,157.24 199.7,158.87 C 197.98,160.16 195.91,161.23 193.49,162.09 C 191.42,162.83 189.15,163.39 186.67,163.79 C 184.36,164.16 182.03,164.36 179.67,164.39 C 177.29,164.43 174.95,164.3 172.65,163.99 C 170.46,163.7 168.17,163.24 165.76,162.6 C 163.56,162.01 161.33,161.29 159.07,160.44 C 157.06,159.69 154.9,158.79 152.59,157.72 C 150.34,156.69 148.24,155.65 146.3,154.6 z" />

		<!-- Name One -->
		<text dy="0" style="stroke:none;fill:#f00;font-family:z_swan;font-size:16px;text-anchor:start;">
			<textPath id="txtStart2" startOffset="2%" xlink:href="#txtpath" class="txt" ></textPath>
		</text>
		
		<text dy="0" style="stroke:none;fill:#f00;font-family:z_swan;font-size:16px;text-anchor:middle;">
			<textPath id="txtMid2" startOffset="50%" xlink:href="#txtpath" class="txt" ></textPath>
		</text>
		
		<text dy="0" style="stroke:none;fill:#f00;font-family:z_swan;font-size:16px;text-anchor:end;">
			<textPath id="txtEnd2" startOffset="98%" xlink:href="#txtpath" class="txt" ></textPath>
		</text>

		<!-- Prism Reference -->
		<cam mingh:cam="--actions=EditSelectAll;ObjectToPath;ZoomPage;ZoomCenterPage;FileVacuum;FileSave; -g" mingh:style="source:microprism">M2</cam> 
	 </g>

</svg>
