<?xml version="1.0" encoding="UTF-8" standalone="no"?>

<svg
   xmlns:xlink="http://www.w3.org/1999/xlink"
   xmlns:svg="http://www.w3.org/2000/svg"
   xmlns="http://www.w3.org/2000/svg"
   xmlns:mingh="http://www.minghworld.com"
   width="300px"
   height="300px" >
   
	<defs>
		<!-- Birth -->
		<path id="birth" style="fill:#00f;stroke:none;"
         d="M 117.66,148.0 C 117.66,150.14 115.92,151.88 113.77,151.88 C 111.62,151.88 109.88,150.14 109.88,148.0 C 109.88,145.85 111.62,144.11 113.77,144.11 C 115.92,144.11 117.66,145.85 117.66,148.0 z" />
		 
		<!-- Diamond -->
		<path id="diamond" style="fill:none;stroke:#000;stroke-width:0.25px;"
         d="M 116.6,148.0 C 116.6,146.44 115.33,145.17 113.77,145.17 C 112.21,145.17 110.94,146.44 110.94,148.0 C 110.94,149.56 112.21,150.82 113.77,150.82 C 115.33,150.82 116.6,149.56 116.6,148.0 z" />
		 
		<!-- Text Path -->
		<path id="txtLeft" style="fill:none;stroke:#f0f;stroke-width:0.25px;"
		 d="M 115.67,155.55 C 131.19,179.48 164.3,156.63 177.34,174.44" />
		 <!-- Text Path -->
		<path id="txtRight" style="fill:none;stroke:#f0f;stroke-width:0.25px;"
		 d="M 156.44,119.49 C 166.95,111.38 185.03,116.49 185.91,132.68" />
	</defs>	
		
	 <g>	
		<!-- Shape -->
		<path id="shape" style="fill:none;stroke:#fb0;stroke-width:0.25px;"
		d="M 170.59,108.34 C 167.32,108.3 164.22,108.99 161.5,110.19 C 156.81,112.25 153.29,115.86 150.81,120.13 C 149.22,122.86 148.04,125.86 147.72,129.22 C 147.3,128.82 146.86,128.45 146.41,128.09 C 144.48,126.59 142.25,125.48 140.03,124.72 C 137.55,123.87 135.08,123.46 132.47,123.44 C 127.93,123.4 122.98,124.53 118.84,127.06 C 116.43,128.54 114.31,130.48 112.59,132.75 C 110.86,135.05 109.54,137.67 108.88,140.41 C 108.48,142.03 108.32,143.71 108.31,145.38 C 108.3,146.58 108.39,147.79 108.53,148.97 C 108.72,150.59 109.02,152.15 109.53,153.72 C 110.04,155.3 110.75,156.86 111.59,158.34 C 112.76,160.39 114.19,162.25 115.84,163.88 C 117.49,165.5 119.37,166.9 121.38,168.06 C 122.96,168.98 124.65,169.75 126.38,170.38 C 127.8,170.89 129.27,171.32 130.75,171.66 C 132.84,172.13 134.93,172.44 137.06,172.63 C 138.86,172.78 140.67,172.84 142.47,172.84 C 144.23,172.85 145.99,172.81 147.75,172.72 C 149.17,172.65 150.61,172.55 152.03,172.47 C 152.54,172.44 153.03,172.4 153.53,172.38 C 153.71,173.83 153.98,175.26 154.41,176.66 C 154.84,178.09 155.44,179.48 156.19,180.78 C 157.16,182.48 158.41,184.04 159.84,185.38 C 161.43,186.84 163.26,188.04 165.22,188.94 C 166.26,189.42 167.34,189.8 168.44,190.13 C 169.95,190.57 171.47,190.87 173.03,191.09 C 174.06,191.24 175.12,191.35 176.16,191.44 C 177.16,191.52 178.18,191.6 179.38,191.66 C 179.7,190.47 179.98,189.43 180.25,188.38 C 180.8,186.23 181.28,184.08 181.56,181.91 C 181.76,180.38 181.85,178.83 181.81,177.41 C 181.78,176.1 181.63,174.89 181.31,173.69 C 181.02,172.57 180.6,171.45 180.0,170.31 C 179.86,170.05 179.69,169.77 179.53,169.5 C 181.31,165.94 183.34,161.51 185.19,156.97 C 189.02,147.53 192.06,137.64 191.66,128.47 C 191.47,124.18 190.53,120.04 187.19,116.06 C 185.88,114.51 184.21,112.98 182.34,111.78 C 180.55,110.63 178.56,109.78 176.59,109.22 C 174.57,108.64 172.56,108.37 170.59,108.34 z M 164.53,120.5 C 164.87,120.49 165.19,120.49 165.53,120.5 C 166.43,120.52 167.36,120.6 168.25,120.75 C 171.32,121.26 174.25,122.56 176.53,124.59 C 180.13,127.8 182.12,132.81 182.78,137.63 C 183.56,143.3 182.49,148.72 181.34,153.53 C 180.47,157.19 179.56,160.5 177.69,167.09 C 176.97,166.37 176.12,165.69 175.25,165.09 C 173.74,164.07 172.1,163.23 170.47,162.63 C 168.44,161.87 166.43,161.46 164.41,161.22 C 162.5,160.99 160.58,160.91 158.66,160.91 C 158.07,160.91 157.46,160.93 156.88,160.94 C 156.8,158.21 156.77,155.47 156.53,152.75 C 156.25,149.6 155.7,146.48 154.94,143.41 C 154.36,141.08 153.68,138.79 152.72,136.59 C 151.93,134.8 150.97,133.06 149.78,131.5 C 151.48,126.8 154.01,123.66 157.94,121.94 C 159.89,121.08 162.18,120.58 164.53,120.5 z M 134.5,130.22 C 136.3,130.28 138.07,130.6 139.75,131.22 C 141.53,131.88 143.2,132.87 144.66,134.09 C 145.95,135.18 147.08,136.45 148.03,137.84 C 149.06,139.34 149.89,140.96 150.53,142.66 C 151.32,144.74 151.81,146.93 152.16,149.13 C 152.49,151.22 152.71,153.32 152.84,155.44 C 152.97,157.31 153.04,159.18 153.09,161.06 C 152.66,161.08 152.21,161.13 151.78,161.16 C 150.31,161.24 148.85,161.33 147.38,161.41 C 145.56,161.5 143.75,161.55 141.94,161.53 C 140.2,161.51 138.47,161.42 136.75,161.22 C 135.26,161.04 133.77,160.79 132.31,160.41 C 130.47,159.92 128.68,159.24 127.03,158.28 C 125.73,157.52 124.51,156.59 123.47,155.5 C 122.4,154.39 121.52,153.11 120.84,151.72 C 119.99,149.97 119.5,148.05 119.38,146.09 C 119.28,144.59 119.4,143.06 119.72,141.59 C 120.21,139.31 121.15,137.12 122.63,135.28 C 123.61,134.06 124.84,132.99 126.19,132.19 C 128.16,131.01 130.41,130.41 132.69,130.25 C 133.29,130.21 133.9,130.2 134.5,130.22 z M 113.94,135.0 C 114.04,134.98 114.15,135.0 114.25,135.0 C 114.45,135.0 114.63,135.02 114.81,135.09 C 115.0,135.17 115.17,135.29 115.31,135.44 C 115.46,135.58 115.58,135.75 115.66,135.94 C 115.73,136.12 115.78,136.33 115.78,136.53 C 115.78,136.73 115.73,136.94 115.66,137.13 C 115.58,137.31 115.46,137.48 115.31,137.63 C 115.17,137.77 115.0,137.89 114.81,137.97 C 114.63,138.05 114.45,138.06 114.25,138.06 C 114.05,138.06 113.84,138.05 113.66,137.97 C 113.47,137.89 113.3,137.77 113.16,137.63 C 113.01,137.48 112.89,137.31 112.81,137.13 C 112.74,136.94 112.69,136.73 112.69,136.53 C 112.69,136.33 112.74,136.12 112.81,135.94 C 112.89,135.75 113.01,135.58 113.16,135.44 C 113.3,135.29 113.47,135.17 113.66,135.09 C 113.75,135.06 113.84,135.02 113.94,135.0 z M 187.38,135.0 C 187.47,134.98 187.59,135.0 187.69,135.0 C 187.89,135.0 188.09,135.02 188.28,135.09 C 188.47,135.17 188.64,135.29 188.78,135.44 C 188.92,135.58 189.05,135.75 189.13,135.94 C 189.2,136.12 189.22,136.33 189.22,136.53 C 189.22,136.73 189.2,136.94 189.13,137.13 C 189.05,137.31 188.92,137.48 188.78,137.63 C 188.64,137.77 188.47,137.89 188.28,137.97 C 188.09,138.05 187.89,138.06 187.69,138.06 C 187.49,138.06 187.28,138.05 187.09,137.97 C 186.91,137.89 186.74,137.77 186.59,137.63 C 186.45,137.48 186.33,137.31 186.25,137.13 C 186.17,136.94 186.13,136.73 186.13,136.53 C 186.13,136.33 186.17,136.12 186.25,135.94 C 186.33,135.75 186.45,135.58 186.59,135.44 C 186.74,135.29 186.91,135.17 187.09,135.09 C 187.19,135.06 187.28,135.02 187.38,135.0 z M 157.47,172.25 C 158.35,172.24 159.21,172.24 160.09,172.25 C 161.81,172.28 163.55,172.33 165.25,172.66 C 166.79,172.95 168.3,173.49 169.66,174.28 C 170.34,174.68 171.0,175.13 171.56,175.69 C 172.15,176.26 172.64,176.94 173.03,177.66 C 173.37,178.27 173.62,178.92 173.81,179.59 C 174.06,180.47 174.18,181.38 174.22,182.31 C 174.25,183.09 174.23,183.86 174.16,184.63 C 174.07,185.58 173.93,186.52 173.78,187.44 C 172.99,187.29 172.21,187.11 171.44,186.91 C 169.53,186.4 167.64,185.71 165.91,184.78 C 164.32,183.93 162.85,182.84 161.59,181.53 C 160.18,180.06 159.06,178.32 158.38,176.41 C 157.9,175.07 157.64,173.66 157.47,172.25 z" />
		
		<!-- Name One -->
		<text dy="2" style="stroke:none;fill:#f00;font-family:z_swan;font-size:19px;text-anchor:middle;">
			<textPath id="txtLeft1" startOffset="50%" xlink:href="#txtLeft" class="txt" ></textPath>
		</text>
		
		<text dy="1" style="stroke:none;fill:#f00;font-family:z_swan;font-size:17px;text-anchor:middle;">
			<textPath id="txtRight1" startOffset="50%" xlink:href="#txtRight" class="txt" ></textPath>
		</text>
		
		<!-- Prism Reference -->
		<cam mingh:cam="--actions=EditSelectAll;ObjectToPath;ZoomPage;ZoomCenterPage;FileVacuum;FileSave; -g" mingh:style="source:microprism">M2</cam> 
	 </g>

</svg>
