<?xml version="1.0" encoding="UTF-8" standalone="no"?>

<svg
   xmlns:mingh="http://www.minghworld.com"
   xmlns:xlink="http://www.w3.org/1999/xlink"
   xmlns:svg="http://www.w3.org/2000/svg"
   xmlns="http://www.w3.org/2000/svg"
   width="300px"
   height="300px" >
  
    <g>
		<!-- shape -->
		<path id="shape" style="stroke:#fb0;stroke-width:0.25px" fill="none"
		   d="M 127.19,135.06 C 125.05,135.19 122.97,136.08 121.59,137.75 120.21,139.51 119.66,142.03 117.5,143.09 117.02,142.68 116.73,142.09 116.28,141.66 116.11,141.49 115.84,141.38 115.59,141.44 115.18,141.53 114.91,141.88 114.69,142.22 114.6,142.35 114.51,142.49 114.44,142.63 114.02,142.36 113.59,141.95 113.06,142.03 112.49,142.2 112.29,142.85 112.19,143.38 111.94,144.82 112.09,146.32 112.38,147.75 112.71,149.38 113.24,151.0 114.03,152.47 112.52,151.86 111.0,151.27 109.56,150.69 110.4,149.46 111.27,148.08 111.22,146.53 111.13,144.77 110.22,143.16 109.09,141.84 108.26,140.9 107.25,140.15 106.19,139.5 105.77,139.32 105.36,138.93 104.88,139.0 104.35,138.98 103.93,139.37 103.63,139.75 103.27,140.21 103.23,141.01 103.19,141.66 103.17,141.96 103.23,142.39 103.28,142.69 103.16,142.52 103.05,142.36 102.91,142.22 102.27,141.59 101.37,141.19 100.41,141.19 98.45,141.19 96.88,142.79 96.88,144.75 96.88,145.84 97.39,146.79 98.16,147.44 97.72,147.98 97.66,148.73 97.22,149.28 96.81,149.75 96.02,149.79 95.75,150.41 95.42,151.0 95.33,151.77 95.59,152.41 95.75,152.78 96.19,152.89 96.53,153.03 97.6,153.44 98.62,153.85 99.72,154.19 100.86,154.55 102.02,154.94 103.16,155.31 101.92,155.41 100.89,156.17 100.09,157.06 99.52,157.67 98.98,158.38 98.25,158.81 98.01,159.01 97.84,159.35 97.97,159.66 98.12,160.24 98.75,160.49 99.25,160.69 100.41,161.21 101.74,161.05 102.91,160.66 104.1,160.24 105.25,159.55 106.03,158.53 105.71,159.36 105.64,160.25 105.78,161.13 105.89,161.8 106.14,162.45 106.5,163.03 106.77,163.32 106.93,163.82 107.34,163.94 107.61,164.01 107.93,163.89 108.09,163.66 108.63,163.18 108.9,162.53 109.22,161.91 109.5,161.26 109.59,160.57 109.63,159.88 109.66,159.14 109.5,158.41 109.13,157.78 109.03,157.56 108.77,157.25 108.72,157.09 115.79,159.41 122.9,161.76 130.31,162.69 145.02,165.07 160.16,164.41 174.72,161.34 178.8,160.43 182.73,159.07 186.69,157.75 185.91,158.63 185.25,159.66 185.06,160.84 184.93,161.6 185.07,162.35 185.19,163.09 185.24,163.51 185.24,163.96 185.06,164.34 185.02,164.64 185.31,164.98 185.63,164.97 186.04,164.89 186.43,164.63 186.81,164.47 187.43,164.1 187.98,163.65 188.44,163.09 189.09,162.3 189.43,161.3 189.53,160.28 189.64,159.32 189.58,158.32 189.25,157.41 189.96,158.09 190.61,158.93 191.59,159.22 192.46,159.46 193.4,159.19 194.22,158.88 195.2,158.49 196.03,157.79 196.72,157.0 196.87,156.75 197.22,156.55 197.09,156.22 196.97,155.82 196.71,155.47 196.31,155.31 195.62,155.02 194.8,155.03 194.06,155.16 196.34,154.41 198.73,154.26 201.09,154.0 202.21,153.59 201.71,151.84 200.78,151.5 199.52,151.03 198.21,151.74 196.94,151.88 194.3,152.43 191.73,153.14 189.16,153.91 189.44,153.65 189.78,153.29 190.03,152.97 190.43,152.45 190.99,151.79 190.81,151.0 190.74,150.66 190.51,150.43 190.25,150.34 190.55,150.28 190.85,150.22 191.16,150.16 193.34,149.75 195.55,150.18 197.75,149.91 198.83,149.79 200.03,149.94 201.0,149.38 201.28,149.15 201.46,148.79 201.44,148.44 203.19,148.22 204.53,146.75 204.53,144.94 204.53,142.98 202.96,141.41 201.0,141.41 199.54,141.41 198.29,142.27 197.75,143.53 197.61,143.33 197.25,142.24 197.13,142.03 196.91,141.67 196.68,141.31 196.41,141.0 196.22,140.84 195.98,141.0 195.84,141.16 195.29,141.63 194.95,142.25 194.66,142.91 194.41,143.46 194.24,144.08 194.22,144.69 193.89,143.45 193.29,142.26 192.38,141.34 191.13,140.01 189.38,139.21 187.59,138.94 187.22,138.89 186.75,138.7 186.44,139.0 186.13,139.33 186.21,139.87 186.19,140.28 186.39,143.0 187.73,145.74 190.03,147.13 190.33,147.3 190.64,147.44 190.97,147.56 182.99,148.84 175.61,152.26 168.31,155.56 165.84,156.7 163.38,157.89 160.94,159.09 159.99,159.21 159.04,159.34 158.09,159.41 159.33,158.17 160.39,156.72 161.22,155.19 161.7,154.26 162.1,153.27 162.13,152.22 162.12,151.84 161.93,151.36 161.5,151.34 161.08,151.29 160.66,151.4 160.25,151.5 160.19,150.96 160.11,150.33 159.63,150.0 159.23,149.75 158.79,149.98 158.44,150.19 158.13,150.37 157.81,150.58 157.47,150.72 156.14,149.13 156.27,146.96 156.0,145.03 155.49,142.14 153.0,139.89 150.22,139.22 147.71,138.56 144.85,139.19 142.91,140.94 140.91,142.63 139.94,145.16 139.19,147.59 139.07,147.91 138.86,148.22 138.53,148.34 138.2,148.5 137.78,148.45 137.5,148.72 137.32,148.91 137.35,149.22 137.53,149.41 137.78,149.7 138.17,149.81 138.47,150.03 138.8,150.24 139.15,150.45 139.5,150.63 139.38,152.02 139.86,153.36 140.53,154.56 141.7,156.62 143.51,158.27 145.47,159.56 138.81,159.01 130.89,158.45 124.75,156.53 127.56,156.07 130.43,155.1 132.59,153.19 133.46,152.4 134.21,151.5 134.59,150.38 135.15,150.34 135.69,150.25 136.25,150.19 136.56,150.17 136.92,150.11 137.13,149.84 137.33,149.58 137.23,149.19 136.97,149.0 136.78,148.85 136.55,148.77 136.41,148.56 136.19,148.3 136.09,147.96 136.13,147.63 136.25,145.29 136.51,142.86 135.66,140.63 134.84,138.24 132.93,136.25 130.5,135.5 129.74,135.24 128.91,135.1 128.09,135.06 127.79,135.05 127.49,135.04 127.19,135.06 z M 100.44,143.31 C 101.22,143.31 101.84,143.97 101.84,144.75 101.84,145.53 101.22,146.16 100.44,146.16 99.65,146.16 99.03,145.53 99.03,144.75 99.03,143.97 99.65,143.31 100.44,143.31 z M 201.0,143.53 C 201.78,143.53 202.44,144.15 202.44,144.94 202.44,145.72 201.78,146.38 201.0,146.38 200.22,146.38 199.59,145.72 199.59,144.94 199.59,144.15 200.22,143.53 201.0,143.53 z M 103.97,144.75 C 104.19,145.25 104.89,146.19 105.31,146.59 106.24,147.49 107.51,148.22 107.75,149.28 107.8,149.49 107.8,149.74 107.78,149.97 106.74,149.53 105.73,149.08 104.66,148.63 104.04,148.37 103.19,148.05 102.41,147.69 103.35,147.05 103.97,145.97 103.97,144.75 z M 133.34,144.97 C 133.75,144.95 134.18,145.12 134.38,145.5 134.53,145.79 134.55,146.17 134.31,146.41 134.0,146.74 133.45,146.85 133.06,146.59 132.73,146.39 132.51,145.98 132.63,145.59 132.72,145.26 132.99,144.99 133.34,144.97 z M 197.63,146.0 C 197.87,146.45 198.25,146.88 198.66,147.19 198.47,147.2 198.27,147.25 198.06,147.28 197.74,147.33 197.41,147.36 196.97,147.41 197.31,146.86 197.49,146.39 197.63,146.0 z M 142.03,146.38 C 142.38,146.33 142.78,146.44 143.0,146.72 143.24,147.06 143.14,147.57 142.81,147.81 142.5,148.05 142.05,148.04 141.72,147.84 141.4,147.65 141.21,147.25 141.38,146.91 141.48,146.63 141.73,146.4 142.03,146.38 z M 194.5,146.47 C 194.67,146.84 194.92,147.26 195.03,147.44 194.93,147.43 194.51,147.51 194.41,147.5 194.56,147.27 194.53,146.65 194.5,146.47 z M 188.59,150.78 C 188.47,150.91 188.2,151.25 188.15,151.38 187.83,152.08 188.29,152.08 187.47,153.19 186.63,154.31 185.69,154.82 185.28,155.03 183.24,155.67 181.62,156.25 179.56,156.84 176.05,157.78 172.41,158.34 168.81,158.81 171.83,157.34 174.96,156.01 178.0,154.59 181.44,153.09 184.96,151.73 188.59,150.78 z M 193.06,155.53 C 192.54,155.88 191.32,156.91 190.66,156.94 190.35,156.94 190.03,156.8 189.72,156.63 190.86,156.24 191.95,155.85 193.06,155.53 z M 105.84,156.19 C 106.27,156.33 106.73,156.46 107.16,156.59 106.97,156.86 106.77,157.08 106.63,157.31 106.64,157.17 106.64,157.06 106.59,156.94 106.49,156.64 106.2,156.4 105.84,156.19 z" />

		<text style="font-size:13px;fill:#f00;stroke:none;font-family:Nyala;text-anchor:middle" transform="matrix(1 0.43 -0.43 1 120.4 153.5)" id="txt1" class="txt" />
		<text style="font-size:13.1px;fill:#f00;stroke:none;font-family:Nyala;text-anchor:middle" transform="matrix(1 0 0 1 150.3 158.5)" id="txt2" class="txt" />
			
		<!-- Prism Reference -->
		<cam mingh:cam="--actions=EditSelectAll;ObjectToPath;ZoomPage;ZoomCenterPage;FileVacuum;FileSave; -g" mingh:style="source:microprism">M2</cam> 
	</g>
  
</svg>
