<?xml version="1.0" encoding="UTF-8" standalone="no"?>

<svg
   xmlns:xlink="http://www.w3.org/1999/xlink"
   xmlns:svg="http://www.w3.org/2000/svg"
   xmlns="http://www.w3.org/2000/svg"
   xmlns:mingh="http://www.minghworld.com"
   width="300px"
   height="300px" >
   
	<g>
		<!-- Name One -->
		<path id="shape" style="fill:none;stroke:#fb0;stroke-width:0.25px;"
			d="M 150.0,118.25 C 132.39,118.25 118.19,132.43 118.19,149.94 118.19,167.44 132.39,181.75 150.0,181.75 167.61,181.75 181.81,167.44 181.81,149.94 181.81,132.43 167.61,118.25 150.0,118.25 z M 150.0,120.72 C 151.76,120.72 153.19,122.13 153.19,123.88 153.19,125.63 151.76,127.06 150.0,127.06 148.24,127.06 146.81,125.63 146.81,123.88 146.81,122.13 148.24,120.72 150.0,120.72 z" />
		
		<text id="txt1" style="stroke:none;fill:#00f;font-family:z_ariola;font-size:7px;text-anchor:middle;" transform="matrix(1 0 0 1 150 150)" class="txt" />
	
		<!-- Prism Reference -->
		<cam mingh:cam="--actions=EditSelectAll;ObjectToPath;ZoomPage;ZoomCenterPage;FileVacuum;FileSave; -g" mingh:style="source:microprism">M2</cam> 	 
	</g>

</svg>