<?xml version="1.0" encoding="UTF-8" standalone="no"?>

<svg
   xmlns:xlink="http://www.w3.org/1999/xlink"
   xmlns:svg="http://www.w3.org/2000/svg"
   xmlns="http://www.w3.org/2000/svg"
   xmlns:mingh="http://www.minghworld.com"
   width="300px"
   height="300px" >

	<defs> 
		
			
		<path id="birth" style="fill:#00f;stroke:none"  
		   d="M 153.74,113.9 C 153.74,115.96 152.06,117.64 150.0,117.64 C 147.94,117.64 146.26,115.96 146.26,113.9 C 146.26,111.84 147.94,110.16 150.0,110.16 C 152.06,110.16 153.74,111.84 153.74,113.9 z"/>
		   
		<path id="diamond" style="fill:none;stroke:#000;stroke-width:0.25px"  
		   d="M 152.72,113.9 C 152.72,115.4 151.5,116.62 150.0,116.62 C 148.5,116.62 147.28,115.4 147.28,113.9 C 147.28,112.4 148.5,111.18 150.0,111.18 C 151.5,111.18 152.72,112.4 152.72,113.9 z"/>

		<path id="txtPath" style="fill:none;stroke:#fb0;stroke-width:0.25px;stroke-linejoin:round"
			d="M 116.92,130.85 C 112.43,137.42 109.8,145.4 109.8,154 C 109.8,176.51 127.8,194.75 150,194.75 C 172.2,194.75 190.2,176.51 190.2,154 L 190.2,154 L 190.2,154 C 190.2,145.4 187.57,137.42 183.08,130.85" />   
		</defs> 	

		<g>
			<path id="shape" style="fill:none;stroke:#fb0;stroke-width:0.25px;stroke-linejoin:round"
				d="M 150.0,99.72 C 148.06,99.72 146.28,100.83 145.41,102.56 C 144.54,104.3 144.72,106.38 145.88,107.94 C 146.01,108.11 145.9,108.36 145.69,108.38 C 139.85,108.93 134.16,110.57 128.94,113.25 C 123.72,115.93 119.07,119.58 115.22,124.0 C 107.46,132.94 103.44,144.54 104.0,156.38 C 104.27,162.24 105.65,167.97 108.09,173.31 C 110.52,178.65 113.97,183.48 118.22,187.53 C 122.46,191.58 127.44,194.78 132.88,196.97 C 138.32,199.15 144.13,200.28 150.0,200.28 C 155.87,200.28 161.68,199.15 167.13,196.97 C 172.57,194.78 177.54,191.58 181.78,187.53 C 186.03,183.48 189.48,178.65 191.91,173.31 C 194.35,167.97 195.73,162.24 196.0,156.38 C 196.56,144.54 192.54,132.94 184.78,124.0 C 180.93,119.58 176.28,115.93 171.06,113.25 C 165.84,110.57 160.15,108.93 154.31,108.38 C 154.1,108.36 154.0,108.11 154.13,107.94 C 155.29,106.38 155.46,104.3 154.59,102.56 C 153.72,100.83 151.94,99.72 150.0,99.72 z M 150.0,101.69 C 151.76,101.69 153.19,103.12 153.19,104.88 C 153.19,106.64 151.76,108.06 150.0,108.06 C 148.24,108.06 146.81,106.64 146.81,104.88 C 146.81,103.12 148.24,101.69 150.0,101.69 z M 148.94,119.5 C 149.32,119.49 149.71,119.5 150.09,119.5 L 150.56,119.5 C 150.64,119.5 150.73,119.49 150.81,119.5 C 150.88,119.5 150.92,119.51 150.97,119.56 C 151.03,119.62 151.04,119.71 151.0,119.78 C 150.78,120.13 150.64,120.41 150.53,120.81 C 150.49,120.98 150.46,121.16 150.44,121.34 C 150.43,121.43 150.41,121.53 150.41,121.63 C 150.41,121.73 150.45,121.83 150.38,121.94 C 150.32,122.02 150.21,122.04 150.13,121.97 C 150.06,121.91 150.0,121.82 149.94,121.75 C 149.82,121.6 149.68,121.47 149.56,121.34 C 149.3,121.06 149.02,120.79 148.75,120.53 C 148.61,120.4 148.49,120.25 148.34,120.13 L 148.13,119.97 C 148.07,119.92 147.95,119.85 147.94,119.75 C 147.93,119.67 147.98,119.59 148.06,119.56 C 148.11,119.55 148.17,119.54 148.22,119.53 C 148.3,119.53 148.39,119.53 148.47,119.53 C 148.63,119.52 148.78,119.51 148.94,119.5 z M 154.31,119.75 C 156.58,120.04 158.83,120.56 161.0,121.28 C 163.18,122.01 165.29,122.95 167.28,124.09 C 167.38,124.14 167.4,124.29 167.34,124.38 C 166.63,125.33 165.84,126.07 164.78,126.63 C 164.52,126.77 164.27,126.89 164.0,127.0 C 163.74,127.1 163.45,127.17 163.19,127.28 C 163.06,127.33 162.96,127.44 162.81,127.44 C 162.62,127.44 162.53,127.29 162.63,127.13 C 162.66,127.06 162.71,127.03 162.75,126.97 C 162.79,126.91 162.84,126.85 162.88,126.78 C 162.95,126.66 163.0,126.51 163.06,126.38 C 163.31,125.86 163.48,125.34 163.53,124.75 C 163.56,124.41 163.54,123.37 163.5,123.03 C 163.45,122.69 163.36,122.49 162.97,122.5 C 162.72,122.5 162.37,122.65 162.16,122.75 C 161.64,123.02 161.19,123.37 160.78,123.78 C 159.95,124.62 159.45,125.63 159.31,126.81 C 159.27,127.1 159.26,127.37 159.25,127.66 C 159.25,127.8 159.24,127.95 159.25,128.09 C 159.26,128.17 159.31,128.45 159.25,128.53 C 159.21,128.59 158.93,128.67 158.88,128.69 C 158.74,128.74 158.6,128.79 158.47,128.84 C 158.2,128.95 157.92,129.07 157.66,129.19 C 157.14,129.43 156.64,129.7 156.16,130.03 C 155.69,130.35 155.28,130.72 154.88,131.13 C 154.78,131.24 154.66,131.37 154.56,131.47 C 154.47,131.59 154.33,131.65 154.19,131.56 C 154.05,131.47 154.03,131.29 154.03,131.16 C 154.02,131.01 154.0,130.89 153.97,130.75 C 153.87,130.18 153.85,129.61 153.91,129.03 C 153.94,128.74 153.97,128.47 154.06,128.19 C 154.14,127.92 154.28,127.65 154.38,127.38 C 154.43,127.24 154.45,127.13 154.59,127.03 C 154.65,126.99 154.74,126.98 154.81,126.97 C 154.89,126.96 154.96,126.96 155.03,126.94 C 155.31,126.88 155.58,126.79 155.84,126.69 C 156.91,126.27 157.84,125.48 158.44,124.5 C 158.74,124.01 158.94,123.5 159.09,122.94 C 159.17,122.67 159.22,122.38 159.28,122.09 C 159.33,121.82 159.34,121.47 159.0,121.38 C 158.54,121.25 157.71,121.48 157.31,121.63 C 156.76,121.83 156.3,122.11 155.84,122.47 C 154.86,123.24 154.35,124.14 154.0,125.31 C 153.96,125.44 153.91,125.58 153.88,125.72 C 153.85,125.86 153.82,126.0 153.75,126.13 C 153.68,126.26 153.62,126.37 153.56,126.5 C 153.49,126.63 153.44,126.75 153.38,126.88 C 153.35,126.95 153.33,127.03 153.28,127.09 C 153.24,127.15 153.16,127.18 153.09,127.16 C 153.0,127.13 152.97,127.07 152.94,127.0 C 152.92,126.93 152.91,126.88 152.88,126.81 C 152.76,126.55 152.64,126.26 152.53,126.0 C 152.41,125.74 152.28,125.51 152.16,125.25 C 152.1,125.12 152.04,125.0 151.97,124.88 C 151.87,124.7 151.95,124.6 152.09,124.5 C 152.48,124.23 153.0,123.64 153.25,123.25 C 153.89,122.26 154.14,121.1 154.09,119.94 C 154.08,119.83 154.2,119.74 154.31,119.75 z M 144.72,119.91 C 144.76,119.91 144.8,119.91 144.84,119.94 C 145.69,120.45 146.47,121.0 147.22,121.66 C 148.04,122.4 148.51,122.97 149.13,123.88 C 149.26,124.08 149.39,124.3 149.53,124.5 C 149.6,124.6 149.67,124.67 149.72,124.78 C 149.74,124.84 149.77,124.9 149.75,124.97 C 149.73,125.03 149.69,125.09 149.63,125.09 C 149.51,125.11 149.37,125.02 149.28,124.97 C 149.18,124.92 149.06,124.88 148.94,124.84 C 148.71,124.75 148.49,124.7 148.25,124.66 C 147.77,124.57 147.27,124.51 146.78,124.56 C 146.6,124.58 145.54,124.77 145.38,124.81 C 145.19,124.85 144.85,124.95 144.72,125.13 C 144.58,125.32 144.7,125.68 144.78,125.84 C 144.96,126.2 145.46,126.68 145.75,126.94 C 146.49,127.61 147.34,128.06 148.31,128.25 C 148.8,128.35 149.28,128.36 149.78,128.31 C 150.02,128.28 150.26,128.24 150.5,128.19 C 150.62,128.16 150.72,128.15 150.84,128.13 C 150.95,128.1 151.09,128.05 151.16,128.19 C 151.24,128.33 151.59,129.44 151.63,129.59 C 151.7,129.83 151.75,130.05 151.81,130.28 C 151.86,130.52 151.9,130.77 151.94,131.0 C 151.96,131.06 151.98,131.1 152.0,131.16 C 152.02,131.23 152.03,131.32 152.03,131.38 C 152.04,131.51 151.94,131.61 151.81,131.56 C 151.75,131.54 151.57,131.35 151.53,131.31 L 151.25,131.06 C 150.87,130.75 150.48,130.51 150.03,130.31 C 149.51,130.08 149.18,130.0 148.63,129.91 C 148.39,129.88 148.15,129.84 147.91,129.81 C 147.73,129.79 147.36,129.77 147.19,129.91 C 147.02,130.06 147.03,130.46 147.06,130.63 C 147.09,130.87 147.19,131.09 147.28,131.31 C 147.45,131.77 147.65,132.19 147.94,132.59 C 148.49,133.38 149.31,134.03 150.19,134.41 C 150.65,134.61 151.11,134.7 151.59,134.78 C 151.71,134.8 151.83,134.83 151.94,134.84 C 152.01,134.85 152.25,134.89 152.31,134.94 C 152.38,135.02 152.38,135.2 152.38,135.28 C 152.35,135.4 152.34,135.54 152.34,135.66 C 152.33,135.91 152.32,136.14 152.31,136.38 C 152.29,136.63 152.28,136.89 152.25,137.13 L 152.22,137.47 C 152.22,137.59 152.2,137.72 152.19,137.84 C 152.16,138.11 152.0,138.32 151.72,138.31 C 151.49,138.3 151.25,138.01 151.13,137.88 C 150.95,137.71 150.77,137.54 150.59,137.38 C 150.24,137.04 149.87,136.73 149.5,136.41 C 148.77,135.78 148.0,135.15 147.25,134.53 C 145.74,133.29 144.37,131.94 143.66,130.0 C 143.31,129.06 143.18,128.13 143.19,127.13 C 143.21,126.16 143.32,125.21 143.44,124.25 C 143.48,123.95 143.62,122.94 143.38,122.63 C 143.24,122.45 142.95,122.46 142.78,122.59 C 142.6,122.73 142.5,123.0 142.44,123.19 C 142.28,123.66 142.14,124.15 142.03,124.63 C 142.0,124.75 141.97,124.85 141.94,124.97 C 141.92,125.06 141.91,125.22 141.78,125.25 C 141.63,125.28 141.58,125.16 141.53,125.06 C 141.49,124.95 141.44,124.83 141.38,124.72 C 141.14,124.3 140.84,123.91 140.5,123.56 C 140.15,123.21 139.75,122.98 139.34,122.72 C 139.14,122.59 138.93,122.45 138.72,122.34 C 138.55,122.25 138.27,122.09 138.06,122.25 C 137.7,122.51 137.67,123.25 137.66,123.59 C 137.63,124.58 137.85,125.54 138.34,126.41 C 138.58,126.84 138.86,127.24 139.22,127.59 C 139.57,127.94 139.97,128.19 140.38,128.44 C 140.59,128.57 140.79,128.72 141.0,128.84 C 141.11,128.9 141.22,128.93 141.31,129.0 C 141.42,129.08 141.41,129.24 141.41,129.34 C 141.42,129.74 141.54,130.39 141.63,130.78 C 141.69,131.02 141.75,131.27 141.84,131.5 C 141.88,131.61 141.93,131.71 141.94,131.84 C 141.95,131.97 141.88,132.07 141.75,132.13 C 141.61,132.17 141.5,132.11 141.38,132.06 C 141.26,132.02 141.17,131.99 141.06,131.94 C 140.84,131.85 140.63,131.73 140.41,131.63 C 139.55,131.2 138.72,130.73 137.78,130.47 C 137.55,130.4 137.3,130.34 137.06,130.28 C 136.95,130.25 136.84,130.24 136.72,130.22 C 136.61,130.2 136.47,130.16 136.47,130.0 C 136.48,129.87 136.52,129.77 136.56,129.66 C 136.61,129.55 136.64,129.43 136.66,129.31 C 136.72,129.07 136.76,128.83 136.78,128.59 C 137.0,126.49 136.08,124.68 134.41,123.47 C 134.3,123.4 134.32,123.25 134.44,123.19 C 136.01,122.4 137.66,121.73 139.34,121.19 C 141.1,120.62 142.89,120.19 144.72,119.91 z M 133.44,123.72 C 133.55,123.73 133.65,123.85 133.59,123.97 C 133.25,124.8 133.09,125.69 133.16,126.59 C 133.19,127.04 133.27,127.48 133.41,127.91 C 133.48,128.12 133.56,128.32 133.66,128.53 C 133.71,128.63 133.78,128.74 133.84,128.84 C 133.9,128.94 133.97,129.01 134.0,129.13 C 134.02,129.25 133.9,129.34 133.78,129.31 C 133.72,129.3 133.52,129.19 133.47,129.16 C 133.29,129.05 133.12,128.92 132.94,128.78 C 132.59,128.5 132.29,128.19 132.0,127.84 C 131.42,127.12 131.03,126.33 130.78,125.44 C 130.75,125.37 130.77,125.29 130.84,125.25 C 131.3,124.94 131.78,124.66 132.25,124.38 C 132.61,124.16 132.98,123.95 133.34,123.75 C 133.38,123.73 133.4,123.71 133.44,123.72 z M 168.63,124.97 C 168.67,124.96 168.74,124.97 168.78,125.0 C 170.08,125.83 171.3,126.76 172.47,127.75 C 173.58,128.69 174.62,129.68 175.59,130.75 C 175.7,130.87 175.6,131.08 175.44,131.06 C 174.55,130.99 173.63,131.06 172.78,131.38 C 172.36,131.54 171.99,131.77 171.63,132.03 C 171.54,132.09 171.43,132.15 171.34,132.22 C 171.3,132.25 171.27,132.27 171.22,132.31 C 171.18,132.35 171.15,132.39 171.09,132.41 C 170.98,132.46 170.89,132.4 170.88,132.28 C 170.88,132.16 170.89,132.05 170.91,131.94 C 170.94,131.72 170.93,131.5 170.94,131.28 C 170.94,131.08 170.99,130.89 171.0,130.69 C 171.01,130.43 170.94,130.1 170.63,130.0 C 170.36,129.91 170.12,130.14 170.0,130.34 C 169.84,130.62 169.75,131.11 169.66,131.41 C 169.23,132.82 168.43,134.37 167.47,135.5 C 166.96,136.1 166.38,136.62 165.75,137.09 C 165.12,137.55 164.46,137.95 163.81,138.38 C 163.15,138.81 162.54,139.27 161.94,139.78 C 161.87,139.84 161.79,139.9 161.72,139.97 C 161.65,140.03 161.58,140.1 161.47,140.06 C 161.34,140.0 161.34,139.91 161.34,139.81 C 161.34,139.71 161.35,139.6 161.34,139.5 C 161.33,139.41 161.33,139.31 161.31,139.22 C 161.3,139.14 161.26,139.01 161.31,138.94 C 161.36,138.86 161.44,138.8 161.5,138.72 C 161.56,138.65 161.63,138.58 161.69,138.5 C 162.16,137.85 162.47,137.17 162.63,136.38 C 162.79,135.62 162.79,134.78 162.59,134.03 C 162.49,133.65 162.33,133.3 162.19,132.94 C 162.08,132.65 161.88,132.15 161.59,131.94 C 161.41,131.81 161.22,131.9 161.06,132.0 C 160.88,132.12 160.74,132.26 160.59,132.41 C 160.33,132.69 160.12,133.0 159.94,133.34 C 159.17,134.8 159.01,136.27 159.59,137.84 C 159.65,138.02 159.73,138.2 159.81,138.38 C 159.91,138.59 159.96,138.69 159.94,138.94 C 159.92,139.13 159.89,139.33 159.91,139.53 C 159.93,139.72 159.96,139.94 159.97,140.13 C 160.02,140.97 159.88,141.63 159.41,142.34 C 159.19,142.66 158.94,142.95 158.69,143.25 C 158.45,143.56 158.19,143.86 157.97,144.19 C 157.75,144.51 157.57,144.85 157.38,145.19 C 157.29,145.36 157.19,145.53 157.03,145.66 C 156.86,145.79 156.62,145.76 156.47,145.63 C 156.3,145.48 156.3,145.29 156.25,145.09 C 156.21,144.9 156.14,144.71 156.09,144.53 C 155.98,144.15 155.89,143.78 155.78,143.41 C 155.57,142.66 155.38,141.92 155.22,141.16 C 154.89,139.61 154.66,138.11 154.88,136.5 C 155.09,134.89 155.77,133.51 156.94,132.38 C 158.12,131.24 159.48,130.66 161.0,130.16 C 162.54,129.66 163.86,129.26 165.28,128.41 C 166.68,127.58 167.75,126.5 168.53,125.06 C 168.56,125.02 168.58,124.98 168.63,124.97 z M 129.53,126.16 C 129.63,126.08 129.78,126.16 129.81,126.28 C 130.13,127.69 130.67,128.93 131.78,129.94 C 132.04,130.18 132.3,130.39 132.59,130.59 C 132.88,130.79 133.18,130.95 133.5,131.09 C 133.83,131.23 134.18,131.35 134.53,131.44 C 134.73,131.49 134.75,131.74 134.56,131.81 C 134.47,131.84 134.4,131.87 134.31,131.88 C 134.23,131.9 134.14,131.91 134.06,131.94 C 133.73,132.05 133.41,132.19 133.09,132.34 C 133.01,132.38 132.91,132.4 132.84,132.44 C 132.76,132.49 132.7,132.56 132.59,132.56 C 132.45,132.56 132.29,132.27 132.22,132.19 C 131.79,131.69 131.15,131.23 130.56,130.94 C 129.94,130.64 129.22,130.45 128.53,130.41 C 128.18,130.39 127.82,130.41 127.47,130.47 C 127.12,130.53 126.78,130.58 126.44,130.66 C 126.27,130.71 126.1,130.76 125.94,130.84 C 125.76,130.92 125.63,131.0 125.63,131.22 C 125.63,131.57 125.94,131.93 126.13,132.16 C 126.58,132.72 127.06,133.15 127.69,133.5 C 128.0,133.67 128.32,133.82 128.66,133.94 C 129.07,134.08 129.25,134.09 129.69,134.13 C 129.75,134.13 129.88,134.16 129.94,134.22 C 130.0,134.29 130.01,134.38 129.94,134.44 C 129.8,134.57 129.63,134.64 129.47,134.72 C 129.16,134.87 128.83,135.01 128.5,135.13 C 128.26,135.22 127.77,135.41 127.5,135.41 C 127.31,135.4 127.15,135.33 127.0,135.25 C 126.84,135.17 126.69,135.09 126.53,135.03 C 125.85,134.75 125.2,134.63 124.47,134.63 C 123.01,134.64 121.7,135.27 120.69,136.28 C 120.62,136.34 120.62,136.43 120.69,136.5 C 121.31,137.19 122.01,137.63 122.91,137.88 C 123.73,138.1 124.62,138.14 125.47,137.97 C 125.89,137.88 126.27,137.76 126.66,137.59 C 127.13,137.39 127.38,137.22 127.78,136.91 C 127.95,136.78 128.13,136.68 128.34,136.63 C 128.55,136.57 128.76,136.56 128.97,136.5 C 129.38,136.37 129.77,136.21 130.16,136.03 C 130.95,135.69 131.66,135.23 132.38,134.78 C 133.12,134.32 133.88,133.93 134.69,133.63 C 136.38,133.01 138.03,132.98 139.75,133.38 C 140.17,133.48 140.56,133.59 140.97,133.72 C 141.17,133.79 141.38,133.87 141.59,133.94 C 141.69,133.97 141.79,134.06 141.75,134.19 C 141.72,134.3 141.59,134.33 141.5,134.34 C 140.67,134.45 139.79,134.81 139.13,135.31 C 138.78,135.56 138.47,135.86 138.16,136.16 C 138.0,136.31 137.85,136.41 137.81,136.66 C 137.77,136.92 137.94,137.06 138.13,137.19 C 138.84,137.65 139.73,137.88 140.56,137.91 C 141.46,137.94 142.24,137.76 143.06,137.38 C 143.45,137.19 143.82,136.96 144.16,136.69 C 144.33,136.55 144.48,136.4 144.63,136.25 C 144.7,136.18 144.99,135.83 145.13,135.84 C 145.21,135.85 145.6,136.15 145.66,136.19 C 145.83,136.31 145.99,136.43 146.16,136.56 C 146.5,136.82 146.86,137.1 147.19,137.38 C 147.84,137.94 148.44,138.51 149.03,139.13 C 150.24,140.38 151.29,141.72 152.13,143.25 C 152.97,144.81 153.48,146.35 153.63,148.13 C 153.7,149.0 153.67,149.86 153.56,150.72 C 153.51,151.16 153.46,151.6 153.38,152.03 C 153.35,152.19 153.14,153.12 153.09,153.28 C 153.03,153.48 152.85,153.64 152.63,153.63 C 152.38,153.63 152.27,153.42 152.16,153.25 C 152.04,153.07 151.9,152.89 151.78,152.72 C 151.72,152.63 151.66,152.52 151.59,152.44 C 151.53,152.35 151.45,152.3 151.41,152.19 C 151.38,152.09 151.49,151.95 151.53,151.88 C 151.6,151.79 151.67,151.73 151.72,151.63 C 151.83,151.44 151.91,151.23 151.97,151.03 C 152.11,150.61 152.2,150.19 152.25,149.75 C 152.34,148.9 152.21,148.05 151.88,147.25 C 151.57,146.47 151.02,145.75 150.47,145.13 C 150.35,145.0 150.17,144.8 149.94,144.81 C 149.71,144.83 149.55,144.99 149.44,145.16 C 149.26,145.43 149.0,146.1 148.91,146.41 C 148.78,146.82 148.71,147.25 148.69,147.69 C 148.68,147.9 148.68,148.1 148.69,148.31 C 148.69,148.42 148.71,148.51 148.72,148.63 C 148.74,148.72 148.78,148.86 148.69,148.94 C 148.58,149.03 148.49,148.97 148.41,148.88 C 148.33,148.78 148.28,148.67 148.22,148.56 C 148.1,148.37 148.01,148.17 147.91,147.97 C 147.74,147.6 147.58,147.23 147.44,146.84 C 147.3,146.44 147.15,146.05 147.0,145.66 C 146.93,145.46 146.86,145.26 146.78,145.06 C 146.72,144.92 146.6,144.6 146.63,144.44 C 146.65,144.33 146.67,144.24 146.69,144.13 C 146.71,144.03 146.74,143.91 146.75,143.81 C 146.77,143.59 146.76,143.38 146.75,143.16 C 146.74,142.73 146.68,142.33 146.56,141.91 C 146.34,141.1 145.93,140.3 145.34,139.69 C 145.04,139.37 144.69,139.09 144.34,138.84 C 144.15,138.71 143.97,138.59 143.78,138.47 C 143.62,138.37 143.37,138.19 143.16,138.22 C 142.93,138.24 142.82,138.52 142.75,138.69 C 142.66,138.9 142.59,139.11 142.56,139.34 C 142.51,139.77 142.52,140.2 142.56,140.63 C 142.65,141.54 142.91,142.3 143.41,143.06 C 143.66,143.43 143.94,143.77 144.28,144.06 C 144.45,144.21 144.63,144.34 144.81,144.47 C 144.91,144.54 145.25,144.75 145.34,144.84 C 145.46,144.97 145.53,145.26 145.59,145.41 C 145.66,145.62 145.75,145.82 145.81,146.03 C 145.88,146.28 146.08,146.98 146.06,147.25 C 146.04,147.46 145.89,147.55 145.69,147.5 C 145.59,147.47 145.5,147.42 145.41,147.38 C 145.32,147.34 145.23,147.32 145.13,147.28 C 144.75,147.13 144.36,146.98 144.0,146.78 C 142.49,145.95 141.22,144.56 140.16,143.28 C 139.6,142.62 139.05,141.92 138.53,141.22 C 137.95,140.44 137.61,139.88 137.19,139.0 C 137.0,138.6 136.81,138.22 136.63,137.81 C 136.54,137.62 136.46,137.41 136.38,137.22 C 136.29,137.03 136.21,136.86 136.03,136.75 C 135.68,136.52 135.3,136.7 135.25,137.13 C 135.22,137.45 135.37,138.04 135.44,138.34 C 135.49,138.55 135.56,138.79 135.63,139.0 C 135.66,139.12 135.68,139.25 135.69,139.38 C 135.69,139.49 135.69,139.53 135.56,139.53 C 135.43,139.53 135.35,139.47 135.25,139.41 C 135.15,139.35 135.05,139.3 134.94,139.25 C 134.75,139.17 134.55,139.09 134.34,139.03 C 133.48,138.76 132.67,138.74 131.78,138.91 C 131.36,138.99 130.96,139.1 130.56,139.25 C 130.33,139.33 130.09,139.4 129.88,139.53 C 129.67,139.66 129.57,139.77 129.63,140.03 C 129.73,140.44 130.1,140.84 130.41,141.09 C 130.77,141.38 131.15,141.58 131.56,141.78 C 132.38,142.18 133.2,142.43 134.13,142.38 C 134.59,142.35 135.02,142.25 135.47,142.13 C 135.68,142.07 135.88,142.02 136.09,141.94 C 136.22,141.89 136.48,141.77 136.63,141.78 C 136.79,141.8 136.85,141.98 136.91,142.09 C 137.04,142.3 137.16,142.54 137.28,142.75 C 137.51,143.14 137.76,143.5 138.0,143.88 C 138.11,144.06 138.22,144.24 138.34,144.41 C 138.47,144.59 138.6,144.76 138.69,144.97 C 138.76,145.12 138.77,145.35 138.59,145.44 C 138.45,145.51 138.14,145.47 138.0,145.47 C 137.14,145.44 136.27,145.43 135.41,145.47 C 134.54,145.51 133.68,145.59 132.81,145.63 C 131.97,145.67 131.12,145.66 130.28,145.63 C 129.84,145.62 129.43,145.58 129.0,145.53 C 128.77,145.5 128.53,145.47 128.31,145.44 C 128.07,145.41 127.83,145.42 127.59,145.34 C 127.5,145.31 127.35,145.26 127.34,145.13 C 127.33,145.01 127.41,144.91 127.44,144.81 C 127.5,144.6 127.52,144.38 127.56,144.16 C 127.62,143.73 127.6,143.31 127.56,142.88 C 127.51,142.44 127.43,142.04 127.28,141.63 C 127.14,141.22 126.95,140.85 126.72,140.47 C 126.49,140.1 126.2,139.77 125.88,139.47 C 125.6,139.21 125.22,138.82 124.84,138.66 C 124.65,138.58 124.43,138.54 124.28,138.72 C 124.14,138.88 124.06,139.19 124.0,139.38 C 123.86,139.79 123.75,140.19 123.72,140.63 C 123.68,141.04 123.72,141.46 123.78,141.88 C 123.81,142.09 123.85,142.29 123.91,142.5 C 123.97,142.67 124.1,142.92 124.03,143.13 C 123.95,143.37 123.76,143.2 123.63,143.09 C 123.47,142.95 123.34,142.78 123.19,142.63 C 122.89,142.32 122.6,142.02 122.34,141.69 C 121.21,140.29 120.45,138.79 119.88,137.09 C 119.87,137.03 119.85,136.99 119.88,136.94 C 121.1,134.81 122.57,132.8 124.22,130.97 C 125.83,129.19 127.59,127.57 129.53,126.16 z M 176.44,131.84 C 176.5,131.84 176.55,131.82 176.59,131.88 C 177.29,132.72 177.97,133.6 178.59,134.5 C 179.19,135.37 179.73,136.25 180.25,137.16 C 180.32,137.3 180.18,137.48 180.03,137.44 C 178.72,137.05 176.58,136.56 175.22,136.38 C 173.57,136.16 171.96,136.12 170.31,136.31 C 170.11,136.33 169.89,136.35 169.69,136.38 C 169.58,136.39 169.48,136.4 169.44,136.28 C 169.39,136.14 169.47,136.06 169.53,135.97 C 169.64,135.8 169.75,135.63 169.84,135.44 C 169.97,135.14 170.09,135.26 170.34,135.31 C 171.1,135.47 172.04,135.38 172.78,135.16 C 174.42,134.67 175.62,133.49 176.28,131.94 C 176.31,131.87 176.38,131.85 176.44,131.84 z M 170.97,137.97 C 171.11,137.95 171.24,137.94 171.31,137.97 C 171.43,138.02 171.49,138.11 171.53,138.22 C 171.57,138.34 171.61,138.45 171.66,138.56 C 171.75,138.8 171.87,139.03 172.0,139.25 C 172.26,139.68 172.54,140.06 172.91,140.41 C 173.61,141.09 174.54,141.57 175.5,141.78 C 176.0,141.88 176.49,141.91 177.0,141.91 C 177.19,141.92 177.52,141.93 177.63,141.69 C 177.73,141.48 177.69,141.17 177.63,140.97 C 177.52,140.53 177.25,139.97 177.0,139.59 C 176.76,139.23 176.35,138.76 176.03,138.47 C 175.96,138.41 175.82,138.32 175.81,138.19 C 175.81,138.04 175.99,138.05 176.09,138.06 C 176.32,138.07 176.55,138.12 176.78,138.16 C 177.27,138.25 177.79,138.34 178.28,138.44 C 179.26,138.65 180.24,138.88 181.22,139.13 C 181.27,139.15 181.29,139.2 181.31,139.25 C 183.18,143.15 184.31,147.41 184.63,151.72 C 184.94,156.03 184.44,160.38 183.16,164.5 C 183.13,164.57 183.1,164.61 183.03,164.63 C 182.53,164.74 182.05,164.86 181.56,164.94 C 181.31,164.98 181.06,165.0 180.81,165.03 C 180.75,165.03 180.69,165.05 180.63,165.06 C 180.57,165.06 180.5,165.07 180.44,165.03 C 180.32,164.95 180.32,164.77 180.44,164.72 C 181.42,164.28 182.17,163.69 182.78,162.81 C 182.92,162.6 183.04,162.38 183.16,162.16 C 183.22,162.05 183.3,161.93 183.34,161.81 C 183.37,161.74 183.36,161.71 183.31,161.66 C 183.26,161.6 183.19,161.58 183.13,161.56 C 182.65,161.37 182.18,161.24 181.66,161.19 C 180.65,161.09 179.56,161.33 178.66,161.78 C 178.22,162.01 177.85,162.29 177.5,162.63 C 177.12,163.0 176.79,163.38 176.5,163.81 C 176.27,164.14 176.29,164.21 175.91,164.0 C 175.69,163.87 175.47,163.75 175.25,163.63 C 175.14,163.57 175.02,163.5 174.91,163.44 C 174.86,163.42 174.62,163.3 174.59,163.25 C 174.54,163.18 174.55,163.13 174.59,163.06 C 174.63,163.0 174.69,162.99 174.75,162.97 C 174.87,162.94 175.01,162.92 175.13,162.88 C 175.61,162.72 176.05,162.48 176.47,162.19 C 176.9,161.9 177.23,161.55 177.56,161.16 C 177.72,160.97 177.91,160.76 178.06,160.56 C 178.2,160.38 178.4,160.15 178.25,159.88 C 178.11,159.64 177.83,159.55 177.59,159.47 C 177.35,159.4 177.13,159.32 176.88,159.28 C 175.86,159.1 174.83,159.23 173.88,159.63 C 173.4,159.82 172.99,160.07 172.59,160.41 C 172.4,160.57 172.21,160.76 172.03,160.94 C 171.95,161.04 171.86,161.12 171.78,161.22 C 171.7,161.32 171.62,161.41 171.53,161.5 C 171.42,161.62 171.31,161.58 171.19,161.53 C 171.07,161.49 170.95,161.42 170.84,161.38 C 170.6,161.29 170.37,161.24 170.13,161.16 C 169.88,161.09 169.59,161.01 169.34,160.94 C 169.1,160.88 168.87,160.85 168.63,160.78 C 168.53,160.76 168.39,160.75 168.34,160.63 C 168.28,160.51 168.28,160.39 168.38,160.31 C 168.49,160.22 168.98,160.04 169.09,160.0 C 169.58,159.81 170.05,159.6 170.53,159.41 C 171.48,159.04 172.42,158.63 173.34,158.19 C 174.25,157.74 175.13,157.28 176.0,156.75 C 176.1,156.68 176.21,156.6 176.31,156.53 C 176.37,156.48 176.56,156.34 176.66,156.34 C 176.74,156.34 176.91,156.5 176.97,156.53 C 177.08,156.6 177.19,156.67 177.31,156.72 C 177.77,156.94 178.27,157.09 178.78,157.16 C 180.95,157.48 182.79,156.52 184.13,154.91 C 184.19,154.83 184.18,154.72 184.09,154.66 C 183.26,154.08 182.33,153.73 181.31,153.66 C 181.06,153.64 180.8,153.65 180.56,153.66 C 180.43,153.66 180.31,153.67 180.19,153.69 C 180.11,153.7 179.92,153.71 179.84,153.69 C 179.71,153.66 179.72,153.53 179.78,153.44 C 179.84,153.34 179.91,153.24 179.97,153.13 C 180.1,152.92 180.21,152.69 180.31,152.47 C 180.71,151.54 180.94,150.63 181.06,149.63 C 181.09,149.39 181.11,149.13 181.13,148.88 C 181.14,148.76 181.16,148.62 181.16,148.5 C 181.16,148.34 181.13,148.29 181.25,148.16 C 181.55,147.83 181.82,147.32 182.0,146.91 C 182.4,145.99 182.55,144.96 182.38,143.97 C 182.3,143.46 182.15,142.97 181.94,142.5 C 181.84,142.26 181.41,141.39 181.16,141.22 C 180.95,141.07 180.73,141.17 180.56,141.31 C 180.36,141.47 180.19,141.68 180.03,141.88 C 179.72,142.28 179.51,142.7 179.34,143.16 C 178.98,144.11 178.88,145.1 179.09,146.09 C 179.2,146.61 179.4,147.11 179.63,147.59 C 179.71,147.76 179.84,147.97 179.84,148.19 C 179.84,148.32 179.74,148.75 179.72,148.88 C 179.52,149.85 179.28,150.8 178.78,151.69 C 178.27,152.58 177.6,153.26 176.81,153.88 C 176.42,154.19 176.0,154.48 175.59,154.75 C 175.39,154.89 175.18,155.0 174.97,155.13 C 174.88,155.19 174.75,155.32 174.63,155.22 C 174.51,155.13 174.61,154.98 174.66,154.88 C 174.85,154.54 175.03,153.84 175.09,153.47 C 175.17,152.97 175.18,152.46 175.13,151.97 C 175.1,151.72 175.06,151.49 175.03,151.25 C 175.0,151.06 174.92,150.69 174.72,150.56 C 174.53,150.44 174.16,150.59 174.0,150.66 C 173.77,150.77 173.58,150.88 173.38,151.03 C 172.58,151.61 171.92,152.42 171.53,153.34 C 171.11,154.31 171.07,155.23 171.19,156.25 C 171.2,156.38 171.21,156.5 171.22,156.63 C 171.23,156.71 171.27,156.89 171.19,156.97 C 171.08,157.07 170.63,157.24 170.5,157.28 C 170.05,157.46 169.59,157.62 169.13,157.78 C 168.2,158.11 167.25,158.43 166.31,158.72 C 164.71,159.22 162.2,159.94 160.63,160.53 C 159.7,160.88 158.8,161.26 157.91,161.72 C 157.46,161.95 157.02,162.19 156.59,162.47 C 156.38,162.61 156.18,162.76 155.97,162.91 C 155.8,163.02 155.56,163.16 155.34,163.03 C 155.09,162.88 155.17,162.6 155.19,162.38 C 155.22,162.14 155.28,161.87 155.34,161.63 C 155.46,161.15 155.61,160.68 155.78,160.22 C 156.14,159.25 156.57,158.44 157.38,157.75 C 158.16,157.07 159.06,156.69 160.0,156.34 C 160.93,155.99 161.86,155.66 162.78,155.31 C 164.64,154.58 166.45,153.79 168.22,152.88 C 169.99,151.95 171.65,150.9 173.16,149.59 C 173.93,148.92 174.61,148.2 175.31,147.47 C 175.55,147.21 176.02,146.74 176.22,146.44 C 176.37,146.22 176.49,145.98 176.56,145.72 C 176.59,145.59 176.71,145.2 176.56,145.06 C 176.43,144.94 176.08,145.1 175.97,145.16 C 175.76,145.26 175.57,145.41 175.38,145.56 C 175.01,145.86 174.68,146.21 174.34,146.53 C 173.97,146.87 173.6,147.21 173.22,147.53 L 172.66,148.0 C 172.61,148.04 172.4,148.2 172.34,148.22 C 172.2,148.29 172.1,148.17 172.13,148.03 C 172.15,147.9 172.19,147.78 172.22,147.66 C 172.25,147.54 172.26,147.4 172.28,147.28 C 172.32,147.03 172.34,146.78 172.34,146.53 C 172.35,146.02 172.32,145.55 172.19,145.06 C 172.06,144.57 171.81,144.14 171.59,143.69 C 171.5,143.52 171.36,143.19 171.22,143.03 C 171.13,142.94 171.05,142.86 170.91,142.84 C 170.76,142.82 170.67,142.89 170.56,142.97 C 170.1,143.26 169.87,143.67 169.63,144.13 C 169.39,144.57 169.19,145.01 169.06,145.5 C 168.79,146.5 168.83,147.49 169.16,148.47 C 169.25,148.7 169.34,148.93 169.44,149.16 C 169.49,149.28 169.53,149.39 169.59,149.5 C 169.65,149.61 169.72,149.72 169.75,149.84 C 169.8,149.99 169.7,150.07 169.59,150.13 C 169.48,150.19 169.36,150.22 169.25,150.28 C 169.03,150.41 168.81,150.54 168.59,150.66 C 167.88,151.06 166.64,151.65 165.88,151.94 C 165.65,152.03 165.43,152.08 165.19,152.16 C 165.14,152.18 165.1,152.24 165.03,152.22 C 164.95,152.21 164.92,152.15 164.94,152.09 C 164.96,152.02 164.99,151.96 165.03,151.91 C 165.06,151.85 165.1,151.8 165.13,151.75 C 165.37,151.32 165.65,150.91 165.88,150.47 C 166.11,150.03 166.29,149.57 166.5,149.13 L 166.84,148.47 C 166.95,148.25 167.06,148.04 167.16,147.81 C 167.24,147.6 167.32,147.32 167.22,147.09 C 167.1,146.82 166.85,146.76 166.59,146.84 C 166.34,146.92 166.18,147.14 166.06,147.34 C 165.99,147.44 165.94,147.53 165.88,147.63 C 165.83,147.71 165.73,147.89 165.63,147.94 C 165.5,147.99 165.47,147.93 165.44,147.81 C 165.41,147.7 165.39,147.56 165.38,147.44 C 165.35,147.19 165.29,146.93 165.22,146.69 C 165.09,146.21 164.93,145.76 164.66,145.34 C 164.39,144.92 164.09,144.54 163.78,144.16 C 163.63,143.98 163.45,143.74 163.16,143.84 C 162.92,143.92 162.72,144.14 162.59,144.34 C 162.39,144.69 162.16,145.33 162.06,145.72 C 161.93,146.2 161.87,146.68 161.88,147.19 C 161.89,148.25 162.21,149.1 162.78,149.97 C 162.91,150.18 163.07,150.39 163.22,150.59 C 163.29,150.69 163.34,150.78 163.41,150.88 C 163.46,150.94 163.65,151.08 163.63,151.19 C 163.6,151.29 163.44,151.43 163.38,151.5 C 163.29,151.59 163.24,151.69 163.16,151.78 C 163.0,151.97 162.81,152.14 162.63,152.31 C 162.26,152.65 161.87,152.91 161.41,153.13 C 160.96,153.35 160.5,153.53 160.03,153.69 C 159.56,153.85 159.06,153.98 158.59,154.13 C 158.34,154.21 158.12,154.31 157.88,154.41 C 157.72,154.48 157.42,154.62 157.22,154.56 C 157.1,154.52 157.05,154.48 157.0,154.38 C 156.94,154.26 156.91,154.13 156.94,154.0 C 156.98,153.75 157.07,153.49 157.13,153.25 C 157.25,152.76 157.37,152.31 157.53,151.84 C 157.83,150.89 158.15,149.94 158.53,149.03 C 159.32,147.17 160.31,145.49 161.5,143.88 C 162.66,142.32 164.06,140.8 165.75,139.75 C 166.61,139.22 167.48,138.83 168.44,138.53 C 168.91,138.38 169.39,138.27 169.88,138.16 C 170.11,138.1 170.38,138.03 170.63,138.0 C 170.69,137.99 170.83,137.98 170.97,137.97 z M 118.91,138.81 C 118.99,138.76 119.11,138.8 119.16,138.91 C 119.52,139.78 119.94,140.62 120.41,141.44 C 120.87,142.26 121.37,143.05 121.94,143.81 C 122.51,144.58 123.18,145.22 123.97,145.78 C 124.35,146.05 124.74,146.27 125.16,146.5 C 125.26,146.56 125.37,146.61 125.47,146.66 C 125.56,146.71 125.69,146.79 125.75,146.88 C 125.81,146.99 125.81,147.1 125.72,147.19 C 125.63,147.29 125.53,147.31 125.41,147.34 C 125.18,147.39 124.94,147.45 124.72,147.5 C 124.48,147.55 124.26,147.59 124.03,147.63 C 123.46,147.72 123.21,147.74 122.63,147.75 C 122.52,147.75 122.04,147.76 121.91,147.69 C 121.81,147.62 121.87,147.47 121.88,147.38 C 121.89,147.26 121.89,147.12 121.88,147.0 C 121.86,146.53 121.76,146.09 121.63,145.63 C 121.37,144.73 120.88,143.89 120.19,143.25 C 119.51,142.62 118.63,142.13 117.78,141.81 C 117.68,141.78 117.63,141.68 117.66,141.59 C 117.85,141.1 118.06,140.6 118.28,140.13 C 118.46,139.72 118.64,139.31 118.84,138.91 C 118.86,138.87 118.88,138.83 118.91,138.81 z M 117.03,143.81 C 117.07,143.82 117.1,143.84 117.13,143.88 C 117.19,143.96 117.22,144.15 117.25,144.28 C 117.27,144.41 117.3,144.49 117.34,144.59 C 117.37,144.68 117.4,144.79 117.44,144.88 C 117.48,144.98 117.52,145.04 117.56,145.13 C 117.61,145.22 117.68,145.33 117.72,145.41 C 117.77,145.5 117.79,145.57 117.84,145.66 C 117.88,145.75 117.95,145.86 118.0,145.94 C 118.05,146.02 118.1,146.1 118.13,146.19 C 118.15,146.28 118.18,146.37 118.13,146.41 C 118.08,146.46 117.96,146.44 117.88,146.41 C 117.79,146.38 117.7,146.34 117.63,146.28 C 117.55,146.22 117.49,146.16 117.41,146.09 L 117.16,145.91 C 117.08,145.85 117.01,145.78 116.94,145.72 C 116.86,145.66 116.78,145.6 116.69,145.53 C 116.61,145.47 116.53,145.4 116.5,145.31 C 116.47,145.22 116.5,145.1 116.53,145.0 C 116.56,144.9 116.6,144.81 116.63,144.72 C 116.65,144.62 116.66,144.53 116.69,144.44 C 116.72,144.34 116.74,144.23 116.78,144.13 C 116.81,144.03 116.84,143.94 116.91,143.88 C 116.94,143.85 116.99,143.81 117.03,143.81 z M 116.19,146.75 C 116.24,146.73 116.29,146.71 116.34,146.75 C 117.11,147.32 118.44,148.21 119.34,148.59 C 119.88,148.81 120.44,148.99 121.0,149.16 C 121.14,149.2 121.29,149.23 121.44,149.25 C 121.52,149.27 121.58,149.28 121.66,149.28 C 121.73,149.29 121.83,149.29 121.91,149.31 C 122.04,149.35 122.08,149.51 122.0,149.63 C 121.93,149.73 121.84,149.79 121.75,149.88 C 121.29,150.26 120.99,150.75 120.69,151.25 C 120.54,151.49 120.4,151.74 120.28,152.0 C 120.2,152.17 119.99,152.63 120.16,152.84 C 120.46,153.23 121.48,153.16 121.84,153.13 C 122.43,153.07 122.99,152.93 123.53,152.69 C 124.6,152.23 125.51,151.41 126.06,150.38 C 126.13,150.25 126.18,150.13 126.25,150.0 C 126.32,149.87 126.4,149.75 126.47,149.63 C 126.51,149.56 126.56,149.48 126.59,149.41 C 126.63,149.34 126.65,149.26 126.69,149.19 C 126.78,149.03 126.92,149.04 127.06,149.0 C 127.59,148.88 128.1,148.72 128.63,148.59 C 129.84,148.27 130.78,148.11 132.03,148.06 C 132.17,148.05 132.3,148.14 132.22,148.28 C 132.19,148.33 131.98,148.55 131.94,148.59 C 131.74,148.79 131.56,149.0 131.38,149.22 C 131.03,149.69 130.76,150.18 130.56,150.72 C 130.51,150.85 130.3,151.44 130.28,151.59 C 130.22,151.92 130.5,152.1 130.78,152.16 C 131.2,152.25 132.12,152.1 132.5,152.0 C 133.62,151.71 134.66,151.05 135.34,150.09 C 135.67,149.62 135.9,149.08 136.13,148.56 C 136.19,148.43 136.27,148.32 136.34,148.19 C 136.42,148.03 136.47,147.97 136.66,147.97 C 136.74,147.97 137.39,148.02 137.47,148.03 C 138.63,148.1 139.76,148.31 140.88,148.59 C 143.13,149.16 145.2,150.1 146.94,151.72 C 147.75,152.47 148.56,153.45 149.16,154.38 C 149.84,155.44 150.22,156.32 150.53,157.53 C 150.87,158.84 151.01,159.64 150.88,161.0 C 150.85,161.28 150.69,162.63 150.63,162.91 C 150.59,163.08 150.51,163.37 150.28,163.41 C 150.14,163.44 150.03,163.44 149.91,163.38 C 149.78,163.31 149.71,163.17 149.63,163.06 C 149.32,162.58 148.98,162.13 148.63,161.69 C 148.26,161.23 147.89,160.8 147.47,160.41 C 147.25,160.21 147.01,160.02 146.78,159.84 C 146.55,159.65 146.32,159.48 146.09,159.28 C 145.82,159.03 145.99,158.87 146.13,158.63 C 146.26,158.35 146.36,158.06 146.47,157.78 C 146.66,157.22 146.78,156.66 146.78,156.06 C 146.79,155.47 146.73,154.91 146.53,154.34 C 146.38,153.88 145.99,153.22 145.75,152.81 C 145.59,152.55 145.43,152.29 145.19,152.09 C 144.9,151.86 144.68,151.91 144.44,152.16 C 144.06,152.57 143.77,153.21 143.59,153.72 C 143.39,154.28 143.27,154.81 143.28,155.41 C 143.28,155.69 143.31,155.99 143.34,156.28 C 143.4,156.67 143.44,156.81 143.56,157.19 C 143.58,157.27 143.67,157.44 143.56,157.5 C 143.47,157.55 143.25,157.42 143.19,157.38 C 142.94,157.24 142.71,157.1 142.5,156.88 C 141.64,155.96 141.64,154.54 141.5,153.47 C 141.42,152.86 141.3,152.26 141.06,151.69 C 140.86,151.19 140.57,150.82 140.16,150.47 C 140.08,150.4 139.84,150.18 139.69,150.22 C 139.57,150.26 139.65,150.58 139.66,150.66 C 139.72,150.9 139.79,151.15 139.88,151.38 C 139.98,151.65 140.06,151.91 140.13,152.19 C 140.26,152.77 140.35,153.34 140.34,153.94 C 140.34,154.24 140.33,154.54 140.31,154.84 C 140.29,155.15 140.26,155.44 140.31,155.75 C 140.33,155.88 140.35,156.03 140.38,156.16 C 140.38,156.2 140.41,156.24 140.38,156.28 C 140.35,156.33 140.3,156.31 140.25,156.31 C 140.1,156.31 139.95,156.3 139.81,156.25 C 139.73,156.22 139.7,156.16 139.66,156.09 C 139.62,156.03 139.55,155.97 139.5,155.91 C 139.37,155.76 138.98,155.43 138.84,155.31 C 138.6,155.12 138.36,154.95 138.09,154.81 C 137.03,154.23 135.76,153.99 134.56,154.22 C 134.27,154.28 133.98,154.36 133.69,154.41 C 133.5,154.44 133.0,154.44 132.81,154.56 C 132.54,154.72 132.73,155.19 132.81,155.38 C 132.97,155.72 133.15,156.01 133.41,156.28 C 134.15,157.05 135.68,157.63 136.69,157.78 C 136.98,157.83 137.26,157.83 137.56,157.81 C 137.86,157.79 138.14,157.73 138.41,157.63 C 138.69,157.51 138.94,157.39 139.25,157.44 C 139.57,157.48 139.78,157.66 140.03,157.81 C 140.53,158.11 141.08,158.32 141.59,158.59 C 142.11,158.86 142.61,159.17 143.06,159.53 C 143.52,159.89 143.93,160.29 144.38,160.66 C 144.51,160.78 144.87,161.1 144.97,161.25 C 145.01,161.31 145.03,161.35 145.0,161.41 C 144.95,161.49 144.89,161.49 144.81,161.47 C 144.65,161.45 144.51,161.41 144.34,161.38 C 143.76,161.29 143.17,161.3 142.59,161.41 C 142.02,161.51 141.47,161.67 140.94,161.91 C 140.16,162.26 139.94,162.52 140.56,163.22 C 140.95,163.68 141.41,163.99 141.94,164.25 C 143.08,164.84 143.97,165.0 145.25,164.81 C 145.55,164.77 145.82,164.71 146.13,164.63 C 146.28,164.59 146.45,164.56 146.59,164.5 C 146.72,164.45 146.83,164.36 146.97,164.31 C 147.1,164.27 147.17,164.31 147.25,164.41 C 147.34,164.52 147.42,164.62 147.47,164.75 C 147.59,165.02 147.67,165.3 147.75,165.59 C 147.9,166.14 147.95,166.69 148.0,167.25 C 148.03,167.55 148.07,167.86 148.06,168.16 C 148.06,168.4 148.02,168.66 147.81,168.84 C 147.37,169.22 146.72,168.86 146.34,168.66 C 145.81,168.39 145.29,168.13 144.75,167.88 C 143.7,167.39 142.65,167.0 141.53,166.69 C 140.43,166.39 139.28,166.18 138.22,165.69 C 137.41,165.32 135.99,164.45 135.25,163.97 C 134.34,163.39 133.31,162.63 132.66,161.72 L 132.41,161.38 C 132.35,161.29 132.21,161.09 132.19,160.97 C 132.17,160.84 132.3,160.69 132.34,160.59 C 132.4,160.46 132.43,160.3 132.47,160.16 C 132.62,159.6 132.73,159.06 132.72,158.47 C 132.71,157.33 132.34,156.18 131.63,155.28 C 131.44,155.05 131.26,154.82 131.13,154.56 C 131.04,154.41 130.83,153.97 130.56,154.0 C 130.29,154.05 129.98,154.47 129.84,154.66 C 129.66,154.92 129.53,155.17 129.44,155.47 C 129.29,155.96 129.17,156.68 129.16,157.19 C 129.15,157.82 129.24,158.38 129.44,158.97 C 129.65,159.55 129.94,160.07 130.34,160.53 C 130.53,160.74 130.73,160.95 130.88,161.19 C 130.95,161.3 131.01,161.39 131.03,161.53 C 131.04,161.65 130.97,161.81 130.88,161.88 C 130.72,162.01 130.28,161.87 130.13,161.84 C 129.88,161.8 129.64,161.79 129.38,161.78 C 128.81,161.75 128.25,161.78 127.69,161.94 C 127.4,162.02 127.1,162.12 126.81,162.22 C 126.61,162.29 126.16,162.41 126.03,162.66 C 125.91,162.9 126.16,163.27 126.28,163.44 C 126.46,163.7 126.66,163.9 126.91,164.09 C 127.34,164.43 127.96,164.77 128.47,164.97 C 129.01,165.19 129.54,165.32 130.13,165.34 C 130.67,165.35 131.2,165.31 131.72,165.16 C 132.12,165.05 132.48,164.88 132.88,164.78 C 133.25,164.69 133.33,164.78 133.59,165.0 C 133.81,165.19 134.01,165.37 134.25,165.53 C 134.5,165.69 134.75,165.85 135.0,166.0 C 135.12,166.08 135.25,166.15 135.38,166.22 C 135.5,166.29 135.63,166.33 135.75,166.41 C 136.0,166.59 136.14,166.89 135.84,167.09 C 135.61,167.25 135.26,167.26 135.0,167.28 C 134.73,167.31 134.46,167.34 134.19,167.38 C 133.57,167.48 133.19,167.52 132.56,167.5 C 131.67,167.46 130.04,167.2 129.16,167.03 C 127.75,166.75 127.24,166.52 125.94,165.94 C 125.66,165.81 125.41,165.7 125.13,165.59 C 124.95,165.52 124.53,165.38 124.41,165.19 C 124.34,165.08 124.39,164.94 124.41,164.84 C 124.45,164.7 124.46,164.55 124.47,164.41 C 124.5,164.13 124.53,163.85 124.53,163.56 C 124.53,162.43 124.11,161.24 123.44,160.34 C 123.08,159.86 122.56,159.34 122.06,159.0 C 121.77,158.81 121.49,158.68 121.16,158.59 C 120.97,158.54 120.59,158.45 120.5,158.72 C 120.45,158.86 120.46,158.99 120.47,159.13 C 120.48,159.29 120.5,159.46 120.5,159.63 C 120.5,159.91 120.44,160.19 120.41,160.47 C 120.38,160.76 120.4,161.03 120.44,161.31 C 120.47,161.6 120.5,161.88 120.59,162.16 C 120.64,162.29 120.72,162.41 120.78,162.53 C 120.82,162.63 120.89,162.85 120.78,162.94 C 120.64,163.05 120.51,162.91 120.41,162.84 C 120.29,162.76 120.18,162.71 120.06,162.63 C 119.83,162.47 119.58,162.31 119.34,162.16 C 119.1,162.0 118.87,161.82 118.63,161.66 C 118.16,161.35 117.67,161.04 117.19,160.72 C 116.72,160.39 116.25,160.08 115.78,159.75 C 115.74,159.72 115.73,159.68 115.72,159.63 C 115.38,157.48 115.24,155.29 115.31,153.13 C 115.38,151.01 115.61,148.94 116.06,146.88 C 116.08,146.82 116.13,146.77 116.19,146.75 z M 165.63,162.38 C 165.8,162.37 165.99,162.37 166.16,162.38 C 166.26,162.38 166.37,162.38 166.47,162.41 C 166.58,162.44 166.61,162.48 166.63,162.59 C 166.67,162.78 166.69,162.97 166.72,163.16 C 166.74,163.34 166.76,163.51 166.81,163.69 C 167.0,164.42 167.3,165.07 167.75,165.69 C 168.2,166.31 168.75,166.79 169.44,167.16 C 169.81,167.36 170.17,167.52 170.56,167.69 C 170.87,167.82 171.33,168.0 171.56,167.59 C 171.73,167.29 171.65,166.8 171.63,166.5 C 171.6,166.13 171.54,165.77 171.44,165.41 C 171.34,165.05 171.21,164.72 171.03,164.38 C 170.95,164.22 170.85,164.04 170.75,163.88 C 170.7,163.79 170.64,163.74 170.59,163.66 C 170.56,163.62 170.53,163.58 170.53,163.53 C 170.53,163.48 170.55,163.45 170.59,163.41 C 170.7,163.3 170.97,163.49 171.06,163.53 C 171.23,163.61 171.41,163.67 171.59,163.75 C 171.93,163.89 172.27,164.04 172.59,164.22 C 172.76,164.31 172.93,164.41 173.09,164.5 C 173.18,164.55 173.45,164.69 173.5,164.81 C 173.54,164.89 173.51,165.05 173.5,165.13 C 173.48,165.24 173.48,165.33 173.47,165.44 C 173.46,165.62 173.46,165.81 173.47,166.0 C 173.51,166.74 173.65,167.42 173.97,168.09 C 174.27,168.74 174.7,169.37 175.25,169.84 C 175.55,170.1 175.87,170.32 176.19,170.53 C 176.44,170.69 176.98,171.06 177.34,171.03 C 177.73,171.0 177.83,170.49 177.88,170.22 C 177.93,169.85 177.91,169.5 177.88,169.13 C 177.82,168.37 177.62,167.65 177.28,166.97 C 177.24,166.89 177.21,166.8 177.16,166.72 C 177.12,166.65 177.06,166.58 177.03,166.5 C 176.99,166.41 177.03,166.32 177.13,166.28 C 177.19,166.25 177.32,166.27 177.38,166.28 C 177.74,166.35 178.08,166.42 178.44,166.47 C 179.13,166.57 179.83,166.59 180.53,166.56 C 180.91,166.55 181.28,166.53 181.66,166.5 C 181.84,166.48 182.03,166.46 182.22,166.44 C 182.32,166.42 182.39,166.45 182.41,166.56 C 182.42,166.64 182.4,166.71 182.38,166.78 C 182.33,166.89 182.26,167.01 182.22,167.13 C 181.08,169.99 179.66,172.57 177.81,175.03 C 176.87,176.27 175.84,177.45 174.75,178.56 C 174.2,179.12 173.64,179.64 173.06,180.16 C 172.76,180.42 172.46,180.69 172.16,180.94 C 172.08,181.01 171.82,181.23 171.72,181.28 C 171.66,181.32 171.59,181.33 171.53,181.28 C 170.33,180.31 168.89,179.88 167.38,179.88 C 166.59,179.87 165.82,179.99 165.06,180.19 C 164.29,180.38 163.6,180.67 162.88,181.0 C 161.62,181.57 160.11,182.41 158.69,182.66 C 158.02,182.77 157.31,182.79 156.66,182.53 C 155.89,182.21 155.42,181.62 155.03,180.94 C 154.23,179.57 153.88,178.17 153.69,176.63 C 153.58,175.77 153.54,174.89 153.53,174.03 C 153.52,173.28 153.55,172.55 153.69,171.81 C 153.95,170.42 154.56,169.05 155.72,168.13 C 156.88,167.21 158.45,166.91 159.84,167.47 C 160.54,167.76 161.15,168.24 161.56,168.88 C 161.78,169.22 161.92,169.55 161.97,169.94 C 162.0,170.17 162.02,170.87 161.97,171.09 C 161.94,171.28 161.86,171.4 161.72,171.5 C 161.57,171.63 161.4,171.75 161.25,171.88 C 160.98,172.13 160.77,172.41 160.56,172.72 C 160.15,173.34 159.81,173.94 159.66,174.69 C 159.5,175.51 159.6,176.39 159.78,177.19 C 159.85,177.53 159.95,178.01 160.16,178.31 C 160.38,178.64 160.68,178.49 160.94,178.34 C 162.23,177.59 163.05,176.04 163.25,174.63 C 163.26,174.53 163.25,174.44 163.25,174.34 C 163.25,174.23 163.25,174.14 163.38,174.09 C 163.5,174.05 163.58,174.13 163.66,174.19 C 163.73,174.24 163.79,174.3 163.88,174.34 C 164.21,174.54 164.55,174.73 164.91,174.88 C 165.27,175.02 165.66,175.12 166.03,175.25 C 166.28,175.33 166.68,175.52 166.97,175.34 C 167.29,175.14 167.3,174.74 167.06,174.47 C 166.84,174.23 166.36,174.06 166.09,173.94 C 165.49,173.69 164.64,173.32 164.34,172.63 C 164.17,172.26 164.14,171.86 164.16,171.47 C 164.17,171.28 164.2,171.12 164.22,170.94 C 164.22,170.84 164.22,170.73 164.22,170.63 C 164.23,170.55 164.25,170.41 164.31,170.34 C 164.39,170.26 164.48,170.32 164.56,170.38 C 164.63,170.45 164.71,170.5 164.78,170.56 C 164.93,170.68 165.09,170.78 165.25,170.88 C 165.58,171.08 165.91,171.26 166.28,171.38 C 166.87,171.57 167.89,171.75 168.53,171.69 C 168.75,171.67 168.9,171.64 168.97,171.41 C 169.03,171.2 168.98,171.03 168.94,170.84 C 168.85,170.46 168.74,170.09 168.56,169.75 C 167.93,168.49 166.64,167.34 165.22,167.0 C 164.84,166.9 164.45,166.85 164.06,166.81 C 163.84,166.78 163.63,166.75 163.41,166.75 C 163.16,166.76 163.15,166.8 163.0,166.59 C 162.82,166.35 162.4,165.99 162.16,165.81 C 161.86,165.58 161.54,165.4 161.19,165.25 C 160.84,165.11 160.51,165.0 160.13,164.94 C 159.95,164.91 159.75,164.87 159.56,164.84 C 159.46,164.82 159.37,164.82 159.31,164.72 C 159.25,164.63 159.26,164.57 159.31,164.47 C 159.5,164.16 160.98,163.49 161.25,163.38 C 162.54,162.84 164.23,162.46 165.63,162.38 z M 116.56,162.75 C 116.6,162.75 116.62,162.73 116.66,162.75 C 116.78,162.82 116.89,162.92 117.0,163.0 C 117.23,163.16 117.46,163.31 117.69,163.47 C 118.15,163.78 118.6,164.08 119.06,164.38 C 119.97,164.96 120.91,165.52 121.84,166.06 C 122.74,166.58 123.64,167.08 124.56,167.53 C 124.69,167.6 124.81,167.65 124.94,167.72 C 125.0,167.75 125.07,167.8 125.09,167.88 C 125.11,167.95 125.08,168.02 125.03,168.06 C 124.96,168.13 124.71,168.14 124.63,168.16 C 124.5,168.19 124.37,168.26 124.25,168.31 C 123.65,168.58 123.38,168.7 122.88,169.13 C 122.61,169.36 121.87,169.97 121.69,170.31 C 121.62,170.46 121.62,170.56 121.72,170.69 C 121.81,170.81 121.93,170.89 122.06,170.97 C 122.3,171.1 122.54,171.18 122.81,171.25 C 123.9,171.53 125.03,171.49 126.09,171.09 C 127.2,170.68 127.97,170.03 128.69,169.13 C 128.73,169.07 128.77,169.0 128.81,168.94 C 128.85,168.89 128.88,168.82 128.94,168.78 C 129.0,168.73 129.07,168.74 129.13,168.75 C 129.16,168.75 129.17,168.77 129.19,168.78 C 129.25,168.79 129.32,168.8 129.38,168.81 C 129.53,168.84 129.69,168.84 129.84,168.88 C 129.97,168.91 130.08,168.95 130.22,168.97 C 130.36,169.0 130.49,169.0 130.63,169.03 C 130.78,169.06 130.94,169.15 130.84,169.31 C 130.76,169.44 130.62,169.49 130.5,169.56 C 130.05,169.83 129.69,170.3 129.41,170.72 C 129.26,170.95 129.11,171.19 128.97,171.41 C 128.83,171.64 128.69,171.88 128.59,172.13 C 128.51,172.33 128.42,172.7 128.5,172.94 C 128.59,173.19 129.0,173.22 129.19,173.25 C 129.74,173.31 130.25,173.26 130.78,173.13 C 131.82,172.88 132.82,172.34 133.53,171.5 C 133.88,171.08 134.15,170.6 134.41,170.13 C 134.47,170.02 134.54,169.9 134.59,169.78 C 134.66,169.66 134.7,169.54 134.75,169.41 C 134.82,169.26 134.97,169.27 135.09,169.28 C 135.23,169.28 135.36,169.26 135.5,169.25 C 136.03,169.22 136.56,169.2 137.09,169.16 C 137.63,169.12 138.18,169.08 138.72,169.06 C 139.86,169.01 140.81,169.06 141.88,169.56 C 142.78,169.97 143.83,170.76 144.56,171.41 C 145.41,172.18 145.98,172.91 146.44,173.97 C 147.21,175.74 147.57,178.19 147.97,180.03 C 148.07,180.53 148.22,181.2 148.19,181.72 C 148.15,182.28 147.89,182.63 147.41,182.88 C 146.91,183.16 146.28,183.25 145.72,183.25 C 145.12,183.26 144.57,183.16 144.0,182.97 C 143.48,182.79 142.97,182.53 142.47,182.28 C 142.01,182.05 141.56,181.82 141.06,181.66 C 140.03,181.32 139.1,181.51 138.13,181.81 C 137.04,182.13 136.0,182.6 134.91,182.88 C 133.77,183.18 132.73,183.21 131.59,182.88 C 130.08,182.45 128.71,181.53 127.5,180.63 C 126.5,179.88 125.67,179.13 124.81,178.22 C 123.74,177.09 122.78,175.91 121.88,174.63 C 119.42,171.17 117.48,167.06 116.41,162.94 C 116.38,162.82 116.46,162.76 116.56,162.75 z M 168.06,181.97 C 168.74,181.97 169.4,182.07 169.97,182.28 C 170.11,182.33 170.12,182.51 170.0,182.59 C 169.44,182.99 168.87,183.36 168.28,183.72 C 167.64,184.11 167.0,184.49 166.34,184.84 C 166.26,184.88 166.18,184.88 166.13,184.81 C 165.76,184.35 165.35,184.04 164.78,183.88 C 164.22,183.72 163.69,183.72 163.13,183.81 C 162.94,183.84 162.87,183.58 163.03,183.47 C 163.16,183.38 163.3,183.33 163.44,183.25 C 163.73,183.09 164.02,182.92 164.31,182.78 C 164.9,182.49 165.49,182.3 166.13,182.16 C 166.69,182.04 167.39,181.97 168.06,181.97 z M 138.81,183.75 C 139.3,183.7 139.78,183.77 140.44,184.03 C 141.47,184.44 142.38,185.09 143.41,185.5 C 144.45,185.9 145.55,186.05 146.66,185.94 C 146.79,185.93 146.92,186.06 146.88,186.19 C 146.84,186.3 146.64,186.35 146.56,186.38 C 146.32,186.45 146.08,186.46 145.84,186.47 C 145.35,186.51 144.87,186.49 144.38,186.53 C 143.32,186.61 142.54,187.07 141.88,187.88 C 141.82,187.95 141.77,187.93 141.69,187.91 C 140.13,187.53 138.62,187.04 137.13,186.44 C 136.04,186.0 134.96,185.52 133.91,184.97 C 133.73,184.88 133.83,184.6 134.03,184.63 C 135.36,184.87 136.02,184.69 137.25,184.22 C 137.86,183.98 138.33,183.8 138.81,183.75 z M 153.53,184.22 C 153.56,184.23 153.59,184.25 153.63,184.28 C 154.49,184.99 155.57,185.42 156.63,185.69 C 157.74,185.97 158.79,186.04 159.91,185.91 C 160.44,185.85 160.95,185.76 161.47,185.63 C 162.03,185.5 162.58,185.33 163.16,185.25 C 163.48,185.21 163.79,185.19 164.13,185.25 C 164.27,185.27 164.4,185.31 164.53,185.38 C 164.67,185.44 164.77,185.58 164.63,185.69 C 164.58,185.73 164.5,185.75 164.44,185.78 C 164.39,185.81 164.34,185.85 164.28,185.88 C 164.16,185.93 164.05,185.95 163.94,186.0 C 163.72,186.1 163.51,186.19 163.28,186.28 C 162.26,186.71 161.22,187.1 160.16,187.41 C 159.02,187.75 157.94,187.34 156.84,187.41 C 156.35,187.44 155.88,187.54 155.38,187.56 C 155.01,187.57 154.64,187.52 154.28,187.41 C 154.04,187.34 153.82,187.24 153.63,187.09 C 153.19,186.76 153.01,186.23 153.06,185.69 C 153.08,185.41 153.15,185.16 153.22,184.88 C 153.26,184.74 153.3,184.58 153.34,184.44 C 153.35,184.36 153.36,184.29 153.44,184.25 C 153.48,184.23 153.5,184.21 153.53,184.22 z M 150.06,186.38 C 150.12,186.39 150.17,186.44 150.19,186.5 C 150.42,187.41 150.92,188.11 151.75,188.56 C 151.91,188.64 151.87,188.87 151.69,188.88 C 150.58,188.93 149.45,188.94 148.34,188.88 C 147.2,188.83 146.07,188.73 144.94,188.56 C 144.74,188.53 144.74,188.25 144.94,188.22 C 145.43,188.14 145.89,188.18 146.38,188.16 C 146.88,188.14 147.37,188.05 147.84,187.88 C 148.31,187.71 148.7,187.47 149.09,187.16 C 149.28,187.01 149.45,186.86 149.63,186.69 L 149.91,186.41 C 149.96,186.36 150.01,186.36 150.06,186.38 z" />
			
			<!-- Shape One -->
			<text dy="2.5" style="font-size:17px;fill:#f00;stroke:none;font-family:z_magnolia;text-anchor:middle;">
				<textPath id="txt1" xlink:href="#txtPath" startOffset="50%" class="txt" ></textPath>
			</text>
		   
			<!-- Prism Reference -->
			<cam mingh:cam="--actions=EditSelectAll;ObjectToPath;ZoomPage;ZoomCenterPage;FileVacuum;FileSave; -g" mingh:style="source:microprism">M2</cam> 
	  </g>
			   
	
</svg>