<?xml version="1.0" encoding="UTF-8" standalone="no"?>

<svg
   xmlns:xlink="http://www.w3.org/1999/xlink"
   xmlns:svg="http://www.w3.org/2000/svg"
   xmlns="http://www.w3.org/2000/svg"
   xmlns:mingh="http://www.minghworld.com"
   width="300px"
   height="300px" >

	<defs> 
		<path id="birth" style="fill:#00f;stroke:none"  
		   d="M 153.74,113.9 C 153.74,115.96 152.06,117.64 150.0,117.64 C 147.94,117.64 146.26,115.96 146.26,113.9 C 146.26,111.84 147.94,110.16 150.0,110.16 C 152.06,110.16 153.74,111.84 153.74,113.9 z"/>
		   
		<path id="diamond" style="fill:none;stroke:#000;stroke-width:0.25px"  
		   d="M 152.72,113.9 C 152.72,115.4 151.5,116.62 150.0,116.62 C 148.5,116.62 147.28,115.4 147.28,113.9 C 147.28,112.4 148.5,111.18 150.0,111.18 C 151.5,111.18 152.72,112.4 152.72,113.9 z"/>

		<path id="txtPath" style="fill:none;stroke:#fb0;stroke-width:0.25px;stroke-linejoin:round"
			d="M 116.92,130.85 C 112.43,137.42 109.8,145.4 109.8,154 C 109.8,176.51 127.8,194.75 150,194.75 C 172.2,194.75 190.2,176.51 190.2,154 L 190.2,154 L 190.2,154 C 190.2,145.4 187.57,137.42 183.08,130.85" />   
	</defs> 	

	<g>
		<path id="shape" style="fill:none;stroke:#fb0;stroke-width:0.25px;stroke-linejoin:round"
			d="M 150.0,99.72 C 148.06,99.72 146.28,100.83 145.41,102.56 C 144.54,104.3 144.72,106.38 145.88,107.94 C 146.01,108.11 145.9,108.36 145.69,108.38 C 142.71,108.66 139.76,109.21 136.88,110.06 C 133.76,110.99 130.76,112.25 127.91,113.81 C 125.07,115.36 122.37,117.22 119.91,119.34 C 117.45,121.46 115.23,123.83 113.28,126.41 C 111.32,129.0 109.62,131.81 108.25,134.75 C 106.88,137.69 105.85,140.78 105.13,143.94 C 104.4,147.1 103.98,150.32 103.94,153.56 C 103.89,156.81 104.2,160.07 104.84,163.25 C 105.48,166.43 106.46,169.55 107.75,172.53 C 109.04,175.5 110.64,178.33 112.53,180.97 C 114.41,183.61 116.58,186.06 118.97,188.25 C 121.37,190.43 123.98,192.37 126.78,194.0 C 129.58,195.64 132.57,196.95 135.66,197.97 C 138.74,198.98 141.91,199.66 145.13,200.0 C 148.35,200.34 151.65,200.34 154.88,200.0 C 158.1,199.66 161.26,198.98 164.34,197.97 C 167.43,196.95 170.42,195.64 173.22,194.0 C 176.02,192.37 178.63,190.43 181.03,188.25 C 183.42,186.06 185.59,183.61 187.47,180.97 C 189.36,178.33 190.96,175.5 192.25,172.53 C 193.54,169.55 194.52,166.43 195.16,163.25 C 195.8,160.07 196.11,156.81 196.06,153.56 C 196.02,150.32 195.61,147.1 194.88,143.94 C 194.16,140.78 193.12,137.69 191.75,134.75 C 190.38,131.81 188.68,129.0 186.72,126.41 C 184.77,123.83 182.55,121.46 180.09,119.34 C 177.63,117.22 174.93,115.36 172.09,113.81 C 169.24,112.25 166.24,110.99 163.13,110.06 C 160.25,109.21 157.29,108.66 154.31,108.38 C 154.1,108.36 154.0,108.11 154.13,107.94 C 155.29,106.38 155.46,104.3 154.59,102.56 C 153.72,100.83 151.94,99.72 150.0,99.72 z M 150.0,101.69 C 151.76,101.69 153.19,103.12 153.19,104.88 C 153.19,106.64 151.76,108.06 150.0,108.06 C 148.24,108.06 146.81,106.64 146.81,104.88 C 146.81,103.12 148.24,101.69 150.0,101.69 z M 147.09,119.63 C 147.57,119.59 147.71,120.26 147.25,120.41 C 146.84,120.49 146.43,120.58 146.03,120.69 C 144.75,121.02 143.53,121.52 142.38,122.16 C 141.5,122.64 140.65,123.19 139.88,123.84 C 138.34,125.12 137.02,126.7 136.0,128.44 C 135.49,129.31 135.05,130.24 134.69,131.19 C 134.37,132.03 134.13,132.9 133.94,133.78 C 133.76,134.63 133.64,135.51 133.59,136.38 C 133.54,137.24 133.54,138.1 133.63,138.97 C 133.72,139.83 133.89,140.67 134.13,141.5 C 134.26,142.02 134.43,142.53 134.63,143.03 C 134.75,143.33 134.88,143.62 135.03,143.91 C 135.1,144.05 135.17,144.19 135.25,144.34 C 135.46,144.75 135.7,145.17 135.94,145.56 C 136.42,146.33 136.94,147.07 137.5,147.78 C 137.99,148.4 138.51,149.0 139.03,149.59 C 139.49,150.11 139.98,150.6 140.44,151.13 C 140.85,151.57 141.24,152.03 141.63,152.5 C 142.0,152.96 142.36,153.42 142.69,153.91 C 142.86,154.15 143.01,154.38 143.16,154.63 C 143.28,154.85 143.42,155.09 143.53,155.31 C 143.86,155.95 144.15,156.59 144.38,157.28 C 144.43,157.45 144.48,157.64 144.53,157.81 C 144.79,158.71 144.98,159.63 145.03,160.56 C 145.07,161.4 144.99,162.24 144.84,163.06 C 144.68,163.88 144.43,164.68 144.09,165.44 C 143.76,166.19 143.37,166.9 142.88,167.56 C 142.39,168.22 141.79,168.85 141.16,169.38 C 140.27,170.13 139.25,170.72 138.16,171.13 C 137.09,171.53 135.97,171.77 134.84,171.78 C 134.26,171.79 133.67,171.73 133.09,171.63 C 132.51,171.52 131.93,171.37 131.38,171.16 C 130.82,170.95 130.31,170.69 129.81,170.38 C 129.31,170.07 128.83,169.71 128.41,169.31 C 128.04,168.95 127.71,168.55 127.41,168.13 C 127.16,167.77 126.92,167.4 126.72,167.0 C 126.33,166.2 126.07,165.33 125.97,164.44 C 125.88,163.66 125.93,162.86 126.09,162.09 C 126.19,161.63 126.31,161.18 126.5,160.75 C 126.78,160.12 127.16,159.54 127.63,159.03 C 128.31,158.29 129.18,157.73 130.13,157.41 C 131.01,157.11 131.97,157.02 132.88,157.19 C 133.99,157.4 135.05,157.98 135.78,158.88 C 136.4,159.66 136.77,160.68 136.66,161.66 C 136.59,162.24 136.35,162.8 135.97,163.22 C 135.8,163.41 135.6,163.56 135.38,163.69 C 135.12,163.84 134.82,163.94 134.53,163.91 C 134.2,163.88 133.86,163.69 133.72,163.38 C 133.63,163.18 133.62,162.92 133.72,162.75 C 133.78,162.64 133.89,162.56 134.0,162.5 C 134.2,162.38 134.44,162.34 134.63,162.22 C 134.84,162.1 135.01,161.91 135.13,161.69 C 135.23,161.5 135.28,161.25 135.28,161.03 C 135.28,160.7 135.16,160.39 135.0,160.09 C 134.82,159.76 134.55,159.46 134.25,159.22 C 133.73,158.79 133.06,158.52 132.38,158.44 C 131.88,158.39 131.39,158.44 130.91,158.56 C 130.51,158.67 130.11,158.84 129.75,159.06 C 129.26,159.35 128.83,159.74 128.47,160.19 C 128.34,160.37 128.2,160.56 128.09,160.75 C 127.81,161.24 127.62,161.76 127.5,162.31 C 127.37,162.92 127.31,163.57 127.38,164.19 C 127.46,164.92 127.68,165.62 128.0,166.28 C 128.15,166.61 128.35,166.92 128.56,167.22 C 128.81,167.58 129.09,167.94 129.41,168.25 C 129.77,168.58 130.17,168.87 130.59,169.13 C 131.0,169.39 131.45,169.6 131.91,169.78 C 132.36,169.95 132.83,170.08 133.31,170.16 C 133.81,170.25 134.3,170.28 134.81,170.28 C 135.87,170.26 136.93,170.04 137.91,169.63 C 138.88,169.22 139.79,168.63 140.56,167.91 C 141.4,167.12 142.06,166.16 142.56,165.13 C 143.06,164.1 143.4,163.01 143.53,161.88 C 143.64,160.85 143.57,159.79 143.38,158.78 C 143.19,157.78 142.84,156.82 142.38,155.91 C 142.01,155.21 141.59,154.55 141.09,153.94 C 140.55,153.27 139.95,152.68 139.28,152.16 C 138.64,151.67 137.95,151.23 137.22,150.88 C 136.51,150.54 135.76,150.26 135.0,150.06 C 133.47,149.66 131.88,149.54 130.31,149.72 C 129.5,149.82 128.69,150.0 127.91,150.25 C 127.12,150.5 126.36,150.84 125.63,151.25 C 124.19,152.05 122.89,153.12 121.81,154.38 C 121.2,155.1 120.65,155.86 120.19,156.69 C 119.6,157.76 119.17,158.9 118.88,160.09 C 118.73,160.68 118.63,161.26 118.56,161.88 C 118.49,162.5 118.44,163.15 118.44,163.78 C 118.46,165.09 118.65,166.39 119.0,167.66 C 119.1,168.0 119.22,168.33 119.34,168.66 C 119.41,168.87 119.29,169.1 119.09,169.19 C 118.89,169.27 118.68,169.17 118.59,168.97 C 113.75,158.69 114.26,146.72 119.94,136.88 C 125.62,127.03 135.76,120.59 147.09,119.63 z M 152.75,119.63 C 152.8,119.61 152.85,119.62 152.91,119.63 C 164.23,120.58 174.37,127.0 180.06,136.84 C 185.74,146.69 186.24,158.69 181.41,168.97 C 181.2,169.41 180.57,169.2 180.66,168.72 C 180.8,168.33 180.92,167.93 181.03,167.53 C 181.38,166.26 181.56,164.95 181.59,163.63 C 181.6,162.63 181.51,161.64 181.34,160.66 C 181.0,158.67 180.3,156.75 179.31,155.0 C 178.81,154.12 178.23,153.26 177.59,152.47 C 177.02,151.78 176.39,151.13 175.72,150.53 C 175.08,149.95 174.38,149.42 173.66,148.94 C 172.93,148.47 172.17,148.04 171.38,147.69 C 170.59,147.33 169.78,147.02 168.94,146.81 C 168.42,146.67 167.92,146.57 167.38,146.5 C 167.06,146.45 166.73,146.43 166.41,146.41 C 166.24,146.4 166.07,146.39 165.91,146.38 C 165.45,146.35 164.99,146.37 164.53,146.38 C 163.63,146.41 162.71,146.5 161.81,146.63 C 161.03,146.74 160.27,146.87 159.5,147.03 C 158.82,147.17 158.14,147.32 157.47,147.47 C 156.87,147.59 156.29,147.71 155.69,147.81 C 155.11,147.91 154.5,147.99 153.91,148.03 C 153.62,148.05 153.33,148.09 153.03,148.09 C 152.78,148.09 152.53,148.07 152.28,148.06 C 151.56,148.03 150.87,147.95 150.16,147.81 C 149.98,147.77 149.81,147.73 149.63,147.69 C 148.73,147.47 147.83,147.15 147.0,146.72 C 146.26,146.34 145.55,145.89 144.91,145.34 C 144.28,144.8 143.74,144.17 143.25,143.5 C 142.76,142.84 142.33,142.13 142.0,141.38 C 141.67,140.62 141.45,139.81 141.31,139.0 C 141.11,137.85 141.1,136.66 141.28,135.5 C 141.47,134.38 141.82,133.3 142.38,132.31 C 142.66,131.8 143.0,131.32 143.38,130.88 C 143.76,130.43 144.17,130.0 144.63,129.63 C 145.09,129.25 145.6,128.91 146.13,128.63 C 146.64,128.35 147.16,128.13 147.72,127.97 C 148.21,127.82 148.72,127.74 149.22,127.69 C 149.67,127.65 150.11,127.63 150.56,127.66 C 151.45,127.73 152.34,127.93 153.16,128.28 C 153.88,128.6 154.54,129.03 155.13,129.56 C 155.48,129.87 155.79,130.21 156.06,130.59 C 156.47,131.15 156.79,131.78 157.0,132.44 C 157.3,133.4 157.36,134.43 157.16,135.41 C 156.98,136.32 156.6,137.21 156.0,137.91 C 155.26,138.77 154.2,139.39 153.06,139.56 C 152.07,139.71 151.01,139.53 150.22,138.94 C 149.76,138.6 149.39,138.11 149.22,137.56 C 149.14,137.32 149.13,137.07 149.13,136.81 C 149.13,136.51 149.17,136.21 149.34,135.97 C 149.53,135.7 149.88,135.49 150.22,135.53 C 150.43,135.55 150.64,135.66 150.75,135.84 C 150.81,135.95 150.81,136.09 150.81,136.22 C 150.81,136.45 150.77,136.66 150.78,136.88 C 150.78,137.12 150.84,137.38 150.97,137.59 C 151.09,137.78 151.25,137.92 151.44,138.03 C 151.73,138.2 152.08,138.27 152.41,138.28 C 152.79,138.28 153.18,138.22 153.53,138.09 C 154.17,137.85 154.72,137.39 155.13,136.84 C 155.43,136.44 155.65,135.98 155.78,135.5 C 155.89,135.09 155.95,134.67 155.94,134.25 C 155.93,133.68 155.8,133.1 155.59,132.56 C 155.5,132.36 155.39,132.16 155.28,131.97 C 155.0,131.48 154.66,131.04 154.25,130.66 C 153.78,130.24 153.24,129.89 152.66,129.63 C 151.99,129.34 151.26,129.18 150.53,129.13 C 150.17,129.1 149.83,129.1 149.47,129.13 C 149.02,129.17 148.58,129.25 148.16,129.38 C 147.69,129.51 147.21,129.71 146.78,129.94 C 146.35,130.18 145.94,130.44 145.56,130.75 C 145.19,131.05 144.84,131.41 144.53,131.78 C 144.2,132.17 143.93,132.59 143.69,133.03 C 143.17,133.96 142.83,134.98 142.69,136.03 C 142.56,137.09 142.64,138.16 142.88,139.19 C 143.15,140.31 143.61,141.36 144.25,142.31 C 144.89,143.26 145.71,144.11 146.63,144.78 C 147.46,145.39 148.37,145.86 149.34,146.19 C 150.31,146.53 151.33,146.73 152.34,146.78 C 153.13,146.83 153.91,146.78 154.69,146.66 C 155.53,146.52 156.37,146.27 157.16,145.94 C 157.91,145.64 158.61,145.27 159.28,144.81 C 159.93,144.37 160.53,143.84 161.09,143.28 C 162.19,142.16 163.1,140.86 163.72,139.41 C 164.05,138.67 164.3,137.89 164.47,137.09 C 164.65,136.27 164.74,135.42 164.75,134.59 C 164.78,132.93 164.52,131.28 163.97,129.72 C 163.66,128.83 163.24,127.97 162.75,127.16 C 162.12,126.12 161.35,125.16 160.47,124.31 C 160.03,123.89 159.58,123.5 159.09,123.13 C 158.59,122.76 158.05,122.43 157.5,122.13 C 156.35,121.48 155.11,120.98 153.84,120.66 C 153.5,120.57 153.16,120.5 152.81,120.44 C 152.6,120.39 152.44,120.19 152.47,119.97 C 152.49,119.81 152.6,119.67 152.75,119.63 z M 149.78,123.16 C 150.82,123.14 151.85,123.26 152.88,123.5 C 153.89,123.74 154.86,124.11 155.78,124.59 C 156.22,124.83 156.65,125.09 157.06,125.38 C 157.44,125.65 157.81,125.93 158.16,126.25 C 158.86,126.89 159.48,127.62 160.0,128.41 C 160.42,129.06 160.79,129.75 161.06,130.47 C 161.29,131.07 161.47,131.68 161.59,132.31 C 161.71,132.94 161.78,133.58 161.78,134.22 C 161.79,134.85 161.74,135.46 161.63,136.09 C 161.53,136.69 161.35,137.31 161.13,137.88 C 160.92,138.43 160.66,138.97 160.34,139.47 C 160.03,139.97 159.65,140.44 159.25,140.88 C 158.86,141.32 158.44,141.73 157.97,142.09 C 157.51,142.44 157.02,142.72 156.5,142.97 C 155.94,143.24 155.36,143.45 154.75,143.59 C 154.15,143.73 153.53,143.81 152.91,143.81 C 152.15,143.81 151.39,143.71 150.66,143.5 C 149.97,143.3 149.32,142.98 148.72,142.59 C 148.4,142.38 148.09,142.17 147.81,141.91 C 147.52,141.65 147.24,141.34 147.0,141.03 L 146.84,140.81 C 146.43,140.26 146.09,139.63 145.88,138.97 C 145.57,138.01 145.52,136.96 145.72,135.97 C 145.9,135.06 146.31,134.21 146.91,133.5 C 147.65,132.64 148.7,132.02 149.84,131.84 C 150.83,131.69 151.87,131.88 152.66,132.47 C 153.13,132.82 153.52,133.3 153.69,133.84 C 153.77,134.09 153.79,134.35 153.78,134.63 C 153.78,134.92 153.74,135.2 153.56,135.44 C 153.37,135.7 153.03,135.91 152.69,135.88 C 152.48,135.85 152.26,135.73 152.16,135.56 C 152.09,135.45 152.09,135.32 152.09,135.19 C 152.09,134.96 152.13,134.73 152.13,134.5 C 152.12,134.26 152.07,134.02 151.94,133.81 C 151.82,133.62 151.63,133.49 151.44,133.38 C 151.16,133.21 150.84,133.13 150.5,133.13 C 150.12,133.12 149.74,133.21 149.38,133.34 C 148.74,133.58 148.16,134.01 147.75,134.56 C 147.45,134.96 147.25,135.43 147.13,135.91 C 147.01,136.31 146.96,136.71 146.97,137.13 C 146.98,137.81 147.15,138.51 147.44,139.13 C 147.59,139.45 147.78,139.74 148.0,140.03 L 148.16,140.22 C 148.35,140.46 148.58,140.68 148.81,140.88 C 149.03,141.07 149.27,141.25 149.53,141.41 C 149.85,141.61 150.18,141.78 150.53,141.91 C 150.99,142.09 151.48,142.22 151.97,142.28 C 152.45,142.34 152.93,142.36 153.41,142.31 C 154.36,142.23 155.29,141.96 156.13,141.53 C 156.5,141.33 156.86,141.09 157.19,140.84 C 157.51,140.59 157.81,140.33 158.09,140.03 C 158.64,139.45 159.09,138.76 159.44,138.03 C 159.66,137.56 159.86,137.07 160.0,136.56 C 160.13,136.04 160.21,135.51 160.25,134.97 C 160.29,134.43 160.28,133.88 160.22,133.34 C 160.17,132.81 160.06,132.27 159.91,131.75 C 159.76,131.24 159.57,130.76 159.34,130.28 C 159.11,129.81 158.86,129.37 158.56,128.94 C 157.95,128.1 157.21,127.34 156.38,126.72 C 155.94,126.4 155.48,126.13 155.0,125.88 C 154.46,125.6 153.91,125.35 153.34,125.16 C 152.19,124.8 150.98,124.63 149.78,124.66 C 149.17,124.67 148.57,124.76 147.97,124.88 C 147.21,125.02 146.46,125.23 145.75,125.53 C 145.04,125.82 144.34,126.2 143.69,126.63 C 143.05,127.05 142.46,127.52 141.91,128.06 C 141.36,128.59 140.85,129.18 140.41,129.81 C 139.98,130.42 139.61,131.08 139.31,131.75 C 139.01,132.42 138.77,133.11 138.59,133.81 C 138.41,134.51 138.29,135.22 138.22,135.94 C 138.16,136.66 138.14,137.41 138.19,138.13 C 138.25,139.01 138.4,139.87 138.63,140.72 C 138.9,141.71 139.3,142.68 139.78,143.59 C 140.27,144.51 140.86,145.35 141.53,146.13 C 142.22,146.92 142.97,147.63 143.81,148.25 C 144.24,148.56 144.7,148.87 145.16,149.13 C 145.52,149.34 145.87,149.52 146.25,149.69 C 147.25,150.14 148.31,150.46 149.38,150.69 C 149.6,150.73 149.86,150.8 150.09,150.84 C 150.91,150.98 151.72,151.05 152.56,151.06 C 153.24,151.07 153.95,151.04 154.63,150.97 C 155.29,150.91 155.94,150.81 156.59,150.69 C 157.22,150.58 157.84,150.44 158.47,150.31 C 159.12,150.16 159.76,150.01 160.41,149.88 C 160.76,149.81 161.12,149.75 161.47,149.69 C 161.86,149.62 162.24,149.58 162.63,149.53 C 163.41,149.43 164.19,149.34 164.97,149.34 C 165.16,149.33 165.34,149.34 165.53,149.34 C 165.65,149.34 165.79,149.37 165.91,149.38 C 166.04,149.38 166.18,149.37 166.31,149.38 C 166.56,149.4 166.81,149.44 167.06,149.47 C 167.51,149.54 167.97,149.63 168.41,149.75 C 169.07,149.93 169.69,150.18 170.31,150.47 C 170.94,150.76 171.55,151.11 172.13,151.5 C 172.72,151.9 173.28,152.33 173.81,152.81 C 174.36,153.31 174.88,153.86 175.34,154.44 C 175.87,155.08 176.34,155.78 176.75,156.5 C 177.16,157.22 177.5,157.97 177.78,158.75 C 178.05,159.52 178.27,160.32 178.41,161.13 C 178.55,161.93 178.63,162.72 178.63,163.53 C 178.61,164.57 178.46,165.62 178.19,166.63 C 177.92,167.65 177.51,168.64 177.0,169.56 C 176.5,170.47 175.88,171.3 175.16,172.06 C 174.45,172.82 173.66,173.48 172.78,174.03 C 172.35,174.3 171.89,174.54 171.44,174.75 C 171.01,174.95 170.59,175.14 170.13,175.28 C 169.23,175.57 168.28,175.73 167.34,175.78 C 166.57,175.83 165.79,175.79 165.03,175.66 C 164.4,175.56 163.79,175.4 163.19,175.19 C 162.58,174.98 162.0,174.73 161.44,174.41 C 160.89,174.11 160.35,173.75 159.88,173.34 C 159.4,172.94 158.97,172.51 158.59,172.03 C 158.22,171.57 157.91,171.06 157.63,170.53 C 157.35,170.01 157.1,169.48 156.91,168.91 C 156.73,168.35 156.6,167.77 156.53,167.19 C 156.46,166.62 156.43,166.01 156.47,165.44 C 156.52,164.82 156.63,164.22 156.81,163.63 C 156.99,163.04 157.25,162.47 157.56,161.94 C 157.94,161.28 158.4,160.68 158.94,160.16 C 159.47,159.66 160.08,159.24 160.72,158.91 C 161.06,158.74 161.39,158.59 161.75,158.47 C 162.12,158.35 162.52,158.27 162.91,158.22 C 163.0,158.21 163.09,158.17 163.19,158.16 C 163.87,158.09 164.58,158.12 165.25,158.28 C 166.23,158.49 167.16,158.97 167.91,159.63 C 168.61,160.24 169.16,161.03 169.47,161.91 C 169.85,162.98 169.89,164.17 169.47,165.25 C 169.11,166.18 168.41,167.02 167.5,167.41 C 166.97,167.64 166.37,167.71 165.81,167.59 C 165.56,167.53 165.32,167.45 165.09,167.31 C 164.84,167.16 164.59,166.96 164.47,166.69 C 164.34,166.39 164.33,165.99 164.53,165.72 C 164.66,165.55 164.86,165.41 165.06,165.41 C 165.19,165.41 165.33,165.47 165.44,165.53 C 165.64,165.65 165.81,165.8 166.0,165.91 C 166.21,166.02 166.44,166.1 166.69,166.09 C 166.91,166.08 167.15,166.02 167.34,165.91 C 167.63,165.74 167.83,165.48 168.0,165.19 C 168.2,164.86 168.35,164.5 168.41,164.13 C 168.52,163.46 168.4,162.75 168.13,162.13 C 167.93,161.67 167.66,161.23 167.31,160.88 C 167.01,160.59 166.68,160.32 166.31,160.13 C 165.71,159.79 165.02,159.61 164.34,159.56 C 163.98,159.53 163.64,159.55 163.28,159.59 C 163.2,159.6 163.11,159.6 163.03,159.63 C 162.73,159.68 162.45,159.74 162.16,159.84 C 161.88,159.94 161.58,160.05 161.31,160.19 C 160.97,160.37 160.68,160.6 160.38,160.84 C 160.0,161.15 159.64,161.49 159.34,161.88 C 159.05,162.26 158.8,162.69 158.59,163.13 C 158.19,163.99 157.98,164.93 157.94,165.88 C 157.92,166.29 157.92,166.72 157.97,167.13 C 158.03,167.54 158.13,167.92 158.25,168.31 C 158.49,169.08 158.82,169.83 159.28,170.5 C 159.57,170.93 159.93,171.32 160.31,171.69 C 160.69,172.07 161.11,172.41 161.56,172.72 C 162.01,173.02 162.48,173.28 162.97,173.5 C 163.46,173.72 163.97,173.9 164.5,174.03 C 165.01,174.16 165.53,174.24 166.06,174.28 C 166.58,174.31 167.11,174.3 167.63,174.25 C 168.66,174.15 169.68,173.88 170.63,173.47 C 171.13,173.26 171.6,173.01 172.06,172.72 C 172.57,172.39 173.05,172.04 173.5,171.63 C 174.38,170.82 175.11,169.83 175.69,168.78 C 175.99,168.25 176.24,167.71 176.44,167.13 C 176.7,166.4 176.88,165.64 176.97,164.88 C 177.07,164.11 177.11,163.33 177.06,162.56 C 177.01,161.79 176.88,161.03 176.69,160.28 C 176.5,159.54 176.23,158.82 175.91,158.13 C 175.59,157.46 175.21,156.8 174.78,156.19 C 174.36,155.6 173.9,155.04 173.38,154.53 C 172.87,154.02 172.31,153.54 171.72,153.13 C 171.13,152.71 170.49,152.35 169.84,152.03 C 169.05,151.65 168.23,151.35 167.38,151.13 C 166.39,150.87 165.34,150.7 164.31,150.66 C 163.27,150.63 162.24,150.72 161.22,150.91 C 160.2,151.11 159.2,151.42 158.25,151.84 C 157.76,152.05 157.29,152.29 156.84,152.56 C 156.48,152.77 156.12,153.01 155.78,153.25 C 154.89,153.89 154.1,154.63 153.38,155.44 C 153.22,155.61 153.03,155.78 152.88,155.97 C 152.35,156.61 151.87,157.29 151.44,158.0 C 151.08,158.59 150.78,159.22 150.5,159.84 C 150.22,160.45 149.97,161.06 149.75,161.69 C 149.53,162.28 149.35,162.89 149.16,163.5 C 148.95,164.14 148.74,164.78 148.53,165.41 C 148.42,165.75 148.31,166.07 148.19,166.41 C 148.05,166.78 147.91,167.14 147.75,167.5 C 147.45,168.22 147.1,168.96 146.72,169.63 C 146.63,169.8 146.54,169.96 146.44,170.13 C 146.38,170.23 146.31,170.31 146.25,170.41 C 146.17,170.52 146.1,170.64 146.03,170.75 C 145.88,170.96 145.72,171.18 145.56,171.38 C 145.28,171.74 144.98,172.06 144.66,172.38 C 144.17,172.86 143.65,173.3 143.09,173.69 C 142.52,174.09 141.91,174.44 141.28,174.75 C 140.64,175.06 139.99,175.31 139.31,175.53 C 138.6,175.75 137.87,175.94 137.13,176.06 C 136.31,176.19 135.49,176.23 134.66,176.22 C 133.83,176.21 133.0,176.15 132.19,176.0 C 131.39,175.86 130.58,175.66 129.81,175.38 C 129.06,175.11 128.32,174.75 127.63,174.34 C 126.73,173.81 125.9,173.14 125.16,172.41 C 124.41,171.66 123.76,170.84 123.22,169.94 C 122.68,169.05 122.24,168.09 121.94,167.09 C 121.64,166.1 121.48,165.06 121.44,164.03 C 121.42,163.53 121.43,163.03 121.47,162.53 C 121.52,162.06 121.59,161.6 121.69,161.13 C 121.9,160.21 122.23,159.28 122.66,158.44 C 123.01,157.75 123.43,157.12 123.91,156.53 C 124.32,156.03 124.74,155.57 125.22,155.16 C 125.71,154.74 126.23,154.36 126.78,154.03 C 127.32,153.71 127.9,153.41 128.5,153.19 C 129.08,152.98 129.67,152.85 130.28,152.75 C 130.87,152.66 131.47,152.6 132.06,152.63 C 132.66,152.65 133.23,152.75 133.81,152.88 C 134.39,153.0 134.95,153.15 135.5,153.38 C 136.03,153.6 136.55,153.89 137.03,154.22 C 137.54,154.57 138.01,154.96 138.44,155.41 C 138.86,155.87 139.22,156.37 139.53,156.91 C 139.91,157.56 140.2,158.26 140.38,159.0 C 140.54,159.7 140.62,160.41 140.59,161.13 C 140.57,161.51 140.53,161.91 140.44,162.28 C 140.36,162.66 140.23,163.01 140.09,163.38 C 140.05,163.48 140.01,163.58 139.97,163.66 C 139.69,164.29 139.31,164.9 138.84,165.41 C 138.16,166.14 137.3,166.71 136.34,167.03 C 135.47,167.33 134.54,167.42 133.63,167.25 C 132.51,167.04 131.44,166.43 130.72,165.53 C 130.09,164.75 129.72,163.76 129.84,162.78 C 129.9,162.2 130.12,161.64 130.5,161.22 C 130.68,161.03 130.9,160.85 131.13,160.72 C 131.39,160.58 131.67,160.47 131.97,160.5 C 132.29,160.54 132.62,160.75 132.75,161.06 C 132.84,161.25 132.85,161.48 132.75,161.66 C 132.69,161.77 132.58,161.87 132.47,161.94 C 132.27,162.05 132.07,162.11 131.88,162.22 C 131.67,162.35 131.49,162.53 131.38,162.75 C 131.26,162.95 131.22,163.16 131.22,163.38 C 131.21,163.71 131.34,164.05 131.5,164.34 C 131.69,164.67 131.93,164.95 132.22,165.19 C 132.75,165.63 133.41,165.89 134.09,165.97 C 134.58,166.03 135.11,166.01 135.59,165.88 C 135.99,165.77 136.36,165.6 136.72,165.38 C 137.3,165.03 137.8,164.53 138.19,163.97 C 138.39,163.67 138.58,163.36 138.72,163.03 C 138.75,162.95 138.79,162.89 138.81,162.81 C 138.92,162.53 139.0,162.23 139.06,161.94 C 139.12,161.64 139.15,161.34 139.16,161.03 C 139.18,160.65 139.15,160.25 139.09,159.88 C 139.02,159.39 138.88,158.93 138.69,158.47 C 138.5,158.03 138.25,157.61 137.97,157.22 C 137.43,156.44 136.74,155.76 135.94,155.25 C 135.59,155.02 135.22,154.82 134.84,154.66 C 134.46,154.51 134.05,154.4 133.66,154.31 C 132.87,154.13 132.06,154.07 131.25,154.13 C 130.73,154.17 130.22,154.24 129.72,154.38 C 129.2,154.53 128.68,154.73 128.19,154.97 C 127.7,155.2 127.25,155.49 126.81,155.81 C 126.38,156.12 125.96,156.46 125.59,156.84 C 125.22,157.22 124.89,157.65 124.59,158.09 C 124.3,158.52 124.06,158.97 123.84,159.44 C 123.42,160.38 123.12,161.41 123.0,162.44 C 122.94,162.98 122.92,163.52 122.94,164.06 C 122.97,164.66 123.06,165.25 123.19,165.84 C 123.45,167.02 123.9,168.16 124.53,169.19 C 124.84,169.71 125.19,170.2 125.59,170.66 C 126.09,171.25 126.66,171.78 127.28,172.25 C 127.89,172.72 128.56,173.13 129.25,173.47 C 129.94,173.82 130.67,174.07 131.41,174.28 C 132.15,174.49 132.89,174.65 133.66,174.72 C 134.4,174.78 135.14,174.76 135.88,174.69 C 136.6,174.62 137.32,174.5 138.03,174.31 C 138.73,174.11 139.43,173.86 140.09,173.56 C 140.74,173.26 141.37,172.9 141.97,172.5 C 142.69,172.01 143.39,171.43 144.0,170.81 C 144.73,170.08 145.36,169.26 145.91,168.38 C 146.45,167.51 146.91,166.57 147.25,165.59 C 147.6,164.61 147.83,163.57 147.94,162.53 C 148.0,162.01 148.01,161.5 148.0,160.97 C 148.0,160.55 147.98,160.13 147.94,159.72 C 147.83,158.63 147.59,157.54 147.25,156.5 C 147.18,156.27 147.11,156.06 147.03,155.84 C 146.74,155.06 146.4,154.29 146.0,153.56 C 145.66,152.96 145.26,152.4 144.88,151.84 C 144.49,151.31 144.09,150.79 143.66,150.28 C 143.25,149.8 142.83,149.31 142.41,148.84 C 141.95,148.34 141.5,147.84 141.06,147.34 C 140.82,147.07 140.57,146.8 140.34,146.53 C 140.09,146.22 139.87,145.95 139.63,145.63 C 139.16,145.01 138.7,144.36 138.31,143.69 C 138.21,143.53 138.12,143.36 138.03,143.19 C 137.97,143.09 137.89,142.99 137.84,142.88 C 137.78,142.76 137.72,142.62 137.66,142.5 C 137.55,142.27 137.47,142.05 137.38,141.81 C 137.21,141.38 137.05,140.95 136.94,140.5 C 136.77,139.84 136.65,139.18 136.59,138.5 C 136.53,137.8 136.54,137.07 136.59,136.38 C 136.64,135.67 136.73,134.98 136.88,134.28 C 137.04,133.56 137.27,132.86 137.53,132.16 C 137.83,131.39 138.2,130.63 138.63,129.91 C 139.04,129.2 139.5,128.51 140.03,127.88 C 140.56,127.25 141.15,126.68 141.78,126.16 C 142.4,125.64 143.07,125.18 143.78,124.78 C 144.69,124.27 145.65,123.87 146.66,123.59 C 147.67,123.31 148.72,123.18 149.78,123.16 z M 163.91,153.66 C 164.32,153.66 164.72,153.67 165.13,153.72 C 165.95,153.82 166.75,154.0 167.53,154.28 C 168.62,154.67 169.65,155.26 170.56,156.0 C 171.44,156.72 172.2,157.59 172.78,158.56 C 173.08,159.06 173.33,159.57 173.53,160.13 C 173.73,160.69 173.88,161.29 173.97,161.88 C 174.07,162.47 174.11,163.03 174.09,163.63 C 174.08,164.21 174.01,164.81 173.88,165.38 C 173.76,165.88 173.59,166.34 173.38,166.81 C 173.2,167.21 172.97,167.6 172.72,167.97 C 172.22,168.71 171.59,169.39 170.88,169.91 C 170.25,170.38 169.53,170.73 168.78,170.97 C 168.33,171.12 167.88,171.23 167.41,171.28 C 166.73,171.35 166.02,171.31 165.34,171.16 C 164.36,170.94 163.44,170.47 162.69,169.81 C 161.99,169.2 161.44,168.43 161.13,167.56 C 160.75,166.49 160.75,165.26 161.16,164.19 C 161.53,163.26 162.22,162.45 163.13,162.06 C 163.66,161.83 164.25,161.75 164.81,161.88 C 165.06,161.93 165.3,162.03 165.53,162.16 C 165.78,162.31 166.01,162.51 166.13,162.78 C 166.26,163.08 166.26,163.45 166.06,163.72 C 165.93,163.9 165.73,164.03 165.53,164.03 C 165.4,164.03 165.27,163.98 165.16,163.91 C 164.96,163.8 164.82,163.64 164.63,163.53 C 164.42,163.41 164.15,163.37 163.91,163.38 C 163.68,163.38 163.47,163.45 163.28,163.56 C 162.99,163.72 162.76,163.99 162.59,164.28 C 162.39,164.61 162.29,164.97 162.22,165.34 C 162.11,166.01 162.2,166.71 162.47,167.34 C 162.67,167.8 162.96,168.21 163.31,168.56 C 163.61,168.86 163.95,169.11 164.31,169.31 C 164.82,169.59 165.37,169.8 165.94,169.88 C 166.16,169.91 166.41,169.91 166.63,169.91 C 167.19,169.91 167.75,169.83 168.28,169.66 C 168.88,169.47 169.43,169.18 169.94,168.81 C 170.53,168.38 171.06,167.83 171.47,167.22 C 171.68,166.92 171.84,166.61 172.0,166.28 C 172.18,165.87 172.34,165.46 172.44,165.03 C 172.56,164.55 172.61,164.05 172.63,163.56 C 172.64,163.07 172.61,162.6 172.53,162.13 C 172.45,161.65 172.33,161.15 172.16,160.69 C 171.99,160.22 171.76,159.78 171.5,159.34 C 170.96,158.43 170.25,157.64 169.41,157.0 C 168.57,156.36 167.6,155.87 166.59,155.56 C 165.49,155.23 164.31,155.11 163.16,155.19 C 162.03,155.28 160.92,155.54 159.88,156.0 C 158.94,156.42 158.06,156.98 157.28,157.66 C 156.51,158.32 155.83,159.09 155.28,159.94 C 154.85,160.6 154.5,161.32 154.22,162.06 C 153.91,162.86 153.7,163.68 153.59,164.53 C 153.48,165.33 153.44,166.16 153.5,166.97 C 153.56,167.75 153.7,168.52 153.91,169.28 C 154.32,170.8 155.04,172.24 155.97,173.5 C 156.46,174.16 156.99,174.76 157.59,175.31 C 158.21,175.86 158.92,176.38 159.63,176.81 C 161.04,177.66 162.59,178.26 164.22,178.56 C 165.15,178.73 166.12,178.8 167.06,178.78 C 168.28,178.75 169.48,178.55 170.66,178.22 C 171.24,178.05 171.82,177.87 172.38,177.63 C 172.96,177.38 173.52,177.07 174.06,176.75 C 175.19,176.08 176.21,175.28 177.13,174.34 C 177.37,174.09 177.64,173.8 177.88,173.53 C 178.02,173.37 178.24,173.36 178.41,173.5 C 178.59,173.63 178.62,173.85 178.5,174.03 C 172.01,183.36 161.36,188.94 150.0,188.94 C 138.64,188.94 127.99,183.36 121.5,174.03 C 121.22,173.63 121.77,173.17 122.13,173.5 C 122.39,173.81 122.65,174.12 122.94,174.41 C 123.87,175.35 124.9,176.2 126.03,176.88 C 126.89,177.39 127.81,177.81 128.75,178.16 C 130.64,178.86 132.64,179.2 134.66,179.22 C 135.67,179.22 136.69,179.13 137.69,178.97 C 138.58,178.82 139.46,178.62 140.31,178.34 C 141.14,178.07 141.97,177.73 142.75,177.34 C 143.52,176.95 144.26,176.5 144.97,176.0 C 145.67,175.49 146.34,174.93 146.94,174.31 C 147.32,173.93 147.67,173.56 148.0,173.13 C 148.19,172.88 148.37,172.6 148.56,172.34 C 148.65,172.2 148.75,172.04 148.84,171.91 C 149.08,171.52 149.31,171.13 149.53,170.72 C 149.95,169.92 150.33,169.09 150.66,168.25 C 150.96,167.52 151.22,166.78 151.47,166.03 C 151.68,165.37 151.88,164.71 152.09,164.06 C 152.28,163.48 152.48,162.9 152.69,162.34 C 152.9,161.78 153.13,161.22 153.38,160.69 C 153.51,160.42 153.64,160.16 153.78,159.91 C 153.9,159.69 154.03,159.49 154.16,159.28 C 154.55,158.67 155.0,158.1 155.47,157.56 C 155.59,157.42 155.71,157.29 155.84,157.16 C 156.48,156.49 157.18,155.89 157.97,155.38 C 158.67,154.93 159.43,154.52 160.22,154.25 C 161.0,153.97 161.83,153.81 162.66,153.72 C 163.07,153.67 163.49,153.65 163.91,153.66 z" />
			
		<!-- Shape One -->
		<text dy="2.5" style="font-size:17px;fill:#f00;stroke:none;font-family:z_magnolia;text-anchor:middle;">
			<textPath id="txt1" xlink:href="#txtPath" startOffset="50%" class="txt" ></textPath>
		</text>
	   
		<!-- Prism Reference -->
		<cam mingh:cam="--actions=EditSelectAll;ObjectToPath;ZoomPage;ZoomCenterPage;FileVacuum;FileSave; -g" mingh:style="source:microprism">M2</cam>  
	</g>
</svg>