<?xml version="1.0" encoding="UTF-8" standalone="no"?>

<svg
   xmlns:xlink="http://www.w3.org/1999/xlink"
   xmlns:svg="http://www.w3.org/2000/svg"
   xmlns="http://www.w3.org/2000/svg"
   xmlns:mingh="http://www.minghworld.com"
   width="300px"
   height="300px" >

	<defs> 
		<path id="birth" style="fill:#00f;stroke:none"  
		   d="M 153.74,113.9 C 153.74,115.96 152.06,117.64 150.0,117.64 C 147.94,117.64 146.26,115.96 146.26,113.9 C 146.26,111.84 147.94,110.16 150.0,110.16 C 152.06,110.16 153.74,111.84 153.74,113.9 z"/>
		   
		<path id="diamond" style="fill:none;stroke:#000;stroke-width:0.25px"  
		   d="M 152.72,113.9 C 152.72,115.4 151.5,116.62 150.0,116.62 C 148.5,116.62 147.28,115.4 147.28,113.9 C 147.28,112.4 148.5,111.18 150.0,111.18 C 151.5,111.18 152.72,112.4 152.72,113.9 z"/>

		<path id="txtPath" style="fill:none;stroke:#fb0;stroke-width:0.25px;stroke-linejoin:round"
			d="M 116.92,130.85 C 112.43,137.42 109.8,145.4 109.8,154 C 109.8,176.51 127.8,194.75 150,194.75 C 172.2,194.75 190.2,176.51 190.2,154 L 190.2,154 L 190.2,154 C 190.2,145.4 187.57,137.42 183.08,130.85" />   
		</defs> 	

		<g>
			<path id="shape" style="fill:none;stroke:#fb0;stroke-width:0.25px;stroke-linejoin:round"
				d="M 150.0,99.88 C 148.06,99.88 146.28,100.96 145.41,102.69 C 144.54,104.42 144.72,106.47 145.88,108.03 C 146.01,108.19 145.9,108.45 145.69,108.47 C 142.71,108.75 139.78,109.31 136.91,110.16 C 133.81,111.08 130.81,112.36 127.97,113.91 C 125.13,115.46 122.45,117.29 120.0,119.41 C 117.55,121.52 115.33,123.89 113.38,126.47 C 111.43,129.05 109.75,131.85 108.38,134.78 C 107.01,137.71 105.94,140.78 105.22,143.94 C 104.5,147.09 104.1,150.33 104.06,153.56 C 104.01,156.8 104.31,160.05 104.94,163.22 C 105.58,166.4 106.56,169.5 107.84,172.47 C 109.13,175.44 110.75,178.25 112.63,180.88 C 114.51,183.52 116.64,185.95 119.03,188.13 C 121.42,190.31 124.04,192.25 126.84,193.88 C 129.63,195.51 132.62,196.84 135.69,197.84 C 138.77,198.85 141.94,199.53 145.16,199.88 C 148.37,200.22 151.63,200.22 154.84,199.88 C 158.06,199.53 161.23,198.85 164.31,197.84 C 167.38,196.84 170.37,195.51 173.16,193.88 C 175.96,192.25 178.58,190.31 180.97,188.13 C 183.36,185.95 185.5,183.52 187.38,180.88 C 189.26,178.25 190.87,175.44 192.16,172.47 C 193.44,169.5 194.42,166.4 195.06,163.22 C 195.69,160.05 195.99,156.8 195.94,153.56 C 195.9,150.33 195.5,147.09 194.78,143.94 C 194.06,140.78 193.0,137.71 191.63,134.78 C 190.26,131.85 188.58,129.05 186.63,126.47 C 184.68,123.89 182.45,121.52 180.0,119.41 C 177.55,117.29 174.87,115.46 172.03,113.91 C 169.19,112.36 166.19,111.08 163.09,110.16 C 160.22,109.31 157.29,108.75 154.31,108.47 C 154.1,108.45 154.0,108.19 154.13,108.03 C 155.29,106.47 155.46,104.42 154.59,102.69 C 153.72,100.96 151.94,99.88 150.0,99.88 z M 150.0,101.81 C 151.76,101.81 153.19,103.21 153.19,104.97 C 153.19,106.73 151.76,108.16 150.0,108.16 C 148.24,108.16 146.81,106.73 146.81,104.97 C 146.81,103.21 148.24,101.81 150.0,101.81 z M 150.0,119.56 C 155.04,119.56 160.08,120.68 164.75,122.88 C 164.94,122.97 165.02,123.18 164.94,123.38 C 164.85,123.58 164.64,123.71 164.44,123.63 C 159.75,121.86 154.54,122.17 150.13,124.53 C 150.04,124.58 149.97,124.58 149.88,124.53 C 145.46,122.17 140.25,121.86 135.56,123.63 C 135.36,123.71 135.15,123.58 135.06,123.38 C 134.98,123.18 135.06,122.97 135.25,122.88 C 139.92,120.68 144.96,119.56 150.0,119.56 z M 142.41,124.69 C 144.12,124.77 145.81,125.15 147.44,125.81 C 147.62,125.89 147.65,126.13 147.5,126.25 C 143.79,129.2 141.46,133.51 141.03,138.22 C 141.01,138.39 140.82,138.51 140.66,138.44 C 136.36,136.46 131.43,136.32 127.03,138.06 C 126.85,138.13 126.66,138.0 126.69,137.81 C 127.31,133.16 130.07,129.04 134.13,126.69 C 136.67,125.23 139.55,124.56 142.41,124.69 z M 157.59,124.69 C 160.45,124.56 163.33,125.23 165.88,126.69 C 169.94,129.04 172.69,133.16 173.31,137.81 C 173.34,138.0 173.15,138.13 172.97,138.06 C 168.57,136.32 163.64,136.46 159.34,138.44 C 159.18,138.51 158.99,138.39 158.97,138.22 C 158.54,133.51 156.21,129.2 152.5,126.25 C 152.35,126.13 152.38,125.89 152.56,125.81 C 154.19,125.15 155.88,124.77 157.59,124.69 z M 130.38,125.69 C 130.52,125.66 130.68,125.72 130.78,125.84 C 130.91,126.01 130.89,126.28 130.72,126.41 C 126.85,129.58 124.55,134.25 124.38,139.25 C 124.38,139.35 124.34,139.42 124.25,139.47 C 120.0,142.12 117.08,146.47 116.28,151.41 C 116.24,151.62 116.06,151.78 115.84,151.75 C 115.63,151.73 115.48,151.53 115.5,151.31 C 116.36,141.02 121.77,131.65 130.25,125.75 C 130.29,125.72 130.33,125.7 130.38,125.69 z M 169.47,125.69 C 169.57,125.67 169.66,125.69 169.75,125.75 C 178.23,131.65 183.64,141.02 184.5,151.31 C 184.52,151.53 184.37,151.73 184.16,151.75 C 183.94,151.78 183.76,151.62 183.72,151.41 C 182.92,146.47 180.0,142.12 175.75,139.47 C 175.66,139.42 175.63,139.35 175.63,139.25 C 175.46,134.25 173.15,129.58 169.28,126.41 C 169.11,126.28 169.09,126.01 169.22,125.84 C 169.28,125.76 169.37,125.7 169.47,125.69 z M 150.0,127.22 C 150.05,127.22 150.09,127.23 150.13,127.25 C 153.72,129.67 156.12,133.51 156.69,137.81 C 156.72,138.0 156.52,138.13 156.34,138.06 C 152.26,136.46 147.74,136.46 143.66,138.06 C 143.48,138.13 143.28,138.0 143.31,137.81 C 143.88,133.51 146.29,129.67 149.88,127.25 C 149.92,127.23 149.95,127.22 150.0,127.22 z M 150.0,139.03 C 151.96,139.03 153.91,139.4 155.75,140.16 C 155.93,140.23 155.96,140.47 155.81,140.59 C 153.26,142.61 151.34,145.31 150.25,148.38 C 150.17,148.6 149.83,148.6 149.75,148.38 C 148.66,145.31 146.74,142.61 144.19,140.59 C 144.04,140.47 144.07,140.23 144.25,140.16 C 146.09,139.4 148.04,139.03 150.0,139.03 z M 132.91,139.06 C 135.02,139.0 137.15,139.39 139.16,140.22 C 139.33,140.29 139.37,140.51 139.22,140.63 C 135.78,143.35 133.53,147.29 132.88,151.63 C 132.85,151.82 132.59,151.93 132.44,151.81 C 129.01,149.17 126.89,145.16 126.59,140.84 C 126.58,140.74 126.63,140.67 126.72,140.63 C 128.66,139.67 130.79,139.13 132.91,139.06 z M 167.09,139.06 C 169.21,139.13 171.34,139.67 173.28,140.63 C 173.37,140.67 173.42,140.74 173.41,140.84 C 173.11,145.16 170.99,149.17 167.56,151.81 C 167.4,151.93 167.16,151.82 167.13,151.63 C 166.48,147.29 164.22,143.35 160.78,140.63 C 160.63,140.51 160.67,140.29 160.84,140.22 C 162.85,139.39 164.98,139.0 167.09,139.06 z M 124.25,142.16 C 124.38,142.14 124.51,142.23 124.53,142.38 C 125.22,147.06 127.8,151.26 131.66,154.0 C 131.81,154.1 131.81,154.31 131.66,154.41 C 127.8,157.15 125.22,161.34 124.53,166.03 C 124.5,166.22 124.28,166.31 124.13,166.19 C 120.41,163.32 118.25,158.89 118.25,154.19 C 118.25,149.5 120.41,145.08 124.13,142.22 C 124.16,142.19 124.21,142.16 124.25,142.16 z M 140.84,142.16 C 140.97,142.14 141.1,142.23 141.13,142.38 C 141.6,145.6 142.98,148.61 145.09,151.09 C 145.24,151.27 145.08,151.54 144.84,151.5 C 141.64,150.91 138.34,151.24 135.31,152.44 C 135.13,152.51 134.94,152.35 134.97,152.16 C 135.5,148.21 137.57,144.63 140.72,142.19 C 140.76,142.16 140.8,142.16 140.84,142.16 z M 159.16,142.16 C 159.2,142.16 159.24,142.16 159.28,142.19 C 162.43,144.63 164.5,148.21 165.03,152.16 C 165.06,152.35 164.87,152.51 164.69,152.44 C 161.66,151.24 158.36,150.91 155.16,151.5 C 154.92,151.54 154.76,151.27 154.91,151.09 C 157.02,148.61 158.41,145.6 158.88,142.38 C 158.9,142.23 159.03,142.14 159.16,142.16 z M 175.75,142.16 C 175.79,142.16 175.84,142.19 175.88,142.22 C 179.6,145.08 181.75,149.5 181.75,154.19 C 181.75,158.89 179.6,163.32 175.88,166.19 C 175.73,166.31 175.5,166.22 175.47,166.03 C 174.78,161.34 172.2,157.15 168.34,154.41 C 168.19,154.31 168.19,154.1 168.34,154.0 C 172.2,151.26 174.78,147.06 175.47,142.38 C 175.49,142.23 175.62,142.14 175.75,142.16 z M 143.84,143.31 C 143.88,143.32 143.91,143.34 143.94,143.38 C 145.94,145.32 147.37,147.76 148.06,150.47 C 148.11,150.65 147.88,150.79 147.75,150.66 C 145.75,148.72 144.32,146.24 143.63,143.53 C 143.59,143.4 143.73,143.3 143.84,143.31 z M 156.16,143.31 C 156.27,143.3 156.41,143.4 156.38,143.53 C 155.69,146.24 154.25,148.72 152.25,150.66 C 152.12,150.79 151.89,150.65 151.94,150.47 C 152.63,147.76 154.06,145.32 156.06,143.38 C 156.1,143.34 156.12,143.32 156.16,143.31 z M 141.69,153.47 C 143.07,153.47 144.47,153.65 145.81,154.03 C 145.99,154.08 145.99,154.32 145.81,154.38 C 143.12,155.14 140.28,155.14 137.59,154.38 C 137.41,154.32 137.41,154.08 137.59,154.03 C 138.94,153.65 140.31,153.47 141.69,153.47 z M 158.31,153.47 C 159.7,153.47 161.06,153.65 162.41,154.03 C 162.59,154.08 162.59,154.32 162.41,154.38 C 159.72,155.14 156.88,155.14 154.19,154.38 C 154.01,154.32 154.01,154.08 154.19,154.03 C 155.53,153.65 156.93,153.47 158.31,153.47 z M 135.19,155.97 C 135.23,155.96 135.27,155.95 135.31,155.97 C 138.34,157.17 141.64,157.49 144.84,156.91 C 145.08,156.86 145.24,157.13 145.09,157.31 C 142.98,159.79 141.6,162.81 141.13,166.03 C 141.1,166.22 140.87,166.31 140.72,166.19 C 137.57,163.76 135.5,160.2 134.97,156.25 C 134.95,156.11 135.06,155.99 135.19,155.97 z M 164.69,155.97 C 164.87,155.9 165.06,156.06 165.03,156.25 C 164.5,160.2 162.43,163.76 159.28,166.19 C 159.13,166.31 158.91,166.22 158.88,166.03 C 158.41,162.81 157.02,159.79 154.91,157.31 C 154.76,157.13 154.92,156.86 155.16,156.91 C 158.36,157.49 161.66,157.17 164.69,155.97 z M 132.56,156.56 C 132.69,156.55 132.85,156.64 132.88,156.78 C 133.53,161.12 135.78,165.05 139.22,167.78 C 139.37,167.9 139.33,168.12 139.16,168.19 C 135.15,169.84 130.61,169.71 126.72,167.81 C 126.63,167.77 126.58,167.66 126.59,167.56 C 126.89,163.24 129.01,159.26 132.44,156.63 C 132.48,156.6 132.52,156.57 132.56,156.56 z M 167.28,156.56 C 167.36,156.53 167.48,156.57 167.56,156.63 C 170.99,159.26 173.11,163.24 173.41,167.56 C 173.42,167.66 173.37,167.77 173.28,167.81 C 169.39,169.71 164.85,169.84 160.84,168.19 C 160.67,168.12 160.63,167.9 160.78,167.78 C 164.22,165.05 166.48,161.12 167.13,156.78 C 167.14,156.69 167.2,156.59 167.28,156.56 z M 115.84,156.66 C 116.06,156.64 116.24,156.79 116.28,157.0 C 117.08,161.94 120.0,166.29 124.25,168.94 C 124.34,168.99 124.38,169.04 124.38,169.13 C 124.55,174.14 126.85,178.83 130.72,182.0 C 130.89,182.14 130.91,182.38 130.78,182.56 C 130.65,182.73 130.43,182.76 130.25,182.63 C 121.77,176.74 116.36,167.37 115.5,157.09 C 115.48,156.87 115.63,156.69 115.84,156.66 z M 184.16,156.66 C 184.37,156.69 184.52,156.87 184.5,157.09 C 183.64,167.37 178.23,176.74 169.75,182.63 C 169.57,182.76 169.35,182.73 169.22,182.56 C 169.09,182.38 169.11,182.14 169.28,182.0 C 173.15,178.83 175.46,174.14 175.63,169.13 C 175.63,169.04 175.66,168.99 175.75,168.94 C 180.0,166.29 182.92,161.94 183.72,157.0 C 183.76,156.79 183.94,156.64 184.16,156.66 z M 147.84,157.69 C 147.96,157.68 148.1,157.8 148.06,157.94 C 147.37,160.64 145.94,163.11 143.94,165.06 C 143.81,165.18 143.57,165.06 143.63,164.88 C 144.32,162.18 145.75,159.7 147.75,157.75 C 147.78,157.72 147.81,157.69 147.84,157.69 z M 152.16,157.69 C 152.19,157.69 152.22,157.72 152.25,157.75 C 154.25,159.7 155.69,162.18 156.38,164.88 C 156.43,165.06 156.19,165.18 156.06,165.06 C 154.06,163.11 152.63,160.64 151.94,157.94 C 151.9,157.8 152.04,157.68 152.16,157.69 z M 150.0,159.84 C 150.1,159.84 150.21,159.92 150.25,160.03 C 151.34,163.1 153.26,165.79 155.81,167.81 C 155.96,167.93 155.93,168.18 155.75,168.25 C 152.07,169.76 147.93,169.76 144.25,168.25 C 144.07,168.18 144.04,167.93 144.19,167.81 C 146.74,165.79 148.66,163.1 149.75,160.03 C 149.79,159.92 149.9,159.84 150.0,159.84 z M 140.78,169.94 C 140.9,169.94 141.02,170.05 141.03,170.19 C 141.46,174.9 143.79,179.22 147.5,182.16 C 147.65,182.28 147.62,182.52 147.44,182.59 C 143.1,184.38 138.2,184.04 134.13,181.69 C 130.07,179.35 127.31,175.28 126.69,170.63 C 126.66,170.44 126.85,170.27 127.03,170.34 C 131.43,172.08 136.36,171.95 140.66,169.97 C 140.7,169.95 140.74,169.94 140.78,169.94 z M 159.22,169.94 C 159.26,169.94 159.3,169.95 159.34,169.97 C 163.64,171.95 168.57,172.08 172.97,170.34 C 173.15,170.27 173.34,170.44 173.31,170.63 C 172.69,175.28 169.94,179.35 165.88,181.69 C 161.81,184.04 156.9,184.38 152.56,182.59 C 152.38,182.52 152.35,182.28 152.5,182.16 C 156.21,179.22 158.54,174.9 158.97,170.19 C 158.98,170.05 159.1,169.94 159.22,169.94 z M 143.53,170.31 C 143.57,170.31 143.61,170.33 143.66,170.34 C 147.74,171.95 152.26,171.95 156.34,170.34 C 156.52,170.27 156.72,170.4 156.69,170.59 C 156.12,174.88 153.72,178.75 150.13,181.16 C 150.04,181.22 149.96,181.22 149.88,181.16 C 146.29,178.75 143.88,174.88 143.31,170.59 C 143.29,170.45 143.4,170.33 143.53,170.31 z M 150.0,183.84 C 150.04,183.84 150.08,183.86 150.13,183.88 C 154.54,186.24 159.75,186.58 164.44,184.81 C 164.64,184.73 164.85,184.83 164.94,185.03 C 165.02,185.22 164.94,185.43 164.75,185.53 C 155.41,189.92 144.59,189.92 135.25,185.53 C 135.06,185.43 134.98,185.22 135.06,185.03 C 135.15,184.83 135.36,184.73 135.56,184.81 C 140.25,186.58 145.46,186.24 149.88,183.88 C 149.92,183.86 149.96,183.84 150.0,183.84 z" />
		
		<path id="mark" style="fill:none;stroke:#fb0;stroke-width:0.25px;stroke-linejoin:round" 
			d="M 135.05,123.38 C 133.56,124.1 132.15,124.92 130.78,125.84 M 164.95,185.02 C 166.44,184.3 167.85,183.49 169.22,182.56 M 130.78,182.56 C 132.15,183.49 133.56,184.3 135.05,185.02 M 115.83,151.74 C 115.71,153.39 115.71,155.02 115.83,156.67 M 169.22,125.84 C 167.85,124.92 166.44,124.1 164.95,123.38 M 184.17,156.67 C 184.29,155.02 184.29,153.39 184.17,151.74" /> 	
			
		<text dy="2.5" style="font-size:17px;fill:#f00;stroke:none;font-family:z_magnolia;text-anchor:middle;">
			<textPath id="txt1" xlink:href="#txtPath" startOffset="50%" class="txt" ></textPath>
	    </text>
		   
			<!-- Prism Reference -->
			<cam mingh:cam="--actions=EditSelectAll;ObjectToPath;ZoomPage;ZoomCenterPage;FileVacuum;FileSave; -g" mingh:style="source:microprism">M2</cam> 
	  </g>
			   
	
</svg>