<?xml version="1.0" encoding="UTF-8" standalone="no"?>

<svg
   xmlns:xlink="http://www.w3.org/1999/xlink"
   xmlns:svg="http://www.w3.org/2000/svg"
   xmlns="http://www.w3.org/2000/svg"
   xmlns:mingh="http://www.minghworld.com"
   width="300px"
   height="300px" >
	
	 <g>
		<defs>
			<path class="birth" style="fill:#00f;stroke:none;"
				d="M 90.12,154.09 C 87.87,154.09 86.04,152.27 86.04,150.02 86.04,147.77 87.87,145.94 90.12,145.94 92.37,145.94 94.19,147.77 94.19,150.02 94.19,152.27 92.37,154.09 90.12,154.09 z" />
			<path class="birth" style="fill:#00f;stroke:none;"
				d="M 209.88,154.09 C 207.63,154.09 205.81,152.27 205.81,150.02 205.81,147.77 207.63,145.94 209.88,145.94 212.13,145.94 213.96,147.77 213.96,150.02 213.96,152.27 212.13,154.09 209.88,154.09 z" />
		 
			<path class="diamond" style="fill:none;stroke:#000;stroke-width:0.25px;"
				d="M 90.12,152.85 C 88.55,152.85 87.28,151.58 87.28,150.02 87.28,148.45 88.55,147.18 90.12,147.18 91.68,147.18 92.95,148.45 92.95,150.02 92.95,151.58 91.68,152.85 90.12,152.85 z" />
			<path class="diamond" style="fill:none;stroke:#000;stroke-width:0.25px;"
				d="M 209.88,152.85 C 208.32,152.85 207.05,151.58 207.05,150.02 207.05,148.45 208.32,147.18 209.88,147.18 211.45,147.18 212.72,148.45 212.72,150.02 212.72,151.58 211.45,152.85 209.88,152.85 z" />
		</defs>
		
		<!-- Paths -->
		<path class="shape" style="stroke:#fb0;stroke-width:0.25px;" fill="none"
			d="M 147.32,144.17 C 147.32,146.66 150.32,147.9 152.08,146.15 152.94,145.29 154.42,145.14 155.51,145.48 156.81,145.89 157.38,147.03 157.62,148.23 157.82,149.27 157.82,150.73 157.62,151.77 157.38,152.97 156.81,154.11 155.51,154.52 154.42,154.86 152.94,154.71 152.08,153.85 150.32,152.1 147.32,153.34 147.32,155.83 M 224.41,139.19 C 224.41,138.01 223.46,137.06 222.28,137.06 L 149.44,137.06 C 148.26,137.06 147.31,138.01 147.31,139.19 147.31,138.01 146.36,137.06 145.19,137.06 L 77.72,137.06 C 76.54,137.06 75.59,138.01 75.59,139.19 L 75.59,160.81 C 75.59,161.99 76.54,162.94 77.72,162.94 L 145.19,162.94 C 146.36,162.94 147.31,161.99 147.31,160.81 147.31,161.99 148.26,162.94 149.44,162.94 L 222.28,162.94 C 223.46,162.94 224.41,161.99 224.41,160.81 L 224.41,139.19 z M 221.56,150.03 C 221.56,151.79 220.14,153.22 218.37,153.22 216.61,153.22 215.19,151.79 215.19,150.03 215.19,148.27 216.61,146.84 218.37,146.84 220.14,146.84 221.56,148.27 221.56,150.03 z M 84.81,150.03 C 84.81,151.79 83.39,153.22 81.62,153.22 79.86,153.22 78.44,151.79 78.44,150.03 78.44,148.27 79.86,146.84 81.62,146.84 83.39,146.84 84.81,148.27 84.81,150.03 z" />
		<path  class="shape" style="fill:none;stroke:#fb0;stroke-width:0.25px" 
			d="M 147.32,139.19 147.32,144.17 M 147.32,155.83 147.32,160.81" />

		<text style="font-size:12px;font-family:'z_corsiva';fill:#f00;text-anchor:middle" transform="matrix(-1 0 0 -1 120 148)" class="txt" />
		<text style="font-size:12px;font-family:'z_corsiva';fill:#f00;text-anchor:middle" transform="matrix(1 0 0 1 182 153)" class="txt" />
		 
		<!-- Prism Reference -->
		<cam mingh:cam="--actions=EditSelectAll;ObjectToPath;ZoomPage;ZoomCenterPage;FileVacuum;FileSave; -g" mingh:style="source:microprism">M2</cam> 
	 </g>

</svg>
