<?xml version="1.0" encoding="UTF-8" standalone="no"?>

<svg
   xmlns:xlink="http://www.w3.org/1999/xlink"
   xmlns:svg="http://www.w3.org/2000/svg"
   xmlns="http://www.w3.org/2000/svg"
   xmlns:mingh="http://www.minghworld.com"
   width="300px"
   height="300px" >
	
	<g>
		<defs>
			<path class="birth" style="fill:#00f;stroke:none;"
			d="M 144.59,122.83 C 144.59,125.08 142.77,126.91 140.52,126.91 138.27,126.91 136.44,125.08 136.44,122.83 136.44,120.58 138.27,118.76 140.52,118.76 142.77,118.76 144.59,120.58 144.59,122.83 z" />
		<path class="birth" style="fill:#00f;stroke:none;"
			d="M 128.72,164.89 C 128.72,167.14 126.9,168.97 124.65,168.97 122.4,168.97 120.57,167.14 120.57,164.89 120.57,162.64 122.4,160.82 124.65,160.82 126.9,160.82 128.72,162.64 128.72,164.89 z" />
		<path class="birth" style="fill:#00f;stroke:none;"
			d="M 187.61,150.47 C 187.61,152.72 185.79,154.55 183.54,154.55 181.29,154.55 179.46,152.72 179.46,150.47 179.46,148.22 181.29,146.4 183.54,146.4 185.79,146.4 187.61,148.22 187.61,150.47 z" />
		 
		<path class="diamond" style="fill:none;stroke:#000;stroke-width:0.25px;"
			d="M 143.35,122.83 C 143.35,124.4 142.08,125.67 140.52,125.67 138.95,125.67 137.68,124.4 137.68,122.83 137.68,121.27 138.95,120.0 140.52,120.0 142.08,120.0 143.35,121.27 143.35,122.83 z" />
		<path class="diamond" style="fill:none;stroke:#000;stroke-width:0.25px;"
			d="M 127.48,164.89 C 127.48,166.46 126.21,167.73 124.65,167.73 123.08,167.73 121.81,166.46 121.81,164.89 121.81,163.33 123.08,162.06 124.65,162.06 126.21,162.06 127.48,163.33 127.48,164.89 z" />
		<path class="diamond" style="fill:none;stroke:#000;stroke-width:0.25px;"
			d="M 186.37,150.47 C 186.37,152.04 185.1,153.31 183.54,153.31 181.97,153.31 180.7,152.04 180.7,150.47 180.7,148.91 181.97,147.64 183.54,147.64 185.1,147.64 186.37,148.91 186.37,150.47 z" />
		</defs>
		<!-- Paths -->
		<path class="shape" style="stroke:#fb0;stroke-width:0.25px;" fill="none"
			d="M 148.99,147.26 C 149.6,147.02 150.0,146.43 150.0,145.77 150.0,145.4 150.0,145.03 150.0,144.66 149.94,143.13 148.99,141.78 147.57,141.22 146.15,140.66 144.53,140.99 143.44,142.07 142.66,142.85 141.66,143.16 140.61,143.21 139.57,143.25 138.51,143.08 137.63,142.45 135.87,141.19 135.61,138.59 135.61,136.77 135.61,134.95 135.87,132.35 137.63,131.09 138.51,130.46 139.57,130.28 140.61,130.33 141.66,130.38 142.66,130.69 143.44,131.47 144.53,132.54 146.15,132.88 147.57,132.32 148.99,131.75 149.94,130.4 150.0,128.88 150.0,127.92 150.0,126.97 150.0,126.02 151.34,122.1 153.55,118.52 156.53,115.63 159.58,112.69 163.11,110.72 167.25,109.76 171.21,108.84 175.6,108.88 179.54,109.86 183.66,110.88 187.18,112.87 190.23,115.81 193.18,118.67 195.5,122.28 196.84,126.16 198.2,130.11 198.5,134.28 198.09,138.38 197.25,146.6 193.6,154.52 188.85,161.07 188.42,161.67 187.63,161.9 186.95,161.62 186.67,161.51 186.38,161.4 186.1,161.29 M 173.4,141.09 C 174.71,142.08 175.55,143.39 175.29,145.14 175.07,146.62 174.19,148.24 172.72,148.88 171.31,149.48 170.4,150.86 170.39,152.39 170.39,153.92 171.29,155.31 172.69,155.92 174.07,156.48 175.44,157.03 176.82,157.58 178.02,158.06 179.22,158.53 180.41,159.01 182.31,159.77 184.21,160.53 186.1,161.29 187.11,161.69 187.44,162.96 186.76,163.8 181.9,169.79 176.05,174.89 169.9,179.44 166.8,181.73 163.64,183.9 160.33,185.87 158.26,187.1 156.16,188.24 153.99,189.27 152.91,189.79 151.83,190.29 150.73,190.75 150.49,190.86 150.26,190.9 150.0,190.9 149.74,190.9 149.51,190.85 149.27,190.75 148.17,190.28 147.08,189.79 146.0,189.27 143.83,188.23 141.73,187.1 139.67,185.87 136.36,183.9 133.2,181.73 130.11,179.44 123.95,174.89 118.1,169.79 113.24,163.8 112.56,162.96 112.89,161.69 113.9,161.29 M 150.0,126.02 C 148.66,122.1 146.45,118.52 143.47,115.63 140.42,112.69 136.89,110.72 132.75,109.76 128.79,108.84 124.4,108.88 120.46,109.86 116.34,110.88 112.82,112.87 109.77,115.81 106.82,118.67 104.5,122.28 103.16,126.16 101.8,130.11 101.5,134.28 101.91,138.38 102.75,146.6 106.4,154.52 111.15,161.07 111.58,161.67 112.37,161.9 113.05,161.62 113.33,161.51 113.62,161.4 113.9,161.29 115.79,160.53 117.69,159.77 119.59,159.01 120.78,158.54 121.98,158.06 123.18,157.58 124.56,157.03 125.93,156.48 127.31,155.93 128.75,155.41 130.36,155.79 131.41,156.91 132.46,158.02 132.75,159.65 132.15,161.05 131.52,162.53 132.0,164.31 132.86,165.53 133.88,166.98 135.39,167.35 137.03,167.17 M 150.0,145.77 C 150.0,146.43 150.4,147.02 151.01,147.26 151.71,147.54 152.41,147.82 153.11,148.1 154.31,148.58 155.51,149.06 156.7,149.54 157.15,149.71 157.59,149.89 158.03,150.07 159.47,150.58 161.08,150.2 162.13,149.09 163.18,147.97 163.47,146.35 162.87,144.94 162.24,143.46 162.72,141.68 163.58,140.46 164.6,139.02 166.1,138.64 167.74,138.83 M 142.68,164.91 C 144.0,163.91 144.83,162.6 144.57,160.85 144.35,159.37 143.47,157.75 142.0,157.12 140.6,156.51 139.68,155.13 139.68,153.6 139.67,152.07 140.57,150.69 141.97,150.07 142.41,149.89 142.85,149.72 143.3,149.54 144.49,149.06 145.69,148.58 146.89,148.1 147.59,147.82 148.29,147.54 148.99,147.26 149.12,147.21 149.26,147.15 149.4,147.1 149.79,146.94 150.21,146.94 150.6,147.1 150.74,147.15 150.88,147.21 151.01,147.26 M 190.63,122.77 C 190.63,121.01 189.2,119.58 187.44,119.58 185.68,119.58 184.25,121.01 184.25,122.77 184.25,124.53 185.68,125.96 187.44,125.96 189.2,125.96 190.63,124.53 190.63,122.77 z M 153.19,183.71 C 153.19,181.95 151.76,180.52 150,180.52 148.24,180.52 146.81,181.95 146.81,183.71 146.81,185.47 148.24,186.9 150,186.9 151.76,186.9 153.19,185.47 153.19,183.71 z M 115.75,122.77 C 115.75,124.53 114.32,125.96 112.56,125.96 110.8,125.96 109.37,124.53 109.37,122.77 109.37,121.01 110.8,119.58 112.56,119.58 114.32,119.58 115.75,121.01 115.75,122.77 z" />
		
		<path  class="shape" style="fill:none;stroke:#fb0;stroke-width:0.25px" 
			d="M 167.74,138.83 C 169.5,139.03 171.98,140.02 173.4,141.09 M 137.03,167.17 C 138.79,166.97 141.27,165.98 142.68,164.91" />
			
		<text style="font-size:12px;font-family:'z_corsiva';fill:#f00;text-anchor:middle" transform="matrix(0.61,-0.79,0.79,0.61,122,134)" class="txt" />
		<text style="font-size:12px;font-family:'z_corsiva';fill:#f00;text-anchor:middle" transform="matrix(-0.90,0.43,-0.43,-0.90,151,167)" class="txt" />
		<text style="font-size:12px;font-family:'z_corsiva';fill:#f00;text-anchor:middle" transform="matrix(0.81,0.59,-0.59,0.81,174,132)" class="txt" />
		 
		<!-- Prism Reference -->
		<cam mingh:cam="--actions=EditSelectAll;ObjectToPath;ZoomPage;ZoomCenterPage;FileVacuum;FileSave; -g" mingh:style="source:microprism">M2</cam> 
	 </g>

</svg>
