<svg
   xmlns:xlink="http://www.w3.org/1999/xlink"
   xmlns:svg="http://www.w3.org/2000/svg"
   xmlns="http://www.w3.org/2000/svg"
   xmlns:mingh="http://www.minghworld.com"
   width="300px"
   height="300px" >
	
	 <g>
		<defs>
			<!-- Paths -->
			<path id="left" style="fill:none;stroke:none" class="transient"
				d="M 122.09,122.36 C 116.06,127.4 113.1,135.35 114.47,142.35 117.79,159.32 135.87,172.09 149.84,180.32" />
			<path id="right" style="fill:none;stroke:none" class="transient"
				d="M 150.18,180.32 C 164.13,172.09 182.21,159.32 185.53,142.35 186.9,135.35 183.94,127.4 177.91,122.36" />
			<path class="birth" style="fill:#00f;stroke:none;"
				d="M 141.8,128.53 C 141.8,131.62 139.3,134.11 136.22,134.11 133.13,134.11 130.63,131.62 130.63,128.53 130.63,125.45 133.13,122.95 136.22,122.95 139.3,122.95 141.8,125.45 141.8,128.53 z" />
			<path class="birth" style="fill:#00f;stroke:none;"
				d="M 169.37,128.53 C 169.37,131.62 166.87,134.11 163.78,134.11 160.7,134.11 158.2,131.62 158.2,128.53 158.2,125.45 160.7,122.95 163.78,122.95 166.87,122.95 169.37,125.45 169.37,128.53 z" />
		 
			 <path class="diamond" style="fill:none;stroke:#000;stroke-width:0.25px;"
				d="M 140.1,128.53 C 140.1,130.67 138.36,132.41 136.22,132.41 134.07,132.41 132.33,130.67 132.33,128.53 132.33,126.38 134.07,124.64 136.22,124.64 138.36,124.64 140.1,126.38 140.1,128.53 z" />
			 <path class="diamond" style="fill:none;stroke:#000;stroke-width:0.25px;"
				d="M 167.67,128.53 C 167.67,130.67 165.93,132.41 163.78,132.41 161.64,132.41 159.9,130.67 159.9,128.53 159.9,126.38 161.64,124.64 163.78,124.64 165.93,124.64 167.67,126.38 167.67,128.53 z" />
		</defs>
		
			
		<path class="shape" style="stroke:#fb0;stroke-width:0.25px;" fill="none"
			d="M 150.0,178.77 C 150.0,169.58 150.0,160.38 150.0,151.19 150.0,147.97 146.12,146.35 143.84,148.63 143.12,149.34 142.14,149.69 140.91,149.69 137.95,149.69 136.48,147.68 136.48,143.64 136.48,139.61 137.95,137.59 140.91,137.59 142.14,137.59 143.12,137.94 143.84,138.67 146.12,140.93 150.0,139.31 150.0,136.11 150.0,135.49 150.0,134.86 150.0,134.25 M 129.53,114.56 C 126.04,114.57 122.58,115.37 119.5,117.0 114.5,119.64 110.58,124.54 108.84,129.97 106.73,136.5 107.83,143.77 110.41,150.18 112.73,155.94 116.24,160.97 120.34,165.43 124.34,169.76 128.91,173.54 133.69,177.0 137.21,179.53 140.84,181.92 144.69,183.9 145.59,184.37 146.49,184.85 147.44,185.28 148.63,185.83 150.0,184.94 150.0,183.62 150.0,184.94 151.36,185.83 152.56,185.28 153.49,184.85 154.39,184.37 155.31,183.9 159.15,181.92 162.79,179.53 166.31,177.0 171.09,173.54 175.66,169.76 179.66,165.43 183.77,160.97 187.27,155.94 189.59,150.18 192.17,143.77 193.27,136.5 191.16,129.97 189.42,124.54 185.5,119.64 180.5,117.0 177.42,115.37 173.96,114.57 170.47,114.56 167.24,114.53 164.0,115.16 161.09,116.53 158.09,117.97 155.45,120.23 153.44,122.9 151.94,124.87 150.79,127.09 150.0,129.4 149.21,127.09 148.06,124.87 146.56,122.9 144.55,120.23 141.91,117.97 138.91,116.53 136.0,115.16 132.76,114.53 129.53,114.56 z M 126.25,118.81 C 128.01,118.81 129.47,120.24 129.47,122.0 129.47,123.76 128.01,125.18 126.25,125.18 124.49,125.18 123.06,123.76 123.06,122.0 123.06,120.24 124.49,118.81 126.25,118.81 z M 173.75,118.81 C 175.51,118.81 176.94,120.24 176.94,122.0 176.94,123.76 175.51,125.18 173.75,125.18 171.99,125.18 170.53,123.76 170.53,122.0 170.53,120.24 171.99,118.81 173.75,118.81 z" />
		
		<path  class="shape" style="fill:none;stroke:#fb0;stroke-width:0.25px" 
			d="M 150,129.4 C 150,131.01 150,132.63 150,134.25 M 150,183.62 C 150,182 150,180.39 150,178.77" />

		 <text style="font-size:15px;font-family:'z_corsiva';fill:#f00;text-anchor:end"  >
			<textPath xlink:href="#left" startOffset="85%" class="txt" />
		 </text>
		 <text style="font-size:15px;font-family:'z_corsiva';fill:#f00;text-anchor:start" >
			<textPath xlink:href="#right" startOffset="5%" class="txt" />
		 </text>
		 
		<!-- Prism Reference -->
		<cam mingh:cam="--actions=EditSelectAll;ObjectToPath;ZoomPage;ZoomCenterPage;FileVacuum;FileSave; -g" mingh:style="source:microprism">M2</cam> 
	 </g>

</svg>
