<svg
   xmlns:xlink="http://www.w3.org/1999/xlink"
   xmlns:svg="http://www.w3.org/2000/svg"
   xmlns="http://www.w3.org/2000/svg"
   xmlns:mingh="http://www.minghworld.com"
   width="300px"
   height="300px" >
	
	 <g>
		<defs>
			<path class="birth" style="fill:#00f;stroke:none;"
				d="M 148.53,135.12 C 148.53,137.37 146.7,139.19 144.45,139.19 142.2,139.19 140.38,137.37 140.38,135.12 140.38,132.87 142.2,131.04 144.45,131.04 146.7,131.04 148.53,132.87 148.53,135.12 z" />
			<path class="birth" style="fill:#00f;stroke:none;"
				d="M 188.76,164.71 C 188.76,166.96 186.94,168.78 184.69,168.78 182.44,168.78 180.61,166.96 180.61,164.71 180.61,162.45 182.44,160.63 184.69,160.63 186.94,160.63 188.76,162.45 188.76,164.71 z" />
			 
			<path class="diamond" style="fill:none;stroke:#000;stroke-width:0.25px;"
				d="M 147.29,135.12 C 147.29,136.68 146.02,137.95 144.45,137.95 142.89,137.95 141.62,136.68 141.62,135.12 141.62,133.55 142.89,132.28 144.45,132.28 146.02,132.28 147.29,133.55 147.29,135.12 z" />
			<path class="diamond" style="fill:none;stroke:#000;stroke-width:0.25px;"
				d="M 187.52,164.71 C 187.52,166.27 186.25,167.54 184.69,167.54 183.12,167.54 181.85,166.27 181.85,164.71 181.85,163.14 183.12,161.87 184.69,161.87 186.25,161.87 187.52,163.14 187.52,164.71 z" />
		</defs>
		<!-- Paths -->
		<path class="shape" style="stroke:#fb0;stroke-width:0.25px;" fill="none"
			d="M 129.44,111.69 C 127.03,111.66 123.92,112.23 123.09,114.88 122.42,116.86 123.09,118.99 124.56,120.41 126.12,122.65 124.54,126.1 121.84,126.41 117.72,126.51 113.6,126.42 109.47,126.47 107.21,126.49 105.51,128.73 105.81,130.91 L 105.81,138.53 C 105.9,140.16 105.52,141.86 106.16,143.41 107.13,145.72 110.42,146.47 112.28,144.78 113.26,143.68 114.78,143.27 116.22,143.41 118.13,143.44 119.75,144.95 120.16,146.78 120.74,149.25 120.81,151.99 119.75,154.34 118.89,156.25 116.55,156.91 114.63,156.5 113.33,156.38 112.55,155.29 111.5,154.69 109.22,153.44 106.08,155.13 105.84,157.72 105.77,161.56 105.83,165.41 105.81,169.25 105.6,171.23 106.98,173.19 108.97,173.5 113.11,173.63 117.26,173.51 121.41,173.56 124.11,173.55 126.03,176.76 124.81,179.16 123.46,180.77 122.28,182.78 123.03,184.97 123.75,187.67 126.88,188.34 129.31,188.31 131.72,188.35 134.81,187.89 135.78,185.31 136.57,183.21 135.77,180.95 134.25,179.44 132.83,177.15 134.49,173.82 137.19,173.59 141.0,173.53 144.81,173.58 148.63,173.56 150.87,173.89 153.2,172.05 153.13,169.72 153.09,172.05 155.25,173.84 157.53,173.56 159.45,173.62 161.38,173.43 163.28,173.69 165.91,174.24 167.15,177.76 165.47,179.84 163.63,181.47 163.37,184.55 164.88,186.47 166.6,188.36 169.41,188.37 171.78,188.25 173.95,188.17 176.44,187.12 177.0,184.78 177.49,182.73 176.65,180.83 175.31,179.38 173.95,177.13 175.55,173.9 178.16,173.59 182.35,173.48 186.55,173.62 190.75,173.53 192.92,173.38 194.47,171.19 194.19,169.09 L 194.19,161.47 C 194.1,159.84 194.48,158.14 193.84,156.59 192.87,154.28 189.58,153.53 187.72,155.22 186.74,156.32 185.22,156.73 183.78,156.59 181.87,156.56 180.25,155.05 179.84,153.22 179.26,150.75 179.19,148.01 180.25,145.66 181.11,143.75 183.45,143.09 185.38,143.5 186.67,143.62 187.45,144.71 188.5,145.31 190.78,146.56 193.92,144.87 194.16,142.28 194.23,138.44 194.17,134.59 194.19,130.75 194.4,128.77 193.02,126.81 191.03,126.5 188.18,126.38 185.33,126.46 182.47,126.44 180.79,126.36 179.05,126.65 177.41,126.22 174.93,125.42 174.0,121.98 175.72,120.03 177.59,118.33 177.69,115.0 175.91,113.22 173.85,111.49 170.9,111.56 168.38,111.84 166.33,112.06 164.22,113.4 164.0,115.59 163.67,117.34 164.31,119.14 165.59,120.34 167.12,122.47 165.83,125.84 163.25,126.34 161.37,126.56 159.46,126.39 157.56,126.44 155.33,126.12 153.06,127.96 153.13,130.25 153.16,128.47 151.75,126.76 149.94,126.5 145.72,126.37 141.47,126.52 137.25,126.44 134.53,126.26 132.82,122.87 134.25,120.56 135.74,119.04 136.58,116.85 135.78,114.75 134.87,112.18 131.83,111.66 129.44,111.69 z M 112.53,130.0 C 114.29,130.0 115.72,131.43 115.72,133.19 115.72,134.95 114.29,136.38 112.53,136.38 110.77,136.38 109.34,134.95 109.34,133.19 109.34,131.43 110.77,130.0 112.53,130.0 z M 187.47,130.0 C 189.23,130.0 190.66,131.43 190.66,133.19 190.66,134.95 189.23,136.38 187.47,136.38 185.71,136.38 184.28,134.95 184.28,133.19 184.28,131.43 185.71,130.0 187.47,130.0 z M 153.12,136.6 C 153.1,138.53 153.18,140.46 153.08,142.38 152.79,144.68 150.21,146.29 148.02,145.54 146.66,145.19 145.93,143.74 144.51,143.53 142.6,143.06 140.23,143.63 139.28,145.49 138.19,147.61 138.23,150.13 138.56,152.43 138.83,154.2 139.92,156.03 141.77,156.44 143.47,156.87 145.45,156.55 146.66,155.2 148.41,153.64 151.45,154.17 152.57,156.22 153.38,157.54 153.06,159.11 153.12,160.57 153.12,161.51 153.12,162.45 153.12,163.39" />
		
		<path class="shape" style="fill:none;stroke:#fb0;stroke-width:0.25px" 
			d="M 153.12,169.73 C 153.12,169.72 153.12,169.73 153.12,169.74 M 153.12,169.72 153.12,163.4 M 153.12,130.27 153.12,136.6" />

		<text style="font-size:12px;font-family:'z_corsiva';fill:#f00;text-anchor:middle" transform="matrix(0 -1 1 0 132 150)" class="txt" />
		<text style="font-size:12px;font-family:'z_corsiva';fill:#f00;text-anchor:middle" transform="matrix(0 1 -1 0 168 150)" class="txt" />
		 
		<!-- Prism Reference -->
		<cam mingh:cam="--actions=EditSelectAll;ObjectToPath;ZoomPage;ZoomCenterPage;FileVacuum;FileSave; -g" mingh:style="source:microprism">M2</cam> 
	 </g>
</svg>
