<?xml version="1.0" encoding="UTF-8" standalone="no"?>

<svg
   xmlns:xlink="http://www.w3.org/1999/xlink"
   xmlns:svg="http://www.w3.org/2000/svg"
   xmlns="http://www.w3.org/2000/svg"
   xmlns:mingh="http://www.minghworld.com"
   width="300px"
   height="300px" >
	
	 <g>	
		<!-- Paths -->
		<path id="front" style="fill:none;stroke:#fb0;stroke-width:0.25px"
			d="M 105.72,125.63 L 105.72,136.25 L 194.28,136.25 L 194.28,125.63 L 105.72,125.63 z M 107.75,129.16 L 110.16,129.16 L 110.16,129.59 L 108.22,129.59 L 108.22,130.69 L 109.88,130.69 L 109.88,131.09 L 108.22,131.09 L 108.22,132.69 L 107.75,132.69 L 107.75,129.16 z" />
		<path id="right" style="fill:none;stroke:#fb0;stroke-width:0.25px"
			d="M 105.72,138.5 L 105.72,149.13 L 194.28,149.13 L 194.28,138.5 L 105.72,138.5 z M 181.88,140.28 C 183.82,140.28 185.41,141.86 185.41,143.81 C 185.41,145.76 183.82,147.34 181.88,147.34 C 179.92,147.34 178.34,145.76 178.34,143.81 C 178.34,141.86 179.92,140.28 181.88,140.28 z M 107.75,142.03 L 109.31,142.03 C 109.63,142.03 109.87,142.06 110.03,142.13 C 110.2,142.19 110.34,142.31 110.44,142.47 C 110.54,142.63 110.59,142.81 110.59,143.0 C 110.59,143.25 110.51,143.48 110.34,143.66 C 110.18,143.83 109.93,143.92 109.59,143.97 C 109.72,144.03 109.81,144.1 109.88,144.16 C 110.01,144.28 110.13,144.44 110.25,144.63 L 110.88,145.56 L 110.28,145.56 L 109.81,144.84 C 109.68,144.63 109.56,144.46 109.47,144.34 C 109.38,144.23 109.32,144.17 109.25,144.13 C 109.18,144.08 109.1,144.05 109.03,144.03 C 108.98,144.02 108.9,144.0 108.78,144.0 L 108.22,144.0 L 108.22,145.56 L 107.75,145.56 L 107.75,142.03 z M 108.22,142.44 L 108.22,143.59 L 109.22,143.59 C 109.43,143.59 109.6,143.58 109.72,143.53 C 109.84,143.49 109.94,143.41 110.0,143.31 C 110.06,143.22 110.09,143.11 110.09,143.0 C 110.09,142.83 110.03,142.7 109.91,142.59 C 109.79,142.49 109.61,142.44 109.34,142.44 L 108.22,142.44 z" />
		<path id="back" style="fill:none;stroke:#fb0;stroke-width:0.25px"
			d="M 105.72,151.13 L 105.72,161.75 L 194.28,161.75 L 194.28,151.13 L 105.72,151.13 z M 107.75,154.69 L 109.09,154.69 C 109.36,154.69 109.56,154.71 109.72,154.78 C 109.88,154.85 110.03,154.98 110.13,155.13 C 110.22,155.27 110.25,155.4 110.25,155.56 C 110.25,155.71 110.21,155.87 110.13,156.0 C 110.04,156.13 109.92,156.23 109.75,156.31 C 109.96,156.38 110.14,156.51 110.25,156.66 C 110.36,156.81 110.44,156.98 110.44,157.19 C 110.44,157.35 110.38,157.51 110.31,157.66 C 110.24,157.8 110.17,157.89 110.06,157.97 C 109.96,158.05 109.84,158.12 109.69,158.16 C 109.53,158.2 109.32,158.22 109.09,158.22 L 107.75,158.22 L 107.75,154.69 z M 108.22,155.09 L 108.22,156.16 L 109.0,156.16 C 109.21,156.16 109.35,156.15 109.44,156.13 C 109.56,156.09 109.66,156.02 109.72,155.94 C 109.78,155.86 109.78,155.75 109.78,155.63 C 109.78,155.51 109.77,155.4 109.72,155.31 C 109.66,155.22 109.57,155.16 109.47,155.13 C 109.36,155.09 109.19,155.09 108.94,155.09 L 108.22,155.09 z M 108.22,156.56 L 108.22,157.78 L 109.09,157.78 C 109.24,157.78 109.38,157.79 109.44,157.78 C 109.55,157.76 109.62,157.73 109.69,157.69 C 109.76,157.64 109.83,157.55 109.88,157.47 C 109.92,157.38 109.94,157.3 109.94,157.19 C 109.94,157.06 109.91,156.94 109.84,156.84 C 109.78,156.75 109.68,156.66 109.56,156.63 C 109.44,156.59 109.26,156.56 109.03,156.56 L 108.22,156.56 z" />
		<path id="left" style="fill:none;stroke:#fb0;stroke-width:0.25px"
			d="M 105.72,163.75 L 105.72,174.38 L 194.28,174.38 L 194.28,163.75 L 105.72,163.75 z M 181.88,165.53 C 183.82,165.53 185.41,167.11 185.41,169.06 C 185.41,171.01 183.82,172.59 181.88,172.59 C 179.92,172.59 178.34,171.01 178.34,169.06 C 178.34,167.11 179.92,165.53 181.88,165.53 z M 107.75,167.31 L 108.22,167.31 L 108.22,170.41 L 109.97,170.41 L 109.97,170.84 L 107.75,170.84 L 107.75,167.31 z" />
		
		<!-- Front -->
		<text id="f" transform="matrix(1 0 0 1 115 133.5)" style="stroke:none;fill:#0ff;font-family:z_ariola;font-size:8px;text-anchor:start;" class="txt" ></text>
		<!-- Right -->
		<text id="r" transform="matrix(1 0 0 1 115 146.5)" style="stroke:none;fill:#0ff;font-family:z_ariola;font-size:8px;text-anchor:start;" class="txt" ></text>
		<!-- Back -->
		<text id="b" transform="matrix(1 0 0 1 115 159.1)" style="stroke:none;fill:#0ff;font-family:z_ariola;font-size:8px;text-anchor:start;" class="txt" ></text>
		<!-- Left -->
		<text id="l" transform="matrix(1 0 0 1 115 171.8)" style="stroke:none;fill:#0ff;font-family:z_ariola;font-size:8px;text-anchor:start;" class="txt" ></text>

		<!-- Prism Reference -->
		<cam mingh:cam="--actions=EditSelectAll;ObjectToPath;ZoomPage;ZoomCenterPage;FileVacuum;FileSave; -g" mingh:style="source:microprism">M2</cam> 
	 </g>

</svg>
