<?xml version="1.0" encoding="UTF-8" standalone="no"?>

<svg
	xmlns:xlink="http://www.w3.org/1999/xlink"
	xmlns:svg="http://www.w3.org/2000/svg"
	xmlns="http://www.w3.org/2000/svg"
	xmlns:mingh="http://www.minghworld.com"
	xmlns:sodipodi="http://sodipodi.sourceforge.net/DTD/sodipodi-0.dtd"
	xmlns:inkscape="http://www.inkscape.org/namespaces/inkscape"
	xmlns:dc="http://purl.org/dc/elements/1.1/"
	xmlns:cc="http://creativecommons.org/ns#"
	xmlns:rdf="http://www.w3.org/1999/02/22-rdf-syntax-ns#"
	width="300px"
	height="300px" >
   
   <g>
		<!-- DSK -->
		<path id="dsk" style="fill:none;stroke:#fb0;stroke-width:0.25px;" 
			d="M 151.78,128.24 C 152.1,128.0 152.37,127.71 152.57,127.37 C 152.77,127.03 152.91,126.66 152.97,126.27 C 153.02,125.88 153.01,125.48 152.91,125.1 C 152.82,124.72 152.65,124.36 152.41,124.04 C 152.18,123.72 151.88,123.46 151.55,123.25 C 151.21,123.05 150.83,122.91 150.45,122.86 C 150.06,122.8 149.66,122.82 149.28,122.91 C 148.9,123.01 148.53,123.18 148.22,123.41 C 147.9,123.64 147.63,123.94 147.43,124.28 C 147.23,124.61 147.09,124.99 147.03,125.38 C 146.98,125.77 146.99,126.17 147.09,126.55 C 147.18,126.93 147.35,127.29 147.59,127.61 C 147.82,127.92 148.12,128.19 148.45,128.39 C 148.79,128.6 149.17,128.73 149.55,128.79 C 149.94,128.85 150.34,128.83 150.72,128.73 C 151.1,128.64 151.47,128.47 151.78,128.24 z M 180.0,150.0 C 180.0,157.97 176.85,165.58 171.21,171.21 C 165.58,176.84 157.97,180.0 150.0,180.0 C 142.03,180.0 134.42,176.84 128.79,171.21 C 123.15,165.58 120.0,157.97 120.0,150.0 C 120.0,142.03 123.15,134.42 128.79,128.79 C 134.42,123.16 142.03,120.0 150.0,120.0 C 157.97,120.0 165.58,123.16 171.21,128.79 C 176.85,134.42 180.0,142.03 180.0,150.0 z" />
		
		<!-- HRT -->
		<path id="hrt" style="fill:none;stroke:#fb0;stroke-width:0.25px;" transform="matrix(1 0 0 1 0 0)"
			d="M 150.2,127.14 C 150.52,126.9 150.79,126.61 150.99,126.27 C 151.19,125.93 151.33,125.56 151.39,125.17 C 151.45,124.78 151.43,124.38 151.33,124.0 C 151.24,123.62 151.07,123.26 150.83,122.94 C 150.6,122.62 150.31,122.36 149.97,122.15 C 149.63,121.95 149.26,121.82 148.87,121.76 C 148.48,121.7 148.08,121.72 147.7,121.81 C 147.32,121.91 146.96,122.08 146.64,122.31 C 146.32,122.54 146.05,122.84 145.85,123.18 C 145.65,123.51 145.51,123.89 145.46,124.28 C 145.4,124.67 145.42,125.07 145.51,125.45 C 145.61,125.83 145.78,126.19 146.01,126.51 C 146.24,126.82 146.54,127.09 146.88,127.29 C 147.21,127.5 147.59,127.63 147.98,127.69 C 148.36,127.75 148.76,127.73 149.15,127.63 C 149.53,127.54 149.89,127.37 150.2,127.14 z M 166.04,138.31 C 165.88,139.56 166.32,140.15 167.55,140.37 C 168.68,140.56 169.8,140.82 170.87,141.23 C 172.72,141.94 174.41,143.09 175.88,144.47 C 177.5,146.01 178.84,147.83 179.79,149.83 C 180.71,151.78 181.27,153.89 181.49,156.04 C 181.69,158.1 181.58,160.17 181.13,162.17 C 180.65,164.32 179.76,166.37 178.59,168.22 C 177.44,170.06 176.02,171.7 174.41,173.13 C 172.67,174.67 170.72,175.94 168.65,176.97 C 166.46,178.07 164.14,178.89 161.77,179.52 C 159.02,180.26 156.2,180.72 153.39,180.95 C 150.5,181.17 147.63,181.14 144.67,180.98 C 141.27,180.79 137.76,180.45 134.72,179.86 C 132.49,179.43 130.51,178.87 128.01,177.99 C 126.33,177.39 124.41,176.65 122.85,175.88 C 121.95,175.42 121.18,174.96 120.38,174.43 C 119.99,174.17 119.76,173.86 119.63,173.41 C 119.36,172.49 119.14,171.61 118.97,170.63 C 118.69,168.91 118.54,166.86 118.47,165.07 C 118.36,162.42 118.4,160.36 118.65,158.11 C 118.98,155.03 119.68,151.57 120.5,148.27 C 121.22,145.4 122.03,142.64 123.09,139.95 C 124.13,137.32 125.41,134.76 126.92,132.36 C 128.21,130.27 129.69,128.3 131.38,126.52 C 132.97,124.85 134.76,123.36 136.74,122.15 C 138.57,121.02 140.57,120.16 142.65,119.6 C 144.78,119.03 147.0,118.78 149.19,118.95 C 151.23,119.09 153.25,119.61 155.15,120.41 C 157.14,121.24 159.0,122.39 160.59,123.85 C 162.22,125.34 163.58,127.16 164.56,129.17 C 165.46,130.97 166.05,132.93 166.19,134.91 C 166.26,136.04 166.18,137.18 166.04,138.31 z" />
		
		<!-- PEB -->
		<path id="peb" style="fill:none;stroke:#fb0;stroke-width:0.25px;" transform="matrix(1 0 0 1 0 0)"
			d="M 150.06,127.48 C 150.36,127.23 150.62,126.93 150.81,126.58 C 151.0,126.24 151.12,125.86 151.17,125.47 C 151.21,125.08 151.18,124.68 151.07,124.3 C 150.96,123.93 150.78,123.57 150.54,123.26 C 150.29,122.96 149.99,122.7 149.64,122.51 C 149.3,122.32 148.92,122.19 148.53,122.15 C 148.14,122.11 147.74,122.14 147.36,122.25 C 146.98,122.36 146.63,122.54 146.32,122.78 C 146.01,123.03 145.76,123.33 145.56,123.68 C 145.37,124.02 145.25,124.4 145.21,124.79 C 145.16,125.18 145.2,125.58 145.3,125.96 C 145.41,126.33 145.6,126.69 145.84,127.0 C 146.09,127.3 146.39,127.56 146.73,127.75 C 147.08,127.94 147.46,128.07 147.85,128.11 C 148.24,128.16 148.64,128.12 149.02,128.01 C 149.39,127.91 149.75,127.72 150.06,127.48 z M 161.35,123.62 C 172.18,132.1 178.79,144.87 179.46,158.61 C 179.95,168.68 173.01,177.6 163.13,179.59 C 152.32,181.77 143.03,180.82 132.89,176.49 C 124.83,173.04 119.87,164.84 120.58,156.09 C 121.49,144.85 126.12,134.23 133.73,125.91 C 140.92,118.05 152.95,117.05 161.35,123.62 z" />
		
		<!-- TAG -->
		<path style="fill:none;stroke:#fb0;stroke-width:0.25px;" 
			d="M 150.03,105.72 C 149.61,105.72 149.18,105.74 148.75,105.75 146.71,105.8 144.63,106.01 142.63,106.34 137.27,107.23 132.18,109.02 127.47,111.72 L 126.66,112.22 125.81,112.72 124.28,114.06 122.91,115.56 C 122.48,116.09 122.11,116.67 121.88,117.31 121.63,118.02 121.69,118.57 121.69,119.31 L 121.69,180.38 121.69,181.38 C 121.69,182.07 121.87,182.68 122.19,183.31 122.51,183.92 122.91,184.44 123.38,184.97 124.29,186.0 125.27,186.91 126.44,187.66 135.68,193.28 146.67,195.43 157.38,193.66 162.68,192.81 167.79,191.01 172.47,188.31 173.67,187.67 174.8,186.76 175.69,185.97 L 177.06,184.47 C 177.49,183.9 177.82,183.33 178.06,182.69 178.31,181.94 178.34,181.43 178.34,180.72 L 178.34,119.16 178.34,118.66 C 178.31,117.95 178.14,117.33 177.78,116.69 177.46,116.09 177.05,115.56 176.59,115.03 175.66,114.0 174.74,113.09 173.53,112.34 L 171.91,111.41 170.22,110.44 166.63,108.88 C 164.11,107.93 161.56,107.13 158.94,106.59 155.99,106.02 153.01,105.72 150.03,105.72 z M 150.0,109.25 C 151.74,109.25 153.19,110.7 153.19,112.44 153.19,114.21 151.74,115.66 150.0,115.66 148.23,115.66 146.81,114.21 146.81,112.44 146.81,110.7 148.23,109.25 150.0,109.25 z " />
		
		<!-- HRTNECK -->
		<path style="fill:none;stroke:#fb0;stroke-width:0.25px"
			d="M 133.38,141.93 C 133.38,141.75 133.34,141.56 133.27,141.39 C 133.2,141.22 133.09,141.06 132.96,140.93 C 132.83,140.8 132.68,140.7 132.51,140.63 C 132.33,140.56 132.15,140.52 131.97,140.52 C 131.78,140.52 131.6,140.56 131.43,140.63 C 131.26,140.7 131.1,140.8 130.97,140.93 C 130.84,141.06 130.73,141.22 130.66,141.39 C 130.59,141.56 130.56,141.75 130.56,141.93 C 130.56,142.11 130.59,142.3 130.66,142.47 C 130.73,142.64 130.84,142.8 130.97,142.93 C 131.1,143.06 131.26,143.16 131.43,143.23 C 131.6,143.3 131.78,143.34 131.97,143.34 C 132.15,143.34 132.33,143.3 132.51,143.23 C 132.68,143.16 132.83,143.06 132.96,142.93 C 133.09,142.8 133.2,142.64 133.27,142.47 C 133.34,142.3 133.38,142.11 133.38,141.93 z M 169.43,141.93 C 169.43,141.75 169.4,141.56 169.32,141.39 C 169.25,141.22 169.15,141.06 169.02,140.93 C 168.89,140.8 168.73,140.7 168.56,140.63 C 168.39,140.56 168.21,140.52 168.02,140.52 C 167.84,140.52 167.65,140.56 167.48,140.63 C 167.31,140.7 167.16,140.8 167.03,140.93 C 166.9,141.06 166.79,141.22 166.72,141.39 C 166.65,141.56 166.61,141.75 166.61,141.93 C 166.61,142.11 166.65,142.3 166.72,142.47 C 166.79,142.64 166.9,142.8 167.03,142.93 C 167.16,143.06 167.31,143.16 167.48,143.23 C 167.65,143.3 167.84,143.34 168.02,143.34 C 168.21,143.34 168.39,143.3 168.56,143.23 C 168.73,143.16 168.89,143.06 169.02,142.93 C 169.15,142.8 169.25,142.64 169.32,142.47 C 169.4,142.3 169.43,142.11 169.43,141.93 z M 149.56,171.62 C 147.77,170.99 146.14,170.0 144.58,168.93 C 143.01,167.85 141.51,166.69 140.14,165.39 C 138.76,164.1 137.5,162.67 136.29,161.21 C 135.07,159.75 133.9,158.26 132.86,156.68 C 131.82,155.1 130.91,153.43 130.15,151.69 C 129.39,149.96 128.79,148.15 128.42,146.29 C 128.06,144.43 127.94,142.52 128.16,140.64 C 128.37,138.75 128.92,136.9 129.82,135.24 C 130.72,133.57 131.97,132.1 133.48,130.95 C 134.99,129.8 136.75,128.98 138.6,128.58 C 140.45,128.18 142.4,128.2 144.23,128.68 C 146.07,129.15 147.79,130.07 149.11,131.44 C 149.24,131.56 149.37,131.66 149.51,131.75 C 149.66,131.83 149.83,131.89 149.99,131.89 C 150.16,131.89 150.33,131.83 150.48,131.75 C 150.62,131.66 150.75,131.56 150.88,131.44 C 152.2,130.07 153.93,129.15 155.76,128.67 C 157.59,128.2 159.54,128.18 161.39,128.58 C 163.25,128.98 165.01,129.8 166.52,130.95 C 168.02,132.09 169.28,133.56 170.18,135.23 C 171.08,136.89 171.63,138.75 171.84,140.63 C 172.06,142.51 171.94,144.43 171.58,146.29 C 171.22,148.15 170.61,149.95 169.85,151.69 C 169.09,153.43 168.18,155.1 167.14,156.68 C 166.1,158.26 164.93,159.75 163.72,161.21 C 162.5,162.67 161.24,164.1 159.87,165.39 C 158.49,166.69 156.99,167.85 155.42,168.93 C 153.86,170.0 152.23,170.99 150.44,171.62 C 150.37,171.65 150.29,171.67 150.22,171.68 C 150.15,171.7 150.07,171.7 150.0,171.7 C 149.92,171.7 149.85,171.7 149.78,171.68 C 149.7,171.67 149.63,171.65 149.56,171.62 z" />
	    
		<!-- PEBNECK -->
		<path style="fill:none;stroke:#fb0;stroke-width:0.25px"
			d="M 167.33,146.39 C 167.33,146.2 167.3,146.02 167.23,145.85 C 167.16,145.68 167.05,145.52 166.92,145.39 C 166.79,145.26 166.63,145.16 166.46,145.09 C 166.29,145.02 166.11,144.98 165.92,144.98 C 165.74,144.98 165.55,145.02 165.38,145.09 C 165.21,145.16 165.06,145.26 164.93,145.39 C 164.8,145.52 164.69,145.68 164.62,145.85 C 164.55,146.02 164.51,146.2 164.51,146.39 C 164.51,146.57 164.55,146.76 164.62,146.93 C 164.69,147.1 164.8,147.25 164.93,147.39 C 165.06,147.52 165.21,147.62 165.38,147.69 C 165.55,147.76 165.74,147.8 165.92,147.8 C 166.11,147.8 166.29,147.76 166.46,147.69 C 166.63,147.62 166.79,147.52 166.92,147.39 C 167.05,147.25 167.16,147.1 167.23,146.93 C 167.3,146.76 167.33,146.57 167.33,146.39 z M 135.08,146.39 C 135.08,146.2 135.04,146.02 134.97,145.85 C 134.9,145.68 134.79,145.52 134.66,145.39 C 134.53,145.26 134.38,145.16 134.21,145.09 C 134.04,145.02 133.85,144.98 133.67,144.98 C 133.48,144.98 133.3,145.02 133.13,145.09 C 132.96,145.16 132.8,145.26 132.67,145.39 C 132.54,145.52 132.43,145.68 132.36,145.85 C 132.29,146.02 132.26,146.2 132.26,146.39 C 132.26,146.57 132.29,146.76 132.36,146.93 C 132.43,147.1 132.54,147.25 132.67,147.39 C 132.8,147.52 132.96,147.62 133.13,147.69 C 133.3,147.76 133.48,147.8 133.67,147.8 C 133.85,147.8 134.04,147.76 134.21,147.69 C 134.38,147.62 134.53,147.52 134.66,147.39 C 134.79,147.25 134.9,147.1 134.97,146.93 C 135.04,146.76 135.08,146.57 135.08,146.39 z M 158.5,130.28 C 163.19,133.96 166.88,138.75 169.23,144.23 C 170.44,147.06 171.26,149.93 171.72,152.98 C 171.91,154.26 172.09,156.04 172.08,157.34 C 172.07,158.78 171.87,160.16 171.46,161.55 C 170.6,164.49 168.88,167.09 166.51,169.03 C 165.35,169.99 164.12,170.73 162.74,171.32 C 161.31,171.92 160.16,172.17 158.65,172.43 C 152.78,173.42 146.76,173.03 141.07,171.3 C 139.77,170.9 138.15,170.32 136.91,169.76 C 135.58,169.16 134.4,168.41 133.28,167.47 C 130.97,165.5 129.3,162.88 128.48,159.96 C 128.09,158.54 127.9,157.13 127.92,155.66 C 127.93,154.38 128.17,152.56 128.38,151.31 C 128.89,148.3 129.73,145.46 130.94,142.65 C 132.15,139.83 133.65,137.25 135.49,134.8 C 136.26,133.78 137.43,132.36 138.35,131.45 C 139.37,130.43 140.49,129.6 141.76,128.91 C 147.12,125.98 153.69,126.52 158.5,130.28 z" />
		<!-- EXTRA TAGS -->
		<path id="shape" style="stroke:#fb0;stroke-width:0.25px" fill="none"
			d="M 150.0,105.75 C 146.99,105.75 143.97,106.03 140.94,106.59 138.32,107.13 135.77,107.93 133.25,108.88 131.44,109.62 129.96,110.32 127.97,111.41 126.09,112.49 124.52,113.7 123.28,115.03 122.82,115.56 122.41,116.09 122.09,116.69 121.73,117.33 121.56,117.95 121.53,118.66 L 121.53,119.16 121.53,180.72 C 121.53,181.43 121.56,181.94 121.81,182.69 122.05,183.33 122.38,183.9 122.81,184.47 L 124.19,185.97 C 125.08,186.76 126.21,187.67 127.41,188.31 132.09,191.01 137.2,192.81 142.5,193.66 147.22,194.42 152.29,194.5 157.38,193.66 162.68,192.81 167.79,191.01 172.47,188.31 173.67,187.67 174.8,186.76 175.69,185.97 L 177.06,184.47 C 177.49,183.9 177.82,183.33 178.06,182.69 178.31,181.94 178.34,181.43 178.34,180.72 L 178.34,119.16 178.34,118.66 C 178.31,117.95 178.14,117.33 177.78,116.69 177.46,116.09 177.05,115.56 176.59,115.03 175.66,114.0 174.43,112.97 173.22,112.22 171.08,110.9 169.09,109.82 166.63,108.88 164.11,107.93 161.56,107.13 158.94,106.59 155.99,106.03 153.01,105.75 150.0,105.75 z M 150.0,109.25 C 151.74,109.25 153.19,110.7 153.19,112.44 153.19,114.21 151.74,115.66 150.0,115.66 148.23,115.66 146.81,114.21 146.81,112.44 146.81,110.7 148.23,109.25 150.0,109.25 z M 158.78,117.06 C 159.01,117.04 159.24,117.17 159.47,117.56 163.22,117.28 163.35,122.99 160.41,124.28 L 160.06,123.91 159.69,123.5 C 160.97,122.56 161.38,120.17 158.88,120.63 157.1,120.46 157.81,117.17 158.78,117.06 z M 164.97,117.19 C 165.14,117.15 165.33,117.16 165.53,117.25 166.26,118.35 167.98,117.62 169.16,117.84 172.47,117.03 172.95,120.04 171.66,122.47 171.64,124.6 173.35,128.49 170.16,129.03 169.24,128.08 170.48,126.41 169.91,125.09 169.27,123.35 171.6,120.03 168.56,120.78 165.85,119.98 165.68,123.1 166.28,125.03 167.33,126.32 165.31,130.46 164.0,128.47 164.84,126.02 163.46,123.09 164.84,120.72 163.38,120.27 163.77,117.43 164.97,117.19 z " />

		<path id="shape" style="stroke:#fb0;stroke-width:0.25px" fill="none"
			d="M 150.0,105.75 C 146.99,105.75 143.97,106.03 140.94,106.59 138.32,107.13 135.77,107.93 133.25,108.88 131.44,109.62 129.96,110.32 127.97,111.41 126.09,112.49 124.52,113.7 123.28,115.03 122.82,115.56 122.41,116.09 122.09,116.69 121.73,117.33 121.56,117.95 121.53,118.66 L 121.53,119.16 121.53,180.72 C 121.53,181.43 121.56,181.94 121.81,182.69 122.05,183.33 122.38,183.9 122.81,184.47 L 124.19,185.97 C 125.08,186.76 126.21,187.67 127.41,188.31 132.09,191.01 137.2,192.81 142.5,193.66 147.22,194.42 152.29,194.5 157.38,193.66 162.68,192.81 167.79,191.01 172.47,188.31 173.67,187.67 174.8,186.76 175.69,185.97 L 177.06,184.47 C 177.49,183.9 177.82,183.33 178.06,182.69 178.31,181.94 178.34,181.43 178.34,180.72 L 178.34,119.16 178.34,118.66 C 178.31,117.95 178.14,117.33 177.78,116.69 177.46,116.09 177.05,115.56 176.59,115.03 175.66,114.0 174.43,112.97 173.22,112.22 171.08,110.9 169.09,109.82 166.63,108.88 164.11,107.93 161.56,107.13 158.94,106.59 155.99,106.03 153.01,105.75 150.0,105.75 z M 150.0,109.25 C 151.74,109.25 153.19,110.7 153.19,112.44 153.19,114.21 151.74,115.66 150.0,115.66 148.23,115.66 146.81,114.21 146.81,112.44 146.81,110.7 148.23,109.25 150.0,109.25 z M 170.45,126.22 C 169.18,128.27 166.61,129.39 164.24,128.96 161.9,128.58 159.89,126.73 159.34,124.43 158.75,122.17 159.62,119.62 161.47,118.2 163.32,116.71 166.04,116.46 168.13,117.58 169.09,118.08 169.91,118.85 170.48,119.77 170.54,119.88 170.4,119.97 170.31,119.88 168.86,118.2 166.15,117.85 164.31,119.09 162.67,120.14 161.81,122.29 162.36,124.18 162.84,125.95 164.45,127.36 166.29,127.55 167.76,127.73 169.28,127.18 170.29,126.09 170.37,126.0 170.52,126.11 170.45,126.22 z M 168.98,123.68 C 169.0,124.11 169.01,124.54 169.04,124.97 169.04,125.13 169.04,125.2 169.01,125.21 168.99,125.22 168.94,125.17 168.84,125.06 168.55,124.73 168.26,124.41 167.97,124.08 167.89,123.99 167.86,123.96 167.82,123.95 167.79,123.95 167.74,123.96 167.64,124.0 167.24,124.15 166.82,124.3 166.41,124.44 166.27,124.5 166.2,124.52 166.18,124.5 166.17,124.49 166.21,124.42 166.28,124.29 166.5,123.91 166.72,123.54 166.94,123.16 167.01,123.05 167.02,123.02 167.02,122.98 167.02,122.95 166.98,122.91 166.92,122.83 166.65,122.49 166.38,122.15 166.11,121.81 166.02,121.69 165.97,121.63 165.98,121.61 166.0,121.58 166.07,121.6 166.22,121.64 166.65,121.72 167.08,121.82 167.5,121.91 167.63,121.94 167.66,121.95 167.69,121.93 167.72,121.91 167.75,121.87 167.81,121.78 168.06,121.42 168.3,121.07 168.54,120.71 168.63,120.58 168.67,120.52 168.7,120.52 168.72,120.53 168.73,120.6 168.74,120.75 168.78,121.19 168.83,121.62 168.87,122.05 168.89,122.18 168.89,122.22 168.92,122.24 168.94,122.26 168.99,122.28 169.09,122.31 169.51,122.42 169.93,122.54 170.35,122.67 170.49,122.7 170.57,122.73 170.57,122.75 170.57,122.78 170.5,122.81 170.36,122.87 169.96,123.04 169.57,123.22 169.16,123.39 169.04,123.44 169.01,123.46 169.0,123.49 168.98,123.52 168.98,123.57 168.98,123.68 z " />

		<path id="shape" style="stroke:#fb0;stroke-width:0.25px" fill="none"
			d="M 150.0,105.75 C 146.99,105.75 143.97,106.03 140.94,106.59 138.32,107.13 135.77,107.93 133.25,108.88 131.44,109.62 129.96,110.32 127.97,111.41 126.09,112.49 124.52,113.7 123.28,115.03 122.82,115.56 122.41,116.09 122.09,116.69 121.73,117.33 121.56,117.95 121.53,118.66 L 121.53,119.16 121.53,180.72 C 121.53,181.43 121.56,181.94 121.81,182.69 122.05,183.33 122.38,183.9 122.81,184.47 L 124.19,185.97 C 125.08,186.76 126.21,187.67 127.41,188.31 132.09,191.01 137.2,192.81 142.5,193.66 147.22,194.42 152.29,194.5 157.38,193.66 162.68,192.81 167.79,191.01 172.47,188.31 173.67,187.67 174.8,186.76 175.69,185.97 L 177.06,184.47 C 177.49,183.9 177.82,183.33 178.06,182.69 178.31,181.94 178.34,181.43 178.34,180.72 L 178.34,119.16 178.34,118.66 C 178.31,117.95 178.14,117.33 177.78,116.69 177.46,116.09 177.05,115.56 176.59,115.03 175.66,114.0 174.43,112.97 173.22,112.22 171.08,110.9 169.09,109.82 166.63,108.88 164.11,107.93 161.56,107.13 158.94,106.59 155.99,106.03 153.01,105.75 150.0,105.75 z M 150.0,109.25 C 151.74,109.25 153.19,110.7 153.19,112.44 153.19,114.21 151.74,115.66 150.0,115.66 148.23,115.66 146.81,114.21 146.81,112.44 146.81,110.7 148.23,109.25 150.0,109.25 z M 162.11,119.15 161.54,120.25 161.11,120.29 C 161.84,121.51 162.64,122.82 163.26,123.86 L 161.99,123.88 159.61,119.75 C 159.57,119.68 159.53,119.61 159.53,119.52 159.54,119.43 159.57,119.37 159.64,119.32 159.71,119.25 159.78,119.25 159.87,119.25 z M 169.15,126.88 169.73,125.78 170.16,125.74 C 169.43,124.52 168.62,123.21 168.0,122.18 L 169.27,122.15 171.66,126.28 C 171.7,126.36 171.74,126.42 171.73,126.51 171.73,126.6 171.69,126.66 171.63,126.72 171.56,126.78 171.48,126.78 171.4,126.78 z M 160.47,124.15 161.13,125.19 160.96,125.58 C 162.38,125.56 163.91,125.52 165.12,125.5 L 164.5,126.61 159.74,126.61 C 159.65,126.61 159.58,126.61 159.5,126.56 159.43,126.51 159.39,126.45 159.38,126.37 159.36,126.28 159.39,126.21 159.43,126.14 z M 170.73,121.89 170.07,120.84 170.25,120.45 C 168.83,120.47 167.29,120.51 166.08,120.53 L 166.7,119.42 171.47,119.42 C 171.55,119.42 171.63,119.42 171.7,119.47 171.78,119.52 171.81,119.58 171.83,119.66 171.84,119.75 171.81,119.82 171.77,119.9 z M 163.95,128.01 165.18,127.96 165.43,128.31 C 166.12,127.07 166.86,125.72 167.44,124.66 L 168.1,125.75 165.71,129.88 C 165.67,129.95 165.63,130.02 165.55,130.06 165.47,130.1 165.4,130.1 165.32,130.07 165.24,130.04 165.19,129.98 165.15,129.9 z M 167.29,118.02 166.05,118.07 165.8,117.72 C 165.11,118.96 164.38,120.32 163.79,121.37 L 163.14,120.28 165.52,116.15 C 165.56,116.08 165.6,116.01 165.68,115.97 165.76,115.93 165.83,115.93 165.91,115.96 166.0,115.99 166.04,116.05 166.08,116.13 z " />

		<path id="shape" style="stroke:#fb0;stroke-width:0.25px" fill="none"
			d="M 150.0,105.75 C 146.99,105.75 143.97,106.03 140.94,106.59 138.32,107.13 135.77,107.93 133.25,108.88 131.44,109.62 129.96,110.32 127.97,111.41 126.09,112.49 124.52,113.7 123.28,115.03 122.82,115.56 122.41,116.09 122.09,116.69 121.73,117.33 121.56,117.95 121.53,118.66 L 121.53,119.16 121.53,180.72 C 121.53,181.43 121.56,181.94 121.81,182.69 122.05,183.33 122.38,183.9 122.81,184.47 L 124.19,185.97 C 125.08,186.76 126.21,187.67 127.41,188.31 132.09,191.01 137.2,192.81 142.5,193.66 147.22,194.42 152.29,194.5 157.38,193.66 162.68,192.81 167.79,191.01 172.47,188.31 173.67,187.67 174.8,186.76 175.69,185.97 L 177.06,184.47 C 177.49,183.9 177.82,183.33 178.06,182.69 178.31,181.94 178.34,181.43 178.34,180.72 L 178.34,119.16 178.34,118.66 C 178.31,117.95 178.14,117.33 177.78,116.69 177.46,116.09 177.05,115.56 176.59,115.03 175.66,114.0 174.43,112.97 173.22,112.22 171.08,110.9 169.09,109.82 166.63,108.88 164.11,107.93 161.56,107.13 158.94,106.59 155.99,106.03 153.01,105.75 150.0,105.75 z M 150.0,109.25 C 151.74,109.25 153.19,110.7 153.19,112.44 153.19,114.21 151.74,115.66 150.0,115.66 148.23,115.66 146.81,114.21 146.81,112.44 146.81,110.7 148.23,109.25 150.0,109.25 z M 166.98,119.66 C 167.82,119.66 168.66,119.66 169.51,119.66 169.58,119.66 169.64,119.72 169.64,119.8 169.64,120.61 169.64,121.43 169.64,122.24 169.64,122.31 169.58,122.37 169.51,122.37 168.66,122.37 167.82,122.37 166.98,122.37 166.9,122.37 166.84,122.43 166.84,122.51 166.84,124.72 166.84,126.94 166.84,129.15 166.84,129.23 166.78,129.29 166.72,129.29 165.89,129.29 165.07,129.29 164.25,129.29 164.18,129.29 164.12,129.23 164.12,129.15 164.12,126.94 164.12,124.72 164.12,122.51 164.12,122.43 164.06,122.37 163.99,122.37 163.15,122.37 162.3,122.37 161.46,122.37 161.38,122.37 161.32,122.31 161.32,122.24 161.32,121.43 161.32,120.61 161.32,119.8 161.32,119.72 161.38,119.66 161.46,119.66 162.3,119.66 163.15,119.66 163.99,119.66 164.06,119.66 164.12,119.6 164.12,119.54 164.12,118.69 164.12,117.86 164.12,117.02 164.12,116.95 164.18,116.89 164.25,116.89 165.07,116.89 165.89,116.89 166.72,116.89 166.78,116.89 166.84,116.95 166.84,117.02 166.84,117.86 166.84,118.69 166.84,119.54 166.84,119.6 166.9,119.66 166.98,119.66 z " />
		<path id="discbrc" style="fill:none;stroke:#fb0;stroke-width:0.25px;"
			d="M 150.0,137.53 C 148.42,137.53 147.17,137.53 146.25,137.56 C 144.42,137.62 142.39,137.77 140.19,137.97 C 137.24,138.24 134.31,138.6 131.38,139.13 C 123.88,140.46 118.88,142.28 116.41,144.59 C 115.83,145.14 115.37,145.74 115.03,146.38 C 114.44,147.5 114.13,148.7 114.13,150.0 C 114.13,151.3 114.44,152.51 115.03,153.63 C 115.37,154.26 115.83,154.86 116.41,155.41 C 118.88,157.72 123.88,159.54 131.38,160.88 C 134.31,161.4 137.24,161.76 140.19,162.03 C 142.39,162.23 144.42,162.38 146.25,162.44 C 147.17,162.47 148.42,162.47 150.0,162.47 C 151.58,162.47 152.83,162.47 153.75,162.44 C 155.58,162.38 157.61,162.23 159.81,162.03 C 162.76,161.76 165.7,161.4 168.63,160.88 C 176.13,159.54 181.12,157.72 183.59,155.41 C 184.17,154.86 184.63,154.26 184.97,153.63 C 185.56,152.51 185.88,151.3 185.88,150.0 C 185.88,148.7 185.56,147.5 184.97,146.38 C 184.63,145.74 184.17,145.14 183.59,144.59 C 181.12,142.28 176.13,140.46 168.63,139.13 C 165.7,138.6 162.76,138.24 159.81,137.97 C 157.61,137.77 155.58,137.62 153.75,137.56 C 152.83,137.53 151.58,137.53 150.0,137.53 z M 120.06,145.09 C 120.76,145.09 121.38,145.35 121.91,145.88 C 122.44,146.39 122.72,147.02 122.72,147.72 L 122.72,152.28 C 122.72,152.99 122.44,153.62 121.91,154.13 C 121.38,154.66 120.76,154.91 120.06,154.91 C 119.36,154.91 118.76,154.66 118.22,154.13 C 117.7,153.62 117.41,152.99 117.41,152.28 L 117.41,147.72 C 117.41,147.02 117.7,146.39 118.22,145.88 C 118.76,145.35 119.36,145.09 120.06,145.09 z M 179.94,145.09 C 180.64,145.09 181.24,145.35 181.78,145.88 C 182.3,146.39 182.59,147.02 182.59,147.72 L 182.59,152.28 C 182.59,152.99 182.3,153.62 181.78,154.13 C 181.24,154.66 180.64,154.91 179.94,154.91 C 179.24,154.91 178.62,154.66 178.09,154.13 C 177.56,153.62 177.28,152.99 177.28,152.28 L 177.28,147.72 C 177.28,147.02 177.56,146.39 178.09,145.88 C 178.62,145.35 179.24,145.09 179.94,145.09 z" />
			
		<!-- Prism Reference -->
		<cam mingh:cam="--actions=EditSelectAll;ObjectToPath;SelectionUnGroup;SelectionUnGroup;SelectionGroup;AlignVerticalCenter;AlignHorizontalCenter;ZoomPage;ZoomCenterPage;FileVacuum;FileSave; -g" mingh:style="source:microprism">M2</cam> 
	 </g>

</svg>
