<?xml version="1.0" encoding="UTF-8" standalone="no"?>

<svg
   xmlns:xlink="http://www.w3.org/1999/xlink"
   xmlns:svg="http://www.w3.org/2000/svg"
   xmlns="http://www.w3.org/2000/svg"
   xmlns:mingh="http://www.minghworld.com"
   width="300px"
   height="300px" >
   
	<defs>
		<!-- Birth -->
		<path id="birth" style="fill:#00f;stroke:none;"
         d="M 194.71,150.0 C 194.71,152.14 192.97,153.88 190.82,153.88 C 188.67,153.88 186.93,152.14 186.93,150.0 C 186.93,147.86 188.67,146.12 190.82,146.12 C 192.97,146.12 194.71,147.86 194.71,150.0 z" />
		 
		<!-- Diamond -->
		<path id="diamond" style="fill:none;stroke:#000;stroke-width:0.25px;"
         d="M 193.65,150.0 C 193.65,148.44 192.38,147.18 190.82,147.18 C 189.26,147.18 187.99,148.44 187.99,150.0 C 187.99,151.56 189.26,152.82 190.82,152.82 C 192.38,152.82 193.65,151.56 193.65,150.0 z" />
		 
	</defs>	

	<g>	
		<!-- Shape -->
		<path id="shape" style="fill:none;stroke:#fb0;stroke-width:0.25px;"
			d="M 101.22,150.0 C 101.22,149.02 100.42,148.23 99.45,148.23 C 98.47,148.23 97.68,149.02 97.68,150.0 C 97.68,150.97 98.47,151.76 99.45,151.76 C 100.42,151.76 101.22,150.97 101.22,150.0 z M 198.78,150.0 C 198.78,150.97 199.58,151.76 200.55,151.76 C 201.53,151.76 202.32,150.97 202.32,150.0 C 202.32,149.02 201.53,148.23 200.55,148.23 C 199.58,148.23 198.78,149.02 198.78,150.0 z M 201.24,143.65 C 201.85,144.25 202.3,144.72 202.76,145.45 C 203.24,146.2 203.58,146.98 203.81,147.84 C 204.25,149.51 204.17,151.28 203.57,152.91 C 203.26,153.74 202.85,154.48 202.31,155.18 C 202.06,155.51 201.78,155.81 201.49,156.1 C 201.43,156.15 201.38,156.2 201.33,156.25 C 201.3,156.28 201.28,156.3 201.25,156.33 C 201.24,156.35 201.17,156.34 201.15,156.34 C 201.03,156.34 200.9,156.34 200.78,156.34 C 200.46,156.34 200.15,156.34 199.83,156.34 C 198.11,156.34 196.39,156.34 194.68,156.34 C 189.11,156.34 183.55,156.34 177.99,156.35 C 176.98,156.35 175.97,156.35 174.96,156.35 C 174.43,156.35 173.91,156.35 173.38,156.35 C 173.32,156.35 173.25,156.35 173.18,156.35 C 173.14,156.35 173.16,156.36 173.16,156.39 C 173.16,156.43 173.16,156.46 173.16,156.49 C 173.16,156.55 173.16,156.62 173.16,156.68 C 173.16,156.94 173.16,157.2 173.16,157.46 C 173.16,157.98 173.16,158.5 173.16,159.01 C 173.16,163.15 173.16,167.29 173.16,171.44 C 173.16,171.69 173.16,171.95 173.16,172.21 C 173.16,172.28 173.16,172.34 173.16,172.41 C 173.16,172.41 173.16,172.42 173.16,172.43 C 173.16,172.44 173.16,172.45 173.16,172.45 C 173.15,172.46 173.14,172.47 173.13,172.47 C 173.12,172.49 173.1,172.5 173.09,172.52 C 173.03,172.57 172.97,172.62 172.91,172.68 C 172.66,172.9 172.42,173.11 172.16,173.31 C 171.63,173.7 171.08,174.03 170.47,174.28 C 169.24,174.8 167.94,174.95 166.63,174.7 C 165.32,174.45 164.16,173.84 163.16,172.99 C 163.03,172.89 162.91,172.78 162.79,172.67 C 162.73,172.62 162.67,172.56 162.61,172.51 C 162.59,172.49 162.58,172.48 162.56,172.47 C 162.54,172.44 162.55,172.42 162.55,172.39 C 162.55,172.33 162.55,172.27 162.55,172.2 C 162.55,171.71 162.55,171.21 162.55,170.72 C 162.55,169.73 162.55,168.74 162.55,167.75 C 162.55,164.08 162.55,160.4 162.55,156.72 C 162.55,156.61 162.55,156.5 162.55,156.38 C 162.55,156.34 162.54,156.35 162.51,156.35 C 162.48,156.35 162.46,156.35 162.44,156.35 C 162.39,156.35 162.35,156.35 162.3,156.35 C 162.12,156.35 161.93,156.35 161.75,156.35 C 161.38,156.35 161.01,156.35 160.65,156.35 C 159.91,156.35 159.17,156.35 158.44,156.35 C 156.97,156.35 155.5,156.35 154.03,156.35 C 148.14,156.35 142.26,156.35 136.37,156.35 C 130.1,156.35 123.83,156.35 117.57,156.35 C 114.43,156.35 111.3,156.35 108.16,156.35 C 106.6,156.35 105.03,156.35 103.46,156.35 C 102.68,156.35 101.89,156.35 101.11,156.35 C 100.72,156.35 100.33,156.35 99.94,156.35 C 99.74,156.35 99.54,156.35 99.35,156.35 C 99.25,156.35 99.15,156.35 99.05,156.35 C 99.0,156.35 98.96,156.35 98.91,156.35 C 98.88,156.35 98.86,156.35 98.83,156.35 C 98.82,156.35 98.81,156.35 98.8,156.35 C 98.79,156.35 98.78,156.35 98.78,156.35 C 98.77,156.35 98.77,156.35 98.76,156.35 C 98.11,155.71 97.65,155.22 97.17,154.44 C 96.68,153.64 96.34,152.82 96.13,151.91 C 95.72,150.13 95.89,148.27 96.62,146.6 C 97.0,145.75 97.48,145.01 98.1,144.32 C 98.24,144.17 98.38,144.02 98.53,143.88 C 98.58,143.83 98.64,143.77 98.69,143.72 C 98.7,143.71 98.72,143.69 98.73,143.68 C 98.75,143.67 98.76,143.65 98.78,143.65 C 98.83,143.65 98.87,143.65 98.92,143.65 C 99.29,143.65 99.65,143.65 100.02,143.65 C 101.49,143.65 102.95,143.65 104.42,143.65 C 110.28,143.65 116.15,143.65 122.01,143.65 C 134.55,143.65 147.09,143.65 159.63,143.65 C 160.35,143.65 161.07,143.65 161.8,143.65 C 161.98,143.65 162.16,143.65 162.34,143.65 C 162.39,143.65 162.43,143.65 162.48,143.65 C 162.5,143.65 162.52,143.65 162.54,143.65 C 162.56,143.65 162.55,143.62 162.55,143.62 C 162.55,143.6 162.55,143.59 162.55,143.57 C 162.55,143.45 162.55,143.33 162.55,143.21 C 162.55,142.74 162.55,142.26 162.55,141.78 C 162.55,139.88 162.55,137.97 162.55,136.06 C 162.55,134.16 162.55,132.25 162.55,130.34 C 162.55,129.86 162.55,129.39 162.55,128.91 C 162.55,128.67 162.55,128.43 162.55,128.2 C 162.55,128.08 162.55,127.96 162.55,127.84 C 162.55,127.78 162.55,127.72 162.55,127.66 C 162.55,127.63 162.55,127.6 162.55,127.57 C 162.55,127.54 162.57,127.53 162.58,127.52 C 163.03,127.12 163.48,126.72 163.98,126.39 C 166.09,125.0 168.55,124.77 170.84,125.89 C 171.39,126.15 171.89,126.48 172.36,126.85 C 172.6,127.04 172.82,127.24 173.04,127.44 C 173.07,127.47 173.1,127.49 173.13,127.52 C 173.14,127.53 173.16,127.55 173.16,127.57 C 173.16,127.6 173.16,127.63 173.16,127.66 C 173.16,127.77 173.16,127.88 173.16,128.0 C 173.16,128.23 173.16,128.45 173.16,128.68 C 173.16,130.5 173.16,132.33 173.16,134.15 C 173.16,135.99 173.16,137.83 173.16,139.67 C 173.16,140.58 173.16,141.5 173.16,142.42 C 173.16,142.65 173.16,142.88 173.16,143.11 C 173.16,143.23 173.16,143.34 173.16,143.46 C 173.16,143.51 173.16,143.57 173.16,143.63 C 173.16,143.64 173.15,143.65 173.17,143.65 C 173.17,143.65 173.18,143.65 173.19,143.65 C 173.21,143.65 173.22,143.65 173.24,143.65 C 173.48,143.65 173.73,143.65 173.98,143.65 C 175.84,143.65 177.7,143.65 179.57,143.65 C 182.71,143.65 185.86,143.65 189.01,143.65 C 193.08,143.65 197.16,143.65 201.24,143.65 z" />
		
		<!-- Name One -->
		<text style="stroke:none;fill:#f00;font-family:z_swan;font-size:20px;text-anchor:middle;" transform="matrix(1 0 0 1 150 153)" class="txt" />

		<!-- Prism Reference -->
		<cam mingh:cam="--actions=EditSelectAll;ObjectToPath;ZoomPage;ZoomCenterPage;FileVacuum;FileSave; -g" mingh:style="source:microprism">M2</cam> 
	</g>

</svg>
