<?xml version="1.0" encoding="UTF-8" standalone="no"?>

<svg
   xmlns:xlink="http://www.w3.org/1999/xlink"
   xmlns:svg="http://www.w3.org/2000/svg"
   xmlns="http://www.w3.org/2000/svg"
   xmlns:mingh="http://www.minghworld.com"
   width="300px"
   height="300px" >
   
	<defs>
		<!-- Birth -->
		<path id="birth" style="fill:#00f;stroke:none;"
         d="M 153.89,194.49 C 153.89,196.63 152.15,198.38 150.0,198.38 C 147.85,198.38 146.11,196.63 146.11,194.49 C 146.11,192.34 147.85,190.6 150.0,190.6 C 152.15,190.6 153.89,192.34 153.89,194.49 z" />
		 
		<!-- Diamond -->
		<path id="diamond" style="fill:none;stroke:#000;stroke-width:0.25px;"
         d="M 152.83,194.49 C 152.83,192.93 151.56,191.66 150.0,191.66 C 148.44,191.66 147.17,192.93 147.17,194.49 C 147.17,196.05 148.44,197.31 150.0,197.31 C 151.56,197.31 152.83,196.05 152.83,194.49 z" />
		<!-- Text Path -->
		<path id="txtpath" style="fill:none;stroke:#f0f;stroke-width:0.25px;"
		 d="M 110,153 C 110,208 190,208 190,153" /> 
	</defs>	

	 <g>	
		<!-- Shape -->
		<path id="shape" style="fill:none;stroke:#fb0;stroke-width:0.25px;"
		d="M 149.76,165.12 C 149.67,165.1 149.62,164.83 149.57,164.62 C 149.53,164.41 149.48,164.27 149.43,164.1 C 149.38,163.94 149.34,163.76 149.29,163.58 C 149.23,163.41 149.17,163.24 149.1,163.08 C 149.02,162.92 148.93,162.77 148.82,162.61 C 148.72,162.46 148.61,162.31 148.46,162.22 C 148.31,162.13 148.11,162.09 147.94,162.15 C 147.78,162.21 147.66,162.36 147.56,162.52 C 147.47,162.68 147.4,162.84 147.35,163.01 C 147.3,163.18 147.27,163.36 147.26,163.54 C 147.24,163.72 147.25,163.9 147.26,164.08 C 147.26,164.26 147.28,164.44 147.3,164.62 C 147.32,164.8 147.35,164.98 147.38,165.15 C 147.41,165.33 147.44,165.51 147.47,165.68 C 147.51,165.86 147.55,166.03 147.59,166.21 C 147.64,166.38 147.68,166.56 147.73,166.73 C 147.78,166.9 147.84,167.07 147.9,167.24 C 147.96,167.41 148.03,167.58 148.1,167.74 C 148.17,167.91 148.25,168.08 148.35,168.29 C 148.46,168.5 148.59,168.76 148.68,168.94 C 148.77,169.12 148.81,169.22 148.87,169.24 C 148.93,169.26 149.0,169.2 149.16,169.07 C 149.32,168.95 149.55,168.76 149.74,168.6 C 149.93,168.44 150.07,168.32 150.2,168.2 C 150.33,168.08 150.46,167.95 150.59,167.82 C 150.71,167.69 150.83,167.56 150.95,167.42 C 151.06,167.28 151.18,167.14 151.29,167.0 C 151.4,166.86 151.5,166.71 151.61,166.57 C 151.71,166.42 151.82,166.28 151.92,166.13 C 152.02,165.98 152.12,165.83 152.21,165.67 C 152.3,165.52 152.39,165.36 152.47,165.2 C 152.55,165.04 152.62,164.88 152.68,164.71 C 152.74,164.54 152.79,164.36 152.82,164.19 C 152.84,164.01 152.84,163.83 152.82,163.65 C 152.8,163.46 152.76,163.27 152.63,163.15 C 152.51,163.03 152.31,162.99 152.13,163.02 C 151.96,163.04 151.8,163.13 151.64,163.23 C 151.49,163.32 151.33,163.42 151.2,163.53 C 151.06,163.64 150.94,163.78 150.82,163.92 C 150.7,164.06 150.59,164.2 150.47,164.33 C 150.36,164.46 150.25,164.57 150.13,164.74 C 150.0,164.91 149.86,165.14 149.76,165.12 z M 153.18,104.98 C 153.18,103.22 151.76,101.8 150.0,101.8 C 148.24,101.8 146.82,103.22 146.82,104.98 C 146.82,106.74 148.24,108.16 150.0,108.16 C 151.76,108.16 153.18,106.74 153.18,104.98 z M 129.45,135.77 C 129.52,135.67 129.51,135.53 129.42,135.44 C 129.31,135.33 129.2,135.36 129.07,135.36 C 128.82,135.35 128.58,135.34 128.33,135.32 C 127.84,135.28 127.35,135.2 126.87,135.09 C 125.9,134.85 125.01,134.48 124.15,133.95 C 122.43,132.9 121.14,131.39 120.44,129.49 C 119.77,127.65 119.68,125.56 120.37,123.69 C 120.41,123.57 120.48,123.48 120.42,123.33 C 120.37,123.22 120.25,123.15 120.12,123.18 C 120.02,123.2 119.91,123.33 119.84,123.39 C 119.76,123.47 119.68,123.56 119.6,123.64 C 119.27,123.96 118.95,124.29 118.63,124.63 C 117.99,125.31 117.38,126.0 116.79,126.71 C 115.57,128.19 114.46,129.73 113.45,131.35 C 112.94,132.15 112.47,132.97 112.02,133.81 C 111.96,133.92 111.9,134.02 111.85,134.13 C 111.83,134.17 111.7,134.4 111.69,134.45 C 111.66,134.58 111.74,134.71 111.86,134.75 C 112.01,134.81 112.1,134.73 112.2,134.64 C 112.59,134.33 113.0,134.06 113.43,133.83 C 115.23,132.85 117.19,132.63 119.17,133.13 C 121.09,133.6 122.83,134.71 124.1,136.22 C 124.73,136.97 125.22,137.76 125.59,138.67 C 125.96,139.57 126.14,140.49 126.27,141.45 C 126.4,142.4 126.49,143.34 126.85,144.25 C 127.19,145.11 127.82,145.95 128.6,146.47 C 129.41,147.01 130.41,147.19 131.32,147.3 C 132.28,147.41 133.23,147.46 134.18,147.59 C 135.13,147.72 136.07,147.91 137.0,148.15 C 138.06,148.41 139.09,148.75 140.14,149.07 C 140.94,149.31 141.75,149.55 142.57,149.73 C 143.01,149.82 143.45,149.9 143.9,149.92 C 144.34,149.94 144.89,149.91 145.2,149.49 C 145.66,148.87 145.7,147.39 145.69,146.72 C 145.68,146.24 145.66,145.77 145.6,145.3 C 145.56,145.06 145.4,144.12 145.33,143.88 C 144.76,141.74 144.1,139.94 142.71,138.15 C 141.56,136.66 139.81,135.21 137.96,134.64 C 136.09,134.06 133.98,134.4 132.39,135.54 C 131.56,136.13 130.97,136.82 130.55,137.76 C 130.15,138.65 129.99,139.63 130.09,140.61 C 130.19,141.58 130.56,142.51 131.28,143.2 C 131.98,143.87 132.95,144.29 133.88,144.46 C 134.83,144.65 135.84,144.6 136.75,144.23 C 137.63,143.87 138.45,143.19 138.89,142.34 C 139.84,140.52 138.97,138.12 136.88,137.68 C 135.99,137.49 134.85,137.63 134.12,138.28 C 133.75,138.61 133.49,139.04 133.41,139.53 C 133.33,139.97 133.38,140.56 133.7,140.92 C 134.02,141.28 134.59,141.41 135.04,141.37 C 135.27,141.34 135.54,141.27 135.71,141.1 C 135.8,140.99 135.84,140.87 135.79,140.73 C 135.77,140.67 135.74,140.66 135.68,140.65 C 135.63,140.65 135.58,140.63 135.53,140.62 C 135.07,140.47 134.81,139.95 134.91,139.49 C 134.96,139.25 135.1,139.03 135.31,138.89 C 135.53,138.73 135.75,138.71 136.0,138.73 C 136.48,138.76 136.98,138.85 137.35,139.21 C 137.71,139.55 137.9,140.04 137.9,140.53 C 137.9,140.99 137.72,141.53 137.5,141.92 C 137.24,142.37 136.92,142.69 136.46,142.93 C 135.61,143.4 134.52,143.42 133.63,143.11 C 132.67,142.78 131.96,142.11 131.63,141.14 C 131.31,140.21 131.38,139.17 131.77,138.28 C 132.16,137.38 132.87,136.65 133.74,136.21 C 135.43,135.34 137.75,135.5 139.27,136.69 C 140.85,137.92 141.52,139.99 141.09,141.92 C 140.67,143.87 139.15,145.4 137.34,146.08 C 135.51,146.77 133.39,146.59 131.66,145.77 C 129.78,144.88 128.61,143.39 128.23,141.33 C 127.88,139.4 128.33,137.38 129.45,135.77 z M 152.65,132.29 C 152.58,132.45 152.69,132.63 152.86,132.65 C 152.95,132.67 153.01,132.63 153.09,132.59 C 153.16,132.56 153.23,132.53 153.31,132.5 C 153.61,132.37 153.91,132.27 154.22,132.18 C 154.85,132.0 155.47,131.91 156.13,131.91 C 157.41,131.93 158.7,132.34 159.76,133.05 C 160.88,133.78 161.67,134.75 162.04,136.06 C 162.38,137.24 162.39,138.69 162.01,139.87 C 161.23,142.31 158.7,144.17 156.08,143.86 C 154.76,143.7 153.63,143.03 152.83,141.99 C 152.04,140.96 151.67,139.65 151.97,138.35 C 152.26,137.1 153.18,136.0 154.35,135.48 C 155.49,134.97 156.98,134.98 158.05,135.73 C 159.13,136.49 159.47,138.02 158.94,139.19 C 158.67,139.78 158.18,140.26 157.56,140.48 C 157.25,140.59 156.94,140.62 156.61,140.6 C 156.36,140.59 155.92,140.51 155.7,140.37 C 155.09,140.0 155.07,139.13 155.66,138.74 C 155.81,138.64 155.96,138.59 156.13,138.58 C 156.29,138.56 156.44,138.61 156.59,138.64 C 156.76,138.68 156.9,138.7 157.05,138.56 C 157.18,138.44 157.22,138.3 157.23,138.13 C 157.27,137.82 157.17,137.46 156.88,137.29 C 156.6,137.12 156.25,137.06 155.95,137.07 C 155.28,137.09 154.69,137.41 154.28,137.93 C 153.4,139.06 153.85,140.5 154.88,141.33 C 155.95,142.19 157.39,142.09 158.49,141.39 C 159.62,140.67 160.3,139.53 160.35,138.19 C 160.37,137.59 160.29,136.86 160.07,136.29 C 159.83,135.64 159.43,135.2 158.89,134.8 C 157.86,134.05 156.5,133.69 155.23,133.93 C 154.0,134.17 152.77,134.89 151.83,135.67 C 150.9,136.43 149.91,137.51 149.39,138.62 C 148.82,139.84 148.76,141.11 148.81,142.4 C 148.85,143.69 149.0,144.96 149.28,146.22 C 149.57,147.48 149.95,148.69 151.07,149.54 C 151.34,149.74 151.59,149.89 151.94,149.92 C 152.32,149.95 152.77,149.89 153.13,149.78 C 153.71,149.6 154.17,149.3 154.62,148.92 C 155.45,148.25 156.61,146.96 157.37,146.22 C 158.28,145.31 159.27,144.49 160.22,143.63 C 161.19,142.75 162.07,141.88 162.67,140.68 C 163.28,139.49 163.47,138.26 163.32,136.94 C 163.17,135.6 162.71,134.48 162.0,133.36 C 161.33,132.31 160.42,131.27 159.42,130.52 C 158.9,130.13 158.35,129.81 157.77,129.52 C 157.2,129.23 156.61,128.97 156.04,128.68 C 153.52,127.41 151.83,125.73 151.18,122.86 C 150.61,120.35 151.03,117.5 152.51,115.33 C 153.24,114.25 154.24,113.33 155.41,112.74 C 155.7,112.59 156.0,112.46 156.31,112.36 C 156.47,112.3 156.63,112.26 156.78,112.22 C 156.86,112.2 156.94,112.19 157.02,112.15 C 157.11,112.11 157.15,112.06 157.16,111.96 C 157.18,111.87 157.16,111.8 157.09,111.74 C 157.03,111.67 156.96,111.66 156.88,111.64 C 156.73,111.62 156.57,111.6 156.42,111.57 C 156.12,111.53 155.82,111.49 155.51,111.45 C 153.05,111.13 150.61,111.03 148.13,111.13 C 146.91,111.19 145.7,111.29 144.49,111.45 C 144.33,111.47 144.18,111.49 144.03,111.51 C 143.88,111.53 143.73,111.54 143.58,111.57 C 143.41,111.62 143.33,111.81 143.41,111.96 C 143.46,112.04 143.52,112.07 143.61,112.1 C 143.68,112.12 143.76,112.15 143.84,112.18 C 144.46,112.4 145.02,112.69 145.54,113.1 C 147.68,114.73 148.33,117.67 147.84,120.14 C 147.59,121.43 147.05,122.62 146.27,123.67 C 145.48,124.73 144.51,125.58 143.61,126.51 C 143.15,126.98 142.72,127.45 142.38,128.02 C 142.03,128.62 141.92,129.2 141.98,129.89 C 142.08,131.1 142.69,132.51 143.18,133.58 C 143.52,134.32 143.89,135.05 144.24,135.79 C 144.34,135.99 144.43,136.18 144.53,136.36 C 144.69,136.67 145.02,137.25 145.23,137.53 C 145.41,137.77 145.82,138.22 146.2,138.17 C 146.65,138.1 146.9,137.65 147.04,137.31 C 147.12,137.11 147.19,136.91 147.27,136.72 C 147.6,135.93 148.01,135.2 148.54,134.52 C 148.9,134.07 149.3,133.65 149.7,133.23 C 150.09,132.8 150.46,132.37 150.73,131.84 C 151.21,130.85 151.31,129.49 150.8,128.47 C 150.28,127.44 149.15,126.72 147.97,126.8 C 146.69,126.89 145.87,127.81 145.73,129.05 C 145.67,129.58 145.73,130.26 146.15,130.68 C 146.56,131.1 147.3,131.1 147.72,130.7 C 147.81,130.61 147.93,130.46 147.9,130.31 C 147.88,130.24 147.85,130.17 147.77,130.18 C 147.7,130.18 147.64,130.18 147.58,130.17 C 147.29,130.14 147.04,129.96 146.89,129.72 C 146.57,129.19 146.8,128.5 147.39,128.29 C 147.63,128.2 148.09,128.2 148.33,128.23 C 148.67,128.27 148.95,128.37 149.22,128.58 C 149.76,128.99 149.95,129.66 149.89,130.3 C 149.84,130.96 149.61,131.55 149.14,132.03 C 148.68,132.49 148.08,132.79 147.45,132.9 C 146.11,133.12 144.85,132.49 144.21,131.3 C 143.61,130.17 143.65,128.69 144.12,127.55 C 145.17,124.94 148.23,124.13 150.58,125.52 C 151.71,126.19 152.53,127.24 152.88,128.51 C 153.23,129.73 153.11,131.12 152.65,132.29 z M 140.96,133.37 C 140.53,132.35 140.14,131.21 140.04,130.09 C 139.93,128.86 140.17,127.87 140.83,126.83 C 141.45,125.85 142.27,125.08 143.09,124.28 C 143.9,123.48 144.69,122.69 145.25,121.66 C 145.8,120.65 146.09,119.53 146.05,118.38 C 146.02,117.28 145.69,116.07 144.96,115.2 C 144.22,114.33 143.08,113.84 141.96,113.74 C 140.86,113.65 139.64,113.94 138.74,114.62 C 137.77,115.36 137.3,116.43 137.35,117.63 C 137.41,118.8 137.98,119.88 139.07,120.43 C 139.59,120.69 140.18,120.78 140.75,120.71 C 141.29,120.65 141.89,120.41 142.29,120.01 C 142.69,119.59 142.83,118.98 142.81,118.43 C 142.8,118.18 142.73,117.8 142.63,117.57 C 142.51,117.3 142.27,117.16 142.01,117.07 C 141.51,116.91 140.78,117.0 140.71,117.63 C 140.7,117.72 140.7,117.86 140.8,117.92 C 140.85,117.95 140.91,117.97 140.97,118.0 C 141.03,118.03 141.08,118.07 141.13,118.11 C 141.36,118.31 141.48,118.6 141.49,118.89 C 141.49,119.57 140.89,119.96 140.25,119.82 C 139.74,119.71 139.23,119.36 138.98,118.88 C 138.72,118.38 138.7,117.73 138.8,117.2 C 138.91,116.62 139.19,116.12 139.64,115.73 C 140.55,114.93 141.8,114.84 142.88,115.29 C 144.06,115.78 144.6,116.77 144.73,117.98 C 144.84,119.11 144.6,120.31 143.83,121.2 C 143.07,122.08 141.92,122.57 140.8,122.66 C 139.64,122.76 138.49,122.45 137.55,121.77 C 136.59,121.09 135.93,120.12 135.62,119.0 C 135.31,117.91 135.33,116.69 135.71,115.61 C 135.9,115.06 136.17,114.57 136.52,114.1 C 136.61,113.99 136.7,113.88 136.8,113.77 C 136.9,113.66 137.03,113.59 136.98,113.41 C 136.95,113.26 136.8,113.17 136.65,113.21 C 136.53,113.25 136.4,113.29 136.27,113.34 C 135.25,113.68 134.24,114.06 133.25,114.48 C 131.22,115.34 129.29,116.33 127.41,117.48 C 127.18,117.63 126.95,117.77 126.72,117.92 C 126.66,117.96 126.6,117.99 126.55,118.05 C 126.5,118.11 126.49,118.18 126.51,118.26 C 126.55,118.42 126.69,118.48 126.84,118.46 C 127.42,118.38 127.99,118.36 128.57,118.4 C 129.72,118.48 130.86,118.81 131.86,119.38 C 134.02,120.6 135.09,122.7 135.31,125.06 C 135.42,126.21 135.29,127.38 134.85,128.46 C 134.4,129.52 133.65,130.47 132.7,131.13 C 130.82,132.45 128.21,132.5 126.2,131.48 C 125.16,130.95 124.35,130.16 123.81,129.12 C 123.28,128.11 123.07,126.95 123.21,125.81 C 123.35,124.68 123.84,123.61 124.71,122.83 C 125.56,122.07 126.69,121.64 127.82,121.62 C 128.95,121.59 130.11,121.96 130.94,122.77 C 131.77,123.57 132.2,124.71 132.16,125.85 C 132.12,127.02 131.6,128.12 130.49,128.66 C 129.47,129.16 128.15,129.08 127.22,128.38 C 126.32,127.69 125.88,126.34 126.53,125.32 C 126.85,124.81 127.34,124.5 127.93,124.44 C 128.08,124.42 128.22,124.41 128.36,124.42 C 128.5,124.43 128.63,124.47 128.76,124.54 C 129.02,124.69 129.21,124.94 129.25,125.24 C 129.29,125.5 129.24,125.66 129.03,125.83 C 128.84,125.98 128.6,126.06 128.4,126.22 C 128.32,126.29 128.24,126.36 128.2,126.48 C 128.15,126.62 128.19,126.84 128.29,126.96 C 128.5,127.2 129.04,127.1 129.28,127.04 C 129.55,126.96 129.78,126.89 129.96,126.65 C 130.13,126.42 130.2,126.11 130.22,125.84 C 130.25,125.27 130.06,124.68 129.67,124.25 C 128.88,123.38 127.43,123.4 126.49,123.93 C 125.41,124.54 125.01,125.73 125.13,126.88 C 125.25,128.03 125.89,129.06 126.9,129.65 C 127.87,130.21 129.12,130.38 130.2,130.14 C 131.35,129.88 132.28,129.15 132.84,128.14 C 133.41,127.12 133.49,125.93 133.32,124.82 C 133.15,123.72 132.72,122.6 131.88,121.79 C 131.07,121.0 129.94,120.54 128.84,120.38 C 126.5,120.05 124.25,121.08 122.9,123.0 C 122.2,124.0 121.86,125.11 121.84,126.33 C 121.82,127.5 122.12,128.71 122.69,129.74 C 123.83,131.84 126.12,133.18 128.45,133.38 C 129.66,133.49 130.81,133.33 131.98,133.09 C 133.14,132.86 134.27,132.53 135.46,132.44 C 136.5,132.36 137.46,132.46 138.46,132.76 C 138.92,132.89 139.35,133.07 139.79,133.27 C 140.0,133.37 140.21,133.49 140.42,133.6 C 140.52,133.66 140.65,133.76 140.79,133.72 C 140.94,133.68 141.02,133.51 140.96,133.37 z M 175.12,138.58 C 175.67,138.19 176.43,138.51 176.6,139.15 C 176.68,139.47 176.59,139.81 176.37,140.05 C 176.17,140.26 175.81,140.43 175.56,140.5 C 174.21,140.88 173.03,139.79 172.96,138.47 C 172.93,137.84 173.15,137.19 173.51,136.69 C 173.89,136.16 174.41,135.8 175.02,135.6 C 176.21,135.22 177.63,135.48 178.6,136.28 C 179.62,137.14 179.99,138.42 179.88,139.69 C 179.77,140.95 179.2,142.18 178.13,142.92 C 177.09,143.65 175.72,143.87 174.51,143.73 C 173.22,143.58 172.07,143.01 171.21,142.03 C 170.39,141.09 169.88,139.83 169.8,138.58 C 169.72,137.31 170.1,136.05 170.8,135.0 C 172.28,132.81 174.99,131.97 177.48,132.37 C 178.73,132.57 179.91,133.12 180.87,133.95 C 181.86,134.8 182.51,135.86 182.86,137.11 C 183.04,137.73 183.13,138.34 183.14,138.98 C 183.15,139.29 183.13,139.61 183.1,139.92 C 183.09,140.08 183.07,140.24 183.04,140.39 C 183.03,140.47 183.02,140.55 183.0,140.63 C 182.99,140.7 182.96,140.78 182.96,140.86 C 182.95,141.03 183.1,141.16 183.27,141.13 C 183.35,141.12 183.41,141.07 183.48,141.03 C 183.55,140.99 183.62,140.95 183.69,140.91 C 183.97,140.76 184.25,140.62 184.54,140.49 C 185.13,140.25 185.72,140.08 186.36,140.0 C 187.65,139.84 189.04,140.09 190.17,140.78 C 190.24,140.82 190.31,140.87 190.37,140.91 C 190.44,140.96 190.5,141.01 190.57,141.05 C 190.73,141.14 190.93,141.05 190.96,140.87 C 190.98,140.79 190.95,140.72 190.92,140.64 C 190.9,140.57 190.87,140.5 190.85,140.42 C 190.8,140.28 190.75,140.13 190.7,139.99 C 190.5,139.4 190.28,138.83 190.05,138.25 C 189.13,135.93 188.02,133.73 186.71,131.6 C 185.4,129.47 183.93,127.49 182.27,125.61 C 181.45,124.69 180.59,123.8 179.69,122.95 C 179.57,122.83 179.43,122.73 179.27,122.87 C 179.19,122.93 179.17,122.99 179.18,123.09 C 179.18,123.18 179.22,123.25 179.25,123.32 C 179.36,123.64 179.45,123.95 179.51,124.28 C 179.64,124.94 179.68,125.58 179.62,126.25 C 179.37,128.85 177.62,131.03 175.09,131.75 C 173.87,132.09 172.56,132.06 171.37,131.6 C 170.18,131.15 169.16,130.3 168.59,129.16 C 168.0,127.98 167.96,126.7 168.38,125.48 C 168.79,124.28 169.62,123.23 170.77,122.65 C 171.9,122.07 173.26,122.02 174.42,122.61 C 175.54,123.19 176.32,124.38 176.41,125.64 C 176.5,126.93 175.78,128.17 174.56,128.65 C 173.97,128.89 173.31,128.95 172.7,128.73 C 172.09,128.52 171.62,128.07 171.44,127.43 C 171.35,127.11 171.34,126.81 171.38,126.49 C 171.43,126.16 171.48,125.88 171.75,125.65 C 172.28,125.19 173.1,125.42 173.31,126.08 C 173.36,126.23 173.38,126.38 173.35,126.54 C 173.32,126.68 173.22,126.9 173.46,126.92 C 173.59,126.93 173.78,126.88 173.9,126.82 C 174.05,126.75 174.16,126.65 174.26,126.52 C 174.67,125.98 174.44,125.24 174.06,124.77 C 173.65,124.26 172.99,124.07 172.36,124.16 C 171.72,124.25 171.17,124.62 170.77,125.1 C 170.38,125.59 170.12,126.21 170.06,126.83 C 169.99,127.48 170.16,128.1 170.53,128.63 C 171.28,129.7 172.63,130.14 173.87,130.01 C 175.14,129.87 176.3,129.15 176.99,128.09 C 178.4,125.94 177.64,122.73 175.36,121.49 C 174.24,120.88 172.89,120.79 171.68,121.03 C 170.41,121.27 169.29,121.85 168.43,122.84 C 167.63,123.76 167.05,125.03 166.73,126.19 C 166.35,127.52 166.29,128.57 166.5,129.94 C 166.6,130.56 166.74,131.18 166.87,131.79 C 166.99,132.41 167.1,133.04 167.16,133.66 C 167.3,135.01 167.22,136.11 166.97,137.43 C 166.74,138.64 166.39,139.76 165.82,140.85 C 165.54,141.39 165.22,141.89 164.87,142.38 C 164.69,142.63 164.51,142.87 164.32,143.1 C 164.12,143.36 163.9,143.61 163.7,143.87 C 163.46,144.18 163.07,144.72 162.95,145.11 C 162.8,145.59 163.16,145.6 163.55,145.55 C 164.38,145.44 165.12,145.09 165.9,144.87 C 167.03,144.56 168.34,144.49 169.49,144.5 C 170.71,144.52 171.9,144.66 173.09,144.83 C 174.23,144.99 175.52,145.19 176.69,144.98 C 177.85,144.77 179.02,144.14 179.78,143.23 C 180.52,142.35 181.0,141.03 181.15,139.92 C 181.31,138.68 181.08,137.32 180.36,136.26 C 179.64,135.21 178.44,134.5 177.2,134.29 C 175.98,134.09 174.58,134.3 173.52,135.0 C 172.46,135.7 171.75,136.91 171.73,138.21 C 171.72,139.43 172.39,140.8 173.49,141.41 C 174.05,141.72 174.71,141.84 175.34,141.82 C 175.94,141.8 176.63,141.65 177.13,141.25 C 178.02,140.52 178.31,138.63 177.39,137.81 C 176.93,137.4 176.17,137.26 175.59,137.46 C 175.27,137.57 175.05,137.78 174.94,138.11 C 174.9,138.26 174.87,138.43 174.97,138.57 C 175.02,138.64 175.07,138.62 175.12,138.58 z M 178.35,174.09 C 180.4,171.18 181.98,167.96 183.04,164.57 C 183.57,162.88 183.97,161.17 184.23,159.42 C 184.3,159.0 184.36,158.58 184.4,158.15 C 184.42,158.05 184.43,157.94 184.44,157.84 C 184.45,157.71 184.46,157.62 184.34,157.53 C 184.25,157.46 184.12,157.46 184.02,157.53 C 183.99,157.55 183.83,157.76 183.81,157.79 C 183.21,158.52 182.52,159.07 181.68,159.51 C 180.87,159.93 180.06,160.18 179.14,160.27 C 178.22,160.35 177.38,160.2 176.51,159.93 C 175.8,159.71 174.72,159.26 173.97,159.15 C 173.04,159.02 172.21,159.14 171.34,159.41 C 170.54,159.65 169.8,160.0 169.05,160.35 C 168.2,160.74 167.2,161.21 166.31,161.51 C 164.59,162.09 162.94,162.13 161.2,161.57 C 160.32,161.28 159.52,160.87 158.74,160.38 C 158.36,160.13 157.98,159.88 157.57,159.68 C 157.14,159.47 156.73,159.37 156.24,159.41 C 155.79,159.45 155.34,159.62 155.03,159.97 C 154.64,160.4 154.69,160.75 154.73,161.26 C 154.75,161.7 154.79,162.13 154.86,162.57 C 154.92,162.94 154.96,163.31 155.03,163.68 C 155.08,163.98 155.14,164.27 155.19,164.57 C 155.24,164.91 155.25,165.25 155.28,165.59 C 155.31,166.01 155.34,166.43 155.31,166.85 C 155.28,167.15 155.3,167.45 155.32,167.75 C 155.34,168.07 155.35,168.4 155.4,168.73 C 155.46,169.13 155.61,169.5 155.75,169.88 C 155.96,170.43 156.18,170.99 156.42,171.53 C 156.59,171.93 156.76,172.33 156.98,172.7 C 157.1,172.91 157.23,173.11 157.4,173.28 C 157.54,173.43 157.68,173.55 157.83,173.67 C 159.15,174.71 161.57,175.3 163.1,175.63 C 163.51,175.72 163.94,175.8 164.35,175.9 C 164.67,175.98 164.98,176.1 165.3,176.19 C 165.83,176.34 166.08,176.31 166.6,176.18 C 167.14,176.04 167.43,176.01 167.99,175.97 C 168.9,175.9 169.81,175.89 170.71,175.84 C 171.62,175.79 172.52,175.71 173.42,175.58 C 174.31,175.45 175.19,175.26 176.06,175.03 C 176.49,174.91 176.91,174.79 177.34,174.65 C 177.72,174.53 178.08,174.46 178.35,174.09 z M 174.08,119.05 C 174.3,119.09 174.46,118.85 174.35,118.66 C 174.3,118.57 174.21,118.53 174.14,118.48 C 174.06,118.43 173.98,118.38 173.91,118.33 C 173.6,118.12 173.29,117.92 172.98,117.73 C 172.35,117.33 171.72,116.96 171.08,116.6 C 169.78,115.87 168.46,115.22 167.1,114.63 C 166.43,114.34 165.74,114.06 165.05,113.81 C 164.88,113.74 164.71,113.68 164.53,113.62 C 164.44,113.58 164.37,113.54 164.26,113.54 C 164.16,113.55 164.08,113.61 164.04,113.71 C 164.0,113.8 164.02,113.91 164.09,113.99 C 164.15,114.06 164.23,114.12 164.3,114.19 C 164.44,114.33 164.58,114.47 164.7,114.62 C 165.72,115.81 166.29,117.39 166.29,118.96 C 166.29,122.0 164.1,124.95 160.98,125.39 C 159.47,125.6 157.93,125.21 156.7,124.3 C 155.49,123.39 154.64,122.01 154.44,120.5 C 154.24,119.0 154.73,117.42 155.86,116.37 C 156.99,115.33 158.64,114.98 160.09,115.43 C 161.57,115.87 162.72,117.07 162.96,118.63 C 163.18,120.12 162.44,121.8 160.86,122.2 C 160.13,122.38 159.32,122.26 158.68,121.86 C 158.02,121.44 157.62,120.76 157.65,119.96 C 157.67,119.64 157.78,119.19 158.0,118.92 C 158.26,118.61 158.67,118.49 159.06,118.62 C 159.43,118.75 159.68,119.09 159.71,119.48 C 159.72,119.58 159.71,119.67 159.69,119.76 C 159.68,119.81 159.66,119.85 159.65,119.89 C 159.63,119.94 159.61,119.97 159.6,120.02 C 159.59,120.13 159.68,120.19 159.76,120.23 C 159.84,120.28 159.93,120.31 160.02,120.32 C 160.46,120.4 160.75,120.19 160.92,119.8 C 161.08,119.45 161.09,119.07 160.99,118.7 C 160.77,117.93 160.13,117.42 159.38,117.25 C 158.65,117.07 157.83,117.25 157.25,117.74 C 156.68,118.23 156.36,119.01 156.34,119.75 C 156.29,121.29 157.38,122.71 158.78,123.25 C 159.48,123.52 160.27,123.57 161.01,123.41 C 161.75,123.24 162.42,122.84 162.95,122.3 C 164.03,121.22 164.54,119.65 164.27,118.14 C 164.0,116.57 163.05,115.38 161.64,114.66 C 160.34,114.0 158.67,113.73 157.23,114.11 C 155.75,114.5 154.54,115.61 153.81,116.9 C 153.07,118.22 152.79,119.79 152.9,121.28 C 153.02,122.78 153.53,124.26 154.63,125.37 C 155.75,126.5 157.13,127.04 158.49,127.71 C 159.94,128.42 161.02,129.17 162.13,130.36 C 163.14,131.45 164.03,132.75 164.59,134.14 C 164.63,134.23 164.66,134.31 164.69,134.4 C 164.73,134.49 164.74,134.58 164.8,134.66 C 164.93,134.83 165.2,134.78 165.26,134.58 C 165.3,134.45 165.2,133.57 165.18,133.45 C 165.08,132.7 164.91,131.97 164.76,131.23 C 164.44,129.65 164.3,128.34 164.6,126.73 C 164.87,125.3 165.45,123.76 166.24,122.53 C 167.09,121.21 168.19,120.25 169.64,119.63 C 171.01,119.04 172.6,118.83 174.08,119.05 z M 192.63,151.42 C 192.79,151.49 192.97,151.39 193.0,151.22 C 193.01,151.18 192.98,150.8 192.97,150.76 C 192.95,150.45 192.92,150.15 192.89,149.84 C 192.83,149.23 192.75,148.62 192.66,148.01 C 192.64,147.86 192.62,147.71 192.6,147.56 C 192.58,147.43 192.58,147.22 192.43,147.13 C 192.34,147.09 192.28,147.08 192.19,147.12 C 192.1,147.16 192.07,147.23 192.03,147.3 C 191.95,147.44 191.86,147.58 191.77,147.71 C 191.37,148.27 190.91,148.67 190.29,148.98 C 189.14,149.55 187.67,149.62 186.5,149.04 C 185.29,148.45 184.5,147.25 184.52,145.89 C 184.55,144.46 185.44,143.39 186.85,143.14 C 187.51,143.02 188.16,143.13 188.68,143.6 C 189.21,144.07 189.41,144.69 189.29,145.38 C 189.27,145.54 189.23,145.69 189.18,145.85 C 189.12,146.01 189.03,146.13 188.9,146.24 C 188.65,146.46 188.29,146.54 187.97,146.43 C 187.65,146.33 187.4,146.07 187.32,145.74 C 187.28,145.58 187.28,145.42 187.33,145.26 C 187.34,145.22 187.38,145.11 187.35,145.06 C 187.31,145.0 187.19,145.02 187.14,145.03 C 186.97,145.06 186.85,145.14 186.73,145.25 C 186.59,145.37 186.53,145.5 186.49,145.67 C 186.42,145.99 186.48,146.34 186.63,146.62 C 186.97,147.23 187.64,147.5 188.29,147.5 C 188.92,147.5 189.59,147.27 190.03,146.78 C 190.47,146.29 190.68,145.62 190.65,144.99 C 190.63,144.33 190.38,143.7 189.99,143.19 C 189.58,142.66 189.05,142.31 188.42,142.1 C 187.09,141.67 185.84,141.95 184.68,142.59 C 183.52,143.22 182.55,144.06 181.5,144.82 C 179.14,146.52 177.21,147.25 174.24,146.95 C 173.92,146.92 173.59,146.88 173.27,146.82 C 172.96,146.77 172.63,146.73 172.31,146.68 C 171.67,146.59 171.03,146.52 170.38,146.48 C 169.21,146.41 167.68,146.42 166.52,146.72 C 165.88,146.89 165.31,147.18 164.71,147.44 C 164.05,147.74 163.59,147.89 162.87,148.03 C 162.23,148.16 161.59,148.23 160.96,148.39 C 160.33,148.56 159.73,148.8 159.15,149.08 C 157.96,149.67 156.93,150.4 155.96,151.29 C 155.18,152.02 153.96,153.21 153.7,154.38 C 153.58,154.94 153.56,155.75 153.65,156.32 C 153.69,156.57 153.79,157.01 154.02,157.19 C 154.25,157.36 154.64,157.43 154.89,157.46 C 155.17,157.49 155.45,157.49 155.73,157.48 C 156.12,157.47 156.5,157.44 156.88,157.48 C 157.55,157.54 158.13,157.76 158.72,158.08 C 159.29,158.39 159.81,158.78 160.38,159.09 C 160.95,159.41 161.54,159.66 162.17,159.83 C 163.42,160.15 164.79,160.07 165.98,159.55 C 167.18,159.03 168.16,158.07 168.68,156.86 C 169.18,155.68 169.26,154.27 168.75,153.06 C 167.68,150.53 164.19,149.8 162.18,151.65 C 161.19,152.56 160.87,153.99 161.37,155.23 C 161.62,155.85 162.04,156.35 162.69,156.59 C 163.3,156.8 164.01,156.77 164.61,156.53 C 165.24,156.28 165.71,155.83 165.82,155.13 C 165.87,154.85 165.87,154.43 165.68,154.19 C 165.51,153.96 165.09,153.78 164.82,153.81 C 164.64,153.82 164.5,153.88 164.36,153.97 C 164.33,153.99 164.29,154.02 164.27,154.05 C 164.25,154.06 164.26,154.07 164.27,154.09 C 164.29,154.14 164.32,154.19 164.34,154.24 C 164.47,154.55 164.42,154.91 164.22,155.19 C 163.79,155.75 162.93,155.69 162.59,155.07 C 161.85,153.74 162.63,152.47 163.97,152.01 C 164.61,151.79 165.25,151.82 165.88,152.05 C 166.48,152.27 167.03,152.66 167.37,153.23 C 168.05,154.34 167.86,155.89 167.16,156.91 C 166.41,158.01 165.11,158.59 163.84,158.67 C 162.52,158.74 161.24,158.29 160.36,157.27 C 159.5,156.28 159.12,154.94 159.21,153.65 C 159.41,150.89 161.69,148.94 164.35,148.7 C 166.97,148.46 169.59,149.92 170.58,152.41 C 171.06,153.62 171.16,154.96 170.9,156.23 C 170.87,156.39 170.83,156.55 170.79,156.7 C 170.74,156.86 170.69,157.01 170.64,157.17 C 170.6,157.33 170.73,157.5 170.9,157.5 C 170.99,157.5 171.06,157.46 171.14,157.44 C 171.22,157.42 171.29,157.4 171.37,157.38 C 172.01,157.23 172.64,157.15 173.3,157.16 C 174.85,157.17 175.64,157.62 177.06,158.06 C 177.69,158.26 178.29,158.39 178.97,158.33 C 179.63,158.27 180.22,158.08 180.81,157.77 C 181.98,157.15 182.85,156.12 183.18,154.83 C 183.5,153.58 183.24,152.18 182.45,151.14 C 181.67,150.13 180.3,149.53 179.02,149.75 C 177.74,149.97 176.62,150.98 176.41,152.3 C 176.31,152.93 176.42,153.61 176.79,154.15 C 177.17,154.7 177.74,155.06 178.41,155.09 C 178.99,155.12 179.78,154.88 180.09,154.32 C 180.25,154.03 180.26,153.69 180.18,153.39 C 180.14,153.23 180.08,153.06 179.9,152.99 C 179.74,152.92 179.56,152.98 179.46,153.11 C 179.35,153.25 179.31,153.42 179.2,153.56 C 179.1,153.68 178.92,153.75 178.78,153.78 C 178.46,153.85 178.12,153.74 177.89,153.51 C 177.65,153.28 177.56,152.94 177.62,152.62 C 177.68,152.33 177.88,151.98 178.07,151.77 C 178.51,151.25 179.15,151.04 179.81,151.07 C 180.49,151.11 181.06,151.34 181.51,151.87 C 182.37,152.86 182.37,154.43 181.65,155.49 C 180.91,156.58 179.53,157.11 178.27,157.03 C 176.94,156.95 175.77,156.21 175.08,155.09 C 174.39,153.97 174.27,152.58 174.64,151.34 C 175.02,150.08 175.91,149.05 177.05,148.42 C 178.22,147.77 179.52,147.6 180.81,147.91 C 182.08,148.21 183.21,148.94 184.0,149.98 C 184.4,150.51 184.7,151.07 184.91,151.69 C 185.02,152.0 185.1,152.31 185.16,152.63 C 185.17,152.71 185.19,152.79 185.2,152.87 C 185.21,152.95 185.2,153.03 185.24,153.1 C 185.32,153.26 185.53,153.3 185.66,153.18 C 185.72,153.13 185.76,153.06 185.81,152.99 C 185.86,152.93 185.91,152.87 185.96,152.81 C 186.07,152.68 186.18,152.57 186.3,152.45 C 186.54,152.23 186.79,152.02 187.07,151.84 C 187.62,151.47 188.19,151.22 188.82,151.05 C 190.1,150.73 191.44,150.86 192.63,151.42 z M 149.39,188.83 C 156.24,188.95 162.96,187.04 168.72,183.34 C 170.11,182.44 171.42,181.47 172.66,180.39 C 172.98,180.12 173.28,179.84 173.58,179.56 C 173.75,179.41 173.91,179.29 173.92,179.03 C 173.92,178.79 173.79,178.58 173.57,178.49 C 173.37,178.4 173.1,178.48 172.91,178.51 C 172.68,178.54 172.46,178.58 172.24,178.61 C 171.79,178.67 171.34,178.71 170.89,178.73 C 170.05,178.76 169.2,178.76 168.36,178.74 C 167.49,178.71 166.64,178.62 165.78,178.52 C 164.93,178.43 164.09,178.33 163.25,178.2 C 162.42,178.07 161.59,177.91 160.75,177.79 C 160.33,177.73 159.91,177.7 159.49,177.6 C 159.29,177.55 159.08,177.49 158.88,177.44 C 158.77,177.42 158.67,177.4 158.57,177.37 C 158.46,177.34 158.36,177.3 158.26,177.28 C 157.81,177.18 157.41,177.44 157.26,177.87 C 157.12,178.28 157.23,178.74 157.41,179.1 C 157.8,179.87 158.58,180.4 159.23,180.85 C 159.58,181.09 159.93,181.33 160.28,181.57 C 160.57,181.78 161.01,182.12 161.35,182.26 C 161.75,182.42 162.17,182.46 162.59,182.56 C 163.01,182.67 163.39,182.81 163.75,183.07 C 163.9,183.18 164.1,183.37 164.07,183.59 C 164.05,183.78 163.77,183.95 163.63,184.02 C 163.3,184.19 162.78,184.33 162.42,184.41 C 162.1,184.48 161.5,184.6 161.16,184.55 C 160.94,184.53 160.75,184.45 160.56,184.35 C 160.37,184.26 160.18,184.16 159.99,184.07 C 159.61,183.88 159.25,183.66 158.9,183.41 C 158.55,183.16 158.21,182.91 157.85,182.69 C 157.48,182.45 157.1,182.24 156.74,181.98 C 156.39,181.71 156.06,181.43 155.65,181.24 C 155.13,181.0 154.93,181.03 154.38,180.92 C 154.11,180.87 154.0,180.82 153.88,180.55 C 153.79,180.35 153.75,180.14 153.72,179.92 C 153.64,179.48 153.57,179.07 153.32,178.68 C 153.08,178.3 152.71,178.04 152.29,177.89 C 152.06,177.8 151.88,177.83 151.66,177.94 C 151.43,178.06 151.34,178.14 151.33,178.41 C 151.32,178.56 151.34,178.71 151.3,178.86 C 151.24,179.05 151.13,179.2 151.03,179.37 C 150.51,180.22 150.26,180.68 150.07,181.68 C 150.0,182.1 149.95,182.5 149.98,182.93 C 150.02,183.36 150.14,183.76 150.21,184.17 C 150.29,184.66 150.25,184.95 150.09,185.41 C 150.01,185.61 149.93,185.8 149.82,185.98 C 149.72,186.16 149.61,186.34 149.52,186.53 C 149.31,186.94 149.19,187.38 149.05,187.82 C 149.02,187.92 148.98,188.02 148.95,188.13 C 148.91,188.23 148.91,188.33 148.94,188.44 C 148.99,188.65 149.18,188.79 149.39,188.83 z M 142.06,176.29 C 141.62,176.47 141.41,176.57 140.91,176.51 C 140.51,176.47 140.14,176.33 139.75,176.25 C 138.96,176.07 138.16,176.1 137.43,176.48 C 137.06,176.66 136.77,176.92 136.48,177.2 C 136.2,177.47 135.91,177.75 135.6,177.99 C 134.93,178.51 134.21,178.75 133.4,178.92 C 132.7,179.07 132.0,179.19 131.29,179.23 C 130.91,179.26 130.53,179.28 130.15,179.3 C 129.71,179.33 129.26,179.37 128.82,179.39 C 128.6,179.4 128.37,179.41 128.15,179.4 C 127.93,179.39 127.72,179.34 127.49,179.43 C 127.28,179.51 127.13,179.71 127.12,179.94 C 127.12,180.19 127.25,180.32 127.42,180.46 C 128.0,180.96 128.6,181.44 129.22,181.9 C 131.81,183.85 134.53,185.36 137.55,186.52 C 139.03,187.09 140.53,187.55 142.06,187.91 C 142.82,188.09 143.59,188.24 144.36,188.37 C 144.74,188.43 145.12,188.49 145.51,188.54 C 145.75,188.57 145.93,188.55 146.11,188.35 C 146.22,188.22 146.32,187.89 146.36,187.74 C 146.48,187.33 146.56,186.91 146.67,186.5 C 146.79,186.0 146.81,185.84 146.83,185.33 C 146.85,184.74 146.9,184.72 147.15,184.21 C 147.37,183.78 147.35,183.52 147.46,183.07 C 147.58,182.56 147.62,182.43 147.68,181.91 C 147.7,181.72 147.72,181.52 147.75,181.33 C 147.78,181.13 147.81,180.94 147.8,180.74 C 147.75,179.9 146.9,179.36 146.11,179.46 C 145.85,179.49 145.62,179.6 145.38,179.69 C 145.14,179.78 144.9,179.89 144.69,180.04 C 144.58,180.11 144.49,180.19 144.39,180.28 C 144.29,180.36 144.21,180.45 144.08,180.5 C 143.96,180.55 143.83,180.54 143.71,180.57 C 143.43,180.62 143.24,180.75 143.08,180.99 C 142.84,181.36 142.66,181.75 142.44,182.13 C 142.23,182.49 142.22,182.51 141.84,182.69 C 141.6,182.81 141.36,182.92 141.12,183.03 C 139.92,183.58 139.47,183.81 138.11,183.67 C 137.79,183.63 137.48,183.59 137.16,183.58 C 137.0,183.57 136.84,183.57 136.68,183.58 C 136.21,183.61 135.74,183.65 135.27,183.69 C 134.98,183.71 134.69,183.74 134.39,183.73 C 134.27,183.72 134.15,183.7 134.04,183.65 C 133.76,183.54 133.47,183.35 133.49,182.99 C 133.51,182.75 133.72,182.58 133.93,182.51 C 134.14,182.44 134.35,182.4 134.56,182.36 C 134.97,182.27 135.37,182.17 135.77,182.05 C 136.08,181.95 136.38,181.84 136.68,181.73 C 136.99,181.62 137.3,181.52 137.64,181.5 C 137.91,181.48 138.18,181.53 138.45,181.45 C 138.64,181.39 138.82,181.31 139.0,181.24 C 139.36,181.1 139.73,180.96 140.08,180.79 C 140.44,180.62 140.75,180.43 141.01,180.11 C 141.13,179.96 141.23,179.79 141.33,179.62 C 141.42,179.45 141.52,179.29 141.68,179.16 C 141.98,178.92 142.35,178.77 142.65,178.52 C 142.97,178.26 143.17,177.98 143.27,177.56 C 143.35,177.23 143.39,176.75 143.14,176.45 C 142.86,176.11 142.41,176.17 142.06,176.29 z M 115.67,158.76 C 116.13,162.23 117.11,165.6 118.58,168.77 C 119.32,170.36 120.17,171.88 121.14,173.35 C 121.62,174.07 122.13,174.77 122.66,175.46 C 122.93,175.8 123.2,176.14 123.47,176.47 C 123.61,176.63 123.72,176.78 123.95,176.84 C 124.17,176.89 124.4,176.93 124.63,176.97 C 125.47,177.13 126.3,177.21 127.15,177.2 C 128.03,177.2 128.91,177.14 129.79,177.03 C 130.68,176.92 131.51,176.74 132.32,176.31 C 133.11,175.88 133.75,175.31 134.37,174.67 C 134.9,174.12 135.32,173.49 136.08,173.16 C 136.88,172.81 137.59,172.96 138.32,173.35 C 139.01,173.72 139.61,174.18 140.48,174.19 C 140.88,174.19 141.24,174.11 141.61,173.96 C 141.82,173.89 142.0,173.81 142.17,173.65 C 142.32,173.5 142.43,173.33 142.54,173.15 C 142.72,172.85 142.89,172.55 143.05,172.24 C 143.35,171.65 143.64,171.06 143.97,170.49 C 144.08,170.3 144.19,170.12 144.26,169.91 C 144.35,169.64 144.45,169.05 144.49,168.78 C 144.61,168.01 144.61,167.24 144.67,166.47 C 144.77,165.11 145.11,163.56 144.6,162.15 C 144.53,161.94 144.44,161.75 144.3,161.57 C 144.16,161.4 144.01,161.25 143.82,161.13 C 143.68,161.04 143.38,160.93 143.19,160.95 C 142.97,160.97 142.78,161.07 142.58,161.16 C 141.93,161.45 140.91,162.07 140.29,162.42 C 138.75,163.28 137.18,163.9 135.32,163.72 C 134.57,163.65 133.49,163.42 132.75,163.24 C 131.91,163.02 131.09,162.75 130.28,162.39 C 129.48,162.04 128.71,161.63 127.92,161.28 C 127.06,160.89 126.36,160.65 125.42,160.55 C 124.55,160.46 123.68,160.49 122.81,160.5 C 121.93,160.52 121.06,160.52 120.19,160.41 C 119.31,160.3 118.5,160.1 117.7,159.69 C 117.3,159.49 116.94,159.25 116.6,158.97 C 116.43,158.84 116.27,158.69 116.12,158.54 C 115.94,158.36 115.64,158.51 115.67,158.76 z M 107.37,151.42 C 108.89,150.7 110.65,150.7 112.17,151.41 C 112.54,151.58 112.89,151.79 113.22,152.05 C 113.38,152.17 113.53,152.29 113.67,152.43 C 113.74,152.5 113.81,152.57 113.88,152.64 C 113.95,152.71 114.0,152.79 114.12,152.8 C 114.23,152.81 114.33,152.75 114.38,152.66 C 114.4,152.63 114.45,152.41 114.46,152.37 C 114.51,152.18 114.57,151.98 114.65,151.79 C 114.79,151.41 114.97,151.05 115.18,150.7 C 116.04,149.31 117.41,148.3 119.03,147.96 C 120.65,147.61 122.31,147.97 123.62,149.01 C 124.94,150.07 125.59,151.62 125.36,153.31 C 125.14,154.98 124.06,156.34 122.5,156.96 C 120.95,157.56 119.17,157.34 118.09,155.94 C 117.06,154.6 117.18,152.65 118.57,151.6 C 119.23,151.11 120.06,150.89 120.88,151.11 C 121.72,151.33 122.31,151.94 122.34,152.85 C 122.35,153.28 122.24,153.64 122.05,154.02 C 121.95,154.2 121.85,154.36 121.66,154.47 C 121.47,154.6 121.29,154.64 121.06,154.62 C 120.64,154.58 120.3,154.29 120.2,153.88 C 120.15,153.66 120.16,153.48 120.25,153.27 C 120.28,153.2 120.33,153.14 120.35,153.06 C 120.37,152.96 120.29,152.96 120.22,152.97 C 120.02,152.97 119.81,153.08 119.67,153.21 C 119.51,153.35 119.42,153.51 119.37,153.73 C 119.29,154.15 119.44,154.55 119.72,154.86 C 120.32,155.51 121.29,155.4 121.99,155.06 C 122.75,154.68 123.26,154.02 123.41,153.18 C 123.57,152.35 123.36,151.55 122.8,150.91 C 122.26,150.3 121.48,149.9 120.68,149.8 C 119.87,149.7 119.02,149.88 118.32,150.28 C 116.87,151.11 116.06,152.76 116.2,154.4 C 116.34,156.05 117.42,157.53 118.97,158.13 C 120.42,158.7 122.36,158.55 123.81,158.55 C 124.63,158.54 125.43,158.57 126.24,158.7 C 126.64,158.77 127.04,158.87 127.42,159.0 C 127.52,159.03 127.62,159.06 127.71,159.1 C 127.81,159.13 127.89,159.18 128.01,159.15 C 128.11,159.12 128.18,159.04 128.2,158.94 C 128.21,158.83 128.16,158.74 128.14,158.64 C 127.72,157.08 127.96,155.32 128.74,153.92 C 129.54,152.5 130.91,151.42 132.48,151.0 C 134.06,150.58 135.79,150.82 137.15,151.74 C 138.53,152.67 139.4,154.16 139.42,155.84 C 139.43,157.53 138.65,159.05 137.15,159.89 C 135.75,160.68 133.87,160.72 132.55,159.68 C 131.27,158.68 130.75,156.75 131.64,155.31 C 132.11,154.56 132.84,154.13 133.71,154.03 C 134.55,153.93 135.42,154.19 135.91,154.95 C 136.13,155.31 136.23,155.73 136.21,156.15 C 136.2,156.49 136.07,157.04 135.83,157.31 C 135.55,157.65 135.07,157.75 134.67,157.56 C 134.28,157.37 134.06,156.93 134.14,156.5 C 134.16,156.38 134.22,156.28 134.26,156.16 C 134.27,156.12 134.29,156.08 134.27,156.03 C 134.25,155.98 134.22,155.97 134.17,155.96 C 133.99,155.94 133.73,155.98 133.57,156.07 C 133.38,156.17 133.25,156.37 133.19,156.56 C 133.12,156.77 133.12,156.96 133.17,157.18 C 133.25,157.58 133.48,157.98 133.83,158.21 C 134.53,158.69 135.53,158.58 136.22,158.19 C 137.0,157.74 137.4,157.0 137.47,156.12 C 137.6,154.31 136.12,152.94 134.41,152.76 C 132.69,152.58 131.05,153.57 130.31,155.11 C 129.96,155.86 129.81,156.74 129.91,157.56 C 130.01,158.43 130.37,159.16 130.94,159.81 C 132.06,161.06 133.78,161.76 135.42,161.82 C 137.28,161.9 138.48,161.23 139.98,160.35 C 140.69,159.95 141.38,159.53 142.14,159.21 C 142.84,158.92 143.71,158.66 144.47,158.55 C 144.87,158.49 145.27,158.46 145.65,158.33 C 145.92,158.23 145.97,158.18 146.02,157.9 C 146.06,157.7 146.07,157.5 146.07,157.3 C 146.06,156.89 146.03,156.49 145.98,156.09 C 145.96,155.89 145.92,155.69 145.88,155.49 C 145.83,155.3 145.75,155.11 145.66,154.93 C 144.89,153.5 143.34,152.51 141.97,151.86 C 140.63,151.23 138.79,150.65 137.37,150.26 C 135.68,149.79 134.34,149.52 132.59,149.37 C 131.02,149.23 129.33,149.13 127.87,148.3 C 126.46,147.51 125.4,146.09 124.9,144.57 C 124.64,143.79 124.52,143.0 124.41,142.19 C 124.3,141.39 124.2,140.59 123.94,139.81 C 123.41,138.27 122.35,136.92 121.0,136.03 C 119.67,135.15 117.99,134.64 116.37,134.87 C 114.76,135.09 113.26,136.02 112.3,137.31 C 111.34,138.6 110.9,140.33 111.28,141.92 C 111.66,143.53 112.95,144.79 114.47,145.34 C 116.0,145.9 117.77,145.73 119.14,144.83 C 119.84,144.38 120.37,143.78 120.63,142.97 C 120.88,142.2 120.87,141.34 120.61,140.58 C 120.36,139.81 119.85,139.12 119.18,138.66 C 118.51,138.2 117.67,137.99 116.87,138.08 C 116.08,138.17 115.28,138.58 114.81,139.25 C 114.37,139.89 114.23,140.86 114.66,141.56 C 115.1,142.27 115.98,142.6 116.78,142.4 C 116.98,142.35 117.16,142.27 117.33,142.15 C 117.48,142.02 117.61,141.81 117.51,141.6 C 117.41,141.41 117.14,141.37 116.97,141.35 C 116.76,141.32 116.59,141.25 116.43,141.1 C 116.12,140.82 116.03,140.37 116.2,139.99 C 116.38,139.59 116.79,139.37 117.22,139.42 C 118.03,139.52 118.79,139.88 119.19,140.65 C 119.56,141.37 119.56,142.28 119.14,142.99 C 118.72,143.7 117.94,144.13 117.17,144.3 C 115.54,144.67 113.83,143.96 112.97,142.52 C 112.12,141.08 112.37,139.21 113.37,137.94 C 114.4,136.63 116.06,136.0 117.69,136.13 C 121.21,136.43 123.48,139.99 122.55,143.33 C 122.09,145.01 120.9,146.21 119.37,146.92 C 117.87,147.63 116.15,147.8 114.54,147.4 C 112.94,147.0 111.48,146.04 110.49,144.72 C 109.98,144.04 109.64,143.33 109.42,142.5 C 109.37,142.3 109.33,142.1 109.29,141.9 C 109.28,141.8 109.29,141.7 109.23,141.6 C 109.17,141.51 109.06,141.47 108.96,141.49 C 108.83,141.51 108.78,141.57 108.74,141.69 C 108.72,141.78 108.69,141.88 108.66,141.97 C 108.61,142.15 108.55,142.34 108.5,142.53 C 108.08,144.02 107.74,145.53 107.48,147.06 C 107.36,147.83 107.25,148.59 107.16,149.36 C 107.12,149.75 107.08,150.13 107.05,150.52 C 107.03,150.71 107.01,150.91 107.0,151.1 C 106.99,151.21 106.99,151.3 107.08,151.38 C 107.16,151.45 107.28,151.46 107.37,151.42 z M 154.11,108.04 C 154.01,108.16 154.05,108.34 154.18,108.43 C 154.21,108.45 154.24,108.46 154.28,108.47 C 154.37,108.48 154.47,108.48 154.56,108.49 C 154.76,108.51 154.96,108.53 155.17,108.56 C 155.97,108.65 156.78,108.76 157.58,108.89 C 159.18,109.16 160.76,109.51 162.33,109.95 C 165.49,110.83 168.47,112.01 171.37,113.54 C 177.14,116.57 182.2,120.8 186.21,125.94 C 190.12,130.94 192.95,136.71 194.52,142.86 C 196.08,149.02 196.36,155.43 195.32,161.7 C 194.29,167.97 191.96,173.95 188.49,179.27 C 185.03,184.6 180.5,189.14 175.18,192.62 C 164.44,199.67 151.24,201.89 138.79,198.75 C 132.63,197.2 126.86,194.39 121.84,190.5 C 116.82,186.6 112.66,181.71 109.63,176.13 C 106.6,170.55 104.76,164.4 104.22,158.07 C 103.69,151.74 104.47,145.37 106.53,139.36 C 108.58,133.35 111.86,127.82 116.15,123.14 C 120.45,118.46 125.67,114.73 131.48,112.16 C 134.42,110.87 137.41,109.91 140.55,109.25 C 142.11,108.92 143.68,108.67 145.27,108.51 C 145.37,108.5 145.47,108.49 145.56,108.48 C 145.63,108.47 145.7,108.48 145.76,108.46 C 145.84,108.43 145.88,108.39 145.92,108.32 C 146.0,108.14 145.89,108.05 145.81,107.93 C 145.64,107.68 145.49,107.43 145.37,107.17 C 144.29,104.89 145.03,102.18 147.1,100.76 C 149.17,99.33 151.98,99.63 153.71,101.45 C 155.43,103.26 155.6,106.04 154.11,108.04 z" />
		
		<!-- Name One -->
		<text dy="2.5" style="stroke:none;fill:#f00;font-family:z_swan;font-size:20px;text-anchor:middle;">
			<textPath id="txt2" startOffset="50%" xlink:href="#txtpath" class="txt" ></textPath>
		</text>
		
		
		<!-- Prism Reference -->
		<cam mingh:cam="--actions=EditSelectAll;ObjectToPath;ZoomPage;ZoomCenterPage;FileVacuum;FileSave; -g" mingh:style="source:microprism">M2</cam> 
	 </g>

</svg>
