<?xml version="1.0" encoding="UTF-8" standalone="no"?>

<svg
   xmlns:xlink="http://www.w3.org/1999/xlink"
   xmlns:svg="http://www.w3.org/2000/svg"
   xmlns="http://www.w3.org/2000/svg"
   xmlns:mingh="http://www.minghworld.com"
   width="300px"
   height="300px" >
   
	<defs>
		
		<!-- Birth -->
		<path id="birth" style="fill:#00f;stroke:none;"
         d="M 186.8,140.41 C 186.8,142.55 185.06,144.28 182.91,144.28 C 180.77,144.28 179.03,142.55 179.03,140.41 C 179.03,138.27 180.77,136.53 182.91,136.53 C 185.06,136.53 186.8,138.27 186.8,140.41 z" />
		 
		<!-- Diamond -->
		<path id="diamond" style="fill:none;stroke:#000;stroke-width:0.25px;"
         d="M 185.74,140.41 C 185.74,138.85 184.47,137.59 182.91,137.59 C 181.35,137.59 180.09,138.85 180.09,140.41 C 180.09,141.96 181.35,143.22 182.91,143.22 C 184.47,143.22 185.74,141.96 185.74,140.41 z" />
		 
		<!-- Text Path -->
		<path id="txtpath1" style="fill:none;stroke:#f0f;stroke-width:0.25px;"
		 d="M 112.18,140.34 C 125.81,143.87 140.09,152.4 148.15,161.18" />
		 <!-- Text Path -->
		<path id="txtpath2" style="fill:none;stroke:#f0f;stroke-width:0.25px;"
		 d="M 151.85,161.18 C 159.91,152.4 173.43,142.36 187.06,138.82" />
		
	</defs>	
		
	 <g>	
		<!-- Shape -->
		<path id="shape" style="fill:none;stroke:#fb0;stroke-width:0.25px;"
		d="M 187.63,134.71 C 187.63,135.68 188.42,136.47 189.39,136.47 C 190.37,136.47 191.16,135.68 191.16,134.71 C 191.16,133.74 190.37,132.95 189.39,132.95 C 188.42,132.95 187.63,133.74 187.63,134.71 z M 112.38,134.71 C 112.38,133.74 111.58,132.95 110.61,132.95 C 109.63,132.95 108.84,133.74 108.84,134.71 C 108.84,135.68 109.63,136.47 110.61,136.47 C 111.58,136.47 112.38,135.68 112.38,134.71 z M 150.0,169.07 C 147.1,165.52 143.59,162.38 139.92,159.66 C 135.81,156.62 131.47,154.05 126.89,151.77 C 121.57,149.13 116.11,146.97 110.43,145.22 C 109.73,145.0 109.02,144.79 108.31,144.58 C 107.75,144.42 107.19,144.27 106.63,144.12 C 106.54,144.09 106.46,144.06 106.37,144.03 C 106.2,143.96 106.04,143.88 105.89,143.77 C 105.27,143.37 104.85,142.72 104.73,141.99 C 104.67,141.61 104.69,141.26 104.79,140.9 C 104.82,140.78 105.1,139.97 105.13,139.86 C 105.37,139.17 105.6,138.48 105.84,137.79 C 106.12,136.94 106.41,136.09 106.7,135.24 C 106.84,134.82 106.99,134.39 107.13,133.97 C 107.27,133.54 107.41,133.12 107.56,132.7 C 107.87,131.83 108.6,131.19 109.5,131.0 C 109.96,130.9 110.38,130.91 110.84,131.05 C 111.17,131.15 111.49,131.28 111.82,131.4 C 112.65,131.7 113.47,132.01 114.29,132.33 C 115.94,132.98 117.56,133.67 119.17,134.41 C 122.41,135.9 125.55,137.55 128.59,139.4 C 132.89,142.0 136.9,144.89 140.65,148.25 C 142.44,149.85 144.13,151.52 145.73,153.31 C 146.51,154.18 147.26,155.07 147.98,155.98 C 148.33,156.43 148.68,156.89 149.02,157.35 C 149.19,157.58 149.35,157.81 149.52,158.04 C 149.6,158.16 149.68,158.28 149.76,158.39 C 149.8,158.45 149.84,158.51 149.88,158.57 C 149.9,158.6 149.92,158.62 149.94,158.65 C 149.95,158.67 149.96,158.68 149.97,158.7 C 149.98,158.7 149.98,158.71 149.99,158.72 C 149.99,158.72 149.99,158.73 149.99,158.73 C 150.0,158.73 150.0,158.75 150.0,158.74 C 155.41,150.81 163.33,144.28 171.41,139.4 C 174.45,137.55 177.59,135.9 180.82,134.41 C 182.44,133.67 184.06,132.98 185.71,132.33 C 186.53,132.01 187.35,131.7 188.18,131.4 C 188.51,131.28 188.83,131.15 189.16,131.05 C 189.62,130.91 190.04,130.9 190.5,131.0 C 191.4,131.19 192.13,131.83 192.44,132.7 C 192.59,133.12 192.73,133.54 192.87,133.97 C 193.01,134.39 193.16,134.82 193.3,135.24 C 193.59,136.09 193.88,136.94 194.16,137.79 C 194.4,138.48 194.63,139.17 194.87,139.86 C 194.9,139.97 195.18,140.78 195.21,140.89 C 195.31,141.26 195.33,141.61 195.27,141.99 C 195.15,142.72 194.73,143.37 194.11,143.77 C 193.96,143.88 193.8,143.96 193.63,144.03 C 193.54,144.06 193.46,144.09 193.37,144.12 C 192.81,144.27 192.25,144.42 191.7,144.58 C 190.99,144.79 190.28,145.0 189.57,145.21 C 183.89,146.97 178.43,149.12 173.11,151.77 C 168.53,154.05 164.19,156.62 160.08,159.66 C 156.41,162.38 152.9,165.52 150.0,169.07 z" />
		
		<!-- Name One -->
		<text dy="2.5" style="stroke:none;fill:#f00;font-family:z_swan;font-size:17px;text-anchor:middle;">
			<textPath id="txtLeft1" startOffset="50%" xlink:href="#txtpath1" class="txt" ></textPath>
		</text>
		
		<text dy="2.5" style="stroke:none;fill:#f00;font-family:z_swan;font-size:17px;text-anchor:middle;">
			<textPath id="txtRight1" startOffset="50%" xlink:href="#txtpath2" class="txt" ></textPath>
		</text>
			
		<!-- Prism Reference -->
		<cam mingh:cam="--actions=EditSelectAll;ObjectToPath;ZoomPage;ZoomCenterPage;FileVacuum;FileSave; -g" mingh:style="source:microprism">M2</cam> 
	 </g>

</svg>
